M48
; DRILL file {KiCad (5.1.8)-1} date 02/01/21 22:34:26
; FORMAT={-:-/ absolute / inch / decimal}
; #@! TF.CreationDate,2021-02-01T22:34:26+01:00
; #@! TF.GenerationSoftware,Kicad,Pcbnew,(5.1.8)-1
FMAT,2
INCH
T1C0.0197
T2C0.0472
T3C0.1260
%
G90
G05
T1
X5.9685Y-3.3071
X5.9962Y-3.2403
X5.9962Y-3.3739
X6.063Y-3.2126
X6.063Y-3.4016
X6.1298Y-3.2403
X6.1298Y-3.3739
X6.1575Y-3.3071
X4.0787Y-3.3071
X4.1064Y-3.2403
X4.1064Y-3.3739
X4.1732Y-3.2126
X4.1732Y-3.4016
X4.24Y-3.2403
X4.24Y-3.3739
X4.2677Y-3.3071
X5.9685Y-2.2047
X5.9962Y-2.1379
X5.9962Y-2.2715
X6.063Y-2.1102
X6.063Y-2.2992
X6.1298Y-2.1379
X6.1298Y-2.2715
X6.1575Y-2.2047
X4.0787Y-2.2047
X4.1064Y-2.1379
X4.1064Y-2.2715
X4.1732Y-2.1102
X4.1732Y-2.2992
X4.24Y-2.1379
X4.24Y-2.2715
X4.2677Y-2.2047
T2
X5.6102Y-3.3071
X5.748Y-3.3071
T3
X6.063Y-3.3071
X4.1732Y-3.3071
X6.063Y-2.2047
X4.1732Y-2.2047
T0
M30
