%TF.GenerationSoftware,KiCad,Pcbnew,(5.1.8)-1*%
%TF.CreationDate,2021-02-01T21:18:50+01:00*%
%TF.ProjectId,adl-variant,61646c2d-7661-4726-9961-6e742e6b6963,rev?*%
%TF.SameCoordinates,Original*%
%TF.FileFunction,Copper,L1,Top*%
%TF.FilePolarity,Positive*%
%FSLAX46Y46*%
G04 Gerber Fmt 4.6, Leading zero omitted, Abs format (unit mm)*
G04 Created by KiCad (PCBNEW (5.1.8)-1) date 2021-02-01 21:18:50*
%MOMM*%
%LPD*%
G01*
G04 APERTURE LIST*
%TA.AperFunction,Profile*%
%ADD10C,0.050000*%
%TD*%
%TA.AperFunction,SMDPad,CuDef*%
%ADD11R,5.080000X1.500000*%
%TD*%
%TA.AperFunction,ComponentPad*%
%ADD12R,2.400000X2.400000*%
%TD*%
%TA.AperFunction,ComponentPad*%
%ADD13C,2.400000*%
%TD*%
%TA.AperFunction,SMDPad,CuDef*%
%ADD14R,0.900000X1.300000*%
%TD*%
%TA.AperFunction,SMDPad,CuDef*%
%ADD15C,0.100000*%
%TD*%
%TA.AperFunction,ComponentPad*%
%ADD16C,0.800000*%
%TD*%
%TA.AperFunction,ComponentPad*%
%ADD17C,6.400000*%
%TD*%
%TA.AperFunction,Conductor*%
%ADD18C,0.525491*%
%TD*%
%TA.AperFunction,Conductor*%
%ADD19C,1.045160*%
%TD*%
%TA.AperFunction,Conductor*%
%ADD20C,0.100000*%
%TD*%
G04 APERTURE END LIST*
D10*
X105000000Y-90000000D02*
G75*
G02*
X100000000Y-85000000I0J5000000D01*
G01*
X160000000Y-85000000D02*
G75*
G02*
X155000000Y-90000000I-5000000J0D01*
G01*
X155000000Y-50000000D02*
G75*
G02*
X160000000Y-55000000I0J-5000000D01*
G01*
X100000000Y-55000000D02*
G75*
G02*
X105000000Y-50000000I5000000J0D01*
G01*
X100000000Y-85000000D02*
X100000000Y-55000000D01*
X155000000Y-90000000D02*
X105000000Y-90000000D01*
X160000000Y-55000000D02*
X160000000Y-85000000D01*
X105000000Y-50000000D02*
X155000000Y-50000000D01*
D11*
%TO.P,J3,1*%
%TO.N,Net-(C8-Pad2)*%
X157000000Y-66500000D03*
%TO.P,J3,2*%
%TO.N,GND*%
X157000000Y-62250000D03*
X157000000Y-70750000D03*
%TD*%
%TO.P,J2,1*%
%TO.N,Net-(C7-Pad1)*%
X103000000Y-66500000D03*
%TO.P,J2,2*%
%TO.N,GND*%
X103000000Y-70750000D03*
X103000000Y-62250000D03*
%TD*%
%TO.P,C1,1*%
%TO.N,+5V*%
%TA.AperFunction,SMDPad,CuDef*%
G36*
G01*
X135900000Y-81925000D02*
X135900000Y-82875000D01*
G75*
G02*
X135650000Y-83125000I-250000J0D01*
G01*
X135150000Y-83125000D01*
G75*
G02*
X134900000Y-82875000I0J250000D01*
G01*
X134900000Y-81925000D01*
G75*
G02*
X135150000Y-81675000I250000J0D01*
G01*
X135650000Y-81675000D01*
G75*
G02*
X135900000Y-81925000I0J-250000D01*
G01*
G37*
%TD.AperFunction*%
%TO.P,C1,2*%
%TO.N,GND*%
%TA.AperFunction,SMDPad,CuDef*%
G36*
G01*
X134000000Y-81925000D02*
X134000000Y-82875000D01*
G75*
G02*
X133750000Y-83125000I-250000J0D01*
G01*
X133250000Y-83125000D01*
G75*
G02*
X133000000Y-82875000I0J250000D01*
G01*
X133000000Y-81925000D01*
G75*
G02*
X133250000Y-81675000I250000J0D01*
G01*
X133750000Y-81675000D01*
G75*
G02*
X134000000Y-81925000I0J-250000D01*
G01*
G37*
%TD.AperFunction*%
%TD*%
%TO.P,C2,2*%
%TO.N,GND*%
%TA.AperFunction,SMDPad,CuDef*%
G36*
G01*
X134000000Y-79695000D02*
X134000000Y-80645000D01*
G75*
G02*
X133750000Y-80895000I-250000J0D01*
G01*
X133250000Y-80895000D01*
G75*
G02*
X133000000Y-80645000I0J250000D01*
G01*
X133000000Y-79695000D01*
G75*
G02*
X133250000Y-79445000I250000J0D01*
G01*
X133750000Y-79445000D01*
G75*
G02*
X134000000Y-79695000I0J-250000D01*
G01*
G37*
%TD.AperFunction*%
%TO.P,C2,1*%
%TO.N,+5V*%
%TA.AperFunction,SMDPad,CuDef*%
G36*
G01*
X135900000Y-79695000D02*
X135900000Y-80645000D01*
G75*
G02*
X135650000Y-80895000I-250000J0D01*
G01*
X135150000Y-80895000D01*
G75*
G02*
X134900000Y-80645000I0J250000D01*
G01*
X134900000Y-79695000D01*
G75*
G02*
X135150000Y-79445000I250000J0D01*
G01*
X135650000Y-79445000D01*
G75*
G02*
X135900000Y-79695000I0J-250000D01*
G01*
G37*
%TD.AperFunction*%
%TD*%
%TO.P,C3,1*%
%TO.N,+5V*%
%TA.AperFunction,SMDPad,CuDef*%
G36*
G01*
X135900000Y-77465000D02*
X135900000Y-78415000D01*
G75*
G02*
X135650000Y-78665000I-250000J0D01*
G01*
X135150000Y-78665000D01*
G75*
G02*
X134900000Y-78415000I0J250000D01*
G01*
X134900000Y-77465000D01*
G75*
G02*
X135150000Y-77215000I250000J0D01*
G01*
X135650000Y-77215000D01*
G75*
G02*
X135900000Y-77465000I0J-250000D01*
G01*
G37*
%TD.AperFunction*%
%TO.P,C3,2*%
%TO.N,GND*%
%TA.AperFunction,SMDPad,CuDef*%
G36*
G01*
X134000000Y-77465000D02*
X134000000Y-78415000D01*
G75*
G02*
X133750000Y-78665000I-250000J0D01*
G01*
X133250000Y-78665000D01*
G75*
G02*
X133000000Y-78415000I0J250000D01*
G01*
X133000000Y-77465000D01*
G75*
G02*
X133250000Y-77215000I250000J0D01*
G01*
X133750000Y-77215000D01*
G75*
G02*
X134000000Y-77465000I0J-250000D01*
G01*
G37*
%TD.AperFunction*%
%TD*%
%TO.P,C4,2*%
%TO.N,GND*%
%TA.AperFunction,SMDPad,CuDef*%
G36*
G01*
X134000000Y-75235000D02*
X134000000Y-76185000D01*
G75*
G02*
X133750000Y-76435000I-250000J0D01*
G01*
X133250000Y-76435000D01*
G75*
G02*
X133000000Y-76185000I0J250000D01*
G01*
X133000000Y-75235000D01*
G75*
G02*
X133250000Y-74985000I250000J0D01*
G01*
X133750000Y-74985000D01*
G75*
G02*
X134000000Y-75235000I0J-250000D01*
G01*
G37*
%TD.AperFunction*%
%TO.P,C4,1*%
%TO.N,+5V*%
%TA.AperFunction,SMDPad,CuDef*%
G36*
G01*
X135900000Y-75235000D02*
X135900000Y-76185000D01*
G75*
G02*
X135650000Y-76435000I-250000J0D01*
G01*
X135150000Y-76435000D01*
G75*
G02*
X134900000Y-76185000I0J250000D01*
G01*
X134900000Y-75235000D01*
G75*
G02*
X135150000Y-74985000I250000J0D01*
G01*
X135650000Y-74985000D01*
G75*
G02*
X135900000Y-75235000I0J-250000D01*
G01*
G37*
%TD.AperFunction*%
%TD*%
%TO.P,C5,1*%
%TO.N,+5V*%
%TA.AperFunction,SMDPad,CuDef*%
G36*
G01*
X135900000Y-73005000D02*
X135900000Y-73955000D01*
G75*
G02*
X135650000Y-74205000I-250000J0D01*
G01*
X135150000Y-74205000D01*
G75*
G02*
X134900000Y-73955000I0J250000D01*
G01*
X134900000Y-73005000D01*
G75*
G02*
X135150000Y-72755000I250000J0D01*
G01*
X135650000Y-72755000D01*
G75*
G02*
X135900000Y-73005000I0J-250000D01*
G01*
G37*
%TD.AperFunction*%
%TO.P,C5,2*%
%TO.N,GND*%
%TA.AperFunction,SMDPad,CuDef*%
G36*
G01*
X134000000Y-73005000D02*
X134000000Y-73955000D01*
G75*
G02*
X133750000Y-74205000I-250000J0D01*
G01*
X133250000Y-74205000D01*
G75*
G02*
X133000000Y-73955000I0J250000D01*
G01*
X133000000Y-73005000D01*
G75*
G02*
X133250000Y-72755000I250000J0D01*
G01*
X133750000Y-72755000D01*
G75*
G02*
X134000000Y-73005000I0J-250000D01*
G01*
G37*
%TD.AperFunction*%
%TD*%
%TO.P,C6,2*%
%TO.N,GND*%
%TA.AperFunction,SMDPad,CuDef*%
G36*
G01*
X134000000Y-70775000D02*
X134000000Y-71725000D01*
G75*
G02*
X133750000Y-71975000I-250000J0D01*
G01*
X133250000Y-71975000D01*
G75*
G02*
X133000000Y-71725000I0J250000D01*
G01*
X133000000Y-70775000D01*
G75*
G02*
X133250000Y-70525000I250000J0D01*
G01*
X133750000Y-70525000D01*
G75*
G02*
X134000000Y-70775000I0J-250000D01*
G01*
G37*
%TD.AperFunction*%
%TO.P,C6,1*%
%TO.N,+5V*%
%TA.AperFunction,SMDPad,CuDef*%
G36*
G01*
X135900000Y-70775000D02*
X135900000Y-71725000D01*
G75*
G02*
X135650000Y-71975000I-250000J0D01*
G01*
X135150000Y-71975000D01*
G75*
G02*
X134900000Y-71725000I0J250000D01*
G01*
X134900000Y-70775000D01*
G75*
G02*
X135150000Y-70525000I250000J0D01*
G01*
X135650000Y-70525000D01*
G75*
G02*
X135900000Y-70775000I0J-250000D01*
G01*
G37*
%TD.AperFunction*%
%TD*%
%TO.P,C7,1*%
%TO.N,Net-(C7-Pad1)*%
%TA.AperFunction,SMDPad,CuDef*%
G36*
G01*
X118550000Y-66975000D02*
X118550000Y-66025000D01*
G75*
G02*
X118800000Y-65775000I250000J0D01*
G01*
X119300000Y-65775000D01*
G75*
G02*
X119550000Y-66025000I0J-250000D01*
G01*
X119550000Y-66975000D01*
G75*
G02*
X119300000Y-67225000I-250000J0D01*
G01*
X118800000Y-67225000D01*
G75*
G02*
X118550000Y-66975000I0J250000D01*
G01*
G37*
%TD.AperFunction*%
%TO.P,C7,2*%
%TO.N,Net-(C7-Pad2)*%
%TA.AperFunction,SMDPad,CuDef*%
G36*
G01*
X120450000Y-66975000D02*
X120450000Y-66025000D01*
G75*
G02*
X120700000Y-65775000I250000J0D01*
G01*
X121200000Y-65775000D01*
G75*
G02*
X121450000Y-66025000I0J-250000D01*
G01*
X121450000Y-66975000D01*
G75*
G02*
X121200000Y-67225000I-250000J0D01*
G01*
X120700000Y-67225000D01*
G75*
G02*
X120450000Y-66975000I0J250000D01*
G01*
G37*
%TD.AperFunction*%
%TD*%
%TO.P,C8,2*%
%TO.N,Net-(C8-Pad2)*%
%TA.AperFunction,SMDPad,CuDef*%
G36*
G01*
X140450000Y-66975000D02*
X140450000Y-66025000D01*
G75*
G02*
X140700000Y-65775000I250000J0D01*
G01*
X141200000Y-65775000D01*
G75*
G02*
X141450000Y-66025000I0J-250000D01*
G01*
X141450000Y-66975000D01*
G75*
G02*
X141200000Y-67225000I-250000J0D01*
G01*
X140700000Y-67225000D01*
G75*
G02*
X140450000Y-66975000I0J250000D01*
G01*
G37*
%TD.AperFunction*%
%TO.P,C8,1*%
%TO.N,Net-(C8-Pad1)*%
%TA.AperFunction,SMDPad,CuDef*%
G36*
G01*
X138550000Y-66975000D02*
X138550000Y-66025000D01*
G75*
G02*
X138800000Y-65775000I250000J0D01*
G01*
X139300000Y-65775000D01*
G75*
G02*
X139550000Y-66025000I0J-250000D01*
G01*
X139550000Y-66975000D01*
G75*
G02*
X139300000Y-67225000I-250000J0D01*
G01*
X138800000Y-67225000D01*
G75*
G02*
X138550000Y-66975000I0J250000D01*
G01*
G37*
%TD.AperFunction*%
%TD*%
D12*
%TO.P,J1,1*%
%TO.N,+5V*%
X142500000Y-84000000D03*
D13*
%TO.P,J1,2*%
%TO.N,GND*%
X146000000Y-84000000D03*
%TD*%
%TO.P,L1,1*%
%TO.N,+5V*%
%TA.AperFunction,SMDPad,CuDef*%
G36*
G01*
X135781250Y-69062500D02*
X135018750Y-69062500D01*
G75*
G02*
X134800000Y-68843750I0J218750D01*
G01*
X134800000Y-68406250D01*
G75*
G02*
X135018750Y-68187500I218750J0D01*
G01*
X135781250Y-68187500D01*
G75*
G02*
X136000000Y-68406250I0J-218750D01*
G01*
X136000000Y-68843750D01*
G75*
G02*
X135781250Y-69062500I-218750J0D01*
G01*
G37*
%TD.AperFunction*%
%TO.P,L1,2*%
%TO.N,Net-(C8-Pad1)*%
%TA.AperFunction,SMDPad,CuDef*%
G36*
G01*
X135781250Y-66937500D02*
X135018750Y-66937500D01*
G75*
G02*
X134800000Y-66718750I0J218750D01*
G01*
X134800000Y-66281250D01*
G75*
G02*
X135018750Y-66062500I218750J0D01*
G01*
X135781250Y-66062500D01*
G75*
G02*
X136000000Y-66281250I0J-218750D01*
G01*
X136000000Y-66718750D01*
G75*
G02*
X135781250Y-66937500I-218750J0D01*
G01*
G37*
%TD.AperFunction*%
%TD*%
D14*
%TO.P,U1,1*%
%TO.N,Net-(C7-Pad2)*%
X128500000Y-66500000D03*
%TO.P,U1,3*%
%TO.N,Net-(C8-Pad1)*%
X131500000Y-66500000D03*
%TA.AperFunction,SMDPad,CuDef*%
D15*
%TO.P,U1,2*%
%TO.N,GND*%
G36*
X130866500Y-62550000D02*
G01*
X130866500Y-65675000D01*
X130450000Y-65675000D01*
X130450000Y-67150000D01*
X129550000Y-67150000D01*
X129550000Y-65675000D01*
X129133500Y-65675000D01*
X129133500Y-62550000D01*
X130866500Y-62550000D01*
G37*
%TD.AperFunction*%
%TD*%
D16*
%TO.P,H1,1*%
%TO.N,GND*%
X107697056Y-54302944D03*
X106000000Y-53600000D03*
X104302944Y-54302944D03*
X103600000Y-56000000D03*
X104302944Y-57697056D03*
X106000000Y-58400000D03*
X107697056Y-57697056D03*
X108400000Y-56000000D03*
D17*
X106000000Y-56000000D03*
%TD*%
%TO.P,H2,1*%
%TO.N,GND*%
X154000000Y-56000000D03*
D16*
X156400000Y-56000000D03*
X155697056Y-57697056D03*
X154000000Y-58400000D03*
X152302944Y-57697056D03*
X151600000Y-56000000D03*
X152302944Y-54302944D03*
X154000000Y-53600000D03*
X155697056Y-54302944D03*
%TD*%
%TO.P,H3,1*%
%TO.N,GND*%
X107697056Y-82302944D03*
X106000000Y-81600000D03*
X104302944Y-82302944D03*
X103600000Y-84000000D03*
X104302944Y-85697056D03*
X106000000Y-86400000D03*
X107697056Y-85697056D03*
X108400000Y-84000000D03*
D17*
X106000000Y-84000000D03*
%TD*%
%TO.P,H4,1*%
%TO.N,GND*%
X154000000Y-84000000D03*
D16*
X156400000Y-84000000D03*
X155697056Y-85697056D03*
X154000000Y-86400000D03*
X152302944Y-85697056D03*
X151600000Y-84000000D03*
X152302944Y-82302944D03*
X154000000Y-81600000D03*
X155697056Y-82302944D03*
%TD*%
D18*
%TO.N,+5V*%
X135400000Y-68625000D02*
X135400000Y-82400000D01*
X137000000Y-84000000D02*
X135400000Y-82400000D01*
X142500000Y-84000000D02*
X137000000Y-84000000D01*
D19*
%TO.N,Net-(C7-Pad1)*%
X119050000Y-66500000D02*
X103000000Y-66500000D01*
%TO.N,Net-(C7-Pad2)*%
X120950000Y-66500000D02*
X128000000Y-66500000D01*
%TO.N,Net-(C8-Pad2)*%
X140950000Y-66500000D02*
X157000000Y-66500000D01*
%TO.N,Net-(C8-Pad1)*%
X131500000Y-66500000D02*
X139050000Y-66500000D01*
%TD*%
D20*
%TO.N,GND*%
X155836532Y-50350751D02*
X156646620Y-50572367D01*
X157404665Y-50933935D01*
X158086698Y-51424026D01*
X158671164Y-52027148D01*
X159139590Y-52724240D01*
X159477168Y-53493261D01*
X159673740Y-54312038D01*
X159725000Y-55010078D01*
X159725000Y-65581347D01*
X159717632Y-65572368D01*
X159679564Y-65541127D01*
X159636134Y-65517913D01*
X159589008Y-65503618D01*
X159540000Y-65498791D01*
X154460000Y-65498791D01*
X154410992Y-65503618D01*
X154363866Y-65517913D01*
X154320436Y-65541127D01*
X154282368Y-65572368D01*
X154251127Y-65610436D01*
X154227913Y-65653866D01*
X154213618Y-65700992D01*
X154211015Y-65727420D01*
X141601046Y-65727420D01*
X141554408Y-65670592D01*
X141478457Y-65608260D01*
X141391804Y-65561943D01*
X141297781Y-65533422D01*
X141200000Y-65523791D01*
X140700000Y-65523791D01*
X140602219Y-65533422D01*
X140508196Y-65561943D01*
X140421543Y-65608260D01*
X140345592Y-65670592D01*
X140283260Y-65746543D01*
X140236943Y-65833196D01*
X140208422Y-65927219D01*
X140198791Y-66025000D01*
X140198791Y-66314949D01*
X140188599Y-66348548D01*
X140173682Y-66500000D01*
X140188599Y-66651452D01*
X140198791Y-66685051D01*
X140198791Y-66975000D01*
X140208422Y-67072781D01*
X140236943Y-67166804D01*
X140283260Y-67253457D01*
X140345592Y-67329408D01*
X140421543Y-67391740D01*
X140508196Y-67438057D01*
X140602219Y-67466578D01*
X140700000Y-67476209D01*
X141200000Y-67476209D01*
X141297781Y-67466578D01*
X141391804Y-67438057D01*
X141478457Y-67391740D01*
X141554408Y-67329408D01*
X141601046Y-67272580D01*
X154211015Y-67272580D01*
X154213618Y-67299008D01*
X154227913Y-67346134D01*
X154251127Y-67389564D01*
X154282368Y-67427632D01*
X154320436Y-67458873D01*
X154363866Y-67482087D01*
X154410992Y-67496382D01*
X154460000Y-67501209D01*
X159540000Y-67501209D01*
X159589008Y-67496382D01*
X159636134Y-67482087D01*
X159679564Y-67458873D01*
X159717632Y-67427632D01*
X159725000Y-67418653D01*
X159725001Y-84987745D01*
X159649249Y-85836532D01*
X159427633Y-86646621D01*
X159066065Y-87404665D01*
X158575974Y-88086698D01*
X157972853Y-88671164D01*
X157275756Y-89139592D01*
X156506736Y-89477169D01*
X155687967Y-89673738D01*
X154989923Y-89725000D01*
X105012244Y-89725000D01*
X104163468Y-89649249D01*
X103353379Y-89427633D01*
X102595335Y-89066065D01*
X101913302Y-88575974D01*
X101328836Y-87972853D01*
X100860408Y-87275756D01*
X100522831Y-86506736D01*
X100326262Y-85687967D01*
X100275000Y-84989923D01*
X100275000Y-68406250D01*
X134548791Y-68406250D01*
X134548791Y-68843750D01*
X134557821Y-68935434D01*
X134584564Y-69023596D01*
X134627993Y-69104845D01*
X134686439Y-69176061D01*
X134757655Y-69234507D01*
X134838904Y-69277936D01*
X134887255Y-69292603D01*
X134887255Y-70349862D01*
X134871543Y-70358260D01*
X134795592Y-70420592D01*
X134733260Y-70496543D01*
X134686943Y-70583196D01*
X134658422Y-70677219D01*
X134648791Y-70775000D01*
X134648791Y-71725000D01*
X134658422Y-71822781D01*
X134686943Y-71916804D01*
X134733260Y-72003457D01*
X134795592Y-72079408D01*
X134871543Y-72141740D01*
X134887255Y-72150138D01*
X134887255Y-72579862D01*
X134871543Y-72588260D01*
X134795592Y-72650592D01*
X134733260Y-72726543D01*
X134686943Y-72813196D01*
X134658422Y-72907219D01*
X134648791Y-73005000D01*
X134648791Y-73955000D01*
X134658422Y-74052781D01*
X134686943Y-74146804D01*
X134733260Y-74233457D01*
X134795592Y-74309408D01*
X134871543Y-74371740D01*
X134887255Y-74380138D01*
X134887255Y-74809862D01*
X134871543Y-74818260D01*
X134795592Y-74880592D01*
X134733260Y-74956543D01*
X134686943Y-75043196D01*
X134658422Y-75137219D01*
X134648791Y-75235000D01*
X134648791Y-76185000D01*
X134658422Y-76282781D01*
X134686943Y-76376804D01*
X134733260Y-76463457D01*
X134795592Y-76539408D01*
X134871543Y-76601740D01*
X134887256Y-76610139D01*
X134887256Y-77039861D01*
X134871543Y-77048260D01*
X134795592Y-77110592D01*
X134733260Y-77186543D01*
X134686943Y-77273196D01*
X134658422Y-77367219D01*
X134648791Y-77465000D01*
X134648791Y-78415000D01*
X134658422Y-78512781D01*
X134686943Y-78606804D01*
X134733260Y-78693457D01*
X134795592Y-78769408D01*
X134871543Y-78831740D01*
X134887256Y-78840139D01*
X134887256Y-79269861D01*
X134871543Y-79278260D01*
X134795592Y-79340592D01*
X134733260Y-79416543D01*
X134686943Y-79503196D01*
X134658422Y-79597219D01*
X134648791Y-79695000D01*
X134648791Y-80645000D01*
X134658422Y-80742781D01*
X134686943Y-80836804D01*
X134733260Y-80923457D01*
X134795592Y-80999408D01*
X134871543Y-81061740D01*
X134887256Y-81070139D01*
X134887256Y-81499861D01*
X134871543Y-81508260D01*
X134795592Y-81570592D01*
X134733260Y-81646543D01*
X134686943Y-81733196D01*
X134658422Y-81827219D01*
X134648791Y-81925000D01*
X134648791Y-82875000D01*
X134658422Y-82972781D01*
X134686943Y-83066804D01*
X134733260Y-83153457D01*
X134795592Y-83229408D01*
X134871543Y-83291740D01*
X134958196Y-83338057D01*
X135052219Y-83366578D01*
X135150000Y-83376209D01*
X135650000Y-83376209D01*
X135650982Y-83376112D01*
X136619630Y-84344761D01*
X136635681Y-84364319D01*
X136713756Y-84428394D01*
X136771804Y-84459421D01*
X136802831Y-84476006D01*
X136899484Y-84505325D01*
X137000000Y-84515225D01*
X137025180Y-84512745D01*
X141048791Y-84512745D01*
X141048791Y-85200000D01*
X141053618Y-85249008D01*
X141067913Y-85296134D01*
X141091127Y-85339564D01*
X141122368Y-85377632D01*
X141160436Y-85408873D01*
X141203866Y-85432087D01*
X141250992Y-85446382D01*
X141300000Y-85451209D01*
X143700000Y-85451209D01*
X143749008Y-85446382D01*
X143796134Y-85432087D01*
X143839564Y-85408873D01*
X143877632Y-85377632D01*
X143908873Y-85339564D01*
X143932087Y-85296134D01*
X143946382Y-85249008D01*
X143951209Y-85200000D01*
X143951209Y-82800000D01*
X143946382Y-82750992D01*
X143932087Y-82703866D01*
X143908873Y-82660436D01*
X143877632Y-82622368D01*
X143839564Y-82591127D01*
X143796134Y-82567913D01*
X143749008Y-82553618D01*
X143700000Y-82548791D01*
X141300000Y-82548791D01*
X141250992Y-82553618D01*
X141203866Y-82567913D01*
X141160436Y-82591127D01*
X141122368Y-82622368D01*
X141091127Y-82660436D01*
X141067913Y-82703866D01*
X141053618Y-82750992D01*
X141048791Y-82800000D01*
X141048791Y-83487255D01*
X137212386Y-83487255D01*
X136151209Y-82426079D01*
X136151209Y-81925000D01*
X136141578Y-81827219D01*
X136113057Y-81733196D01*
X136066740Y-81646543D01*
X136004408Y-81570592D01*
X135928457Y-81508260D01*
X135912745Y-81499862D01*
X135912745Y-81070138D01*
X135928457Y-81061740D01*
X136004408Y-80999408D01*
X136066740Y-80923457D01*
X136113057Y-80836804D01*
X136141578Y-80742781D01*
X136151209Y-80645000D01*
X136151209Y-79695000D01*
X136141578Y-79597219D01*
X136113057Y-79503196D01*
X136066740Y-79416543D01*
X136004408Y-79340592D01*
X135928457Y-79278260D01*
X135912745Y-79269862D01*
X135912745Y-78840138D01*
X135928457Y-78831740D01*
X136004408Y-78769408D01*
X136066740Y-78693457D01*
X136113057Y-78606804D01*
X136141578Y-78512781D01*
X136151209Y-78415000D01*
X136151209Y-77465000D01*
X136141578Y-77367219D01*
X136113057Y-77273196D01*
X136066740Y-77186543D01*
X136004408Y-77110592D01*
X135928457Y-77048260D01*
X135912745Y-77039862D01*
X135912745Y-76610138D01*
X135928457Y-76601740D01*
X136004408Y-76539408D01*
X136066740Y-76463457D01*
X136113057Y-76376804D01*
X136141578Y-76282781D01*
X136151209Y-76185000D01*
X136151209Y-75235000D01*
X136141578Y-75137219D01*
X136113057Y-75043196D01*
X136066740Y-74956543D01*
X136004408Y-74880592D01*
X135928457Y-74818260D01*
X135912745Y-74809862D01*
X135912745Y-74380138D01*
X135928457Y-74371740D01*
X136004408Y-74309408D01*
X136066740Y-74233457D01*
X136113057Y-74146804D01*
X136141578Y-74052781D01*
X136151209Y-73955000D01*
X136151209Y-73005000D01*
X136141578Y-72907219D01*
X136113057Y-72813196D01*
X136066740Y-72726543D01*
X136004408Y-72650592D01*
X135928457Y-72588260D01*
X135912745Y-72579862D01*
X135912745Y-72150138D01*
X135928457Y-72141740D01*
X136004408Y-72079408D01*
X136066740Y-72003457D01*
X136113057Y-71916804D01*
X136141578Y-71822781D01*
X136151209Y-71725000D01*
X136151209Y-70775000D01*
X136141578Y-70677219D01*
X136113057Y-70583196D01*
X136066740Y-70496543D01*
X136004408Y-70420592D01*
X135928457Y-70358260D01*
X135912745Y-70349862D01*
X135912745Y-69292603D01*
X135961096Y-69277936D01*
X136042345Y-69234507D01*
X136113561Y-69176061D01*
X136172007Y-69104845D01*
X136215436Y-69023596D01*
X136242179Y-68935434D01*
X136251209Y-68843750D01*
X136251209Y-68406250D01*
X136242179Y-68314566D01*
X136215436Y-68226404D01*
X136172007Y-68145155D01*
X136113561Y-68073939D01*
X136042345Y-68015493D01*
X135961096Y-67972064D01*
X135872934Y-67945321D01*
X135781250Y-67936291D01*
X135018750Y-67936291D01*
X134927066Y-67945321D01*
X134838904Y-67972064D01*
X134757655Y-68015493D01*
X134686439Y-68073939D01*
X134627993Y-68145155D01*
X134584564Y-68226404D01*
X134557821Y-68314566D01*
X134548791Y-68406250D01*
X100275000Y-68406250D01*
X100275000Y-67418654D01*
X100282368Y-67427632D01*
X100320436Y-67458873D01*
X100363866Y-67482087D01*
X100410992Y-67496382D01*
X100460000Y-67501209D01*
X105540000Y-67501209D01*
X105589008Y-67496382D01*
X105636134Y-67482087D01*
X105679564Y-67458873D01*
X105717632Y-67427632D01*
X105748873Y-67389564D01*
X105772087Y-67346134D01*
X105786382Y-67299008D01*
X105788985Y-67272580D01*
X118398954Y-67272580D01*
X118445592Y-67329408D01*
X118521543Y-67391740D01*
X118608196Y-67438057D01*
X118702219Y-67466578D01*
X118800000Y-67476209D01*
X119300000Y-67476209D01*
X119397781Y-67466578D01*
X119491804Y-67438057D01*
X119578457Y-67391740D01*
X119654408Y-67329408D01*
X119716740Y-67253457D01*
X119763057Y-67166804D01*
X119791578Y-67072781D01*
X119801209Y-66975000D01*
X119801209Y-66685051D01*
X119811401Y-66651452D01*
X119826318Y-66500000D01*
X120173682Y-66500000D01*
X120188599Y-66651452D01*
X120198791Y-66685051D01*
X120198791Y-66975000D01*
X120208422Y-67072781D01*
X120236943Y-67166804D01*
X120283260Y-67253457D01*
X120345592Y-67329408D01*
X120421543Y-67391740D01*
X120508196Y-67438057D01*
X120602219Y-67466578D01*
X120700000Y-67476209D01*
X121200000Y-67476209D01*
X121297781Y-67466578D01*
X121391804Y-67438057D01*
X121478457Y-67391740D01*
X121554408Y-67329408D01*
X121601046Y-67272580D01*
X127832049Y-67272580D01*
X127841127Y-67289564D01*
X127872368Y-67327632D01*
X127910436Y-67358873D01*
X127953866Y-67382087D01*
X128000992Y-67396382D01*
X128050000Y-67401209D01*
X128950000Y-67401209D01*
X128999008Y-67396382D01*
X129046134Y-67382087D01*
X129089564Y-67358873D01*
X129127632Y-67327632D01*
X129158873Y-67289564D01*
X129182087Y-67246134D01*
X129196382Y-67199008D01*
X129201209Y-67150000D01*
X129201209Y-66500000D01*
X130723682Y-66500000D01*
X130738599Y-66651452D01*
X130782776Y-66797084D01*
X130798791Y-66827046D01*
X130798791Y-67150000D01*
X130803618Y-67199008D01*
X130817913Y-67246134D01*
X130841127Y-67289564D01*
X130872368Y-67327632D01*
X130910436Y-67358873D01*
X130953866Y-67382087D01*
X131000992Y-67396382D01*
X131050000Y-67401209D01*
X131950000Y-67401209D01*
X131999008Y-67396382D01*
X132046134Y-67382087D01*
X132089564Y-67358873D01*
X132127632Y-67327632D01*
X132158873Y-67289564D01*
X132167951Y-67272580D01*
X138398954Y-67272580D01*
X138445592Y-67329408D01*
X138521543Y-67391740D01*
X138608196Y-67438057D01*
X138702219Y-67466578D01*
X138800000Y-67476209D01*
X139300000Y-67476209D01*
X139397781Y-67466578D01*
X139491804Y-67438057D01*
X139578457Y-67391740D01*
X139654408Y-67329408D01*
X139716740Y-67253457D01*
X139763057Y-67166804D01*
X139791578Y-67072781D01*
X139801209Y-66975000D01*
X139801209Y-66685051D01*
X139811401Y-66651452D01*
X139826318Y-66500000D01*
X139811401Y-66348548D01*
X139801209Y-66314949D01*
X139801209Y-66025000D01*
X139791578Y-65927219D01*
X139763057Y-65833196D01*
X139716740Y-65746543D01*
X139654408Y-65670592D01*
X139578457Y-65608260D01*
X139491804Y-65561943D01*
X139397781Y-65533422D01*
X139300000Y-65523791D01*
X138800000Y-65523791D01*
X138702219Y-65533422D01*
X138608196Y-65561943D01*
X138521543Y-65608260D01*
X138445592Y-65670592D01*
X138398954Y-65727420D01*
X132167951Y-65727420D01*
X132158873Y-65710436D01*
X132127632Y-65672368D01*
X132089564Y-65641127D01*
X132046134Y-65617913D01*
X131999008Y-65603618D01*
X131950000Y-65598791D01*
X131050000Y-65598791D01*
X131000992Y-65603618D01*
X130953866Y-65617913D01*
X130910436Y-65641127D01*
X130872368Y-65672368D01*
X130841127Y-65710436D01*
X130817913Y-65753866D01*
X130803618Y-65800992D01*
X130798791Y-65850000D01*
X130798791Y-66172954D01*
X130782776Y-66202916D01*
X130738599Y-66348548D01*
X130723682Y-66500000D01*
X129201209Y-66500000D01*
X129201209Y-65850000D01*
X129196382Y-65800992D01*
X129182087Y-65753866D01*
X129158873Y-65710436D01*
X129127632Y-65672368D01*
X129089564Y-65641127D01*
X129046134Y-65617913D01*
X128999008Y-65603618D01*
X128950000Y-65598791D01*
X128050000Y-65598791D01*
X128000992Y-65603618D01*
X127953866Y-65617913D01*
X127910436Y-65641127D01*
X127872368Y-65672368D01*
X127841127Y-65710436D01*
X127832049Y-65727420D01*
X121601046Y-65727420D01*
X121554408Y-65670592D01*
X121478457Y-65608260D01*
X121391804Y-65561943D01*
X121297781Y-65533422D01*
X121200000Y-65523791D01*
X120700000Y-65523791D01*
X120602219Y-65533422D01*
X120508196Y-65561943D01*
X120421543Y-65608260D01*
X120345592Y-65670592D01*
X120283260Y-65746543D01*
X120236943Y-65833196D01*
X120208422Y-65927219D01*
X120198791Y-66025000D01*
X120198791Y-66314949D01*
X120188599Y-66348548D01*
X120173682Y-66500000D01*
X119826318Y-66500000D01*
X119811401Y-66348548D01*
X119801209Y-66314949D01*
X119801209Y-66025000D01*
X119791578Y-65927219D01*
X119763057Y-65833196D01*
X119716740Y-65746543D01*
X119654408Y-65670592D01*
X119578457Y-65608260D01*
X119491804Y-65561943D01*
X119397781Y-65533422D01*
X119300000Y-65523791D01*
X118800000Y-65523791D01*
X118702219Y-65533422D01*
X118608196Y-65561943D01*
X118521543Y-65608260D01*
X118445592Y-65670592D01*
X118398954Y-65727420D01*
X105788985Y-65727420D01*
X105786382Y-65700992D01*
X105772087Y-65653866D01*
X105748873Y-65610436D01*
X105717632Y-65572368D01*
X105679564Y-65541127D01*
X105636134Y-65517913D01*
X105589008Y-65503618D01*
X105540000Y-65498791D01*
X100460000Y-65498791D01*
X100410992Y-65503618D01*
X100363866Y-65517913D01*
X100320436Y-65541127D01*
X100282368Y-65572368D01*
X100275000Y-65581346D01*
X100275000Y-55012244D01*
X100350751Y-54163468D01*
X100572367Y-53353380D01*
X100933935Y-52595335D01*
X101424026Y-51913302D01*
X102027148Y-51328836D01*
X102724240Y-50860410D01*
X103493261Y-50522832D01*
X104312038Y-50326260D01*
X105010078Y-50275000D01*
X154987756Y-50275000D01*
X155836532Y-50350751D01*
%TA.AperFunction,Conductor*%
G36*
X155836532Y-50350751D02*
G01*
X156646620Y-50572367D01*
X157404665Y-50933935D01*
X158086698Y-51424026D01*
X158671164Y-52027148D01*
X159139590Y-52724240D01*
X159477168Y-53493261D01*
X159673740Y-54312038D01*
X159725000Y-55010078D01*
X159725000Y-65581347D01*
X159717632Y-65572368D01*
X159679564Y-65541127D01*
X159636134Y-65517913D01*
X159589008Y-65503618D01*
X159540000Y-65498791D01*
X154460000Y-65498791D01*
X154410992Y-65503618D01*
X154363866Y-65517913D01*
X154320436Y-65541127D01*
X154282368Y-65572368D01*
X154251127Y-65610436D01*
X154227913Y-65653866D01*
X154213618Y-65700992D01*
X154211015Y-65727420D01*
X141601046Y-65727420D01*
X141554408Y-65670592D01*
X141478457Y-65608260D01*
X141391804Y-65561943D01*
X141297781Y-65533422D01*
X141200000Y-65523791D01*
X140700000Y-65523791D01*
X140602219Y-65533422D01*
X140508196Y-65561943D01*
X140421543Y-65608260D01*
X140345592Y-65670592D01*
X140283260Y-65746543D01*
X140236943Y-65833196D01*
X140208422Y-65927219D01*
X140198791Y-66025000D01*
X140198791Y-66314949D01*
X140188599Y-66348548D01*
X140173682Y-66500000D01*
X140188599Y-66651452D01*
X140198791Y-66685051D01*
X140198791Y-66975000D01*
X140208422Y-67072781D01*
X140236943Y-67166804D01*
X140283260Y-67253457D01*
X140345592Y-67329408D01*
X140421543Y-67391740D01*
X140508196Y-67438057D01*
X140602219Y-67466578D01*
X140700000Y-67476209D01*
X141200000Y-67476209D01*
X141297781Y-67466578D01*
X141391804Y-67438057D01*
X141478457Y-67391740D01*
X141554408Y-67329408D01*
X141601046Y-67272580D01*
X154211015Y-67272580D01*
X154213618Y-67299008D01*
X154227913Y-67346134D01*
X154251127Y-67389564D01*
X154282368Y-67427632D01*
X154320436Y-67458873D01*
X154363866Y-67482087D01*
X154410992Y-67496382D01*
X154460000Y-67501209D01*
X159540000Y-67501209D01*
X159589008Y-67496382D01*
X159636134Y-67482087D01*
X159679564Y-67458873D01*
X159717632Y-67427632D01*
X159725000Y-67418653D01*
X159725001Y-84987745D01*
X159649249Y-85836532D01*
X159427633Y-86646621D01*
X159066065Y-87404665D01*
X158575974Y-88086698D01*
X157972853Y-88671164D01*
X157275756Y-89139592D01*
X156506736Y-89477169D01*
X155687967Y-89673738D01*
X154989923Y-89725000D01*
X105012244Y-89725000D01*
X104163468Y-89649249D01*
X103353379Y-89427633D01*
X102595335Y-89066065D01*
X101913302Y-88575974D01*
X101328836Y-87972853D01*
X100860408Y-87275756D01*
X100522831Y-86506736D01*
X100326262Y-85687967D01*
X100275000Y-84989923D01*
X100275000Y-68406250D01*
X134548791Y-68406250D01*
X134548791Y-68843750D01*
X134557821Y-68935434D01*
X134584564Y-69023596D01*
X134627993Y-69104845D01*
X134686439Y-69176061D01*
X134757655Y-69234507D01*
X134838904Y-69277936D01*
X134887255Y-69292603D01*
X134887255Y-70349862D01*
X134871543Y-70358260D01*
X134795592Y-70420592D01*
X134733260Y-70496543D01*
X134686943Y-70583196D01*
X134658422Y-70677219D01*
X134648791Y-70775000D01*
X134648791Y-71725000D01*
X134658422Y-71822781D01*
X134686943Y-71916804D01*
X134733260Y-72003457D01*
X134795592Y-72079408D01*
X134871543Y-72141740D01*
X134887255Y-72150138D01*
X134887255Y-72579862D01*
X134871543Y-72588260D01*
X134795592Y-72650592D01*
X134733260Y-72726543D01*
X134686943Y-72813196D01*
X134658422Y-72907219D01*
X134648791Y-73005000D01*
X134648791Y-73955000D01*
X134658422Y-74052781D01*
X134686943Y-74146804D01*
X134733260Y-74233457D01*
X134795592Y-74309408D01*
X134871543Y-74371740D01*
X134887255Y-74380138D01*
X134887255Y-74809862D01*
X134871543Y-74818260D01*
X134795592Y-74880592D01*
X134733260Y-74956543D01*
X134686943Y-75043196D01*
X134658422Y-75137219D01*
X134648791Y-75235000D01*
X134648791Y-76185000D01*
X134658422Y-76282781D01*
X134686943Y-76376804D01*
X134733260Y-76463457D01*
X134795592Y-76539408D01*
X134871543Y-76601740D01*
X134887256Y-76610139D01*
X134887256Y-77039861D01*
X134871543Y-77048260D01*
X134795592Y-77110592D01*
X134733260Y-77186543D01*
X134686943Y-77273196D01*
X134658422Y-77367219D01*
X134648791Y-77465000D01*
X134648791Y-78415000D01*
X134658422Y-78512781D01*
X134686943Y-78606804D01*
X134733260Y-78693457D01*
X134795592Y-78769408D01*
X134871543Y-78831740D01*
X134887256Y-78840139D01*
X134887256Y-79269861D01*
X134871543Y-79278260D01*
X134795592Y-79340592D01*
X134733260Y-79416543D01*
X134686943Y-79503196D01*
X134658422Y-79597219D01*
X134648791Y-79695000D01*
X134648791Y-80645000D01*
X134658422Y-80742781D01*
X134686943Y-80836804D01*
X134733260Y-80923457D01*
X134795592Y-80999408D01*
X134871543Y-81061740D01*
X134887256Y-81070139D01*
X134887256Y-81499861D01*
X134871543Y-81508260D01*
X134795592Y-81570592D01*
X134733260Y-81646543D01*
X134686943Y-81733196D01*
X134658422Y-81827219D01*
X134648791Y-81925000D01*
X134648791Y-82875000D01*
X134658422Y-82972781D01*
X134686943Y-83066804D01*
X134733260Y-83153457D01*
X134795592Y-83229408D01*
X134871543Y-83291740D01*
X134958196Y-83338057D01*
X135052219Y-83366578D01*
X135150000Y-83376209D01*
X135650000Y-83376209D01*
X135650982Y-83376112D01*
X136619630Y-84344761D01*
X136635681Y-84364319D01*
X136713756Y-84428394D01*
X136771804Y-84459421D01*
X136802831Y-84476006D01*
X136899484Y-84505325D01*
X137000000Y-84515225D01*
X137025180Y-84512745D01*
X141048791Y-84512745D01*
X141048791Y-85200000D01*
X141053618Y-85249008D01*
X141067913Y-85296134D01*
X141091127Y-85339564D01*
X141122368Y-85377632D01*
X141160436Y-85408873D01*
X141203866Y-85432087D01*
X141250992Y-85446382D01*
X141300000Y-85451209D01*
X143700000Y-85451209D01*
X143749008Y-85446382D01*
X143796134Y-85432087D01*
X143839564Y-85408873D01*
X143877632Y-85377632D01*
X143908873Y-85339564D01*
X143932087Y-85296134D01*
X143946382Y-85249008D01*
X143951209Y-85200000D01*
X143951209Y-82800000D01*
X143946382Y-82750992D01*
X143932087Y-82703866D01*
X143908873Y-82660436D01*
X143877632Y-82622368D01*
X143839564Y-82591127D01*
X143796134Y-82567913D01*
X143749008Y-82553618D01*
X143700000Y-82548791D01*
X141300000Y-82548791D01*
X141250992Y-82553618D01*
X141203866Y-82567913D01*
X141160436Y-82591127D01*
X141122368Y-82622368D01*
X141091127Y-82660436D01*
X141067913Y-82703866D01*
X141053618Y-82750992D01*
X141048791Y-82800000D01*
X141048791Y-83487255D01*
X137212386Y-83487255D01*
X136151209Y-82426079D01*
X136151209Y-81925000D01*
X136141578Y-81827219D01*
X136113057Y-81733196D01*
X136066740Y-81646543D01*
X136004408Y-81570592D01*
X135928457Y-81508260D01*
X135912745Y-81499862D01*
X135912745Y-81070138D01*
X135928457Y-81061740D01*
X136004408Y-80999408D01*
X136066740Y-80923457D01*
X136113057Y-80836804D01*
X136141578Y-80742781D01*
X136151209Y-80645000D01*
X136151209Y-79695000D01*
X136141578Y-79597219D01*
X136113057Y-79503196D01*
X136066740Y-79416543D01*
X136004408Y-79340592D01*
X135928457Y-79278260D01*
X135912745Y-79269862D01*
X135912745Y-78840138D01*
X135928457Y-78831740D01*
X136004408Y-78769408D01*
X136066740Y-78693457D01*
X136113057Y-78606804D01*
X136141578Y-78512781D01*
X136151209Y-78415000D01*
X136151209Y-77465000D01*
X136141578Y-77367219D01*
X136113057Y-77273196D01*
X136066740Y-77186543D01*
X136004408Y-77110592D01*
X135928457Y-77048260D01*
X135912745Y-77039862D01*
X135912745Y-76610138D01*
X135928457Y-76601740D01*
X136004408Y-76539408D01*
X136066740Y-76463457D01*
X136113057Y-76376804D01*
X136141578Y-76282781D01*
X136151209Y-76185000D01*
X136151209Y-75235000D01*
X136141578Y-75137219D01*
X136113057Y-75043196D01*
X136066740Y-74956543D01*
X136004408Y-74880592D01*
X135928457Y-74818260D01*
X135912745Y-74809862D01*
X135912745Y-74380138D01*
X135928457Y-74371740D01*
X136004408Y-74309408D01*
X136066740Y-74233457D01*
X136113057Y-74146804D01*
X136141578Y-74052781D01*
X136151209Y-73955000D01*
X136151209Y-73005000D01*
X136141578Y-72907219D01*
X136113057Y-72813196D01*
X136066740Y-72726543D01*
X136004408Y-72650592D01*
X135928457Y-72588260D01*
X135912745Y-72579862D01*
X135912745Y-72150138D01*
X135928457Y-72141740D01*
X136004408Y-72079408D01*
X136066740Y-72003457D01*
X136113057Y-71916804D01*
X136141578Y-71822781D01*
X136151209Y-71725000D01*
X136151209Y-70775000D01*
X136141578Y-70677219D01*
X136113057Y-70583196D01*
X136066740Y-70496543D01*
X136004408Y-70420592D01*
X135928457Y-70358260D01*
X135912745Y-70349862D01*
X135912745Y-69292603D01*
X135961096Y-69277936D01*
X136042345Y-69234507D01*
X136113561Y-69176061D01*
X136172007Y-69104845D01*
X136215436Y-69023596D01*
X136242179Y-68935434D01*
X136251209Y-68843750D01*
X136251209Y-68406250D01*
X136242179Y-68314566D01*
X136215436Y-68226404D01*
X136172007Y-68145155D01*
X136113561Y-68073939D01*
X136042345Y-68015493D01*
X135961096Y-67972064D01*
X135872934Y-67945321D01*
X135781250Y-67936291D01*
X135018750Y-67936291D01*
X134927066Y-67945321D01*
X134838904Y-67972064D01*
X134757655Y-68015493D01*
X134686439Y-68073939D01*
X134627993Y-68145155D01*
X134584564Y-68226404D01*
X134557821Y-68314566D01*
X134548791Y-68406250D01*
X100275000Y-68406250D01*
X100275000Y-67418654D01*
X100282368Y-67427632D01*
X100320436Y-67458873D01*
X100363866Y-67482087D01*
X100410992Y-67496382D01*
X100460000Y-67501209D01*
X105540000Y-67501209D01*
X105589008Y-67496382D01*
X105636134Y-67482087D01*
X105679564Y-67458873D01*
X105717632Y-67427632D01*
X105748873Y-67389564D01*
X105772087Y-67346134D01*
X105786382Y-67299008D01*
X105788985Y-67272580D01*
X118398954Y-67272580D01*
X118445592Y-67329408D01*
X118521543Y-67391740D01*
X118608196Y-67438057D01*
X118702219Y-67466578D01*
X118800000Y-67476209D01*
X119300000Y-67476209D01*
X119397781Y-67466578D01*
X119491804Y-67438057D01*
X119578457Y-67391740D01*
X119654408Y-67329408D01*
X119716740Y-67253457D01*
X119763057Y-67166804D01*
X119791578Y-67072781D01*
X119801209Y-66975000D01*
X119801209Y-66685051D01*
X119811401Y-66651452D01*
X119826318Y-66500000D01*
X120173682Y-66500000D01*
X120188599Y-66651452D01*
X120198791Y-66685051D01*
X120198791Y-66975000D01*
X120208422Y-67072781D01*
X120236943Y-67166804D01*
X120283260Y-67253457D01*
X120345592Y-67329408D01*
X120421543Y-67391740D01*
X120508196Y-67438057D01*
X120602219Y-67466578D01*
X120700000Y-67476209D01*
X121200000Y-67476209D01*
X121297781Y-67466578D01*
X121391804Y-67438057D01*
X121478457Y-67391740D01*
X121554408Y-67329408D01*
X121601046Y-67272580D01*
X127832049Y-67272580D01*
X127841127Y-67289564D01*
X127872368Y-67327632D01*
X127910436Y-67358873D01*
X127953866Y-67382087D01*
X128000992Y-67396382D01*
X128050000Y-67401209D01*
X128950000Y-67401209D01*
X128999008Y-67396382D01*
X129046134Y-67382087D01*
X129089564Y-67358873D01*
X129127632Y-67327632D01*
X129158873Y-67289564D01*
X129182087Y-67246134D01*
X129196382Y-67199008D01*
X129201209Y-67150000D01*
X129201209Y-66500000D01*
X130723682Y-66500000D01*
X130738599Y-66651452D01*
X130782776Y-66797084D01*
X130798791Y-66827046D01*
X130798791Y-67150000D01*
X130803618Y-67199008D01*
X130817913Y-67246134D01*
X130841127Y-67289564D01*
X130872368Y-67327632D01*
X130910436Y-67358873D01*
X130953866Y-67382087D01*
X131000992Y-67396382D01*
X131050000Y-67401209D01*
X131950000Y-67401209D01*
X131999008Y-67396382D01*
X132046134Y-67382087D01*
X132089564Y-67358873D01*
X132127632Y-67327632D01*
X132158873Y-67289564D01*
X132167951Y-67272580D01*
X138398954Y-67272580D01*
X138445592Y-67329408D01*
X138521543Y-67391740D01*
X138608196Y-67438057D01*
X138702219Y-67466578D01*
X138800000Y-67476209D01*
X139300000Y-67476209D01*
X139397781Y-67466578D01*
X139491804Y-67438057D01*
X139578457Y-67391740D01*
X139654408Y-67329408D01*
X139716740Y-67253457D01*
X139763057Y-67166804D01*
X139791578Y-67072781D01*
X139801209Y-66975000D01*
X139801209Y-66685051D01*
X139811401Y-66651452D01*
X139826318Y-66500000D01*
X139811401Y-66348548D01*
X139801209Y-66314949D01*
X139801209Y-66025000D01*
X139791578Y-65927219D01*
X139763057Y-65833196D01*
X139716740Y-65746543D01*
X139654408Y-65670592D01*
X139578457Y-65608260D01*
X139491804Y-65561943D01*
X139397781Y-65533422D01*
X139300000Y-65523791D01*
X138800000Y-65523791D01*
X138702219Y-65533422D01*
X138608196Y-65561943D01*
X138521543Y-65608260D01*
X138445592Y-65670592D01*
X138398954Y-65727420D01*
X132167951Y-65727420D01*
X132158873Y-65710436D01*
X132127632Y-65672368D01*
X132089564Y-65641127D01*
X132046134Y-65617913D01*
X131999008Y-65603618D01*
X131950000Y-65598791D01*
X131050000Y-65598791D01*
X131000992Y-65603618D01*
X130953866Y-65617913D01*
X130910436Y-65641127D01*
X130872368Y-65672368D01*
X130841127Y-65710436D01*
X130817913Y-65753866D01*
X130803618Y-65800992D01*
X130798791Y-65850000D01*
X130798791Y-66172954D01*
X130782776Y-66202916D01*
X130738599Y-66348548D01*
X130723682Y-66500000D01*
X129201209Y-66500000D01*
X129201209Y-65850000D01*
X129196382Y-65800992D01*
X129182087Y-65753866D01*
X129158873Y-65710436D01*
X129127632Y-65672368D01*
X129089564Y-65641127D01*
X129046134Y-65617913D01*
X128999008Y-65603618D01*
X128950000Y-65598791D01*
X128050000Y-65598791D01*
X128000992Y-65603618D01*
X127953866Y-65617913D01*
X127910436Y-65641127D01*
X127872368Y-65672368D01*
X127841127Y-65710436D01*
X127832049Y-65727420D01*
X121601046Y-65727420D01*
X121554408Y-65670592D01*
X121478457Y-65608260D01*
X121391804Y-65561943D01*
X121297781Y-65533422D01*
X121200000Y-65523791D01*
X120700000Y-65523791D01*
X120602219Y-65533422D01*
X120508196Y-65561943D01*
X120421543Y-65608260D01*
X120345592Y-65670592D01*
X120283260Y-65746543D01*
X120236943Y-65833196D01*
X120208422Y-65927219D01*
X120198791Y-66025000D01*
X120198791Y-66314949D01*
X120188599Y-66348548D01*
X120173682Y-66500000D01*
X119826318Y-66500000D01*
X119811401Y-66348548D01*
X119801209Y-66314949D01*
X119801209Y-66025000D01*
X119791578Y-65927219D01*
X119763057Y-65833196D01*
X119716740Y-65746543D01*
X119654408Y-65670592D01*
X119578457Y-65608260D01*
X119491804Y-65561943D01*
X119397781Y-65533422D01*
X119300000Y-65523791D01*
X118800000Y-65523791D01*
X118702219Y-65533422D01*
X118608196Y-65561943D01*
X118521543Y-65608260D01*
X118445592Y-65670592D01*
X118398954Y-65727420D01*
X105788985Y-65727420D01*
X105786382Y-65700992D01*
X105772087Y-65653866D01*
X105748873Y-65610436D01*
X105717632Y-65572368D01*
X105679564Y-65541127D01*
X105636134Y-65517913D01*
X105589008Y-65503618D01*
X105540000Y-65498791D01*
X100460000Y-65498791D01*
X100410992Y-65503618D01*
X100363866Y-65517913D01*
X100320436Y-65541127D01*
X100282368Y-65572368D01*
X100275000Y-65581346D01*
X100275000Y-55012244D01*
X100350751Y-54163468D01*
X100572367Y-53353380D01*
X100933935Y-52595335D01*
X101424026Y-51913302D01*
X102027148Y-51328836D01*
X102724240Y-50860410D01*
X103493261Y-50522832D01*
X104312038Y-50326260D01*
X105010078Y-50275000D01*
X154987756Y-50275000D01*
X155836532Y-50350751D01*
G37*
%TD.AperFunction*%
%TD*%
M02*
