%TF.GenerationSoftware,KiCad,Pcbnew,(5.1.8)-1*%
%TF.CreationDate,2021-02-01T22:15:31+01:00*%
%TF.ProjectId,adl-variant,61646c2d-7661-4726-9961-6e742e6b6963,rev?*%
%TF.SameCoordinates,Original*%
%TF.FileFunction,Legend,Top*%
%TF.FilePolarity,Positive*%
%FSLAX46Y46*%
G04 Gerber Fmt 4.6, Leading zero omitted, Abs format (unit mm)*
G04 Created by KiCad (PCBNEW (5.1.8)-1) date 2021-02-01 22:15:31*
%MOMM*%
%LPD*%
G01*
G04 APERTURE LIST*
%ADD10C,0.120000*%
%TA.AperFunction,Profile*%
%ADD11C,0.050000*%
%TD*%
%ADD12C,0.010000*%
%ADD13C,0.100000*%
G04 APERTURE END LIST*
D10*
X156000000Y-72452380D02*
X156190476Y-72452380D01*
X156285714Y-72500000D01*
X156380952Y-72595238D01*
X156428571Y-72785714D01*
X156428571Y-73119047D01*
X156380952Y-73309523D01*
X156285714Y-73404761D01*
X156190476Y-73452380D01*
X156000000Y-73452380D01*
X155904761Y-73404761D01*
X155809523Y-73309523D01*
X155761904Y-73119047D01*
X155761904Y-72785714D01*
X155809523Y-72595238D01*
X155904761Y-72500000D01*
X156000000Y-72452380D01*
X156857142Y-72452380D02*
X156857142Y-73261904D01*
X156904761Y-73357142D01*
X156952380Y-73404761D01*
X157047619Y-73452380D01*
X157238095Y-73452380D01*
X157333333Y-73404761D01*
X157380952Y-73357142D01*
X157428571Y-73261904D01*
X157428571Y-72452380D01*
X157761904Y-72452380D02*
X158333333Y-72452380D01*
X158047619Y-73452380D02*
X158047619Y-72452380D01*
X102476190Y-73452380D02*
X102476190Y-72452380D01*
X102952380Y-73452380D02*
X102952380Y-72452380D01*
X103523809Y-73452380D01*
X103523809Y-72452380D01*
X122154761Y-86952380D02*
X121821428Y-86476190D01*
X121583333Y-86952380D02*
X121583333Y-85952380D01*
X121964285Y-85952380D01*
X122059523Y-86000000D01*
X122107142Y-86047619D01*
X122154761Y-86142857D01*
X122154761Y-86285714D01*
X122107142Y-86380952D01*
X122059523Y-86428571D01*
X121964285Y-86476190D01*
X121583333Y-86476190D01*
X122583333Y-86428571D02*
X122916666Y-86428571D01*
X123059523Y-86952380D02*
X122583333Y-86952380D01*
X122583333Y-85952380D01*
X123059523Y-85952380D01*
X123345238Y-85952380D02*
X123678571Y-86952380D01*
X124011904Y-85952380D01*
X124345238Y-86857142D02*
X124392857Y-86904761D01*
X124345238Y-86952380D01*
X124297619Y-86904761D01*
X124345238Y-86857142D01*
X124345238Y-86952380D01*
X124345238Y-86333333D02*
X124392857Y-86380952D01*
X124345238Y-86428571D01*
X124297619Y-86380952D01*
X124345238Y-86333333D01*
X124345238Y-86428571D01*
X126107142Y-86952380D02*
X125535714Y-86952380D01*
X125821428Y-86952380D02*
X125821428Y-85952380D01*
X125726190Y-86095238D01*
X125630952Y-86190476D01*
X125535714Y-86238095D01*
X126535714Y-86857142D02*
X126583333Y-86904761D01*
X126535714Y-86952380D01*
X126488095Y-86904761D01*
X126535714Y-86857142D01*
X126535714Y-86952380D01*
X127202380Y-85952380D02*
X127297619Y-85952380D01*
X127392857Y-86000000D01*
X127440476Y-86047619D01*
X127488095Y-86142857D01*
X127535714Y-86333333D01*
X127535714Y-86571428D01*
X127488095Y-86761904D01*
X127440476Y-86857142D01*
X127392857Y-86904761D01*
X127297619Y-86952380D01*
X127202380Y-86952380D01*
X127107142Y-86904761D01*
X127059523Y-86857142D01*
X127011904Y-86761904D01*
X126964285Y-86571428D01*
X126964285Y-86333333D01*
X127011904Y-86142857D01*
X127059523Y-86047619D01*
X127107142Y-86000000D01*
X127202380Y-85952380D01*
X127964285Y-86857142D02*
X128011904Y-86904761D01*
X127964285Y-86952380D01*
X127916666Y-86904761D01*
X127964285Y-86857142D01*
X127964285Y-86952380D01*
X128630952Y-85952380D02*
X128726190Y-85952380D01*
X128821428Y-86000000D01*
X128869047Y-86047619D01*
X128916666Y-86142857D01*
X128964285Y-86333333D01*
X128964285Y-86571428D01*
X128916666Y-86761904D01*
X128869047Y-86857142D01*
X128821428Y-86904761D01*
X128726190Y-86952380D01*
X128630952Y-86952380D01*
X128535714Y-86904761D01*
X128488095Y-86857142D01*
X128440476Y-86761904D01*
X128392857Y-86571428D01*
X128392857Y-86333333D01*
X128440476Y-86142857D01*
X128488095Y-86047619D01*
X128535714Y-86000000D01*
X128630952Y-85952380D01*
X120797619Y-84916666D02*
X121273809Y-84916666D01*
X120702380Y-85202380D02*
X121035714Y-84202380D01*
X121369047Y-85202380D01*
X121702380Y-85202380D02*
X121702380Y-84202380D01*
X121940476Y-84202380D01*
X122083333Y-84250000D01*
X122178571Y-84345238D01*
X122226190Y-84440476D01*
X122273809Y-84630952D01*
X122273809Y-84773809D01*
X122226190Y-84964285D01*
X122178571Y-85059523D01*
X122083333Y-85154761D01*
X121940476Y-85202380D01*
X121702380Y-85202380D01*
X123178571Y-85202380D02*
X122702380Y-85202380D01*
X122702380Y-84202380D01*
X124130952Y-84202380D02*
X124464285Y-85202380D01*
X124797619Y-84202380D01*
X125083333Y-84916666D02*
X125559523Y-84916666D01*
X124988095Y-85202380D02*
X125321428Y-84202380D01*
X125654761Y-85202380D01*
X126559523Y-85202380D02*
X126226190Y-84726190D01*
X125988095Y-85202380D02*
X125988095Y-84202380D01*
X126369047Y-84202380D01*
X126464285Y-84250000D01*
X126511904Y-84297619D01*
X126559523Y-84392857D01*
X126559523Y-84535714D01*
X126511904Y-84630952D01*
X126464285Y-84678571D01*
X126369047Y-84726190D01*
X125988095Y-84726190D01*
X126988095Y-85202380D02*
X126988095Y-84202380D01*
X127416666Y-84916666D02*
X127892857Y-84916666D01*
X127321428Y-85202380D02*
X127654761Y-84202380D01*
X127988095Y-85202380D01*
X128321428Y-85202380D02*
X128321428Y-84202380D01*
X128892857Y-85202380D01*
X128892857Y-84202380D01*
X129226190Y-84202380D02*
X129797619Y-84202380D01*
X129511904Y-85202380D02*
X129511904Y-84202380D01*
X142119047Y-88571428D02*
X142880952Y-88571428D01*
X142500000Y-88952380D02*
X142500000Y-88190476D01*
D11*
X105000000Y-90000000D02*
G75*
G02*
X100000000Y-85000000I0J5000000D01*
G01*
X160000000Y-85000000D02*
G75*
G02*
X155000000Y-90000000I-5000000J0D01*
G01*
X155000000Y-50000000D02*
G75*
G02*
X160000000Y-55000000I0J-5000000D01*
G01*
X100000000Y-55000000D02*
G75*
G02*
X105000000Y-50000000I5000000J0D01*
G01*
X100000000Y-85000000D02*
X100000000Y-55000000D01*
X155000000Y-90000000D02*
X105000000Y-90000000D01*
X160000000Y-55000000D02*
X160000000Y-85000000D01*
X105000000Y-50000000D02*
X155000000Y-50000000D01*
D12*
%TO.C,G\u002A\u002A\u002A*%
G36*
X143005092Y-53451834D02*
G01*
X142996333Y-53557667D01*
X142495389Y-53565374D01*
X141994444Y-53573081D01*
X141994444Y-54220890D01*
X142869333Y-54220890D01*
X142869333Y-54416975D01*
X142438944Y-54424766D01*
X142008555Y-54432556D01*
X142008555Y-55138112D01*
X142509500Y-55145819D01*
X143010444Y-55153525D01*
X143010444Y-55349779D01*
X141740444Y-55349779D01*
X141740444Y-53346001D01*
X143013852Y-53346001D01*
X143005092Y-53451834D01*
G37*
X143005092Y-53451834D02*
X142996333Y-53557667D01*
X142495389Y-53565374D01*
X141994444Y-53573081D01*
X141994444Y-54220890D01*
X142869333Y-54220890D01*
X142869333Y-54416975D01*
X142438944Y-54424766D01*
X142008555Y-54432556D01*
X142008555Y-55138112D01*
X142509500Y-55145819D01*
X143010444Y-55153525D01*
X143010444Y-55349779D01*
X141740444Y-55349779D01*
X141740444Y-53346001D01*
X143013852Y-53346001D01*
X143005092Y-53451834D01*
G36*
X140477103Y-54242056D02*
G01*
X140484555Y-55138112D01*
X140957278Y-55145850D01*
X141430000Y-55153588D01*
X141430000Y-55349779D01*
X140216444Y-55349779D01*
X140216444Y-53346001D01*
X140469651Y-53346001D01*
X140477103Y-54242056D01*
G37*
X140477103Y-54242056D02*
X140484555Y-55138112D01*
X140957278Y-55145850D01*
X141430000Y-55153588D01*
X141430000Y-55349779D01*
X140216444Y-55349779D01*
X140216444Y-53346001D01*
X140469651Y-53346001D01*
X140477103Y-54242056D01*
G36*
X136921500Y-53351511D02*
G01*
X137090532Y-53357677D01*
X137215648Y-53365903D01*
X137309375Y-53377943D01*
X137384243Y-53395548D01*
X137452777Y-53420471D01*
X137471185Y-53428401D01*
X137638933Y-53532066D01*
X137780010Y-53679072D01*
X137884876Y-53858979D01*
X137900903Y-53898625D01*
X137928334Y-53978882D01*
X137945687Y-54054171D01*
X137954541Y-54139789D01*
X137956469Y-54251035D01*
X137953050Y-54403206D01*
X137953015Y-54404334D01*
X137946992Y-54555051D01*
X137938319Y-54663657D01*
X137924460Y-54744485D01*
X137902878Y-54811869D01*
X137871038Y-54880142D01*
X137867670Y-54886652D01*
X137745905Y-55061139D01*
X137582614Y-55202237D01*
X137452100Y-55274938D01*
X137387717Y-55299665D01*
X137313574Y-55317464D01*
X137217904Y-55329882D01*
X137088942Y-55338461D01*
X136921500Y-55344559D01*
X136519333Y-55356055D01*
X136519333Y-53571779D01*
X136773333Y-53571779D01*
X136773333Y-54343186D01*
X136774079Y-54546627D01*
X136776183Y-54731556D01*
X136779446Y-54890469D01*
X136783667Y-55015864D01*
X136788645Y-55100238D01*
X136794181Y-55136086D01*
X136794500Y-55136503D01*
X136838931Y-55150029D01*
X136923107Y-55151338D01*
X137032136Y-55142372D01*
X137151121Y-55125074D01*
X137265171Y-55101385D01*
X137359390Y-55073247D01*
X137393970Y-55058340D01*
X137527568Y-54959305D01*
X137599271Y-54866854D01*
X137671966Y-54704874D01*
X137713481Y-54515025D01*
X137724187Y-54312442D01*
X137704454Y-54112264D01*
X137654654Y-53929627D01*
X137575157Y-53779669D01*
X137572539Y-53776129D01*
X137484989Y-53683177D01*
X137378847Y-53620941D01*
X137243112Y-53585289D01*
X137066784Y-53572089D01*
X137028457Y-53571779D01*
X136773333Y-53571779D01*
X136519333Y-53571779D01*
X136519333Y-53339724D01*
X136921500Y-53351511D01*
G37*
X136921500Y-53351511D02*
X137090532Y-53357677D01*
X137215648Y-53365903D01*
X137309375Y-53377943D01*
X137384243Y-53395548D01*
X137452777Y-53420471D01*
X137471185Y-53428401D01*
X137638933Y-53532066D01*
X137780010Y-53679072D01*
X137884876Y-53858979D01*
X137900903Y-53898625D01*
X137928334Y-53978882D01*
X137945687Y-54054171D01*
X137954541Y-54139789D01*
X137956469Y-54251035D01*
X137953050Y-54403206D01*
X137953015Y-54404334D01*
X137946992Y-54555051D01*
X137938319Y-54663657D01*
X137924460Y-54744485D01*
X137902878Y-54811869D01*
X137871038Y-54880142D01*
X137867670Y-54886652D01*
X137745905Y-55061139D01*
X137582614Y-55202237D01*
X137452100Y-55274938D01*
X137387717Y-55299665D01*
X137313574Y-55317464D01*
X137217904Y-55329882D01*
X137088942Y-55338461D01*
X136921500Y-55344559D01*
X136519333Y-55356055D01*
X136519333Y-53571779D01*
X136773333Y-53571779D01*
X136773333Y-54343186D01*
X136774079Y-54546627D01*
X136776183Y-54731556D01*
X136779446Y-54890469D01*
X136783667Y-55015864D01*
X136788645Y-55100238D01*
X136794181Y-55136086D01*
X136794500Y-55136503D01*
X136838931Y-55150029D01*
X136923107Y-55151338D01*
X137032136Y-55142372D01*
X137151121Y-55125074D01*
X137265171Y-55101385D01*
X137359390Y-55073247D01*
X137393970Y-55058340D01*
X137527568Y-54959305D01*
X137599271Y-54866854D01*
X137671966Y-54704874D01*
X137713481Y-54515025D01*
X137724187Y-54312442D01*
X137704454Y-54112264D01*
X137654654Y-53929627D01*
X137575157Y-53779669D01*
X137572539Y-53776129D01*
X137484989Y-53683177D01*
X137378847Y-53620941D01*
X137243112Y-53585289D01*
X137066784Y-53572089D01*
X137028457Y-53571779D01*
X136773333Y-53571779D01*
X136519333Y-53571779D01*
X136519333Y-53339724D01*
X136921500Y-53351511D01*
G36*
X134120444Y-55349779D02*
G01*
X133860660Y-55349779D01*
X133870608Y-54547786D01*
X133872813Y-54342235D01*
X133874140Y-54156883D01*
X133874591Y-53998695D01*
X133874171Y-53874636D01*
X133872883Y-53791671D01*
X133870731Y-53756764D01*
X133870189Y-53756171D01*
X133857361Y-53783943D01*
X133826059Y-53857530D01*
X133778978Y-53970423D01*
X133718813Y-54116112D01*
X133648261Y-54288088D01*
X133570015Y-54479840D01*
X133541031Y-54551108D01*
X133222240Y-55335667D01*
X133125064Y-55344185D01*
X133027887Y-55352702D01*
X132834752Y-54878518D01*
X132760065Y-54695490D01*
X132680743Y-54501688D01*
X132604062Y-54314849D01*
X132537296Y-54152710D01*
X132507143Y-54079779D01*
X132372670Y-53755223D01*
X132371668Y-54552501D01*
X132370667Y-55349779D01*
X132116667Y-55349779D01*
X132116667Y-53343307D01*
X132291554Y-53351710D01*
X132466442Y-53360112D01*
X132770903Y-54122112D01*
X132849725Y-54319233D01*
X132922600Y-54501193D01*
X132986656Y-54660844D01*
X133039023Y-54791040D01*
X133076830Y-54884636D01*
X133097204Y-54934486D01*
X133099027Y-54938792D01*
X133110546Y-54943133D01*
X133131053Y-54918412D01*
X133162313Y-54860788D01*
X133206092Y-54766420D01*
X133264156Y-54631466D01*
X133338269Y-54452087D01*
X133430198Y-54224441D01*
X133449273Y-54176792D01*
X133775856Y-53360112D01*
X133948150Y-53351710D01*
X134120444Y-53343307D01*
X134120444Y-55349779D01*
G37*
X134120444Y-55349779D02*
X133860660Y-55349779D01*
X133870608Y-54547786D01*
X133872813Y-54342235D01*
X133874140Y-54156883D01*
X133874591Y-53998695D01*
X133874171Y-53874636D01*
X133872883Y-53791671D01*
X133870731Y-53756764D01*
X133870189Y-53756171D01*
X133857361Y-53783943D01*
X133826059Y-53857530D01*
X133778978Y-53970423D01*
X133718813Y-54116112D01*
X133648261Y-54288088D01*
X133570015Y-54479840D01*
X133541031Y-54551108D01*
X133222240Y-55335667D01*
X133125064Y-55344185D01*
X133027887Y-55352702D01*
X132834752Y-54878518D01*
X132760065Y-54695490D01*
X132680743Y-54501688D01*
X132604062Y-54314849D01*
X132537296Y-54152710D01*
X132507143Y-54079779D01*
X132372670Y-53755223D01*
X132371668Y-54552501D01*
X132370667Y-55349779D01*
X132116667Y-55349779D01*
X132116667Y-53343307D01*
X132291554Y-53351710D01*
X132466442Y-53360112D01*
X132770903Y-54122112D01*
X132849725Y-54319233D01*
X132922600Y-54501193D01*
X132986656Y-54660844D01*
X133039023Y-54791040D01*
X133076830Y-54884636D01*
X133097204Y-54934486D01*
X133099027Y-54938792D01*
X133110546Y-54943133D01*
X133131053Y-54918412D01*
X133162313Y-54860788D01*
X133206092Y-54766420D01*
X133264156Y-54631466D01*
X133338269Y-54452087D01*
X133430198Y-54224441D01*
X133449273Y-54176792D01*
X133775856Y-53360112D01*
X133948150Y-53351710D01*
X134120444Y-53343307D01*
X134120444Y-55349779D01*
G36*
X130077611Y-53351638D02*
G01*
X130261833Y-53356638D01*
X130399709Y-53362412D01*
X130501336Y-53370182D01*
X130576811Y-53381171D01*
X130636231Y-53396601D01*
X130689692Y-53417695D01*
X130712787Y-53428532D01*
X130865810Y-53530151D01*
X130972566Y-53662250D01*
X131031291Y-53820592D01*
X131040224Y-54000939D01*
X131012743Y-54149698D01*
X130967415Y-54244890D01*
X130889114Y-54348637D01*
X130793992Y-54441693D01*
X130728012Y-54489001D01*
X130712617Y-54504592D01*
X130710156Y-54531506D01*
X130723557Y-54577281D01*
X130755748Y-54649454D01*
X130809656Y-54755562D01*
X130888209Y-54903141D01*
X130890650Y-54907679D01*
X130962558Y-55042938D01*
X131023863Y-55161242D01*
X131069969Y-55253486D01*
X131096283Y-55310563D01*
X131100667Y-55323957D01*
X131074754Y-55336304D01*
X131006214Y-55345436D01*
X130908841Y-55349667D01*
X130889202Y-55349779D01*
X130677737Y-55349779D01*
X130493889Y-54982890D01*
X130310040Y-54616001D01*
X129971778Y-54616001D01*
X129971778Y-55349779D01*
X129576667Y-55349779D01*
X129576667Y-53684667D01*
X129971778Y-53684667D01*
X129971778Y-54277334D01*
X130211221Y-54277334D01*
X130330540Y-54275925D01*
X130409373Y-54269107D01*
X130463659Y-54252996D01*
X130509335Y-54223707D01*
X130540481Y-54197084D01*
X130597389Y-54137430D01*
X130623652Y-54076441D01*
X130630282Y-53987622D01*
X130630296Y-53981001D01*
X130624473Y-53889732D01*
X130599662Y-53827845D01*
X130544850Y-53768843D01*
X130540481Y-53764918D01*
X130492110Y-53725456D01*
X130445060Y-53701593D01*
X130383390Y-53689442D01*
X130291163Y-53685120D01*
X130211221Y-53684667D01*
X129971778Y-53684667D01*
X129576667Y-53684667D01*
X129576667Y-53339707D01*
X130077611Y-53351638D01*
G37*
X130077611Y-53351638D02*
X130261833Y-53356638D01*
X130399709Y-53362412D01*
X130501336Y-53370182D01*
X130576811Y-53381171D01*
X130636231Y-53396601D01*
X130689692Y-53417695D01*
X130712787Y-53428532D01*
X130865810Y-53530151D01*
X130972566Y-53662250D01*
X131031291Y-53820592D01*
X131040224Y-54000939D01*
X131012743Y-54149698D01*
X130967415Y-54244890D01*
X130889114Y-54348637D01*
X130793992Y-54441693D01*
X130728012Y-54489001D01*
X130712617Y-54504592D01*
X130710156Y-54531506D01*
X130723557Y-54577281D01*
X130755748Y-54649454D01*
X130809656Y-54755562D01*
X130888209Y-54903141D01*
X130890650Y-54907679D01*
X130962558Y-55042938D01*
X131023863Y-55161242D01*
X131069969Y-55253486D01*
X131096283Y-55310563D01*
X131100667Y-55323957D01*
X131074754Y-55336304D01*
X131006214Y-55345436D01*
X130908841Y-55349667D01*
X130889202Y-55349779D01*
X130677737Y-55349779D01*
X130493889Y-54982890D01*
X130310040Y-54616001D01*
X129971778Y-54616001D01*
X129971778Y-55349779D01*
X129576667Y-55349779D01*
X129576667Y-53684667D01*
X129971778Y-53684667D01*
X129971778Y-54277334D01*
X130211221Y-54277334D01*
X130330540Y-54275925D01*
X130409373Y-54269107D01*
X130463659Y-54252996D01*
X130509335Y-54223707D01*
X130540481Y-54197084D01*
X130597389Y-54137430D01*
X130623652Y-54076441D01*
X130630282Y-53987622D01*
X130630296Y-53981001D01*
X130624473Y-53889732D01*
X130599662Y-53827845D01*
X130544850Y-53768843D01*
X130540481Y-53764918D01*
X130492110Y-53725456D01*
X130445060Y-53701593D01*
X130383390Y-53689442D01*
X130291163Y-53685120D01*
X130211221Y-53684667D01*
X129971778Y-53684667D01*
X129576667Y-53684667D01*
X129576667Y-53339707D01*
X130077611Y-53351638D01*
G36*
X129322667Y-53684667D02*
G01*
X128391333Y-53684667D01*
X128391333Y-54164445D01*
X129181555Y-54164445D01*
X129181555Y-54474890D01*
X128391333Y-54474890D01*
X128391333Y-55011112D01*
X129322667Y-55011112D01*
X129322667Y-55349779D01*
X127996222Y-55349779D01*
X127996222Y-53346001D01*
X129322667Y-53346001D01*
X129322667Y-53684667D01*
G37*
X129322667Y-53684667D02*
X128391333Y-53684667D01*
X128391333Y-54164445D01*
X129181555Y-54164445D01*
X129181555Y-54474890D01*
X128391333Y-54474890D01*
X128391333Y-55011112D01*
X129322667Y-55011112D01*
X129322667Y-55349779D01*
X127996222Y-55349779D01*
X127996222Y-53346001D01*
X129322667Y-53346001D01*
X129322667Y-53684667D01*
G36*
X127601111Y-55349779D02*
G01*
X127177778Y-55349779D01*
X127177778Y-53346001D01*
X127601111Y-53346001D01*
X127601111Y-55349779D01*
G37*
X127601111Y-55349779D02*
X127177778Y-55349779D01*
X127177778Y-53346001D01*
X127601111Y-53346001D01*
X127601111Y-55349779D01*
G36*
X126895555Y-53684667D02*
G01*
X126020667Y-53684667D01*
X126020667Y-54192667D01*
X126810889Y-54192667D01*
X126810889Y-54531334D01*
X126020667Y-54531334D01*
X126020667Y-55349779D01*
X125625555Y-55349779D01*
X125625555Y-53346001D01*
X126895555Y-53346001D01*
X126895555Y-53684667D01*
G37*
X126895555Y-53684667D02*
X126020667Y-53684667D01*
X126020667Y-54192667D01*
X126810889Y-54192667D01*
X126810889Y-54531334D01*
X126020667Y-54531334D01*
X126020667Y-55349779D01*
X125625555Y-55349779D01*
X125625555Y-53346001D01*
X126895555Y-53346001D01*
X126895555Y-53684667D01*
G36*
X125230444Y-55349779D02*
G01*
X124807111Y-55349779D01*
X124807111Y-53346001D01*
X125230444Y-53346001D01*
X125230444Y-55349779D01*
G37*
X125230444Y-55349779D02*
X124807111Y-55349779D01*
X124807111Y-53346001D01*
X125230444Y-53346001D01*
X125230444Y-55349779D01*
G36*
X123678222Y-55011112D02*
G01*
X124553111Y-55011112D01*
X124553111Y-55349779D01*
X123283111Y-55349779D01*
X123283111Y-53346001D01*
X123678222Y-53346001D01*
X123678222Y-55011112D01*
G37*
X123678222Y-55011112D02*
X124553111Y-55011112D01*
X124553111Y-55349779D01*
X123283111Y-55349779D01*
X123283111Y-53346001D01*
X123678222Y-53346001D01*
X123678222Y-55011112D01*
G36*
X121949611Y-53351010D02*
G01*
X122136969Y-53355709D01*
X122277816Y-53361570D01*
X122382085Y-53369677D01*
X122459709Y-53381116D01*
X122520623Y-53396971D01*
X122574759Y-53418327D01*
X122577555Y-53419600D01*
X122694749Y-53492493D01*
X122805412Y-53594226D01*
X122891159Y-53706283D01*
X122920962Y-53765414D01*
X122947695Y-53884288D01*
X122951952Y-54027929D01*
X122934959Y-54170730D01*
X122897944Y-54287087D01*
X122895747Y-54291445D01*
X122816001Y-54412831D01*
X122713424Y-54504417D01*
X122580472Y-54569702D01*
X122409600Y-54612183D01*
X122193263Y-54635361D01*
X122148974Y-54637751D01*
X121843778Y-54652216D01*
X121843778Y-55349779D01*
X121448667Y-55349779D01*
X121448667Y-53684667D01*
X121843778Y-53684667D01*
X121843778Y-54305556D01*
X122085068Y-54305556D01*
X122255737Y-54298367D01*
X122373739Y-54276923D01*
X122408787Y-54262931D01*
X122491208Y-54202584D01*
X122535580Y-54119565D01*
X122549316Y-53999696D01*
X122549333Y-53994145D01*
X122540479Y-53908018D01*
X122505815Y-53839259D01*
X122453378Y-53780623D01*
X122406012Y-53735334D01*
X122364359Y-53707152D01*
X122313503Y-53692019D01*
X122238529Y-53685879D01*
X122124520Y-53684673D01*
X122100600Y-53684667D01*
X121843778Y-53684667D01*
X121448667Y-53684667D01*
X121448667Y-53340518D01*
X121949611Y-53351010D01*
G37*
X121949611Y-53351010D02*
X122136969Y-53355709D01*
X122277816Y-53361570D01*
X122382085Y-53369677D01*
X122459709Y-53381116D01*
X122520623Y-53396971D01*
X122574759Y-53418327D01*
X122577555Y-53419600D01*
X122694749Y-53492493D01*
X122805412Y-53594226D01*
X122891159Y-53706283D01*
X122920962Y-53765414D01*
X122947695Y-53884288D01*
X122951952Y-54027929D01*
X122934959Y-54170730D01*
X122897944Y-54287087D01*
X122895747Y-54291445D01*
X122816001Y-54412831D01*
X122713424Y-54504417D01*
X122580472Y-54569702D01*
X122409600Y-54612183D01*
X122193263Y-54635361D01*
X122148974Y-54637751D01*
X121843778Y-54652216D01*
X121843778Y-55349779D01*
X121448667Y-55349779D01*
X121448667Y-53684667D01*
X121843778Y-53684667D01*
X121843778Y-54305556D01*
X122085068Y-54305556D01*
X122255737Y-54298367D01*
X122373739Y-54276923D01*
X122408787Y-54262931D01*
X122491208Y-54202584D01*
X122535580Y-54119565D01*
X122549316Y-53999696D01*
X122549333Y-53994145D01*
X122540479Y-53908018D01*
X122505815Y-53839259D01*
X122453378Y-53780623D01*
X122406012Y-53735334D01*
X122364359Y-53707152D01*
X122313503Y-53692019D01*
X122238529Y-53685879D01*
X122124520Y-53684673D01*
X122100600Y-53684667D01*
X121843778Y-53684667D01*
X121448667Y-53684667D01*
X121448667Y-53340518D01*
X121949611Y-53351010D01*
G36*
X119226133Y-53351997D02*
G01*
X119487155Y-53360112D01*
X119738851Y-54073649D01*
X119805955Y-54261121D01*
X119867761Y-54428545D01*
X119921668Y-54569297D01*
X119965078Y-54676748D01*
X119995389Y-54744274D01*
X120010002Y-54765246D01*
X120010164Y-54765094D01*
X120024590Y-54733351D01*
X120054774Y-54655794D01*
X120097948Y-54539928D01*
X120151343Y-54393255D01*
X120212192Y-54223281D01*
X120261360Y-54084154D01*
X120325981Y-53900449D01*
X120384892Y-53733246D01*
X120435354Y-53590296D01*
X120474629Y-53479355D01*
X120499975Y-53408175D01*
X120508156Y-53385654D01*
X120530399Y-53365876D01*
X120584612Y-53353513D01*
X120679527Y-53347329D01*
X120788464Y-53346001D01*
X121053555Y-53346001D01*
X121053555Y-55349779D01*
X120649867Y-55349779D01*
X120665615Y-54616001D01*
X120669579Y-54419174D01*
X120672642Y-54242294D01*
X120674716Y-54092768D01*
X120675715Y-53978002D01*
X120675549Y-53905404D01*
X120674284Y-53882223D01*
X120663290Y-53907671D01*
X120635796Y-53979505D01*
X120594299Y-54090960D01*
X120541299Y-54235271D01*
X120479291Y-54405671D01*
X120410775Y-54595396D01*
X120402907Y-54617270D01*
X120138610Y-55352318D01*
X119999389Y-55343993D01*
X119860168Y-55335667D01*
X119601808Y-54624077D01*
X119510291Y-54374424D01*
X119434980Y-54174154D01*
X119376167Y-54023954D01*
X119334142Y-53924510D01*
X119309195Y-53876511D01*
X119301617Y-53880642D01*
X119311699Y-53937590D01*
X119311944Y-53938667D01*
X119317330Y-53986203D01*
X119323700Y-54081290D01*
X119330621Y-54215054D01*
X119337662Y-54378621D01*
X119344389Y-54563115D01*
X119348075Y-54679501D01*
X119368099Y-55349779D01*
X118965111Y-55349779D01*
X118965111Y-53343883D01*
X119226133Y-53351997D01*
G37*
X119226133Y-53351997D02*
X119487155Y-53360112D01*
X119738851Y-54073649D01*
X119805955Y-54261121D01*
X119867761Y-54428545D01*
X119921668Y-54569297D01*
X119965078Y-54676748D01*
X119995389Y-54744274D01*
X120010002Y-54765246D01*
X120010164Y-54765094D01*
X120024590Y-54733351D01*
X120054774Y-54655794D01*
X120097948Y-54539928D01*
X120151343Y-54393255D01*
X120212192Y-54223281D01*
X120261360Y-54084154D01*
X120325981Y-53900449D01*
X120384892Y-53733246D01*
X120435354Y-53590296D01*
X120474629Y-53479355D01*
X120499975Y-53408175D01*
X120508156Y-53385654D01*
X120530399Y-53365876D01*
X120584612Y-53353513D01*
X120679527Y-53347329D01*
X120788464Y-53346001D01*
X121053555Y-53346001D01*
X121053555Y-55349779D01*
X120649867Y-55349779D01*
X120665615Y-54616001D01*
X120669579Y-54419174D01*
X120672642Y-54242294D01*
X120674716Y-54092768D01*
X120675715Y-53978002D01*
X120675549Y-53905404D01*
X120674284Y-53882223D01*
X120663290Y-53907671D01*
X120635796Y-53979505D01*
X120594299Y-54090960D01*
X120541299Y-54235271D01*
X120479291Y-54405671D01*
X120410775Y-54595396D01*
X120402907Y-54617270D01*
X120138610Y-55352318D01*
X119999389Y-55343993D01*
X119860168Y-55335667D01*
X119601808Y-54624077D01*
X119510291Y-54374424D01*
X119434980Y-54174154D01*
X119376167Y-54023954D01*
X119334142Y-53924510D01*
X119309195Y-53876511D01*
X119301617Y-53880642D01*
X119311699Y-53937590D01*
X119311944Y-53938667D01*
X119317330Y-53986203D01*
X119323700Y-54081290D01*
X119330621Y-54215054D01*
X119337662Y-54378621D01*
X119344389Y-54563115D01*
X119348075Y-54679501D01*
X119368099Y-55349779D01*
X118965111Y-55349779D01*
X118965111Y-53343883D01*
X119226133Y-53351997D01*
G36*
X118387472Y-54354945D02*
G01*
X118760926Y-55349779D01*
X118327110Y-55349779D01*
X118199856Y-54954667D01*
X117452221Y-54954667D01*
X117324967Y-55349779D01*
X117114928Y-55349779D01*
X117014292Y-55347169D01*
X116940147Y-55340271D01*
X116906283Y-55330477D01*
X116905524Y-55328612D01*
X116915221Y-55298224D01*
X116942548Y-55220986D01*
X116985309Y-55102897D01*
X117041308Y-54949954D01*
X117108348Y-54768155D01*
X117172920Y-54594007D01*
X117582222Y-54594007D01*
X117608332Y-54603729D01*
X117678231Y-54611252D01*
X117779277Y-54615472D01*
X117834112Y-54616001D01*
X118086003Y-54616001D01*
X117956415Y-54228339D01*
X117826828Y-53840677D01*
X117704525Y-54206345D01*
X117659815Y-54341551D01*
X117622434Y-54457509D01*
X117595684Y-54543756D01*
X117582866Y-54589825D01*
X117582222Y-54594007D01*
X117172920Y-54594007D01*
X117184233Y-54563498D01*
X117266767Y-54341981D01*
X117269830Y-54333779D01*
X117633501Y-53360112D01*
X118014017Y-53360112D01*
X118387472Y-54354945D01*
G37*
X118387472Y-54354945D02*
X118760926Y-55349779D01*
X118327110Y-55349779D01*
X118199856Y-54954667D01*
X117452221Y-54954667D01*
X117324967Y-55349779D01*
X117114928Y-55349779D01*
X117014292Y-55347169D01*
X116940147Y-55340271D01*
X116906283Y-55330477D01*
X116905524Y-55328612D01*
X116915221Y-55298224D01*
X116942548Y-55220986D01*
X116985309Y-55102897D01*
X117041308Y-54949954D01*
X117108348Y-54768155D01*
X117172920Y-54594007D01*
X117582222Y-54594007D01*
X117608332Y-54603729D01*
X117678231Y-54611252D01*
X117779277Y-54615472D01*
X117834112Y-54616001D01*
X118086003Y-54616001D01*
X117956415Y-54228339D01*
X117826828Y-53840677D01*
X117704525Y-54206345D01*
X117659815Y-54341551D01*
X117622434Y-54457509D01*
X117595684Y-54543756D01*
X117582866Y-54589825D01*
X117582222Y-54594007D01*
X117172920Y-54594007D01*
X117184233Y-54563498D01*
X117266767Y-54341981D01*
X117269830Y-54333779D01*
X117633501Y-53360112D01*
X118014017Y-53360112D01*
X118387472Y-54354945D01*
G36*
X138607778Y-54080685D02*
G01*
X138608341Y-54323517D01*
X138610725Y-54516884D01*
X138615969Y-54667757D01*
X138625115Y-54783109D01*
X138639203Y-54869913D01*
X138659273Y-54935142D01*
X138686366Y-54985769D01*
X138721521Y-55028767D01*
X138753959Y-55060344D01*
X138854720Y-55119545D01*
X138985676Y-55150865D01*
X139128105Y-55154278D01*
X139263283Y-55129758D01*
X139372486Y-55077281D01*
X139392011Y-55061207D01*
X139434184Y-55019149D01*
X139467456Y-54974852D01*
X139492875Y-54921337D01*
X139511486Y-54851624D01*
X139524338Y-54758733D01*
X139532477Y-54635684D01*
X139536951Y-54475497D01*
X139538807Y-54271193D01*
X139539111Y-54080685D01*
X139539111Y-53346001D01*
X139793111Y-53346001D01*
X139793111Y-54083560D01*
X139792438Y-54332847D01*
X139789759Y-54532846D01*
X139784089Y-54690706D01*
X139774439Y-54813573D01*
X139759823Y-54908596D01*
X139739254Y-54982921D01*
X139711744Y-55043698D01*
X139676307Y-55098072D01*
X139648043Y-55133990D01*
X139527549Y-55239214D01*
X139370569Y-55315817D01*
X139191188Y-55360244D01*
X139003492Y-55368940D01*
X138829283Y-55340581D01*
X138679022Y-55284410D01*
X138565128Y-55206418D01*
X138485428Y-55117526D01*
X138447758Y-55062330D01*
X138417956Y-55003026D01*
X138395121Y-54932474D01*
X138378357Y-54843535D01*
X138366764Y-54729070D01*
X138359444Y-54581940D01*
X138355499Y-54395007D01*
X138354030Y-54161131D01*
X138353935Y-54072723D01*
X138353778Y-53346001D01*
X138607778Y-53346001D01*
X138607778Y-54080685D01*
G37*
X138607778Y-54080685D02*
X138608341Y-54323517D01*
X138610725Y-54516884D01*
X138615969Y-54667757D01*
X138625115Y-54783109D01*
X138639203Y-54869913D01*
X138659273Y-54935142D01*
X138686366Y-54985769D01*
X138721521Y-55028767D01*
X138753959Y-55060344D01*
X138854720Y-55119545D01*
X138985676Y-55150865D01*
X139128105Y-55154278D01*
X139263283Y-55129758D01*
X139372486Y-55077281D01*
X139392011Y-55061207D01*
X139434184Y-55019149D01*
X139467456Y-54974852D01*
X139492875Y-54921337D01*
X139511486Y-54851624D01*
X139524338Y-54758733D01*
X139532477Y-54635684D01*
X139536951Y-54475497D01*
X139538807Y-54271193D01*
X139539111Y-54080685D01*
X139539111Y-53346001D01*
X139793111Y-53346001D01*
X139793111Y-54083560D01*
X139792438Y-54332847D01*
X139789759Y-54532846D01*
X139784089Y-54690706D01*
X139774439Y-54813573D01*
X139759823Y-54908596D01*
X139739254Y-54982921D01*
X139711744Y-55043698D01*
X139676307Y-55098072D01*
X139648043Y-55133990D01*
X139527549Y-55239214D01*
X139370569Y-55315817D01*
X139191188Y-55360244D01*
X139003492Y-55368940D01*
X138829283Y-55340581D01*
X138679022Y-55284410D01*
X138565128Y-55206418D01*
X138485428Y-55117526D01*
X138447758Y-55062330D01*
X138417956Y-55003026D01*
X138395121Y-54932474D01*
X138378357Y-54843535D01*
X138366764Y-54729070D01*
X138359444Y-54581940D01*
X138355499Y-54395007D01*
X138354030Y-54161131D01*
X138353935Y-54072723D01*
X138353778Y-53346001D01*
X138607778Y-53346001D01*
X138607778Y-54080685D01*
G36*
X135520317Y-53351657D02*
G01*
X135556337Y-53361705D01*
X135729720Y-53441722D01*
X135876101Y-53568070D01*
X135991250Y-53735433D01*
X136070936Y-53938494D01*
X136093475Y-54036708D01*
X136122946Y-54300156D01*
X136113129Y-54546961D01*
X136066358Y-54771486D01*
X135984967Y-54968094D01*
X135871289Y-55131148D01*
X135727658Y-55255014D01*
X135556407Y-55334054D01*
X135556337Y-55334075D01*
X135388148Y-55370437D01*
X135236081Y-55369250D01*
X135073653Y-55329988D01*
X135056439Y-55324161D01*
X134891266Y-55239311D01*
X134745593Y-55111034D01*
X134632299Y-54951961D01*
X134594203Y-54870915D01*
X134566679Y-54792202D01*
X134548390Y-54711494D01*
X134537530Y-54614257D01*
X134532292Y-54485957D01*
X134530973Y-54362001D01*
X134532297Y-54293960D01*
X134771769Y-54293960D01*
X134774174Y-54467333D01*
X134787546Y-54625150D01*
X134799810Y-54697849D01*
X134852728Y-54848635D01*
X134937783Y-54982074D01*
X135043479Y-55081639D01*
X135083395Y-55105513D01*
X135203124Y-55141389D01*
X135345168Y-55147494D01*
X135486129Y-55125430D01*
X135602612Y-55076801D01*
X135613989Y-55069146D01*
X135686520Y-54997212D01*
X135756727Y-54893415D01*
X135782122Y-54844333D01*
X135814124Y-54770976D01*
X135835347Y-54703714D01*
X135847962Y-54627928D01*
X135854138Y-54528997D01*
X135856046Y-54392302D01*
X135856111Y-54345894D01*
X135855280Y-54199090D01*
X135851170Y-54094183D01*
X135841351Y-54016632D01*
X135823397Y-53951896D01*
X135794879Y-53885432D01*
X135771291Y-53837894D01*
X135711547Y-53733530D01*
X135651315Y-53664953D01*
X135573914Y-53613880D01*
X135560699Y-53607056D01*
X135397097Y-53552068D01*
X135238263Y-53549609D01*
X135091741Y-53595831D01*
X134965075Y-53686886D01*
X134865808Y-53818928D01*
X134801483Y-53988108D01*
X134799854Y-53995112D01*
X134780330Y-54128672D01*
X134771769Y-54293960D01*
X134532297Y-54293960D01*
X134535065Y-54151728D01*
X134551536Y-53985355D01*
X134584059Y-53851015D01*
X134636306Y-53736838D01*
X134711948Y-53630957D01*
X134780366Y-53555849D01*
X134942765Y-53423483D01*
X135119374Y-53345542D01*
X135311466Y-53321706D01*
X135520317Y-53351657D01*
G37*
X135520317Y-53351657D02*
X135556337Y-53361705D01*
X135729720Y-53441722D01*
X135876101Y-53568070D01*
X135991250Y-53735433D01*
X136070936Y-53938494D01*
X136093475Y-54036708D01*
X136122946Y-54300156D01*
X136113129Y-54546961D01*
X136066358Y-54771486D01*
X135984967Y-54968094D01*
X135871289Y-55131148D01*
X135727658Y-55255014D01*
X135556407Y-55334054D01*
X135556337Y-55334075D01*
X135388148Y-55370437D01*
X135236081Y-55369250D01*
X135073653Y-55329988D01*
X135056439Y-55324161D01*
X134891266Y-55239311D01*
X134745593Y-55111034D01*
X134632299Y-54951961D01*
X134594203Y-54870915D01*
X134566679Y-54792202D01*
X134548390Y-54711494D01*
X134537530Y-54614257D01*
X134532292Y-54485957D01*
X134530973Y-54362001D01*
X134532297Y-54293960D01*
X134771769Y-54293960D01*
X134774174Y-54467333D01*
X134787546Y-54625150D01*
X134799810Y-54697849D01*
X134852728Y-54848635D01*
X134937783Y-54982074D01*
X135043479Y-55081639D01*
X135083395Y-55105513D01*
X135203124Y-55141389D01*
X135345168Y-55147494D01*
X135486129Y-55125430D01*
X135602612Y-55076801D01*
X135613989Y-55069146D01*
X135686520Y-54997212D01*
X135756727Y-54893415D01*
X135782122Y-54844333D01*
X135814124Y-54770976D01*
X135835347Y-54703714D01*
X135847962Y-54627928D01*
X135854138Y-54528997D01*
X135856046Y-54392302D01*
X135856111Y-54345894D01*
X135855280Y-54199090D01*
X135851170Y-54094183D01*
X135841351Y-54016632D01*
X135823397Y-53951896D01*
X135794879Y-53885432D01*
X135771291Y-53837894D01*
X135711547Y-53733530D01*
X135651315Y-53664953D01*
X135573914Y-53613880D01*
X135560699Y-53607056D01*
X135397097Y-53552068D01*
X135238263Y-53549609D01*
X135091741Y-53595831D01*
X134965075Y-53686886D01*
X134865808Y-53818928D01*
X134801483Y-53988108D01*
X134799854Y-53995112D01*
X134780330Y-54128672D01*
X134771769Y-54293960D01*
X134532297Y-54293960D01*
X134535065Y-54151728D01*
X134551536Y-53985355D01*
X134584059Y-53851015D01*
X134636306Y-53736838D01*
X134711948Y-53630957D01*
X134780366Y-53555849D01*
X134942765Y-53423483D01*
X135119374Y-53345542D01*
X135311466Y-53321706D01*
X135520317Y-53351657D01*
G36*
X143377333Y-56309334D02*
G01*
X116622667Y-56309334D01*
X116622667Y-55857779D01*
X143377333Y-55857779D01*
X143377333Y-56309334D01*
G37*
X143377333Y-56309334D02*
X116622667Y-56309334D01*
X116622667Y-55857779D01*
X143377333Y-55857779D01*
X143377333Y-56309334D01*
G36*
X132738398Y-57119762D02*
G01*
X132761645Y-57169426D01*
X132760701Y-57190864D01*
X132732074Y-57247768D01*
X132680714Y-57261659D01*
X132625550Y-57227605D01*
X132624496Y-57226350D01*
X132602361Y-57183888D01*
X132625317Y-57143425D01*
X132631958Y-57136614D01*
X132689060Y-57106251D01*
X132738398Y-57119762D01*
G37*
X132738398Y-57119762D02*
X132761645Y-57169426D01*
X132760701Y-57190864D01*
X132732074Y-57247768D01*
X132680714Y-57261659D01*
X132625550Y-57227605D01*
X132624496Y-57226350D01*
X132602361Y-57183888D01*
X132625317Y-57143425D01*
X132631958Y-57136614D01*
X132689060Y-57106251D01*
X132738398Y-57119762D01*
G36*
X130509183Y-57120716D02*
G01*
X130529951Y-57170865D01*
X130507702Y-57226916D01*
X130453365Y-57264492D01*
X130401823Y-57258303D01*
X130377095Y-57226556D01*
X130372597Y-57157515D01*
X130409084Y-57110267D01*
X130451555Y-57099556D01*
X130509183Y-57120716D01*
G37*
X130509183Y-57120716D02*
X130529951Y-57170865D01*
X130507702Y-57226916D01*
X130453365Y-57264492D01*
X130401823Y-57258303D01*
X130377095Y-57226556D01*
X130372597Y-57157515D01*
X130409084Y-57110267D01*
X130451555Y-57099556D01*
X130509183Y-57120716D01*
G36*
X129210961Y-57120716D02*
G01*
X129231729Y-57170865D01*
X129209479Y-57226916D01*
X129155142Y-57264492D01*
X129103601Y-57258303D01*
X129078872Y-57226556D01*
X129074375Y-57157515D01*
X129110861Y-57110267D01*
X129153333Y-57099556D01*
X129210961Y-57120716D01*
G37*
X129210961Y-57120716D02*
X129231729Y-57170865D01*
X129209479Y-57226916D01*
X129155142Y-57264492D01*
X129103601Y-57258303D01*
X129078872Y-57226556D01*
X129074375Y-57157515D01*
X129110861Y-57110267D01*
X129153333Y-57099556D01*
X129210961Y-57120716D01*
G36*
X126332294Y-57120716D02*
G01*
X126353062Y-57170865D01*
X126330813Y-57226916D01*
X126276476Y-57264492D01*
X126224934Y-57258303D01*
X126200206Y-57226556D01*
X126195708Y-57157515D01*
X126232195Y-57110267D01*
X126274667Y-57099556D01*
X126332294Y-57120716D01*
G37*
X126332294Y-57120716D02*
X126353062Y-57170865D01*
X126330813Y-57226916D01*
X126276476Y-57264492D01*
X126224934Y-57258303D01*
X126200206Y-57226556D01*
X126195708Y-57157515D01*
X126232195Y-57110267D01*
X126274667Y-57099556D01*
X126332294Y-57120716D01*
G36*
X136307181Y-57423827D02*
G01*
X136321778Y-57463403D01*
X136324627Y-57495617D01*
X136342593Y-57501795D01*
X136389807Y-57481937D01*
X136426523Y-57463403D01*
X136509924Y-57428899D01*
X136584368Y-57410794D01*
X136597258Y-57410001D01*
X136666469Y-57422021D01*
X136741487Y-57451514D01*
X136802491Y-57488631D01*
X136829655Y-57523522D01*
X136829778Y-57525536D01*
X136849544Y-57529628D01*
X136899093Y-57504622D01*
X136921500Y-57489534D01*
X137023924Y-57439200D01*
X137149721Y-57424112D01*
X137241841Y-57430029D01*
X137302597Y-57454079D01*
X137354332Y-57503297D01*
X137382348Y-57539140D01*
X137401414Y-57577250D01*
X137413242Y-57628809D01*
X137419546Y-57704997D01*
X137422040Y-57816998D01*
X137422444Y-57947797D01*
X137422444Y-58313112D01*
X137281333Y-58313112D01*
X137281333Y-57963790D01*
X137279607Y-57800598D01*
X137271951Y-57685501D01*
X137254648Y-57610192D01*
X137223980Y-57566364D01*
X137176231Y-57545711D01*
X137107684Y-57539927D01*
X137091615Y-57539823D01*
X137013417Y-57547888D01*
X136957335Y-57577046D01*
X136919985Y-57634745D01*
X136897983Y-57728429D01*
X136887944Y-57865545D01*
X136886222Y-57991683D01*
X136886222Y-58313112D01*
X136745111Y-58313112D01*
X136745111Y-57991683D01*
X136741566Y-57820064D01*
X136728577Y-57697042D01*
X136702612Y-57615076D01*
X136660141Y-57566629D01*
X136597632Y-57544162D01*
X136533444Y-57539823D01*
X136453052Y-57547391D01*
X136395424Y-57575120D01*
X136357029Y-57630548D01*
X136334334Y-57721215D01*
X136323810Y-57854658D01*
X136321778Y-57991683D01*
X136321778Y-58313112D01*
X136180667Y-58313112D01*
X136180667Y-57410001D01*
X136251222Y-57410001D01*
X136307181Y-57423827D01*
G37*
X136307181Y-57423827D02*
X136321778Y-57463403D01*
X136324627Y-57495617D01*
X136342593Y-57501795D01*
X136389807Y-57481937D01*
X136426523Y-57463403D01*
X136509924Y-57428899D01*
X136584368Y-57410794D01*
X136597258Y-57410001D01*
X136666469Y-57422021D01*
X136741487Y-57451514D01*
X136802491Y-57488631D01*
X136829655Y-57523522D01*
X136829778Y-57525536D01*
X136849544Y-57529628D01*
X136899093Y-57504622D01*
X136921500Y-57489534D01*
X137023924Y-57439200D01*
X137149721Y-57424112D01*
X137241841Y-57430029D01*
X137302597Y-57454079D01*
X137354332Y-57503297D01*
X137382348Y-57539140D01*
X137401414Y-57577250D01*
X137413242Y-57628809D01*
X137419546Y-57704997D01*
X137422040Y-57816998D01*
X137422444Y-57947797D01*
X137422444Y-58313112D01*
X137281333Y-58313112D01*
X137281333Y-57963790D01*
X137279607Y-57800598D01*
X137271951Y-57685501D01*
X137254648Y-57610192D01*
X137223980Y-57566364D01*
X137176231Y-57545711D01*
X137107684Y-57539927D01*
X137091615Y-57539823D01*
X137013417Y-57547888D01*
X136957335Y-57577046D01*
X136919985Y-57634745D01*
X136897983Y-57728429D01*
X136887944Y-57865545D01*
X136886222Y-57991683D01*
X136886222Y-58313112D01*
X136745111Y-58313112D01*
X136745111Y-57991683D01*
X136741566Y-57820064D01*
X136728577Y-57697042D01*
X136702612Y-57615076D01*
X136660141Y-57566629D01*
X136597632Y-57544162D01*
X136533444Y-57539823D01*
X136453052Y-57547391D01*
X136395424Y-57575120D01*
X136357029Y-57630548D01*
X136334334Y-57721215D01*
X136323810Y-57854658D01*
X136321778Y-57991683D01*
X136321778Y-58313112D01*
X136180667Y-58313112D01*
X136180667Y-57410001D01*
X136251222Y-57410001D01*
X136307181Y-57423827D01*
G36*
X134053797Y-58164542D02*
G01*
X134080698Y-58213721D01*
X134063201Y-58271649D01*
X134061031Y-58274356D01*
X134005035Y-58310466D01*
X133951093Y-58294548D01*
X133927695Y-58263723D01*
X133912257Y-58195375D01*
X133944099Y-58153300D01*
X133992777Y-58143779D01*
X134053797Y-58164542D01*
G37*
X134053797Y-58164542D02*
X134080698Y-58213721D01*
X134063201Y-58271649D01*
X134061031Y-58274356D01*
X134005035Y-58310466D01*
X133951093Y-58294548D01*
X133927695Y-58263723D01*
X133912257Y-58195375D01*
X133944099Y-58153300D01*
X133992777Y-58143779D01*
X134053797Y-58164542D01*
G36*
X132765778Y-58313112D02*
G01*
X132624667Y-58313112D01*
X132624667Y-57410001D01*
X132765778Y-57410001D01*
X132765778Y-58313112D01*
G37*
X132765778Y-58313112D02*
X132624667Y-58313112D01*
X132624667Y-57410001D01*
X132765778Y-57410001D01*
X132765778Y-58313112D01*
G36*
X127669866Y-57422574D02*
G01*
X127685757Y-57468071D01*
X127685778Y-57470819D01*
X127689624Y-57512427D01*
X127710743Y-57507870D01*
X127737018Y-57485266D01*
X127801897Y-57446199D01*
X127878129Y-57420919D01*
X127939723Y-57413053D01*
X127963985Y-57430933D01*
X127968000Y-57477029D01*
X127957311Y-57532789D01*
X127915585Y-57550666D01*
X127901250Y-57551112D01*
X127832189Y-57568325D01*
X127760139Y-57609605D01*
X127728104Y-57637131D01*
X127706908Y-57667254D01*
X127694313Y-57711429D01*
X127688084Y-57781112D01*
X127685986Y-57887758D01*
X127685778Y-57990605D01*
X127685778Y-58313112D01*
X127544667Y-58313112D01*
X127544667Y-57410001D01*
X127615222Y-57410001D01*
X127669866Y-57422574D01*
G37*
X127669866Y-57422574D02*
X127685757Y-57468071D01*
X127685778Y-57470819D01*
X127689624Y-57512427D01*
X127710743Y-57507870D01*
X127737018Y-57485266D01*
X127801897Y-57446199D01*
X127878129Y-57420919D01*
X127939723Y-57413053D01*
X127963985Y-57430933D01*
X127968000Y-57477029D01*
X127957311Y-57532789D01*
X127915585Y-57550666D01*
X127901250Y-57551112D01*
X127832189Y-57568325D01*
X127760139Y-57609605D01*
X127728104Y-57637131D01*
X127706908Y-57667254D01*
X127694313Y-57711429D01*
X127688084Y-57781112D01*
X127685986Y-57887758D01*
X127685778Y-57990605D01*
X127685778Y-58313112D01*
X127544667Y-58313112D01*
X127544667Y-57410001D01*
X127615222Y-57410001D01*
X127669866Y-57422574D01*
G36*
X124938019Y-58164542D02*
G01*
X124964921Y-58213721D01*
X124947423Y-58271649D01*
X124945253Y-58274356D01*
X124889257Y-58310466D01*
X124835315Y-58294548D01*
X124811918Y-58263723D01*
X124796479Y-58195375D01*
X124828321Y-58153300D01*
X124876999Y-58143779D01*
X124938019Y-58164542D01*
G37*
X124938019Y-58164542D02*
X124964921Y-58213721D01*
X124947423Y-58271649D01*
X124945253Y-58274356D01*
X124889257Y-58310466D01*
X124835315Y-58294548D01*
X124811918Y-58263723D01*
X124796479Y-58195375D01*
X124828321Y-58153300D01*
X124876999Y-58143779D01*
X124938019Y-58164542D01*
G36*
X124686144Y-57410368D02*
G01*
X124704177Y-57416227D01*
X124712637Y-57434716D01*
X124710522Y-57472972D01*
X124696827Y-57538135D01*
X124670549Y-57637341D01*
X124630685Y-57777728D01*
X124586134Y-57932112D01*
X124541096Y-58083817D01*
X124506218Y-58188945D01*
X124477937Y-58255670D01*
X124452693Y-58292165D01*
X124426923Y-58306605D01*
X124422620Y-58307399D01*
X124396875Y-58305029D01*
X124373072Y-58284299D01*
X124347106Y-58237063D01*
X124314876Y-58155175D01*
X124272278Y-58030489D01*
X124252044Y-57968732D01*
X124139067Y-57621667D01*
X124030928Y-57967390D01*
X123982693Y-58116281D01*
X123945226Y-58217852D01*
X123915173Y-58279434D01*
X123889179Y-58308355D01*
X123872727Y-58313112D01*
X123823150Y-58302643D01*
X123809542Y-58291880D01*
X123796367Y-58256445D01*
X123771742Y-58178505D01*
X123739081Y-58069957D01*
X123701796Y-57942698D01*
X123663300Y-57808626D01*
X123627003Y-57679638D01*
X123596320Y-57567631D01*
X123574662Y-57484504D01*
X123565442Y-57442153D01*
X123565333Y-57440421D01*
X123589256Y-57416763D01*
X123629444Y-57410001D01*
X123657964Y-57414612D01*
X123681253Y-57434503D01*
X123703389Y-57478757D01*
X123728451Y-57556456D01*
X123760518Y-57676685D01*
X123775173Y-57734556D01*
X123808202Y-57860692D01*
X123837732Y-57963943D01*
X123860531Y-58033628D01*
X123873340Y-58059066D01*
X123887288Y-58033664D01*
X123913103Y-57964502D01*
X123947124Y-57862085D01*
X123985690Y-57736920D01*
X123986407Y-57734510D01*
X124028957Y-57595411D01*
X124061300Y-57502152D01*
X124087646Y-57445998D01*
X124112200Y-57418217D01*
X124139171Y-57410073D01*
X124142738Y-57410001D01*
X124170525Y-57416445D01*
X124195240Y-57441668D01*
X124221159Y-57494502D01*
X124252556Y-57583779D01*
X124293708Y-57718333D01*
X124296422Y-57727501D01*
X124334922Y-57854102D01*
X124369308Y-57960574D01*
X124395703Y-58035326D01*
X124409801Y-58066356D01*
X124423312Y-58049011D01*
X124446112Y-57986235D01*
X124475137Y-57887672D01*
X124507320Y-57762967D01*
X124510732Y-57748856D01*
X124545519Y-57607131D01*
X124571887Y-57511496D01*
X124593779Y-57452970D01*
X124615142Y-57422568D01*
X124639920Y-57411309D01*
X124659542Y-57410001D01*
X124686144Y-57410368D01*
G37*
X124686144Y-57410368D02*
X124704177Y-57416227D01*
X124712637Y-57434716D01*
X124710522Y-57472972D01*
X124696827Y-57538135D01*
X124670549Y-57637341D01*
X124630685Y-57777728D01*
X124586134Y-57932112D01*
X124541096Y-58083817D01*
X124506218Y-58188945D01*
X124477937Y-58255670D01*
X124452693Y-58292165D01*
X124426923Y-58306605D01*
X124422620Y-58307399D01*
X124396875Y-58305029D01*
X124373072Y-58284299D01*
X124347106Y-58237063D01*
X124314876Y-58155175D01*
X124272278Y-58030489D01*
X124252044Y-57968732D01*
X124139067Y-57621667D01*
X124030928Y-57967390D01*
X123982693Y-58116281D01*
X123945226Y-58217852D01*
X123915173Y-58279434D01*
X123889179Y-58308355D01*
X123872727Y-58313112D01*
X123823150Y-58302643D01*
X123809542Y-58291880D01*
X123796367Y-58256445D01*
X123771742Y-58178505D01*
X123739081Y-58069957D01*
X123701796Y-57942698D01*
X123663300Y-57808626D01*
X123627003Y-57679638D01*
X123596320Y-57567631D01*
X123574662Y-57484504D01*
X123565442Y-57442153D01*
X123565333Y-57440421D01*
X123589256Y-57416763D01*
X123629444Y-57410001D01*
X123657964Y-57414612D01*
X123681253Y-57434503D01*
X123703389Y-57478757D01*
X123728451Y-57556456D01*
X123760518Y-57676685D01*
X123775173Y-57734556D01*
X123808202Y-57860692D01*
X123837732Y-57963943D01*
X123860531Y-58033628D01*
X123873340Y-58059066D01*
X123887288Y-58033664D01*
X123913103Y-57964502D01*
X123947124Y-57862085D01*
X123985690Y-57736920D01*
X123986407Y-57734510D01*
X124028957Y-57595411D01*
X124061300Y-57502152D01*
X124087646Y-57445998D01*
X124112200Y-57418217D01*
X124139171Y-57410073D01*
X124142738Y-57410001D01*
X124170525Y-57416445D01*
X124195240Y-57441668D01*
X124221159Y-57494502D01*
X124252556Y-57583779D01*
X124293708Y-57718333D01*
X124296422Y-57727501D01*
X124334922Y-57854102D01*
X124369308Y-57960574D01*
X124395703Y-58035326D01*
X124409801Y-58066356D01*
X124423312Y-58049011D01*
X124446112Y-57986235D01*
X124475137Y-57887672D01*
X124507320Y-57762967D01*
X124510732Y-57748856D01*
X124545519Y-57607131D01*
X124571887Y-57511496D01*
X124593779Y-57452970D01*
X124615142Y-57422568D01*
X124639920Y-57411309D01*
X124659542Y-57410001D01*
X124686144Y-57410368D01*
G36*
X123416144Y-57410368D02*
G01*
X123434177Y-57416227D01*
X123442637Y-57434716D01*
X123440522Y-57472972D01*
X123426827Y-57538135D01*
X123400549Y-57637341D01*
X123360685Y-57777728D01*
X123316134Y-57932112D01*
X123271096Y-58083817D01*
X123236218Y-58188945D01*
X123207937Y-58255670D01*
X123182693Y-58292165D01*
X123156923Y-58306605D01*
X123152620Y-58307399D01*
X123126875Y-58305029D01*
X123103072Y-58284299D01*
X123077106Y-58237063D01*
X123044876Y-58155175D01*
X123002278Y-58030489D01*
X122982044Y-57968732D01*
X122869067Y-57621667D01*
X122760928Y-57967390D01*
X122712693Y-58116281D01*
X122675226Y-58217852D01*
X122645173Y-58279434D01*
X122619179Y-58308355D01*
X122602727Y-58313112D01*
X122553150Y-58302643D01*
X122539542Y-58291880D01*
X122526367Y-58256445D01*
X122501742Y-58178505D01*
X122469081Y-58069957D01*
X122431796Y-57942698D01*
X122393300Y-57808626D01*
X122357003Y-57679638D01*
X122326320Y-57567631D01*
X122304662Y-57484504D01*
X122295442Y-57442153D01*
X122295333Y-57440421D01*
X122319256Y-57416763D01*
X122359444Y-57410001D01*
X122387964Y-57414612D01*
X122411253Y-57434503D01*
X122433389Y-57478757D01*
X122458451Y-57556456D01*
X122490518Y-57676685D01*
X122505173Y-57734556D01*
X122538202Y-57860692D01*
X122567732Y-57963943D01*
X122590531Y-58033628D01*
X122603340Y-58059066D01*
X122617288Y-58033664D01*
X122643103Y-57964502D01*
X122677124Y-57862085D01*
X122715690Y-57736920D01*
X122716407Y-57734510D01*
X122758957Y-57595411D01*
X122791300Y-57502152D01*
X122817646Y-57445998D01*
X122842200Y-57418217D01*
X122869171Y-57410073D01*
X122872738Y-57410001D01*
X122900525Y-57416445D01*
X122925240Y-57441668D01*
X122951159Y-57494502D01*
X122982556Y-57583779D01*
X123023708Y-57718333D01*
X123026422Y-57727501D01*
X123064922Y-57854102D01*
X123099308Y-57960574D01*
X123125703Y-58035326D01*
X123139801Y-58066356D01*
X123153312Y-58049011D01*
X123176112Y-57986235D01*
X123205137Y-57887672D01*
X123237320Y-57762967D01*
X123240732Y-57748856D01*
X123275519Y-57607131D01*
X123301887Y-57511496D01*
X123323779Y-57452970D01*
X123345142Y-57422568D01*
X123369920Y-57411309D01*
X123389542Y-57410001D01*
X123416144Y-57410368D01*
G37*
X123416144Y-57410368D02*
X123434177Y-57416227D01*
X123442637Y-57434716D01*
X123440522Y-57472972D01*
X123426827Y-57538135D01*
X123400549Y-57637341D01*
X123360685Y-57777728D01*
X123316134Y-57932112D01*
X123271096Y-58083817D01*
X123236218Y-58188945D01*
X123207937Y-58255670D01*
X123182693Y-58292165D01*
X123156923Y-58306605D01*
X123152620Y-58307399D01*
X123126875Y-58305029D01*
X123103072Y-58284299D01*
X123077106Y-58237063D01*
X123044876Y-58155175D01*
X123002278Y-58030489D01*
X122982044Y-57968732D01*
X122869067Y-57621667D01*
X122760928Y-57967390D01*
X122712693Y-58116281D01*
X122675226Y-58217852D01*
X122645173Y-58279434D01*
X122619179Y-58308355D01*
X122602727Y-58313112D01*
X122553150Y-58302643D01*
X122539542Y-58291880D01*
X122526367Y-58256445D01*
X122501742Y-58178505D01*
X122469081Y-58069957D01*
X122431796Y-57942698D01*
X122393300Y-57808626D01*
X122357003Y-57679638D01*
X122326320Y-57567631D01*
X122304662Y-57484504D01*
X122295442Y-57442153D01*
X122295333Y-57440421D01*
X122319256Y-57416763D01*
X122359444Y-57410001D01*
X122387964Y-57414612D01*
X122411253Y-57434503D01*
X122433389Y-57478757D01*
X122458451Y-57556456D01*
X122490518Y-57676685D01*
X122505173Y-57734556D01*
X122538202Y-57860692D01*
X122567732Y-57963943D01*
X122590531Y-58033628D01*
X122603340Y-58059066D01*
X122617288Y-58033664D01*
X122643103Y-57964502D01*
X122677124Y-57862085D01*
X122715690Y-57736920D01*
X122716407Y-57734510D01*
X122758957Y-57595411D01*
X122791300Y-57502152D01*
X122817646Y-57445998D01*
X122842200Y-57418217D01*
X122869171Y-57410073D01*
X122872738Y-57410001D01*
X122900525Y-57416445D01*
X122925240Y-57441668D01*
X122951159Y-57494502D01*
X122982556Y-57583779D01*
X123023708Y-57718333D01*
X123026422Y-57727501D01*
X123064922Y-57854102D01*
X123099308Y-57960574D01*
X123125703Y-58035326D01*
X123139801Y-58066356D01*
X123153312Y-58049011D01*
X123176112Y-57986235D01*
X123205137Y-57887672D01*
X123237320Y-57762967D01*
X123240732Y-57748856D01*
X123275519Y-57607131D01*
X123301887Y-57511496D01*
X123323779Y-57452970D01*
X123345142Y-57422568D01*
X123369920Y-57411309D01*
X123389542Y-57410001D01*
X123416144Y-57410368D01*
G36*
X122146144Y-57410368D02*
G01*
X122164177Y-57416227D01*
X122172637Y-57434716D01*
X122170522Y-57472972D01*
X122156827Y-57538135D01*
X122130549Y-57637341D01*
X122090685Y-57777728D01*
X122046134Y-57932112D01*
X122001096Y-58083817D01*
X121966218Y-58188945D01*
X121937937Y-58255670D01*
X121912693Y-58292165D01*
X121886923Y-58306605D01*
X121882620Y-58307399D01*
X121856875Y-58305029D01*
X121833072Y-58284299D01*
X121807106Y-58237063D01*
X121774876Y-58155175D01*
X121732278Y-58030489D01*
X121712044Y-57968732D01*
X121599067Y-57621667D01*
X121490928Y-57967390D01*
X121442693Y-58116281D01*
X121405226Y-58217852D01*
X121375173Y-58279434D01*
X121349179Y-58308355D01*
X121332727Y-58313112D01*
X121283150Y-58302643D01*
X121269542Y-58291880D01*
X121256367Y-58256445D01*
X121231742Y-58178505D01*
X121199081Y-58069957D01*
X121161796Y-57942698D01*
X121123300Y-57808626D01*
X121087003Y-57679638D01*
X121056320Y-57567631D01*
X121034662Y-57484504D01*
X121025442Y-57442153D01*
X121025333Y-57440421D01*
X121049256Y-57416763D01*
X121089444Y-57410001D01*
X121117964Y-57414612D01*
X121141253Y-57434503D01*
X121163389Y-57478757D01*
X121188451Y-57556456D01*
X121220518Y-57676685D01*
X121235173Y-57734556D01*
X121268202Y-57860692D01*
X121297732Y-57963943D01*
X121320531Y-58033628D01*
X121333340Y-58059066D01*
X121347288Y-58033664D01*
X121373103Y-57964502D01*
X121407124Y-57862085D01*
X121445690Y-57736920D01*
X121446407Y-57734510D01*
X121488957Y-57595411D01*
X121521300Y-57502152D01*
X121547646Y-57445998D01*
X121572200Y-57418217D01*
X121599171Y-57410073D01*
X121602738Y-57410001D01*
X121630525Y-57416445D01*
X121655240Y-57441668D01*
X121681159Y-57494502D01*
X121712556Y-57583779D01*
X121753708Y-57718333D01*
X121756422Y-57727501D01*
X121794922Y-57854102D01*
X121829308Y-57960574D01*
X121855703Y-58035326D01*
X121869801Y-58066356D01*
X121883312Y-58049011D01*
X121906112Y-57986235D01*
X121935137Y-57887672D01*
X121967320Y-57762967D01*
X121970732Y-57748856D01*
X122005519Y-57607131D01*
X122031887Y-57511496D01*
X122053779Y-57452970D01*
X122075142Y-57422568D01*
X122099920Y-57411309D01*
X122119542Y-57410001D01*
X122146144Y-57410368D01*
G37*
X122146144Y-57410368D02*
X122164177Y-57416227D01*
X122172637Y-57434716D01*
X122170522Y-57472972D01*
X122156827Y-57538135D01*
X122130549Y-57637341D01*
X122090685Y-57777728D01*
X122046134Y-57932112D01*
X122001096Y-58083817D01*
X121966218Y-58188945D01*
X121937937Y-58255670D01*
X121912693Y-58292165D01*
X121886923Y-58306605D01*
X121882620Y-58307399D01*
X121856875Y-58305029D01*
X121833072Y-58284299D01*
X121807106Y-58237063D01*
X121774876Y-58155175D01*
X121732278Y-58030489D01*
X121712044Y-57968732D01*
X121599067Y-57621667D01*
X121490928Y-57967390D01*
X121442693Y-58116281D01*
X121405226Y-58217852D01*
X121375173Y-58279434D01*
X121349179Y-58308355D01*
X121332727Y-58313112D01*
X121283150Y-58302643D01*
X121269542Y-58291880D01*
X121256367Y-58256445D01*
X121231742Y-58178505D01*
X121199081Y-58069957D01*
X121161796Y-57942698D01*
X121123300Y-57808626D01*
X121087003Y-57679638D01*
X121056320Y-57567631D01*
X121034662Y-57484504D01*
X121025442Y-57442153D01*
X121025333Y-57440421D01*
X121049256Y-57416763D01*
X121089444Y-57410001D01*
X121117964Y-57414612D01*
X121141253Y-57434503D01*
X121163389Y-57478757D01*
X121188451Y-57556456D01*
X121220518Y-57676685D01*
X121235173Y-57734556D01*
X121268202Y-57860692D01*
X121297732Y-57963943D01*
X121320531Y-58033628D01*
X121333340Y-58059066D01*
X121347288Y-58033664D01*
X121373103Y-57964502D01*
X121407124Y-57862085D01*
X121445690Y-57736920D01*
X121446407Y-57734510D01*
X121488957Y-57595411D01*
X121521300Y-57502152D01*
X121547646Y-57445998D01*
X121572200Y-57418217D01*
X121599171Y-57410073D01*
X121602738Y-57410001D01*
X121630525Y-57416445D01*
X121655240Y-57441668D01*
X121681159Y-57494502D01*
X121712556Y-57583779D01*
X121753708Y-57718333D01*
X121756422Y-57727501D01*
X121794922Y-57854102D01*
X121829308Y-57960574D01*
X121855703Y-58035326D01*
X121869801Y-58066356D01*
X121883312Y-58049011D01*
X121906112Y-57986235D01*
X121935137Y-57887672D01*
X121967320Y-57762967D01*
X121970732Y-57748856D01*
X122005519Y-57607131D01*
X122031887Y-57511496D01*
X122053779Y-57452970D01*
X122075142Y-57422568D01*
X122099920Y-57411309D01*
X122119542Y-57410001D01*
X122146144Y-57410368D01*
G36*
X135700569Y-57435713D02*
G01*
X135821174Y-57499051D01*
X135919048Y-57604674D01*
X135966205Y-57716804D01*
X135985327Y-57855019D01*
X135976029Y-57996199D01*
X135937925Y-58117219D01*
X135927908Y-58135190D01*
X135832465Y-58245079D01*
X135712479Y-58312773D01*
X135580192Y-58334451D01*
X135447844Y-58306295D01*
X135420673Y-58293423D01*
X135311084Y-58216391D01*
X135241846Y-58116358D01*
X135206305Y-57981799D01*
X135199737Y-57910641D01*
X135199898Y-57827252D01*
X135339050Y-57827252D01*
X135339104Y-57950292D01*
X135368233Y-58063897D01*
X135427239Y-58153188D01*
X135471049Y-58185649D01*
X135549137Y-58220282D01*
X135614870Y-58222576D01*
X135683589Y-58201435D01*
X135756623Y-58145881D01*
X135809462Y-58051835D01*
X135838725Y-57934686D01*
X135841036Y-57809823D01*
X135813016Y-57692635D01*
X135800997Y-57666574D01*
X135730094Y-57582580D01*
X135633999Y-57538826D01*
X135529542Y-57541929D01*
X135505313Y-57550292D01*
X135422957Y-57612374D01*
X135367268Y-57709654D01*
X135339050Y-57827252D01*
X135199898Y-57827252D01*
X135199987Y-57781294D01*
X135220036Y-57684749D01*
X135240752Y-57637785D01*
X135330188Y-57520033D01*
X135444012Y-57446744D01*
X135571161Y-57418457D01*
X135700569Y-57435713D01*
G37*
X135700569Y-57435713D02*
X135821174Y-57499051D01*
X135919048Y-57604674D01*
X135966205Y-57716804D01*
X135985327Y-57855019D01*
X135976029Y-57996199D01*
X135937925Y-58117219D01*
X135927908Y-58135190D01*
X135832465Y-58245079D01*
X135712479Y-58312773D01*
X135580192Y-58334451D01*
X135447844Y-58306295D01*
X135420673Y-58293423D01*
X135311084Y-58216391D01*
X135241846Y-58116358D01*
X135206305Y-57981799D01*
X135199737Y-57910641D01*
X135199898Y-57827252D01*
X135339050Y-57827252D01*
X135339104Y-57950292D01*
X135368233Y-58063897D01*
X135427239Y-58153188D01*
X135471049Y-58185649D01*
X135549137Y-58220282D01*
X135614870Y-58222576D01*
X135683589Y-58201435D01*
X135756623Y-58145881D01*
X135809462Y-58051835D01*
X135838725Y-57934686D01*
X135841036Y-57809823D01*
X135813016Y-57692635D01*
X135800997Y-57666574D01*
X135730094Y-57582580D01*
X135633999Y-57538826D01*
X135529542Y-57541929D01*
X135505313Y-57550292D01*
X135422957Y-57612374D01*
X135367268Y-57709654D01*
X135339050Y-57827252D01*
X135199898Y-57827252D01*
X135199987Y-57781294D01*
X135220036Y-57684749D01*
X135240752Y-57637785D01*
X135330188Y-57520033D01*
X135444012Y-57446744D01*
X135571161Y-57418457D01*
X135700569Y-57435713D01*
G36*
X134772409Y-57424246D02*
G01*
X134881384Y-57464816D01*
X134973491Y-57532245D01*
X135034633Y-57616780D01*
X135051778Y-57690821D01*
X135031055Y-57717812D01*
X134984180Y-57720648D01*
X134934097Y-57703028D01*
X134903747Y-57668650D01*
X134903241Y-57666875D01*
X134858480Y-57595965D01*
X134778965Y-57547840D01*
X134685075Y-57533177D01*
X134655761Y-57537200D01*
X134558140Y-57584817D01*
X134494782Y-57676610D01*
X134466246Y-57811476D01*
X134466009Y-57911536D01*
X134484698Y-58046880D01*
X134526902Y-58137646D01*
X134598966Y-58193029D01*
X134676800Y-58216950D01*
X134742582Y-58221872D01*
X134797082Y-58198754D01*
X134855262Y-58147080D01*
X134917540Y-58097349D01*
X134981270Y-58064805D01*
X135031122Y-58055101D01*
X135051768Y-58073889D01*
X135051778Y-58074624D01*
X135030393Y-58138250D01*
X134977056Y-58211336D01*
X134907991Y-58273936D01*
X134872367Y-58295195D01*
X134751634Y-58335521D01*
X134641304Y-58329724D01*
X134545784Y-58291901D01*
X134436533Y-58216507D01*
X134367221Y-58116948D01*
X134331485Y-57982240D01*
X134324848Y-57910641D01*
X134335715Y-57736556D01*
X134388181Y-57596493D01*
X134479996Y-57493737D01*
X134608912Y-57431571D01*
X134660664Y-57420286D01*
X134772409Y-57424246D01*
G37*
X134772409Y-57424246D02*
X134881384Y-57464816D01*
X134973491Y-57532245D01*
X135034633Y-57616780D01*
X135051778Y-57690821D01*
X135031055Y-57717812D01*
X134984180Y-57720648D01*
X134934097Y-57703028D01*
X134903747Y-57668650D01*
X134903241Y-57666875D01*
X134858480Y-57595965D01*
X134778965Y-57547840D01*
X134685075Y-57533177D01*
X134655761Y-57537200D01*
X134558140Y-57584817D01*
X134494782Y-57676610D01*
X134466246Y-57811476D01*
X134466009Y-57911536D01*
X134484698Y-58046880D01*
X134526902Y-58137646D01*
X134598966Y-58193029D01*
X134676800Y-58216950D01*
X134742582Y-58221872D01*
X134797082Y-58198754D01*
X134855262Y-58147080D01*
X134917540Y-58097349D01*
X134981270Y-58064805D01*
X135031122Y-58055101D01*
X135051768Y-58073889D01*
X135051778Y-58074624D01*
X135030393Y-58138250D01*
X134977056Y-58211336D01*
X134907991Y-58273936D01*
X134872367Y-58295195D01*
X134751634Y-58335521D01*
X134641304Y-58329724D01*
X134545784Y-58291901D01*
X134436533Y-58216507D01*
X134367221Y-58116948D01*
X134331485Y-57982240D01*
X134324848Y-57910641D01*
X134335715Y-57736556D01*
X134388181Y-57596493D01*
X134479996Y-57493737D01*
X134608912Y-57431571D01*
X134660664Y-57420286D01*
X134772409Y-57424246D01*
G36*
X133445964Y-57424246D02*
G01*
X133554939Y-57464816D01*
X133647047Y-57532245D01*
X133708188Y-57616780D01*
X133725333Y-57690821D01*
X133704610Y-57717812D01*
X133657736Y-57720648D01*
X133607653Y-57703028D01*
X133577303Y-57668650D01*
X133576796Y-57666875D01*
X133532035Y-57595965D01*
X133452521Y-57547840D01*
X133358630Y-57533177D01*
X133329316Y-57537200D01*
X133231696Y-57584817D01*
X133168338Y-57676610D01*
X133139801Y-57811476D01*
X133139565Y-57911536D01*
X133158254Y-58046880D01*
X133200458Y-58137646D01*
X133272522Y-58193029D01*
X133350356Y-58216950D01*
X133416138Y-58221872D01*
X133470638Y-58198754D01*
X133528818Y-58147080D01*
X133591095Y-58097349D01*
X133654825Y-58064805D01*
X133704678Y-58055101D01*
X133725323Y-58073889D01*
X133725333Y-58074624D01*
X133703948Y-58138250D01*
X133650611Y-58211336D01*
X133581546Y-58273936D01*
X133545922Y-58295195D01*
X133425189Y-58335521D01*
X133314859Y-58329724D01*
X133219339Y-58291901D01*
X133110088Y-58216507D01*
X133040777Y-58116948D01*
X133005040Y-57982240D01*
X132998403Y-57910641D01*
X133009271Y-57736556D01*
X133061736Y-57596493D01*
X133153551Y-57493737D01*
X133282467Y-57431571D01*
X133334220Y-57420286D01*
X133445964Y-57424246D01*
G37*
X133445964Y-57424246D02*
X133554939Y-57464816D01*
X133647047Y-57532245D01*
X133708188Y-57616780D01*
X133725333Y-57690821D01*
X133704610Y-57717812D01*
X133657736Y-57720648D01*
X133607653Y-57703028D01*
X133577303Y-57668650D01*
X133576796Y-57666875D01*
X133532035Y-57595965D01*
X133452521Y-57547840D01*
X133358630Y-57533177D01*
X133329316Y-57537200D01*
X133231696Y-57584817D01*
X133168338Y-57676610D01*
X133139801Y-57811476D01*
X133139565Y-57911536D01*
X133158254Y-58046880D01*
X133200458Y-58137646D01*
X133272522Y-58193029D01*
X133350356Y-58216950D01*
X133416138Y-58221872D01*
X133470638Y-58198754D01*
X133528818Y-58147080D01*
X133591095Y-58097349D01*
X133654825Y-58064805D01*
X133704678Y-58055101D01*
X133725323Y-58073889D01*
X133725333Y-58074624D01*
X133703948Y-58138250D01*
X133650611Y-58211336D01*
X133581546Y-58273936D01*
X133545922Y-58295195D01*
X133425189Y-58335521D01*
X133314859Y-58329724D01*
X133219339Y-58291901D01*
X133110088Y-58216507D01*
X133040777Y-58116948D01*
X133005040Y-57982240D01*
X132998403Y-57910641D01*
X133009271Y-57736556D01*
X133061736Y-57596493D01*
X133153551Y-57493737D01*
X133282467Y-57431571D01*
X133334220Y-57420286D01*
X133445964Y-57424246D01*
G36*
X132147742Y-57424246D02*
G01*
X132256717Y-57464816D01*
X132348825Y-57532245D01*
X132409966Y-57616780D01*
X132427111Y-57690821D01*
X132406388Y-57717812D01*
X132359514Y-57720648D01*
X132309431Y-57703028D01*
X132279081Y-57668650D01*
X132278574Y-57666875D01*
X132233813Y-57595965D01*
X132154299Y-57547840D01*
X132060408Y-57533177D01*
X132031094Y-57537200D01*
X131933473Y-57584817D01*
X131870116Y-57676610D01*
X131841579Y-57811476D01*
X131841343Y-57911536D01*
X131860032Y-58046880D01*
X131902236Y-58137646D01*
X131974299Y-58193029D01*
X132052134Y-58216950D01*
X132117915Y-58221872D01*
X132172416Y-58198754D01*
X132230596Y-58147080D01*
X132292873Y-58097349D01*
X132356603Y-58064805D01*
X132406456Y-58055101D01*
X132427101Y-58073889D01*
X132427111Y-58074624D01*
X132405726Y-58138250D01*
X132352389Y-58211336D01*
X132283324Y-58273936D01*
X132247700Y-58295195D01*
X132126967Y-58335521D01*
X132016637Y-58329724D01*
X131921117Y-58291901D01*
X131811866Y-58216507D01*
X131742555Y-58116948D01*
X131706818Y-57982240D01*
X131700181Y-57910641D01*
X131711048Y-57736556D01*
X131763514Y-57596493D01*
X131855329Y-57493737D01*
X131984245Y-57431571D01*
X132035998Y-57420286D01*
X132147742Y-57424246D01*
G37*
X132147742Y-57424246D02*
X132256717Y-57464816D01*
X132348825Y-57532245D01*
X132409966Y-57616780D01*
X132427111Y-57690821D01*
X132406388Y-57717812D01*
X132359514Y-57720648D01*
X132309431Y-57703028D01*
X132279081Y-57668650D01*
X132278574Y-57666875D01*
X132233813Y-57595965D01*
X132154299Y-57547840D01*
X132060408Y-57533177D01*
X132031094Y-57537200D01*
X131933473Y-57584817D01*
X131870116Y-57676610D01*
X131841579Y-57811476D01*
X131841343Y-57911536D01*
X131860032Y-58046880D01*
X131902236Y-58137646D01*
X131974299Y-58193029D01*
X132052134Y-58216950D01*
X132117915Y-58221872D01*
X132172416Y-58198754D01*
X132230596Y-58147080D01*
X132292873Y-58097349D01*
X132356603Y-58064805D01*
X132406456Y-58055101D01*
X132427101Y-58073889D01*
X132427111Y-58074624D01*
X132405726Y-58138250D01*
X132352389Y-58211336D01*
X132283324Y-58273936D01*
X132247700Y-58295195D01*
X132126967Y-58335521D01*
X132016637Y-58329724D01*
X131921117Y-58291901D01*
X131811866Y-58216507D01*
X131742555Y-58116948D01*
X131706818Y-57982240D01*
X131700181Y-57910641D01*
X131711048Y-57736556D01*
X131763514Y-57596493D01*
X131855329Y-57493737D01*
X131984245Y-57431571D01*
X132035998Y-57420286D01*
X132147742Y-57424246D01*
G36*
X131241458Y-57435713D02*
G01*
X131362063Y-57499051D01*
X131459937Y-57604674D01*
X131507094Y-57716804D01*
X131526216Y-57855019D01*
X131516918Y-57996199D01*
X131478814Y-58117219D01*
X131468797Y-58135190D01*
X131373354Y-58245079D01*
X131253368Y-58312773D01*
X131121081Y-58334451D01*
X130988733Y-58306295D01*
X130961562Y-58293423D01*
X130851973Y-58216391D01*
X130782735Y-58116358D01*
X130747194Y-57981799D01*
X130740626Y-57910641D01*
X130740787Y-57827252D01*
X130879939Y-57827252D01*
X130879993Y-57950292D01*
X130909122Y-58063897D01*
X130968128Y-58153188D01*
X131011938Y-58185649D01*
X131090026Y-58220282D01*
X131155759Y-58222576D01*
X131224478Y-58201435D01*
X131297512Y-58145881D01*
X131350350Y-58051835D01*
X131379614Y-57934686D01*
X131381925Y-57809823D01*
X131353905Y-57692635D01*
X131341886Y-57666574D01*
X131270983Y-57582580D01*
X131174888Y-57538826D01*
X131070431Y-57541929D01*
X131046202Y-57550292D01*
X130963846Y-57612374D01*
X130908157Y-57709654D01*
X130879939Y-57827252D01*
X130740787Y-57827252D01*
X130740876Y-57781294D01*
X130760925Y-57684749D01*
X130781641Y-57637785D01*
X130871077Y-57520033D01*
X130984901Y-57446744D01*
X131112050Y-57418457D01*
X131241458Y-57435713D01*
G37*
X131241458Y-57435713D02*
X131362063Y-57499051D01*
X131459937Y-57604674D01*
X131507094Y-57716804D01*
X131526216Y-57855019D01*
X131516918Y-57996199D01*
X131478814Y-58117219D01*
X131468797Y-58135190D01*
X131373354Y-58245079D01*
X131253368Y-58312773D01*
X131121081Y-58334451D01*
X130988733Y-58306295D01*
X130961562Y-58293423D01*
X130851973Y-58216391D01*
X130782735Y-58116358D01*
X130747194Y-57981799D01*
X130740626Y-57910641D01*
X130740787Y-57827252D01*
X130879939Y-57827252D01*
X130879993Y-57950292D01*
X130909122Y-58063897D01*
X130968128Y-58153188D01*
X131011938Y-58185649D01*
X131090026Y-58220282D01*
X131155759Y-58222576D01*
X131224478Y-58201435D01*
X131297512Y-58145881D01*
X131350350Y-58051835D01*
X131379614Y-57934686D01*
X131381925Y-57809823D01*
X131353905Y-57692635D01*
X131341886Y-57666574D01*
X131270983Y-57582580D01*
X131174888Y-57538826D01*
X131070431Y-57541929D01*
X131046202Y-57550292D01*
X130963846Y-57612374D01*
X130908157Y-57709654D01*
X130879939Y-57827252D01*
X130740787Y-57827252D01*
X130740876Y-57781294D01*
X130760925Y-57684749D01*
X130781641Y-57637785D01*
X130871077Y-57520033D01*
X130984901Y-57446744D01*
X131112050Y-57418457D01*
X131241458Y-57435713D01*
G36*
X129929137Y-57428906D02*
G01*
X129970931Y-57444584D01*
X130066527Y-57523969D01*
X130135968Y-57638339D01*
X130168288Y-57768318D01*
X130169333Y-57795174D01*
X130169333Y-57918001D01*
X129873000Y-57918001D01*
X129730957Y-57919464D01*
X129638506Y-57926831D01*
X129588816Y-57944562D01*
X129575053Y-57977122D01*
X129590384Y-58028972D01*
X129617669Y-58084760D01*
X129688950Y-58167266D01*
X129787752Y-58211754D01*
X129897659Y-58215644D01*
X130002261Y-58176358D01*
X130036156Y-58150522D01*
X130078678Y-58120546D01*
X130112298Y-58132234D01*
X130130288Y-58149083D01*
X130154332Y-58181503D01*
X130143127Y-58210588D01*
X130090274Y-58252674D01*
X130089480Y-58253240D01*
X129965900Y-58312211D01*
X129828670Y-58331530D01*
X129698860Y-58309207D01*
X129663339Y-58293477D01*
X129553737Y-58216359D01*
X129484454Y-58116213D01*
X129448829Y-57981507D01*
X129442231Y-57910641D01*
X129448756Y-57795212D01*
X129576667Y-57795212D01*
X129602661Y-57799810D01*
X129671740Y-57803272D01*
X129770544Y-57805013D01*
X129802444Y-57805112D01*
X129914530Y-57804192D01*
X129981660Y-57799252D01*
X130015318Y-57787023D01*
X130026987Y-57764236D01*
X130028222Y-57740836D01*
X130006219Y-57644415D01*
X129948970Y-57578472D01*
X129869615Y-57544424D01*
X129781295Y-57543685D01*
X129697150Y-57577670D01*
X129630322Y-57647795D01*
X129607948Y-57695577D01*
X129586749Y-57759025D01*
X129576777Y-57794061D01*
X129576667Y-57795212D01*
X129448756Y-57795212D01*
X129451959Y-57738554D01*
X129504161Y-57601098D01*
X129600611Y-57493797D01*
X129610195Y-57486453D01*
X129706471Y-57440051D01*
X129821373Y-57419872D01*
X129929137Y-57428906D01*
G37*
X129929137Y-57428906D02*
X129970931Y-57444584D01*
X130066527Y-57523969D01*
X130135968Y-57638339D01*
X130168288Y-57768318D01*
X130169333Y-57795174D01*
X130169333Y-57918001D01*
X129873000Y-57918001D01*
X129730957Y-57919464D01*
X129638506Y-57926831D01*
X129588816Y-57944562D01*
X129575053Y-57977122D01*
X129590384Y-58028972D01*
X129617669Y-58084760D01*
X129688950Y-58167266D01*
X129787752Y-58211754D01*
X129897659Y-58215644D01*
X130002261Y-58176358D01*
X130036156Y-58150522D01*
X130078678Y-58120546D01*
X130112298Y-58132234D01*
X130130288Y-58149083D01*
X130154332Y-58181503D01*
X130143127Y-58210588D01*
X130090274Y-58252674D01*
X130089480Y-58253240D01*
X129965900Y-58312211D01*
X129828670Y-58331530D01*
X129698860Y-58309207D01*
X129663339Y-58293477D01*
X129553737Y-58216359D01*
X129484454Y-58116213D01*
X129448829Y-57981507D01*
X129442231Y-57910641D01*
X129448756Y-57795212D01*
X129576667Y-57795212D01*
X129602661Y-57799810D01*
X129671740Y-57803272D01*
X129770544Y-57805013D01*
X129802444Y-57805112D01*
X129914530Y-57804192D01*
X129981660Y-57799252D01*
X130015318Y-57787023D01*
X130026987Y-57764236D01*
X130028222Y-57740836D01*
X130006219Y-57644415D01*
X129948970Y-57578472D01*
X129869615Y-57544424D01*
X129781295Y-57543685D01*
X129697150Y-57577670D01*
X129630322Y-57647795D01*
X129607948Y-57695577D01*
X129586749Y-57759025D01*
X129576777Y-57794061D01*
X129576667Y-57795212D01*
X129448756Y-57795212D01*
X129451959Y-57738554D01*
X129504161Y-57601098D01*
X129600611Y-57493797D01*
X129610195Y-57486453D01*
X129706471Y-57440051D01*
X129821373Y-57419872D01*
X129929137Y-57428906D01*
G36*
X128814667Y-57678112D02*
G01*
X128814453Y-57883147D01*
X128813423Y-58038584D01*
X128810995Y-58151271D01*
X128806584Y-58228054D01*
X128799607Y-58275780D01*
X128789482Y-58301296D01*
X128775624Y-58311448D01*
X128760574Y-58313112D01*
X128710257Y-58297777D01*
X128695185Y-58279222D01*
X128671939Y-58263258D01*
X128616388Y-58278280D01*
X128582734Y-58293333D01*
X128479542Y-58331945D01*
X128391420Y-58334414D01*
X128290691Y-58301458D01*
X128289489Y-58300936D01*
X128197783Y-58232665D01*
X128133162Y-58127929D01*
X128095608Y-57999398D01*
X128085916Y-57870550D01*
X128222000Y-57870550D01*
X128240271Y-58007072D01*
X128289849Y-58113640D01*
X128362882Y-58184795D01*
X128451519Y-58215077D01*
X128547907Y-58199027D01*
X128624167Y-58150177D01*
X128649983Y-58115667D01*
X128665263Y-58059566D01*
X128672302Y-57969119D01*
X128673555Y-57875667D01*
X128671058Y-57752896D01*
X128662034Y-57673691D01*
X128644187Y-57625331D01*
X128624167Y-57602109D01*
X128525735Y-57546313D01*
X128429009Y-57541086D01*
X128342224Y-57580931D01*
X128273614Y-57660350D01*
X128231415Y-57773847D01*
X128222000Y-57870550D01*
X128085916Y-57870550D01*
X128085102Y-57859741D01*
X128101625Y-57721626D01*
X128145158Y-57597722D01*
X128215683Y-57500699D01*
X128290745Y-57451272D01*
X128394767Y-57417003D01*
X128478431Y-57416628D01*
X128566597Y-57450257D01*
X128570948Y-57452508D01*
X128629684Y-57481567D01*
X128662016Y-57494614D01*
X128662670Y-57494667D01*
X128667726Y-57468673D01*
X128671532Y-57399595D01*
X128673446Y-57300791D01*
X128673555Y-57268890D01*
X128674307Y-57156913D01*
X128678962Y-57089864D01*
X128691119Y-57056226D01*
X128714376Y-57044482D01*
X128744111Y-57043112D01*
X128814667Y-57043112D01*
X128814667Y-57678112D01*
G37*
X128814667Y-57678112D02*
X128814453Y-57883147D01*
X128813423Y-58038584D01*
X128810995Y-58151271D01*
X128806584Y-58228054D01*
X128799607Y-58275780D01*
X128789482Y-58301296D01*
X128775624Y-58311448D01*
X128760574Y-58313112D01*
X128710257Y-58297777D01*
X128695185Y-58279222D01*
X128671939Y-58263258D01*
X128616388Y-58278280D01*
X128582734Y-58293333D01*
X128479542Y-58331945D01*
X128391420Y-58334414D01*
X128290691Y-58301458D01*
X128289489Y-58300936D01*
X128197783Y-58232665D01*
X128133162Y-58127929D01*
X128095608Y-57999398D01*
X128085916Y-57870550D01*
X128222000Y-57870550D01*
X128240271Y-58007072D01*
X128289849Y-58113640D01*
X128362882Y-58184795D01*
X128451519Y-58215077D01*
X128547907Y-58199027D01*
X128624167Y-58150177D01*
X128649983Y-58115667D01*
X128665263Y-58059566D01*
X128672302Y-57969119D01*
X128673555Y-57875667D01*
X128671058Y-57752896D01*
X128662034Y-57673691D01*
X128644187Y-57625331D01*
X128624167Y-57602109D01*
X128525735Y-57546313D01*
X128429009Y-57541086D01*
X128342224Y-57580931D01*
X128273614Y-57660350D01*
X128231415Y-57773847D01*
X128222000Y-57870550D01*
X128085916Y-57870550D01*
X128085102Y-57859741D01*
X128101625Y-57721626D01*
X128145158Y-57597722D01*
X128215683Y-57500699D01*
X128290745Y-57451272D01*
X128394767Y-57417003D01*
X128478431Y-57416628D01*
X128566597Y-57450257D01*
X128570948Y-57452508D01*
X128629684Y-57481567D01*
X128662016Y-57494614D01*
X128662670Y-57494667D01*
X128667726Y-57468673D01*
X128671532Y-57399595D01*
X128673446Y-57300791D01*
X128673555Y-57268890D01*
X128674307Y-57156913D01*
X128678962Y-57089864D01*
X128691119Y-57056226D01*
X128714376Y-57044482D01*
X128744111Y-57043112D01*
X128814667Y-57043112D01*
X128814667Y-57678112D01*
G36*
X127064569Y-57435713D02*
G01*
X127185174Y-57499051D01*
X127283048Y-57604674D01*
X127330205Y-57716804D01*
X127349327Y-57855019D01*
X127340029Y-57996199D01*
X127301925Y-58117219D01*
X127291908Y-58135190D01*
X127196465Y-58245079D01*
X127076479Y-58312773D01*
X126944192Y-58334451D01*
X126811844Y-58306295D01*
X126784673Y-58293423D01*
X126675084Y-58216391D01*
X126605846Y-58116358D01*
X126570305Y-57981799D01*
X126563737Y-57910641D01*
X126563898Y-57827252D01*
X126703050Y-57827252D01*
X126703104Y-57950292D01*
X126732233Y-58063897D01*
X126791239Y-58153188D01*
X126835049Y-58185649D01*
X126913137Y-58220282D01*
X126978870Y-58222576D01*
X127047589Y-58201435D01*
X127120623Y-58145881D01*
X127173462Y-58051835D01*
X127202725Y-57934686D01*
X127205036Y-57809823D01*
X127177016Y-57692635D01*
X127164997Y-57666574D01*
X127094094Y-57582580D01*
X126997999Y-57538826D01*
X126893542Y-57541929D01*
X126869313Y-57550292D01*
X126786957Y-57612374D01*
X126731268Y-57709654D01*
X126703050Y-57827252D01*
X126563898Y-57827252D01*
X126563987Y-57781294D01*
X126584036Y-57684749D01*
X126604752Y-57637785D01*
X126694188Y-57520033D01*
X126808012Y-57446744D01*
X126935161Y-57418457D01*
X127064569Y-57435713D01*
G37*
X127064569Y-57435713D02*
X127185174Y-57499051D01*
X127283048Y-57604674D01*
X127330205Y-57716804D01*
X127349327Y-57855019D01*
X127340029Y-57996199D01*
X127301925Y-58117219D01*
X127291908Y-58135190D01*
X127196465Y-58245079D01*
X127076479Y-58312773D01*
X126944192Y-58334451D01*
X126811844Y-58306295D01*
X126784673Y-58293423D01*
X126675084Y-58216391D01*
X126605846Y-58116358D01*
X126570305Y-57981799D01*
X126563737Y-57910641D01*
X126563898Y-57827252D01*
X126703050Y-57827252D01*
X126703104Y-57950292D01*
X126732233Y-58063897D01*
X126791239Y-58153188D01*
X126835049Y-58185649D01*
X126913137Y-58220282D01*
X126978870Y-58222576D01*
X127047589Y-58201435D01*
X127120623Y-58145881D01*
X127173462Y-58051835D01*
X127202725Y-57934686D01*
X127205036Y-57809823D01*
X127177016Y-57692635D01*
X127164997Y-57666574D01*
X127094094Y-57582580D01*
X126997999Y-57538826D01*
X126893542Y-57541929D01*
X126869313Y-57550292D01*
X126786957Y-57612374D01*
X126731268Y-57709654D01*
X126703050Y-57827252D01*
X126563898Y-57827252D01*
X126563987Y-57781294D01*
X126584036Y-57684749D01*
X126604752Y-57637785D01*
X126694188Y-57520033D01*
X126808012Y-57446744D01*
X126935161Y-57418457D01*
X127064569Y-57435713D01*
G36*
X125936000Y-57678112D02*
G01*
X125935786Y-57883147D01*
X125934757Y-58038584D01*
X125932328Y-58151271D01*
X125927917Y-58228054D01*
X125920941Y-58275780D01*
X125910815Y-58301296D01*
X125896957Y-58311448D01*
X125881907Y-58313112D01*
X125831590Y-58297777D01*
X125816518Y-58279222D01*
X125793273Y-58263258D01*
X125737722Y-58278280D01*
X125704068Y-58293333D01*
X125600875Y-58331945D01*
X125512753Y-58334414D01*
X125412024Y-58301458D01*
X125410822Y-58300936D01*
X125319116Y-58232665D01*
X125254495Y-58127929D01*
X125216941Y-57999398D01*
X125207249Y-57870550D01*
X125343333Y-57870550D01*
X125361604Y-58007072D01*
X125411182Y-58113640D01*
X125484216Y-58184795D01*
X125572852Y-58215077D01*
X125669240Y-58199027D01*
X125745500Y-58150177D01*
X125771316Y-58115667D01*
X125786596Y-58059566D01*
X125793635Y-57969119D01*
X125794889Y-57875667D01*
X125792391Y-57752896D01*
X125783367Y-57673691D01*
X125765521Y-57625331D01*
X125745500Y-57602109D01*
X125647069Y-57546313D01*
X125550343Y-57541086D01*
X125463557Y-57580931D01*
X125394947Y-57660350D01*
X125352748Y-57773847D01*
X125343333Y-57870550D01*
X125207249Y-57870550D01*
X125206435Y-57859741D01*
X125222958Y-57721626D01*
X125266491Y-57597722D01*
X125337016Y-57500699D01*
X125412078Y-57451272D01*
X125516100Y-57417003D01*
X125599765Y-57416628D01*
X125687931Y-57450257D01*
X125692281Y-57452508D01*
X125751017Y-57481567D01*
X125783349Y-57494614D01*
X125784004Y-57494667D01*
X125789059Y-57468673D01*
X125792866Y-57399595D01*
X125794780Y-57300791D01*
X125794889Y-57268890D01*
X125795641Y-57156913D01*
X125800295Y-57089864D01*
X125812452Y-57056226D01*
X125835709Y-57044482D01*
X125865444Y-57043112D01*
X125936000Y-57043112D01*
X125936000Y-57678112D01*
G37*
X125936000Y-57678112D02*
X125935786Y-57883147D01*
X125934757Y-58038584D01*
X125932328Y-58151271D01*
X125927917Y-58228054D01*
X125920941Y-58275780D01*
X125910815Y-58301296D01*
X125896957Y-58311448D01*
X125881907Y-58313112D01*
X125831590Y-58297777D01*
X125816518Y-58279222D01*
X125793273Y-58263258D01*
X125737722Y-58278280D01*
X125704068Y-58293333D01*
X125600875Y-58331945D01*
X125512753Y-58334414D01*
X125412024Y-58301458D01*
X125410822Y-58300936D01*
X125319116Y-58232665D01*
X125254495Y-58127929D01*
X125216941Y-57999398D01*
X125207249Y-57870550D01*
X125343333Y-57870550D01*
X125361604Y-58007072D01*
X125411182Y-58113640D01*
X125484216Y-58184795D01*
X125572852Y-58215077D01*
X125669240Y-58199027D01*
X125745500Y-58150177D01*
X125771316Y-58115667D01*
X125786596Y-58059566D01*
X125793635Y-57969119D01*
X125794889Y-57875667D01*
X125792391Y-57752896D01*
X125783367Y-57673691D01*
X125765521Y-57625331D01*
X125745500Y-57602109D01*
X125647069Y-57546313D01*
X125550343Y-57541086D01*
X125463557Y-57580931D01*
X125394947Y-57660350D01*
X125352748Y-57773847D01*
X125343333Y-57870550D01*
X125207249Y-57870550D01*
X125206435Y-57859741D01*
X125222958Y-57721626D01*
X125266491Y-57597722D01*
X125337016Y-57500699D01*
X125412078Y-57451272D01*
X125516100Y-57417003D01*
X125599765Y-57416628D01*
X125687931Y-57450257D01*
X125692281Y-57452508D01*
X125751017Y-57481567D01*
X125783349Y-57494614D01*
X125784004Y-57494667D01*
X125789059Y-57468673D01*
X125792866Y-57399595D01*
X125794780Y-57300791D01*
X125794889Y-57268890D01*
X125795641Y-57156913D01*
X125800295Y-57089864D01*
X125812452Y-57056226D01*
X125835709Y-57044482D01*
X125865444Y-57043112D01*
X125936000Y-57043112D01*
X125936000Y-57678112D01*
G36*
X130530032Y-57967390D02*
G01*
X130525519Y-58141522D01*
X130519603Y-58298126D01*
X130512790Y-58427751D01*
X130505587Y-58520943D01*
X130498501Y-58568249D01*
X130497705Y-58570345D01*
X130452073Y-58620434D01*
X130378841Y-58658687D01*
X130299094Y-58678295D01*
X130233916Y-58672449D01*
X130216370Y-58661186D01*
X130199849Y-58624024D01*
X130199245Y-58579270D01*
X130212553Y-58551585D01*
X130225194Y-58552640D01*
X130269318Y-58554245D01*
X130309861Y-58539202D01*
X130329502Y-58525915D01*
X130344033Y-58504888D01*
X130354221Y-58468322D01*
X130360832Y-58408418D01*
X130364634Y-58317379D01*
X130366393Y-58187405D01*
X130366877Y-58010699D01*
X130366889Y-57959341D01*
X130366889Y-57410001D01*
X130541326Y-57410001D01*
X130530032Y-57967390D01*
G37*
X130530032Y-57967390D02*
X130525519Y-58141522D01*
X130519603Y-58298126D01*
X130512790Y-58427751D01*
X130505587Y-58520943D01*
X130498501Y-58568249D01*
X130497705Y-58570345D01*
X130452073Y-58620434D01*
X130378841Y-58658687D01*
X130299094Y-58678295D01*
X130233916Y-58672449D01*
X130216370Y-58661186D01*
X130199849Y-58624024D01*
X130199245Y-58579270D01*
X130212553Y-58551585D01*
X130225194Y-58552640D01*
X130269318Y-58554245D01*
X130309861Y-58539202D01*
X130329502Y-58525915D01*
X130344033Y-58504888D01*
X130354221Y-58468322D01*
X130360832Y-58408418D01*
X130364634Y-58317379D01*
X130366393Y-58187405D01*
X130366877Y-58010699D01*
X130366889Y-57959341D01*
X130366889Y-57410001D01*
X130541326Y-57410001D01*
X130530032Y-57967390D01*
G36*
X129231810Y-57967390D02*
G01*
X129227297Y-58141522D01*
X129221380Y-58298126D01*
X129214567Y-58427751D01*
X129207364Y-58520943D01*
X129200278Y-58568249D01*
X129199483Y-58570345D01*
X129153850Y-58620434D01*
X129080619Y-58658687D01*
X129000872Y-58678295D01*
X128935694Y-58672449D01*
X128918148Y-58661186D01*
X128901627Y-58624024D01*
X128901023Y-58579270D01*
X128914331Y-58551585D01*
X128926972Y-58552640D01*
X128971096Y-58554245D01*
X129011639Y-58539202D01*
X129031280Y-58525915D01*
X129045811Y-58504888D01*
X129055999Y-58468322D01*
X129062610Y-58408418D01*
X129066412Y-58317379D01*
X129068171Y-58187405D01*
X129068655Y-58010699D01*
X129068667Y-57959341D01*
X129068667Y-57410001D01*
X129243104Y-57410001D01*
X129231810Y-57967390D01*
G37*
X129231810Y-57967390D02*
X129227297Y-58141522D01*
X129221380Y-58298126D01*
X129214567Y-58427751D01*
X129207364Y-58520943D01*
X129200278Y-58568249D01*
X129199483Y-58570345D01*
X129153850Y-58620434D01*
X129080619Y-58658687D01*
X129000872Y-58678295D01*
X128935694Y-58672449D01*
X128918148Y-58661186D01*
X128901627Y-58624024D01*
X128901023Y-58579270D01*
X128914331Y-58551585D01*
X128926972Y-58552640D01*
X128971096Y-58554245D01*
X129011639Y-58539202D01*
X129031280Y-58525915D01*
X129045811Y-58504888D01*
X129055999Y-58468322D01*
X129062610Y-58408418D01*
X129066412Y-58317379D01*
X129068171Y-58187405D01*
X129068655Y-58010699D01*
X129068667Y-57959341D01*
X129068667Y-57410001D01*
X129243104Y-57410001D01*
X129231810Y-57967390D01*
G36*
X126353143Y-57967390D02*
G01*
X126348630Y-58141522D01*
X126342714Y-58298126D01*
X126335901Y-58427751D01*
X126328698Y-58520943D01*
X126321612Y-58568249D01*
X126320816Y-58570345D01*
X126275184Y-58620434D01*
X126201952Y-58658687D01*
X126122205Y-58678295D01*
X126057027Y-58672449D01*
X126039481Y-58661186D01*
X126022961Y-58624024D01*
X126022356Y-58579270D01*
X126035664Y-58551585D01*
X126048305Y-58552640D01*
X126092429Y-58554245D01*
X126132972Y-58539202D01*
X126152613Y-58525915D01*
X126167145Y-58504888D01*
X126177332Y-58468322D01*
X126183943Y-58408418D01*
X126187745Y-58317379D01*
X126189505Y-58187405D01*
X126189988Y-58010699D01*
X126190000Y-57959341D01*
X126190000Y-57410001D01*
X126364437Y-57410001D01*
X126353143Y-57967390D01*
G37*
X126353143Y-57967390D02*
X126348630Y-58141522D01*
X126342714Y-58298126D01*
X126335901Y-58427751D01*
X126328698Y-58520943D01*
X126321612Y-58568249D01*
X126320816Y-58570345D01*
X126275184Y-58620434D01*
X126201952Y-58658687D01*
X126122205Y-58678295D01*
X126057027Y-58672449D01*
X126039481Y-58661186D01*
X126022961Y-58624024D01*
X126022356Y-58579270D01*
X126035664Y-58551585D01*
X126048305Y-58552640D01*
X126092429Y-58554245D01*
X126132972Y-58539202D01*
X126152613Y-58525915D01*
X126167145Y-58504888D01*
X126177332Y-58468322D01*
X126183943Y-58408418D01*
X126187745Y-58317379D01*
X126189505Y-58187405D01*
X126189988Y-58010699D01*
X126190000Y-57959341D01*
X126190000Y-57410001D01*
X126364437Y-57410001D01*
X126353143Y-57967390D01*
D13*
G36*
X144050000Y-79500000D02*
G01*
X144250000Y-78300000D01*
X144650000Y-78500000D01*
X144050000Y-79500000D01*
G37*
X144050000Y-79500000D02*
X144250000Y-78300000D01*
X144650000Y-78500000D01*
X144050000Y-79500000D01*
G36*
X144250000Y-78500000D02*
G01*
X143850000Y-78300000D01*
X144450000Y-77100000D01*
X144250000Y-78500000D01*
G37*
X144250000Y-78500000D02*
X143850000Y-78300000D01*
X144450000Y-77100000D01*
X144250000Y-78500000D01*
D12*
G36*
X113892412Y-78802807D02*
G01*
X113998569Y-78868828D01*
X114057700Y-78998825D01*
X114080593Y-79208682D01*
X114082041Y-79305571D01*
X114079722Y-79493992D01*
X114067865Y-79601217D01*
X114039120Y-79649700D01*
X113986136Y-79661896D01*
X113965408Y-79661855D01*
X113819496Y-79672673D01*
X113719183Y-79690867D01*
X113556136Y-79681401D01*
X113472959Y-79638961D01*
X113373455Y-79522094D01*
X113361452Y-79394654D01*
X113366437Y-79385435D01*
X113528574Y-79385435D01*
X113535092Y-79476044D01*
X113610019Y-79537358D01*
X113719639Y-79557933D01*
X113830234Y-79526319D01*
X113864326Y-79499428D01*
X113926934Y-79400083D01*
X113893376Y-79331947D01*
X113768510Y-79302937D01*
X113743475Y-79302449D01*
X113590239Y-79327093D01*
X113528574Y-79385435D01*
X113366437Y-79385435D01*
X113425345Y-79276501D01*
X113553529Y-79187496D01*
X113734399Y-79147502D01*
X113760437Y-79146938D01*
X113879268Y-79135550D01*
X113918987Y-79092505D01*
X113916595Y-79056224D01*
X113875287Y-78994271D01*
X113767323Y-78965171D01*
X113678258Y-78959920D01*
X113533548Y-78948627D01*
X113436507Y-78927061D01*
X113421353Y-78918224D01*
X113418990Y-78867210D01*
X113496122Y-78821380D01*
X113628701Y-78791176D01*
X113728440Y-78784875D01*
X113892412Y-78802807D01*
G37*
X113892412Y-78802807D02*
X113998569Y-78868828D01*
X114057700Y-78998825D01*
X114080593Y-79208682D01*
X114082041Y-79305571D01*
X114079722Y-79493992D01*
X114067865Y-79601217D01*
X114039120Y-79649700D01*
X113986136Y-79661896D01*
X113965408Y-79661855D01*
X113819496Y-79672673D01*
X113719183Y-79690867D01*
X113556136Y-79681401D01*
X113472959Y-79638961D01*
X113373455Y-79522094D01*
X113361452Y-79394654D01*
X113366437Y-79385435D01*
X113528574Y-79385435D01*
X113535092Y-79476044D01*
X113610019Y-79537358D01*
X113719639Y-79557933D01*
X113830234Y-79526319D01*
X113864326Y-79499428D01*
X113926934Y-79400083D01*
X113893376Y-79331947D01*
X113768510Y-79302937D01*
X113743475Y-79302449D01*
X113590239Y-79327093D01*
X113528574Y-79385435D01*
X113366437Y-79385435D01*
X113425345Y-79276501D01*
X113553529Y-79187496D01*
X113734399Y-79147502D01*
X113760437Y-79146938D01*
X113879268Y-79135550D01*
X113918987Y-79092505D01*
X113916595Y-79056224D01*
X113875287Y-78994271D01*
X113767323Y-78965171D01*
X113678258Y-78959920D01*
X113533548Y-78948627D01*
X113436507Y-78927061D01*
X113421353Y-78918224D01*
X113418990Y-78867210D01*
X113496122Y-78821380D01*
X113628701Y-78791176D01*
X113728440Y-78784875D01*
X113892412Y-78802807D01*
G36*
X115592924Y-78436827D02*
G01*
X115615482Y-78494215D01*
X115629044Y-78609252D01*
X115635597Y-78797806D01*
X115637143Y-79042684D01*
X115636434Y-79304611D01*
X115632148Y-79480030D01*
X115621042Y-79586108D01*
X115599873Y-79640010D01*
X115565399Y-79658903D01*
X115520510Y-79660167D01*
X115373111Y-79672475D01*
X115297229Y-79690101D01*
X115161644Y-79681216D01*
X115069518Y-79625981D01*
X114997242Y-79549187D01*
X114960601Y-79447287D01*
X114948793Y-79285404D01*
X114948454Y-79235046D01*
X114949814Y-79214427D01*
X115118775Y-79214427D01*
X115127807Y-79385997D01*
X115164884Y-79475478D01*
X115244976Y-79503624D01*
X115324182Y-79499216D01*
X115406468Y-79478489D01*
X115444794Y-79421826D01*
X115455460Y-79299122D01*
X115455714Y-79256261D01*
X115429497Y-79069773D01*
X115355470Y-78963103D01*
X115240572Y-78944524D01*
X115203576Y-78955633D01*
X115144095Y-79017928D01*
X115120004Y-79156312D01*
X115118775Y-79214427D01*
X114949814Y-79214427D01*
X114963447Y-79007887D01*
X115015124Y-78867928D01*
X115113531Y-78802176D01*
X115268716Y-78797638D01*
X115285094Y-78799691D01*
X115481632Y-78826053D01*
X115481632Y-78623638D01*
X115495110Y-78481328D01*
X115539519Y-78424116D01*
X115559387Y-78421224D01*
X115592924Y-78436827D01*
G37*
X115592924Y-78436827D02*
X115615482Y-78494215D01*
X115629044Y-78609252D01*
X115635597Y-78797806D01*
X115637143Y-79042684D01*
X115636434Y-79304611D01*
X115632148Y-79480030D01*
X115621042Y-79586108D01*
X115599873Y-79640010D01*
X115565399Y-79658903D01*
X115520510Y-79660167D01*
X115373111Y-79672475D01*
X115297229Y-79690101D01*
X115161644Y-79681216D01*
X115069518Y-79625981D01*
X114997242Y-79549187D01*
X114960601Y-79447287D01*
X114948793Y-79285404D01*
X114948454Y-79235046D01*
X114949814Y-79214427D01*
X115118775Y-79214427D01*
X115127807Y-79385997D01*
X115164884Y-79475478D01*
X115244976Y-79503624D01*
X115324182Y-79499216D01*
X115406468Y-79478489D01*
X115444794Y-79421826D01*
X115455460Y-79299122D01*
X115455714Y-79256261D01*
X115429497Y-79069773D01*
X115355470Y-78963103D01*
X115240572Y-78944524D01*
X115203576Y-78955633D01*
X115144095Y-79017928D01*
X115120004Y-79156312D01*
X115118775Y-79214427D01*
X114949814Y-79214427D01*
X114963447Y-79007887D01*
X115015124Y-78867928D01*
X115113531Y-78802176D01*
X115268716Y-78797638D01*
X115285094Y-78799691D01*
X115481632Y-78826053D01*
X115481632Y-78623638D01*
X115495110Y-78481328D01*
X115539519Y-78424116D01*
X115559387Y-78421224D01*
X115592924Y-78436827D01*
G36*
X117721982Y-78832517D02*
G01*
X117783466Y-78928228D01*
X117809832Y-79097344D01*
X117814285Y-79282297D01*
X117812283Y-79478022D01*
X117801809Y-79591789D01*
X117776166Y-79645301D01*
X117728656Y-79660257D01*
X117697653Y-79660167D01*
X117552034Y-79669892D01*
X117477347Y-79684634D01*
X117346959Y-79687969D01*
X117257041Y-79664944D01*
X117167407Y-79610120D01*
X117140408Y-79567542D01*
X117123239Y-79478265D01*
X117110482Y-79440288D01*
X117115530Y-79385640D01*
X117275833Y-79385640D01*
X117282634Y-79459602D01*
X117336949Y-79506848D01*
X117440100Y-79554438D01*
X117530202Y-79546680D01*
X117576780Y-79530168D01*
X117645957Y-79458012D01*
X117658775Y-79400576D01*
X117635274Y-79331550D01*
X117547492Y-79304659D01*
X117482893Y-79302449D01*
X117347350Y-79326583D01*
X117275833Y-79385640D01*
X117115530Y-79385640D01*
X117119895Y-79338401D01*
X117205243Y-79241616D01*
X117340011Y-79170919D01*
X117481148Y-79146938D01*
X117605224Y-79136882D01*
X117650101Y-79098320D01*
X117648673Y-79056224D01*
X117605119Y-78992693D01*
X117492257Y-78965193D01*
X117424566Y-78962157D01*
X117270507Y-78941055D01*
X117209605Y-78895959D01*
X117240015Y-78844382D01*
X117359891Y-78803837D01*
X117442300Y-78793873D01*
X117612540Y-78793352D01*
X117721982Y-78832517D01*
G37*
X117721982Y-78832517D02*
X117783466Y-78928228D01*
X117809832Y-79097344D01*
X117814285Y-79282297D01*
X117812283Y-79478022D01*
X117801809Y-79591789D01*
X117776166Y-79645301D01*
X117728656Y-79660257D01*
X117697653Y-79660167D01*
X117552034Y-79669892D01*
X117477347Y-79684634D01*
X117346959Y-79687969D01*
X117257041Y-79664944D01*
X117167407Y-79610120D01*
X117140408Y-79567542D01*
X117123239Y-79478265D01*
X117110482Y-79440288D01*
X117115530Y-79385640D01*
X117275833Y-79385640D01*
X117282634Y-79459602D01*
X117336949Y-79506848D01*
X117440100Y-79554438D01*
X117530202Y-79546680D01*
X117576780Y-79530168D01*
X117645957Y-79458012D01*
X117658775Y-79400576D01*
X117635274Y-79331550D01*
X117547492Y-79304659D01*
X117482893Y-79302449D01*
X117347350Y-79326583D01*
X117275833Y-79385640D01*
X117115530Y-79385640D01*
X117119895Y-79338401D01*
X117205243Y-79241616D01*
X117340011Y-79170919D01*
X117481148Y-79146938D01*
X117605224Y-79136882D01*
X117650101Y-79098320D01*
X117648673Y-79056224D01*
X117605119Y-78992693D01*
X117492257Y-78965193D01*
X117424566Y-78962157D01*
X117270507Y-78941055D01*
X117209605Y-78895959D01*
X117240015Y-78844382D01*
X117359891Y-78803837D01*
X117442300Y-78793873D01*
X117612540Y-78793352D01*
X117721982Y-78832517D01*
G36*
X119237986Y-78830594D02*
G01*
X119363122Y-78951423D01*
X119420179Y-79119881D01*
X119421224Y-79146938D01*
X119416437Y-79235841D01*
X119385063Y-79282114D01*
X119301584Y-79299677D01*
X119140482Y-79302448D01*
X119136122Y-79302449D01*
X118954865Y-79310311D01*
X118869276Y-79338671D01*
X118872209Y-79394690D01*
X118954904Y-79484068D01*
X119054301Y-79547068D01*
X119159871Y-79531381D01*
X119186318Y-79519975D01*
X119300437Y-79489106D01*
X119347469Y-79516267D01*
X119348327Y-79590267D01*
X119274083Y-79650577D01*
X119153239Y-79687227D01*
X119014300Y-79690247D01*
X118919205Y-79666060D01*
X118789703Y-79561344D01*
X118712102Y-79394496D01*
X118693895Y-79197067D01*
X118729763Y-79052305D01*
X118873777Y-79052305D01*
X118876528Y-79111663D01*
X118976787Y-79143087D01*
X119058367Y-79146938D01*
X119206224Y-79133973D01*
X119255694Y-79095477D01*
X119253989Y-79085846D01*
X119177185Y-78986226D01*
X119060114Y-78946424D01*
X118970738Y-78969478D01*
X118873777Y-79052305D01*
X118729763Y-79052305D01*
X118742573Y-79000606D01*
X118755107Y-78975061D01*
X118848918Y-78845555D01*
X118973720Y-78791635D01*
X119071326Y-78784875D01*
X119237986Y-78830594D01*
G37*
X119237986Y-78830594D02*
X119363122Y-78951423D01*
X119420179Y-79119881D01*
X119421224Y-79146938D01*
X119416437Y-79235841D01*
X119385063Y-79282114D01*
X119301584Y-79299677D01*
X119140482Y-79302448D01*
X119136122Y-79302449D01*
X118954865Y-79310311D01*
X118869276Y-79338671D01*
X118872209Y-79394690D01*
X118954904Y-79484068D01*
X119054301Y-79547068D01*
X119159871Y-79531381D01*
X119186318Y-79519975D01*
X119300437Y-79489106D01*
X119347469Y-79516267D01*
X119348327Y-79590267D01*
X119274083Y-79650577D01*
X119153239Y-79687227D01*
X119014300Y-79690247D01*
X118919205Y-79666060D01*
X118789703Y-79561344D01*
X118712102Y-79394496D01*
X118693895Y-79197067D01*
X118729763Y-79052305D01*
X118873777Y-79052305D01*
X118876528Y-79111663D01*
X118976787Y-79143087D01*
X119058367Y-79146938D01*
X119206224Y-79133973D01*
X119255694Y-79095477D01*
X119253989Y-79085846D01*
X119177185Y-78986226D01*
X119060114Y-78946424D01*
X118970738Y-78969478D01*
X118873777Y-79052305D01*
X118729763Y-79052305D01*
X118742573Y-79000606D01*
X118755107Y-78975061D01*
X118848918Y-78845555D01*
X118973720Y-78791635D01*
X119071326Y-78784875D01*
X119237986Y-78830594D01*
G36*
X113059307Y-77356428D02*
G01*
X113151653Y-77459591D01*
X113195420Y-77645316D01*
X113200816Y-77775138D01*
X113175223Y-78002619D01*
X113095529Y-78143905D01*
X112957358Y-78203771D01*
X112813213Y-78198191D01*
X112630612Y-78168558D01*
X112630612Y-78829400D01*
X112813213Y-78799768D01*
X112985908Y-78796020D01*
X113102640Y-78857534D01*
X113171142Y-78994499D01*
X113199145Y-79217103D01*
X113200816Y-79310483D01*
X113196066Y-79505127D01*
X113179017Y-79615574D01*
X113145471Y-79660982D01*
X113123061Y-79665306D01*
X113077243Y-79640780D01*
X113053028Y-79554164D01*
X113045358Y-79385901D01*
X113045306Y-79364653D01*
X113029578Y-79141573D01*
X112978312Y-79005850D01*
X112885385Y-78945428D01*
X112829415Y-78939591D01*
X112724181Y-78987433D01*
X112657624Y-79128907D01*
X112631064Y-79360935D01*
X112630612Y-79402714D01*
X112622489Y-79566898D01*
X112594309Y-79647709D01*
X112552857Y-79665306D01*
X112527379Y-79653151D01*
X112508025Y-79608701D01*
X112493995Y-79519977D01*
X112484487Y-79374998D01*
X112478702Y-79161787D01*
X112475841Y-78868363D01*
X112475102Y-78501066D01*
X112475102Y-77759450D01*
X112638906Y-77759450D01*
X112665671Y-77911831D01*
X112672065Y-77926687D01*
X112759955Y-78030840D01*
X112870396Y-78053397D01*
X112970189Y-77991092D01*
X112991645Y-77958101D01*
X113040057Y-77799203D01*
X113030093Y-77644411D01*
X112970041Y-77542066D01*
X112854731Y-77494734D01*
X112750037Y-77529473D01*
X112672562Y-77624854D01*
X112638906Y-77759450D01*
X112475102Y-77759450D01*
X112475102Y-77336826D01*
X112617653Y-77334180D01*
X112783483Y-77330568D01*
X112912860Y-77327239D01*
X113059307Y-77356428D01*
G37*
X113059307Y-77356428D02*
X113151653Y-77459591D01*
X113195420Y-77645316D01*
X113200816Y-77775138D01*
X113175223Y-78002619D01*
X113095529Y-78143905D01*
X112957358Y-78203771D01*
X112813213Y-78198191D01*
X112630612Y-78168558D01*
X112630612Y-78829400D01*
X112813213Y-78799768D01*
X112985908Y-78796020D01*
X113102640Y-78857534D01*
X113171142Y-78994499D01*
X113199145Y-79217103D01*
X113200816Y-79310483D01*
X113196066Y-79505127D01*
X113179017Y-79615574D01*
X113145471Y-79660982D01*
X113123061Y-79665306D01*
X113077243Y-79640780D01*
X113053028Y-79554164D01*
X113045358Y-79385901D01*
X113045306Y-79364653D01*
X113029578Y-79141573D01*
X112978312Y-79005850D01*
X112885385Y-78945428D01*
X112829415Y-78939591D01*
X112724181Y-78987433D01*
X112657624Y-79128907D01*
X112631064Y-79360935D01*
X112630612Y-79402714D01*
X112622489Y-79566898D01*
X112594309Y-79647709D01*
X112552857Y-79665306D01*
X112527379Y-79653151D01*
X112508025Y-79608701D01*
X112493995Y-79519977D01*
X112484487Y-79374998D01*
X112478702Y-79161787D01*
X112475841Y-78868363D01*
X112475102Y-78501066D01*
X112475102Y-77759450D01*
X112638906Y-77759450D01*
X112665671Y-77911831D01*
X112672065Y-77926687D01*
X112759955Y-78030840D01*
X112870396Y-78053397D01*
X112970189Y-77991092D01*
X112991645Y-77958101D01*
X113040057Y-77799203D01*
X113030093Y-77644411D01*
X112970041Y-77542066D01*
X112854731Y-77494734D01*
X112750037Y-77529473D01*
X112672562Y-77624854D01*
X112638906Y-77759450D01*
X112475102Y-77759450D01*
X112475102Y-77336826D01*
X112617653Y-77334180D01*
X112783483Y-77330568D01*
X112912860Y-77327239D01*
X113059307Y-77356428D01*
G36*
X114743722Y-78794050D02*
G01*
X114827878Y-78811678D01*
X114852088Y-78850907D01*
X114849718Y-78874824D01*
X114786669Y-78945719D01*
X114677816Y-78963624D01*
X114522653Y-78965510D01*
X114507325Y-79315408D01*
X114495635Y-79502805D01*
X114476258Y-79608757D01*
X114441786Y-79655496D01*
X114390692Y-79665306D01*
X114341143Y-79656446D01*
X114310986Y-79616317D01*
X114295491Y-79524596D01*
X114289928Y-79360960D01*
X114289387Y-79230055D01*
X114289387Y-78794803D01*
X114577922Y-78791357D01*
X114743722Y-78794050D01*
G37*
X114743722Y-78794050D02*
X114827878Y-78811678D01*
X114852088Y-78850907D01*
X114849718Y-78874824D01*
X114786669Y-78945719D01*
X114677816Y-78963624D01*
X114522653Y-78965510D01*
X114507325Y-79315408D01*
X114495635Y-79502805D01*
X114476258Y-79608757D01*
X114441786Y-79655496D01*
X114390692Y-79665306D01*
X114341143Y-79656446D01*
X114310986Y-79616317D01*
X114295491Y-79524596D01*
X114289928Y-79360960D01*
X114289387Y-79230055D01*
X114289387Y-78794803D01*
X114577922Y-78791357D01*
X114743722Y-78794050D01*
G36*
X115955307Y-78859774D02*
G01*
X116021551Y-79012609D01*
X116050971Y-79117413D01*
X116093759Y-79266071D01*
X116133793Y-79355838D01*
X116157821Y-79368929D01*
X116193313Y-79300042D01*
X116245303Y-79166230D01*
X116282896Y-79056224D01*
X116342604Y-78906405D01*
X116403280Y-78807561D01*
X116437947Y-78784081D01*
X116486373Y-78830354D01*
X116544498Y-78951879D01*
X116591973Y-79095102D01*
X116640342Y-79256744D01*
X116679754Y-79369204D01*
X116699796Y-79406122D01*
X116723276Y-79360512D01*
X116764065Y-79241628D01*
X116807618Y-79095102D01*
X116868459Y-78917193D01*
X116928773Y-78808570D01*
X116965810Y-78784081D01*
X117014528Y-78798173D01*
X117031204Y-78851190D01*
X117014198Y-78959245D01*
X116961868Y-79138452D01*
X116915341Y-79279392D01*
X116828579Y-79504175D01*
X116751835Y-79627311D01*
X116681241Y-79649892D01*
X116612931Y-79573010D01*
X116543037Y-79397757D01*
X116539182Y-79385642D01*
X116485090Y-79236658D01*
X116436924Y-79142499D01*
X116410724Y-79123474D01*
X116376976Y-79183425D01*
X116332639Y-79310815D01*
X116305981Y-79406239D01*
X116245065Y-79588626D01*
X116180442Y-79670598D01*
X116110629Y-79651498D01*
X116034140Y-79530673D01*
X115949492Y-79307468D01*
X115928060Y-79239450D01*
X115871535Y-79045026D01*
X115832627Y-78891839D01*
X115817202Y-78803900D01*
X115818858Y-78792434D01*
X115884441Y-78781760D01*
X115955307Y-78859774D01*
G37*
X115955307Y-78859774D02*
X116021551Y-79012609D01*
X116050971Y-79117413D01*
X116093759Y-79266071D01*
X116133793Y-79355838D01*
X116157821Y-79368929D01*
X116193313Y-79300042D01*
X116245303Y-79166230D01*
X116282896Y-79056224D01*
X116342604Y-78906405D01*
X116403280Y-78807561D01*
X116437947Y-78784081D01*
X116486373Y-78830354D01*
X116544498Y-78951879D01*
X116591973Y-79095102D01*
X116640342Y-79256744D01*
X116679754Y-79369204D01*
X116699796Y-79406122D01*
X116723276Y-79360512D01*
X116764065Y-79241628D01*
X116807618Y-79095102D01*
X116868459Y-78917193D01*
X116928773Y-78808570D01*
X116965810Y-78784081D01*
X117014528Y-78798173D01*
X117031204Y-78851190D01*
X117014198Y-78959245D01*
X116961868Y-79138452D01*
X116915341Y-79279392D01*
X116828579Y-79504175D01*
X116751835Y-79627311D01*
X116681241Y-79649892D01*
X116612931Y-79573010D01*
X116543037Y-79397757D01*
X116539182Y-79385642D01*
X116485090Y-79236658D01*
X116436924Y-79142499D01*
X116410724Y-79123474D01*
X116376976Y-79183425D01*
X116332639Y-79310815D01*
X116305981Y-79406239D01*
X116245065Y-79588626D01*
X116180442Y-79670598D01*
X116110629Y-79651498D01*
X116034140Y-79530673D01*
X115949492Y-79307468D01*
X115928060Y-79239450D01*
X115871535Y-79045026D01*
X115832627Y-78891839D01*
X115817202Y-78803900D01*
X115818858Y-78792434D01*
X115884441Y-78781760D01*
X115955307Y-78859774D01*
G36*
X118537273Y-78797617D02*
G01*
X118621014Y-78819421D01*
X118630454Y-78850434D01*
X118568450Y-78905801D01*
X118484103Y-78931599D01*
X118350799Y-78968202D01*
X118272536Y-79045380D01*
X118236349Y-79184936D01*
X118228979Y-79360632D01*
X118222785Y-79539132D01*
X118200876Y-79634062D01*
X118158265Y-79664970D01*
X118151224Y-79665306D01*
X118112000Y-79646251D01*
X118088153Y-79576964D01*
X118076406Y-79439261D01*
X118073469Y-79233852D01*
X118073469Y-78802398D01*
X118362372Y-78794797D01*
X118537273Y-78797617D01*
G37*
X118537273Y-78797617D02*
X118621014Y-78819421D01*
X118630454Y-78850434D01*
X118568450Y-78905801D01*
X118484103Y-78931599D01*
X118350799Y-78968202D01*
X118272536Y-79045380D01*
X118236349Y-79184936D01*
X118228979Y-79360632D01*
X118222785Y-79539132D01*
X118200876Y-79634062D01*
X118158265Y-79664970D01*
X118151224Y-79665306D01*
X118112000Y-79646251D01*
X118088153Y-79576964D01*
X118076406Y-79439261D01*
X118073469Y-79233852D01*
X118073469Y-78802398D01*
X118362372Y-78794797D01*
X118537273Y-78797617D01*
G36*
X112052587Y-77337694D02*
G01*
X112188851Y-77434767D01*
X112272081Y-77593666D01*
X112297623Y-77784520D01*
X112260822Y-77977462D01*
X112175003Y-78123163D01*
X112055327Y-78192793D01*
X111894313Y-78210904D01*
X111741106Y-78176575D01*
X111675413Y-78132497D01*
X111581762Y-77978424D01*
X111555884Y-77829888D01*
X111721553Y-77829888D01*
X111747710Y-77924364D01*
X111808752Y-78026698D01*
X111905746Y-78051888D01*
X111943800Y-78048848D01*
X112028448Y-78031251D01*
X112070593Y-77985000D01*
X112084940Y-77881660D01*
X112086326Y-77773265D01*
X112082812Y-77619805D01*
X112061875Y-77543277D01*
X112007925Y-77516954D01*
X111935136Y-77514081D01*
X111802812Y-77556433D01*
X111728300Y-77668964D01*
X111721553Y-77829888D01*
X111555884Y-77829888D01*
X111548678Y-77788532D01*
X111572761Y-77596111D01*
X111650612Y-77434451D01*
X111755673Y-77346494D01*
X111902580Y-77307969D01*
X112052587Y-77337694D01*
G37*
X112052587Y-77337694D02*
X112188851Y-77434767D01*
X112272081Y-77593666D01*
X112297623Y-77784520D01*
X112260822Y-77977462D01*
X112175003Y-78123163D01*
X112055327Y-78192793D01*
X111894313Y-78210904D01*
X111741106Y-78176575D01*
X111675413Y-78132497D01*
X111581762Y-77978424D01*
X111555884Y-77829888D01*
X111721553Y-77829888D01*
X111747710Y-77924364D01*
X111808752Y-78026698D01*
X111905746Y-78051888D01*
X111943800Y-78048848D01*
X112028448Y-78031251D01*
X112070593Y-77985000D01*
X112084940Y-77881660D01*
X112086326Y-77773265D01*
X112082812Y-77619805D01*
X112061875Y-77543277D01*
X112007925Y-77516954D01*
X111935136Y-77514081D01*
X111802812Y-77556433D01*
X111728300Y-77668964D01*
X111721553Y-77829888D01*
X111555884Y-77829888D01*
X111548678Y-77788532D01*
X111572761Y-77596111D01*
X111650612Y-77434451D01*
X111755673Y-77346494D01*
X111902580Y-77307969D01*
X112052587Y-77337694D01*
G36*
X113900717Y-77362146D02*
G01*
X114020207Y-77473500D01*
X114079685Y-77634987D01*
X114082041Y-77677626D01*
X114082041Y-77851020D01*
X113796938Y-77851020D01*
X113640794Y-77858499D01*
X113537238Y-77877793D01*
X113511836Y-77896510D01*
X113557014Y-77981630D01*
X113667167Y-78036889D01*
X113804227Y-78043824D01*
X113812468Y-78042302D01*
X113947790Y-78032557D01*
X114032651Y-78057191D01*
X114048728Y-78104340D01*
X113988778Y-78156469D01*
X113806153Y-78209509D01*
X113617285Y-78194864D01*
X113466428Y-78116406D01*
X113460000Y-78110204D01*
X113381819Y-77968598D01*
X113354556Y-77779366D01*
X113371007Y-77647376D01*
X113511836Y-77647376D01*
X113557833Y-77677520D01*
X113672734Y-77694284D01*
X113719183Y-77695510D01*
X113849036Y-77684832D01*
X113921250Y-77658159D01*
X113926530Y-77647376D01*
X113889983Y-77571054D01*
X113809771Y-77486191D01*
X113730037Y-77437719D01*
X113719183Y-77436326D01*
X113644201Y-77473526D01*
X113560827Y-77555171D01*
X113513205Y-77636329D01*
X113511836Y-77647376D01*
X113371007Y-77647376D01*
X113378723Y-77585474D01*
X113451922Y-77433429D01*
X113589598Y-77331657D01*
X113748188Y-77311380D01*
X113900717Y-77362146D01*
G37*
X113900717Y-77362146D02*
X114020207Y-77473500D01*
X114079685Y-77634987D01*
X114082041Y-77677626D01*
X114082041Y-77851020D01*
X113796938Y-77851020D01*
X113640794Y-77858499D01*
X113537238Y-77877793D01*
X113511836Y-77896510D01*
X113557014Y-77981630D01*
X113667167Y-78036889D01*
X113804227Y-78043824D01*
X113812468Y-78042302D01*
X113947790Y-78032557D01*
X114032651Y-78057191D01*
X114048728Y-78104340D01*
X113988778Y-78156469D01*
X113806153Y-78209509D01*
X113617285Y-78194864D01*
X113466428Y-78116406D01*
X113460000Y-78110204D01*
X113381819Y-77968598D01*
X113354556Y-77779366D01*
X113371007Y-77647376D01*
X113511836Y-77647376D01*
X113557833Y-77677520D01*
X113672734Y-77694284D01*
X113719183Y-77695510D01*
X113849036Y-77684832D01*
X113921250Y-77658159D01*
X113926530Y-77647376D01*
X113889983Y-77571054D01*
X113809771Y-77486191D01*
X113730037Y-77437719D01*
X113719183Y-77436326D01*
X113644201Y-77473526D01*
X113560827Y-77555171D01*
X113513205Y-77636329D01*
X113511836Y-77647376D01*
X113371007Y-77647376D01*
X113378723Y-77585474D01*
X113451922Y-77433429D01*
X113589598Y-77331657D01*
X113748188Y-77311380D01*
X113900717Y-77362146D01*
G36*
X114859317Y-77380442D02*
G01*
X114884647Y-77404832D01*
X114957492Y-77492135D01*
X114997085Y-77591648D01*
X115012969Y-77737737D01*
X115015102Y-77874582D01*
X115011799Y-78057943D01*
X114997366Y-78160452D01*
X114965017Y-78204837D01*
X114913797Y-78213877D01*
X114859013Y-78201852D01*
X114826108Y-78150958D01*
X114807670Y-78038965D01*
X114797164Y-77863979D01*
X114781836Y-77514081D01*
X114470816Y-77514081D01*
X114455488Y-77863979D01*
X114440932Y-78061264D01*
X114415930Y-78171872D01*
X114376122Y-78212618D01*
X114364774Y-78213877D01*
X114326824Y-78193191D01*
X114303611Y-78119484D01*
X114292143Y-77975283D01*
X114289387Y-77773846D01*
X114290822Y-77560664D01*
X114298744Y-77431067D01*
X114318580Y-77364970D01*
X114355757Y-77342288D01*
X114406020Y-77342212D01*
X114553784Y-77332333D01*
X114638422Y-77312493D01*
X114747156Y-77307741D01*
X114859317Y-77380442D01*
G37*
X114859317Y-77380442D02*
X114884647Y-77404832D01*
X114957492Y-77492135D01*
X114997085Y-77591648D01*
X115012969Y-77737737D01*
X115015102Y-77874582D01*
X115011799Y-78057943D01*
X114997366Y-78160452D01*
X114965017Y-78204837D01*
X114913797Y-78213877D01*
X114859013Y-78201852D01*
X114826108Y-78150958D01*
X114807670Y-78038965D01*
X114797164Y-77863979D01*
X114781836Y-77514081D01*
X114470816Y-77514081D01*
X114455488Y-77863979D01*
X114440932Y-78061264D01*
X114415930Y-78171872D01*
X114376122Y-78212618D01*
X114364774Y-78213877D01*
X114326824Y-78193191D01*
X114303611Y-78119484D01*
X114292143Y-77975283D01*
X114289387Y-77773846D01*
X114290822Y-77560664D01*
X114298744Y-77431067D01*
X114318580Y-77364970D01*
X114355757Y-77342288D01*
X114406020Y-77342212D01*
X114553784Y-77332333D01*
X114638422Y-77312493D01*
X114747156Y-77307741D01*
X114859317Y-77380442D01*
G36*
X116013349Y-77315001D02*
G01*
X116136980Y-77346003D01*
X116225965Y-77395310D01*
X116257029Y-77454284D01*
X116211231Y-77511681D01*
X116133650Y-77513776D01*
X116027888Y-77479628D01*
X115915953Y-77445223D01*
X115834496Y-77478375D01*
X115803697Y-77506763D01*
X115745558Y-77579183D01*
X115765465Y-77625840D01*
X115792653Y-77644754D01*
X115904765Y-77684280D01*
X116000000Y-77695510D01*
X116168333Y-77734854D01*
X116266899Y-77834128D01*
X116283439Y-77972515D01*
X116233246Y-78091589D01*
X116153734Y-78174401D01*
X116035833Y-78209308D01*
X115930957Y-78213877D01*
X115769308Y-78198522D01*
X115640281Y-78160281D01*
X115616451Y-78146354D01*
X115554642Y-78086483D01*
X115578992Y-78034322D01*
X115601928Y-78014245D01*
X115682396Y-77979659D01*
X115713342Y-78004013D01*
X115783419Y-78040797D01*
X115909685Y-78058162D01*
X115925304Y-78058367D01*
X116049059Y-78046331D01*
X116098344Y-77999568D01*
X116103673Y-77954694D01*
X116076834Y-77876517D01*
X115979792Y-77851333D01*
X115959697Y-77851020D01*
X115782793Y-77816946D01*
X115659120Y-77729790D01*
X115597763Y-77612147D01*
X115607804Y-77486615D01*
X115698330Y-77375791D01*
X115755247Y-77342461D01*
X115878346Y-77310941D01*
X116013349Y-77315001D01*
G37*
X116013349Y-77315001D02*
X116136980Y-77346003D01*
X116225965Y-77395310D01*
X116257029Y-77454284D01*
X116211231Y-77511681D01*
X116133650Y-77513776D01*
X116027888Y-77479628D01*
X115915953Y-77445223D01*
X115834496Y-77478375D01*
X115803697Y-77506763D01*
X115745558Y-77579183D01*
X115765465Y-77625840D01*
X115792653Y-77644754D01*
X115904765Y-77684280D01*
X116000000Y-77695510D01*
X116168333Y-77734854D01*
X116266899Y-77834128D01*
X116283439Y-77972515D01*
X116233246Y-78091589D01*
X116153734Y-78174401D01*
X116035833Y-78209308D01*
X115930957Y-78213877D01*
X115769308Y-78198522D01*
X115640281Y-78160281D01*
X115616451Y-78146354D01*
X115554642Y-78086483D01*
X115578992Y-78034322D01*
X115601928Y-78014245D01*
X115682396Y-77979659D01*
X115713342Y-78004013D01*
X115783419Y-78040797D01*
X115909685Y-78058162D01*
X115925304Y-78058367D01*
X116049059Y-78046331D01*
X116098344Y-77999568D01*
X116103673Y-77954694D01*
X116076834Y-77876517D01*
X115979792Y-77851333D01*
X115959697Y-77851020D01*
X115782793Y-77816946D01*
X115659120Y-77729790D01*
X115597763Y-77612147D01*
X115607804Y-77486615D01*
X115698330Y-77375791D01*
X115755247Y-77342461D01*
X115878346Y-77310941D01*
X116013349Y-77315001D01*
G36*
X116919047Y-77337179D02*
G01*
X117037676Y-77395935D01*
X117104510Y-77477630D01*
X117133743Y-77610644D01*
X117139614Y-77778190D01*
X117124954Y-77973851D01*
X117074831Y-78096017D01*
X117045612Y-78128088D01*
X116919038Y-78191037D01*
X116756984Y-78212674D01*
X116615035Y-78187363D01*
X116590923Y-78174206D01*
X116489370Y-78051750D01*
X116429674Y-77871235D01*
X116426280Y-77809288D01*
X116580637Y-77809288D01*
X116619722Y-77940576D01*
X116699739Y-78029797D01*
X116802115Y-78058340D01*
X116908278Y-78007594D01*
X116930059Y-77984229D01*
X116966482Y-77886284D01*
X116976960Y-77740535D01*
X116975283Y-77712087D01*
X116956650Y-77582680D01*
X116912432Y-77526756D01*
X116816624Y-77514126D01*
X116804717Y-77514081D01*
X116680322Y-77537747D01*
X116611297Y-77627659D01*
X116601057Y-77654544D01*
X116580637Y-77809288D01*
X116426280Y-77809288D01*
X116418767Y-77672214D01*
X116463578Y-77494239D01*
X116469682Y-77482274D01*
X116587263Y-77362518D01*
X116754537Y-77312446D01*
X116919047Y-77337179D01*
G37*
X116919047Y-77337179D02*
X117037676Y-77395935D01*
X117104510Y-77477630D01*
X117133743Y-77610644D01*
X117139614Y-77778190D01*
X117124954Y-77973851D01*
X117074831Y-78096017D01*
X117045612Y-78128088D01*
X116919038Y-78191037D01*
X116756984Y-78212674D01*
X116615035Y-78187363D01*
X116590923Y-78174206D01*
X116489370Y-78051750D01*
X116429674Y-77871235D01*
X116426280Y-77809288D01*
X116580637Y-77809288D01*
X116619722Y-77940576D01*
X116699739Y-78029797D01*
X116802115Y-78058340D01*
X116908278Y-78007594D01*
X116930059Y-77984229D01*
X116966482Y-77886284D01*
X116976960Y-77740535D01*
X116975283Y-77712087D01*
X116956650Y-77582680D01*
X116912432Y-77526756D01*
X116816624Y-77514126D01*
X116804717Y-77514081D01*
X116680322Y-77537747D01*
X116611297Y-77627659D01*
X116601057Y-77654544D01*
X116580637Y-77809288D01*
X116426280Y-77809288D01*
X116418767Y-77672214D01*
X116463578Y-77494239D01*
X116469682Y-77482274D01*
X116587263Y-77362518D01*
X116754537Y-77312446D01*
X116919047Y-77337179D01*
G36*
X118034938Y-77351707D02*
G01*
X118058785Y-77420994D01*
X118070532Y-77558698D01*
X118073469Y-77764107D01*
X118073469Y-78195560D01*
X117794749Y-78202894D01*
X117603534Y-78196405D01*
X117484245Y-78159891D01*
X117431892Y-78117256D01*
X117384393Y-78019136D01*
X117354384Y-77868634D01*
X117342105Y-77695355D01*
X117347798Y-77528907D01*
X117371703Y-77398895D01*
X117414061Y-77334925D01*
X117425510Y-77332653D01*
X117471328Y-77357179D01*
X117495543Y-77443794D01*
X117503213Y-77612057D01*
X117503265Y-77633306D01*
X117518993Y-77856386D01*
X117570258Y-77992109D01*
X117663185Y-78052530D01*
X117719155Y-78058367D01*
X117824390Y-78010525D01*
X117890947Y-77869051D01*
X117917506Y-77637023D01*
X117917959Y-77595244D01*
X117926082Y-77431061D01*
X117954262Y-77350249D01*
X117995714Y-77332653D01*
X118034938Y-77351707D01*
G37*
X118034938Y-77351707D02*
X118058785Y-77420994D01*
X118070532Y-77558698D01*
X118073469Y-77764107D01*
X118073469Y-78195560D01*
X117794749Y-78202894D01*
X117603534Y-78196405D01*
X117484245Y-78159891D01*
X117431892Y-78117256D01*
X117384393Y-78019136D01*
X117354384Y-77868634D01*
X117342105Y-77695355D01*
X117347798Y-77528907D01*
X117371703Y-77398895D01*
X117414061Y-77334925D01*
X117425510Y-77332653D01*
X117471328Y-77357179D01*
X117495543Y-77443794D01*
X117503213Y-77612057D01*
X117503265Y-77633306D01*
X117518993Y-77856386D01*
X117570258Y-77992109D01*
X117663185Y-78052530D01*
X117719155Y-78058367D01*
X117824390Y-78010525D01*
X117890947Y-77869051D01*
X117917506Y-77637023D01*
X117917959Y-77595244D01*
X117926082Y-77431061D01*
X117954262Y-77350249D01*
X117995714Y-77332653D01*
X118034938Y-77351707D01*
G36*
X118791895Y-77315727D02*
G01*
X118868251Y-77351216D01*
X118853361Y-77407217D01*
X118845765Y-77416739D01*
X118749684Y-77473838D01*
X118665068Y-77488163D01*
X118546095Y-77526675D01*
X118471722Y-77646584D01*
X118438710Y-77854450D01*
X118436326Y-77951286D01*
X118428203Y-78115469D01*
X118400023Y-78196281D01*
X118358571Y-78213877D01*
X118319924Y-78195220D01*
X118296169Y-78127263D01*
X118284177Y-77992024D01*
X118280817Y-77771523D01*
X118280816Y-77767219D01*
X118282111Y-77552498D01*
X118289388Y-77422493D01*
X118307737Y-77358247D01*
X118342246Y-77340806D01*
X118392870Y-77349864D01*
X118522464Y-77353858D01*
X118591836Y-77332653D01*
X118711354Y-77307222D01*
X118791895Y-77315727D01*
G37*
X118791895Y-77315727D02*
X118868251Y-77351216D01*
X118853361Y-77407217D01*
X118845765Y-77416739D01*
X118749684Y-77473838D01*
X118665068Y-77488163D01*
X118546095Y-77526675D01*
X118471722Y-77646584D01*
X118438710Y-77854450D01*
X118436326Y-77951286D01*
X118428203Y-78115469D01*
X118400023Y-78196281D01*
X118358571Y-78213877D01*
X118319924Y-78195220D01*
X118296169Y-78127263D01*
X118284177Y-77992024D01*
X118280817Y-77771523D01*
X118280816Y-77767219D01*
X118282111Y-77552498D01*
X118289388Y-77422493D01*
X118307737Y-77358247D01*
X118342246Y-77340806D01*
X118392870Y-77349864D01*
X118522464Y-77353858D01*
X118591836Y-77332653D01*
X118711354Y-77307222D01*
X118791895Y-77315727D01*
G36*
X119461016Y-77345982D02*
G01*
X119561302Y-77416071D01*
X119562743Y-77471884D01*
X119469913Y-77506383D01*
X119351746Y-77514081D01*
X119209892Y-77523857D01*
X119134044Y-77566354D01*
X119089735Y-77654544D01*
X119071497Y-77835549D01*
X119102709Y-77933028D01*
X119154734Y-78021134D01*
X119225821Y-78051797D01*
X119355324Y-78040685D01*
X119368037Y-78038677D01*
X119514820Y-78030896D01*
X119596142Y-78056862D01*
X119598602Y-78106571D01*
X119529757Y-78159440D01*
X119336258Y-78215066D01*
X119151541Y-78184484D01*
X119010293Y-78077295D01*
X118921327Y-77901541D01*
X118906969Y-77718731D01*
X118955088Y-77548545D01*
X119053555Y-77410662D01*
X119190240Y-77324764D01*
X119353014Y-77310532D01*
X119461016Y-77345982D01*
G37*
X119461016Y-77345982D02*
X119561302Y-77416071D01*
X119562743Y-77471884D01*
X119469913Y-77506383D01*
X119351746Y-77514081D01*
X119209892Y-77523857D01*
X119134044Y-77566354D01*
X119089735Y-77654544D01*
X119071497Y-77835549D01*
X119102709Y-77933028D01*
X119154734Y-78021134D01*
X119225821Y-78051797D01*
X119355324Y-78040685D01*
X119368037Y-78038677D01*
X119514820Y-78030896D01*
X119596142Y-78056862D01*
X119598602Y-78106571D01*
X119529757Y-78159440D01*
X119336258Y-78215066D01*
X119151541Y-78184484D01*
X119010293Y-78077295D01*
X118921327Y-77901541D01*
X118906969Y-77718731D01*
X118955088Y-77548545D01*
X119053555Y-77410662D01*
X119190240Y-77324764D01*
X119353014Y-77310532D01*
X119461016Y-77345982D01*
G36*
X120259898Y-77344978D02*
G01*
X120374159Y-77467273D01*
X120440562Y-77660222D01*
X120471524Y-77851020D01*
X120175838Y-77851020D01*
X120008019Y-77855302D01*
X119921824Y-77872910D01*
X119895389Y-77910983D01*
X119898099Y-77941734D01*
X119943843Y-78006377D01*
X120061680Y-78035563D01*
X120122206Y-78039086D01*
X120290536Y-78046043D01*
X120373881Y-78058137D01*
X120390894Y-78083167D01*
X120360228Y-78128933D01*
X120354285Y-78136122D01*
X120243635Y-78198865D01*
X120086251Y-78213470D01*
X119926064Y-78182081D01*
X119809394Y-78109535D01*
X119733536Y-77950851D01*
X119714966Y-77764392D01*
X119747215Y-77573719D01*
X119891355Y-77573719D01*
X119899873Y-77644750D01*
X119993944Y-77689199D01*
X120069183Y-77695510D01*
X120204782Y-77677907D01*
X120250536Y-77622849D01*
X120250612Y-77619579D01*
X120207164Y-77527971D01*
X120105882Y-77477672D01*
X119990357Y-77488516D01*
X119977130Y-77495134D01*
X119891355Y-77573719D01*
X119747215Y-77573719D01*
X119750709Y-77553067D01*
X119843992Y-77402460D01*
X119973896Y-77315574D01*
X120119505Y-77295412D01*
X120259898Y-77344978D01*
G37*
X120259898Y-77344978D02*
X120374159Y-77467273D01*
X120440562Y-77660222D01*
X120471524Y-77851020D01*
X120175838Y-77851020D01*
X120008019Y-77855302D01*
X119921824Y-77872910D01*
X119895389Y-77910983D01*
X119898099Y-77941734D01*
X119943843Y-78006377D01*
X120061680Y-78035563D01*
X120122206Y-78039086D01*
X120290536Y-78046043D01*
X120373881Y-78058137D01*
X120390894Y-78083167D01*
X120360228Y-78128933D01*
X120354285Y-78136122D01*
X120243635Y-78198865D01*
X120086251Y-78213470D01*
X119926064Y-78182081D01*
X119809394Y-78109535D01*
X119733536Y-77950851D01*
X119714966Y-77764392D01*
X119747215Y-77573719D01*
X119891355Y-77573719D01*
X119899873Y-77644750D01*
X119993944Y-77689199D01*
X120069183Y-77695510D01*
X120204782Y-77677907D01*
X120250536Y-77622849D01*
X120250612Y-77619579D01*
X120207164Y-77527971D01*
X120105882Y-77477672D01*
X119990357Y-77488516D01*
X119977130Y-77495134D01*
X119891355Y-77573719D01*
X119747215Y-77573719D01*
X119750709Y-77553067D01*
X119843992Y-77402460D01*
X119973896Y-77315574D01*
X120119505Y-77295412D01*
X120259898Y-77344978D01*
G36*
X116512783Y-70606836D02*
G01*
X116551787Y-70809678D01*
X116588522Y-71008369D01*
X116601185Y-71079779D01*
X116626898Y-71188769D01*
X116673584Y-71265453D01*
X116764462Y-71331973D01*
X116922752Y-71410468D01*
X116971156Y-71432553D01*
X117306328Y-71584527D01*
X117685411Y-71322468D01*
X117858990Y-71205532D01*
X118001077Y-71115489D01*
X118089872Y-71065909D01*
X118106356Y-71060408D01*
X118162934Y-71095197D01*
X118267323Y-71185114D01*
X118397757Y-71308484D01*
X118532473Y-71443630D01*
X118649708Y-71568878D01*
X118727698Y-71662552D01*
X118747347Y-71698800D01*
X118719270Y-71759345D01*
X118644415Y-71881365D01*
X118536845Y-72042392D01*
X118492192Y-72106473D01*
X118237038Y-72468631D01*
X118384424Y-72814213D01*
X118445726Y-72959011D01*
X118497004Y-73059538D01*
X118557959Y-73127674D01*
X118648298Y-73175300D01*
X118787723Y-73214298D01*
X118995940Y-73256547D01*
X119175000Y-73290896D01*
X119473061Y-73348574D01*
X119473061Y-74266935D01*
X119200918Y-74320538D01*
X119001916Y-74358821D01*
X118810479Y-74394212D01*
X118740784Y-74406537D01*
X118639668Y-74430787D01*
X118569131Y-74476618D01*
X118509320Y-74567261D01*
X118440377Y-74725944D01*
X118416805Y-74785546D01*
X118349951Y-74960512D01*
X118301419Y-75096234D01*
X118280950Y-75165368D01*
X118280816Y-75167269D01*
X118308566Y-75223524D01*
X118382132Y-75341114D01*
X118486985Y-75497070D01*
X118514081Y-75536069D01*
X118624338Y-75699319D01*
X118706480Y-75831470D01*
X118745871Y-75908683D01*
X118747347Y-75915991D01*
X118712334Y-75972998D01*
X118621831Y-76077426D01*
X118497639Y-76207601D01*
X118361559Y-76341850D01*
X118235394Y-76458498D01*
X118140945Y-76535872D01*
X118104467Y-76555102D01*
X118044394Y-76526853D01*
X117923979Y-76451880D01*
X117766427Y-76344845D01*
X117722831Y-76313992D01*
X117384946Y-76072882D01*
X117210531Y-76166811D01*
X117094112Y-76222003D01*
X117022810Y-76241773D01*
X117015983Y-76239452D01*
X116985233Y-76180768D01*
X116925318Y-76046873D01*
X116844875Y-75858844D01*
X116752543Y-75637761D01*
X116656959Y-75404700D01*
X116566761Y-75180741D01*
X116490588Y-74986962D01*
X116437076Y-74844440D01*
X116414864Y-74774254D01*
X116414695Y-74772181D01*
X116452146Y-74708004D01*
X116546807Y-74612014D01*
X116601606Y-74565762D01*
X116786361Y-74365154D01*
X116919472Y-74115399D01*
X116980758Y-73856649D01*
X116982621Y-73807755D01*
X116934064Y-73530978D01*
X116801105Y-73275542D01*
X116602813Y-73060547D01*
X116358257Y-72905096D01*
X116086505Y-72828290D01*
X116000000Y-72823435D01*
X115723701Y-72872076D01*
X115468705Y-73005265D01*
X115254082Y-73203899D01*
X115098899Y-73448878D01*
X115022225Y-73721100D01*
X115017379Y-73807755D01*
X115062020Y-74063517D01*
X115182490Y-74318248D01*
X115358606Y-74531797D01*
X115398393Y-74565762D01*
X115510297Y-74666528D01*
X115577058Y-74748807D01*
X115585304Y-74772181D01*
X115566547Y-74832937D01*
X115515988Y-74968138D01*
X115442201Y-75156739D01*
X115353757Y-75377698D01*
X115259227Y-75609969D01*
X115167185Y-75832509D01*
X115086201Y-76024273D01*
X115024849Y-76164217D01*
X114991699Y-76231297D01*
X114990124Y-76233344D01*
X114939436Y-76223191D01*
X114831163Y-76179030D01*
X114797895Y-76163545D01*
X114619690Y-76078564D01*
X114278843Y-76316833D01*
X114113878Y-76428367D01*
X113979934Y-76511958D01*
X113900522Y-76553130D01*
X113891763Y-76555102D01*
X113836117Y-76520577D01*
X113729164Y-76428838D01*
X113591209Y-76297635D01*
X113549091Y-76255537D01*
X113411413Y-76111444D01*
X113307743Y-75993491D01*
X113255622Y-75921954D01*
X113252653Y-75912865D01*
X113280499Y-75852669D01*
X113354300Y-75731919D01*
X113459449Y-75574211D01*
X113485918Y-75536069D01*
X113595927Y-75374522D01*
X113677999Y-75246044D01*
X113717608Y-75173602D01*
X113719183Y-75167269D01*
X113701498Y-75104932D01*
X113654937Y-74973724D01*
X113589240Y-74800989D01*
X113583195Y-74785546D01*
X113508156Y-74603720D01*
X113447793Y-74496418D01*
X113382249Y-74440414D01*
X113291668Y-74412476D01*
X113259215Y-74406537D01*
X113093652Y-74376682D01*
X112890278Y-74338283D01*
X112799081Y-74320538D01*
X112526938Y-74266935D01*
X112526938Y-73655782D01*
X112733176Y-73655782D01*
X112734121Y-73792516D01*
X112734285Y-73828791D01*
X112734285Y-74158873D01*
X113084183Y-74223465D01*
X113273949Y-74262252D01*
X113429880Y-74300861D01*
X113515335Y-74329769D01*
X113572235Y-74396801D01*
X113647097Y-74533191D01*
X113727347Y-74709221D01*
X113800411Y-74895175D01*
X113853717Y-75061335D01*
X113874689Y-75177984D01*
X113874694Y-75179098D01*
X113847485Y-75268786D01*
X113775689Y-75414088D01*
X113674054Y-75585602D01*
X113659484Y-75608189D01*
X113444275Y-75938505D01*
X113644086Y-76143130D01*
X113763230Y-76256410D01*
X113857743Y-76330719D01*
X113894559Y-76347755D01*
X113959757Y-76321143D01*
X114085653Y-76250813D01*
X114246996Y-76151024D01*
X114274830Y-76133006D01*
X114447979Y-76024089D01*
X114562700Y-75966637D01*
X114645078Y-75952066D01*
X114721197Y-75971793D01*
X114739901Y-75979977D01*
X114848596Y-76011693D01*
X114911431Y-76000338D01*
X114944267Y-75938195D01*
X115006208Y-75800653D01*
X115088089Y-75608665D01*
X115172047Y-75404681D01*
X115396594Y-74850382D01*
X115183865Y-74619598D01*
X114987620Y-74339059D01*
X114880907Y-74032140D01*
X114863999Y-73716784D01*
X114937164Y-73410933D01*
X115100675Y-73132528D01*
X115160403Y-73064334D01*
X115417723Y-72858466D01*
X115701702Y-72740171D01*
X115996907Y-72703451D01*
X116287902Y-72742307D01*
X116559254Y-72850741D01*
X116795528Y-73022753D01*
X116981291Y-73252345D01*
X117101108Y-73533518D01*
X117139830Y-73833673D01*
X117094094Y-74144692D01*
X116953310Y-74436829D01*
X116820193Y-74609366D01*
X116604881Y-74853974D01*
X116828690Y-75406477D01*
X116920590Y-75629395D01*
X117000879Y-75816882D01*
X117060371Y-75947944D01*
X117088568Y-76000338D01*
X117156292Y-76011113D01*
X117260098Y-75979977D01*
X117338372Y-75953789D01*
X117417102Y-75959991D01*
X117522375Y-76007165D01*
X117680275Y-76103895D01*
X117725169Y-76133006D01*
X117889887Y-76236233D01*
X118023257Y-76312317D01*
X118100031Y-76347000D01*
X118105440Y-76347755D01*
X118167126Y-76313305D01*
X118272100Y-76224643D01*
X118355913Y-76143130D01*
X118555724Y-75938505D01*
X118340515Y-75608189D01*
X118236095Y-75435432D01*
X118159607Y-75285081D01*
X118125797Y-75186539D01*
X118125306Y-75179098D01*
X118145749Y-75063331D01*
X118198697Y-74897648D01*
X118271576Y-74711765D01*
X118351813Y-74535398D01*
X118426833Y-74398266D01*
X118484063Y-74330085D01*
X118484664Y-74329769D01*
X118575270Y-74299428D01*
X118733226Y-74260646D01*
X118915816Y-74223465D01*
X119265714Y-74158873D01*
X119265714Y-73828791D01*
X119267089Y-73680273D01*
X119259487Y-73581847D01*
X119225316Y-73519136D01*
X119146984Y-73477762D01*
X119006898Y-73443347D01*
X118787468Y-73401513D01*
X118729280Y-73390366D01*
X118426112Y-73331753D01*
X118249791Y-72944841D01*
X118167811Y-72758367D01*
X118106121Y-72605509D01*
X118075191Y-72512630D01*
X118073469Y-72500894D01*
X118101090Y-72434174D01*
X118174574Y-72306741D01*
X118279853Y-72142477D01*
X118317154Y-72087214D01*
X118560838Y-71730570D01*
X118328173Y-71497905D01*
X118095509Y-71265240D01*
X117760509Y-71499204D01*
X117586930Y-71611116D01*
X117432929Y-71694028D01*
X117327492Y-71732655D01*
X117315790Y-71733726D01*
X117194010Y-71711984D01*
X117019599Y-71656051D01*
X116831073Y-71581133D01*
X116666951Y-71502436D01*
X116570204Y-71439390D01*
X116523387Y-71356704D01*
X116470285Y-71202266D01*
X116421099Y-71006682D01*
X116413224Y-70968336D01*
X116333999Y-70567959D01*
X115666001Y-70567959D01*
X115586776Y-70968336D01*
X115539436Y-71168187D01*
X115486291Y-71332568D01*
X115437538Y-71430872D01*
X115429796Y-71439390D01*
X115322658Y-71508017D01*
X115155431Y-71586954D01*
X114966631Y-71660994D01*
X114794777Y-71714931D01*
X114684210Y-71733726D01*
X114590734Y-71704807D01*
X114443417Y-71628820D01*
X114271244Y-71521049D01*
X114239490Y-71499204D01*
X113904491Y-71265240D01*
X113439161Y-71730570D01*
X113682846Y-72087214D01*
X113795193Y-72258105D01*
X113880154Y-72399649D01*
X113923660Y-72487963D01*
X113926530Y-72500894D01*
X113906182Y-72572064D01*
X113852117Y-72710657D01*
X113774806Y-72890310D01*
X113750209Y-72944841D01*
X113573887Y-73331753D01*
X113270719Y-73390366D01*
X113032269Y-73435608D01*
X112876881Y-73470393D01*
X112786965Y-73509098D01*
X112744927Y-73566102D01*
X112733176Y-73655782D01*
X112526938Y-73655782D01*
X112526938Y-73348574D01*
X112825000Y-73290896D01*
X113087760Y-73240298D01*
X113269081Y-73200578D01*
X113388665Y-73159857D01*
X113466218Y-73106252D01*
X113521444Y-73027883D01*
X113574046Y-72912870D01*
X113615576Y-72814213D01*
X113762961Y-72468631D01*
X113507807Y-72106473D01*
X113391798Y-71936805D01*
X113303372Y-71797943D01*
X113256592Y-71712355D01*
X113252653Y-71698800D01*
X113287584Y-71642450D01*
X113377867Y-71538485D01*
X113501738Y-71408580D01*
X113637435Y-71274410D01*
X113763193Y-71157650D01*
X113857248Y-71079977D01*
X113893644Y-71060408D01*
X113952473Y-71088113D01*
X114073967Y-71162139D01*
X114236209Y-71268856D01*
X114311349Y-71320228D01*
X114687192Y-71580048D01*
X114967780Y-71466675D01*
X115162858Y-71384414D01*
X115282675Y-71318247D01*
X115349150Y-71248150D01*
X115384201Y-71154100D01*
X115400363Y-71071520D01*
X115430807Y-70902817D01*
X115469602Y-70697361D01*
X115487216Y-70606836D01*
X115540819Y-70334694D01*
X116459180Y-70334694D01*
X116512783Y-70606836D01*
G37*
X116512783Y-70606836D02*
X116551787Y-70809678D01*
X116588522Y-71008369D01*
X116601185Y-71079779D01*
X116626898Y-71188769D01*
X116673584Y-71265453D01*
X116764462Y-71331973D01*
X116922752Y-71410468D01*
X116971156Y-71432553D01*
X117306328Y-71584527D01*
X117685411Y-71322468D01*
X117858990Y-71205532D01*
X118001077Y-71115489D01*
X118089872Y-71065909D01*
X118106356Y-71060408D01*
X118162934Y-71095197D01*
X118267323Y-71185114D01*
X118397757Y-71308484D01*
X118532473Y-71443630D01*
X118649708Y-71568878D01*
X118727698Y-71662552D01*
X118747347Y-71698800D01*
X118719270Y-71759345D01*
X118644415Y-71881365D01*
X118536845Y-72042392D01*
X118492192Y-72106473D01*
X118237038Y-72468631D01*
X118384424Y-72814213D01*
X118445726Y-72959011D01*
X118497004Y-73059538D01*
X118557959Y-73127674D01*
X118648298Y-73175300D01*
X118787723Y-73214298D01*
X118995940Y-73256547D01*
X119175000Y-73290896D01*
X119473061Y-73348574D01*
X119473061Y-74266935D01*
X119200918Y-74320538D01*
X119001916Y-74358821D01*
X118810479Y-74394212D01*
X118740784Y-74406537D01*
X118639668Y-74430787D01*
X118569131Y-74476618D01*
X118509320Y-74567261D01*
X118440377Y-74725944D01*
X118416805Y-74785546D01*
X118349951Y-74960512D01*
X118301419Y-75096234D01*
X118280950Y-75165368D01*
X118280816Y-75167269D01*
X118308566Y-75223524D01*
X118382132Y-75341114D01*
X118486985Y-75497070D01*
X118514081Y-75536069D01*
X118624338Y-75699319D01*
X118706480Y-75831470D01*
X118745871Y-75908683D01*
X118747347Y-75915991D01*
X118712334Y-75972998D01*
X118621831Y-76077426D01*
X118497639Y-76207601D01*
X118361559Y-76341850D01*
X118235394Y-76458498D01*
X118140945Y-76535872D01*
X118104467Y-76555102D01*
X118044394Y-76526853D01*
X117923979Y-76451880D01*
X117766427Y-76344845D01*
X117722831Y-76313992D01*
X117384946Y-76072882D01*
X117210531Y-76166811D01*
X117094112Y-76222003D01*
X117022810Y-76241773D01*
X117015983Y-76239452D01*
X116985233Y-76180768D01*
X116925318Y-76046873D01*
X116844875Y-75858844D01*
X116752543Y-75637761D01*
X116656959Y-75404700D01*
X116566761Y-75180741D01*
X116490588Y-74986962D01*
X116437076Y-74844440D01*
X116414864Y-74774254D01*
X116414695Y-74772181D01*
X116452146Y-74708004D01*
X116546807Y-74612014D01*
X116601606Y-74565762D01*
X116786361Y-74365154D01*
X116919472Y-74115399D01*
X116980758Y-73856649D01*
X116982621Y-73807755D01*
X116934064Y-73530978D01*
X116801105Y-73275542D01*
X116602813Y-73060547D01*
X116358257Y-72905096D01*
X116086505Y-72828290D01*
X116000000Y-72823435D01*
X115723701Y-72872076D01*
X115468705Y-73005265D01*
X115254082Y-73203899D01*
X115098899Y-73448878D01*
X115022225Y-73721100D01*
X115017379Y-73807755D01*
X115062020Y-74063517D01*
X115182490Y-74318248D01*
X115358606Y-74531797D01*
X115398393Y-74565762D01*
X115510297Y-74666528D01*
X115577058Y-74748807D01*
X115585304Y-74772181D01*
X115566547Y-74832937D01*
X115515988Y-74968138D01*
X115442201Y-75156739D01*
X115353757Y-75377698D01*
X115259227Y-75609969D01*
X115167185Y-75832509D01*
X115086201Y-76024273D01*
X115024849Y-76164217D01*
X114991699Y-76231297D01*
X114990124Y-76233344D01*
X114939436Y-76223191D01*
X114831163Y-76179030D01*
X114797895Y-76163545D01*
X114619690Y-76078564D01*
X114278843Y-76316833D01*
X114113878Y-76428367D01*
X113979934Y-76511958D01*
X113900522Y-76553130D01*
X113891763Y-76555102D01*
X113836117Y-76520577D01*
X113729164Y-76428838D01*
X113591209Y-76297635D01*
X113549091Y-76255537D01*
X113411413Y-76111444D01*
X113307743Y-75993491D01*
X113255622Y-75921954D01*
X113252653Y-75912865D01*
X113280499Y-75852669D01*
X113354300Y-75731919D01*
X113459449Y-75574211D01*
X113485918Y-75536069D01*
X113595927Y-75374522D01*
X113677999Y-75246044D01*
X113717608Y-75173602D01*
X113719183Y-75167269D01*
X113701498Y-75104932D01*
X113654937Y-74973724D01*
X113589240Y-74800989D01*
X113583195Y-74785546D01*
X113508156Y-74603720D01*
X113447793Y-74496418D01*
X113382249Y-74440414D01*
X113291668Y-74412476D01*
X113259215Y-74406537D01*
X113093652Y-74376682D01*
X112890278Y-74338283D01*
X112799081Y-74320538D01*
X112526938Y-74266935D01*
X112526938Y-73655782D01*
X112733176Y-73655782D01*
X112734121Y-73792516D01*
X112734285Y-73828791D01*
X112734285Y-74158873D01*
X113084183Y-74223465D01*
X113273949Y-74262252D01*
X113429880Y-74300861D01*
X113515335Y-74329769D01*
X113572235Y-74396801D01*
X113647097Y-74533191D01*
X113727347Y-74709221D01*
X113800411Y-74895175D01*
X113853717Y-75061335D01*
X113874689Y-75177984D01*
X113874694Y-75179098D01*
X113847485Y-75268786D01*
X113775689Y-75414088D01*
X113674054Y-75585602D01*
X113659484Y-75608189D01*
X113444275Y-75938505D01*
X113644086Y-76143130D01*
X113763230Y-76256410D01*
X113857743Y-76330719D01*
X113894559Y-76347755D01*
X113959757Y-76321143D01*
X114085653Y-76250813D01*
X114246996Y-76151024D01*
X114274830Y-76133006D01*
X114447979Y-76024089D01*
X114562700Y-75966637D01*
X114645078Y-75952066D01*
X114721197Y-75971793D01*
X114739901Y-75979977D01*
X114848596Y-76011693D01*
X114911431Y-76000338D01*
X114944267Y-75938195D01*
X115006208Y-75800653D01*
X115088089Y-75608665D01*
X115172047Y-75404681D01*
X115396594Y-74850382D01*
X115183865Y-74619598D01*
X114987620Y-74339059D01*
X114880907Y-74032140D01*
X114863999Y-73716784D01*
X114937164Y-73410933D01*
X115100675Y-73132528D01*
X115160403Y-73064334D01*
X115417723Y-72858466D01*
X115701702Y-72740171D01*
X115996907Y-72703451D01*
X116287902Y-72742307D01*
X116559254Y-72850741D01*
X116795528Y-73022753D01*
X116981291Y-73252345D01*
X117101108Y-73533518D01*
X117139830Y-73833673D01*
X117094094Y-74144692D01*
X116953310Y-74436829D01*
X116820193Y-74609366D01*
X116604881Y-74853974D01*
X116828690Y-75406477D01*
X116920590Y-75629395D01*
X117000879Y-75816882D01*
X117060371Y-75947944D01*
X117088568Y-76000338D01*
X117156292Y-76011113D01*
X117260098Y-75979977D01*
X117338372Y-75953789D01*
X117417102Y-75959991D01*
X117522375Y-76007165D01*
X117680275Y-76103895D01*
X117725169Y-76133006D01*
X117889887Y-76236233D01*
X118023257Y-76312317D01*
X118100031Y-76347000D01*
X118105440Y-76347755D01*
X118167126Y-76313305D01*
X118272100Y-76224643D01*
X118355913Y-76143130D01*
X118555724Y-75938505D01*
X118340515Y-75608189D01*
X118236095Y-75435432D01*
X118159607Y-75285081D01*
X118125797Y-75186539D01*
X118125306Y-75179098D01*
X118145749Y-75063331D01*
X118198697Y-74897648D01*
X118271576Y-74711765D01*
X118351813Y-74535398D01*
X118426833Y-74398266D01*
X118484063Y-74330085D01*
X118484664Y-74329769D01*
X118575270Y-74299428D01*
X118733226Y-74260646D01*
X118915816Y-74223465D01*
X119265714Y-74158873D01*
X119265714Y-73828791D01*
X119267089Y-73680273D01*
X119259487Y-73581847D01*
X119225316Y-73519136D01*
X119146984Y-73477762D01*
X119006898Y-73443347D01*
X118787468Y-73401513D01*
X118729280Y-73390366D01*
X118426112Y-73331753D01*
X118249791Y-72944841D01*
X118167811Y-72758367D01*
X118106121Y-72605509D01*
X118075191Y-72512630D01*
X118073469Y-72500894D01*
X118101090Y-72434174D01*
X118174574Y-72306741D01*
X118279853Y-72142477D01*
X118317154Y-72087214D01*
X118560838Y-71730570D01*
X118328173Y-71497905D01*
X118095509Y-71265240D01*
X117760509Y-71499204D01*
X117586930Y-71611116D01*
X117432929Y-71694028D01*
X117327492Y-71732655D01*
X117315790Y-71733726D01*
X117194010Y-71711984D01*
X117019599Y-71656051D01*
X116831073Y-71581133D01*
X116666951Y-71502436D01*
X116570204Y-71439390D01*
X116523387Y-71356704D01*
X116470285Y-71202266D01*
X116421099Y-71006682D01*
X116413224Y-70968336D01*
X116333999Y-70567959D01*
X115666001Y-70567959D01*
X115586776Y-70968336D01*
X115539436Y-71168187D01*
X115486291Y-71332568D01*
X115437538Y-71430872D01*
X115429796Y-71439390D01*
X115322658Y-71508017D01*
X115155431Y-71586954D01*
X114966631Y-71660994D01*
X114794777Y-71714931D01*
X114684210Y-71733726D01*
X114590734Y-71704807D01*
X114443417Y-71628820D01*
X114271244Y-71521049D01*
X114239490Y-71499204D01*
X113904491Y-71265240D01*
X113439161Y-71730570D01*
X113682846Y-72087214D01*
X113795193Y-72258105D01*
X113880154Y-72399649D01*
X113923660Y-72487963D01*
X113926530Y-72500894D01*
X113906182Y-72572064D01*
X113852117Y-72710657D01*
X113774806Y-72890310D01*
X113750209Y-72944841D01*
X113573887Y-73331753D01*
X113270719Y-73390366D01*
X113032269Y-73435608D01*
X112876881Y-73470393D01*
X112786965Y-73509098D01*
X112744927Y-73566102D01*
X112733176Y-73655782D01*
X112526938Y-73655782D01*
X112526938Y-73348574D01*
X112825000Y-73290896D01*
X113087760Y-73240298D01*
X113269081Y-73200578D01*
X113388665Y-73159857D01*
X113466218Y-73106252D01*
X113521444Y-73027883D01*
X113574046Y-72912870D01*
X113615576Y-72814213D01*
X113762961Y-72468631D01*
X113507807Y-72106473D01*
X113391798Y-71936805D01*
X113303372Y-71797943D01*
X113256592Y-71712355D01*
X113252653Y-71698800D01*
X113287584Y-71642450D01*
X113377867Y-71538485D01*
X113501738Y-71408580D01*
X113637435Y-71274410D01*
X113763193Y-71157650D01*
X113857248Y-71079977D01*
X113893644Y-71060408D01*
X113952473Y-71088113D01*
X114073967Y-71162139D01*
X114236209Y-71268856D01*
X114311349Y-71320228D01*
X114687192Y-71580048D01*
X114967780Y-71466675D01*
X115162858Y-71384414D01*
X115282675Y-71318247D01*
X115349150Y-71248150D01*
X115384201Y-71154100D01*
X115400363Y-71071520D01*
X115430807Y-70902817D01*
X115469602Y-70697361D01*
X115487216Y-70606836D01*
X115540819Y-70334694D01*
X116459180Y-70334694D01*
X116512783Y-70606836D01*
D10*
%TO.C,J3*%
X153290000Y-66750000D02*
X153790000Y-66500000D01*
X153290000Y-66250000D02*
X153290000Y-66750000D01*
X153790000Y-66500000D02*
X153290000Y-66250000D01*
%TO.C,J2*%
X106710000Y-66250000D02*
X106210000Y-66500000D01*
X106710000Y-66750000D02*
X106710000Y-66250000D01*
X106210000Y-66500000D02*
X106710000Y-66750000D01*
%TO.C,C1*%
X134711252Y-81665000D02*
X134188748Y-81665000D01*
X134711252Y-83135000D02*
X134188748Y-83135000D01*
%TO.C,C2*%
X134711252Y-80905000D02*
X134188748Y-80905000D01*
X134711252Y-79435000D02*
X134188748Y-79435000D01*
%TO.C,C3*%
X134711252Y-77205000D02*
X134188748Y-77205000D01*
X134711252Y-78675000D02*
X134188748Y-78675000D01*
%TO.C,C4*%
X134711252Y-76445000D02*
X134188748Y-76445000D01*
X134711252Y-74975000D02*
X134188748Y-74975000D01*
%TO.C,C5*%
X134711252Y-72745000D02*
X134188748Y-72745000D01*
X134711252Y-74215000D02*
X134188748Y-74215000D01*
%TO.C,C6*%
X134711252Y-71985000D02*
X134188748Y-71985000D01*
X134711252Y-70515000D02*
X134188748Y-70515000D01*
%TO.C,C7*%
X119738748Y-67235000D02*
X120261252Y-67235000D01*
X119738748Y-65765000D02*
X120261252Y-65765000D01*
%TO.C,C8*%
X139738748Y-65765000D02*
X140261252Y-65765000D01*
X139738748Y-67235000D02*
X140261252Y-67235000D01*
%TO.C,J1*%
X140100000Y-87900000D02*
X141600000Y-87900000D01*
X140100000Y-86160000D02*
X140100000Y-87900000D01*
X148160000Y-80540000D02*
X148160000Y-87660000D01*
X140340000Y-80540000D02*
X140340000Y-87660000D01*
X140340000Y-87660000D02*
X148160000Y-87660000D01*
X140340000Y-80540000D02*
X148160000Y-80540000D01*
X140340000Y-86100000D02*
X148160000Y-86100000D01*
X147555000Y-84000000D02*
G75*
G03*
X147555000Y-84000000I-1555000J0D01*
G01*
X143107587Y-85431385D02*
G75*
G02*
X142500000Y-85555000I-607587J1431385D01*
G01*
X143932109Y-83392258D02*
G75*
G02*
X143932000Y-84608000I-1432109J-607742D01*
G01*
X141892258Y-82567891D02*
G75*
G02*
X143108000Y-82568000I607742J-1432109D01*
G01*
X141067891Y-84607742D02*
G75*
G02*
X141068000Y-83392000I1432109J607742D01*
G01*
X142527011Y-85555492D02*
G75*
G02*
X141892000Y-85432000I-27011J1555492D01*
G01*
%TO.C,L1*%
X135960000Y-67962122D02*
X135960000Y-67162878D01*
X134840000Y-67962122D02*
X134840000Y-67162878D01*
%TO.C,U1*%
X132360000Y-65910000D02*
X132130000Y-65910000D01*
X127640000Y-65910000D02*
X127870000Y-65910000D01*
X127640000Y-65910000D02*
X127640000Y-63190000D01*
X127640000Y-63190000D02*
X128950000Y-63190000D01*
X127870000Y-67050000D02*
X127870000Y-65910000D01*
X132360000Y-63190000D02*
X132360000Y-65910000D01*
X131050000Y-63190000D02*
X132360000Y-63190000D01*
%TD*%
M02*
