%TF.GenerationSoftware,KiCad,Pcbnew,(5.1.8)-1*%
%TF.CreationDate,2021-02-01T22:34:23+01:00*%
%TF.ProjectId,adl-variant,61646c2d-7661-4726-9961-6e742e6b6963,rev?*%
%TF.SameCoordinates,Original*%
%TF.FileFunction,Soldermask,Top*%
%TF.FilePolarity,Negative*%
%FSLAX46Y46*%
G04 Gerber Fmt 4.6, Leading zero omitted, Abs format (unit mm)*
G04 Created by KiCad (PCBNEW (5.1.8)-1) date 2021-02-01 22:34:23*
%MOMM*%
%LPD*%
G01*
G04 APERTURE LIST*
%ADD10C,1.084566*%
%TA.AperFunction,Profile*%
%ADD11C,0.050000*%
%TD*%
%ADD12R,5.080000X1.500000*%
%ADD13R,2.400000X2.400000*%
%ADD14C,2.400000*%
%ADD15R,0.900000X1.300000*%
%ADD16C,0.100000*%
%ADD17C,0.800000*%
%ADD18C,6.400000*%
G04 APERTURE END LIST*
D10*
X139050000Y-66500000D02*
X135400000Y-66500000D01*
X131500000Y-66500000D02*
X135400000Y-66500000D01*
X140950000Y-66500000D02*
X157000000Y-66500000D01*
X120950000Y-66500000D02*
X128500000Y-66500000D01*
X103000000Y-66500000D02*
X119050000Y-66500000D01*
D11*
X105000000Y-90000000D02*
G75*
G02*
X100000000Y-85000000I0J5000000D01*
G01*
X160000000Y-85000000D02*
G75*
G02*
X155000000Y-90000000I-5000000J0D01*
G01*
X155000000Y-50000000D02*
G75*
G02*
X160000000Y-55000000I0J-5000000D01*
G01*
X100000000Y-55000000D02*
G75*
G02*
X105000000Y-50000000I5000000J0D01*
G01*
X100000000Y-85000000D02*
X100000000Y-55000000D01*
X155000000Y-90000000D02*
X105000000Y-90000000D01*
X160000000Y-55000000D02*
X160000000Y-85000000D01*
X105000000Y-50000000D02*
X155000000Y-50000000D01*
D12*
%TO.C,J3*%
X157000000Y-66500000D03*
X157000000Y-62250000D03*
X157000000Y-70750000D03*
%TD*%
%TO.C,J2*%
X103000000Y-66500000D03*
X103000000Y-70750000D03*
X103000000Y-62250000D03*
%TD*%
%TO.C,C1*%
G36*
G01*
X135900000Y-81925000D02*
X135900000Y-82875000D01*
G75*
G02*
X135650000Y-83125000I-250000J0D01*
G01*
X135150000Y-83125000D01*
G75*
G02*
X134900000Y-82875000I0J250000D01*
G01*
X134900000Y-81925000D01*
G75*
G02*
X135150000Y-81675000I250000J0D01*
G01*
X135650000Y-81675000D01*
G75*
G02*
X135900000Y-81925000I0J-250000D01*
G01*
G37*
G36*
G01*
X134000000Y-81925000D02*
X134000000Y-82875000D01*
G75*
G02*
X133750000Y-83125000I-250000J0D01*
G01*
X133250000Y-83125000D01*
G75*
G02*
X133000000Y-82875000I0J250000D01*
G01*
X133000000Y-81925000D01*
G75*
G02*
X133250000Y-81675000I250000J0D01*
G01*
X133750000Y-81675000D01*
G75*
G02*
X134000000Y-81925000I0J-250000D01*
G01*
G37*
%TD*%
%TO.C,C2*%
G36*
G01*
X134000000Y-79695000D02*
X134000000Y-80645000D01*
G75*
G02*
X133750000Y-80895000I-250000J0D01*
G01*
X133250000Y-80895000D01*
G75*
G02*
X133000000Y-80645000I0J250000D01*
G01*
X133000000Y-79695000D01*
G75*
G02*
X133250000Y-79445000I250000J0D01*
G01*
X133750000Y-79445000D01*
G75*
G02*
X134000000Y-79695000I0J-250000D01*
G01*
G37*
G36*
G01*
X135900000Y-79695000D02*
X135900000Y-80645000D01*
G75*
G02*
X135650000Y-80895000I-250000J0D01*
G01*
X135150000Y-80895000D01*
G75*
G02*
X134900000Y-80645000I0J250000D01*
G01*
X134900000Y-79695000D01*
G75*
G02*
X135150000Y-79445000I250000J0D01*
G01*
X135650000Y-79445000D01*
G75*
G02*
X135900000Y-79695000I0J-250000D01*
G01*
G37*
%TD*%
%TO.C,C3*%
G36*
G01*
X135900000Y-77465000D02*
X135900000Y-78415000D01*
G75*
G02*
X135650000Y-78665000I-250000J0D01*
G01*
X135150000Y-78665000D01*
G75*
G02*
X134900000Y-78415000I0J250000D01*
G01*
X134900000Y-77465000D01*
G75*
G02*
X135150000Y-77215000I250000J0D01*
G01*
X135650000Y-77215000D01*
G75*
G02*
X135900000Y-77465000I0J-250000D01*
G01*
G37*
G36*
G01*
X134000000Y-77465000D02*
X134000000Y-78415000D01*
G75*
G02*
X133750000Y-78665000I-250000J0D01*
G01*
X133250000Y-78665000D01*
G75*
G02*
X133000000Y-78415000I0J250000D01*
G01*
X133000000Y-77465000D01*
G75*
G02*
X133250000Y-77215000I250000J0D01*
G01*
X133750000Y-77215000D01*
G75*
G02*
X134000000Y-77465000I0J-250000D01*
G01*
G37*
%TD*%
%TO.C,C4*%
G36*
G01*
X134000000Y-75235000D02*
X134000000Y-76185000D01*
G75*
G02*
X133750000Y-76435000I-250000J0D01*
G01*
X133250000Y-76435000D01*
G75*
G02*
X133000000Y-76185000I0J250000D01*
G01*
X133000000Y-75235000D01*
G75*
G02*
X133250000Y-74985000I250000J0D01*
G01*
X133750000Y-74985000D01*
G75*
G02*
X134000000Y-75235000I0J-250000D01*
G01*
G37*
G36*
G01*
X135900000Y-75235000D02*
X135900000Y-76185000D01*
G75*
G02*
X135650000Y-76435000I-250000J0D01*
G01*
X135150000Y-76435000D01*
G75*
G02*
X134900000Y-76185000I0J250000D01*
G01*
X134900000Y-75235000D01*
G75*
G02*
X135150000Y-74985000I250000J0D01*
G01*
X135650000Y-74985000D01*
G75*
G02*
X135900000Y-75235000I0J-250000D01*
G01*
G37*
%TD*%
%TO.C,C5*%
G36*
G01*
X135900000Y-73005000D02*
X135900000Y-73955000D01*
G75*
G02*
X135650000Y-74205000I-250000J0D01*
G01*
X135150000Y-74205000D01*
G75*
G02*
X134900000Y-73955000I0J250000D01*
G01*
X134900000Y-73005000D01*
G75*
G02*
X135150000Y-72755000I250000J0D01*
G01*
X135650000Y-72755000D01*
G75*
G02*
X135900000Y-73005000I0J-250000D01*
G01*
G37*
G36*
G01*
X134000000Y-73005000D02*
X134000000Y-73955000D01*
G75*
G02*
X133750000Y-74205000I-250000J0D01*
G01*
X133250000Y-74205000D01*
G75*
G02*
X133000000Y-73955000I0J250000D01*
G01*
X133000000Y-73005000D01*
G75*
G02*
X133250000Y-72755000I250000J0D01*
G01*
X133750000Y-72755000D01*
G75*
G02*
X134000000Y-73005000I0J-250000D01*
G01*
G37*
%TD*%
%TO.C,C6*%
G36*
G01*
X134000000Y-70775000D02*
X134000000Y-71725000D01*
G75*
G02*
X133750000Y-71975000I-250000J0D01*
G01*
X133250000Y-71975000D01*
G75*
G02*
X133000000Y-71725000I0J250000D01*
G01*
X133000000Y-70775000D01*
G75*
G02*
X133250000Y-70525000I250000J0D01*
G01*
X133750000Y-70525000D01*
G75*
G02*
X134000000Y-70775000I0J-250000D01*
G01*
G37*
G36*
G01*
X135900000Y-70775000D02*
X135900000Y-71725000D01*
G75*
G02*
X135650000Y-71975000I-250000J0D01*
G01*
X135150000Y-71975000D01*
G75*
G02*
X134900000Y-71725000I0J250000D01*
G01*
X134900000Y-70775000D01*
G75*
G02*
X135150000Y-70525000I250000J0D01*
G01*
X135650000Y-70525000D01*
G75*
G02*
X135900000Y-70775000I0J-250000D01*
G01*
G37*
%TD*%
%TO.C,C7*%
G36*
G01*
X118550000Y-66975000D02*
X118550000Y-66025000D01*
G75*
G02*
X118800000Y-65775000I250000J0D01*
G01*
X119300000Y-65775000D01*
G75*
G02*
X119550000Y-66025000I0J-250000D01*
G01*
X119550000Y-66975000D01*
G75*
G02*
X119300000Y-67225000I-250000J0D01*
G01*
X118800000Y-67225000D01*
G75*
G02*
X118550000Y-66975000I0J250000D01*
G01*
G37*
G36*
G01*
X120450000Y-66975000D02*
X120450000Y-66025000D01*
G75*
G02*
X120700000Y-65775000I250000J0D01*
G01*
X121200000Y-65775000D01*
G75*
G02*
X121450000Y-66025000I0J-250000D01*
G01*
X121450000Y-66975000D01*
G75*
G02*
X121200000Y-67225000I-250000J0D01*
G01*
X120700000Y-67225000D01*
G75*
G02*
X120450000Y-66975000I0J250000D01*
G01*
G37*
%TD*%
%TO.C,C8*%
G36*
G01*
X140450000Y-66975000D02*
X140450000Y-66025000D01*
G75*
G02*
X140700000Y-65775000I250000J0D01*
G01*
X141200000Y-65775000D01*
G75*
G02*
X141450000Y-66025000I0J-250000D01*
G01*
X141450000Y-66975000D01*
G75*
G02*
X141200000Y-67225000I-250000J0D01*
G01*
X140700000Y-67225000D01*
G75*
G02*
X140450000Y-66975000I0J250000D01*
G01*
G37*
G36*
G01*
X138550000Y-66975000D02*
X138550000Y-66025000D01*
G75*
G02*
X138800000Y-65775000I250000J0D01*
G01*
X139300000Y-65775000D01*
G75*
G02*
X139550000Y-66025000I0J-250000D01*
G01*
X139550000Y-66975000D01*
G75*
G02*
X139300000Y-67225000I-250000J0D01*
G01*
X138800000Y-67225000D01*
G75*
G02*
X138550000Y-66975000I0J250000D01*
G01*
G37*
%TD*%
D13*
%TO.C,J1*%
X142500000Y-84000000D03*
D14*
X146000000Y-84000000D03*
%TD*%
%TO.C,L1*%
G36*
G01*
X135781250Y-69062500D02*
X135018750Y-69062500D01*
G75*
G02*
X134800000Y-68843750I0J218750D01*
G01*
X134800000Y-68406250D01*
G75*
G02*
X135018750Y-68187500I218750J0D01*
G01*
X135781250Y-68187500D01*
G75*
G02*
X136000000Y-68406250I0J-218750D01*
G01*
X136000000Y-68843750D01*
G75*
G02*
X135781250Y-69062500I-218750J0D01*
G01*
G37*
G36*
G01*
X135781250Y-66937500D02*
X135018750Y-66937500D01*
G75*
G02*
X134800000Y-66718750I0J218750D01*
G01*
X134800000Y-66281250D01*
G75*
G02*
X135018750Y-66062500I218750J0D01*
G01*
X135781250Y-66062500D01*
G75*
G02*
X136000000Y-66281250I0J-218750D01*
G01*
X136000000Y-66718750D01*
G75*
G02*
X135781250Y-66937500I-218750J0D01*
G01*
G37*
%TD*%
D15*
%TO.C,U1*%
X128500000Y-66500000D03*
X131500000Y-66500000D03*
D16*
G36*
X130866500Y-62550000D02*
G01*
X130866500Y-65675000D01*
X130450000Y-65675000D01*
X130450000Y-67150000D01*
X129550000Y-67150000D01*
X129550000Y-65675000D01*
X129133500Y-65675000D01*
X129133500Y-62550000D01*
X130866500Y-62550000D01*
G37*
%TD*%
D17*
%TO.C,H1*%
X107697056Y-54302944D03*
X106000000Y-53600000D03*
X104302944Y-54302944D03*
X103600000Y-56000000D03*
X104302944Y-57697056D03*
X106000000Y-58400000D03*
X107697056Y-57697056D03*
X108400000Y-56000000D03*
D18*
X106000000Y-56000000D03*
%TD*%
%TO.C,H2*%
X154000000Y-56000000D03*
D17*
X156400000Y-56000000D03*
X155697056Y-57697056D03*
X154000000Y-58400000D03*
X152302944Y-57697056D03*
X151600000Y-56000000D03*
X152302944Y-54302944D03*
X154000000Y-53600000D03*
X155697056Y-54302944D03*
%TD*%
%TO.C,H3*%
X107697056Y-82302944D03*
X106000000Y-81600000D03*
X104302944Y-82302944D03*
X103600000Y-84000000D03*
X104302944Y-85697056D03*
X106000000Y-86400000D03*
X107697056Y-85697056D03*
X108400000Y-84000000D03*
D18*
X106000000Y-84000000D03*
%TD*%
%TO.C,H4*%
X154000000Y-84000000D03*
D17*
X156400000Y-84000000D03*
X155697056Y-85697056D03*
X154000000Y-86400000D03*
X152302944Y-85697056D03*
X151600000Y-84000000D03*
X152302944Y-82302944D03*
X154000000Y-81600000D03*
X155697056Y-82302944D03*
%TD*%
M02*
