M48
; DRILL file {KiCad (5.1.8)-1} date 02/22/21 19:15:23
; FORMAT={-:-/ absolute / inch / decimal}
; #@! TF.CreationDate,2021-02-22T19:15:23+01:00
; #@! TF.GenerationSoftware,Kicad,Pcbnew,(5.1.8)-1
FMAT,2
INCH
T1C0.0197
T2C0.0315
T3C0.0394
T4C0.0433
T5C0.0469
T6C0.0472
T7C0.0591
T8C0.1260
T9C0.1378
%
G90
G05
T1
X3.2913Y-2.2047
X3.319Y-2.1379
X3.319Y-2.2715
X3.3858Y-2.1102
X3.3858Y-2.2992
X3.4526Y-2.1379
X3.4526Y-2.2715
X3.4803Y-2.2047
X3.2913Y-4.0945
X3.319Y-4.0277
X3.319Y-4.1613
X3.3858Y-4.0
X3.3858Y-4.189
X3.4526Y-4.0277
X3.4526Y-4.1613
X3.4803Y-4.0945
X6.3622Y-4.0945
X6.3899Y-4.0277
X6.3899Y-4.1613
X6.4567Y-4.0
X6.4567Y-4.189
X6.5235Y-4.0277
X6.5235Y-4.1613
X6.5512Y-4.0945
X6.3622Y-2.2047
X6.3899Y-2.1379
X6.3899Y-2.2715
X6.4567Y-2.1102
X6.4567Y-2.2992
X6.5235Y-2.1379
X6.5235Y-2.2715
X6.5512Y-2.2047
T2
X4.2654Y-2.4606
X4.6654Y-2.4606
X4.0157Y-2.1474
X4.0157Y-2.2262
X3.8022Y-2.4964
X3.8022Y-2.6341
X4.4213Y-3.8378
X4.9213Y-3.8378
X4.2654Y-3.6378
X4.6654Y-3.6378
X3.8022Y-2.8885
X3.8022Y-3.0263
X4.2654Y-3.4457
X4.6654Y-3.4457
X4.2654Y-3.0535
X4.6654Y-3.0535
X4.2126Y-2.185
X4.6126Y-2.185
X3.8022Y-3.2806
X3.8022Y-3.4184
X4.4195Y-4.0065
X4.9195Y-4.0065
X4.2654Y-2.8535
X4.6654Y-2.8535
X3.8022Y-3.6727
X3.8022Y-3.8105
X5.1181Y-2.5575
X5.1181Y-2.6559
X4.2654Y-2.6614
X4.6654Y-2.6614
X5.1181Y-2.8559
X5.1181Y-2.9543
X4.2654Y-3.2457
X4.6654Y-3.2457
T3
X4.0453Y-4.0447
X4.0453Y-4.1447
X3.8583Y-4.0447
X3.8583Y-4.1447
X5.8661Y-3.1496
X6.063Y-3.1496
X3.6811Y-4.0447
X3.6811Y-4.1447
X5.8661Y-2.687
X6.063Y-2.687
X4.1142Y-2.4614
X4.1142Y-2.5614
X4.1142Y-2.6614
X5.8661Y-4.0748
X6.063Y-4.0748
X4.1142Y-3.2457
X4.1142Y-3.3457
X4.1142Y-3.4457
X4.1142Y-3.6378
X4.1142Y-3.7378
X4.1142Y-3.8378
X4.1142Y-2.8535
X4.1142Y-2.9535
X4.1142Y-3.0535
X5.8661Y-2.2244
X6.063Y-2.2244
X4.4488Y-4.1732
X4.5488Y-4.1732
X5.8661Y-3.6122
X6.063Y-3.6122
X4.2224Y-4.0447
X4.2224Y-4.1447
T4
X4.8213Y-3.4457
X4.9213Y-3.4457
X4.8213Y-2.6614
X4.9213Y-2.6614
X4.8213Y-2.4606
X4.9213Y-2.4606
X4.8213Y-3.0535
X4.9213Y-3.0535
X4.8213Y-2.8535
X4.9213Y-2.8535
X5.2362Y-2.6559
X5.2362Y-2.7559
X5.2362Y-2.8559
X5.1872Y-4.0748
X5.5872Y-4.0748
X4.8213Y-2.2685
X4.9213Y-2.2685
X4.8213Y-3.2457
X4.9213Y-3.2457
X4.8213Y-3.6378
X4.9213Y-3.6378
T5
X3.7008Y-2.1858
X3.8008Y-2.1858
T6
X6.4173Y-2.4925
X6.4173Y-2.6303
X3.4252Y-2.8846
X3.4252Y-3.0224
X3.4252Y-2.4925
X3.4252Y-2.6303
X3.4252Y-3.2768
X3.4252Y-3.4146
X3.4252Y-3.6689
X3.4252Y-3.8067
T7
X5.3957Y-3.578
X5.3957Y-3.878
X6.4173Y-2.9169
X6.4173Y-3.8067
T8
X6.4567Y-2.2047
X3.3858Y-2.2047
X3.3858Y-4.0945
X6.4567Y-4.0945
T9
X5.4291Y-2.2559
X5.4291Y-3.2559
T0
M30
