%TF.GenerationSoftware,KiCad,Pcbnew,(5.1.8)-1*%
%TF.CreationDate,2021-02-09T11:56:48+01:00*%
%TF.ProjectId,500-1000-cvco,3530302d-3130-4303-902d-6376636f2e6b,rev?*%
%TF.SameCoordinates,Original*%
%TF.FileFunction,Soldermask,Bot*%
%TF.FilePolarity,Negative*%
%FSLAX46Y46*%
G04 Gerber Fmt 4.6, Leading zero omitted, Abs format (unit mm)*
G04 Created by KiCad (PCBNEW (5.1.8)-1) date 2021-02-09 11:56:48*
%MOMM*%
%LPD*%
G01*
G04 APERTURE LIST*
%TA.AperFunction,Profile*%
%ADD10C,0.050000*%
%TD*%
%ADD11R,5.080000X1.500000*%
%ADD12C,0.800000*%
%ADD13C,6.400000*%
%ADD14R,2.200000X2.200000*%
%ADD15O,2.200000X2.200000*%
%ADD16O,1.600000X1.600000*%
%ADD17C,1.600000*%
%ADD18R,2.600000X2.600000*%
%ADD19C,2.600000*%
%ADD20R,1.700000X1.700000*%
%ADD21O,1.700000X1.700000*%
G04 APERTURE END LIST*
D10*
X105000000Y-90000000D02*
G75*
G02*
X100000000Y-85000000I0J5000000D01*
G01*
X160000000Y-85000000D02*
G75*
G02*
X155000000Y-90000000I-5000000J0D01*
G01*
X155000000Y-50000000D02*
G75*
G02*
X160000000Y-55000000I0J-5000000D01*
G01*
X100000000Y-55000000D02*
G75*
G02*
X105000000Y-50000000I5000000J0D01*
G01*
X100000000Y-85000000D02*
X100000000Y-55000000D01*
X155000000Y-90000000D02*
X105000000Y-90000000D01*
X160000000Y-55000000D02*
X160000000Y-85000000D01*
X105000000Y-50000000D02*
X155000000Y-50000000D01*
D11*
%TO.C,J2*%
X103000000Y-70750000D03*
X103000000Y-62250000D03*
%TD*%
D12*
%TO.C,H1*%
X107697056Y-54302944D03*
X106000000Y-53600000D03*
X104302944Y-54302944D03*
X103600000Y-56000000D03*
X104302944Y-57697056D03*
X106000000Y-58400000D03*
X107697056Y-57697056D03*
X108400000Y-56000000D03*
D13*
X106000000Y-56000000D03*
%TD*%
%TO.C,H2*%
X154010000Y-56000000D03*
D12*
X156410000Y-56000000D03*
X155707056Y-57697056D03*
X154010000Y-58400000D03*
X152312944Y-57697056D03*
X151610000Y-56000000D03*
X152312944Y-54302944D03*
X154010000Y-53600000D03*
X155707056Y-54302944D03*
%TD*%
%TO.C,H3*%
X107697056Y-82302944D03*
X106000000Y-81600000D03*
X104302944Y-82302944D03*
X103600000Y-84000000D03*
X104302944Y-85697056D03*
X106000000Y-86400000D03*
X107697056Y-85697056D03*
X108400000Y-84000000D03*
D13*
X106000000Y-84000000D03*
%TD*%
%TO.C,H4*%
X154010000Y-84000000D03*
D12*
X156410000Y-84000000D03*
X155707056Y-85697056D03*
X154010000Y-86400000D03*
X152312944Y-85697056D03*
X151610000Y-84000000D03*
X152312944Y-82302944D03*
X154010000Y-81600000D03*
X155707056Y-82302944D03*
%TD*%
D14*
%TO.C,D1*%
X142540000Y-81733532D03*
D15*
X140000000Y-81733532D03*
%TD*%
%TO.C,D2*%
X140000000Y-72410000D03*
D14*
X142540000Y-72410000D03*
%TD*%
%TO.C,D3*%
X142540000Y-67590000D03*
D15*
X140000000Y-67590000D03*
%TD*%
%TO.C,D4*%
X140000000Y-63016468D03*
D14*
X142540000Y-63016468D03*
%TD*%
%TO.C,D5*%
X142540000Y-77230000D03*
D15*
X140000000Y-77230000D03*
%TD*%
D16*
%TO.C,R2*%
X146250000Y-77230000D03*
D17*
X156410000Y-77230000D03*
%TD*%
%TO.C,R3*%
X156410000Y-72410000D03*
D16*
X146250000Y-72410000D03*
%TD*%
%TO.C,R4*%
X156410000Y-62770000D03*
D17*
X146250000Y-62770000D03*
%TD*%
%TO.C,R5*%
X146250000Y-67590000D03*
D16*
X156410000Y-67590000D03*
%TD*%
D18*
%TO.C,J1*%
X146750000Y-56500000D03*
D19*
X143250000Y-56500000D03*
X139750000Y-56500000D03*
%TD*%
D17*
%TO.C,C1*%
X140218234Y-85250000D03*
X142718234Y-85250000D03*
%TD*%
D20*
%TO.C,JP1*%
X128375000Y-60710000D03*
D21*
X128375000Y-63250000D03*
%TD*%
D17*
%TO.C,R1*%
X134750000Y-62320000D03*
D16*
X134750000Y-77560000D03*
%TD*%
M02*
