M48
; DRILL file {KiCad (5.1.8)-1} date 02/09/21 11:56:53
; FORMAT={-:-/ absolute / inch / decimal}
; #@! TF.CreationDate,2021-02-09T11:56:53+01:00
; #@! TF.GenerationSoftware,Kicad,Pcbnew,(5.1.8)-1
FMAT,2
INCH
T1C0.0197
T2C0.0315
T3C0.0394
T4C0.0433
T5C0.0512
T6C0.1260
%
G90
G05
T1
X5.9689Y-2.2047
X5.9966Y-2.1379
X5.9966Y-2.2715
X6.0634Y-2.1102
X6.0634Y-2.2992
X6.1302Y-2.1379
X6.1302Y-2.2715
X6.1579Y-2.2047
X5.9689Y-3.3071
X5.9966Y-3.2403
X5.9966Y-3.3739
X6.0634Y-3.2126
X6.0634Y-3.4016
X6.1302Y-3.2403
X6.1302Y-3.3739
X6.1579Y-3.3071
X4.0787Y-2.2047
X4.1064Y-2.1379
X4.1064Y-2.2715
X4.1732Y-2.1102
X4.1732Y-2.2992
X4.24Y-2.1379
X4.24Y-2.2715
X4.2677Y-2.2047
X4.0787Y-3.3071
X4.1064Y-3.2403
X4.1064Y-3.3739
X4.1732Y-3.2126
X4.1732Y-3.4016
X4.24Y-3.2403
X4.24Y-3.3739
X4.2677Y-3.3071
T2
X5.7579Y-2.661
X6.1579Y-2.661
X5.5204Y-3.3563
X5.6188Y-3.3563
X5.3051Y-2.4535
X5.3051Y-3.0535
X5.7579Y-3.0406
X6.1579Y-3.0406
X5.7579Y-2.8508
X6.1579Y-2.8508
X5.7579Y-2.4713
X6.1579Y-2.4713
T3
X5.0541Y-2.3902
X5.0541Y-2.4902
T4
X5.5118Y-2.481
X5.6118Y-2.481
X5.5118Y-3.0406
X5.6118Y-3.0406
X5.5118Y-2.8508
X5.6118Y-2.8508
X5.5118Y-2.661
X5.6118Y-2.661
X5.5118Y-3.2179
X5.6118Y-3.2179
T5
X5.502Y-2.2244
X5.6398Y-2.2244
X5.7776Y-2.2244
T6
X6.0634Y-2.2047
X6.0634Y-3.3071
X4.1732Y-2.2047
X4.1732Y-3.3071
T0
M30
