%TF.GenerationSoftware,KiCad,Pcbnew,(5.1.8)-1*%
%TF.CreationDate,2021-02-09T11:56:48+01:00*%
%TF.ProjectId,500-1000-cvco,3530302d-3130-4303-902d-6376636f2e6b,rev?*%
%TF.SameCoordinates,Original*%
%TF.FileFunction,Soldermask,Top*%
%TF.FilePolarity,Negative*%
%FSLAX46Y46*%
G04 Gerber Fmt 4.6, Leading zero omitted, Abs format (unit mm)*
G04 Created by KiCad (PCBNEW (5.1.8)-1) date 2021-02-09 11:56:48*
%MOMM*%
%LPD*%
G01*
G04 APERTURE LIST*
%ADD10C,1.084566*%
%TA.AperFunction,Profile*%
%ADD11C,0.050000*%
%TD*%
%ADD12R,5.080000X1.500000*%
%ADD13C,0.800000*%
%ADD14C,6.400000*%
%ADD15R,2.200000X2.200000*%
%ADD16O,2.200000X2.200000*%
%ADD17O,1.600000X1.600000*%
%ADD18C,1.600000*%
%ADD19R,1.320000X1.320000*%
%ADD20R,2.600000X2.600000*%
%ADD21C,2.600000*%
%ADD22R,1.700000X1.700000*%
%ADD23O,1.700000X1.700000*%
G04 APERTURE END LIST*
D10*
X110017500Y-66500000D02*
X112300000Y-66500000D01*
X108117500Y-66500000D02*
X103000000Y-66500000D01*
D11*
X105000000Y-90000000D02*
G75*
G02*
X100000000Y-85000000I0J5000000D01*
G01*
X160000000Y-85000000D02*
G75*
G02*
X155000000Y-90000000I-5000000J0D01*
G01*
X155000000Y-50000000D02*
G75*
G02*
X160000000Y-55000000I0J-5000000D01*
G01*
X100000000Y-55000000D02*
G75*
G02*
X105000000Y-50000000I5000000J0D01*
G01*
X100000000Y-85000000D02*
X100000000Y-55000000D01*
X155000000Y-90000000D02*
X105000000Y-90000000D01*
X160000000Y-55000000D02*
X160000000Y-85000000D01*
X105000000Y-50000000D02*
X155000000Y-50000000D01*
D12*
%TO.C,J2*%
X103000000Y-66500000D03*
X103000000Y-70750000D03*
X103000000Y-62250000D03*
%TD*%
D13*
%TO.C,H1*%
X107697056Y-54302944D03*
X106000000Y-53600000D03*
X104302944Y-54302944D03*
X103600000Y-56000000D03*
X104302944Y-57697056D03*
X106000000Y-58400000D03*
X107697056Y-57697056D03*
X108400000Y-56000000D03*
D14*
X106000000Y-56000000D03*
%TD*%
%TO.C,H2*%
X154010000Y-56000000D03*
D13*
X156410000Y-56000000D03*
X155707056Y-57697056D03*
X154010000Y-58400000D03*
X152312944Y-57697056D03*
X151610000Y-56000000D03*
X152312944Y-54302944D03*
X154010000Y-53600000D03*
X155707056Y-54302944D03*
%TD*%
%TO.C,H3*%
X107697056Y-82302944D03*
X106000000Y-81600000D03*
X104302944Y-82302944D03*
X103600000Y-84000000D03*
X104302944Y-85697056D03*
X106000000Y-86400000D03*
X107697056Y-85697056D03*
X108400000Y-84000000D03*
D14*
X106000000Y-84000000D03*
%TD*%
%TO.C,H4*%
X154010000Y-84000000D03*
D13*
X156410000Y-84000000D03*
X155707056Y-85697056D03*
X154010000Y-86400000D03*
X152312944Y-85697056D03*
X151610000Y-84000000D03*
X152312944Y-82302944D03*
X154010000Y-81600000D03*
X155707056Y-82302944D03*
%TD*%
%TO.C,C2*%
G36*
G01*
X130525000Y-76100000D02*
X131475000Y-76100000D01*
G75*
G02*
X131725000Y-76350000I0J-250000D01*
G01*
X131725000Y-76850000D01*
G75*
G02*
X131475000Y-77100000I-250000J0D01*
G01*
X130525000Y-77100000D01*
G75*
G02*
X130275000Y-76850000I0J250000D01*
G01*
X130275000Y-76350000D01*
G75*
G02*
X130525000Y-76100000I250000J0D01*
G01*
G37*
G36*
G01*
X130525000Y-78000000D02*
X131475000Y-78000000D01*
G75*
G02*
X131725000Y-78250000I0J-250000D01*
G01*
X131725000Y-78750000D01*
G75*
G02*
X131475000Y-79000000I-250000J0D01*
G01*
X130525000Y-79000000D01*
G75*
G02*
X130275000Y-78750000I0J250000D01*
G01*
X130275000Y-78250000D01*
G75*
G02*
X130525000Y-78000000I250000J0D01*
G01*
G37*
%TD*%
%TO.C,C3*%
G36*
G01*
X128325000Y-76100000D02*
X129275000Y-76100000D01*
G75*
G02*
X129525000Y-76350000I0J-250000D01*
G01*
X129525000Y-76850000D01*
G75*
G02*
X129275000Y-77100000I-250000J0D01*
G01*
X128325000Y-77100000D01*
G75*
G02*
X128075000Y-76850000I0J250000D01*
G01*
X128075000Y-76350000D01*
G75*
G02*
X128325000Y-76100000I250000J0D01*
G01*
G37*
G36*
G01*
X128325000Y-78000000D02*
X129275000Y-78000000D01*
G75*
G02*
X129525000Y-78250000I0J-250000D01*
G01*
X129525000Y-78750000D01*
G75*
G02*
X129275000Y-79000000I-250000J0D01*
G01*
X128325000Y-79000000D01*
G75*
G02*
X128075000Y-78750000I0J250000D01*
G01*
X128075000Y-78250000D01*
G75*
G02*
X128325000Y-78000000I250000J0D01*
G01*
G37*
%TD*%
%TO.C,C4*%
G36*
G01*
X126125000Y-78000000D02*
X127075000Y-78000000D01*
G75*
G02*
X127325000Y-78250000I0J-250000D01*
G01*
X127325000Y-78750000D01*
G75*
G02*
X127075000Y-79000000I-250000J0D01*
G01*
X126125000Y-79000000D01*
G75*
G02*
X125875000Y-78750000I0J250000D01*
G01*
X125875000Y-78250000D01*
G75*
G02*
X126125000Y-78000000I250000J0D01*
G01*
G37*
G36*
G01*
X126125000Y-76100000D02*
X127075000Y-76100000D01*
G75*
G02*
X127325000Y-76350000I0J-250000D01*
G01*
X127325000Y-76850000D01*
G75*
G02*
X127075000Y-77100000I-250000J0D01*
G01*
X126125000Y-77100000D01*
G75*
G02*
X125875000Y-76850000I0J250000D01*
G01*
X125875000Y-76350000D01*
G75*
G02*
X126125000Y-76100000I250000J0D01*
G01*
G37*
%TD*%
%TO.C,C5*%
G36*
G01*
X123925000Y-76100000D02*
X124875000Y-76100000D01*
G75*
G02*
X125125000Y-76350000I0J-250000D01*
G01*
X125125000Y-76850000D01*
G75*
G02*
X124875000Y-77100000I-250000J0D01*
G01*
X123925000Y-77100000D01*
G75*
G02*
X123675000Y-76850000I0J250000D01*
G01*
X123675000Y-76350000D01*
G75*
G02*
X123925000Y-76100000I250000J0D01*
G01*
G37*
G36*
G01*
X123925000Y-78000000D02*
X124875000Y-78000000D01*
G75*
G02*
X125125000Y-78250000I0J-250000D01*
G01*
X125125000Y-78750000D01*
G75*
G02*
X124875000Y-79000000I-250000J0D01*
G01*
X123925000Y-79000000D01*
G75*
G02*
X123675000Y-78750000I0J250000D01*
G01*
X123675000Y-78250000D01*
G75*
G02*
X123925000Y-78000000I250000J0D01*
G01*
G37*
%TD*%
%TO.C,C6*%
G36*
G01*
X121725000Y-78000000D02*
X122675000Y-78000000D01*
G75*
G02*
X122925000Y-78250000I0J-250000D01*
G01*
X122925000Y-78750000D01*
G75*
G02*
X122675000Y-79000000I-250000J0D01*
G01*
X121725000Y-79000000D01*
G75*
G02*
X121475000Y-78750000I0J250000D01*
G01*
X121475000Y-78250000D01*
G75*
G02*
X121725000Y-78000000I250000J0D01*
G01*
G37*
G36*
G01*
X121725000Y-76100000D02*
X122675000Y-76100000D01*
G75*
G02*
X122925000Y-76350000I0J-250000D01*
G01*
X122925000Y-76850000D01*
G75*
G02*
X122675000Y-77100000I-250000J0D01*
G01*
X121725000Y-77100000D01*
G75*
G02*
X121475000Y-76850000I0J250000D01*
G01*
X121475000Y-76350000D01*
G75*
G02*
X121725000Y-76100000I250000J0D01*
G01*
G37*
%TD*%
%TO.C,C7*%
G36*
G01*
X119525000Y-76100000D02*
X120475000Y-76100000D01*
G75*
G02*
X120725000Y-76350000I0J-250000D01*
G01*
X120725000Y-76850000D01*
G75*
G02*
X120475000Y-77100000I-250000J0D01*
G01*
X119525000Y-77100000D01*
G75*
G02*
X119275000Y-76850000I0J250000D01*
G01*
X119275000Y-76350000D01*
G75*
G02*
X119525000Y-76100000I250000J0D01*
G01*
G37*
G36*
G01*
X119525000Y-78000000D02*
X120475000Y-78000000D01*
G75*
G02*
X120725000Y-78250000I0J-250000D01*
G01*
X120725000Y-78750000D01*
G75*
G02*
X120475000Y-79000000I-250000J0D01*
G01*
X119525000Y-79000000D01*
G75*
G02*
X119275000Y-78750000I0J250000D01*
G01*
X119275000Y-78250000D01*
G75*
G02*
X119525000Y-78000000I250000J0D01*
G01*
G37*
%TD*%
%TO.C,C8*%
G36*
G01*
X109517500Y-66975000D02*
X109517500Y-66025000D01*
G75*
G02*
X109767500Y-65775000I250000J0D01*
G01*
X110267500Y-65775000D01*
G75*
G02*
X110517500Y-66025000I0J-250000D01*
G01*
X110517500Y-66975000D01*
G75*
G02*
X110267500Y-67225000I-250000J0D01*
G01*
X109767500Y-67225000D01*
G75*
G02*
X109517500Y-66975000I0J250000D01*
G01*
G37*
G36*
G01*
X107617500Y-66975000D02*
X107617500Y-66025000D01*
G75*
G02*
X107867500Y-65775000I250000J0D01*
G01*
X108367500Y-65775000D01*
G75*
G02*
X108617500Y-66025000I0J-250000D01*
G01*
X108617500Y-66975000D01*
G75*
G02*
X108367500Y-67225000I-250000J0D01*
G01*
X107867500Y-67225000D01*
G75*
G02*
X107617500Y-66975000I0J250000D01*
G01*
G37*
%TD*%
%TO.C,C9*%
G36*
G01*
X129975000Y-66751000D02*
X129025000Y-66751000D01*
G75*
G02*
X128775000Y-66501000I0J250000D01*
G01*
X128775000Y-66001000D01*
G75*
G02*
X129025000Y-65751000I250000J0D01*
G01*
X129975000Y-65751000D01*
G75*
G02*
X130225000Y-66001000I0J-250000D01*
G01*
X130225000Y-66501000D01*
G75*
G02*
X129975000Y-66751000I-250000J0D01*
G01*
G37*
G36*
G01*
X129975000Y-68651000D02*
X129025000Y-68651000D01*
G75*
G02*
X128775000Y-68401000I0J250000D01*
G01*
X128775000Y-67901000D01*
G75*
G02*
X129025000Y-67651000I250000J0D01*
G01*
X129975000Y-67651000D01*
G75*
G02*
X130225000Y-67901000I0J-250000D01*
G01*
X130225000Y-68401000D01*
G75*
G02*
X129975000Y-68651000I-250000J0D01*
G01*
G37*
%TD*%
%TO.C,C10*%
G36*
G01*
X127725000Y-68651000D02*
X126775000Y-68651000D01*
G75*
G02*
X126525000Y-68401000I0J250000D01*
G01*
X126525000Y-67901000D01*
G75*
G02*
X126775000Y-67651000I250000J0D01*
G01*
X127725000Y-67651000D01*
G75*
G02*
X127975000Y-67901000I0J-250000D01*
G01*
X127975000Y-68401000D01*
G75*
G02*
X127725000Y-68651000I-250000J0D01*
G01*
G37*
G36*
G01*
X127725000Y-66751000D02*
X126775000Y-66751000D01*
G75*
G02*
X126525000Y-66501000I0J250000D01*
G01*
X126525000Y-66001000D01*
G75*
G02*
X126775000Y-65751000I250000J0D01*
G01*
X127725000Y-65751000D01*
G75*
G02*
X127975000Y-66001000I0J-250000D01*
G01*
X127975000Y-66501000D01*
G75*
G02*
X127725000Y-66751000I-250000J0D01*
G01*
G37*
%TD*%
D15*
%TO.C,D1*%
X142540000Y-81733532D03*
D16*
X140000000Y-81733532D03*
%TD*%
%TO.C,D2*%
X140000000Y-72410000D03*
D15*
X142540000Y-72410000D03*
%TD*%
%TO.C,D3*%
X142540000Y-67590000D03*
D16*
X140000000Y-67590000D03*
%TD*%
%TO.C,D4*%
X140000000Y-63016468D03*
D15*
X142540000Y-63016468D03*
%TD*%
%TO.C,D5*%
X142540000Y-77230000D03*
D16*
X140000000Y-77230000D03*
%TD*%
%TO.C,L1*%
G36*
G01*
X118000000Y-75618750D02*
X118000000Y-76381250D01*
G75*
G02*
X117781250Y-76600000I-218750J0D01*
G01*
X117343750Y-76600000D01*
G75*
G02*
X117125000Y-76381250I0J218750D01*
G01*
X117125000Y-75618750D01*
G75*
G02*
X117343750Y-75400000I218750J0D01*
G01*
X117781250Y-75400000D01*
G75*
G02*
X118000000Y-75618750I0J-218750D01*
G01*
G37*
G36*
G01*
X115875000Y-75618750D02*
X115875000Y-76381250D01*
G75*
G02*
X115656250Y-76600000I-218750J0D01*
G01*
X115218750Y-76600000D01*
G75*
G02*
X115000000Y-76381250I0J218750D01*
G01*
X115000000Y-75618750D01*
G75*
G02*
X115218750Y-75400000I218750J0D01*
G01*
X115656250Y-75400000D01*
G75*
G02*
X115875000Y-75618750I0J-218750D01*
G01*
G37*
%TD*%
D17*
%TO.C,R2*%
X146250000Y-77230000D03*
D18*
X156410000Y-77230000D03*
%TD*%
%TO.C,R3*%
X156410000Y-72410000D03*
D17*
X146250000Y-72410000D03*
%TD*%
%TO.C,R4*%
X156410000Y-62770000D03*
D18*
X146250000Y-62770000D03*
%TD*%
%TO.C,R5*%
X146250000Y-67590000D03*
D17*
X156410000Y-67590000D03*
%TD*%
D19*
%TO.C,Y1*%
X112300000Y-63960000D03*
X112300000Y-66500000D03*
X112300000Y-69040000D03*
X112300000Y-71580000D03*
X125000000Y-70691000D03*
X125000000Y-68151000D03*
X125000000Y-65611000D03*
X125000000Y-63071000D03*
X114459000Y-73612000D03*
X116999000Y-73612000D03*
X119539000Y-73612000D03*
X122079000Y-73612000D03*
X114713000Y-60912000D03*
X117253000Y-60912000D03*
X119793000Y-60912000D03*
X122333000Y-60912000D03*
%TD*%
D20*
%TO.C,J1*%
X146750000Y-56500000D03*
D21*
X143250000Y-56500000D03*
X139750000Y-56500000D03*
%TD*%
D18*
%TO.C,C1*%
X140218234Y-85250000D03*
X142718234Y-85250000D03*
%TD*%
D22*
%TO.C,JP1*%
X128375000Y-60710000D03*
D23*
X128375000Y-63250000D03*
%TD*%
D18*
%TO.C,R1*%
X134750000Y-62320000D03*
D17*
X134750000Y-77560000D03*
%TD*%
M02*
