%TF.GenerationSoftware,KiCad,Pcbnew,(5.1.8)-1*%
%TF.CreationDate,2021-02-09T11:56:48+01:00*%
%TF.ProjectId,500-1000-cvco,3530302d-3130-4303-902d-6376636f2e6b,rev?*%
%TF.SameCoordinates,Original*%
%TF.FileFunction,Copper,L1,Top*%
%TF.FilePolarity,Positive*%
%FSLAX46Y46*%
G04 Gerber Fmt 4.6, Leading zero omitted, Abs format (unit mm)*
G04 Created by KiCad (PCBNEW (5.1.8)-1) date 2021-02-09 11:56:48*
%MOMM*%
%LPD*%
G01*
G04 APERTURE LIST*
%TA.AperFunction,Profile*%
%ADD10C,0.050000*%
%TD*%
%TA.AperFunction,SMDPad,CuDef*%
%ADD11R,5.080000X1.500000*%
%TD*%
%TA.AperFunction,ComponentPad*%
%ADD12C,0.800000*%
%TD*%
%TA.AperFunction,ComponentPad*%
%ADD13C,6.400000*%
%TD*%
%TA.AperFunction,ComponentPad*%
%ADD14R,2.200000X2.200000*%
%TD*%
%TA.AperFunction,ComponentPad*%
%ADD15O,2.200000X2.200000*%
%TD*%
%TA.AperFunction,ComponentPad*%
%ADD16O,1.600000X1.600000*%
%TD*%
%TA.AperFunction,ComponentPad*%
%ADD17C,1.600000*%
%TD*%
%TA.AperFunction,SMDPad,CuDef*%
%ADD18R,1.320000X1.320000*%
%TD*%
%TA.AperFunction,ComponentPad*%
%ADD19R,2.600000X2.600000*%
%TD*%
%TA.AperFunction,ComponentPad*%
%ADD20C,2.600000*%
%TD*%
%TA.AperFunction,ComponentPad*%
%ADD21R,1.700000X1.700000*%
%TD*%
%TA.AperFunction,ComponentPad*%
%ADD22O,1.700000X1.700000*%
%TD*%
%TA.AperFunction,Conductor*%
%ADD23C,0.250000*%
%TD*%
%TA.AperFunction,Conductor*%
%ADD24C,0.784566*%
%TD*%
%TA.AperFunction,Conductor*%
%ADD25C,0.525491*%
%TD*%
%TA.AperFunction,Conductor*%
%ADD26C,0.075000*%
%TD*%
%TA.AperFunction,Conductor*%
%ADD27C,0.100000*%
%TD*%
G04 APERTURE END LIST*
D10*
X105000000Y-90000000D02*
G75*
G02*
X100000000Y-85000000I0J5000000D01*
G01*
X160000000Y-85000000D02*
G75*
G02*
X155000000Y-90000000I-5000000J0D01*
G01*
X155000000Y-50000000D02*
G75*
G02*
X160000000Y-55000000I0J-5000000D01*
G01*
X100000000Y-55000000D02*
G75*
G02*
X105000000Y-50000000I5000000J0D01*
G01*
X100000000Y-85000000D02*
X100000000Y-55000000D01*
X155000000Y-90000000D02*
X105000000Y-90000000D01*
X160000000Y-55000000D02*
X160000000Y-85000000D01*
X105000000Y-50000000D02*
X155000000Y-50000000D01*
D11*
%TO.P,J2,1*%
%TO.N,Net-(C8-Pad1)*%
X103000000Y-66500000D03*
%TO.P,J2,2*%
%TO.N,GND*%
X103000000Y-70750000D03*
X103000000Y-62250000D03*
%TD*%
D12*
%TO.P,H1,1*%
%TO.N,GND*%
X107697056Y-54302944D03*
X106000000Y-53600000D03*
X104302944Y-54302944D03*
X103600000Y-56000000D03*
X104302944Y-57697056D03*
X106000000Y-58400000D03*
X107697056Y-57697056D03*
X108400000Y-56000000D03*
D13*
X106000000Y-56000000D03*
%TD*%
%TO.P,H2,1*%
%TO.N,GND*%
X154010000Y-56000000D03*
D12*
X156410000Y-56000000D03*
X155707056Y-57697056D03*
X154010000Y-58400000D03*
X152312944Y-57697056D03*
X151610000Y-56000000D03*
X152312944Y-54302944D03*
X154010000Y-53600000D03*
X155707056Y-54302944D03*
%TD*%
%TO.P,H3,1*%
%TO.N,GND*%
X107697056Y-82302944D03*
X106000000Y-81600000D03*
X104302944Y-82302944D03*
X103600000Y-84000000D03*
X104302944Y-85697056D03*
X106000000Y-86400000D03*
X107697056Y-85697056D03*
X108400000Y-84000000D03*
D13*
X106000000Y-84000000D03*
%TD*%
%TO.P,H4,1*%
%TO.N,GND*%
X154010000Y-84000000D03*
D12*
X156410000Y-84000000D03*
X155707056Y-85697056D03*
X154010000Y-86400000D03*
X152312944Y-85697056D03*
X151610000Y-84000000D03*
X152312944Y-82302944D03*
X154010000Y-81600000D03*
X155707056Y-82302944D03*
%TD*%
%TO.P,C2,1*%
%TO.N,Net-(C2-Pad1)*%
%TA.AperFunction,SMDPad,CuDef*%
G36*
G01*
X130525000Y-76100000D02*
X131475000Y-76100000D01*
G75*
G02*
X131725000Y-76350000I0J-250000D01*
G01*
X131725000Y-76850000D01*
G75*
G02*
X131475000Y-77100000I-250000J0D01*
G01*
X130525000Y-77100000D01*
G75*
G02*
X130275000Y-76850000I0J250000D01*
G01*
X130275000Y-76350000D01*
G75*
G02*
X130525000Y-76100000I250000J0D01*
G01*
G37*
%TD.AperFunction*%
%TO.P,C2,2*%
%TO.N,GND*%
%TA.AperFunction,SMDPad,CuDef*%
G36*
G01*
X130525000Y-78000000D02*
X131475000Y-78000000D01*
G75*
G02*
X131725000Y-78250000I0J-250000D01*
G01*
X131725000Y-78750000D01*
G75*
G02*
X131475000Y-79000000I-250000J0D01*
G01*
X130525000Y-79000000D01*
G75*
G02*
X130275000Y-78750000I0J250000D01*
G01*
X130275000Y-78250000D01*
G75*
G02*
X130525000Y-78000000I250000J0D01*
G01*
G37*
%TD.AperFunction*%
%TD*%
%TO.P,C3,1*%
%TO.N,Net-(C2-Pad1)*%
%TA.AperFunction,SMDPad,CuDef*%
G36*
G01*
X128325000Y-76100000D02*
X129275000Y-76100000D01*
G75*
G02*
X129525000Y-76350000I0J-250000D01*
G01*
X129525000Y-76850000D01*
G75*
G02*
X129275000Y-77100000I-250000J0D01*
G01*
X128325000Y-77100000D01*
G75*
G02*
X128075000Y-76850000I0J250000D01*
G01*
X128075000Y-76350000D01*
G75*
G02*
X128325000Y-76100000I250000J0D01*
G01*
G37*
%TD.AperFunction*%
%TO.P,C3,2*%
%TO.N,GND*%
%TA.AperFunction,SMDPad,CuDef*%
G36*
G01*
X128325000Y-78000000D02*
X129275000Y-78000000D01*
G75*
G02*
X129525000Y-78250000I0J-250000D01*
G01*
X129525000Y-78750000D01*
G75*
G02*
X129275000Y-79000000I-250000J0D01*
G01*
X128325000Y-79000000D01*
G75*
G02*
X128075000Y-78750000I0J250000D01*
G01*
X128075000Y-78250000D01*
G75*
G02*
X128325000Y-78000000I250000J0D01*
G01*
G37*
%TD.AperFunction*%
%TD*%
%TO.P,C4,2*%
%TO.N,GND*%
%TA.AperFunction,SMDPad,CuDef*%
G36*
G01*
X126125000Y-78000000D02*
X127075000Y-78000000D01*
G75*
G02*
X127325000Y-78250000I0J-250000D01*
G01*
X127325000Y-78750000D01*
G75*
G02*
X127075000Y-79000000I-250000J0D01*
G01*
X126125000Y-79000000D01*
G75*
G02*
X125875000Y-78750000I0J250000D01*
G01*
X125875000Y-78250000D01*
G75*
G02*
X126125000Y-78000000I250000J0D01*
G01*
G37*
%TD.AperFunction*%
%TO.P,C4,1*%
%TO.N,Net-(C2-Pad1)*%
%TA.AperFunction,SMDPad,CuDef*%
G36*
G01*
X126125000Y-76100000D02*
X127075000Y-76100000D01*
G75*
G02*
X127325000Y-76350000I0J-250000D01*
G01*
X127325000Y-76850000D01*
G75*
G02*
X127075000Y-77100000I-250000J0D01*
G01*
X126125000Y-77100000D01*
G75*
G02*
X125875000Y-76850000I0J250000D01*
G01*
X125875000Y-76350000D01*
G75*
G02*
X126125000Y-76100000I250000J0D01*
G01*
G37*
%TD.AperFunction*%
%TD*%
%TO.P,C5,1*%
%TO.N,Net-(C2-Pad1)*%
%TA.AperFunction,SMDPad,CuDef*%
G36*
G01*
X123925000Y-76100000D02*
X124875000Y-76100000D01*
G75*
G02*
X125125000Y-76350000I0J-250000D01*
G01*
X125125000Y-76850000D01*
G75*
G02*
X124875000Y-77100000I-250000J0D01*
G01*
X123925000Y-77100000D01*
G75*
G02*
X123675000Y-76850000I0J250000D01*
G01*
X123675000Y-76350000D01*
G75*
G02*
X123925000Y-76100000I250000J0D01*
G01*
G37*
%TD.AperFunction*%
%TO.P,C5,2*%
%TO.N,GND*%
%TA.AperFunction,SMDPad,CuDef*%
G36*
G01*
X123925000Y-78000000D02*
X124875000Y-78000000D01*
G75*
G02*
X125125000Y-78250000I0J-250000D01*
G01*
X125125000Y-78750000D01*
G75*
G02*
X124875000Y-79000000I-250000J0D01*
G01*
X123925000Y-79000000D01*
G75*
G02*
X123675000Y-78750000I0J250000D01*
G01*
X123675000Y-78250000D01*
G75*
G02*
X123925000Y-78000000I250000J0D01*
G01*
G37*
%TD.AperFunction*%
%TD*%
%TO.P,C6,2*%
%TO.N,GND*%
%TA.AperFunction,SMDPad,CuDef*%
G36*
G01*
X121725000Y-78000000D02*
X122675000Y-78000000D01*
G75*
G02*
X122925000Y-78250000I0J-250000D01*
G01*
X122925000Y-78750000D01*
G75*
G02*
X122675000Y-79000000I-250000J0D01*
G01*
X121725000Y-79000000D01*
G75*
G02*
X121475000Y-78750000I0J250000D01*
G01*
X121475000Y-78250000D01*
G75*
G02*
X121725000Y-78000000I250000J0D01*
G01*
G37*
%TD.AperFunction*%
%TO.P,C6,1*%
%TO.N,Net-(C2-Pad1)*%
%TA.AperFunction,SMDPad,CuDef*%
G36*
G01*
X121725000Y-76100000D02*
X122675000Y-76100000D01*
G75*
G02*
X122925000Y-76350000I0J-250000D01*
G01*
X122925000Y-76850000D01*
G75*
G02*
X122675000Y-77100000I-250000J0D01*
G01*
X121725000Y-77100000D01*
G75*
G02*
X121475000Y-76850000I0J250000D01*
G01*
X121475000Y-76350000D01*
G75*
G02*
X121725000Y-76100000I250000J0D01*
G01*
G37*
%TD.AperFunction*%
%TD*%
%TO.P,C7,1*%
%TO.N,Net-(C2-Pad1)*%
%TA.AperFunction,SMDPad,CuDef*%
G36*
G01*
X119525000Y-76100000D02*
X120475000Y-76100000D01*
G75*
G02*
X120725000Y-76350000I0J-250000D01*
G01*
X120725000Y-76850000D01*
G75*
G02*
X120475000Y-77100000I-250000J0D01*
G01*
X119525000Y-77100000D01*
G75*
G02*
X119275000Y-76850000I0J250000D01*
G01*
X119275000Y-76350000D01*
G75*
G02*
X119525000Y-76100000I250000J0D01*
G01*
G37*
%TD.AperFunction*%
%TO.P,C7,2*%
%TO.N,GND*%
%TA.AperFunction,SMDPad,CuDef*%
G36*
G01*
X119525000Y-78000000D02*
X120475000Y-78000000D01*
G75*
G02*
X120725000Y-78250000I0J-250000D01*
G01*
X120725000Y-78750000D01*
G75*
G02*
X120475000Y-79000000I-250000J0D01*
G01*
X119525000Y-79000000D01*
G75*
G02*
X119275000Y-78750000I0J250000D01*
G01*
X119275000Y-78250000D01*
G75*
G02*
X119525000Y-78000000I250000J0D01*
G01*
G37*
%TD.AperFunction*%
%TD*%
%TO.P,C8,2*%
%TO.N,Net-(C8-Pad2)*%
%TA.AperFunction,SMDPad,CuDef*%
G36*
G01*
X109517500Y-66975000D02*
X109517500Y-66025000D01*
G75*
G02*
X109767500Y-65775000I250000J0D01*
G01*
X110267500Y-65775000D01*
G75*
G02*
X110517500Y-66025000I0J-250000D01*
G01*
X110517500Y-66975000D01*
G75*
G02*
X110267500Y-67225000I-250000J0D01*
G01*
X109767500Y-67225000D01*
G75*
G02*
X109517500Y-66975000I0J250000D01*
G01*
G37*
%TD.AperFunction*%
%TO.P,C8,1*%
%TO.N,Net-(C8-Pad1)*%
%TA.AperFunction,SMDPad,CuDef*%
G36*
G01*
X107617500Y-66975000D02*
X107617500Y-66025000D01*
G75*
G02*
X107867500Y-65775000I250000J0D01*
G01*
X108367500Y-65775000D01*
G75*
G02*
X108617500Y-66025000I0J-250000D01*
G01*
X108617500Y-66975000D01*
G75*
G02*
X108367500Y-67225000I-250000J0D01*
G01*
X107867500Y-67225000D01*
G75*
G02*
X107617500Y-66975000I0J250000D01*
G01*
G37*
%TD.AperFunction*%
%TD*%
%TO.P,C9,2*%
%TO.N,Net-(C10-Pad2)*%
%TA.AperFunction,SMDPad,CuDef*%
G36*
G01*
X129975000Y-66751000D02*
X129025000Y-66751000D01*
G75*
G02*
X128775000Y-66501000I0J250000D01*
G01*
X128775000Y-66001000D01*
G75*
G02*
X129025000Y-65751000I250000J0D01*
G01*
X129975000Y-65751000D01*
G75*
G02*
X130225000Y-66001000I0J-250000D01*
G01*
X130225000Y-66501000D01*
G75*
G02*
X129975000Y-66751000I-250000J0D01*
G01*
G37*
%TD.AperFunction*%
%TO.P,C9,1*%
%TO.N,Net-(C10-Pad1)*%
%TA.AperFunction,SMDPad,CuDef*%
G36*
G01*
X129975000Y-68651000D02*
X129025000Y-68651000D01*
G75*
G02*
X128775000Y-68401000I0J250000D01*
G01*
X128775000Y-67901000D01*
G75*
G02*
X129025000Y-67651000I250000J0D01*
G01*
X129975000Y-67651000D01*
G75*
G02*
X130225000Y-67901000I0J-250000D01*
G01*
X130225000Y-68401000D01*
G75*
G02*
X129975000Y-68651000I-250000J0D01*
G01*
G37*
%TD.AperFunction*%
%TD*%
%TO.P,C10,1*%
%TO.N,Net-(C10-Pad1)*%
%TA.AperFunction,SMDPad,CuDef*%
G36*
G01*
X127725000Y-68651000D02*
X126775000Y-68651000D01*
G75*
G02*
X126525000Y-68401000I0J250000D01*
G01*
X126525000Y-67901000D01*
G75*
G02*
X126775000Y-67651000I250000J0D01*
G01*
X127725000Y-67651000D01*
G75*
G02*
X127975000Y-67901000I0J-250000D01*
G01*
X127975000Y-68401000D01*
G75*
G02*
X127725000Y-68651000I-250000J0D01*
G01*
G37*
%TD.AperFunction*%
%TO.P,C10,2*%
%TO.N,Net-(C10-Pad2)*%
%TA.AperFunction,SMDPad,CuDef*%
G36*
G01*
X127725000Y-66751000D02*
X126775000Y-66751000D01*
G75*
G02*
X126525000Y-66501000I0J250000D01*
G01*
X126525000Y-66001000D01*
G75*
G02*
X126775000Y-65751000I250000J0D01*
G01*
X127725000Y-65751000D01*
G75*
G02*
X127975000Y-66001000I0J-250000D01*
G01*
X127975000Y-66501000D01*
G75*
G02*
X127725000Y-66751000I-250000J0D01*
G01*
G37*
%TD.AperFunction*%
%TD*%
D14*
%TO.P,D1,1*%
%TO.N,Net-(C1-Pad1)*%
X142540000Y-81733532D03*
D15*
%TO.P,D1,2*%
%TO.N,GND*%
X140000000Y-81733532D03*
%TD*%
%TO.P,D2,2*%
%TO.N,Net-(D2-Pad2)*%
X140000000Y-72410000D03*
D14*
%TO.P,D2,1*%
%TO.N,Net-(C10-Pad1)*%
X142540000Y-72410000D03*
%TD*%
%TO.P,D3,1*%
%TO.N,Net-(D3-Pad1)*%
X142540000Y-67590000D03*
D15*
%TO.P,D3,2*%
%TO.N,Net-(D2-Pad2)*%
X140000000Y-67590000D03*
%TD*%
%TO.P,D4,2*%
%TO.N,Net-(D3-Pad1)*%
X140000000Y-63016468D03*
D14*
%TO.P,D4,1*%
%TO.N,GND*%
X142540000Y-63016468D03*
%TD*%
%TO.P,D5,1*%
%TO.N,Net-(C10-Pad1)*%
X142540000Y-77230000D03*
D15*
%TO.P,D5,2*%
%TO.N,GND*%
X140000000Y-77230000D03*
%TD*%
%TO.P,L1,1*%
%TO.N,Net-(C2-Pad1)*%
%TA.AperFunction,SMDPad,CuDef*%
G36*
G01*
X118000000Y-75618750D02*
X118000000Y-76381250D01*
G75*
G02*
X117781250Y-76600000I-218750J0D01*
G01*
X117343750Y-76600000D01*
G75*
G02*
X117125000Y-76381250I0J218750D01*
G01*
X117125000Y-75618750D01*
G75*
G02*
X117343750Y-75400000I218750J0D01*
G01*
X117781250Y-75400000D01*
G75*
G02*
X118000000Y-75618750I0J-218750D01*
G01*
G37*
%TD.AperFunction*%
%TO.P,L1,2*%
%TO.N,Net-(L1-Pad2)*%
%TA.AperFunction,SMDPad,CuDef*%
G36*
G01*
X115875000Y-75618750D02*
X115875000Y-76381250D01*
G75*
G02*
X115656250Y-76600000I-218750J0D01*
G01*
X115218750Y-76600000D01*
G75*
G02*
X115000000Y-76381250I0J218750D01*
G01*
X115000000Y-75618750D01*
G75*
G02*
X115218750Y-75400000I218750J0D01*
G01*
X115656250Y-75400000D01*
G75*
G02*
X115875000Y-75618750I0J-218750D01*
G01*
G37*
%TD.AperFunction*%
%TD*%
D16*
%TO.P,R2,2*%
%TO.N,Net-(C2-Pad1)*%
X146250000Y-77230000D03*
D17*
%TO.P,R2,1*%
%TO.N,Net-(C1-Pad1)*%
X156410000Y-77230000D03*
%TD*%
%TO.P,R3,1*%
%TO.N,Net-(C2-Pad1)*%
X156410000Y-72410000D03*
D16*
%TO.P,R3,2*%
%TO.N,GND*%
X146250000Y-72410000D03*
%TD*%
%TO.P,R4,2*%
%TO.N,+24V*%
X156410000Y-62770000D03*
D17*
%TO.P,R4,1*%
%TO.N,Net-(D2-Pad2)*%
X146250000Y-62770000D03*
%TD*%
%TO.P,R5,1*%
%TO.N,Net-(C10-Pad1)*%
X146250000Y-67590000D03*
D16*
%TO.P,R5,2*%
%TO.N,TUNE*%
X156410000Y-67590000D03*
%TD*%
D18*
%TO.P,Y1,9*%
%TO.N,GND*%
X112300000Y-63960000D03*
%TO.P,Y1,10*%
%TO.N,Net-(C8-Pad2)*%
X112300000Y-66500000D03*
%TO.P,Y1,11*%
%TO.N,GND*%
X112300000Y-69040000D03*
%TO.P,Y1,12*%
X112300000Y-71580000D03*
%TO.P,Y1,1*%
X125000000Y-70691000D03*
%TO.P,Y1,2*%
%TO.N,Net-(C10-Pad1)*%
X125000000Y-68151000D03*
%TO.P,Y1,3*%
%TO.N,GND*%
X125000000Y-65611000D03*
%TO.P,Y1,4*%
X125000000Y-63071000D03*
%TO.P,Y1,13*%
X114459000Y-73612000D03*
%TO.P,Y1,14*%
%TO.N,Net-(L1-Pad2)*%
X116999000Y-73612000D03*
%TO.P,Y1,15*%
%TO.N,GND*%
X119539000Y-73612000D03*
%TO.P,Y1,16*%
X122079000Y-73612000D03*
%TO.P,Y1,8*%
X114713000Y-60912000D03*
%TO.P,Y1,7*%
X117253000Y-60912000D03*
%TO.P,Y1,6*%
X119793000Y-60912000D03*
%TO.P,Y1,5*%
X122333000Y-60912000D03*
%TD*%
D19*
%TO.P,J1,1*%
%TO.N,+24V*%
X146750000Y-56500000D03*
D20*
%TO.P,J1,2*%
%TO.N,TUNE*%
X143250000Y-56500000D03*
%TO.P,J1,3*%
%TO.N,GND*%
X139750000Y-56500000D03*
%TD*%
D17*
%TO.P,C1,1*%
%TO.N,Net-(C1-Pad1)*%
X140218234Y-85250000D03*
%TO.P,C1,2*%
%TO.N,GND*%
X142718234Y-85250000D03*
%TD*%
D21*
%TO.P,JP1,1*%
%TO.N,GND*%
X128375000Y-60710000D03*
D22*
%TO.P,JP1,2*%
%TO.N,Net-(C10-Pad2)*%
X128375000Y-63250000D03*
%TD*%
D17*
%TO.P,R1,1*%
%TO.N,+24V*%
X134750000Y-62320000D03*
D16*
%TO.P,R1,2*%
%TO.N,Net-(C1-Pad1)*%
X134750000Y-77560000D03*
%TD*%
D23*
%TO.N,Net-(C1-Pad1)*%
X140218234Y-84055298D02*
X142540000Y-81733532D01*
X140218234Y-85250000D02*
X140218234Y-84055298D01*
X153081766Y-77230000D02*
X156410000Y-77230000D01*
X148578234Y-81733532D02*
X153081766Y-77230000D01*
X142540000Y-81733532D02*
X148578234Y-81733532D01*
X134750000Y-85350000D02*
X134750000Y-77560000D01*
X136800000Y-87400000D02*
X134750000Y-85350000D01*
X139400000Y-87400000D02*
X136800000Y-87400000D01*
X140218234Y-86581766D02*
X139400000Y-87400000D01*
X140218234Y-85250000D02*
X140218234Y-86581766D01*
%TO.N,Net-(C2-Pad1)*%
X118162500Y-76600000D02*
X117562500Y-76000000D01*
X131000000Y-76600000D02*
X118162500Y-76600000D01*
X151070000Y-72410000D02*
X146250000Y-77230000D01*
X156410000Y-72410000D02*
X151070000Y-72410000D01*
X144080000Y-79400000D02*
X146250000Y-77230000D01*
X135200000Y-75600000D02*
X139000000Y-79400000D01*
X139000000Y-79400000D02*
X144080000Y-79400000D01*
X132000000Y-75600000D02*
X135200000Y-75600000D01*
X131000000Y-76600000D02*
X132000000Y-75600000D01*
D24*
%TO.N,Net-(C8-Pad2)*%
X110017500Y-66500000D02*
X112300000Y-66500000D01*
%TO.N,Net-(C8-Pad1)*%
X108117500Y-66500000D02*
X103000000Y-66500000D01*
D23*
%TO.N,Net-(C10-Pad1)*%
X129500000Y-68151000D02*
X125000000Y-68151000D01*
X142540000Y-71300000D02*
X146250000Y-67590000D01*
X142540000Y-77230000D02*
X142540000Y-71300000D01*
X129500000Y-68151000D02*
X136149000Y-74800000D01*
X136149000Y-74800000D02*
X140110000Y-74800000D01*
X140110000Y-74800000D02*
X142540000Y-77230000D01*
%TO.N,Net-(D2-Pad2)*%
X140000000Y-72410000D02*
X140000000Y-67590000D01*
X138000000Y-62000000D02*
X138000000Y-65590000D01*
X138900000Y-61100000D02*
X138000000Y-62000000D01*
X144580000Y-61100000D02*
X138900000Y-61100000D01*
X138000000Y-65590000D02*
X140000000Y-67590000D01*
X146250000Y-62770000D02*
X144580000Y-61100000D01*
%TO.N,Net-(D3-Pad1)*%
X140000000Y-65050000D02*
X142540000Y-67590000D01*
X140000000Y-63016468D02*
X140000000Y-65050000D01*
D25*
%TO.N,+24V*%
X153020000Y-62770000D02*
X156410000Y-62770000D01*
X146750000Y-56500000D02*
X153020000Y-62770000D01*
X134750000Y-56500000D02*
X134750000Y-62320000D01*
X137750000Y-53500000D02*
X134750000Y-56500000D01*
X143750000Y-53500000D02*
X137750000Y-53500000D01*
X146750000Y-56500000D02*
X143750000Y-53500000D01*
%TO.N,TUNE*%
X154590000Y-67590000D02*
X156410000Y-67590000D01*
X147000000Y-60000000D02*
X154590000Y-67590000D01*
X144500000Y-60000000D02*
X147000000Y-60000000D01*
X143250000Y-58750000D02*
X144500000Y-60000000D01*
X143250000Y-56500000D02*
X143250000Y-58750000D01*
D23*
%TO.N,Net-(L1-Pad2)*%
X115437500Y-75173500D02*
X116999000Y-73612000D01*
X115437500Y-76000000D02*
X115437500Y-75173500D01*
%TO.N,Net-(C10-Pad2)*%
X129500000Y-66251000D02*
X127250000Y-66251000D01*
X128375000Y-65126000D02*
X127250000Y-66251000D01*
X128375000Y-63250000D02*
X128375000Y-65126000D01*
%TD*%
D26*
%TO.N,GND*%
X155847648Y-50288995D02*
X156668493Y-50513553D01*
X157436602Y-50879923D01*
X158127699Y-51376526D01*
X158719930Y-51987661D01*
X159194579Y-52694015D01*
X159536640Y-53473248D01*
X159735699Y-54302391D01*
X159787500Y-55007787D01*
X159787501Y-84990522D01*
X159711005Y-85847643D01*
X159486446Y-86668495D01*
X159120076Y-87436605D01*
X158623472Y-88127702D01*
X158012339Y-88719930D01*
X157305985Y-89194579D01*
X156526752Y-89536640D01*
X155697610Y-89735699D01*
X154992213Y-89787500D01*
X105009467Y-89787500D01*
X104152357Y-89711005D01*
X103331505Y-89486446D01*
X102563395Y-89120076D01*
X101872298Y-88623472D01*
X101280070Y-88012339D01*
X100805421Y-87305985D01*
X100463360Y-86526752D01*
X100264301Y-85697610D01*
X100212500Y-84992213D01*
X100212500Y-77457815D01*
X133712500Y-77457815D01*
X133712500Y-77662185D01*
X133752371Y-77862628D01*
X133830579Y-78051441D01*
X133944121Y-78221368D01*
X134088632Y-78365879D01*
X134258559Y-78479421D01*
X134387501Y-78532830D01*
X134387500Y-85332204D01*
X134385747Y-85350000D01*
X134387500Y-85367796D01*
X134387500Y-85367797D01*
X134392746Y-85421061D01*
X134402243Y-85452368D01*
X134413474Y-85489393D01*
X134447135Y-85552368D01*
X134471891Y-85582533D01*
X134492434Y-85607565D01*
X134506259Y-85618911D01*
X136531085Y-87643737D01*
X136542434Y-87657566D01*
X136556623Y-87669210D01*
X136597631Y-87702865D01*
X136632652Y-87721584D01*
X136660606Y-87736526D01*
X136728938Y-87757254D01*
X136782202Y-87762500D01*
X136782204Y-87762500D01*
X136800000Y-87764253D01*
X136817796Y-87762500D01*
X139382204Y-87762500D01*
X139400000Y-87764253D01*
X139417796Y-87762500D01*
X139417798Y-87762500D01*
X139471062Y-87757254D01*
X139539394Y-87736526D01*
X139602368Y-87702865D01*
X139657566Y-87657566D01*
X139668915Y-87643737D01*
X140461971Y-86850681D01*
X140475800Y-86839332D01*
X140502780Y-86806456D01*
X140521099Y-86784135D01*
X140554760Y-86721160D01*
X140575488Y-86652828D01*
X140580734Y-86599564D01*
X140580734Y-86599562D01*
X140582487Y-86581766D01*
X140580734Y-86563970D01*
X140580734Y-86222829D01*
X140709675Y-86169421D01*
X140879602Y-86055879D01*
X141024113Y-85911368D01*
X141137655Y-85741441D01*
X141215863Y-85552628D01*
X141255734Y-85352185D01*
X141255734Y-85147815D01*
X141215863Y-84947372D01*
X141137655Y-84758559D01*
X141024113Y-84588632D01*
X140879602Y-84444121D01*
X140709675Y-84330579D01*
X140580734Y-84277171D01*
X140580734Y-84205450D01*
X141714004Y-83072181D01*
X143640000Y-83072181D01*
X143686558Y-83067595D01*
X143731327Y-83054015D01*
X143772586Y-83031961D01*
X143808750Y-83002282D01*
X143838429Y-82966118D01*
X143860483Y-82924859D01*
X143874063Y-82880090D01*
X143878649Y-82833532D01*
X143878649Y-82096032D01*
X148560438Y-82096032D01*
X148578234Y-82097785D01*
X148596030Y-82096032D01*
X148596032Y-82096032D01*
X148649296Y-82090786D01*
X148717628Y-82070058D01*
X148780602Y-82036397D01*
X148835800Y-81991098D01*
X148847149Y-81977269D01*
X153231919Y-77592500D01*
X155437171Y-77592500D01*
X155490579Y-77721441D01*
X155604121Y-77891368D01*
X155748632Y-78035879D01*
X155918559Y-78149421D01*
X156107372Y-78227629D01*
X156307815Y-78267500D01*
X156512185Y-78267500D01*
X156712628Y-78227629D01*
X156901441Y-78149421D01*
X157071368Y-78035879D01*
X157215879Y-77891368D01*
X157329421Y-77721441D01*
X157407629Y-77532628D01*
X157447500Y-77332185D01*
X157447500Y-77127815D01*
X157407629Y-76927372D01*
X157329421Y-76738559D01*
X157215879Y-76568632D01*
X157071368Y-76424121D01*
X156901441Y-76310579D01*
X156712628Y-76232371D01*
X156512185Y-76192500D01*
X156307815Y-76192500D01*
X156107372Y-76232371D01*
X155918559Y-76310579D01*
X155748632Y-76424121D01*
X155604121Y-76568632D01*
X155490579Y-76738559D01*
X155437171Y-76867500D01*
X153099561Y-76867500D01*
X153081765Y-76865747D01*
X153063969Y-76867500D01*
X153063968Y-76867500D01*
X153010704Y-76872746D01*
X152942372Y-76893474D01*
X152879397Y-76927135D01*
X152842698Y-76957253D01*
X152824200Y-76972434D01*
X152812856Y-76986257D01*
X148428082Y-81371032D01*
X143878649Y-81371032D01*
X143878649Y-80633532D01*
X143874063Y-80586974D01*
X143860483Y-80542205D01*
X143838429Y-80500946D01*
X143808750Y-80464782D01*
X143772586Y-80435103D01*
X143731327Y-80413049D01*
X143686558Y-80399469D01*
X143640000Y-80394883D01*
X141440000Y-80394883D01*
X141393442Y-80399469D01*
X141348673Y-80413049D01*
X141307414Y-80435103D01*
X141271250Y-80464782D01*
X141241571Y-80500946D01*
X141219517Y-80542205D01*
X141205937Y-80586974D01*
X141201351Y-80633532D01*
X141201351Y-82559528D01*
X139974492Y-83786388D01*
X139960669Y-83797732D01*
X139949325Y-83811555D01*
X139949323Y-83811557D01*
X139915369Y-83852930D01*
X139881708Y-83915905D01*
X139860981Y-83984236D01*
X139853981Y-84055298D01*
X139855735Y-84073104D01*
X139855735Y-84277170D01*
X139726793Y-84330579D01*
X139556866Y-84444121D01*
X139412355Y-84588632D01*
X139298813Y-84758559D01*
X139220605Y-84947372D01*
X139180734Y-85147815D01*
X139180734Y-85352185D01*
X139220605Y-85552628D01*
X139298813Y-85741441D01*
X139412355Y-85911368D01*
X139556866Y-86055879D01*
X139726793Y-86169421D01*
X139855735Y-86222830D01*
X139855735Y-86431613D01*
X139249848Y-87037500D01*
X136950152Y-87037500D01*
X135112500Y-85199848D01*
X135112500Y-78532829D01*
X135241441Y-78479421D01*
X135411368Y-78365879D01*
X135555879Y-78221368D01*
X135669421Y-78051441D01*
X135747629Y-77862628D01*
X135787500Y-77662185D01*
X135787500Y-77457815D01*
X135747629Y-77257372D01*
X135669421Y-77068559D01*
X135555879Y-76898632D01*
X135411368Y-76754121D01*
X135241441Y-76640579D01*
X135052628Y-76562371D01*
X134852185Y-76522500D01*
X134647815Y-76522500D01*
X134447372Y-76562371D01*
X134258559Y-76640579D01*
X134088632Y-76754121D01*
X133944121Y-76898632D01*
X133830579Y-77068559D01*
X133752371Y-77257372D01*
X133712500Y-77457815D01*
X100212500Y-77457815D01*
X100212500Y-75618750D01*
X114761351Y-75618750D01*
X114761351Y-76381250D01*
X114770140Y-76470484D01*
X114796168Y-76556289D01*
X114838437Y-76635367D01*
X114895320Y-76704680D01*
X114964633Y-76761563D01*
X115043711Y-76803832D01*
X115129516Y-76829860D01*
X115218750Y-76838649D01*
X115656250Y-76838649D01*
X115745484Y-76829860D01*
X115831289Y-76803832D01*
X115910367Y-76761563D01*
X115979680Y-76704680D01*
X116036563Y-76635367D01*
X116078832Y-76556289D01*
X116104860Y-76470484D01*
X116113649Y-76381250D01*
X116113649Y-75618750D01*
X116886351Y-75618750D01*
X116886351Y-76381250D01*
X116895140Y-76470484D01*
X116921168Y-76556289D01*
X116963437Y-76635367D01*
X117020320Y-76704680D01*
X117089633Y-76761563D01*
X117168711Y-76803832D01*
X117254516Y-76829860D01*
X117343750Y-76838649D01*
X117781250Y-76838649D01*
X117870484Y-76829860D01*
X117877560Y-76827713D01*
X117893590Y-76843743D01*
X117904934Y-76857566D01*
X117918757Y-76868910D01*
X117918758Y-76868911D01*
X117960131Y-76902865D01*
X118005537Y-76927135D01*
X118023106Y-76936526D01*
X118091438Y-76957254D01*
X118144702Y-76962500D01*
X118144703Y-76962500D01*
X118162499Y-76964253D01*
X118180295Y-76962500D01*
X119050948Y-76962500D01*
X119073547Y-77036998D01*
X119118703Y-77121479D01*
X119179473Y-77195527D01*
X119253521Y-77256297D01*
X119338002Y-77301453D01*
X119429669Y-77329260D01*
X119525000Y-77338649D01*
X120475000Y-77338649D01*
X120570331Y-77329260D01*
X120661998Y-77301453D01*
X120746479Y-77256297D01*
X120820527Y-77195527D01*
X120881297Y-77121479D01*
X120926453Y-77036998D01*
X120949052Y-76962500D01*
X121250948Y-76962500D01*
X121273547Y-77036998D01*
X121318703Y-77121479D01*
X121379473Y-77195527D01*
X121453521Y-77256297D01*
X121538002Y-77301453D01*
X121629669Y-77329260D01*
X121725000Y-77338649D01*
X122675000Y-77338649D01*
X122770331Y-77329260D01*
X122861998Y-77301453D01*
X122946479Y-77256297D01*
X123020527Y-77195527D01*
X123081297Y-77121479D01*
X123126453Y-77036998D01*
X123149052Y-76962500D01*
X123450948Y-76962500D01*
X123473547Y-77036998D01*
X123518703Y-77121479D01*
X123579473Y-77195527D01*
X123653521Y-77256297D01*
X123738002Y-77301453D01*
X123829669Y-77329260D01*
X123925000Y-77338649D01*
X124875000Y-77338649D01*
X124970331Y-77329260D01*
X125061998Y-77301453D01*
X125146479Y-77256297D01*
X125220527Y-77195527D01*
X125281297Y-77121479D01*
X125326453Y-77036998D01*
X125349052Y-76962500D01*
X125650948Y-76962500D01*
X125673547Y-77036998D01*
X125718703Y-77121479D01*
X125779473Y-77195527D01*
X125853521Y-77256297D01*
X125938002Y-77301453D01*
X126029669Y-77329260D01*
X126125000Y-77338649D01*
X127075000Y-77338649D01*
X127170331Y-77329260D01*
X127261998Y-77301453D01*
X127346479Y-77256297D01*
X127420527Y-77195527D01*
X127481297Y-77121479D01*
X127526453Y-77036998D01*
X127549052Y-76962500D01*
X127850948Y-76962500D01*
X127873547Y-77036998D01*
X127918703Y-77121479D01*
X127979473Y-77195527D01*
X128053521Y-77256297D01*
X128138002Y-77301453D01*
X128229669Y-77329260D01*
X128325000Y-77338649D01*
X129275000Y-77338649D01*
X129370331Y-77329260D01*
X129461998Y-77301453D01*
X129546479Y-77256297D01*
X129620527Y-77195527D01*
X129681297Y-77121479D01*
X129726453Y-77036998D01*
X129749052Y-76962500D01*
X130050948Y-76962500D01*
X130073547Y-77036998D01*
X130118703Y-77121479D01*
X130179473Y-77195527D01*
X130253521Y-77256297D01*
X130338002Y-77301453D01*
X130429669Y-77329260D01*
X130525000Y-77338649D01*
X131475000Y-77338649D01*
X131570331Y-77329260D01*
X131661998Y-77301453D01*
X131746479Y-77256297D01*
X131820527Y-77195527D01*
X131881297Y-77121479D01*
X131926453Y-77036998D01*
X131954260Y-76945331D01*
X131963649Y-76850000D01*
X131963649Y-76350000D01*
X131954260Y-76254669D01*
X131931852Y-76180800D01*
X132150152Y-75962500D01*
X135049848Y-75962500D01*
X138731085Y-79643737D01*
X138742434Y-79657566D01*
X138797632Y-79702865D01*
X138860606Y-79736526D01*
X138928938Y-79757254D01*
X139000000Y-79764253D01*
X139017798Y-79762500D01*
X144062204Y-79762500D01*
X144080000Y-79764253D01*
X144097796Y-79762500D01*
X144097798Y-79762500D01*
X144151062Y-79757254D01*
X144219394Y-79736526D01*
X144282368Y-79702865D01*
X144337566Y-79657566D01*
X144348915Y-79643737D01*
X145818431Y-78174221D01*
X145947372Y-78227629D01*
X146147815Y-78267500D01*
X146352185Y-78267500D01*
X146552628Y-78227629D01*
X146741441Y-78149421D01*
X146911368Y-78035879D01*
X147055879Y-77891368D01*
X147169421Y-77721441D01*
X147247629Y-77532628D01*
X147287500Y-77332185D01*
X147287500Y-77127815D01*
X147247629Y-76927372D01*
X147194221Y-76798431D01*
X151220153Y-72772500D01*
X155437171Y-72772500D01*
X155490579Y-72901441D01*
X155604121Y-73071368D01*
X155748632Y-73215879D01*
X155918559Y-73329421D01*
X156107372Y-73407629D01*
X156307815Y-73447500D01*
X156512185Y-73447500D01*
X156712628Y-73407629D01*
X156901441Y-73329421D01*
X157071368Y-73215879D01*
X157215879Y-73071368D01*
X157329421Y-72901441D01*
X157407629Y-72712628D01*
X157447500Y-72512185D01*
X157447500Y-72307815D01*
X157407629Y-72107372D01*
X157329421Y-71918559D01*
X157215879Y-71748632D01*
X157071368Y-71604121D01*
X156901441Y-71490579D01*
X156712628Y-71412371D01*
X156512185Y-71372500D01*
X156307815Y-71372500D01*
X156107372Y-71412371D01*
X155918559Y-71490579D01*
X155748632Y-71604121D01*
X155604121Y-71748632D01*
X155490579Y-71918559D01*
X155437171Y-72047500D01*
X151087795Y-72047500D01*
X151069999Y-72045747D01*
X151052203Y-72047500D01*
X151052202Y-72047500D01*
X150998938Y-72052746D01*
X150930606Y-72073474D01*
X150867632Y-72107135D01*
X150812434Y-72152434D01*
X150801090Y-72166257D01*
X146681569Y-76285779D01*
X146552628Y-76232371D01*
X146352185Y-76192500D01*
X146147815Y-76192500D01*
X145947372Y-76232371D01*
X145758559Y-76310579D01*
X145588632Y-76424121D01*
X145444121Y-76568632D01*
X145330579Y-76738559D01*
X145252371Y-76927372D01*
X145212500Y-77127815D01*
X145212500Y-77332185D01*
X145252371Y-77532628D01*
X145305779Y-77661569D01*
X143929848Y-79037500D01*
X139150152Y-79037500D01*
X135468915Y-75356263D01*
X135457566Y-75342434D01*
X135402368Y-75297135D01*
X135339394Y-75263474D01*
X135271062Y-75242746D01*
X135217798Y-75237500D01*
X135217796Y-75237500D01*
X135200000Y-75235747D01*
X135182204Y-75237500D01*
X132017796Y-75237500D01*
X132000000Y-75235747D01*
X131982204Y-75237500D01*
X131982202Y-75237500D01*
X131928938Y-75242746D01*
X131860606Y-75263474D01*
X131797632Y-75297135D01*
X131742434Y-75342434D01*
X131731085Y-75356263D01*
X131225997Y-75861351D01*
X130525000Y-75861351D01*
X130429669Y-75870740D01*
X130338002Y-75898547D01*
X130253521Y-75943703D01*
X130179473Y-76004473D01*
X130118703Y-76078521D01*
X130073547Y-76163002D01*
X130050948Y-76237500D01*
X129749052Y-76237500D01*
X129726453Y-76163002D01*
X129681297Y-76078521D01*
X129620527Y-76004473D01*
X129546479Y-75943703D01*
X129461998Y-75898547D01*
X129370331Y-75870740D01*
X129275000Y-75861351D01*
X128325000Y-75861351D01*
X128229669Y-75870740D01*
X128138002Y-75898547D01*
X128053521Y-75943703D01*
X127979473Y-76004473D01*
X127918703Y-76078521D01*
X127873547Y-76163002D01*
X127850948Y-76237500D01*
X127549052Y-76237500D01*
X127526453Y-76163002D01*
X127481297Y-76078521D01*
X127420527Y-76004473D01*
X127346479Y-75943703D01*
X127261998Y-75898547D01*
X127170331Y-75870740D01*
X127075000Y-75861351D01*
X126125000Y-75861351D01*
X126029669Y-75870740D01*
X125938002Y-75898547D01*
X125853521Y-75943703D01*
X125779473Y-76004473D01*
X125718703Y-76078521D01*
X125673547Y-76163002D01*
X125650948Y-76237500D01*
X125349052Y-76237500D01*
X125326453Y-76163002D01*
X125281297Y-76078521D01*
X125220527Y-76004473D01*
X125146479Y-75943703D01*
X125061998Y-75898547D01*
X124970331Y-75870740D01*
X124875000Y-75861351D01*
X123925000Y-75861351D01*
X123829669Y-75870740D01*
X123738002Y-75898547D01*
X123653521Y-75943703D01*
X123579473Y-76004473D01*
X123518703Y-76078521D01*
X123473547Y-76163002D01*
X123450948Y-76237500D01*
X123149052Y-76237500D01*
X123126453Y-76163002D01*
X123081297Y-76078521D01*
X123020527Y-76004473D01*
X122946479Y-75943703D01*
X122861998Y-75898547D01*
X122770331Y-75870740D01*
X122675000Y-75861351D01*
X121725000Y-75861351D01*
X121629669Y-75870740D01*
X121538002Y-75898547D01*
X121453521Y-75943703D01*
X121379473Y-76004473D01*
X121318703Y-76078521D01*
X121273547Y-76163002D01*
X121250948Y-76237500D01*
X120949052Y-76237500D01*
X120926453Y-76163002D01*
X120881297Y-76078521D01*
X120820527Y-76004473D01*
X120746479Y-75943703D01*
X120661998Y-75898547D01*
X120570331Y-75870740D01*
X120475000Y-75861351D01*
X119525000Y-75861351D01*
X119429669Y-75870740D01*
X119338002Y-75898547D01*
X119253521Y-75943703D01*
X119179473Y-76004473D01*
X119118703Y-76078521D01*
X119073547Y-76163002D01*
X119050948Y-76237500D01*
X118312653Y-76237500D01*
X118238649Y-76163496D01*
X118238649Y-75618750D01*
X118229860Y-75529516D01*
X118203832Y-75443711D01*
X118161563Y-75364633D01*
X118104680Y-75295320D01*
X118035367Y-75238437D01*
X117956289Y-75196168D01*
X117870484Y-75170140D01*
X117781250Y-75161351D01*
X117343750Y-75161351D01*
X117254516Y-75170140D01*
X117168711Y-75196168D01*
X117089633Y-75238437D01*
X117020320Y-75295320D01*
X116963437Y-75364633D01*
X116921168Y-75443711D01*
X116895140Y-75529516D01*
X116886351Y-75618750D01*
X116113649Y-75618750D01*
X116104860Y-75529516D01*
X116078832Y-75443711D01*
X116036563Y-75364633D01*
X115979680Y-75295320D01*
X115910367Y-75238437D01*
X115893976Y-75229676D01*
X116613003Y-74510649D01*
X117659000Y-74510649D01*
X117705558Y-74506063D01*
X117750327Y-74492483D01*
X117791586Y-74470429D01*
X117827750Y-74440750D01*
X117857429Y-74404586D01*
X117879483Y-74363327D01*
X117893063Y-74318558D01*
X117897649Y-74272000D01*
X117897649Y-72952000D01*
X117893063Y-72905442D01*
X117879483Y-72860673D01*
X117857429Y-72819414D01*
X117827750Y-72783250D01*
X117791586Y-72753571D01*
X117750327Y-72731517D01*
X117705558Y-72717937D01*
X117659000Y-72713351D01*
X116339000Y-72713351D01*
X116292442Y-72717937D01*
X116247673Y-72731517D01*
X116206414Y-72753571D01*
X116170250Y-72783250D01*
X116140571Y-72819414D01*
X116118517Y-72860673D01*
X116104937Y-72905442D01*
X116100351Y-72952000D01*
X116100351Y-73997997D01*
X115193758Y-74904590D01*
X115179935Y-74915934D01*
X115168591Y-74929757D01*
X115168589Y-74929759D01*
X115134635Y-74971132D01*
X115100974Y-75034107D01*
X115080247Y-75102438D01*
X115073247Y-75173500D01*
X115074558Y-75186811D01*
X115043711Y-75196168D01*
X114964633Y-75238437D01*
X114895320Y-75295320D01*
X114838437Y-75364633D01*
X114796168Y-75443711D01*
X114770140Y-75529516D01*
X114761351Y-75618750D01*
X100212500Y-75618750D01*
X100212500Y-67491000D01*
X124101351Y-67491000D01*
X124101351Y-68811000D01*
X124105937Y-68857558D01*
X124119517Y-68902327D01*
X124141571Y-68943586D01*
X124171250Y-68979750D01*
X124207414Y-69009429D01*
X124248673Y-69031483D01*
X124293442Y-69045063D01*
X124340000Y-69049649D01*
X125660000Y-69049649D01*
X125706558Y-69045063D01*
X125751327Y-69031483D01*
X125792586Y-69009429D01*
X125828750Y-68979750D01*
X125858429Y-68943586D01*
X125880483Y-68902327D01*
X125894063Y-68857558D01*
X125898649Y-68811000D01*
X125898649Y-68513500D01*
X126300948Y-68513500D01*
X126323547Y-68587998D01*
X126368703Y-68672479D01*
X126429473Y-68746527D01*
X126503521Y-68807297D01*
X126588002Y-68852453D01*
X126679669Y-68880260D01*
X126775000Y-68889649D01*
X127725000Y-68889649D01*
X127820331Y-68880260D01*
X127911998Y-68852453D01*
X127996479Y-68807297D01*
X128070527Y-68746527D01*
X128131297Y-68672479D01*
X128176453Y-68587998D01*
X128199052Y-68513500D01*
X128550948Y-68513500D01*
X128573547Y-68587998D01*
X128618703Y-68672479D01*
X128679473Y-68746527D01*
X128753521Y-68807297D01*
X128838002Y-68852453D01*
X128929669Y-68880260D01*
X129025000Y-68889649D01*
X129725997Y-68889649D01*
X135880088Y-75043741D01*
X135891434Y-75057566D01*
X135905257Y-75068910D01*
X135905258Y-75068911D01*
X135946631Y-75102865D01*
X136009606Y-75136526D01*
X136077938Y-75157254D01*
X136131202Y-75162500D01*
X136131204Y-75162500D01*
X136149000Y-75164253D01*
X136166796Y-75162500D01*
X139959848Y-75162500D01*
X141201351Y-76404004D01*
X141201351Y-78330000D01*
X141205937Y-78376558D01*
X141219517Y-78421327D01*
X141241571Y-78462586D01*
X141271250Y-78498750D01*
X141307414Y-78528429D01*
X141348673Y-78550483D01*
X141393442Y-78564063D01*
X141440000Y-78568649D01*
X143640000Y-78568649D01*
X143686558Y-78564063D01*
X143731327Y-78550483D01*
X143772586Y-78528429D01*
X143808750Y-78498750D01*
X143838429Y-78462586D01*
X143860483Y-78421327D01*
X143874063Y-78376558D01*
X143878649Y-78330000D01*
X143878649Y-76130000D01*
X143874063Y-76083442D01*
X143860483Y-76038673D01*
X143838429Y-75997414D01*
X143808750Y-75961250D01*
X143772586Y-75931571D01*
X143731327Y-75909517D01*
X143686558Y-75895937D01*
X143640000Y-75891351D01*
X142902500Y-75891351D01*
X142902500Y-73748649D01*
X143640000Y-73748649D01*
X143686558Y-73744063D01*
X143731327Y-73730483D01*
X143772586Y-73708429D01*
X143808750Y-73678750D01*
X143838429Y-73642586D01*
X143860483Y-73601327D01*
X143874063Y-73556558D01*
X143878649Y-73510000D01*
X143878649Y-71310000D01*
X143874063Y-71263442D01*
X143860483Y-71218673D01*
X143838429Y-71177414D01*
X143808750Y-71141250D01*
X143772586Y-71111571D01*
X143731327Y-71089517D01*
X143686558Y-71075937D01*
X143640000Y-71071351D01*
X143281301Y-71071351D01*
X145818432Y-68534221D01*
X145947372Y-68587629D01*
X146147815Y-68627500D01*
X146352185Y-68627500D01*
X146552628Y-68587629D01*
X146741441Y-68509421D01*
X146911368Y-68395879D01*
X147055879Y-68251368D01*
X147169421Y-68081441D01*
X147247629Y-67892628D01*
X147287500Y-67692185D01*
X147287500Y-67487815D01*
X147247629Y-67287372D01*
X147169421Y-67098559D01*
X147055879Y-66928632D01*
X146911368Y-66784121D01*
X146741441Y-66670579D01*
X146552628Y-66592371D01*
X146352185Y-66552500D01*
X146147815Y-66552500D01*
X145947372Y-66592371D01*
X145758559Y-66670579D01*
X145588632Y-66784121D01*
X145444121Y-66928632D01*
X145330579Y-67098559D01*
X145252371Y-67287372D01*
X145212500Y-67487815D01*
X145212500Y-67692185D01*
X145252371Y-67892628D01*
X145305779Y-68021568D01*
X142296258Y-71031090D01*
X142282435Y-71042434D01*
X142271091Y-71056257D01*
X142271089Y-71056259D01*
X142258703Y-71071351D01*
X141440000Y-71071351D01*
X141393442Y-71075937D01*
X141348673Y-71089517D01*
X141307414Y-71111571D01*
X141271250Y-71141250D01*
X141241571Y-71177414D01*
X141219517Y-71218673D01*
X141205937Y-71263442D01*
X141201351Y-71310000D01*
X141201351Y-71815262D01*
X141185277Y-71776456D01*
X141038904Y-71557393D01*
X140852607Y-71371096D01*
X140633544Y-71224723D01*
X140390134Y-71123899D01*
X140362500Y-71118402D01*
X140362500Y-68881598D01*
X140390134Y-68876101D01*
X140633544Y-68775277D01*
X140852607Y-68628904D01*
X141038904Y-68442607D01*
X141185277Y-68223544D01*
X141201351Y-68184738D01*
X141201351Y-68690000D01*
X141205937Y-68736558D01*
X141219517Y-68781327D01*
X141241571Y-68822586D01*
X141271250Y-68858750D01*
X141307414Y-68888429D01*
X141348673Y-68910483D01*
X141393442Y-68924063D01*
X141440000Y-68928649D01*
X143640000Y-68928649D01*
X143686558Y-68924063D01*
X143731327Y-68910483D01*
X143772586Y-68888429D01*
X143808750Y-68858750D01*
X143838429Y-68822586D01*
X143860483Y-68781327D01*
X143874063Y-68736558D01*
X143878649Y-68690000D01*
X143878649Y-66490000D01*
X143874063Y-66443442D01*
X143860483Y-66398673D01*
X143838429Y-66357414D01*
X143808750Y-66321250D01*
X143772586Y-66291571D01*
X143731327Y-66269517D01*
X143686558Y-66255937D01*
X143640000Y-66251351D01*
X141714003Y-66251351D01*
X140362500Y-64899848D01*
X140362500Y-64308066D01*
X140390134Y-64302569D01*
X140633544Y-64201745D01*
X140852607Y-64055372D01*
X141038904Y-63869075D01*
X141185277Y-63650012D01*
X141286101Y-63406602D01*
X141337500Y-63148200D01*
X141337500Y-62884736D01*
X141286101Y-62626334D01*
X141185277Y-62382924D01*
X141038904Y-62163861D01*
X140852607Y-61977564D01*
X140633544Y-61831191D01*
X140390134Y-61730367D01*
X140131732Y-61678968D01*
X139868268Y-61678968D01*
X139609866Y-61730367D01*
X139366456Y-61831191D01*
X139147393Y-61977564D01*
X138961096Y-62163861D01*
X138814723Y-62382924D01*
X138713899Y-62626334D01*
X138662500Y-62884736D01*
X138662500Y-63148200D01*
X138713899Y-63406602D01*
X138814723Y-63650012D01*
X138961096Y-63869075D01*
X139147393Y-64055372D01*
X139366456Y-64201745D01*
X139609866Y-64302569D01*
X139637501Y-64308066D01*
X139637501Y-65032194D01*
X139635747Y-65050000D01*
X139642747Y-65121062D01*
X139663474Y-65189393D01*
X139697135Y-65252368D01*
X139725668Y-65287135D01*
X139742435Y-65307566D01*
X139756258Y-65318910D01*
X141201351Y-66764003D01*
X141201351Y-66995262D01*
X141185277Y-66956456D01*
X141038904Y-66737393D01*
X140852607Y-66551096D01*
X140633544Y-66404723D01*
X140390134Y-66303899D01*
X140131732Y-66252500D01*
X139868268Y-66252500D01*
X139609866Y-66303899D01*
X139366456Y-66404723D01*
X139343029Y-66420376D01*
X138362500Y-65439848D01*
X138362500Y-62150152D01*
X139050153Y-61462500D01*
X144429848Y-61462500D01*
X145305779Y-62338431D01*
X145252371Y-62467372D01*
X145212500Y-62667815D01*
X145212500Y-62872185D01*
X145252371Y-63072628D01*
X145330579Y-63261441D01*
X145444121Y-63431368D01*
X145588632Y-63575879D01*
X145758559Y-63689421D01*
X145947372Y-63767629D01*
X146147815Y-63807500D01*
X146352185Y-63807500D01*
X146552628Y-63767629D01*
X146741441Y-63689421D01*
X146911368Y-63575879D01*
X147055879Y-63431368D01*
X147169421Y-63261441D01*
X147247629Y-63072628D01*
X147287500Y-62872185D01*
X147287500Y-62667815D01*
X147247629Y-62467372D01*
X147169421Y-62278559D01*
X147055879Y-62108632D01*
X146911368Y-61964121D01*
X146741441Y-61850579D01*
X146552628Y-61772371D01*
X146352185Y-61732500D01*
X146147815Y-61732500D01*
X145947372Y-61772371D01*
X145818431Y-61825779D01*
X144848915Y-60856263D01*
X144837566Y-60842434D01*
X144782368Y-60797135D01*
X144719394Y-60763474D01*
X144651062Y-60742746D01*
X144597798Y-60737500D01*
X144597796Y-60737500D01*
X144580000Y-60735747D01*
X144562204Y-60737500D01*
X138917795Y-60737500D01*
X138899999Y-60735747D01*
X138882203Y-60737500D01*
X138882202Y-60737500D01*
X138828938Y-60742746D01*
X138760606Y-60763474D01*
X138697631Y-60797135D01*
X138656258Y-60831089D01*
X138642434Y-60842434D01*
X138631090Y-60856257D01*
X137756258Y-61731090D01*
X137742434Y-61742435D01*
X137731090Y-61756258D01*
X137731089Y-61756259D01*
X137697135Y-61797632D01*
X137668834Y-61850579D01*
X137663474Y-61860607D01*
X137642746Y-61928939D01*
X137639281Y-61964121D01*
X137635747Y-62000000D01*
X137637500Y-62017796D01*
X137637501Y-65572194D01*
X137635747Y-65590000D01*
X137642747Y-65661062D01*
X137663474Y-65729393D01*
X137697135Y-65792368D01*
X137714890Y-65814002D01*
X137742435Y-65847566D01*
X137756258Y-65858910D01*
X138830376Y-66933029D01*
X138814723Y-66956456D01*
X138713899Y-67199866D01*
X138662500Y-67458268D01*
X138662500Y-67721732D01*
X138713899Y-67980134D01*
X138814723Y-68223544D01*
X138961096Y-68442607D01*
X139147393Y-68628904D01*
X139366456Y-68775277D01*
X139609866Y-68876101D01*
X139637501Y-68881598D01*
X139637500Y-71118402D01*
X139609866Y-71123899D01*
X139366456Y-71224723D01*
X139147393Y-71371096D01*
X138961096Y-71557393D01*
X138814723Y-71776456D01*
X138713899Y-72019866D01*
X138662500Y-72278268D01*
X138662500Y-72541732D01*
X138713899Y-72800134D01*
X138814723Y-73043544D01*
X138961096Y-73262607D01*
X139147393Y-73448904D01*
X139366456Y-73595277D01*
X139609866Y-73696101D01*
X139868268Y-73747500D01*
X140131732Y-73747500D01*
X140390134Y-73696101D01*
X140633544Y-73595277D01*
X140852607Y-73448904D01*
X141038904Y-73262607D01*
X141185277Y-73043544D01*
X141201351Y-73004738D01*
X141201351Y-73510000D01*
X141205937Y-73556558D01*
X141219517Y-73601327D01*
X141241571Y-73642586D01*
X141271250Y-73678750D01*
X141307414Y-73708429D01*
X141348673Y-73730483D01*
X141393442Y-73744063D01*
X141440000Y-73748649D01*
X142177501Y-73748649D01*
X142177500Y-75891351D01*
X141714004Y-75891351D01*
X140378915Y-74556263D01*
X140367566Y-74542434D01*
X140312368Y-74497135D01*
X140249394Y-74463474D01*
X140181062Y-74442746D01*
X140127798Y-74437500D01*
X140127796Y-74437500D01*
X140110000Y-74435747D01*
X140092204Y-74437500D01*
X136299153Y-74437500D01*
X130431852Y-68570200D01*
X130454260Y-68496331D01*
X130463649Y-68401000D01*
X130463649Y-67901000D01*
X130454260Y-67805669D01*
X130426453Y-67714002D01*
X130381297Y-67629521D01*
X130320527Y-67555473D01*
X130246479Y-67494703D01*
X130161998Y-67449547D01*
X130070331Y-67421740D01*
X129975000Y-67412351D01*
X129025000Y-67412351D01*
X128929669Y-67421740D01*
X128838002Y-67449547D01*
X128753521Y-67494703D01*
X128679473Y-67555473D01*
X128618703Y-67629521D01*
X128573547Y-67714002D01*
X128550948Y-67788500D01*
X128199052Y-67788500D01*
X128176453Y-67714002D01*
X128131297Y-67629521D01*
X128070527Y-67555473D01*
X127996479Y-67494703D01*
X127911998Y-67449547D01*
X127820331Y-67421740D01*
X127725000Y-67412351D01*
X126775000Y-67412351D01*
X126679669Y-67421740D01*
X126588002Y-67449547D01*
X126503521Y-67494703D01*
X126429473Y-67555473D01*
X126368703Y-67629521D01*
X126323547Y-67714002D01*
X126300948Y-67788500D01*
X125898649Y-67788500D01*
X125898649Y-67491000D01*
X125894063Y-67444442D01*
X125880483Y-67399673D01*
X125858429Y-67358414D01*
X125828750Y-67322250D01*
X125792586Y-67292571D01*
X125751327Y-67270517D01*
X125706558Y-67256937D01*
X125660000Y-67252351D01*
X124340000Y-67252351D01*
X124293442Y-67256937D01*
X124248673Y-67270517D01*
X124207414Y-67292571D01*
X124171250Y-67322250D01*
X124141571Y-67358414D01*
X124119517Y-67399673D01*
X124105937Y-67444442D01*
X124101351Y-67491000D01*
X100212500Y-67491000D01*
X100212500Y-65750000D01*
X100221351Y-65750000D01*
X100221351Y-67250000D01*
X100225937Y-67296558D01*
X100239517Y-67341327D01*
X100261571Y-67382586D01*
X100291250Y-67418750D01*
X100327414Y-67448429D01*
X100368673Y-67470483D01*
X100413442Y-67484063D01*
X100460000Y-67488649D01*
X105540000Y-67488649D01*
X105586558Y-67484063D01*
X105631327Y-67470483D01*
X105672586Y-67448429D01*
X105708750Y-67418750D01*
X105738429Y-67382586D01*
X105760483Y-67341327D01*
X105774063Y-67296558D01*
X105778649Y-67250000D01*
X105778649Y-67129783D01*
X107406275Y-67129783D01*
X107416047Y-67161998D01*
X107461203Y-67246479D01*
X107521973Y-67320527D01*
X107596021Y-67381297D01*
X107680502Y-67426453D01*
X107772169Y-67454260D01*
X107867500Y-67463649D01*
X108367500Y-67463649D01*
X108462831Y-67454260D01*
X108554498Y-67426453D01*
X108638979Y-67381297D01*
X108713027Y-67320527D01*
X108773797Y-67246479D01*
X108818953Y-67161998D01*
X108846760Y-67070331D01*
X108856149Y-66975000D01*
X108856149Y-66025000D01*
X109278851Y-66025000D01*
X109278851Y-66975000D01*
X109288240Y-67070331D01*
X109316047Y-67161998D01*
X109361203Y-67246479D01*
X109421973Y-67320527D01*
X109496021Y-67381297D01*
X109580502Y-67426453D01*
X109672169Y-67454260D01*
X109767500Y-67463649D01*
X110267500Y-67463649D01*
X110362831Y-67454260D01*
X110454498Y-67426453D01*
X110538979Y-67381297D01*
X110613027Y-67320527D01*
X110673797Y-67246479D01*
X110718953Y-67161998D01*
X110728725Y-67129783D01*
X111401351Y-67129783D01*
X111401351Y-67160000D01*
X111405937Y-67206558D01*
X111419517Y-67251327D01*
X111441571Y-67292586D01*
X111471250Y-67328750D01*
X111507414Y-67358429D01*
X111548673Y-67380483D01*
X111593442Y-67394063D01*
X111640000Y-67398649D01*
X112960000Y-67398649D01*
X113006558Y-67394063D01*
X113051327Y-67380483D01*
X113092586Y-67358429D01*
X113128750Y-67328750D01*
X113158429Y-67292586D01*
X113180483Y-67251327D01*
X113194063Y-67206558D01*
X113198649Y-67160000D01*
X113198649Y-66001000D01*
X126286351Y-66001000D01*
X126286351Y-66501000D01*
X126295740Y-66596331D01*
X126323547Y-66687998D01*
X126368703Y-66772479D01*
X126429473Y-66846527D01*
X126503521Y-66907297D01*
X126588002Y-66952453D01*
X126679669Y-66980260D01*
X126775000Y-66989649D01*
X127725000Y-66989649D01*
X127820331Y-66980260D01*
X127911998Y-66952453D01*
X127996479Y-66907297D01*
X128070527Y-66846527D01*
X128131297Y-66772479D01*
X128176453Y-66687998D01*
X128199052Y-66613500D01*
X128550948Y-66613500D01*
X128573547Y-66687998D01*
X128618703Y-66772479D01*
X128679473Y-66846527D01*
X128753521Y-66907297D01*
X128838002Y-66952453D01*
X128929669Y-66980260D01*
X129025000Y-66989649D01*
X129975000Y-66989649D01*
X130070331Y-66980260D01*
X130161998Y-66952453D01*
X130246479Y-66907297D01*
X130320527Y-66846527D01*
X130381297Y-66772479D01*
X130426453Y-66687998D01*
X130454260Y-66596331D01*
X130463649Y-66501000D01*
X130463649Y-66001000D01*
X130454260Y-65905669D01*
X130426453Y-65814002D01*
X130381297Y-65729521D01*
X130320527Y-65655473D01*
X130246479Y-65594703D01*
X130161998Y-65549547D01*
X130070331Y-65521740D01*
X129975000Y-65512351D01*
X129025000Y-65512351D01*
X128929669Y-65521740D01*
X128838002Y-65549547D01*
X128753521Y-65594703D01*
X128679473Y-65655473D01*
X128618703Y-65729521D01*
X128573547Y-65814002D01*
X128550948Y-65888500D01*
X128199052Y-65888500D01*
X128181852Y-65831800D01*
X128618743Y-65394910D01*
X128632566Y-65383566D01*
X128677865Y-65328368D01*
X128711526Y-65265394D01*
X128732254Y-65197062D01*
X128737500Y-65143798D01*
X128737500Y-65143797D01*
X128739253Y-65126001D01*
X128737500Y-65108205D01*
X128737500Y-64276949D01*
X128890124Y-64213730D01*
X129068241Y-64094716D01*
X129219716Y-63943241D01*
X129338730Y-63765124D01*
X129420708Y-63567212D01*
X129462500Y-63357109D01*
X129462500Y-63142891D01*
X129420708Y-62932788D01*
X129338730Y-62734876D01*
X129219716Y-62556759D01*
X129068241Y-62405284D01*
X128890124Y-62286270D01*
X128724860Y-62217815D01*
X133712500Y-62217815D01*
X133712500Y-62422185D01*
X133752371Y-62622628D01*
X133830579Y-62811441D01*
X133944121Y-62981368D01*
X134088632Y-63125879D01*
X134258559Y-63239421D01*
X134447372Y-63317629D01*
X134647815Y-63357500D01*
X134852185Y-63357500D01*
X135052628Y-63317629D01*
X135241441Y-63239421D01*
X135411368Y-63125879D01*
X135555879Y-62981368D01*
X135669421Y-62811441D01*
X135747629Y-62622628D01*
X135787500Y-62422185D01*
X135787500Y-62217815D01*
X135747629Y-62017372D01*
X135669421Y-61828559D01*
X135555879Y-61658632D01*
X135411368Y-61514121D01*
X135250245Y-61406462D01*
X135250245Y-56707208D01*
X135608884Y-56348569D01*
X141712500Y-56348569D01*
X141712500Y-56651431D01*
X141771586Y-56948472D01*
X141887485Y-57228279D01*
X142055746Y-57480099D01*
X142269901Y-57694254D01*
X142521721Y-57862515D01*
X142749756Y-57956969D01*
X142749756Y-58725421D01*
X142747335Y-58750000D01*
X142756994Y-58848065D01*
X142785598Y-58942361D01*
X142785599Y-58942362D01*
X142832050Y-59029266D01*
X142894563Y-59105438D01*
X142913646Y-59121099D01*
X144128896Y-60336349D01*
X144144562Y-60355438D01*
X144220734Y-60417951D01*
X144307638Y-60464402D01*
X144401934Y-60493006D01*
X144500000Y-60502665D01*
X144524570Y-60500245D01*
X146792792Y-60500245D01*
X154218896Y-67926349D01*
X154234562Y-67945438D01*
X154310734Y-68007951D01*
X154397638Y-68054402D01*
X154491934Y-68083006D01*
X154590000Y-68092665D01*
X154614570Y-68090245D01*
X155496462Y-68090245D01*
X155604121Y-68251368D01*
X155748632Y-68395879D01*
X155918559Y-68509421D01*
X156107372Y-68587629D01*
X156307815Y-68627500D01*
X156512185Y-68627500D01*
X156712628Y-68587629D01*
X156901441Y-68509421D01*
X157071368Y-68395879D01*
X157215879Y-68251368D01*
X157329421Y-68081441D01*
X157407629Y-67892628D01*
X157447500Y-67692185D01*
X157447500Y-67487815D01*
X157407629Y-67287372D01*
X157329421Y-67098559D01*
X157215879Y-66928632D01*
X157071368Y-66784121D01*
X156901441Y-66670579D01*
X156712628Y-66592371D01*
X156512185Y-66552500D01*
X156307815Y-66552500D01*
X156107372Y-66592371D01*
X155918559Y-66670579D01*
X155748632Y-66784121D01*
X155604121Y-66928632D01*
X155496462Y-67089755D01*
X154797208Y-67089755D01*
X147371104Y-59663651D01*
X147355438Y-59644562D01*
X147279266Y-59582049D01*
X147192362Y-59535598D01*
X147098065Y-59506994D01*
X147024570Y-59499755D01*
X147000000Y-59497335D01*
X146975430Y-59499755D01*
X144707208Y-59499755D01*
X143750245Y-58542792D01*
X143750245Y-57956969D01*
X143978279Y-57862515D01*
X144230099Y-57694254D01*
X144444254Y-57480099D01*
X144612515Y-57228279D01*
X144728414Y-56948472D01*
X144787500Y-56651431D01*
X144787500Y-56348569D01*
X144728414Y-56051528D01*
X144612515Y-55771721D01*
X144444254Y-55519901D01*
X144230099Y-55305746D01*
X143978279Y-55137485D01*
X143698472Y-55021586D01*
X143401431Y-54962500D01*
X143098569Y-54962500D01*
X142801528Y-55021586D01*
X142521721Y-55137485D01*
X142269901Y-55305746D01*
X142055746Y-55519901D01*
X141887485Y-55771721D01*
X141771586Y-56051528D01*
X141712500Y-56348569D01*
X135608884Y-56348569D01*
X137957208Y-54000245D01*
X143542792Y-54000245D01*
X145211351Y-55668804D01*
X145211351Y-57800000D01*
X145215937Y-57846558D01*
X145229517Y-57891327D01*
X145251571Y-57932586D01*
X145281250Y-57968750D01*
X145317414Y-57998429D01*
X145358673Y-58020483D01*
X145403442Y-58034063D01*
X145450000Y-58038649D01*
X147581196Y-58038649D01*
X152648901Y-63106355D01*
X152664562Y-63125438D01*
X152740734Y-63187951D01*
X152823522Y-63232202D01*
X152827638Y-63234402D01*
X152921934Y-63263006D01*
X153019999Y-63272665D01*
X153044569Y-63270245D01*
X155496462Y-63270245D01*
X155604121Y-63431368D01*
X155748632Y-63575879D01*
X155918559Y-63689421D01*
X156107372Y-63767629D01*
X156307815Y-63807500D01*
X156512185Y-63807500D01*
X156712628Y-63767629D01*
X156901441Y-63689421D01*
X157071368Y-63575879D01*
X157215879Y-63431368D01*
X157329421Y-63261441D01*
X157407629Y-63072628D01*
X157447500Y-62872185D01*
X157447500Y-62667815D01*
X157407629Y-62467372D01*
X157329421Y-62278559D01*
X157215879Y-62108632D01*
X157071368Y-61964121D01*
X156901441Y-61850579D01*
X156712628Y-61772371D01*
X156512185Y-61732500D01*
X156307815Y-61732500D01*
X156107372Y-61772371D01*
X155918559Y-61850579D01*
X155748632Y-61964121D01*
X155604121Y-62108632D01*
X155496462Y-62269755D01*
X153227209Y-62269755D01*
X148288649Y-57331196D01*
X148288649Y-55200000D01*
X148284063Y-55153442D01*
X148270483Y-55108673D01*
X148248429Y-55067414D01*
X148218750Y-55031250D01*
X148182586Y-55001571D01*
X148141327Y-54979517D01*
X148096558Y-54965937D01*
X148050000Y-54961351D01*
X145918804Y-54961351D01*
X144121104Y-53163651D01*
X144105438Y-53144562D01*
X144029266Y-53082049D01*
X143942362Y-53035598D01*
X143848065Y-53006994D01*
X143774570Y-52999755D01*
X143750000Y-52997335D01*
X143725430Y-52999755D01*
X137774572Y-52999755D01*
X137750000Y-52997335D01*
X137651935Y-53006993D01*
X137557638Y-53035598D01*
X137470734Y-53082049D01*
X137394562Y-53144562D01*
X137378896Y-53163651D01*
X134413651Y-56128896D01*
X134394562Y-56144562D01*
X134332049Y-56220734D01*
X134285599Y-56307638D01*
X134285598Y-56307639D01*
X134256994Y-56401935D01*
X134247335Y-56500000D01*
X134249755Y-56524570D01*
X134249756Y-61406461D01*
X134088632Y-61514121D01*
X133944121Y-61658632D01*
X133830579Y-61828559D01*
X133752371Y-62017372D01*
X133712500Y-62217815D01*
X128724860Y-62217815D01*
X128692212Y-62204292D01*
X128482109Y-62162500D01*
X128267891Y-62162500D01*
X128057788Y-62204292D01*
X127859876Y-62286270D01*
X127681759Y-62405284D01*
X127530284Y-62556759D01*
X127411270Y-62734876D01*
X127329292Y-62932788D01*
X127287500Y-63142891D01*
X127287500Y-63357109D01*
X127329292Y-63567212D01*
X127411270Y-63765124D01*
X127530284Y-63943241D01*
X127681759Y-64094716D01*
X127859876Y-64213730D01*
X128012501Y-64276949D01*
X128012501Y-64975846D01*
X127475997Y-65512351D01*
X126775000Y-65512351D01*
X126679669Y-65521740D01*
X126588002Y-65549547D01*
X126503521Y-65594703D01*
X126429473Y-65655473D01*
X126368703Y-65729521D01*
X126323547Y-65814002D01*
X126295740Y-65905669D01*
X126286351Y-66001000D01*
X113198649Y-66001000D01*
X113198649Y-65840000D01*
X113194063Y-65793442D01*
X113180483Y-65748673D01*
X113158429Y-65707414D01*
X113128750Y-65671250D01*
X113092586Y-65641571D01*
X113051327Y-65619517D01*
X113006558Y-65605937D01*
X112960000Y-65601351D01*
X111640000Y-65601351D01*
X111593442Y-65605937D01*
X111548673Y-65619517D01*
X111507414Y-65641571D01*
X111471250Y-65671250D01*
X111441571Y-65707414D01*
X111419517Y-65748673D01*
X111405937Y-65793442D01*
X111401351Y-65840000D01*
X111401351Y-65870217D01*
X110728725Y-65870217D01*
X110718953Y-65838002D01*
X110673797Y-65753521D01*
X110613027Y-65679473D01*
X110538979Y-65618703D01*
X110454498Y-65573547D01*
X110362831Y-65545740D01*
X110267500Y-65536351D01*
X109767500Y-65536351D01*
X109672169Y-65545740D01*
X109580502Y-65573547D01*
X109496021Y-65618703D01*
X109421973Y-65679473D01*
X109361203Y-65753521D01*
X109316047Y-65838002D01*
X109288240Y-65929669D01*
X109278851Y-66025000D01*
X108856149Y-66025000D01*
X108846760Y-65929669D01*
X108818953Y-65838002D01*
X108773797Y-65753521D01*
X108713027Y-65679473D01*
X108638979Y-65618703D01*
X108554498Y-65573547D01*
X108462831Y-65545740D01*
X108367500Y-65536351D01*
X107867500Y-65536351D01*
X107772169Y-65545740D01*
X107680502Y-65573547D01*
X107596021Y-65618703D01*
X107521973Y-65679473D01*
X107461203Y-65753521D01*
X107416047Y-65838002D01*
X107406275Y-65870217D01*
X105778649Y-65870217D01*
X105778649Y-65750000D01*
X105774063Y-65703442D01*
X105760483Y-65658673D01*
X105738429Y-65617414D01*
X105708750Y-65581250D01*
X105672586Y-65551571D01*
X105631327Y-65529517D01*
X105586558Y-65515937D01*
X105540000Y-65511351D01*
X100460000Y-65511351D01*
X100413442Y-65515937D01*
X100368673Y-65529517D01*
X100327414Y-65551571D01*
X100291250Y-65581250D01*
X100261571Y-65617414D01*
X100239517Y-65658673D01*
X100225937Y-65703442D01*
X100221351Y-65750000D01*
X100212500Y-65750000D01*
X100212500Y-55009467D01*
X100288995Y-54152352D01*
X100513553Y-53331507D01*
X100879923Y-52563398D01*
X101376526Y-51872301D01*
X101987661Y-51280070D01*
X102694015Y-50805421D01*
X103473248Y-50463360D01*
X104302391Y-50264301D01*
X105007787Y-50212500D01*
X154990533Y-50212500D01*
X155847648Y-50288995D01*
%TA.AperFunction,Conductor*%
D27*
G36*
X155847648Y-50288995D02*
G01*
X156668493Y-50513553D01*
X157436602Y-50879923D01*
X158127699Y-51376526D01*
X158719930Y-51987661D01*
X159194579Y-52694015D01*
X159536640Y-53473248D01*
X159735699Y-54302391D01*
X159787500Y-55007787D01*
X159787501Y-84990522D01*
X159711005Y-85847643D01*
X159486446Y-86668495D01*
X159120076Y-87436605D01*
X158623472Y-88127702D01*
X158012339Y-88719930D01*
X157305985Y-89194579D01*
X156526752Y-89536640D01*
X155697610Y-89735699D01*
X154992213Y-89787500D01*
X105009467Y-89787500D01*
X104152357Y-89711005D01*
X103331505Y-89486446D01*
X102563395Y-89120076D01*
X101872298Y-88623472D01*
X101280070Y-88012339D01*
X100805421Y-87305985D01*
X100463360Y-86526752D01*
X100264301Y-85697610D01*
X100212500Y-84992213D01*
X100212500Y-77457815D01*
X133712500Y-77457815D01*
X133712500Y-77662185D01*
X133752371Y-77862628D01*
X133830579Y-78051441D01*
X133944121Y-78221368D01*
X134088632Y-78365879D01*
X134258559Y-78479421D01*
X134387501Y-78532830D01*
X134387500Y-85332204D01*
X134385747Y-85350000D01*
X134387500Y-85367796D01*
X134387500Y-85367797D01*
X134392746Y-85421061D01*
X134402243Y-85452368D01*
X134413474Y-85489393D01*
X134447135Y-85552368D01*
X134471891Y-85582533D01*
X134492434Y-85607565D01*
X134506259Y-85618911D01*
X136531085Y-87643737D01*
X136542434Y-87657566D01*
X136556623Y-87669210D01*
X136597631Y-87702865D01*
X136632652Y-87721584D01*
X136660606Y-87736526D01*
X136728938Y-87757254D01*
X136782202Y-87762500D01*
X136782204Y-87762500D01*
X136800000Y-87764253D01*
X136817796Y-87762500D01*
X139382204Y-87762500D01*
X139400000Y-87764253D01*
X139417796Y-87762500D01*
X139417798Y-87762500D01*
X139471062Y-87757254D01*
X139539394Y-87736526D01*
X139602368Y-87702865D01*
X139657566Y-87657566D01*
X139668915Y-87643737D01*
X140461971Y-86850681D01*
X140475800Y-86839332D01*
X140502780Y-86806456D01*
X140521099Y-86784135D01*
X140554760Y-86721160D01*
X140575488Y-86652828D01*
X140580734Y-86599564D01*
X140580734Y-86599562D01*
X140582487Y-86581766D01*
X140580734Y-86563970D01*
X140580734Y-86222829D01*
X140709675Y-86169421D01*
X140879602Y-86055879D01*
X141024113Y-85911368D01*
X141137655Y-85741441D01*
X141215863Y-85552628D01*
X141255734Y-85352185D01*
X141255734Y-85147815D01*
X141215863Y-84947372D01*
X141137655Y-84758559D01*
X141024113Y-84588632D01*
X140879602Y-84444121D01*
X140709675Y-84330579D01*
X140580734Y-84277171D01*
X140580734Y-84205450D01*
X141714004Y-83072181D01*
X143640000Y-83072181D01*
X143686558Y-83067595D01*
X143731327Y-83054015D01*
X143772586Y-83031961D01*
X143808750Y-83002282D01*
X143838429Y-82966118D01*
X143860483Y-82924859D01*
X143874063Y-82880090D01*
X143878649Y-82833532D01*
X143878649Y-82096032D01*
X148560438Y-82096032D01*
X148578234Y-82097785D01*
X148596030Y-82096032D01*
X148596032Y-82096032D01*
X148649296Y-82090786D01*
X148717628Y-82070058D01*
X148780602Y-82036397D01*
X148835800Y-81991098D01*
X148847149Y-81977269D01*
X153231919Y-77592500D01*
X155437171Y-77592500D01*
X155490579Y-77721441D01*
X155604121Y-77891368D01*
X155748632Y-78035879D01*
X155918559Y-78149421D01*
X156107372Y-78227629D01*
X156307815Y-78267500D01*
X156512185Y-78267500D01*
X156712628Y-78227629D01*
X156901441Y-78149421D01*
X157071368Y-78035879D01*
X157215879Y-77891368D01*
X157329421Y-77721441D01*
X157407629Y-77532628D01*
X157447500Y-77332185D01*
X157447500Y-77127815D01*
X157407629Y-76927372D01*
X157329421Y-76738559D01*
X157215879Y-76568632D01*
X157071368Y-76424121D01*
X156901441Y-76310579D01*
X156712628Y-76232371D01*
X156512185Y-76192500D01*
X156307815Y-76192500D01*
X156107372Y-76232371D01*
X155918559Y-76310579D01*
X155748632Y-76424121D01*
X155604121Y-76568632D01*
X155490579Y-76738559D01*
X155437171Y-76867500D01*
X153099561Y-76867500D01*
X153081765Y-76865747D01*
X153063969Y-76867500D01*
X153063968Y-76867500D01*
X153010704Y-76872746D01*
X152942372Y-76893474D01*
X152879397Y-76927135D01*
X152842698Y-76957253D01*
X152824200Y-76972434D01*
X152812856Y-76986257D01*
X148428082Y-81371032D01*
X143878649Y-81371032D01*
X143878649Y-80633532D01*
X143874063Y-80586974D01*
X143860483Y-80542205D01*
X143838429Y-80500946D01*
X143808750Y-80464782D01*
X143772586Y-80435103D01*
X143731327Y-80413049D01*
X143686558Y-80399469D01*
X143640000Y-80394883D01*
X141440000Y-80394883D01*
X141393442Y-80399469D01*
X141348673Y-80413049D01*
X141307414Y-80435103D01*
X141271250Y-80464782D01*
X141241571Y-80500946D01*
X141219517Y-80542205D01*
X141205937Y-80586974D01*
X141201351Y-80633532D01*
X141201351Y-82559528D01*
X139974492Y-83786388D01*
X139960669Y-83797732D01*
X139949325Y-83811555D01*
X139949323Y-83811557D01*
X139915369Y-83852930D01*
X139881708Y-83915905D01*
X139860981Y-83984236D01*
X139853981Y-84055298D01*
X139855735Y-84073104D01*
X139855735Y-84277170D01*
X139726793Y-84330579D01*
X139556866Y-84444121D01*
X139412355Y-84588632D01*
X139298813Y-84758559D01*
X139220605Y-84947372D01*
X139180734Y-85147815D01*
X139180734Y-85352185D01*
X139220605Y-85552628D01*
X139298813Y-85741441D01*
X139412355Y-85911368D01*
X139556866Y-86055879D01*
X139726793Y-86169421D01*
X139855735Y-86222830D01*
X139855735Y-86431613D01*
X139249848Y-87037500D01*
X136950152Y-87037500D01*
X135112500Y-85199848D01*
X135112500Y-78532829D01*
X135241441Y-78479421D01*
X135411368Y-78365879D01*
X135555879Y-78221368D01*
X135669421Y-78051441D01*
X135747629Y-77862628D01*
X135787500Y-77662185D01*
X135787500Y-77457815D01*
X135747629Y-77257372D01*
X135669421Y-77068559D01*
X135555879Y-76898632D01*
X135411368Y-76754121D01*
X135241441Y-76640579D01*
X135052628Y-76562371D01*
X134852185Y-76522500D01*
X134647815Y-76522500D01*
X134447372Y-76562371D01*
X134258559Y-76640579D01*
X134088632Y-76754121D01*
X133944121Y-76898632D01*
X133830579Y-77068559D01*
X133752371Y-77257372D01*
X133712500Y-77457815D01*
X100212500Y-77457815D01*
X100212500Y-75618750D01*
X114761351Y-75618750D01*
X114761351Y-76381250D01*
X114770140Y-76470484D01*
X114796168Y-76556289D01*
X114838437Y-76635367D01*
X114895320Y-76704680D01*
X114964633Y-76761563D01*
X115043711Y-76803832D01*
X115129516Y-76829860D01*
X115218750Y-76838649D01*
X115656250Y-76838649D01*
X115745484Y-76829860D01*
X115831289Y-76803832D01*
X115910367Y-76761563D01*
X115979680Y-76704680D01*
X116036563Y-76635367D01*
X116078832Y-76556289D01*
X116104860Y-76470484D01*
X116113649Y-76381250D01*
X116113649Y-75618750D01*
X116886351Y-75618750D01*
X116886351Y-76381250D01*
X116895140Y-76470484D01*
X116921168Y-76556289D01*
X116963437Y-76635367D01*
X117020320Y-76704680D01*
X117089633Y-76761563D01*
X117168711Y-76803832D01*
X117254516Y-76829860D01*
X117343750Y-76838649D01*
X117781250Y-76838649D01*
X117870484Y-76829860D01*
X117877560Y-76827713D01*
X117893590Y-76843743D01*
X117904934Y-76857566D01*
X117918757Y-76868910D01*
X117918758Y-76868911D01*
X117960131Y-76902865D01*
X118005537Y-76927135D01*
X118023106Y-76936526D01*
X118091438Y-76957254D01*
X118144702Y-76962500D01*
X118144703Y-76962500D01*
X118162499Y-76964253D01*
X118180295Y-76962500D01*
X119050948Y-76962500D01*
X119073547Y-77036998D01*
X119118703Y-77121479D01*
X119179473Y-77195527D01*
X119253521Y-77256297D01*
X119338002Y-77301453D01*
X119429669Y-77329260D01*
X119525000Y-77338649D01*
X120475000Y-77338649D01*
X120570331Y-77329260D01*
X120661998Y-77301453D01*
X120746479Y-77256297D01*
X120820527Y-77195527D01*
X120881297Y-77121479D01*
X120926453Y-77036998D01*
X120949052Y-76962500D01*
X121250948Y-76962500D01*
X121273547Y-77036998D01*
X121318703Y-77121479D01*
X121379473Y-77195527D01*
X121453521Y-77256297D01*
X121538002Y-77301453D01*
X121629669Y-77329260D01*
X121725000Y-77338649D01*
X122675000Y-77338649D01*
X122770331Y-77329260D01*
X122861998Y-77301453D01*
X122946479Y-77256297D01*
X123020527Y-77195527D01*
X123081297Y-77121479D01*
X123126453Y-77036998D01*
X123149052Y-76962500D01*
X123450948Y-76962500D01*
X123473547Y-77036998D01*
X123518703Y-77121479D01*
X123579473Y-77195527D01*
X123653521Y-77256297D01*
X123738002Y-77301453D01*
X123829669Y-77329260D01*
X123925000Y-77338649D01*
X124875000Y-77338649D01*
X124970331Y-77329260D01*
X125061998Y-77301453D01*
X125146479Y-77256297D01*
X125220527Y-77195527D01*
X125281297Y-77121479D01*
X125326453Y-77036998D01*
X125349052Y-76962500D01*
X125650948Y-76962500D01*
X125673547Y-77036998D01*
X125718703Y-77121479D01*
X125779473Y-77195527D01*
X125853521Y-77256297D01*
X125938002Y-77301453D01*
X126029669Y-77329260D01*
X126125000Y-77338649D01*
X127075000Y-77338649D01*
X127170331Y-77329260D01*
X127261998Y-77301453D01*
X127346479Y-77256297D01*
X127420527Y-77195527D01*
X127481297Y-77121479D01*
X127526453Y-77036998D01*
X127549052Y-76962500D01*
X127850948Y-76962500D01*
X127873547Y-77036998D01*
X127918703Y-77121479D01*
X127979473Y-77195527D01*
X128053521Y-77256297D01*
X128138002Y-77301453D01*
X128229669Y-77329260D01*
X128325000Y-77338649D01*
X129275000Y-77338649D01*
X129370331Y-77329260D01*
X129461998Y-77301453D01*
X129546479Y-77256297D01*
X129620527Y-77195527D01*
X129681297Y-77121479D01*
X129726453Y-77036998D01*
X129749052Y-76962500D01*
X130050948Y-76962500D01*
X130073547Y-77036998D01*
X130118703Y-77121479D01*
X130179473Y-77195527D01*
X130253521Y-77256297D01*
X130338002Y-77301453D01*
X130429669Y-77329260D01*
X130525000Y-77338649D01*
X131475000Y-77338649D01*
X131570331Y-77329260D01*
X131661998Y-77301453D01*
X131746479Y-77256297D01*
X131820527Y-77195527D01*
X131881297Y-77121479D01*
X131926453Y-77036998D01*
X131954260Y-76945331D01*
X131963649Y-76850000D01*
X131963649Y-76350000D01*
X131954260Y-76254669D01*
X131931852Y-76180800D01*
X132150152Y-75962500D01*
X135049848Y-75962500D01*
X138731085Y-79643737D01*
X138742434Y-79657566D01*
X138797632Y-79702865D01*
X138860606Y-79736526D01*
X138928938Y-79757254D01*
X139000000Y-79764253D01*
X139017798Y-79762500D01*
X144062204Y-79762500D01*
X144080000Y-79764253D01*
X144097796Y-79762500D01*
X144097798Y-79762500D01*
X144151062Y-79757254D01*
X144219394Y-79736526D01*
X144282368Y-79702865D01*
X144337566Y-79657566D01*
X144348915Y-79643737D01*
X145818431Y-78174221D01*
X145947372Y-78227629D01*
X146147815Y-78267500D01*
X146352185Y-78267500D01*
X146552628Y-78227629D01*
X146741441Y-78149421D01*
X146911368Y-78035879D01*
X147055879Y-77891368D01*
X147169421Y-77721441D01*
X147247629Y-77532628D01*
X147287500Y-77332185D01*
X147287500Y-77127815D01*
X147247629Y-76927372D01*
X147194221Y-76798431D01*
X151220153Y-72772500D01*
X155437171Y-72772500D01*
X155490579Y-72901441D01*
X155604121Y-73071368D01*
X155748632Y-73215879D01*
X155918559Y-73329421D01*
X156107372Y-73407629D01*
X156307815Y-73447500D01*
X156512185Y-73447500D01*
X156712628Y-73407629D01*
X156901441Y-73329421D01*
X157071368Y-73215879D01*
X157215879Y-73071368D01*
X157329421Y-72901441D01*
X157407629Y-72712628D01*
X157447500Y-72512185D01*
X157447500Y-72307815D01*
X157407629Y-72107372D01*
X157329421Y-71918559D01*
X157215879Y-71748632D01*
X157071368Y-71604121D01*
X156901441Y-71490579D01*
X156712628Y-71412371D01*
X156512185Y-71372500D01*
X156307815Y-71372500D01*
X156107372Y-71412371D01*
X155918559Y-71490579D01*
X155748632Y-71604121D01*
X155604121Y-71748632D01*
X155490579Y-71918559D01*
X155437171Y-72047500D01*
X151087795Y-72047500D01*
X151069999Y-72045747D01*
X151052203Y-72047500D01*
X151052202Y-72047500D01*
X150998938Y-72052746D01*
X150930606Y-72073474D01*
X150867632Y-72107135D01*
X150812434Y-72152434D01*
X150801090Y-72166257D01*
X146681569Y-76285779D01*
X146552628Y-76232371D01*
X146352185Y-76192500D01*
X146147815Y-76192500D01*
X145947372Y-76232371D01*
X145758559Y-76310579D01*
X145588632Y-76424121D01*
X145444121Y-76568632D01*
X145330579Y-76738559D01*
X145252371Y-76927372D01*
X145212500Y-77127815D01*
X145212500Y-77332185D01*
X145252371Y-77532628D01*
X145305779Y-77661569D01*
X143929848Y-79037500D01*
X139150152Y-79037500D01*
X135468915Y-75356263D01*
X135457566Y-75342434D01*
X135402368Y-75297135D01*
X135339394Y-75263474D01*
X135271062Y-75242746D01*
X135217798Y-75237500D01*
X135217796Y-75237500D01*
X135200000Y-75235747D01*
X135182204Y-75237500D01*
X132017796Y-75237500D01*
X132000000Y-75235747D01*
X131982204Y-75237500D01*
X131982202Y-75237500D01*
X131928938Y-75242746D01*
X131860606Y-75263474D01*
X131797632Y-75297135D01*
X131742434Y-75342434D01*
X131731085Y-75356263D01*
X131225997Y-75861351D01*
X130525000Y-75861351D01*
X130429669Y-75870740D01*
X130338002Y-75898547D01*
X130253521Y-75943703D01*
X130179473Y-76004473D01*
X130118703Y-76078521D01*
X130073547Y-76163002D01*
X130050948Y-76237500D01*
X129749052Y-76237500D01*
X129726453Y-76163002D01*
X129681297Y-76078521D01*
X129620527Y-76004473D01*
X129546479Y-75943703D01*
X129461998Y-75898547D01*
X129370331Y-75870740D01*
X129275000Y-75861351D01*
X128325000Y-75861351D01*
X128229669Y-75870740D01*
X128138002Y-75898547D01*
X128053521Y-75943703D01*
X127979473Y-76004473D01*
X127918703Y-76078521D01*
X127873547Y-76163002D01*
X127850948Y-76237500D01*
X127549052Y-76237500D01*
X127526453Y-76163002D01*
X127481297Y-76078521D01*
X127420527Y-76004473D01*
X127346479Y-75943703D01*
X127261998Y-75898547D01*
X127170331Y-75870740D01*
X127075000Y-75861351D01*
X126125000Y-75861351D01*
X126029669Y-75870740D01*
X125938002Y-75898547D01*
X125853521Y-75943703D01*
X125779473Y-76004473D01*
X125718703Y-76078521D01*
X125673547Y-76163002D01*
X125650948Y-76237500D01*
X125349052Y-76237500D01*
X125326453Y-76163002D01*
X125281297Y-76078521D01*
X125220527Y-76004473D01*
X125146479Y-75943703D01*
X125061998Y-75898547D01*
X124970331Y-75870740D01*
X124875000Y-75861351D01*
X123925000Y-75861351D01*
X123829669Y-75870740D01*
X123738002Y-75898547D01*
X123653521Y-75943703D01*
X123579473Y-76004473D01*
X123518703Y-76078521D01*
X123473547Y-76163002D01*
X123450948Y-76237500D01*
X123149052Y-76237500D01*
X123126453Y-76163002D01*
X123081297Y-76078521D01*
X123020527Y-76004473D01*
X122946479Y-75943703D01*
X122861998Y-75898547D01*
X122770331Y-75870740D01*
X122675000Y-75861351D01*
X121725000Y-75861351D01*
X121629669Y-75870740D01*
X121538002Y-75898547D01*
X121453521Y-75943703D01*
X121379473Y-76004473D01*
X121318703Y-76078521D01*
X121273547Y-76163002D01*
X121250948Y-76237500D01*
X120949052Y-76237500D01*
X120926453Y-76163002D01*
X120881297Y-76078521D01*
X120820527Y-76004473D01*
X120746479Y-75943703D01*
X120661998Y-75898547D01*
X120570331Y-75870740D01*
X120475000Y-75861351D01*
X119525000Y-75861351D01*
X119429669Y-75870740D01*
X119338002Y-75898547D01*
X119253521Y-75943703D01*
X119179473Y-76004473D01*
X119118703Y-76078521D01*
X119073547Y-76163002D01*
X119050948Y-76237500D01*
X118312653Y-76237500D01*
X118238649Y-76163496D01*
X118238649Y-75618750D01*
X118229860Y-75529516D01*
X118203832Y-75443711D01*
X118161563Y-75364633D01*
X118104680Y-75295320D01*
X118035367Y-75238437D01*
X117956289Y-75196168D01*
X117870484Y-75170140D01*
X117781250Y-75161351D01*
X117343750Y-75161351D01*
X117254516Y-75170140D01*
X117168711Y-75196168D01*
X117089633Y-75238437D01*
X117020320Y-75295320D01*
X116963437Y-75364633D01*
X116921168Y-75443711D01*
X116895140Y-75529516D01*
X116886351Y-75618750D01*
X116113649Y-75618750D01*
X116104860Y-75529516D01*
X116078832Y-75443711D01*
X116036563Y-75364633D01*
X115979680Y-75295320D01*
X115910367Y-75238437D01*
X115893976Y-75229676D01*
X116613003Y-74510649D01*
X117659000Y-74510649D01*
X117705558Y-74506063D01*
X117750327Y-74492483D01*
X117791586Y-74470429D01*
X117827750Y-74440750D01*
X117857429Y-74404586D01*
X117879483Y-74363327D01*
X117893063Y-74318558D01*
X117897649Y-74272000D01*
X117897649Y-72952000D01*
X117893063Y-72905442D01*
X117879483Y-72860673D01*
X117857429Y-72819414D01*
X117827750Y-72783250D01*
X117791586Y-72753571D01*
X117750327Y-72731517D01*
X117705558Y-72717937D01*
X117659000Y-72713351D01*
X116339000Y-72713351D01*
X116292442Y-72717937D01*
X116247673Y-72731517D01*
X116206414Y-72753571D01*
X116170250Y-72783250D01*
X116140571Y-72819414D01*
X116118517Y-72860673D01*
X116104937Y-72905442D01*
X116100351Y-72952000D01*
X116100351Y-73997997D01*
X115193758Y-74904590D01*
X115179935Y-74915934D01*
X115168591Y-74929757D01*
X115168589Y-74929759D01*
X115134635Y-74971132D01*
X115100974Y-75034107D01*
X115080247Y-75102438D01*
X115073247Y-75173500D01*
X115074558Y-75186811D01*
X115043711Y-75196168D01*
X114964633Y-75238437D01*
X114895320Y-75295320D01*
X114838437Y-75364633D01*
X114796168Y-75443711D01*
X114770140Y-75529516D01*
X114761351Y-75618750D01*
X100212500Y-75618750D01*
X100212500Y-67491000D01*
X124101351Y-67491000D01*
X124101351Y-68811000D01*
X124105937Y-68857558D01*
X124119517Y-68902327D01*
X124141571Y-68943586D01*
X124171250Y-68979750D01*
X124207414Y-69009429D01*
X124248673Y-69031483D01*
X124293442Y-69045063D01*
X124340000Y-69049649D01*
X125660000Y-69049649D01*
X125706558Y-69045063D01*
X125751327Y-69031483D01*
X125792586Y-69009429D01*
X125828750Y-68979750D01*
X125858429Y-68943586D01*
X125880483Y-68902327D01*
X125894063Y-68857558D01*
X125898649Y-68811000D01*
X125898649Y-68513500D01*
X126300948Y-68513500D01*
X126323547Y-68587998D01*
X126368703Y-68672479D01*
X126429473Y-68746527D01*
X126503521Y-68807297D01*
X126588002Y-68852453D01*
X126679669Y-68880260D01*
X126775000Y-68889649D01*
X127725000Y-68889649D01*
X127820331Y-68880260D01*
X127911998Y-68852453D01*
X127996479Y-68807297D01*
X128070527Y-68746527D01*
X128131297Y-68672479D01*
X128176453Y-68587998D01*
X128199052Y-68513500D01*
X128550948Y-68513500D01*
X128573547Y-68587998D01*
X128618703Y-68672479D01*
X128679473Y-68746527D01*
X128753521Y-68807297D01*
X128838002Y-68852453D01*
X128929669Y-68880260D01*
X129025000Y-68889649D01*
X129725997Y-68889649D01*
X135880088Y-75043741D01*
X135891434Y-75057566D01*
X135905257Y-75068910D01*
X135905258Y-75068911D01*
X135946631Y-75102865D01*
X136009606Y-75136526D01*
X136077938Y-75157254D01*
X136131202Y-75162500D01*
X136131204Y-75162500D01*
X136149000Y-75164253D01*
X136166796Y-75162500D01*
X139959848Y-75162500D01*
X141201351Y-76404004D01*
X141201351Y-78330000D01*
X141205937Y-78376558D01*
X141219517Y-78421327D01*
X141241571Y-78462586D01*
X141271250Y-78498750D01*
X141307414Y-78528429D01*
X141348673Y-78550483D01*
X141393442Y-78564063D01*
X141440000Y-78568649D01*
X143640000Y-78568649D01*
X143686558Y-78564063D01*
X143731327Y-78550483D01*
X143772586Y-78528429D01*
X143808750Y-78498750D01*
X143838429Y-78462586D01*
X143860483Y-78421327D01*
X143874063Y-78376558D01*
X143878649Y-78330000D01*
X143878649Y-76130000D01*
X143874063Y-76083442D01*
X143860483Y-76038673D01*
X143838429Y-75997414D01*
X143808750Y-75961250D01*
X143772586Y-75931571D01*
X143731327Y-75909517D01*
X143686558Y-75895937D01*
X143640000Y-75891351D01*
X142902500Y-75891351D01*
X142902500Y-73748649D01*
X143640000Y-73748649D01*
X143686558Y-73744063D01*
X143731327Y-73730483D01*
X143772586Y-73708429D01*
X143808750Y-73678750D01*
X143838429Y-73642586D01*
X143860483Y-73601327D01*
X143874063Y-73556558D01*
X143878649Y-73510000D01*
X143878649Y-71310000D01*
X143874063Y-71263442D01*
X143860483Y-71218673D01*
X143838429Y-71177414D01*
X143808750Y-71141250D01*
X143772586Y-71111571D01*
X143731327Y-71089517D01*
X143686558Y-71075937D01*
X143640000Y-71071351D01*
X143281301Y-71071351D01*
X145818432Y-68534221D01*
X145947372Y-68587629D01*
X146147815Y-68627500D01*
X146352185Y-68627500D01*
X146552628Y-68587629D01*
X146741441Y-68509421D01*
X146911368Y-68395879D01*
X147055879Y-68251368D01*
X147169421Y-68081441D01*
X147247629Y-67892628D01*
X147287500Y-67692185D01*
X147287500Y-67487815D01*
X147247629Y-67287372D01*
X147169421Y-67098559D01*
X147055879Y-66928632D01*
X146911368Y-66784121D01*
X146741441Y-66670579D01*
X146552628Y-66592371D01*
X146352185Y-66552500D01*
X146147815Y-66552500D01*
X145947372Y-66592371D01*
X145758559Y-66670579D01*
X145588632Y-66784121D01*
X145444121Y-66928632D01*
X145330579Y-67098559D01*
X145252371Y-67287372D01*
X145212500Y-67487815D01*
X145212500Y-67692185D01*
X145252371Y-67892628D01*
X145305779Y-68021568D01*
X142296258Y-71031090D01*
X142282435Y-71042434D01*
X142271091Y-71056257D01*
X142271089Y-71056259D01*
X142258703Y-71071351D01*
X141440000Y-71071351D01*
X141393442Y-71075937D01*
X141348673Y-71089517D01*
X141307414Y-71111571D01*
X141271250Y-71141250D01*
X141241571Y-71177414D01*
X141219517Y-71218673D01*
X141205937Y-71263442D01*
X141201351Y-71310000D01*
X141201351Y-71815262D01*
X141185277Y-71776456D01*
X141038904Y-71557393D01*
X140852607Y-71371096D01*
X140633544Y-71224723D01*
X140390134Y-71123899D01*
X140362500Y-71118402D01*
X140362500Y-68881598D01*
X140390134Y-68876101D01*
X140633544Y-68775277D01*
X140852607Y-68628904D01*
X141038904Y-68442607D01*
X141185277Y-68223544D01*
X141201351Y-68184738D01*
X141201351Y-68690000D01*
X141205937Y-68736558D01*
X141219517Y-68781327D01*
X141241571Y-68822586D01*
X141271250Y-68858750D01*
X141307414Y-68888429D01*
X141348673Y-68910483D01*
X141393442Y-68924063D01*
X141440000Y-68928649D01*
X143640000Y-68928649D01*
X143686558Y-68924063D01*
X143731327Y-68910483D01*
X143772586Y-68888429D01*
X143808750Y-68858750D01*
X143838429Y-68822586D01*
X143860483Y-68781327D01*
X143874063Y-68736558D01*
X143878649Y-68690000D01*
X143878649Y-66490000D01*
X143874063Y-66443442D01*
X143860483Y-66398673D01*
X143838429Y-66357414D01*
X143808750Y-66321250D01*
X143772586Y-66291571D01*
X143731327Y-66269517D01*
X143686558Y-66255937D01*
X143640000Y-66251351D01*
X141714003Y-66251351D01*
X140362500Y-64899848D01*
X140362500Y-64308066D01*
X140390134Y-64302569D01*
X140633544Y-64201745D01*
X140852607Y-64055372D01*
X141038904Y-63869075D01*
X141185277Y-63650012D01*
X141286101Y-63406602D01*
X141337500Y-63148200D01*
X141337500Y-62884736D01*
X141286101Y-62626334D01*
X141185277Y-62382924D01*
X141038904Y-62163861D01*
X140852607Y-61977564D01*
X140633544Y-61831191D01*
X140390134Y-61730367D01*
X140131732Y-61678968D01*
X139868268Y-61678968D01*
X139609866Y-61730367D01*
X139366456Y-61831191D01*
X139147393Y-61977564D01*
X138961096Y-62163861D01*
X138814723Y-62382924D01*
X138713899Y-62626334D01*
X138662500Y-62884736D01*
X138662500Y-63148200D01*
X138713899Y-63406602D01*
X138814723Y-63650012D01*
X138961096Y-63869075D01*
X139147393Y-64055372D01*
X139366456Y-64201745D01*
X139609866Y-64302569D01*
X139637501Y-64308066D01*
X139637501Y-65032194D01*
X139635747Y-65050000D01*
X139642747Y-65121062D01*
X139663474Y-65189393D01*
X139697135Y-65252368D01*
X139725668Y-65287135D01*
X139742435Y-65307566D01*
X139756258Y-65318910D01*
X141201351Y-66764003D01*
X141201351Y-66995262D01*
X141185277Y-66956456D01*
X141038904Y-66737393D01*
X140852607Y-66551096D01*
X140633544Y-66404723D01*
X140390134Y-66303899D01*
X140131732Y-66252500D01*
X139868268Y-66252500D01*
X139609866Y-66303899D01*
X139366456Y-66404723D01*
X139343029Y-66420376D01*
X138362500Y-65439848D01*
X138362500Y-62150152D01*
X139050153Y-61462500D01*
X144429848Y-61462500D01*
X145305779Y-62338431D01*
X145252371Y-62467372D01*
X145212500Y-62667815D01*
X145212500Y-62872185D01*
X145252371Y-63072628D01*
X145330579Y-63261441D01*
X145444121Y-63431368D01*
X145588632Y-63575879D01*
X145758559Y-63689421D01*
X145947372Y-63767629D01*
X146147815Y-63807500D01*
X146352185Y-63807500D01*
X146552628Y-63767629D01*
X146741441Y-63689421D01*
X146911368Y-63575879D01*
X147055879Y-63431368D01*
X147169421Y-63261441D01*
X147247629Y-63072628D01*
X147287500Y-62872185D01*
X147287500Y-62667815D01*
X147247629Y-62467372D01*
X147169421Y-62278559D01*
X147055879Y-62108632D01*
X146911368Y-61964121D01*
X146741441Y-61850579D01*
X146552628Y-61772371D01*
X146352185Y-61732500D01*
X146147815Y-61732500D01*
X145947372Y-61772371D01*
X145818431Y-61825779D01*
X144848915Y-60856263D01*
X144837566Y-60842434D01*
X144782368Y-60797135D01*
X144719394Y-60763474D01*
X144651062Y-60742746D01*
X144597798Y-60737500D01*
X144597796Y-60737500D01*
X144580000Y-60735747D01*
X144562204Y-60737500D01*
X138917795Y-60737500D01*
X138899999Y-60735747D01*
X138882203Y-60737500D01*
X138882202Y-60737500D01*
X138828938Y-60742746D01*
X138760606Y-60763474D01*
X138697631Y-60797135D01*
X138656258Y-60831089D01*
X138642434Y-60842434D01*
X138631090Y-60856257D01*
X137756258Y-61731090D01*
X137742434Y-61742435D01*
X137731090Y-61756258D01*
X137731089Y-61756259D01*
X137697135Y-61797632D01*
X137668834Y-61850579D01*
X137663474Y-61860607D01*
X137642746Y-61928939D01*
X137639281Y-61964121D01*
X137635747Y-62000000D01*
X137637500Y-62017796D01*
X137637501Y-65572194D01*
X137635747Y-65590000D01*
X137642747Y-65661062D01*
X137663474Y-65729393D01*
X137697135Y-65792368D01*
X137714890Y-65814002D01*
X137742435Y-65847566D01*
X137756258Y-65858910D01*
X138830376Y-66933029D01*
X138814723Y-66956456D01*
X138713899Y-67199866D01*
X138662500Y-67458268D01*
X138662500Y-67721732D01*
X138713899Y-67980134D01*
X138814723Y-68223544D01*
X138961096Y-68442607D01*
X139147393Y-68628904D01*
X139366456Y-68775277D01*
X139609866Y-68876101D01*
X139637501Y-68881598D01*
X139637500Y-71118402D01*
X139609866Y-71123899D01*
X139366456Y-71224723D01*
X139147393Y-71371096D01*
X138961096Y-71557393D01*
X138814723Y-71776456D01*
X138713899Y-72019866D01*
X138662500Y-72278268D01*
X138662500Y-72541732D01*
X138713899Y-72800134D01*
X138814723Y-73043544D01*
X138961096Y-73262607D01*
X139147393Y-73448904D01*
X139366456Y-73595277D01*
X139609866Y-73696101D01*
X139868268Y-73747500D01*
X140131732Y-73747500D01*
X140390134Y-73696101D01*
X140633544Y-73595277D01*
X140852607Y-73448904D01*
X141038904Y-73262607D01*
X141185277Y-73043544D01*
X141201351Y-73004738D01*
X141201351Y-73510000D01*
X141205937Y-73556558D01*
X141219517Y-73601327D01*
X141241571Y-73642586D01*
X141271250Y-73678750D01*
X141307414Y-73708429D01*
X141348673Y-73730483D01*
X141393442Y-73744063D01*
X141440000Y-73748649D01*
X142177501Y-73748649D01*
X142177500Y-75891351D01*
X141714004Y-75891351D01*
X140378915Y-74556263D01*
X140367566Y-74542434D01*
X140312368Y-74497135D01*
X140249394Y-74463474D01*
X140181062Y-74442746D01*
X140127798Y-74437500D01*
X140127796Y-74437500D01*
X140110000Y-74435747D01*
X140092204Y-74437500D01*
X136299153Y-74437500D01*
X130431852Y-68570200D01*
X130454260Y-68496331D01*
X130463649Y-68401000D01*
X130463649Y-67901000D01*
X130454260Y-67805669D01*
X130426453Y-67714002D01*
X130381297Y-67629521D01*
X130320527Y-67555473D01*
X130246479Y-67494703D01*
X130161998Y-67449547D01*
X130070331Y-67421740D01*
X129975000Y-67412351D01*
X129025000Y-67412351D01*
X128929669Y-67421740D01*
X128838002Y-67449547D01*
X128753521Y-67494703D01*
X128679473Y-67555473D01*
X128618703Y-67629521D01*
X128573547Y-67714002D01*
X128550948Y-67788500D01*
X128199052Y-67788500D01*
X128176453Y-67714002D01*
X128131297Y-67629521D01*
X128070527Y-67555473D01*
X127996479Y-67494703D01*
X127911998Y-67449547D01*
X127820331Y-67421740D01*
X127725000Y-67412351D01*
X126775000Y-67412351D01*
X126679669Y-67421740D01*
X126588002Y-67449547D01*
X126503521Y-67494703D01*
X126429473Y-67555473D01*
X126368703Y-67629521D01*
X126323547Y-67714002D01*
X126300948Y-67788500D01*
X125898649Y-67788500D01*
X125898649Y-67491000D01*
X125894063Y-67444442D01*
X125880483Y-67399673D01*
X125858429Y-67358414D01*
X125828750Y-67322250D01*
X125792586Y-67292571D01*
X125751327Y-67270517D01*
X125706558Y-67256937D01*
X125660000Y-67252351D01*
X124340000Y-67252351D01*
X124293442Y-67256937D01*
X124248673Y-67270517D01*
X124207414Y-67292571D01*
X124171250Y-67322250D01*
X124141571Y-67358414D01*
X124119517Y-67399673D01*
X124105937Y-67444442D01*
X124101351Y-67491000D01*
X100212500Y-67491000D01*
X100212500Y-65750000D01*
X100221351Y-65750000D01*
X100221351Y-67250000D01*
X100225937Y-67296558D01*
X100239517Y-67341327D01*
X100261571Y-67382586D01*
X100291250Y-67418750D01*
X100327414Y-67448429D01*
X100368673Y-67470483D01*
X100413442Y-67484063D01*
X100460000Y-67488649D01*
X105540000Y-67488649D01*
X105586558Y-67484063D01*
X105631327Y-67470483D01*
X105672586Y-67448429D01*
X105708750Y-67418750D01*
X105738429Y-67382586D01*
X105760483Y-67341327D01*
X105774063Y-67296558D01*
X105778649Y-67250000D01*
X105778649Y-67129783D01*
X107406275Y-67129783D01*
X107416047Y-67161998D01*
X107461203Y-67246479D01*
X107521973Y-67320527D01*
X107596021Y-67381297D01*
X107680502Y-67426453D01*
X107772169Y-67454260D01*
X107867500Y-67463649D01*
X108367500Y-67463649D01*
X108462831Y-67454260D01*
X108554498Y-67426453D01*
X108638979Y-67381297D01*
X108713027Y-67320527D01*
X108773797Y-67246479D01*
X108818953Y-67161998D01*
X108846760Y-67070331D01*
X108856149Y-66975000D01*
X108856149Y-66025000D01*
X109278851Y-66025000D01*
X109278851Y-66975000D01*
X109288240Y-67070331D01*
X109316047Y-67161998D01*
X109361203Y-67246479D01*
X109421973Y-67320527D01*
X109496021Y-67381297D01*
X109580502Y-67426453D01*
X109672169Y-67454260D01*
X109767500Y-67463649D01*
X110267500Y-67463649D01*
X110362831Y-67454260D01*
X110454498Y-67426453D01*
X110538979Y-67381297D01*
X110613027Y-67320527D01*
X110673797Y-67246479D01*
X110718953Y-67161998D01*
X110728725Y-67129783D01*
X111401351Y-67129783D01*
X111401351Y-67160000D01*
X111405937Y-67206558D01*
X111419517Y-67251327D01*
X111441571Y-67292586D01*
X111471250Y-67328750D01*
X111507414Y-67358429D01*
X111548673Y-67380483D01*
X111593442Y-67394063D01*
X111640000Y-67398649D01*
X112960000Y-67398649D01*
X113006558Y-67394063D01*
X113051327Y-67380483D01*
X113092586Y-67358429D01*
X113128750Y-67328750D01*
X113158429Y-67292586D01*
X113180483Y-67251327D01*
X113194063Y-67206558D01*
X113198649Y-67160000D01*
X113198649Y-66001000D01*
X126286351Y-66001000D01*
X126286351Y-66501000D01*
X126295740Y-66596331D01*
X126323547Y-66687998D01*
X126368703Y-66772479D01*
X126429473Y-66846527D01*
X126503521Y-66907297D01*
X126588002Y-66952453D01*
X126679669Y-66980260D01*
X126775000Y-66989649D01*
X127725000Y-66989649D01*
X127820331Y-66980260D01*
X127911998Y-66952453D01*
X127996479Y-66907297D01*
X128070527Y-66846527D01*
X128131297Y-66772479D01*
X128176453Y-66687998D01*
X128199052Y-66613500D01*
X128550948Y-66613500D01*
X128573547Y-66687998D01*
X128618703Y-66772479D01*
X128679473Y-66846527D01*
X128753521Y-66907297D01*
X128838002Y-66952453D01*
X128929669Y-66980260D01*
X129025000Y-66989649D01*
X129975000Y-66989649D01*
X130070331Y-66980260D01*
X130161998Y-66952453D01*
X130246479Y-66907297D01*
X130320527Y-66846527D01*
X130381297Y-66772479D01*
X130426453Y-66687998D01*
X130454260Y-66596331D01*
X130463649Y-66501000D01*
X130463649Y-66001000D01*
X130454260Y-65905669D01*
X130426453Y-65814002D01*
X130381297Y-65729521D01*
X130320527Y-65655473D01*
X130246479Y-65594703D01*
X130161998Y-65549547D01*
X130070331Y-65521740D01*
X129975000Y-65512351D01*
X129025000Y-65512351D01*
X128929669Y-65521740D01*
X128838002Y-65549547D01*
X128753521Y-65594703D01*
X128679473Y-65655473D01*
X128618703Y-65729521D01*
X128573547Y-65814002D01*
X128550948Y-65888500D01*
X128199052Y-65888500D01*
X128181852Y-65831800D01*
X128618743Y-65394910D01*
X128632566Y-65383566D01*
X128677865Y-65328368D01*
X128711526Y-65265394D01*
X128732254Y-65197062D01*
X128737500Y-65143798D01*
X128737500Y-65143797D01*
X128739253Y-65126001D01*
X128737500Y-65108205D01*
X128737500Y-64276949D01*
X128890124Y-64213730D01*
X129068241Y-64094716D01*
X129219716Y-63943241D01*
X129338730Y-63765124D01*
X129420708Y-63567212D01*
X129462500Y-63357109D01*
X129462500Y-63142891D01*
X129420708Y-62932788D01*
X129338730Y-62734876D01*
X129219716Y-62556759D01*
X129068241Y-62405284D01*
X128890124Y-62286270D01*
X128724860Y-62217815D01*
X133712500Y-62217815D01*
X133712500Y-62422185D01*
X133752371Y-62622628D01*
X133830579Y-62811441D01*
X133944121Y-62981368D01*
X134088632Y-63125879D01*
X134258559Y-63239421D01*
X134447372Y-63317629D01*
X134647815Y-63357500D01*
X134852185Y-63357500D01*
X135052628Y-63317629D01*
X135241441Y-63239421D01*
X135411368Y-63125879D01*
X135555879Y-62981368D01*
X135669421Y-62811441D01*
X135747629Y-62622628D01*
X135787500Y-62422185D01*
X135787500Y-62217815D01*
X135747629Y-62017372D01*
X135669421Y-61828559D01*
X135555879Y-61658632D01*
X135411368Y-61514121D01*
X135250245Y-61406462D01*
X135250245Y-56707208D01*
X135608884Y-56348569D01*
X141712500Y-56348569D01*
X141712500Y-56651431D01*
X141771586Y-56948472D01*
X141887485Y-57228279D01*
X142055746Y-57480099D01*
X142269901Y-57694254D01*
X142521721Y-57862515D01*
X142749756Y-57956969D01*
X142749756Y-58725421D01*
X142747335Y-58750000D01*
X142756994Y-58848065D01*
X142785598Y-58942361D01*
X142785599Y-58942362D01*
X142832050Y-59029266D01*
X142894563Y-59105438D01*
X142913646Y-59121099D01*
X144128896Y-60336349D01*
X144144562Y-60355438D01*
X144220734Y-60417951D01*
X144307638Y-60464402D01*
X144401934Y-60493006D01*
X144500000Y-60502665D01*
X144524570Y-60500245D01*
X146792792Y-60500245D01*
X154218896Y-67926349D01*
X154234562Y-67945438D01*
X154310734Y-68007951D01*
X154397638Y-68054402D01*
X154491934Y-68083006D01*
X154590000Y-68092665D01*
X154614570Y-68090245D01*
X155496462Y-68090245D01*
X155604121Y-68251368D01*
X155748632Y-68395879D01*
X155918559Y-68509421D01*
X156107372Y-68587629D01*
X156307815Y-68627500D01*
X156512185Y-68627500D01*
X156712628Y-68587629D01*
X156901441Y-68509421D01*
X157071368Y-68395879D01*
X157215879Y-68251368D01*
X157329421Y-68081441D01*
X157407629Y-67892628D01*
X157447500Y-67692185D01*
X157447500Y-67487815D01*
X157407629Y-67287372D01*
X157329421Y-67098559D01*
X157215879Y-66928632D01*
X157071368Y-66784121D01*
X156901441Y-66670579D01*
X156712628Y-66592371D01*
X156512185Y-66552500D01*
X156307815Y-66552500D01*
X156107372Y-66592371D01*
X155918559Y-66670579D01*
X155748632Y-66784121D01*
X155604121Y-66928632D01*
X155496462Y-67089755D01*
X154797208Y-67089755D01*
X147371104Y-59663651D01*
X147355438Y-59644562D01*
X147279266Y-59582049D01*
X147192362Y-59535598D01*
X147098065Y-59506994D01*
X147024570Y-59499755D01*
X147000000Y-59497335D01*
X146975430Y-59499755D01*
X144707208Y-59499755D01*
X143750245Y-58542792D01*
X143750245Y-57956969D01*
X143978279Y-57862515D01*
X144230099Y-57694254D01*
X144444254Y-57480099D01*
X144612515Y-57228279D01*
X144728414Y-56948472D01*
X144787500Y-56651431D01*
X144787500Y-56348569D01*
X144728414Y-56051528D01*
X144612515Y-55771721D01*
X144444254Y-55519901D01*
X144230099Y-55305746D01*
X143978279Y-55137485D01*
X143698472Y-55021586D01*
X143401431Y-54962500D01*
X143098569Y-54962500D01*
X142801528Y-55021586D01*
X142521721Y-55137485D01*
X142269901Y-55305746D01*
X142055746Y-55519901D01*
X141887485Y-55771721D01*
X141771586Y-56051528D01*
X141712500Y-56348569D01*
X135608884Y-56348569D01*
X137957208Y-54000245D01*
X143542792Y-54000245D01*
X145211351Y-55668804D01*
X145211351Y-57800000D01*
X145215937Y-57846558D01*
X145229517Y-57891327D01*
X145251571Y-57932586D01*
X145281250Y-57968750D01*
X145317414Y-57998429D01*
X145358673Y-58020483D01*
X145403442Y-58034063D01*
X145450000Y-58038649D01*
X147581196Y-58038649D01*
X152648901Y-63106355D01*
X152664562Y-63125438D01*
X152740734Y-63187951D01*
X152823522Y-63232202D01*
X152827638Y-63234402D01*
X152921934Y-63263006D01*
X153019999Y-63272665D01*
X153044569Y-63270245D01*
X155496462Y-63270245D01*
X155604121Y-63431368D01*
X155748632Y-63575879D01*
X155918559Y-63689421D01*
X156107372Y-63767629D01*
X156307815Y-63807500D01*
X156512185Y-63807500D01*
X156712628Y-63767629D01*
X156901441Y-63689421D01*
X157071368Y-63575879D01*
X157215879Y-63431368D01*
X157329421Y-63261441D01*
X157407629Y-63072628D01*
X157447500Y-62872185D01*
X157447500Y-62667815D01*
X157407629Y-62467372D01*
X157329421Y-62278559D01*
X157215879Y-62108632D01*
X157071368Y-61964121D01*
X156901441Y-61850579D01*
X156712628Y-61772371D01*
X156512185Y-61732500D01*
X156307815Y-61732500D01*
X156107372Y-61772371D01*
X155918559Y-61850579D01*
X155748632Y-61964121D01*
X155604121Y-62108632D01*
X155496462Y-62269755D01*
X153227209Y-62269755D01*
X148288649Y-57331196D01*
X148288649Y-55200000D01*
X148284063Y-55153442D01*
X148270483Y-55108673D01*
X148248429Y-55067414D01*
X148218750Y-55031250D01*
X148182586Y-55001571D01*
X148141327Y-54979517D01*
X148096558Y-54965937D01*
X148050000Y-54961351D01*
X145918804Y-54961351D01*
X144121104Y-53163651D01*
X144105438Y-53144562D01*
X144029266Y-53082049D01*
X143942362Y-53035598D01*
X143848065Y-53006994D01*
X143774570Y-52999755D01*
X143750000Y-52997335D01*
X143725430Y-52999755D01*
X137774572Y-52999755D01*
X137750000Y-52997335D01*
X137651935Y-53006993D01*
X137557638Y-53035598D01*
X137470734Y-53082049D01*
X137394562Y-53144562D01*
X137378896Y-53163651D01*
X134413651Y-56128896D01*
X134394562Y-56144562D01*
X134332049Y-56220734D01*
X134285599Y-56307638D01*
X134285598Y-56307639D01*
X134256994Y-56401935D01*
X134247335Y-56500000D01*
X134249755Y-56524570D01*
X134249756Y-61406461D01*
X134088632Y-61514121D01*
X133944121Y-61658632D01*
X133830579Y-61828559D01*
X133752371Y-62017372D01*
X133712500Y-62217815D01*
X128724860Y-62217815D01*
X128692212Y-62204292D01*
X128482109Y-62162500D01*
X128267891Y-62162500D01*
X128057788Y-62204292D01*
X127859876Y-62286270D01*
X127681759Y-62405284D01*
X127530284Y-62556759D01*
X127411270Y-62734876D01*
X127329292Y-62932788D01*
X127287500Y-63142891D01*
X127287500Y-63357109D01*
X127329292Y-63567212D01*
X127411270Y-63765124D01*
X127530284Y-63943241D01*
X127681759Y-64094716D01*
X127859876Y-64213730D01*
X128012501Y-64276949D01*
X128012501Y-64975846D01*
X127475997Y-65512351D01*
X126775000Y-65512351D01*
X126679669Y-65521740D01*
X126588002Y-65549547D01*
X126503521Y-65594703D01*
X126429473Y-65655473D01*
X126368703Y-65729521D01*
X126323547Y-65814002D01*
X126295740Y-65905669D01*
X126286351Y-66001000D01*
X113198649Y-66001000D01*
X113198649Y-65840000D01*
X113194063Y-65793442D01*
X113180483Y-65748673D01*
X113158429Y-65707414D01*
X113128750Y-65671250D01*
X113092586Y-65641571D01*
X113051327Y-65619517D01*
X113006558Y-65605937D01*
X112960000Y-65601351D01*
X111640000Y-65601351D01*
X111593442Y-65605937D01*
X111548673Y-65619517D01*
X111507414Y-65641571D01*
X111471250Y-65671250D01*
X111441571Y-65707414D01*
X111419517Y-65748673D01*
X111405937Y-65793442D01*
X111401351Y-65840000D01*
X111401351Y-65870217D01*
X110728725Y-65870217D01*
X110718953Y-65838002D01*
X110673797Y-65753521D01*
X110613027Y-65679473D01*
X110538979Y-65618703D01*
X110454498Y-65573547D01*
X110362831Y-65545740D01*
X110267500Y-65536351D01*
X109767500Y-65536351D01*
X109672169Y-65545740D01*
X109580502Y-65573547D01*
X109496021Y-65618703D01*
X109421973Y-65679473D01*
X109361203Y-65753521D01*
X109316047Y-65838002D01*
X109288240Y-65929669D01*
X109278851Y-66025000D01*
X108856149Y-66025000D01*
X108846760Y-65929669D01*
X108818953Y-65838002D01*
X108773797Y-65753521D01*
X108713027Y-65679473D01*
X108638979Y-65618703D01*
X108554498Y-65573547D01*
X108462831Y-65545740D01*
X108367500Y-65536351D01*
X107867500Y-65536351D01*
X107772169Y-65545740D01*
X107680502Y-65573547D01*
X107596021Y-65618703D01*
X107521973Y-65679473D01*
X107461203Y-65753521D01*
X107416047Y-65838002D01*
X107406275Y-65870217D01*
X105778649Y-65870217D01*
X105778649Y-65750000D01*
X105774063Y-65703442D01*
X105760483Y-65658673D01*
X105738429Y-65617414D01*
X105708750Y-65581250D01*
X105672586Y-65551571D01*
X105631327Y-65529517D01*
X105586558Y-65515937D01*
X105540000Y-65511351D01*
X100460000Y-65511351D01*
X100413442Y-65515937D01*
X100368673Y-65529517D01*
X100327414Y-65551571D01*
X100291250Y-65581250D01*
X100261571Y-65617414D01*
X100239517Y-65658673D01*
X100225937Y-65703442D01*
X100221351Y-65750000D01*
X100212500Y-65750000D01*
X100212500Y-55009467D01*
X100288995Y-54152352D01*
X100513553Y-53331507D01*
X100879923Y-52563398D01*
X101376526Y-51872301D01*
X101987661Y-51280070D01*
X102694015Y-50805421D01*
X103473248Y-50463360D01*
X104302391Y-50264301D01*
X105007787Y-50212500D01*
X154990533Y-50212500D01*
X155847648Y-50288995D01*
G37*
%TD.AperFunction*%
%TD*%
M02*
