%TF.GenerationSoftware,KiCad,Pcbnew,(5.1.8)-1*%
%TF.CreationDate,2021-02-01T22:12:43+01:00*%
%TF.ProjectId,nlb-variant,6e6c622d-7661-4726-9961-6e742e6b6963,rev?*%
%TF.SameCoordinates,Original*%
%TF.FileFunction,Soldermask,Top*%
%TF.FilePolarity,Negative*%
%FSLAX46Y46*%
G04 Gerber Fmt 4.6, Leading zero omitted, Abs format (unit mm)*
G04 Created by KiCad (PCBNEW (5.1.8)-1) date 2021-02-01 22:12:43*
%MOMM*%
%LPD*%
G01*
G04 APERTURE LIST*
%ADD10C,1.445160*%
%TA.AperFunction,Profile*%
%ADD11C,0.050000*%
%TD*%
%ADD12R,5.080000X1.500000*%
%ADD13R,2.400000X2.400000*%
%ADD14C,2.400000*%
%ADD15C,0.800000*%
%ADD16C,6.400000*%
%ADD17C,0.100000*%
G04 APERTURE END LIST*
D10*
X132150000Y-66500000D02*
X139050000Y-66500000D01*
X120950000Y-66500000D02*
X127850000Y-66500000D01*
X140950000Y-66500000D02*
X157000000Y-66500000D01*
X119050000Y-66500000D02*
X103000000Y-66500000D01*
D11*
X105000000Y-90000000D02*
G75*
G02*
X100000000Y-85000000I0J5000000D01*
G01*
X160000000Y-85000000D02*
G75*
G02*
X155000000Y-90000000I-5000000J0D01*
G01*
X155000000Y-50000000D02*
G75*
G02*
X160000000Y-55000000I0J-5000000D01*
G01*
X100000000Y-55000000D02*
G75*
G02*
X105000000Y-50000000I5000000J0D01*
G01*
X100000000Y-85000000D02*
X100000000Y-55000000D01*
X155000000Y-90000000D02*
X105000000Y-90000000D01*
X160000000Y-55000000D02*
X160000000Y-85000000D01*
X105000000Y-50000000D02*
X155000000Y-50000000D01*
D12*
%TO.C,J3*%
X157000000Y-66500000D03*
X157000000Y-62250000D03*
X157000000Y-70750000D03*
%TD*%
%TO.C,J2*%
X103000000Y-66500000D03*
X103000000Y-70750000D03*
X103000000Y-62250000D03*
%TD*%
%TO.C,C1*%
G36*
G01*
X135900000Y-81341665D02*
X135900000Y-82291665D01*
G75*
G02*
X135650000Y-82541665I-250000J0D01*
G01*
X135150000Y-82541665D01*
G75*
G02*
X134900000Y-82291665I0J250000D01*
G01*
X134900000Y-81341665D01*
G75*
G02*
X135150000Y-81091665I250000J0D01*
G01*
X135650000Y-81091665D01*
G75*
G02*
X135900000Y-81341665I0J-250000D01*
G01*
G37*
G36*
G01*
X134000000Y-81341665D02*
X134000000Y-82291665D01*
G75*
G02*
X133750000Y-82541665I-250000J0D01*
G01*
X133250000Y-82541665D01*
G75*
G02*
X133000000Y-82291665I0J250000D01*
G01*
X133000000Y-81341665D01*
G75*
G02*
X133250000Y-81091665I250000J0D01*
G01*
X133750000Y-81091665D01*
G75*
G02*
X134000000Y-81341665I0J-250000D01*
G01*
G37*
%TD*%
%TO.C,C2*%
G36*
G01*
X134000000Y-79128332D02*
X134000000Y-80078332D01*
G75*
G02*
X133750000Y-80328332I-250000J0D01*
G01*
X133250000Y-80328332D01*
G75*
G02*
X133000000Y-80078332I0J250000D01*
G01*
X133000000Y-79128332D01*
G75*
G02*
X133250000Y-78878332I250000J0D01*
G01*
X133750000Y-78878332D01*
G75*
G02*
X134000000Y-79128332I0J-250000D01*
G01*
G37*
G36*
G01*
X135900000Y-79128332D02*
X135900000Y-80078332D01*
G75*
G02*
X135650000Y-80328332I-250000J0D01*
G01*
X135150000Y-80328332D01*
G75*
G02*
X134900000Y-80078332I0J250000D01*
G01*
X134900000Y-79128332D01*
G75*
G02*
X135150000Y-78878332I250000J0D01*
G01*
X135650000Y-78878332D01*
G75*
G02*
X135900000Y-79128332I0J-250000D01*
G01*
G37*
%TD*%
%TO.C,C3*%
G36*
G01*
X135900000Y-76914999D02*
X135900000Y-77864999D01*
G75*
G02*
X135650000Y-78114999I-250000J0D01*
G01*
X135150000Y-78114999D01*
G75*
G02*
X134900000Y-77864999I0J250000D01*
G01*
X134900000Y-76914999D01*
G75*
G02*
X135150000Y-76664999I250000J0D01*
G01*
X135650000Y-76664999D01*
G75*
G02*
X135900000Y-76914999I0J-250000D01*
G01*
G37*
G36*
G01*
X134000000Y-76914999D02*
X134000000Y-77864999D01*
G75*
G02*
X133750000Y-78114999I-250000J0D01*
G01*
X133250000Y-78114999D01*
G75*
G02*
X133000000Y-77864999I0J250000D01*
G01*
X133000000Y-76914999D01*
G75*
G02*
X133250000Y-76664999I250000J0D01*
G01*
X133750000Y-76664999D01*
G75*
G02*
X134000000Y-76914999I0J-250000D01*
G01*
G37*
%TD*%
%TO.C,C4*%
G36*
G01*
X134000000Y-74701666D02*
X134000000Y-75651666D01*
G75*
G02*
X133750000Y-75901666I-250000J0D01*
G01*
X133250000Y-75901666D01*
G75*
G02*
X133000000Y-75651666I0J250000D01*
G01*
X133000000Y-74701666D01*
G75*
G02*
X133250000Y-74451666I250000J0D01*
G01*
X133750000Y-74451666D01*
G75*
G02*
X134000000Y-74701666I0J-250000D01*
G01*
G37*
G36*
G01*
X135900000Y-74701666D02*
X135900000Y-75651666D01*
G75*
G02*
X135650000Y-75901666I-250000J0D01*
G01*
X135150000Y-75901666D01*
G75*
G02*
X134900000Y-75651666I0J250000D01*
G01*
X134900000Y-74701666D01*
G75*
G02*
X135150000Y-74451666I250000J0D01*
G01*
X135650000Y-74451666D01*
G75*
G02*
X135900000Y-74701666I0J-250000D01*
G01*
G37*
%TD*%
%TO.C,C5*%
G36*
G01*
X135900000Y-72488333D02*
X135900000Y-73438333D01*
G75*
G02*
X135650000Y-73688333I-250000J0D01*
G01*
X135150000Y-73688333D01*
G75*
G02*
X134900000Y-73438333I0J250000D01*
G01*
X134900000Y-72488333D01*
G75*
G02*
X135150000Y-72238333I250000J0D01*
G01*
X135650000Y-72238333D01*
G75*
G02*
X135900000Y-72488333I0J-250000D01*
G01*
G37*
G36*
G01*
X134000000Y-72488333D02*
X134000000Y-73438333D01*
G75*
G02*
X133750000Y-73688333I-250000J0D01*
G01*
X133250000Y-73688333D01*
G75*
G02*
X133000000Y-73438333I0J250000D01*
G01*
X133000000Y-72488333D01*
G75*
G02*
X133250000Y-72238333I250000J0D01*
G01*
X133750000Y-72238333D01*
G75*
G02*
X134000000Y-72488333I0J-250000D01*
G01*
G37*
%TD*%
%TO.C,C6*%
G36*
G01*
X134000000Y-70275000D02*
X134000000Y-71225000D01*
G75*
G02*
X133750000Y-71475000I-250000J0D01*
G01*
X133250000Y-71475000D01*
G75*
G02*
X133000000Y-71225000I0J250000D01*
G01*
X133000000Y-70275000D01*
G75*
G02*
X133250000Y-70025000I250000J0D01*
G01*
X133750000Y-70025000D01*
G75*
G02*
X134000000Y-70275000I0J-250000D01*
G01*
G37*
G36*
G01*
X135900000Y-70275000D02*
X135900000Y-71225000D01*
G75*
G02*
X135650000Y-71475000I-250000J0D01*
G01*
X135150000Y-71475000D01*
G75*
G02*
X134900000Y-71225000I0J250000D01*
G01*
X134900000Y-70275000D01*
G75*
G02*
X135150000Y-70025000I250000J0D01*
G01*
X135650000Y-70025000D01*
G75*
G02*
X135900000Y-70275000I0J-250000D01*
G01*
G37*
%TD*%
%TO.C,C7*%
G36*
G01*
X118550000Y-66975000D02*
X118550000Y-66025000D01*
G75*
G02*
X118800000Y-65775000I250000J0D01*
G01*
X119300000Y-65775000D01*
G75*
G02*
X119550000Y-66025000I0J-250000D01*
G01*
X119550000Y-66975000D01*
G75*
G02*
X119300000Y-67225000I-250000J0D01*
G01*
X118800000Y-67225000D01*
G75*
G02*
X118550000Y-66975000I0J250000D01*
G01*
G37*
G36*
G01*
X120450000Y-66975000D02*
X120450000Y-66025000D01*
G75*
G02*
X120700000Y-65775000I250000J0D01*
G01*
X121200000Y-65775000D01*
G75*
G02*
X121450000Y-66025000I0J-250000D01*
G01*
X121450000Y-66975000D01*
G75*
G02*
X121200000Y-67225000I-250000J0D01*
G01*
X120700000Y-67225000D01*
G75*
G02*
X120450000Y-66975000I0J250000D01*
G01*
G37*
%TD*%
%TO.C,C8*%
G36*
G01*
X140450000Y-66975000D02*
X140450000Y-66025000D01*
G75*
G02*
X140700000Y-65775000I250000J0D01*
G01*
X141200000Y-65775000D01*
G75*
G02*
X141450000Y-66025000I0J-250000D01*
G01*
X141450000Y-66975000D01*
G75*
G02*
X141200000Y-67225000I-250000J0D01*
G01*
X140700000Y-67225000D01*
G75*
G02*
X140450000Y-66975000I0J250000D01*
G01*
G37*
G36*
G01*
X138550000Y-66975000D02*
X138550000Y-66025000D01*
G75*
G02*
X138800000Y-65775000I250000J0D01*
G01*
X139300000Y-65775000D01*
G75*
G02*
X139550000Y-66025000I0J-250000D01*
G01*
X139550000Y-66975000D01*
G75*
G02*
X139300000Y-67225000I-250000J0D01*
G01*
X138800000Y-67225000D01*
G75*
G02*
X138550000Y-66975000I0J250000D01*
G01*
G37*
%TD*%
D13*
%TO.C,J1*%
X142500000Y-84000000D03*
D14*
X146000000Y-84000000D03*
%TD*%
%TO.C,L1*%
G36*
G01*
X135781250Y-69062500D02*
X135018750Y-69062500D01*
G75*
G02*
X134800000Y-68843750I0J218750D01*
G01*
X134800000Y-68406250D01*
G75*
G02*
X135018750Y-68187500I218750J0D01*
G01*
X135781250Y-68187500D01*
G75*
G02*
X136000000Y-68406250I0J-218750D01*
G01*
X136000000Y-68843750D01*
G75*
G02*
X135781250Y-69062500I-218750J0D01*
G01*
G37*
G36*
G01*
X135781250Y-66937500D02*
X135018750Y-66937500D01*
G75*
G02*
X134800000Y-66718750I0J218750D01*
G01*
X134800000Y-66281250D01*
G75*
G02*
X135018750Y-66062500I218750J0D01*
G01*
X135781250Y-66062500D01*
G75*
G02*
X136000000Y-66281250I0J-218750D01*
G01*
X136000000Y-66718750D01*
G75*
G02*
X135781250Y-66937500I-218750J0D01*
G01*
G37*
%TD*%
D15*
%TO.C,H1*%
X107697056Y-54302944D03*
X106000000Y-53600000D03*
X104302944Y-54302944D03*
X103600000Y-56000000D03*
X104302944Y-57697056D03*
X106000000Y-58400000D03*
X107697056Y-57697056D03*
X108400000Y-56000000D03*
D16*
X106000000Y-56000000D03*
%TD*%
%TO.C,H2*%
X154000000Y-56000000D03*
D15*
X156400000Y-56000000D03*
X155697056Y-57697056D03*
X154000000Y-58400000D03*
X152302944Y-57697056D03*
X151600000Y-56000000D03*
X152302944Y-54302944D03*
X154000000Y-53600000D03*
X155697056Y-54302944D03*
%TD*%
%TO.C,H3*%
X107697056Y-82302944D03*
X106000000Y-81600000D03*
X104302944Y-82302944D03*
X103600000Y-84000000D03*
X104302944Y-85697056D03*
X106000000Y-86400000D03*
X107697056Y-85697056D03*
X108400000Y-84000000D03*
D16*
X106000000Y-84000000D03*
%TD*%
%TO.C,H4*%
X154000000Y-84000000D03*
D15*
X156400000Y-84000000D03*
X155697056Y-85697056D03*
X154000000Y-86400000D03*
X152302944Y-85697056D03*
X151600000Y-84000000D03*
X152302944Y-82302944D03*
X154000000Y-81600000D03*
X155697056Y-82302944D03*
%TD*%
%TO.C,R1*%
G36*
G01*
X137737500Y-83549999D02*
X137737500Y-84450001D01*
G75*
G02*
X137487501Y-84700000I-249999J0D01*
G01*
X136962499Y-84700000D01*
G75*
G02*
X136712500Y-84450001I0J249999D01*
G01*
X136712500Y-83549999D01*
G75*
G02*
X136962499Y-83300000I249999J0D01*
G01*
X137487501Y-83300000D01*
G75*
G02*
X137737500Y-83549999I0J-249999D01*
G01*
G37*
G36*
G01*
X135912500Y-83549999D02*
X135912500Y-84450001D01*
G75*
G02*
X135662501Y-84700000I-249999J0D01*
G01*
X135137499Y-84700000D01*
G75*
G02*
X134887500Y-84450001I0J249999D01*
G01*
X134887500Y-83549999D01*
G75*
G02*
X135137499Y-83300000I249999J0D01*
G01*
X135662501Y-83300000D01*
G75*
G02*
X135912500Y-83549999I0J-249999D01*
G01*
G37*
%TD*%
D17*
%TO.C,U1*%
G36*
X128500000Y-66150000D02*
G01*
X128500000Y-66850000D01*
X127200000Y-66850000D01*
X127200000Y-66150000D01*
X128500000Y-66150000D01*
G37*
G36*
X132800000Y-66150000D02*
G01*
X132800000Y-66850000D01*
X131500000Y-66850000D01*
X131500000Y-66150000D01*
X132800000Y-66150000D01*
G37*
G36*
X130600000Y-68000000D02*
G01*
X130600000Y-69400000D01*
X129400000Y-69400000D01*
X129400000Y-68000000D01*
X130600000Y-68000000D01*
G37*
G36*
X130600000Y-63600000D02*
G01*
X130600000Y-65000000D01*
X129400000Y-65000000D01*
X129400000Y-63600000D01*
X130600000Y-63600000D01*
G37*
%TD*%
M02*
