M48
; DRILL file {KiCad (5.1.8)-1} date 01/26/21 19:22:27
; FORMAT={-:-/ absolute / inch / decimal}
; #@! TF.CreationDate,2021-01-26T19:22:27+01:00
; #@! TF.GenerationSoftware,Kicad,Pcbnew,(5.1.8)-1
FMAT,2
INCH
T1C0.0197
T2C0.0315
T3C0.0394
T4C0.0433
T5C0.0469
T6C0.0472
T7C0.0591
T8C0.1260
T9C0.1378
%
G90
G05
T1
X2.3071Y-4.2913
X2.3348Y-4.2245
X2.3348Y-4.3582
X2.4016Y-4.1969
X2.4016Y-4.3858
X2.4684Y-4.2245
X2.4684Y-4.3582
X2.4961Y-4.2913
X2.3071Y-2.0079
X2.3348Y-1.9411
X2.3348Y-2.0747
X2.4016Y-1.9134
X2.4016Y-2.1024
X2.4684Y-1.9411
X2.4684Y-2.0747
X2.4961Y-2.0079
X5.7717Y-2.0079
X5.7993Y-1.9411
X5.7993Y-2.0747
X5.8661Y-1.9134
X5.8661Y-2.1024
X5.933Y-1.9411
X5.933Y-2.0747
X5.9606Y-2.0079
X5.7717Y-4.2913
X5.7993Y-4.2245
X5.7993Y-4.3582
X5.8661Y-4.1969
X5.8661Y-4.3858
X5.933Y-4.2245
X5.933Y-4.3582
X5.9606Y-4.2913
T2
X4.2815Y-2.1409
X4.2815Y-2.4409
X4.3815Y-2.1409
X4.3815Y-2.4409
X4.4815Y-2.1409
X4.4815Y-2.4409
X4.5815Y-2.1409
X4.5815Y-2.4409
X4.6815Y-2.1409
X4.6815Y-2.4409
X4.7815Y-2.1409
X4.7815Y-2.4409
X4.8815Y-2.1409
X4.8815Y-2.4409
X4.9815Y-2.1409
X4.9815Y-2.4409
X5.0815Y-2.1409
X5.0815Y-2.4409
X5.1815Y-2.1409
X5.1815Y-2.4409
X4.9189Y-3.874
X5.0173Y-3.874
X2.8756Y-3.7122
X3.2756Y-3.7122
X4.0354Y-2.4409
X4.1339Y-2.4409
X3.0709Y-3.8976
X3.4709Y-3.8976
X3.4209Y-3.1807
X3.8209Y-3.1807
X3.6406Y-3.7402
X3.739Y-3.7402
X4.6063Y-3.078
X4.6063Y-3.378
X4.7063Y-3.078
X4.7063Y-3.378
X4.8063Y-3.078
X4.8063Y-3.378
X4.9063Y-3.078
X4.9063Y-3.378
X4.0354Y-2.3409
X4.1339Y-2.3409
X4.0157Y-3.1594
X4.4157Y-3.1594
X3.8406Y-3.7402
X3.939Y-3.7402
X4.0354Y-2.2409
X4.1339Y-2.2409
X2.6575Y-4.3602
X3.0575Y-4.3602
X5.2102Y-1.9692
X5.6102Y-1.9692
X5.315Y-2.4606
X5.4134Y-2.4606
X4.6886Y-2.6181
X5.0886Y-2.6181
X4.0354Y-2.1409
X4.1339Y-2.1409
X4.0157Y-3.2972
X4.4157Y-3.2972
X4.7189Y-3.874
X4.8173Y-3.874
X5.315Y-2.3622
X5.4134Y-2.3622
X2.8756Y-2.9248
X3.2756Y-2.9248
X3.4209Y-2.787
X3.8209Y-2.787
X3.4209Y-2.3933
X3.8209Y-2.3933
X2.6575Y-4.2224
X3.0575Y-4.2224
X2.8756Y-3.3185
X3.2756Y-3.3185
X3.4209Y-3.5744
X3.8209Y-3.5744
X2.8756Y-2.5311
X3.2756Y-2.5311
X5.0736Y-3.002
X5.4736Y-3.002
X4.6681Y-3.5433
X5.0681Y-3.5433
X5.0736Y-3.1398
X5.4736Y-3.1398
T3
X5.3543Y-2.1654
X5.4543Y-2.1654
X5.5543Y-2.1654
X2.7362Y-3.5122
X2.7362Y-3.6122
X2.7362Y-3.7122
X2.5394Y-3.8961
X2.5394Y-3.9961
X4.9177Y-1.9688
X5.0177Y-1.9688
X2.7362Y-2.7248
X2.7362Y-2.8248
X2.7362Y-2.9248
X3.8764Y-1.9685
X3.9764Y-1.9685
X2.8937Y-3.8961
X2.8937Y-3.9961
X2.7362Y-3.1185
X2.7362Y-3.2185
X2.7362Y-3.3185
X2.7165Y-3.8961
X2.7165Y-3.9961
X5.2461Y-2.6378
X5.3461Y-2.6378
X5.4461Y-2.6378
X2.7362Y-2.3311
X2.7362Y-2.4311
X2.7362Y-2.5311
X4.0043Y-2.6181
X4.1043Y-2.6181
X4.198Y-1.9685
X4.298Y-1.9685
X4.398Y-1.9685
X4.498Y-1.9685
X4.598Y-1.9685
X4.698Y-1.9685
X2.3622Y-3.8961
X2.3622Y-3.9961
X5.2382Y-3.7762
X5.3382Y-3.7762
T4
X3.4327Y-3.3744
X3.8327Y-3.3744
X3.4327Y-2.9807
X3.8327Y-2.9807
X2.8874Y-2.3311
X3.2874Y-2.3311
X5.502Y-3.2862
X5.502Y-3.6862
X5.0429Y-2.8396
X5.4429Y-2.8396
X3.6898Y-3.8583
X3.7898Y-3.8583
X3.8898Y-3.8583
X4.0291Y-2.8396
X4.4291Y-2.8396
X2.8874Y-3.5122
X3.2874Y-3.5122
X4.6681Y-3.6969
X5.0681Y-3.6969
X4.7681Y-3.9921
X4.8681Y-3.9921
X4.9681Y-3.9921
X5.2264Y-3.3423
X5.2264Y-3.4423
X5.2264Y-3.5423
X2.8874Y-2.7248
X3.2874Y-2.7248
X3.4327Y-2.587
X3.8327Y-2.587
X2.8874Y-3.1185
X3.2874Y-3.1185
X3.4327Y-2.1933
X3.8327Y-2.1933
T5
X3.1972Y-4.2906
X3.2972Y-4.2906
X3.9551Y-4.2913
X4.0551Y-4.2913
X3.4499Y-4.2906
X3.5499Y-4.2906
X3.7025Y-4.2913
X3.8025Y-4.2913
T6
X2.4606Y-2.3622
X2.4606Y-2.5
X4.6104Y-2.8396
X4.8104Y-2.8396
X2.4606Y-3.1496
X2.4606Y-3.2874
X5.8071Y-2.3189
X5.8071Y-2.4567
X5.8071Y-2.7343
X5.8071Y-2.872
X2.4606Y-2.7559
X2.4606Y-2.8937
X2.4606Y-3.5433
X2.4606Y-3.6811
X4.3307Y-2.6181
X4.5307Y-2.6181
T7
X5.8071Y-3.1201
X5.8071Y-4.0098
T8
X2.4016Y-2.0079
X5.8661Y-2.0079
X5.8661Y-4.2913
X2.4016Y-4.2913
T9
X4.3681Y-4.1693
X5.3681Y-4.1693
T0
M30
