%TF.GenerationSoftware,KiCad,Pcbnew,(5.1.8)-1*%
%TF.CreationDate,2021-01-26T19:22:21+01:00*%
%TF.ProjectId,charger,63686172-6765-4722-9e6b-696361645f70,rev?*%
%TF.SameCoordinates,Original*%
%TF.FileFunction,Soldermask,Bot*%
%TF.FilePolarity,Negative*%
%FSLAX46Y46*%
G04 Gerber Fmt 4.6, Leading zero omitted, Abs format (unit mm)*
G04 Created by KiCad (PCBNEW (5.1.8)-1) date 2021-01-26 19:22:21*
%MOMM*%
%LPD*%
G01*
G04 APERTURE LIST*
%TA.AperFunction,Profile*%
%ADD10C,0.050000*%
%TD*%
%ADD11C,2.400000*%
%ADD12R,2.400000X2.400000*%
%ADD13C,1.600000*%
%ADD14O,1.740000X2.190000*%
%ADD15O,2.200000X2.200000*%
%ADD16R,2.200000X2.200000*%
%ADD17C,3.000000*%
%ADD18C,6.400000*%
%ADD19C,0.800000*%
%ADD20C,6.000000*%
%ADD21O,1.700000X1.700000*%
%ADD22R,1.700000X1.700000*%
%ADD23R,2.000000X1.905000*%
%ADD24O,2.000000X1.905000*%
%ADD25O,1.800000X1.800000*%
%ADD26R,1.800000X1.800000*%
%ADD27O,1.600000X1.600000*%
%ADD28O,2.400000X2.400000*%
%ADD29R,1.905000X2.000000*%
%ADD30O,1.905000X2.000000*%
%ADD31R,1.600000X1.600000*%
G04 APERTURE END LIST*
D10*
X150000000Y-45000000D02*
G75*
G02*
X155000000Y-50000000I0J-5000000D01*
G01*
X155000000Y-110000000D02*
G75*
G02*
X150000000Y-115000000I-5000000J0D01*
G01*
X60000000Y-115000000D02*
G75*
G02*
X55000000Y-110000000I0J5000000D01*
G01*
X55000000Y-50000000D02*
G75*
G02*
X60000000Y-45000000I5000000J0D01*
G01*
X155000000Y-110000000D02*
X155000000Y-50000000D01*
X60000000Y-115000000D02*
X150000000Y-115000000D01*
X60000000Y-45000000D02*
X150000000Y-45000000D01*
X55000000Y-50000000D02*
X55000000Y-110000000D01*
D11*
%TO.C,BT1*%
X147500000Y-58900000D03*
D12*
X147500000Y-62400000D03*
%TD*%
D13*
%TO.C,C1*%
X102500000Y-54380000D03*
X105000000Y-54380000D03*
%TD*%
%TO.C,C2*%
X105000000Y-56920000D03*
X102500000Y-56920000D03*
%TD*%
%TO.C,C3*%
X102500000Y-59460000D03*
X105000000Y-59460000D03*
%TD*%
%TO.C,C4*%
X102500000Y-62000000D03*
X105000000Y-62000000D03*
%TD*%
%TO.C,C5*%
X124940000Y-98400000D03*
X127440000Y-98400000D03*
%TD*%
%TO.C,C6*%
X119860000Y-98400000D03*
X122360000Y-98400000D03*
%TD*%
%TO.C,C7*%
X137500000Y-62500000D03*
X135000000Y-62500000D03*
%TD*%
%TO.C,C8*%
X137500000Y-60000000D03*
X135000000Y-60000000D03*
%TD*%
%TO.C,C9*%
X100050000Y-95000000D03*
X97550000Y-95000000D03*
%TD*%
%TO.C,C10*%
X94970000Y-95000000D03*
X92470000Y-95000000D03*
%TD*%
D14*
%TO.C,D1*%
X87626666Y-108980000D03*
G36*
G01*
X91036666Y-108134999D02*
X91036666Y-109825001D01*
G75*
G02*
X90786667Y-110075000I-249999J0D01*
G01*
X89546665Y-110075000D01*
G75*
G02*
X89296666Y-109825001I0J249999D01*
G01*
X89296666Y-108134999D01*
G75*
G02*
X89546665Y-107885000I249999J0D01*
G01*
X90786667Y-107885000D01*
G75*
G02*
X91036666Y-108134999I0J-249999D01*
G01*
G37*
%TD*%
D15*
%TO.C,D2*%
X118570000Y-93900000D03*
D16*
X128730000Y-93900000D03*
%TD*%
%TO.C,D3*%
G36*
G01*
X84620000Y-108134999D02*
X84620000Y-109825001D01*
G75*
G02*
X84370001Y-110075000I-249999J0D01*
G01*
X83129999Y-110075000D01*
G75*
G02*
X82880000Y-109825001I0J249999D01*
G01*
X82880000Y-108134999D01*
G75*
G02*
X83129999Y-107885000I249999J0D01*
G01*
X84370001Y-107885000D01*
G75*
G02*
X84620000Y-108134999I0J-249999D01*
G01*
G37*
D14*
X81210000Y-108980000D03*
%TD*%
D16*
%TO.C,D4*%
X139750000Y-93630000D03*
D15*
X139750000Y-83470000D03*
%TD*%
%TO.C,D5*%
X102340000Y-72125000D03*
D16*
X112500000Y-72125000D03*
%TD*%
%TO.C,D6*%
X138250000Y-72125000D03*
D15*
X128090000Y-72125000D03*
%TD*%
%TO.C,D7*%
X73340000Y-59210000D03*
D16*
X83500000Y-59210000D03*
%TD*%
%TO.C,D8*%
X83500000Y-89210000D03*
D15*
X73340000Y-89210000D03*
%TD*%
D16*
%TO.C,D9*%
X83500000Y-79210000D03*
D15*
X73340000Y-79210000D03*
%TD*%
D16*
%TO.C,D10*%
X83500000Y-69210000D03*
D15*
X73340000Y-69210000D03*
%TD*%
D16*
%TO.C,D11*%
X97350000Y-55710000D03*
D15*
X87190000Y-55710000D03*
%TD*%
D16*
%TO.C,D12*%
X97350000Y-85710000D03*
D15*
X87190000Y-85710000D03*
%TD*%
%TO.C,D13*%
X87190000Y-75710000D03*
D16*
X97350000Y-75710000D03*
%TD*%
D15*
%TO.C,D14*%
X87190000Y-65710000D03*
D16*
X97350000Y-65710000D03*
%TD*%
D17*
%TO.C,F1*%
X147500000Y-101850000D03*
X147500000Y-79250000D03*
%TD*%
D18*
%TO.C,H1*%
X61000000Y-51000000D03*
D19*
X63400000Y-51000000D03*
X62697056Y-52697056D03*
X61000000Y-53400000D03*
X59302944Y-52697056D03*
X58600000Y-51000000D03*
X59302944Y-49302944D03*
X61000000Y-48600000D03*
X62697056Y-49302944D03*
%TD*%
%TO.C,H2*%
X150697056Y-49302944D03*
X149000000Y-48600000D03*
X147302944Y-49302944D03*
X146600000Y-51000000D03*
X147302944Y-52697056D03*
X149000000Y-53400000D03*
X150697056Y-52697056D03*
X151400000Y-51000000D03*
D18*
X149000000Y-51000000D03*
%TD*%
%TO.C,H3*%
X149000000Y-109000000D03*
D19*
X151400000Y-109000000D03*
X150697056Y-110697056D03*
X149000000Y-111400000D03*
X147302944Y-110697056D03*
X146600000Y-109000000D03*
X147302944Y-107302944D03*
X149000000Y-106600000D03*
X150697056Y-107302944D03*
%TD*%
%TO.C,H4*%
X62697056Y-107302944D03*
X61000000Y-106600000D03*
X59302944Y-107302944D03*
X58600000Y-109000000D03*
X59302944Y-110697056D03*
X61000000Y-111400000D03*
X62697056Y-110697056D03*
X63400000Y-109000000D03*
D18*
X61000000Y-109000000D03*
%TD*%
D20*
%TO.C,HS1*%
X110950000Y-105900000D03*
X136350000Y-105900000D03*
%TD*%
D11*
%TO.C,J1*%
X147500000Y-69450000D03*
D12*
X147500000Y-72950000D03*
%TD*%
%TO.C,J3*%
X62500000Y-60000000D03*
D11*
X62500000Y-63500000D03*
%TD*%
D12*
%TO.C,J4*%
X62500000Y-90000000D03*
D11*
X62500000Y-93500000D03*
%TD*%
D12*
%TO.C,J5*%
X62500000Y-80000000D03*
D11*
X62500000Y-83500000D03*
%TD*%
%TO.C,J6*%
X62500000Y-73500000D03*
D12*
X62500000Y-70000000D03*
%TD*%
D21*
%TO.C,JP1*%
X133050000Y-95916666D03*
D22*
X135590000Y-95916666D03*
%TD*%
%TO.C,JP2*%
X104250000Y-66500000D03*
D21*
X101710000Y-66500000D03*
%TD*%
%TO.C,JP3*%
X98460000Y-50000000D03*
D22*
X101000000Y-50000000D03*
%TD*%
%TO.C,JP4*%
X124910000Y-50008333D03*
D21*
X127450000Y-50008333D03*
%TD*%
D23*
%TO.C,Q1*%
X132750000Y-84893333D03*
D24*
X132750000Y-87433333D03*
X132750000Y-89973333D03*
%TD*%
D25*
%TO.C,Q2*%
X69500000Y-59210000D03*
X69500000Y-61750000D03*
D26*
X69500000Y-64290000D03*
%TD*%
%TO.C,Q4*%
X69500000Y-94290000D03*
D25*
X69500000Y-91750000D03*
X69500000Y-89210000D03*
%TD*%
D26*
%TO.C,Q5*%
X69500000Y-84290000D03*
D25*
X69500000Y-81750000D03*
X69500000Y-79210000D03*
%TD*%
%TO.C,Q6*%
X69500000Y-69210000D03*
X69500000Y-71750000D03*
D26*
X69500000Y-74290000D03*
%TD*%
D27*
%TO.C,R1*%
X77660000Y-110750000D03*
D13*
X67500000Y-110750000D03*
%TD*%
D11*
%TO.C,R2*%
X110000000Y-66500000D03*
D28*
X115080000Y-66500000D03*
%TD*%
D13*
%TO.C,R3*%
X67500000Y-107250000D03*
D27*
X77660000Y-107250000D03*
%TD*%
D13*
%TO.C,R4*%
X118570000Y-90000000D03*
D27*
X128730000Y-90000000D03*
%TD*%
%TO.C,R5*%
X88160000Y-99000000D03*
D13*
X78000000Y-99000000D03*
%TD*%
D11*
%TO.C,R6*%
X122185000Y-72125000D03*
D28*
X117105000Y-72125000D03*
%TD*%
D27*
%TO.C,R7*%
X128870000Y-79750000D03*
D13*
X139030000Y-79750000D03*
%TD*%
%TO.C,R8*%
X128870000Y-76250000D03*
D27*
X139030000Y-76250000D03*
%TD*%
%TO.C,R9*%
X97050000Y-60790000D03*
D13*
X86890000Y-60790000D03*
%TD*%
D27*
%TO.C,R10*%
X97050000Y-90790000D03*
D13*
X86890000Y-90790000D03*
%TD*%
%TO.C,R11*%
X86890000Y-80790000D03*
D27*
X97050000Y-80790000D03*
%TD*%
D13*
%TO.C,R12*%
X86890000Y-70790000D03*
D27*
X97050000Y-70790000D03*
%TD*%
%TO.C,R13*%
X132340000Y-50016666D03*
D13*
X142500000Y-50016666D03*
%TD*%
%TO.C,R14*%
X83200000Y-64290000D03*
D27*
X73040000Y-64290000D03*
%TD*%
D13*
%TO.C,R15*%
X83200000Y-94290000D03*
D27*
X73040000Y-94290000D03*
%TD*%
%TO.C,R16*%
X73040000Y-84290000D03*
D13*
X83200000Y-84290000D03*
%TD*%
%TO.C,R17*%
X83200000Y-74290000D03*
D27*
X73040000Y-74290000D03*
%TD*%
%TO.C,TH1*%
G36*
G01*
X97453332Y-108154999D02*
X97453332Y-109845001D01*
G75*
G02*
X97203333Y-110095000I-249999J0D01*
G01*
X95963331Y-110095000D01*
G75*
G02*
X95713332Y-109845001I0J249999D01*
G01*
X95713332Y-108154999D01*
G75*
G02*
X95963331Y-107905000I249999J0D01*
G01*
X97203333Y-107905000D01*
G75*
G02*
X97453332Y-108154999I0J-249999D01*
G01*
G37*
D14*
X94043332Y-109000000D03*
%TD*%
D29*
%TO.C,U1*%
X126190000Y-101400000D03*
D30*
X123650000Y-101400000D03*
X121110000Y-101400000D03*
%TD*%
D31*
%TO.C,U2*%
X108750000Y-62000000D03*
D27*
X131610000Y-54380000D03*
X111290000Y-62000000D03*
X129070000Y-54380000D03*
X113830000Y-62000000D03*
X126530000Y-54380000D03*
X116370000Y-62000000D03*
X123990000Y-54380000D03*
X118910000Y-62000000D03*
X121450000Y-54380000D03*
X121450000Y-62000000D03*
X118910000Y-54380000D03*
X123990000Y-62000000D03*
X116370000Y-54380000D03*
X126530000Y-62000000D03*
X113830000Y-54380000D03*
X129070000Y-62000000D03*
X111290000Y-54380000D03*
X131610000Y-62000000D03*
X108750000Y-54380000D03*
%TD*%
D30*
%TO.C,U3*%
X93720000Y-98000000D03*
X96260000Y-98000000D03*
D29*
X98800000Y-98000000D03*
%TD*%
D21*
%TO.C,JP5*%
X60000000Y-98960000D03*
D22*
X60000000Y-101500000D03*
%TD*%
%TO.C,JP6*%
X64500000Y-101500000D03*
D21*
X64500000Y-98960000D03*
%TD*%
D22*
%TO.C,JP7*%
X69000000Y-101500000D03*
D21*
X69000000Y-98960000D03*
%TD*%
%TO.C,JP8*%
X73500000Y-98960000D03*
D22*
X73500000Y-101500000D03*
%TD*%
D25*
%TO.C,Q3*%
X138330000Y-67000000D03*
X135790000Y-67000000D03*
D26*
X133250000Y-67000000D03*
%TD*%
%TO.C,Q7*%
X136000000Y-55000000D03*
D25*
X138540000Y-55000000D03*
X141080000Y-55000000D03*
%TD*%
D13*
%TO.C,R18*%
X102000000Y-80250000D03*
D27*
X112160000Y-80250000D03*
%TD*%
%TO.C,R19*%
X112160000Y-83750000D03*
D13*
X102000000Y-83750000D03*
%TD*%
D31*
%TO.C,U4*%
X117000000Y-85800000D03*
D27*
X124620000Y-78180000D03*
X119540000Y-85800000D03*
X122080000Y-78180000D03*
X122080000Y-85800000D03*
X119540000Y-78180000D03*
X124620000Y-85800000D03*
X117000000Y-78180000D03*
%TD*%
%TO.C,SW1*%
G36*
G01*
X103870000Y-108154999D02*
X103870000Y-109845001D01*
G75*
G02*
X103620001Y-110095000I-249999J0D01*
G01*
X102379999Y-110095000D01*
G75*
G02*
X102130000Y-109845001I0J249999D01*
G01*
X102130000Y-108154999D01*
G75*
G02*
X102379999Y-107905000I249999J0D01*
G01*
X103620001Y-107905000D01*
G75*
G02*
X103870000Y-108154999I0J-249999D01*
G01*
G37*
D14*
X100460000Y-109000000D03*
%TD*%
D22*
%TO.C,J2*%
X106630000Y-49999999D03*
D21*
X109170000Y-49999999D03*
X111710000Y-49999999D03*
X114250000Y-49999999D03*
X116790000Y-49999999D03*
X119330000Y-49999999D03*
%TD*%
D13*
%TO.C,R20*%
X129250000Y-66500000D03*
D27*
X119090000Y-66500000D03*
%TD*%
M02*
