%TF.GenerationSoftware,KiCad,Pcbnew,(5.1.8)-1*%
%TF.CreationDate,2021-02-11T07:27:05+01:00*%
%TF.ProjectId,psu,7073752e-6b69-4636-9164-5f7063625858,rev?*%
%TF.SameCoordinates,Original*%
%TF.FileFunction,Soldermask,Bot*%
%TF.FilePolarity,Negative*%
%FSLAX46Y46*%
G04 Gerber Fmt 4.6, Leading zero omitted, Abs format (unit mm)*
G04 Created by KiCad (PCBNEW (5.1.8)-1) date 2021-02-11 07:27:05*
%MOMM*%
%LPD*%
G01*
G04 APERTURE LIST*
%TA.AperFunction,Profile*%
%ADD10C,0.050000*%
%TD*%
%ADD11R,2.000000X2.000000*%
%ADD12C,2.000000*%
%ADD13C,1.600000*%
%ADD14O,2.200000X2.200000*%
%ADD15R,2.200000X2.200000*%
%ADD16O,1.740000X2.190000*%
%ADD17C,3.000000*%
%ADD18R,2.400000X2.400000*%
%ADD19C,2.400000*%
%ADD20R,1.700000X1.700000*%
%ADD21O,1.700000X1.700000*%
%ADD22O,1.800000X1.800000*%
%ADD23R,1.800000X1.800000*%
%ADD24R,1.905000X2.000000*%
%ADD25O,1.905000X2.000000*%
%ADD26O,1.600000X1.600000*%
%ADD27O,2.000000X1.905000*%
%ADD28R,2.000000X1.905000*%
%ADD29C,6.000000*%
%ADD30C,6.400000*%
%ADD31C,0.800000*%
G04 APERTURE END LIST*
D10*
X85000000Y-110000000D02*
G75*
G02*
X80000000Y-105000000I0J5000000D01*
G01*
X170000000Y-105000000D02*
G75*
G02*
X165000000Y-110000000I-5000000J0D01*
G01*
X165000000Y-50000000D02*
G75*
G02*
X170000000Y-55000000I0J-5000000D01*
G01*
X80000000Y-55000000D02*
G75*
G02*
X85000000Y-50000000I5000000J0D01*
G01*
X170000000Y-55000000D02*
X170000000Y-105000000D01*
X85000000Y-110000000D02*
X165000000Y-110000000D01*
X85000000Y-50000000D02*
X165000000Y-50000000D01*
X80000000Y-55000000D02*
X80000000Y-105000000D01*
D11*
%TO.C,C1*%
X148000000Y-58850000D03*
D12*
X153000000Y-58850000D03*
%TD*%
D11*
%TO.C,C2*%
X148000000Y-72950000D03*
D12*
X153000000Y-72950000D03*
%TD*%
%TO.C,C3*%
X153000000Y-87050000D03*
D11*
X148000000Y-87050000D03*
%TD*%
D12*
%TO.C,C4*%
X153000000Y-101150000D03*
D11*
X148000000Y-101150000D03*
%TD*%
D13*
%TO.C,C5*%
X127500000Y-84500000D03*
X127500000Y-87000000D03*
%TD*%
%TO.C,C6*%
X127500000Y-92000000D03*
X127500000Y-94500000D03*
%TD*%
D14*
%TO.C,D1*%
X98590000Y-92400000D03*
D15*
X108750000Y-92400000D03*
%TD*%
%TO.C,D2*%
X108750000Y-82440000D03*
D14*
X98590000Y-82440000D03*
%TD*%
%TO.C,D3*%
X98590000Y-72480000D03*
D15*
X108750000Y-72480000D03*
%TD*%
%TO.C,D4*%
X108750000Y-62520000D03*
D14*
X98590000Y-62520000D03*
%TD*%
D15*
%TO.C,D5*%
X123034999Y-92400000D03*
D14*
X112874999Y-92400000D03*
%TD*%
D15*
%TO.C,D6*%
X123034999Y-82440000D03*
D14*
X112874999Y-82440000D03*
%TD*%
%TO.C,D7*%
X112874999Y-72480000D03*
D15*
X123034999Y-72480000D03*
%TD*%
D14*
%TO.C,D8*%
X112874999Y-62520000D03*
D15*
X123034999Y-62520000D03*
%TD*%
D14*
%TO.C,D9*%
X140000000Y-94580000D03*
D15*
X140000000Y-84420000D03*
%TD*%
%TO.C,D10*%
G36*
G01*
X105130000Y-56365001D02*
X105130000Y-54674999D01*
G75*
G02*
X105379999Y-54425000I249999J0D01*
G01*
X106620001Y-54425000D01*
G75*
G02*
X106870000Y-54674999I0J-249999D01*
G01*
X106870000Y-56365001D01*
G75*
G02*
X106620001Y-56615000I-249999J0D01*
G01*
X105379999Y-56615000D01*
G75*
G02*
X105130000Y-56365001I0J249999D01*
G01*
G37*
D16*
X108540000Y-55520000D03*
%TD*%
D15*
%TO.C,D11*%
X141080000Y-61500000D03*
D14*
X130920000Y-61500000D03*
%TD*%
D17*
%TO.C,F1*%
X162150000Y-63333333D03*
X162150000Y-85933333D03*
%TD*%
D18*
%TO.C,J1*%
X87000000Y-93190000D03*
D19*
X87000000Y-96690000D03*
%TD*%
%TO.C,J2*%
X87000000Y-86730000D03*
D18*
X87000000Y-83230000D03*
%TD*%
D19*
%TO.C,J3*%
X87000000Y-76770000D03*
D18*
X87000000Y-73270000D03*
%TD*%
%TO.C,J4*%
X87000000Y-63310000D03*
D19*
X87000000Y-66810000D03*
%TD*%
D18*
%TO.C,J5*%
X163000000Y-95916666D03*
D19*
X163000000Y-92416666D03*
%TD*%
D20*
%TO.C,JP1*%
X93500000Y-105275000D03*
D21*
X93500000Y-102735000D03*
%TD*%
%TO.C,JP2*%
X98000000Y-102735000D03*
D20*
X98000000Y-105275000D03*
%TD*%
%TO.C,JP3*%
X102750000Y-105275000D03*
D21*
X102750000Y-102735000D03*
%TD*%
%TO.C,JP4*%
X107250000Y-102735000D03*
D20*
X107250000Y-105275000D03*
%TD*%
%TO.C,JP5*%
X113324999Y-106000000D03*
D21*
X115864999Y-106000000D03*
%TD*%
D22*
%TO.C,Q1*%
X94000000Y-92400000D03*
X94000000Y-94940000D03*
D23*
X94000000Y-97480000D03*
%TD*%
%TO.C,Q2*%
X94000000Y-87520000D03*
D22*
X94000000Y-84980000D03*
X94000000Y-82440000D03*
%TD*%
%TO.C,Q3*%
X94000000Y-72480000D03*
X94000000Y-75020000D03*
D23*
X94000000Y-77560000D03*
%TD*%
%TO.C,Q4*%
X94000000Y-67600000D03*
D22*
X94000000Y-65060000D03*
X94000000Y-62520000D03*
%TD*%
D24*
%TO.C,Q5*%
X133460000Y-56500000D03*
D25*
X136000000Y-56500000D03*
X138540000Y-56500000D03*
%TD*%
D26*
%TO.C,R2*%
X114840000Y-97480000D03*
D13*
X125000000Y-97480000D03*
%TD*%
%TO.C,R3*%
X122734999Y-87520000D03*
D26*
X112574999Y-87520000D03*
%TD*%
D13*
%TO.C,R4*%
X122734999Y-77560000D03*
D26*
X112574999Y-77560000D03*
%TD*%
D13*
%TO.C,R5*%
X122734999Y-67600000D03*
D26*
X112574999Y-67600000D03*
%TD*%
%TO.C,R7*%
X98290000Y-87520000D03*
D13*
X108450000Y-87520000D03*
%TD*%
D26*
%TO.C,R8*%
X98290000Y-77560000D03*
D13*
X108450000Y-77560000D03*
%TD*%
D26*
%TO.C,R9*%
X98290000Y-67600000D03*
D13*
X108450000Y-67600000D03*
%TD*%
D26*
%TO.C,R10*%
X130920000Y-66500000D03*
D13*
X141080000Y-66500000D03*
%TD*%
%TO.C,R11*%
X102250000Y-55500000D03*
D26*
X92090000Y-55500000D03*
%TD*%
D27*
%TO.C,U1*%
X131500000Y-92040000D03*
X131500000Y-89500000D03*
D28*
X131500000Y-86960000D03*
%TD*%
D29*
%TO.C,HS1*%
X136000000Y-76800000D03*
X136000000Y-102200000D03*
%TD*%
D30*
%TO.C,H1*%
X86000000Y-56000000D03*
D31*
X88400000Y-56000000D03*
X87697056Y-57697056D03*
X86000000Y-58400000D03*
X84302944Y-57697056D03*
X83600000Y-56000000D03*
X84302944Y-54302944D03*
X86000000Y-53600000D03*
X87697056Y-54302944D03*
%TD*%
%TO.C,H2*%
X165697056Y-54302944D03*
X164000000Y-53600000D03*
X162302944Y-54302944D03*
X161600000Y-56000000D03*
X162302944Y-57697056D03*
X164000000Y-58400000D03*
X165697056Y-57697056D03*
X166400000Y-56000000D03*
D30*
X164000000Y-56000000D03*
%TD*%
%TO.C,H3*%
X164000000Y-104000000D03*
D31*
X166400000Y-104000000D03*
X165697056Y-105697056D03*
X164000000Y-106400000D03*
X162302944Y-105697056D03*
X161600000Y-104000000D03*
X162302944Y-102302944D03*
X164000000Y-101600000D03*
X165697056Y-102302944D03*
%TD*%
%TO.C,H4*%
X87697056Y-102302944D03*
X86000000Y-101600000D03*
X84302944Y-102302944D03*
X83600000Y-104000000D03*
X84302944Y-105697056D03*
X86000000Y-106400000D03*
X87697056Y-105697056D03*
X88400000Y-104000000D03*
D30*
X86000000Y-104000000D03*
%TD*%
D13*
%TO.C,R1*%
X112574999Y-102000000D03*
D26*
X125274999Y-102000000D03*
%TD*%
%TO.C,R6*%
X98590000Y-97480000D03*
D13*
X111290000Y-97480000D03*
%TD*%
M02*
