%TF.GenerationSoftware,KiCad,Pcbnew,(5.1.8)-1*%
%TF.CreationDate,2021-02-11T07:27:05+01:00*%
%TF.ProjectId,psu,7073752e-6b69-4636-9164-5f7063625858,rev?*%
%TF.SameCoordinates,Original*%
%TF.FileFunction,Legend,Top*%
%TF.FilePolarity,Positive*%
%FSLAX46Y46*%
G04 Gerber Fmt 4.6, Leading zero omitted, Abs format (unit mm)*
G04 Created by KiCad (PCBNEW (5.1.8)-1) date 2021-02-11 07:27:05*
%MOMM*%
%LPD*%
G01*
G04 APERTURE LIST*
%ADD10C,0.120000*%
%TA.AperFunction,Profile*%
%ADD11C,0.050000*%
%TD*%
%ADD12C,0.010000*%
%ADD13C,0.150000*%
G04 APERTURE END LIST*
D10*
X82402380Y-66584571D02*
X82402380Y-67117904D01*
X82211904Y-66279809D02*
X82021428Y-66851238D01*
X82516666Y-66851238D01*
X81983333Y-76277904D02*
X82478571Y-76277904D01*
X82211904Y-76582666D01*
X82326190Y-76582666D01*
X82402380Y-76620761D01*
X82440476Y-76658857D01*
X82478571Y-76735047D01*
X82478571Y-76925523D01*
X82440476Y-77001714D01*
X82402380Y-77039809D01*
X82326190Y-77077904D01*
X82097619Y-77077904D01*
X82021428Y-77039809D01*
X81983333Y-77001714D01*
X82021428Y-86314095D02*
X82059523Y-86276000D01*
X82135714Y-86237904D01*
X82326190Y-86237904D01*
X82402380Y-86276000D01*
X82440476Y-86314095D01*
X82478571Y-86390285D01*
X82478571Y-86466476D01*
X82440476Y-86580761D01*
X81983333Y-87037904D01*
X82478571Y-87037904D01*
X82478571Y-96991904D02*
X82021428Y-96991904D01*
X82250000Y-96991904D02*
X82250000Y-96191904D01*
X82173809Y-96306190D01*
X82097619Y-96382380D01*
X82021428Y-96420476D01*
X120367260Y-106392380D02*
X120033927Y-105916190D01*
X119795832Y-106392380D02*
X119795832Y-105392380D01*
X120176784Y-105392380D01*
X120272022Y-105440000D01*
X120319641Y-105487619D01*
X120367260Y-105582857D01*
X120367260Y-105725714D01*
X120319641Y-105820952D01*
X120272022Y-105868571D01*
X120176784Y-105916190D01*
X119795832Y-105916190D01*
X120795832Y-105868571D02*
X121129165Y-105868571D01*
X121272022Y-106392380D02*
X120795832Y-106392380D01*
X120795832Y-105392380D01*
X121272022Y-105392380D01*
X121557737Y-105392380D02*
X121891070Y-106392380D01*
X122224403Y-105392380D01*
X122557737Y-106297142D02*
X122605356Y-106344761D01*
X122557737Y-106392380D01*
X122510118Y-106344761D01*
X122557737Y-106297142D01*
X122557737Y-106392380D01*
X122557737Y-105773333D02*
X122605356Y-105820952D01*
X122557737Y-105868571D01*
X122510118Y-105820952D01*
X122557737Y-105773333D01*
X122557737Y-105868571D01*
X124319641Y-106392380D02*
X123748213Y-106392380D01*
X124033927Y-106392380D02*
X124033927Y-105392380D01*
X123938689Y-105535238D01*
X123843451Y-105630476D01*
X123748213Y-105678095D01*
X124748213Y-106297142D02*
X124795832Y-106344761D01*
X124748213Y-106392380D01*
X124700594Y-106344761D01*
X124748213Y-106297142D01*
X124748213Y-106392380D01*
X125414879Y-105392380D02*
X125510118Y-105392380D01*
X125605356Y-105440000D01*
X125652975Y-105487619D01*
X125700594Y-105582857D01*
X125748213Y-105773333D01*
X125748213Y-106011428D01*
X125700594Y-106201904D01*
X125652975Y-106297142D01*
X125605356Y-106344761D01*
X125510118Y-106392380D01*
X125414879Y-106392380D01*
X125319641Y-106344761D01*
X125272022Y-106297142D01*
X125224403Y-106201904D01*
X125176784Y-106011428D01*
X125176784Y-105773333D01*
X125224403Y-105582857D01*
X125272022Y-105487619D01*
X125319641Y-105440000D01*
X125414879Y-105392380D01*
X126176784Y-106297142D02*
X126224403Y-106344761D01*
X126176784Y-106392380D01*
X126129165Y-106344761D01*
X126176784Y-106297142D01*
X126176784Y-106392380D01*
X127176784Y-106392380D02*
X126605356Y-106392380D01*
X126891070Y-106392380D02*
X126891070Y-105392380D01*
X126795832Y-105535238D01*
X126700594Y-105630476D01*
X126605356Y-105678095D01*
X167369047Y-95928094D02*
X168130952Y-95928094D01*
X167750000Y-96309046D02*
X167750000Y-95547142D01*
X108159047Y-51671428D02*
X108920952Y-51671428D01*
X108540000Y-52052380D02*
X108540000Y-51290476D01*
X107440476Y-107535714D02*
X107440476Y-108202380D01*
X107202380Y-107154761D02*
X106964285Y-107869047D01*
X107583333Y-107869047D01*
X102416666Y-107202380D02*
X103035714Y-107202380D01*
X102702380Y-107583333D01*
X102845238Y-107583333D01*
X102940476Y-107630952D01*
X102988095Y-107678571D01*
X103035714Y-107773809D01*
X103035714Y-108011904D01*
X102988095Y-108107142D01*
X102940476Y-108154761D01*
X102845238Y-108202380D01*
X102559523Y-108202380D01*
X102464285Y-108154761D01*
X102416666Y-108107142D01*
X97714285Y-107297619D02*
X97761904Y-107250000D01*
X97857142Y-107202380D01*
X98095238Y-107202380D01*
X98190476Y-107250000D01*
X98238095Y-107297619D01*
X98285714Y-107392857D01*
X98285714Y-107488095D01*
X98238095Y-107630952D01*
X97666666Y-108202380D01*
X98285714Y-108202380D01*
X93785714Y-108202380D02*
X93214285Y-108202380D01*
X93500000Y-108202380D02*
X93500000Y-107202380D01*
X93404761Y-107345238D01*
X93309523Y-107440476D01*
X93214285Y-107488095D01*
X81869047Y-93201428D02*
X82630952Y-93201428D01*
X82250000Y-93582380D02*
X82250000Y-92820476D01*
X81869047Y-83241428D02*
X82630952Y-83241428D01*
X82250000Y-83622380D02*
X82250000Y-82860476D01*
X81869047Y-73281428D02*
X82630952Y-73281428D01*
X82250000Y-73662380D02*
X82250000Y-72900476D01*
X81869047Y-63321428D02*
X82630952Y-63321428D01*
X82250000Y-63702380D02*
X82250000Y-62940476D01*
D11*
X85000000Y-110000000D02*
G75*
G02*
X80000000Y-105000000I0J5000000D01*
G01*
X170000000Y-105000000D02*
G75*
G02*
X165000000Y-110000000I-5000000J0D01*
G01*
X165000000Y-50000000D02*
G75*
G02*
X170000000Y-55000000I0J-5000000D01*
G01*
X80000000Y-55000000D02*
G75*
G02*
X85000000Y-50000000I5000000J0D01*
G01*
X170000000Y-55000000D02*
X170000000Y-105000000D01*
X85000000Y-110000000D02*
X165000000Y-110000000D01*
X85000000Y-50000000D02*
X165000000Y-50000000D01*
X80000000Y-55000000D02*
X80000000Y-105000000D01*
D12*
%TO.C,G\u002A\u002A\u002A*%
G36*
X118319384Y-57181455D02*
G01*
X118341870Y-57282649D01*
X118353863Y-57425328D01*
X118355440Y-57588234D01*
X118346673Y-57750112D01*
X118327638Y-57889707D01*
X118298408Y-57985761D01*
X118283309Y-58007809D01*
X118206535Y-58059287D01*
X118134098Y-58073089D01*
X118096564Y-58044531D01*
X118095833Y-58036529D01*
X118129523Y-57990250D01*
X118159333Y-57974357D01*
X118190189Y-57944855D01*
X118209613Y-57875246D01*
X118219772Y-57750948D01*
X118222828Y-57557381D01*
X118222833Y-57546495D01*
X118225094Y-57354424D01*
X118233364Y-57232759D01*
X118249874Y-57167324D01*
X118276856Y-57143942D01*
X118286333Y-57143000D01*
X118319384Y-57181455D01*
G37*
X118319384Y-57181455D02*
X118341870Y-57282649D01*
X118353863Y-57425328D01*
X118355440Y-57588234D01*
X118346673Y-57750112D01*
X118327638Y-57889707D01*
X118298408Y-57985761D01*
X118283309Y-58007809D01*
X118206535Y-58059287D01*
X118134098Y-58073089D01*
X118096564Y-58044531D01*
X118095833Y-58036529D01*
X118129523Y-57990250D01*
X118159333Y-57974357D01*
X118190189Y-57944855D01*
X118209613Y-57875246D01*
X118219772Y-57750948D01*
X118222828Y-57557381D01*
X118222833Y-57546495D01*
X118225094Y-57354424D01*
X118233364Y-57232759D01*
X118249874Y-57167324D01*
X118276856Y-57143942D01*
X118286333Y-57143000D01*
X118319384Y-57181455D01*
G36*
X120478384Y-57181455D02*
G01*
X120500870Y-57282649D01*
X120512863Y-57425328D01*
X120514440Y-57588234D01*
X120505673Y-57750112D01*
X120486638Y-57889707D01*
X120457408Y-57985761D01*
X120442309Y-58007809D01*
X120365535Y-58059287D01*
X120293098Y-58073089D01*
X120255564Y-58044531D01*
X120254833Y-58036529D01*
X120288523Y-57990250D01*
X120318333Y-57974357D01*
X120349189Y-57944855D01*
X120368613Y-57875246D01*
X120378772Y-57750948D01*
X120381828Y-57557381D01*
X120381833Y-57546495D01*
X120384094Y-57354424D01*
X120392364Y-57232759D01*
X120408874Y-57167324D01*
X120435856Y-57143942D01*
X120445333Y-57143000D01*
X120478384Y-57181455D01*
G37*
X120478384Y-57181455D02*
X120500870Y-57282649D01*
X120512863Y-57425328D01*
X120514440Y-57588234D01*
X120505673Y-57750112D01*
X120486638Y-57889707D01*
X120457408Y-57985761D01*
X120442309Y-58007809D01*
X120365535Y-58059287D01*
X120293098Y-58073089D01*
X120255564Y-58044531D01*
X120254833Y-58036529D01*
X120288523Y-57990250D01*
X120318333Y-57974357D01*
X120349189Y-57944855D01*
X120368613Y-57875246D01*
X120378772Y-57750948D01*
X120381828Y-57557381D01*
X120381833Y-57546495D01*
X120384094Y-57354424D01*
X120392364Y-57232759D01*
X120408874Y-57167324D01*
X120435856Y-57143942D01*
X120445333Y-57143000D01*
X120478384Y-57181455D01*
G36*
X121452051Y-57181455D02*
G01*
X121474536Y-57282649D01*
X121486530Y-57425328D01*
X121488106Y-57588234D01*
X121479340Y-57750112D01*
X121460304Y-57889707D01*
X121431074Y-57985761D01*
X121415976Y-58007809D01*
X121339201Y-58059287D01*
X121266765Y-58073089D01*
X121229231Y-58044531D01*
X121228500Y-58036529D01*
X121262189Y-57990250D01*
X121292000Y-57974357D01*
X121322855Y-57944855D01*
X121342280Y-57875246D01*
X121352438Y-57750948D01*
X121355495Y-57557381D01*
X121355500Y-57546495D01*
X121357761Y-57354424D01*
X121366031Y-57232759D01*
X121382541Y-57167324D01*
X121409523Y-57143942D01*
X121419000Y-57143000D01*
X121452051Y-57181455D01*
G37*
X121452051Y-57181455D02*
X121474536Y-57282649D01*
X121486530Y-57425328D01*
X121488106Y-57588234D01*
X121479340Y-57750112D01*
X121460304Y-57889707D01*
X121431074Y-57985761D01*
X121415976Y-58007809D01*
X121339201Y-58059287D01*
X121266765Y-58073089D01*
X121229231Y-58044531D01*
X121228500Y-58036529D01*
X121262189Y-57990250D01*
X121292000Y-57974357D01*
X121322855Y-57944855D01*
X121342280Y-57875246D01*
X121352438Y-57750948D01*
X121355495Y-57557381D01*
X121355500Y-57546495D01*
X121357761Y-57354424D01*
X121366031Y-57232759D01*
X121382541Y-57167324D01*
X121409523Y-57143942D01*
X121419000Y-57143000D01*
X121452051Y-57181455D01*
G36*
X115162044Y-57159376D02*
G01*
X115160712Y-57174750D01*
X115140175Y-57228245D01*
X115103471Y-57340428D01*
X115057961Y-57488654D01*
X115050588Y-57513416D01*
X115002153Y-57660099D01*
X114956907Y-57768617D01*
X114923403Y-57818985D01*
X114919218Y-57820333D01*
X114887783Y-57782888D01*
X114846058Y-57685326D01*
X114808212Y-57566243D01*
X114768391Y-57438574D01*
X114734047Y-57355656D01*
X114714105Y-57335617D01*
X114689584Y-57386432D01*
X114651963Y-57491520D01*
X114625332Y-57575758D01*
X114580843Y-57699922D01*
X114536993Y-57785260D01*
X114514715Y-57807539D01*
X114483246Y-57777014D01*
X114439845Y-57682211D01*
X114392347Y-57541179D01*
X114379230Y-57495322D01*
X114339189Y-57341017D01*
X114312768Y-57221296D01*
X114304346Y-57156673D01*
X114305793Y-57151262D01*
X114350610Y-57149345D01*
X114395591Y-57215136D01*
X114430116Y-57332366D01*
X114432396Y-57345171D01*
X114465024Y-57496936D01*
X114499267Y-57564635D01*
X114537986Y-57548861D01*
X114584043Y-57450205D01*
X114607172Y-57381318D01*
X114653655Y-57256405D01*
X114697792Y-57174958D01*
X114724988Y-57155329D01*
X114759018Y-57200880D01*
X114801261Y-57302834D01*
X114828241Y-57389023D01*
X114867229Y-57510838D01*
X114902539Y-57590596D01*
X114919518Y-57608666D01*
X114944339Y-57571032D01*
X114977058Y-57473796D01*
X115001799Y-57375833D01*
X115047960Y-57220479D01*
X115098099Y-57148383D01*
X115116868Y-57143000D01*
X115162044Y-57159376D01*
G37*
X115162044Y-57159376D02*
X115160712Y-57174750D01*
X115140175Y-57228245D01*
X115103471Y-57340428D01*
X115057961Y-57488654D01*
X115050588Y-57513416D01*
X115002153Y-57660099D01*
X114956907Y-57768617D01*
X114923403Y-57818985D01*
X114919218Y-57820333D01*
X114887783Y-57782888D01*
X114846058Y-57685326D01*
X114808212Y-57566243D01*
X114768391Y-57438574D01*
X114734047Y-57355656D01*
X114714105Y-57335617D01*
X114689584Y-57386432D01*
X114651963Y-57491520D01*
X114625332Y-57575758D01*
X114580843Y-57699922D01*
X114536993Y-57785260D01*
X114514715Y-57807539D01*
X114483246Y-57777014D01*
X114439845Y-57682211D01*
X114392347Y-57541179D01*
X114379230Y-57495322D01*
X114339189Y-57341017D01*
X114312768Y-57221296D01*
X114304346Y-57156673D01*
X114305793Y-57151262D01*
X114350610Y-57149345D01*
X114395591Y-57215136D01*
X114430116Y-57332366D01*
X114432396Y-57345171D01*
X114465024Y-57496936D01*
X114499267Y-57564635D01*
X114537986Y-57548861D01*
X114584043Y-57450205D01*
X114607172Y-57381318D01*
X114653655Y-57256405D01*
X114697792Y-57174958D01*
X114724988Y-57155329D01*
X114759018Y-57200880D01*
X114801261Y-57302834D01*
X114828241Y-57389023D01*
X114867229Y-57510838D01*
X114902539Y-57590596D01*
X114919518Y-57608666D01*
X114944339Y-57571032D01*
X114977058Y-57473796D01*
X115001799Y-57375833D01*
X115047960Y-57220479D01*
X115098099Y-57148383D01*
X115116868Y-57143000D01*
X115162044Y-57159376D01*
G36*
X116135710Y-57159376D02*
G01*
X116134379Y-57174750D01*
X116113842Y-57228245D01*
X116077138Y-57340428D01*
X116031628Y-57488654D01*
X116024254Y-57513416D01*
X115975820Y-57660099D01*
X115930573Y-57768617D01*
X115897070Y-57818985D01*
X115892885Y-57820333D01*
X115861449Y-57782888D01*
X115819725Y-57685326D01*
X115781879Y-57566243D01*
X115742058Y-57438574D01*
X115707714Y-57355656D01*
X115687772Y-57335617D01*
X115663251Y-57386432D01*
X115625629Y-57491520D01*
X115598998Y-57575758D01*
X115554510Y-57699922D01*
X115510660Y-57785260D01*
X115488382Y-57807539D01*
X115456912Y-57777014D01*
X115413512Y-57682211D01*
X115366013Y-57541179D01*
X115352897Y-57495322D01*
X115312855Y-57341017D01*
X115286435Y-57221296D01*
X115278013Y-57156673D01*
X115279459Y-57151262D01*
X115324276Y-57149345D01*
X115369258Y-57215136D01*
X115403782Y-57332366D01*
X115406062Y-57345171D01*
X115438691Y-57496936D01*
X115472934Y-57564635D01*
X115511653Y-57548861D01*
X115557709Y-57450205D01*
X115580839Y-57381318D01*
X115627322Y-57256405D01*
X115671459Y-57174958D01*
X115698655Y-57155329D01*
X115732685Y-57200880D01*
X115774928Y-57302834D01*
X115801907Y-57389023D01*
X115840896Y-57510838D01*
X115876205Y-57590596D01*
X115893185Y-57608666D01*
X115918005Y-57571032D01*
X115950725Y-57473796D01*
X115975466Y-57375833D01*
X116021627Y-57220479D01*
X116071766Y-57148383D01*
X116090534Y-57143000D01*
X116135710Y-57159376D01*
G37*
X116135710Y-57159376D02*
X116134379Y-57174750D01*
X116113842Y-57228245D01*
X116077138Y-57340428D01*
X116031628Y-57488654D01*
X116024254Y-57513416D01*
X115975820Y-57660099D01*
X115930573Y-57768617D01*
X115897070Y-57818985D01*
X115892885Y-57820333D01*
X115861449Y-57782888D01*
X115819725Y-57685326D01*
X115781879Y-57566243D01*
X115742058Y-57438574D01*
X115707714Y-57355656D01*
X115687772Y-57335617D01*
X115663251Y-57386432D01*
X115625629Y-57491520D01*
X115598998Y-57575758D01*
X115554510Y-57699922D01*
X115510660Y-57785260D01*
X115488382Y-57807539D01*
X115456912Y-57777014D01*
X115413512Y-57682211D01*
X115366013Y-57541179D01*
X115352897Y-57495322D01*
X115312855Y-57341017D01*
X115286435Y-57221296D01*
X115278013Y-57156673D01*
X115279459Y-57151262D01*
X115324276Y-57149345D01*
X115369258Y-57215136D01*
X115403782Y-57332366D01*
X115406062Y-57345171D01*
X115438691Y-57496936D01*
X115472934Y-57564635D01*
X115511653Y-57548861D01*
X115557709Y-57450205D01*
X115580839Y-57381318D01*
X115627322Y-57256405D01*
X115671459Y-57174958D01*
X115698655Y-57155329D01*
X115732685Y-57200880D01*
X115774928Y-57302834D01*
X115801907Y-57389023D01*
X115840896Y-57510838D01*
X115876205Y-57590596D01*
X115893185Y-57608666D01*
X115918005Y-57571032D01*
X115950725Y-57473796D01*
X115975466Y-57375833D01*
X116021627Y-57220479D01*
X116071766Y-57148383D01*
X116090534Y-57143000D01*
X116135710Y-57159376D01*
G36*
X117109377Y-57159376D02*
G01*
X117108045Y-57174750D01*
X117087509Y-57228245D01*
X117050804Y-57340428D01*
X117005295Y-57488654D01*
X116997921Y-57513416D01*
X116949486Y-57660099D01*
X116904240Y-57768617D01*
X116870736Y-57818985D01*
X116866552Y-57820333D01*
X116835116Y-57782888D01*
X116793392Y-57685326D01*
X116755545Y-57566243D01*
X116715725Y-57438574D01*
X116681381Y-57355656D01*
X116661438Y-57335617D01*
X116636918Y-57386432D01*
X116599296Y-57491520D01*
X116572665Y-57575758D01*
X116528177Y-57699922D01*
X116484327Y-57785260D01*
X116462048Y-57807539D01*
X116430579Y-57777014D01*
X116387179Y-57682211D01*
X116339680Y-57541179D01*
X116326563Y-57495322D01*
X116286522Y-57341017D01*
X116260101Y-57221296D01*
X116251680Y-57156673D01*
X116253126Y-57151262D01*
X116297943Y-57149345D01*
X116342925Y-57215136D01*
X116377449Y-57332366D01*
X116379729Y-57345171D01*
X116412358Y-57496936D01*
X116446601Y-57564635D01*
X116485319Y-57548861D01*
X116531376Y-57450205D01*
X116554505Y-57381318D01*
X116600989Y-57256405D01*
X116645125Y-57174958D01*
X116672321Y-57155329D01*
X116706351Y-57200880D01*
X116748595Y-57302834D01*
X116775574Y-57389023D01*
X116814562Y-57510838D01*
X116849872Y-57590596D01*
X116866852Y-57608666D01*
X116891672Y-57571032D01*
X116924391Y-57473796D01*
X116949133Y-57375833D01*
X116995294Y-57220479D01*
X117045432Y-57148383D01*
X117064201Y-57143000D01*
X117109377Y-57159376D01*
G37*
X117109377Y-57159376D02*
X117108045Y-57174750D01*
X117087509Y-57228245D01*
X117050804Y-57340428D01*
X117005295Y-57488654D01*
X116997921Y-57513416D01*
X116949486Y-57660099D01*
X116904240Y-57768617D01*
X116870736Y-57818985D01*
X116866552Y-57820333D01*
X116835116Y-57782888D01*
X116793392Y-57685326D01*
X116755545Y-57566243D01*
X116715725Y-57438574D01*
X116681381Y-57355656D01*
X116661438Y-57335617D01*
X116636918Y-57386432D01*
X116599296Y-57491520D01*
X116572665Y-57575758D01*
X116528177Y-57699922D01*
X116484327Y-57785260D01*
X116462048Y-57807539D01*
X116430579Y-57777014D01*
X116387179Y-57682211D01*
X116339680Y-57541179D01*
X116326563Y-57495322D01*
X116286522Y-57341017D01*
X116260101Y-57221296D01*
X116251680Y-57156673D01*
X116253126Y-57151262D01*
X116297943Y-57149345D01*
X116342925Y-57215136D01*
X116377449Y-57332366D01*
X116379729Y-57345171D01*
X116412358Y-57496936D01*
X116446601Y-57564635D01*
X116485319Y-57548861D01*
X116531376Y-57450205D01*
X116554505Y-57381318D01*
X116600989Y-57256405D01*
X116645125Y-57174958D01*
X116672321Y-57155329D01*
X116706351Y-57200880D01*
X116748595Y-57302834D01*
X116775574Y-57389023D01*
X116814562Y-57510838D01*
X116849872Y-57590596D01*
X116866852Y-57608666D01*
X116891672Y-57571032D01*
X116924391Y-57473796D01*
X116949133Y-57375833D01*
X116995294Y-57220479D01*
X117045432Y-57148383D01*
X117064201Y-57143000D01*
X117109377Y-57159376D01*
G36*
X117287018Y-57727659D02*
G01*
X117291500Y-57756833D01*
X117265502Y-57815216D01*
X117207054Y-57804755D01*
X117193873Y-57793262D01*
X117185312Y-57740491D01*
X117228218Y-57697704D01*
X117251665Y-57693333D01*
X117287018Y-57727659D01*
G37*
X117287018Y-57727659D02*
X117291500Y-57756833D01*
X117265502Y-57815216D01*
X117207054Y-57804755D01*
X117193873Y-57793262D01*
X117185312Y-57740491D01*
X117228218Y-57697704D01*
X117251665Y-57693333D01*
X117287018Y-57727659D01*
G36*
X118017884Y-56859672D02*
G01*
X118036451Y-56907477D01*
X118047419Y-57003262D01*
X118052507Y-57160208D01*
X118053500Y-57333500D01*
X118051803Y-57547282D01*
X118045568Y-57689625D01*
X118033074Y-57773711D01*
X118012603Y-57812719D01*
X117990000Y-57820333D01*
X117933739Y-57793017D01*
X117926500Y-57769533D01*
X117914005Y-57740081D01*
X117875700Y-57769533D01*
X117775545Y-57817272D01*
X117660184Y-57790630D01*
X117587833Y-57735666D01*
X117517081Y-57605046D01*
X117507074Y-57516302D01*
X117594269Y-57516302D01*
X117629925Y-57631400D01*
X117699640Y-57712910D01*
X117772890Y-57735666D01*
X117846463Y-57708235D01*
X117875700Y-57684866D01*
X117913578Y-57605376D01*
X117927457Y-57489430D01*
X117918568Y-57369945D01*
X117888146Y-57279839D01*
X117859537Y-57253362D01*
X117762090Y-57230175D01*
X117688371Y-57262792D01*
X117654357Y-57294190D01*
X117599978Y-57394828D01*
X117594269Y-57516302D01*
X117507074Y-57516302D01*
X117503167Y-57481666D01*
X117529405Y-57333826D01*
X117597345Y-57220160D01*
X117690821Y-57153159D01*
X117793670Y-57145314D01*
X117875700Y-57193799D01*
X117906853Y-57207056D01*
X117922456Y-57158579D01*
X117926500Y-57045633D01*
X117934143Y-56917022D01*
X117960337Y-56856621D01*
X117990000Y-56846666D01*
X118017884Y-56859672D01*
G37*
X118017884Y-56859672D02*
X118036451Y-56907477D01*
X118047419Y-57003262D01*
X118052507Y-57160208D01*
X118053500Y-57333500D01*
X118051803Y-57547282D01*
X118045568Y-57689625D01*
X118033074Y-57773711D01*
X118012603Y-57812719D01*
X117990000Y-57820333D01*
X117933739Y-57793017D01*
X117926500Y-57769533D01*
X117914005Y-57740081D01*
X117875700Y-57769533D01*
X117775545Y-57817272D01*
X117660184Y-57790630D01*
X117587833Y-57735666D01*
X117517081Y-57605046D01*
X117507074Y-57516302D01*
X117594269Y-57516302D01*
X117629925Y-57631400D01*
X117699640Y-57712910D01*
X117772890Y-57735666D01*
X117846463Y-57708235D01*
X117875700Y-57684866D01*
X117913578Y-57605376D01*
X117927457Y-57489430D01*
X117918568Y-57369945D01*
X117888146Y-57279839D01*
X117859537Y-57253362D01*
X117762090Y-57230175D01*
X117688371Y-57262792D01*
X117654357Y-57294190D01*
X117599978Y-57394828D01*
X117594269Y-57516302D01*
X117507074Y-57516302D01*
X117503167Y-57481666D01*
X117529405Y-57333826D01*
X117597345Y-57220160D01*
X117690821Y-57153159D01*
X117793670Y-57145314D01*
X117875700Y-57193799D01*
X117906853Y-57207056D01*
X117922456Y-57158579D01*
X117926500Y-57045633D01*
X117934143Y-56917022D01*
X117960337Y-56856621D01*
X117990000Y-56846666D01*
X118017884Y-56859672D01*
G36*
X118965737Y-57202890D02*
G01*
X119051613Y-57324795D01*
X119062845Y-57353773D01*
X119085150Y-57509946D01*
X119049062Y-57646414D01*
X118969412Y-57750841D01*
X118861026Y-57810891D01*
X118738733Y-57814225D01*
X118617360Y-57748507D01*
X118603833Y-57735666D01*
X118533081Y-57605046D01*
X118519167Y-57481666D01*
X118603833Y-57481666D01*
X118631304Y-57604048D01*
X118700020Y-57691470D01*
X118789435Y-57733444D01*
X118879005Y-57719483D01*
X118941010Y-57653783D01*
X118979805Y-57521151D01*
X118967587Y-57390199D01*
X118912729Y-57285251D01*
X118823603Y-57230630D01*
X118794333Y-57227666D01*
X118701950Y-57265349D01*
X118631481Y-57359809D01*
X118603833Y-57481666D01*
X118519167Y-57481666D01*
X118549320Y-57321927D01*
X118627490Y-57209844D01*
X118735240Y-57149752D01*
X118854134Y-57145988D01*
X118965737Y-57202890D01*
G37*
X118965737Y-57202890D02*
X119051613Y-57324795D01*
X119062845Y-57353773D01*
X119085150Y-57509946D01*
X119049062Y-57646414D01*
X118969412Y-57750841D01*
X118861026Y-57810891D01*
X118738733Y-57814225D01*
X118617360Y-57748507D01*
X118603833Y-57735666D01*
X118533081Y-57605046D01*
X118519167Y-57481666D01*
X118603833Y-57481666D01*
X118631304Y-57604048D01*
X118700020Y-57691470D01*
X118789435Y-57733444D01*
X118879005Y-57719483D01*
X118941010Y-57653783D01*
X118979805Y-57521151D01*
X118967587Y-57390199D01*
X118912729Y-57285251D01*
X118823603Y-57230630D01*
X118794333Y-57227666D01*
X118701950Y-57265349D01*
X118631481Y-57359809D01*
X118603833Y-57481666D01*
X118519167Y-57481666D01*
X118549320Y-57321927D01*
X118627490Y-57209844D01*
X118735240Y-57149752D01*
X118854134Y-57145988D01*
X118965737Y-57202890D01*
G36*
X119397583Y-57166564D02*
G01*
X119522394Y-57175742D01*
X119571080Y-57188170D01*
X119552025Y-57212297D01*
X119482250Y-57251880D01*
X119416804Y-57295007D01*
X119381877Y-57350458D01*
X119368045Y-57443798D01*
X119365833Y-57567685D01*
X119360910Y-57714726D01*
X119343468Y-57793480D01*
X119309499Y-57819897D01*
X119302333Y-57820333D01*
X119269467Y-57804173D01*
X119249877Y-57745613D01*
X119240669Y-57629526D01*
X119238833Y-57488481D01*
X119238833Y-57156629D01*
X119397583Y-57166564D01*
G37*
X119397583Y-57166564D02*
X119522394Y-57175742D01*
X119571080Y-57188170D01*
X119552025Y-57212297D01*
X119482250Y-57251880D01*
X119416804Y-57295007D01*
X119381877Y-57350458D01*
X119368045Y-57443798D01*
X119365833Y-57567685D01*
X119360910Y-57714726D01*
X119343468Y-57793480D01*
X119309499Y-57819897D01*
X119302333Y-57820333D01*
X119269467Y-57804173D01*
X119249877Y-57745613D01*
X119240669Y-57629526D01*
X119238833Y-57488481D01*
X119238833Y-57156629D01*
X119397583Y-57166564D01*
G36*
X120176884Y-56859672D02*
G01*
X120195451Y-56907477D01*
X120206419Y-57003262D01*
X120211507Y-57160208D01*
X120212500Y-57333500D01*
X120210803Y-57547282D01*
X120204568Y-57689625D01*
X120192074Y-57773711D01*
X120171603Y-57812719D01*
X120149000Y-57820333D01*
X120092739Y-57793017D01*
X120085500Y-57769533D01*
X120073005Y-57740081D01*
X120034700Y-57769533D01*
X119934545Y-57817272D01*
X119819184Y-57790630D01*
X119746833Y-57735666D01*
X119676081Y-57605046D01*
X119666074Y-57516302D01*
X119753269Y-57516302D01*
X119788925Y-57631400D01*
X119858640Y-57712910D01*
X119931890Y-57735666D01*
X120005463Y-57708235D01*
X120034700Y-57684866D01*
X120072578Y-57605376D01*
X120086457Y-57489430D01*
X120077568Y-57369945D01*
X120047146Y-57279839D01*
X120018537Y-57253362D01*
X119921090Y-57230175D01*
X119847371Y-57262792D01*
X119813357Y-57294190D01*
X119758978Y-57394828D01*
X119753269Y-57516302D01*
X119666074Y-57516302D01*
X119662167Y-57481666D01*
X119688405Y-57333826D01*
X119756345Y-57220160D01*
X119849821Y-57153159D01*
X119952670Y-57145314D01*
X120034700Y-57193799D01*
X120065853Y-57207056D01*
X120081456Y-57158579D01*
X120085500Y-57045633D01*
X120093143Y-56917022D01*
X120119337Y-56856621D01*
X120149000Y-56846666D01*
X120176884Y-56859672D01*
G37*
X120176884Y-56859672D02*
X120195451Y-56907477D01*
X120206419Y-57003262D01*
X120211507Y-57160208D01*
X120212500Y-57333500D01*
X120210803Y-57547282D01*
X120204568Y-57689625D01*
X120192074Y-57773711D01*
X120171603Y-57812719D01*
X120149000Y-57820333D01*
X120092739Y-57793017D01*
X120085500Y-57769533D01*
X120073005Y-57740081D01*
X120034700Y-57769533D01*
X119934545Y-57817272D01*
X119819184Y-57790630D01*
X119746833Y-57735666D01*
X119676081Y-57605046D01*
X119666074Y-57516302D01*
X119753269Y-57516302D01*
X119788925Y-57631400D01*
X119858640Y-57712910D01*
X119931890Y-57735666D01*
X120005463Y-57708235D01*
X120034700Y-57684866D01*
X120072578Y-57605376D01*
X120086457Y-57489430D01*
X120077568Y-57369945D01*
X120047146Y-57279839D01*
X120018537Y-57253362D01*
X119921090Y-57230175D01*
X119847371Y-57262792D01*
X119813357Y-57294190D01*
X119758978Y-57394828D01*
X119753269Y-57516302D01*
X119666074Y-57516302D01*
X119662167Y-57481666D01*
X119688405Y-57333826D01*
X119756345Y-57220160D01*
X119849821Y-57153159D01*
X119952670Y-57145314D01*
X120034700Y-57193799D01*
X120065853Y-57207056D01*
X120081456Y-57158579D01*
X120085500Y-57045633D01*
X120093143Y-56917022D01*
X120119337Y-56856621D01*
X120149000Y-56846666D01*
X120176884Y-56859672D01*
G36*
X121042647Y-57180385D02*
G01*
X121145574Y-57275470D01*
X121208902Y-57402645D01*
X121210117Y-57407583D01*
X121237678Y-57524000D01*
X121000256Y-57524000D01*
X120858810Y-57529362D01*
X120785148Y-57548410D01*
X120762892Y-57585588D01*
X120762833Y-57588407D01*
X120799235Y-57661502D01*
X120886612Y-57710068D01*
X120992222Y-57722218D01*
X121066426Y-57698624D01*
X121148312Y-57666289D01*
X121182607Y-57684167D01*
X121153990Y-57736153D01*
X121125092Y-57760294D01*
X120986515Y-57815747D01*
X120846356Y-57793868D01*
X120762833Y-57735666D01*
X120693864Y-57619438D01*
X120676217Y-57479832D01*
X120691761Y-57400023D01*
X120762833Y-57400023D01*
X120800397Y-57424641D01*
X120894233Y-57438332D01*
X120932167Y-57439333D01*
X121055030Y-57426350D01*
X121101244Y-57388345D01*
X121101500Y-57384300D01*
X121067275Y-57299389D01*
X120990616Y-57237525D01*
X120947890Y-57227666D01*
X120875930Y-57257558D01*
X120802084Y-57324256D01*
X120763362Y-57393289D01*
X120762833Y-57400023D01*
X120691761Y-57400023D01*
X120703430Y-57340115D01*
X120769040Y-57223552D01*
X120866583Y-57153407D01*
X120927477Y-57143000D01*
X121042647Y-57180385D01*
G37*
X121042647Y-57180385D02*
X121145574Y-57275470D01*
X121208902Y-57402645D01*
X121210117Y-57407583D01*
X121237678Y-57524000D01*
X121000256Y-57524000D01*
X120858810Y-57529362D01*
X120785148Y-57548410D01*
X120762892Y-57585588D01*
X120762833Y-57588407D01*
X120799235Y-57661502D01*
X120886612Y-57710068D01*
X120992222Y-57722218D01*
X121066426Y-57698624D01*
X121148312Y-57666289D01*
X121182607Y-57684167D01*
X121153990Y-57736153D01*
X121125092Y-57760294D01*
X120986515Y-57815747D01*
X120846356Y-57793868D01*
X120762833Y-57735666D01*
X120693864Y-57619438D01*
X120676217Y-57479832D01*
X120691761Y-57400023D01*
X120762833Y-57400023D01*
X120800397Y-57424641D01*
X120894233Y-57438332D01*
X120932167Y-57439333D01*
X121055030Y-57426350D01*
X121101244Y-57388345D01*
X121101500Y-57384300D01*
X121067275Y-57299389D01*
X120990616Y-57237525D01*
X120947890Y-57227666D01*
X120875930Y-57257558D01*
X120802084Y-57324256D01*
X120763362Y-57393289D01*
X120762833Y-57400023D01*
X120691761Y-57400023D01*
X120703430Y-57340115D01*
X120769040Y-57223552D01*
X120866583Y-57153407D01*
X120927477Y-57143000D01*
X121042647Y-57180385D01*
G36*
X122098404Y-57202890D02*
G01*
X122184280Y-57324795D01*
X122195512Y-57353773D01*
X122217816Y-57509946D01*
X122181729Y-57646414D01*
X122102079Y-57750841D01*
X121993693Y-57810891D01*
X121871399Y-57814225D01*
X121750027Y-57748507D01*
X121736500Y-57735666D01*
X121665748Y-57605046D01*
X121651833Y-57481666D01*
X121736500Y-57481666D01*
X121763971Y-57604048D01*
X121832687Y-57691470D01*
X121922102Y-57733444D01*
X122011672Y-57719483D01*
X122073677Y-57653783D01*
X122112472Y-57521151D01*
X122100254Y-57390199D01*
X122045396Y-57285251D01*
X121956269Y-57230630D01*
X121927000Y-57227666D01*
X121834617Y-57265349D01*
X121764148Y-57359809D01*
X121736500Y-57481666D01*
X121651833Y-57481666D01*
X121681987Y-57321927D01*
X121760156Y-57209844D01*
X121867906Y-57149752D01*
X121986801Y-57145988D01*
X122098404Y-57202890D01*
G37*
X122098404Y-57202890D02*
X122184280Y-57324795D01*
X122195512Y-57353773D01*
X122217816Y-57509946D01*
X122181729Y-57646414D01*
X122102079Y-57750841D01*
X121993693Y-57810891D01*
X121871399Y-57814225D01*
X121750027Y-57748507D01*
X121736500Y-57735666D01*
X121665748Y-57605046D01*
X121651833Y-57481666D01*
X121736500Y-57481666D01*
X121763971Y-57604048D01*
X121832687Y-57691470D01*
X121922102Y-57733444D01*
X122011672Y-57719483D01*
X122073677Y-57653783D01*
X122112472Y-57521151D01*
X122100254Y-57390199D01*
X122045396Y-57285251D01*
X121956269Y-57230630D01*
X121927000Y-57227666D01*
X121834617Y-57265349D01*
X121764148Y-57359809D01*
X121736500Y-57481666D01*
X121651833Y-57481666D01*
X121681987Y-57321927D01*
X121760156Y-57209844D01*
X121867906Y-57149752D01*
X121986801Y-57145988D01*
X122098404Y-57202890D01*
G36*
X122714955Y-57168991D02*
G01*
X122811138Y-57231111D01*
X122872158Y-57305580D01*
X122879500Y-57335900D01*
X122860852Y-57391689D01*
X122813540Y-57376348D01*
X122762324Y-57312333D01*
X122682188Y-57235804D01*
X122596647Y-57231608D01*
X122520721Y-57289912D01*
X122469431Y-57400883D01*
X122456167Y-57512750D01*
X122484078Y-57647682D01*
X122557024Y-57721418D01*
X122658820Y-57725828D01*
X122760009Y-57665370D01*
X122829624Y-57623213D01*
X122869176Y-57626681D01*
X122865034Y-57671223D01*
X122808953Y-57731109D01*
X122726106Y-57786714D01*
X122641661Y-57818413D01*
X122620810Y-57820333D01*
X122532455Y-57791758D01*
X122456167Y-57735666D01*
X122388018Y-57620508D01*
X122370152Y-57481388D01*
X122396268Y-57341668D01*
X122460062Y-57224705D01*
X122555231Y-57153861D01*
X122616080Y-57143000D01*
X122714955Y-57168991D01*
G37*
X122714955Y-57168991D02*
X122811138Y-57231111D01*
X122872158Y-57305580D01*
X122879500Y-57335900D01*
X122860852Y-57391689D01*
X122813540Y-57376348D01*
X122762324Y-57312333D01*
X122682188Y-57235804D01*
X122596647Y-57231608D01*
X122520721Y-57289912D01*
X122469431Y-57400883D01*
X122456167Y-57512750D01*
X122484078Y-57647682D01*
X122557024Y-57721418D01*
X122658820Y-57725828D01*
X122760009Y-57665370D01*
X122829624Y-57623213D01*
X122869176Y-57626681D01*
X122865034Y-57671223D01*
X122808953Y-57731109D01*
X122726106Y-57786714D01*
X122641661Y-57818413D01*
X122620810Y-57820333D01*
X122532455Y-57791758D01*
X122456167Y-57735666D01*
X122388018Y-57620508D01*
X122370152Y-57481388D01*
X122396268Y-57341668D01*
X122460062Y-57224705D01*
X122555231Y-57153861D01*
X122616080Y-57143000D01*
X122714955Y-57168991D01*
G36*
X123144914Y-57158951D02*
G01*
X123164468Y-57216827D01*
X123173812Y-57331662D01*
X123175833Y-57481666D01*
X123172842Y-57655433D01*
X123161990Y-57759717D01*
X123140459Y-57809552D01*
X123112333Y-57820333D01*
X123079752Y-57804381D01*
X123060199Y-57746505D01*
X123050855Y-57631670D01*
X123048833Y-57481666D01*
X123051824Y-57307899D01*
X123062676Y-57203615D01*
X123084207Y-57153781D01*
X123112333Y-57143000D01*
X123144914Y-57158951D01*
G37*
X123144914Y-57158951D02*
X123164468Y-57216827D01*
X123173812Y-57331662D01*
X123175833Y-57481666D01*
X123172842Y-57655433D01*
X123161990Y-57759717D01*
X123140459Y-57809552D01*
X123112333Y-57820333D01*
X123079752Y-57804381D01*
X123060199Y-57746505D01*
X123050855Y-57631670D01*
X123048833Y-57481666D01*
X123051824Y-57307899D01*
X123062676Y-57203615D01*
X123084207Y-57153781D01*
X123112333Y-57143000D01*
X123144914Y-57158951D01*
G36*
X123688621Y-57168991D02*
G01*
X123784805Y-57231111D01*
X123845824Y-57305580D01*
X123853167Y-57335900D01*
X123834518Y-57391689D01*
X123787207Y-57376348D01*
X123735991Y-57312333D01*
X123655855Y-57235804D01*
X123570313Y-57231608D01*
X123494387Y-57289912D01*
X123443097Y-57400883D01*
X123429833Y-57512750D01*
X123457745Y-57647682D01*
X123530691Y-57721418D01*
X123632487Y-57725828D01*
X123733676Y-57665370D01*
X123803291Y-57623213D01*
X123842843Y-57626681D01*
X123838700Y-57671223D01*
X123782620Y-57731109D01*
X123699772Y-57786714D01*
X123615327Y-57818413D01*
X123594477Y-57820333D01*
X123506122Y-57791758D01*
X123429833Y-57735666D01*
X123361684Y-57620508D01*
X123343819Y-57481388D01*
X123369935Y-57341668D01*
X123433729Y-57224705D01*
X123528897Y-57153861D01*
X123589747Y-57143000D01*
X123688621Y-57168991D01*
G37*
X123688621Y-57168991D02*
X123784805Y-57231111D01*
X123845824Y-57305580D01*
X123853167Y-57335900D01*
X123834518Y-57391689D01*
X123787207Y-57376348D01*
X123735991Y-57312333D01*
X123655855Y-57235804D01*
X123570313Y-57231608D01*
X123494387Y-57289912D01*
X123443097Y-57400883D01*
X123429833Y-57512750D01*
X123457745Y-57647682D01*
X123530691Y-57721418D01*
X123632487Y-57725828D01*
X123733676Y-57665370D01*
X123803291Y-57623213D01*
X123842843Y-57626681D01*
X123838700Y-57671223D01*
X123782620Y-57731109D01*
X123699772Y-57786714D01*
X123615327Y-57818413D01*
X123594477Y-57820333D01*
X123506122Y-57791758D01*
X123429833Y-57735666D01*
X123361684Y-57620508D01*
X123343819Y-57481388D01*
X123369935Y-57341668D01*
X123433729Y-57224705D01*
X123528897Y-57153861D01*
X123589747Y-57143000D01*
X123688621Y-57168991D01*
G36*
X124145018Y-57727659D02*
G01*
X124149500Y-57756833D01*
X124123502Y-57815216D01*
X124065054Y-57804755D01*
X124051873Y-57793262D01*
X124043312Y-57740491D01*
X124086218Y-57697704D01*
X124109665Y-57693333D01*
X124145018Y-57727659D01*
G37*
X124145018Y-57727659D02*
X124149500Y-57756833D01*
X124123502Y-57815216D01*
X124065054Y-57804755D01*
X124051873Y-57793262D01*
X124043312Y-57740491D01*
X124086218Y-57697704D01*
X124109665Y-57693333D01*
X124145018Y-57727659D01*
G36*
X124704621Y-57168991D02*
G01*
X124800805Y-57231111D01*
X124861824Y-57305580D01*
X124869167Y-57335900D01*
X124850518Y-57391689D01*
X124803207Y-57376348D01*
X124751991Y-57312333D01*
X124671855Y-57235804D01*
X124586313Y-57231608D01*
X124510387Y-57289912D01*
X124459097Y-57400883D01*
X124445833Y-57512750D01*
X124473745Y-57647682D01*
X124546691Y-57721418D01*
X124648487Y-57725828D01*
X124749676Y-57665370D01*
X124819291Y-57623213D01*
X124858843Y-57626681D01*
X124854700Y-57671223D01*
X124798620Y-57731109D01*
X124715772Y-57786714D01*
X124631327Y-57818413D01*
X124610477Y-57820333D01*
X124522122Y-57791758D01*
X124445833Y-57735666D01*
X124377684Y-57620508D01*
X124359819Y-57481388D01*
X124385935Y-57341668D01*
X124449729Y-57224705D01*
X124544897Y-57153861D01*
X124605747Y-57143000D01*
X124704621Y-57168991D01*
G37*
X124704621Y-57168991D02*
X124800805Y-57231111D01*
X124861824Y-57305580D01*
X124869167Y-57335900D01*
X124850518Y-57391689D01*
X124803207Y-57376348D01*
X124751991Y-57312333D01*
X124671855Y-57235804D01*
X124586313Y-57231608D01*
X124510387Y-57289912D01*
X124459097Y-57400883D01*
X124445833Y-57512750D01*
X124473745Y-57647682D01*
X124546691Y-57721418D01*
X124648487Y-57725828D01*
X124749676Y-57665370D01*
X124819291Y-57623213D01*
X124858843Y-57626681D01*
X124854700Y-57671223D01*
X124798620Y-57731109D01*
X124715772Y-57786714D01*
X124631327Y-57818413D01*
X124610477Y-57820333D01*
X124522122Y-57791758D01*
X124445833Y-57735666D01*
X124377684Y-57620508D01*
X124359819Y-57481388D01*
X124385935Y-57341668D01*
X124449729Y-57224705D01*
X124544897Y-57153861D01*
X124605747Y-57143000D01*
X124704621Y-57168991D01*
G36*
X125485071Y-57202890D02*
G01*
X125570946Y-57324795D01*
X125582178Y-57353773D01*
X125604483Y-57509946D01*
X125568396Y-57646414D01*
X125488745Y-57750841D01*
X125380359Y-57810891D01*
X125258066Y-57814225D01*
X125136694Y-57748507D01*
X125123167Y-57735666D01*
X125052414Y-57605046D01*
X125038500Y-57481666D01*
X125123167Y-57481666D01*
X125150637Y-57604048D01*
X125219353Y-57691470D01*
X125308769Y-57733444D01*
X125398339Y-57719483D01*
X125460344Y-57653783D01*
X125499139Y-57521151D01*
X125486921Y-57390199D01*
X125432062Y-57285251D01*
X125342936Y-57230630D01*
X125313667Y-57227666D01*
X125221284Y-57265349D01*
X125150814Y-57359809D01*
X125123167Y-57481666D01*
X125038500Y-57481666D01*
X125068653Y-57321927D01*
X125146823Y-57209844D01*
X125254573Y-57149752D01*
X125373468Y-57145988D01*
X125485071Y-57202890D01*
G37*
X125485071Y-57202890D02*
X125570946Y-57324795D01*
X125582178Y-57353773D01*
X125604483Y-57509946D01*
X125568396Y-57646414D01*
X125488745Y-57750841D01*
X125380359Y-57810891D01*
X125258066Y-57814225D01*
X125136694Y-57748507D01*
X125123167Y-57735666D01*
X125052414Y-57605046D01*
X125038500Y-57481666D01*
X125123167Y-57481666D01*
X125150637Y-57604048D01*
X125219353Y-57691470D01*
X125308769Y-57733444D01*
X125398339Y-57719483D01*
X125460344Y-57653783D01*
X125499139Y-57521151D01*
X125486921Y-57390199D01*
X125432062Y-57285251D01*
X125342936Y-57230630D01*
X125313667Y-57227666D01*
X125221284Y-57265349D01*
X125150814Y-57359809D01*
X125123167Y-57481666D01*
X125038500Y-57481666D01*
X125068653Y-57321927D01*
X125146823Y-57209844D01*
X125254573Y-57149752D01*
X125373468Y-57145988D01*
X125485071Y-57202890D01*
G36*
X126590056Y-57173598D02*
G01*
X126656680Y-57282369D01*
X126687338Y-57467074D01*
X126689500Y-57548190D01*
X126683459Y-57690785D01*
X126667485Y-57788280D01*
X126647167Y-57820333D01*
X126624440Y-57781915D01*
X126609095Y-57682189D01*
X126604833Y-57574799D01*
X126591989Y-57392618D01*
X126550122Y-57281777D01*
X126474232Y-57232433D01*
X126428523Y-57227666D01*
X126342581Y-57266737D01*
X126288226Y-57382274D01*
X126266536Y-57571764D01*
X126266167Y-57605883D01*
X126258645Y-57727536D01*
X126239390Y-57805247D01*
X126223833Y-57820333D01*
X126201176Y-57781859D01*
X126185853Y-57681736D01*
X126181500Y-57571516D01*
X126166837Y-57385709D01*
X126121095Y-57275588D01*
X126041644Y-57237097D01*
X125971865Y-57248188D01*
X125924208Y-57273928D01*
X125897914Y-57326744D01*
X125886953Y-57427490D01*
X125885167Y-57548019D01*
X125880850Y-57701452D01*
X125865441Y-57786363D01*
X125835251Y-57818572D01*
X125821667Y-57820333D01*
X125789085Y-57804381D01*
X125769532Y-57746505D01*
X125760188Y-57631670D01*
X125758167Y-57481666D01*
X125763118Y-57313950D01*
X125776634Y-57196093D01*
X125796713Y-57144128D01*
X125800500Y-57143000D01*
X125841610Y-57174551D01*
X125842833Y-57184425D01*
X125875186Y-57201173D01*
X125948667Y-57177630D01*
X126065411Y-57151035D01*
X126162752Y-57178732D01*
X126287177Y-57205175D01*
X126350469Y-57185528D01*
X126487855Y-57141179D01*
X126590056Y-57173598D01*
G37*
X126590056Y-57173598D02*
X126656680Y-57282369D01*
X126687338Y-57467074D01*
X126689500Y-57548190D01*
X126683459Y-57690785D01*
X126667485Y-57788280D01*
X126647167Y-57820333D01*
X126624440Y-57781915D01*
X126609095Y-57682189D01*
X126604833Y-57574799D01*
X126591989Y-57392618D01*
X126550122Y-57281777D01*
X126474232Y-57232433D01*
X126428523Y-57227666D01*
X126342581Y-57266737D01*
X126288226Y-57382274D01*
X126266536Y-57571764D01*
X126266167Y-57605883D01*
X126258645Y-57727536D01*
X126239390Y-57805247D01*
X126223833Y-57820333D01*
X126201176Y-57781859D01*
X126185853Y-57681736D01*
X126181500Y-57571516D01*
X126166837Y-57385709D01*
X126121095Y-57275588D01*
X126041644Y-57237097D01*
X125971865Y-57248188D01*
X125924208Y-57273928D01*
X125897914Y-57326744D01*
X125886953Y-57427490D01*
X125885167Y-57548019D01*
X125880850Y-57701452D01*
X125865441Y-57786363D01*
X125835251Y-57818572D01*
X125821667Y-57820333D01*
X125789085Y-57804381D01*
X125769532Y-57746505D01*
X125760188Y-57631670D01*
X125758167Y-57481666D01*
X125763118Y-57313950D01*
X125776634Y-57196093D01*
X125796713Y-57144128D01*
X125800500Y-57143000D01*
X125841610Y-57174551D01*
X125842833Y-57184425D01*
X125875186Y-57201173D01*
X125948667Y-57177630D01*
X126065411Y-57151035D01*
X126162752Y-57178732D01*
X126287177Y-57205175D01*
X126350469Y-57185528D01*
X126487855Y-57141179D01*
X126590056Y-57173598D01*
G36*
X118311894Y-56918794D02*
G01*
X118332732Y-56971843D01*
X118314114Y-56990745D01*
X118256772Y-56987002D01*
X118242686Y-56971540D01*
X118232812Y-56911441D01*
X118273763Y-56895255D01*
X118311894Y-56918794D01*
G37*
X118311894Y-56918794D02*
X118332732Y-56971843D01*
X118314114Y-56990745D01*
X118256772Y-56987002D01*
X118242686Y-56971540D01*
X118232812Y-56911441D01*
X118273763Y-56895255D01*
X118311894Y-56918794D01*
G36*
X120470894Y-56918794D02*
G01*
X120491732Y-56971843D01*
X120473114Y-56990745D01*
X120415772Y-56987002D01*
X120401686Y-56971540D01*
X120391812Y-56911441D01*
X120432763Y-56895255D01*
X120470894Y-56918794D01*
G37*
X120470894Y-56918794D02*
X120491732Y-56971843D01*
X120473114Y-56990745D01*
X120415772Y-56987002D01*
X120401686Y-56971540D01*
X120391812Y-56911441D01*
X120432763Y-56895255D01*
X120470894Y-56918794D01*
G36*
X121444561Y-56918794D02*
G01*
X121465399Y-56971843D01*
X121446780Y-56990745D01*
X121389438Y-56987002D01*
X121375353Y-56971540D01*
X121365479Y-56911441D01*
X121406430Y-56895255D01*
X121444561Y-56918794D01*
G37*
X121444561Y-56918794D02*
X121465399Y-56971843D01*
X121446780Y-56990745D01*
X121389438Y-56987002D01*
X121375353Y-56971540D01*
X121365479Y-56911441D01*
X121406430Y-56895255D01*
X121444561Y-56918794D01*
G36*
X123171351Y-56923325D02*
G01*
X123175833Y-56952500D01*
X123149835Y-57010883D01*
X123091387Y-57000422D01*
X123078206Y-56988928D01*
X123069645Y-56936157D01*
X123112552Y-56893370D01*
X123135998Y-56889000D01*
X123171351Y-56923325D01*
G37*
X123171351Y-56923325D02*
X123175833Y-56952500D01*
X123149835Y-57010883D01*
X123091387Y-57000422D01*
X123078206Y-56988928D01*
X123069645Y-56936157D01*
X123112552Y-56893370D01*
X123135998Y-56889000D01*
X123171351Y-56923325D01*
G36*
X129017833Y-56508000D02*
G01*
X112042167Y-56508000D01*
X112042167Y-56254000D01*
X129017833Y-56254000D01*
X129017833Y-56508000D01*
G37*
X129017833Y-56508000D02*
X112042167Y-56508000D01*
X112042167Y-56254000D01*
X129017833Y-56254000D01*
X129017833Y-56508000D01*
G36*
X115231212Y-54009127D02*
G01*
X115425114Y-54101990D01*
X115571445Y-54248492D01*
X115656975Y-54442273D01*
X115657437Y-54444249D01*
X115669194Y-54515611D01*
X115647430Y-54549535D01*
X115572511Y-54559933D01*
X115493140Y-54560666D01*
X115367286Y-54552424D01*
X115309782Y-54524375D01*
X115301833Y-54497166D01*
X115263817Y-54397737D01*
X115166989Y-54315261D01*
X115037181Y-54268681D01*
X114984333Y-54264333D01*
X114852324Y-54291185D01*
X114740061Y-54359112D01*
X114674225Y-54449169D01*
X114666833Y-54489787D01*
X114704063Y-54572185D01*
X114801535Y-54660567D01*
X114937925Y-54738218D01*
X115026667Y-54771816D01*
X115294356Y-54880917D01*
X115493807Y-55019658D01*
X115620681Y-55183208D01*
X115670636Y-55366739D01*
X115662800Y-55479678D01*
X115590722Y-55652322D01*
X115455879Y-55785455D01*
X115273156Y-55873314D01*
X115057437Y-55910138D01*
X114823605Y-55890166D01*
X114695781Y-55854000D01*
X114494558Y-55752670D01*
X114356909Y-55609009D01*
X114299810Y-55500719D01*
X114262288Y-55380383D01*
X114283493Y-55312395D01*
X114372653Y-55283871D01*
X114457665Y-55280333D01*
X114573239Y-55290596D01*
X114621029Y-55325259D01*
X114624500Y-55345757D01*
X114652615Y-55418511D01*
X114721039Y-55507557D01*
X114728409Y-55515090D01*
X114849264Y-55591754D01*
X114988707Y-55616851D01*
X115124454Y-55595448D01*
X115234223Y-55532609D01*
X115295733Y-55433399D01*
X115301833Y-55384742D01*
X115287911Y-55313799D01*
X115238059Y-55250185D01*
X115140147Y-55185275D01*
X114982046Y-55110446D01*
X114825546Y-55046148D01*
X114596061Y-54936156D01*
X114442492Y-54814450D01*
X114356111Y-54671283D01*
X114328192Y-54496909D01*
X114328167Y-54490662D01*
X114366257Y-54300664D01*
X114477845Y-54149256D01*
X114658906Y-54040987D01*
X114753615Y-54009763D01*
X115002968Y-53976265D01*
X115231212Y-54009127D01*
G37*
X115231212Y-54009127D02*
X115425114Y-54101990D01*
X115571445Y-54248492D01*
X115656975Y-54442273D01*
X115657437Y-54444249D01*
X115669194Y-54515611D01*
X115647430Y-54549535D01*
X115572511Y-54559933D01*
X115493140Y-54560666D01*
X115367286Y-54552424D01*
X115309782Y-54524375D01*
X115301833Y-54497166D01*
X115263817Y-54397737D01*
X115166989Y-54315261D01*
X115037181Y-54268681D01*
X114984333Y-54264333D01*
X114852324Y-54291185D01*
X114740061Y-54359112D01*
X114674225Y-54449169D01*
X114666833Y-54489787D01*
X114704063Y-54572185D01*
X114801535Y-54660567D01*
X114937925Y-54738218D01*
X115026667Y-54771816D01*
X115294356Y-54880917D01*
X115493807Y-55019658D01*
X115620681Y-55183208D01*
X115670636Y-55366739D01*
X115662800Y-55479678D01*
X115590722Y-55652322D01*
X115455879Y-55785455D01*
X115273156Y-55873314D01*
X115057437Y-55910138D01*
X114823605Y-55890166D01*
X114695781Y-55854000D01*
X114494558Y-55752670D01*
X114356909Y-55609009D01*
X114299810Y-55500719D01*
X114262288Y-55380383D01*
X114283493Y-55312395D01*
X114372653Y-55283871D01*
X114457665Y-55280333D01*
X114573239Y-55290596D01*
X114621029Y-55325259D01*
X114624500Y-55345757D01*
X114652615Y-55418511D01*
X114721039Y-55507557D01*
X114728409Y-55515090D01*
X114849264Y-55591754D01*
X114988707Y-55616851D01*
X115124454Y-55595448D01*
X115234223Y-55532609D01*
X115295733Y-55433399D01*
X115301833Y-55384742D01*
X115287911Y-55313799D01*
X115238059Y-55250185D01*
X115140147Y-55185275D01*
X114982046Y-55110446D01*
X114825546Y-55046148D01*
X114596061Y-54936156D01*
X114442492Y-54814450D01*
X114356111Y-54671283D01*
X114328192Y-54496909D01*
X114328167Y-54490662D01*
X114366257Y-54300664D01*
X114477845Y-54149256D01*
X114658906Y-54040987D01*
X114753615Y-54009763D01*
X115002968Y-53976265D01*
X115231212Y-54009127D01*
G36*
X116275500Y-54646693D02*
G01*
X116278816Y-54952246D01*
X116290749Y-55183928D01*
X116314279Y-55352349D01*
X116352386Y-55468117D01*
X116408048Y-55541839D01*
X116484245Y-55584125D01*
X116542995Y-55599187D01*
X116701249Y-55598855D01*
X116842307Y-55546962D01*
X116920435Y-55475079D01*
X116930821Y-55418980D01*
X116939814Y-55293305D01*
X116946781Y-55113138D01*
X116951088Y-54893566D01*
X116952185Y-54719416D01*
X116952833Y-54010333D01*
X117333833Y-54010333D01*
X117333833Y-54720077D01*
X117330830Y-55029745D01*
X117319606Y-55267407D01*
X117296842Y-55445585D01*
X117259219Y-55576798D01*
X117203417Y-55673564D01*
X117126116Y-55748406D01*
X117047381Y-55800427D01*
X116864065Y-55870157D01*
X116645958Y-55898165D01*
X116433721Y-55881140D01*
X116349182Y-55857247D01*
X116215839Y-55801549D01*
X116114610Y-55738768D01*
X116041130Y-55656992D01*
X115991035Y-55544312D01*
X115959959Y-55388818D01*
X115943537Y-55178598D01*
X115937405Y-54901742D01*
X115936833Y-54732102D01*
X115936833Y-54010333D01*
X116275500Y-54010333D01*
X116275500Y-54646693D01*
G37*
X116275500Y-54646693D02*
X116278816Y-54952246D01*
X116290749Y-55183928D01*
X116314279Y-55352349D01*
X116352386Y-55468117D01*
X116408048Y-55541839D01*
X116484245Y-55584125D01*
X116542995Y-55599187D01*
X116701249Y-55598855D01*
X116842307Y-55546962D01*
X116920435Y-55475079D01*
X116930821Y-55418980D01*
X116939814Y-55293305D01*
X116946781Y-55113138D01*
X116951088Y-54893566D01*
X116952185Y-54719416D01*
X116952833Y-54010333D01*
X117333833Y-54010333D01*
X117333833Y-54720077D01*
X117330830Y-55029745D01*
X117319606Y-55267407D01*
X117296842Y-55445585D01*
X117259219Y-55576798D01*
X117203417Y-55673564D01*
X117126116Y-55748406D01*
X117047381Y-55800427D01*
X116864065Y-55870157D01*
X116645958Y-55898165D01*
X116433721Y-55881140D01*
X116349182Y-55857247D01*
X116215839Y-55801549D01*
X116114610Y-55738768D01*
X116041130Y-55656992D01*
X115991035Y-55544312D01*
X115959959Y-55388818D01*
X115943537Y-55178598D01*
X115937405Y-54901742D01*
X115936833Y-54732102D01*
X115936833Y-54010333D01*
X116275500Y-54010333D01*
X116275500Y-54646693D01*
G36*
X121500345Y-53993910D02*
G01*
X121705052Y-54085105D01*
X121877228Y-54250230D01*
X121933519Y-54334527D01*
X121990958Y-54440030D01*
X122026624Y-54535386D01*
X122045608Y-54646242D01*
X122052999Y-54798244D01*
X122054000Y-54941666D01*
X122038554Y-55232913D01*
X121988331Y-55457382D01*
X121897499Y-55627859D01*
X121760228Y-55757130D01*
X121653447Y-55820083D01*
X121443976Y-55897911D01*
X121249653Y-55903574D01*
X121042522Y-55837781D01*
X121038000Y-55835715D01*
X120853729Y-55722592D01*
X120723353Y-55571476D01*
X120641391Y-55371254D01*
X120602365Y-55110813D01*
X120597216Y-54941666D01*
X120805639Y-54941666D01*
X120831435Y-55214361D01*
X120905860Y-55433193D01*
X121024467Y-55591598D01*
X121182811Y-55683010D01*
X121321657Y-55703666D01*
X121458459Y-55689568D01*
X121572272Y-55654452D01*
X121594562Y-55641631D01*
X121707824Y-55520771D01*
X121781066Y-55341046D01*
X121816699Y-55095012D01*
X121821167Y-54941666D01*
X121802076Y-54655274D01*
X121742693Y-54440426D01*
X121639854Y-54292574D01*
X121490392Y-54207170D01*
X121291143Y-54179666D01*
X121290846Y-54179666D01*
X121124845Y-54218898D01*
X120987198Y-54330074D01*
X120884132Y-54503412D01*
X120821876Y-54729132D01*
X120805639Y-54941666D01*
X120597216Y-54941666D01*
X120615383Y-54644183D01*
X120673535Y-54412903D01*
X120777151Y-54236715D01*
X120931709Y-54104506D01*
X121038000Y-54047617D01*
X121274273Y-53980221D01*
X121500345Y-53993910D01*
G37*
X121500345Y-53993910D02*
X121705052Y-54085105D01*
X121877228Y-54250230D01*
X121933519Y-54334527D01*
X121990958Y-54440030D01*
X122026624Y-54535386D01*
X122045608Y-54646242D01*
X122052999Y-54798244D01*
X122054000Y-54941666D01*
X122038554Y-55232913D01*
X121988331Y-55457382D01*
X121897499Y-55627859D01*
X121760228Y-55757130D01*
X121653447Y-55820083D01*
X121443976Y-55897911D01*
X121249653Y-55903574D01*
X121042522Y-55837781D01*
X121038000Y-55835715D01*
X120853729Y-55722592D01*
X120723353Y-55571476D01*
X120641391Y-55371254D01*
X120602365Y-55110813D01*
X120597216Y-54941666D01*
X120805639Y-54941666D01*
X120831435Y-55214361D01*
X120905860Y-55433193D01*
X121024467Y-55591598D01*
X121182811Y-55683010D01*
X121321657Y-55703666D01*
X121458459Y-55689568D01*
X121572272Y-55654452D01*
X121594562Y-55641631D01*
X121707824Y-55520771D01*
X121781066Y-55341046D01*
X121816699Y-55095012D01*
X121821167Y-54941666D01*
X121802076Y-54655274D01*
X121742693Y-54440426D01*
X121639854Y-54292574D01*
X121490392Y-54207170D01*
X121291143Y-54179666D01*
X121290846Y-54179666D01*
X121124845Y-54218898D01*
X120987198Y-54330074D01*
X120884132Y-54503412D01*
X120821876Y-54729132D01*
X120805639Y-54941666D01*
X120597216Y-54941666D01*
X120615383Y-54644183D01*
X120673535Y-54412903D01*
X120777151Y-54236715D01*
X120931709Y-54104506D01*
X121038000Y-54047617D01*
X121274273Y-53980221D01*
X121500345Y-53993910D01*
G36*
X124403500Y-54711616D02*
G01*
X124406562Y-55027198D01*
X124418656Y-55268153D01*
X124444142Y-55444392D01*
X124487379Y-55565825D01*
X124552727Y-55642364D01*
X124644547Y-55683918D01*
X124767199Y-55700398D01*
X124839341Y-55702320D01*
X124986549Y-55691684D01*
X125088272Y-55649140D01*
X125146257Y-55599757D01*
X125183611Y-55559830D01*
X125210733Y-55517187D01*
X125229260Y-55458488D01*
X125240830Y-55370395D01*
X125247079Y-55239567D01*
X125249645Y-55052666D01*
X125250164Y-54796352D01*
X125250167Y-54753090D01*
X125250167Y-54010333D01*
X125504167Y-54010333D01*
X125504101Y-54719416D01*
X125502703Y-54993969D01*
X125497741Y-55198217D01*
X125487975Y-55346490D01*
X125472164Y-55453119D01*
X125449068Y-55532433D01*
X125430017Y-55575226D01*
X125307112Y-55730814D01*
X125130742Y-55839818D01*
X124921647Y-55896420D01*
X124700568Y-55894806D01*
X124501557Y-55835573D01*
X124393926Y-55778066D01*
X124312203Y-55711554D01*
X124252562Y-55623897D01*
X124211182Y-55502950D01*
X124184237Y-55336572D01*
X124167903Y-55112620D01*
X124158357Y-54818951D01*
X124156726Y-54740583D01*
X124142506Y-54010333D01*
X124403500Y-54010333D01*
X124403500Y-54711616D01*
G37*
X124403500Y-54711616D02*
X124406562Y-55027198D01*
X124418656Y-55268153D01*
X124444142Y-55444392D01*
X124487379Y-55565825D01*
X124552727Y-55642364D01*
X124644547Y-55683918D01*
X124767199Y-55700398D01*
X124839341Y-55702320D01*
X124986549Y-55691684D01*
X125088272Y-55649140D01*
X125146257Y-55599757D01*
X125183611Y-55559830D01*
X125210733Y-55517187D01*
X125229260Y-55458488D01*
X125240830Y-55370395D01*
X125247079Y-55239567D01*
X125249645Y-55052666D01*
X125250164Y-54796352D01*
X125250167Y-54753090D01*
X125250167Y-54010333D01*
X125504167Y-54010333D01*
X125504101Y-54719416D01*
X125502703Y-54993969D01*
X125497741Y-55198217D01*
X125487975Y-55346490D01*
X125472164Y-55453119D01*
X125449068Y-55532433D01*
X125430017Y-55575226D01*
X125307112Y-55730814D01*
X125130742Y-55839818D01*
X124921647Y-55896420D01*
X124700568Y-55894806D01*
X124501557Y-55835573D01*
X124393926Y-55778066D01*
X124312203Y-55711554D01*
X124252562Y-55623897D01*
X124211182Y-55502950D01*
X124184237Y-55336572D01*
X124167903Y-55112620D01*
X124158357Y-54818951D01*
X124156726Y-54740583D01*
X124142506Y-54010333D01*
X124403500Y-54010333D01*
X124403500Y-54711616D01*
G36*
X113047583Y-54010569D02*
G01*
X113320199Y-54017136D01*
X113525456Y-54039519D01*
X113679914Y-54082277D01*
X113800128Y-54149970D01*
X113901351Y-54245667D01*
X113982300Y-54352473D01*
X114021024Y-54456809D01*
X114031751Y-54599487D01*
X114031833Y-54619930D01*
X114001454Y-54838041D01*
X113908856Y-55002892D01*
X113751848Y-55116189D01*
X113528239Y-55179638D01*
X113292360Y-55195666D01*
X113015833Y-55195666D01*
X113015833Y-55873000D01*
X112634833Y-55873000D01*
X112634833Y-54306666D01*
X113015833Y-54306666D01*
X113015833Y-54899333D01*
X113261742Y-54899333D01*
X113422237Y-54888833D01*
X113546528Y-54861062D01*
X113587709Y-54840793D01*
X113652767Y-54743013D01*
X113667767Y-54623672D01*
X113639569Y-54471409D01*
X113551486Y-54370690D01*
X113398282Y-54317599D01*
X113243977Y-54306666D01*
X113015833Y-54306666D01*
X112634833Y-54306666D01*
X112634833Y-54010333D01*
X113047583Y-54010569D01*
G37*
X113047583Y-54010569D02*
X113320199Y-54017136D01*
X113525456Y-54039519D01*
X113679914Y-54082277D01*
X113800128Y-54149970D01*
X113901351Y-54245667D01*
X113982300Y-54352473D01*
X114021024Y-54456809D01*
X114031751Y-54599487D01*
X114031833Y-54619930D01*
X114001454Y-54838041D01*
X113908856Y-55002892D01*
X113751848Y-55116189D01*
X113528239Y-55179638D01*
X113292360Y-55195666D01*
X113015833Y-55195666D01*
X113015833Y-55873000D01*
X112634833Y-55873000D01*
X112634833Y-54306666D01*
X113015833Y-54306666D01*
X113015833Y-54899333D01*
X113261742Y-54899333D01*
X113422237Y-54888833D01*
X113546528Y-54861062D01*
X113587709Y-54840793D01*
X113652767Y-54743013D01*
X113667767Y-54623672D01*
X113639569Y-54471409D01*
X113551486Y-54370690D01*
X113398282Y-54317599D01*
X113243977Y-54306666D01*
X113015833Y-54306666D01*
X112634833Y-54306666D01*
X112634833Y-54010333D01*
X113047583Y-54010569D01*
G36*
X120212500Y-55873000D02*
G01*
X119945401Y-55873000D01*
X119974652Y-55123576D01*
X119982843Y-54884349D01*
X119987666Y-54679229D01*
X119989000Y-54521133D01*
X119986726Y-54422978D01*
X119981437Y-54396618D01*
X119959069Y-54441260D01*
X119910588Y-54551632D01*
X119841433Y-54714899D01*
X119757047Y-54918225D01*
X119668269Y-55135459D01*
X119547325Y-55431332D01*
X119451227Y-55649150D01*
X119372379Y-55788911D01*
X119303181Y-55850612D01*
X119236036Y-55834252D01*
X119163346Y-55739827D01*
X119077514Y-55567335D01*
X118970941Y-55316773D01*
X118896438Y-55135204D01*
X118802001Y-54906180D01*
X118717985Y-54705252D01*
X118649815Y-54545164D01*
X118602913Y-54438659D01*
X118582990Y-54398712D01*
X118578046Y-54432149D01*
X118576512Y-54537179D01*
X118578261Y-54700802D01*
X118583164Y-54910016D01*
X118590147Y-55125924D01*
X118617167Y-55873000D01*
X118349833Y-55873000D01*
X118349833Y-54010333D01*
X118667333Y-54010853D01*
X118960306Y-54751426D01*
X119053499Y-54983433D01*
X119137437Y-55185692D01*
X119206833Y-55346001D01*
X119256401Y-55452157D01*
X119280854Y-55491958D01*
X119281167Y-55492000D01*
X119304716Y-55454556D01*
X119353552Y-55350362D01*
X119422388Y-55191619D01*
X119505937Y-54990529D01*
X119598912Y-54759296D01*
X119602027Y-54751426D01*
X119895000Y-54010853D01*
X120212500Y-54010333D01*
X120212500Y-55873000D01*
G37*
X120212500Y-55873000D02*
X119945401Y-55873000D01*
X119974652Y-55123576D01*
X119982843Y-54884349D01*
X119987666Y-54679229D01*
X119989000Y-54521133D01*
X119986726Y-54422978D01*
X119981437Y-54396618D01*
X119959069Y-54441260D01*
X119910588Y-54551632D01*
X119841433Y-54714899D01*
X119757047Y-54918225D01*
X119668269Y-55135459D01*
X119547325Y-55431332D01*
X119451227Y-55649150D01*
X119372379Y-55788911D01*
X119303181Y-55850612D01*
X119236036Y-55834252D01*
X119163346Y-55739827D01*
X119077514Y-55567335D01*
X118970941Y-55316773D01*
X118896438Y-55135204D01*
X118802001Y-54906180D01*
X118717985Y-54705252D01*
X118649815Y-54545164D01*
X118602913Y-54438659D01*
X118582990Y-54398712D01*
X118578046Y-54432149D01*
X118576512Y-54537179D01*
X118578261Y-54700802D01*
X118583164Y-54910016D01*
X118590147Y-55125924D01*
X118617167Y-55873000D01*
X118349833Y-55873000D01*
X118349833Y-54010333D01*
X118667333Y-54010853D01*
X118960306Y-54751426D01*
X119053499Y-54983433D01*
X119137437Y-55185692D01*
X119206833Y-55346001D01*
X119256401Y-55452157D01*
X119280854Y-55491958D01*
X119281167Y-55492000D01*
X119304716Y-55454556D01*
X119353552Y-55350362D01*
X119422388Y-55191619D01*
X119505937Y-54990529D01*
X119598912Y-54759296D01*
X119602027Y-54751426D01*
X119895000Y-54010853D01*
X120212500Y-54010333D01*
X120212500Y-55873000D01*
G36*
X122763083Y-54010569D02*
G01*
X123079971Y-54031838D01*
X123331600Y-54097875D01*
X123527002Y-54212842D01*
X123675210Y-54380898D01*
X123715611Y-54449292D01*
X123759104Y-54584384D01*
X123783695Y-54772540D01*
X123789383Y-54984296D01*
X123776168Y-55190185D01*
X123744051Y-55360742D01*
X123715611Y-55434040D01*
X123581100Y-55620681D01*
X123402401Y-55752847D01*
X123170480Y-55834700D01*
X122876305Y-55870401D01*
X122763083Y-55872763D01*
X122456167Y-55873000D01*
X122456167Y-54222000D01*
X122710167Y-54222000D01*
X122710167Y-55661333D01*
X122960918Y-55661333D01*
X123121224Y-55653930D01*
X123231084Y-55625495D01*
X123323908Y-55566687D01*
X123336428Y-55556357D01*
X123446252Y-55441987D01*
X123514842Y-55308639D01*
X123548199Y-55136632D01*
X123552322Y-54906286D01*
X123550315Y-54854727D01*
X123540710Y-54682725D01*
X123525131Y-54570600D01*
X123494799Y-54493609D01*
X123440932Y-54427009D01*
X123377057Y-54366472D01*
X123278063Y-54283890D01*
X123189617Y-54240560D01*
X123076452Y-54224122D01*
X122964788Y-54222000D01*
X122710167Y-54222000D01*
X122456167Y-54222000D01*
X122456167Y-54010333D01*
X122763083Y-54010569D01*
G37*
X122763083Y-54010569D02*
X123079971Y-54031838D01*
X123331600Y-54097875D01*
X123527002Y-54212842D01*
X123675210Y-54380898D01*
X123715611Y-54449292D01*
X123759104Y-54584384D01*
X123783695Y-54772540D01*
X123789383Y-54984296D01*
X123776168Y-55190185D01*
X123744051Y-55360742D01*
X123715611Y-55434040D01*
X123581100Y-55620681D01*
X123402401Y-55752847D01*
X123170480Y-55834700D01*
X122876305Y-55870401D01*
X122763083Y-55872763D01*
X122456167Y-55873000D01*
X122456167Y-54222000D01*
X122710167Y-54222000D01*
X122710167Y-55661333D01*
X122960918Y-55661333D01*
X123121224Y-55653930D01*
X123231084Y-55625495D01*
X123323908Y-55566687D01*
X123336428Y-55556357D01*
X123446252Y-55441987D01*
X123514842Y-55308639D01*
X123548199Y-55136632D01*
X123552322Y-54906286D01*
X123550315Y-54854727D01*
X123540710Y-54682725D01*
X123525131Y-54570600D01*
X123494799Y-54493609D01*
X123440932Y-54427009D01*
X123377057Y-54366472D01*
X123278063Y-54283890D01*
X123189617Y-54240560D01*
X123076452Y-54224122D01*
X122964788Y-54222000D01*
X122710167Y-54222000D01*
X122456167Y-54222000D01*
X122456167Y-54010333D01*
X122763083Y-54010569D01*
G36*
X126139167Y-55658371D02*
G01*
X126573083Y-55670435D01*
X126768585Y-55676907D01*
X126895149Y-55685756D01*
X126968494Y-55700752D01*
X127004337Y-55725665D01*
X127018395Y-55764264D01*
X127020527Y-55777750D01*
X127023513Y-55815882D01*
X127011113Y-55842176D01*
X126970373Y-55858834D01*
X126888338Y-55868053D01*
X126752054Y-55872036D01*
X126548566Y-55872980D01*
X126459611Y-55873000D01*
X125885167Y-55873000D01*
X125885167Y-54010333D01*
X126139167Y-54010333D01*
X126139167Y-55658371D01*
G37*
X126139167Y-55658371D02*
X126573083Y-55670435D01*
X126768585Y-55676907D01*
X126895149Y-55685756D01*
X126968494Y-55700752D01*
X127004337Y-55725665D01*
X127018395Y-55764264D01*
X127020527Y-55777750D01*
X127023513Y-55815882D01*
X127011113Y-55842176D01*
X126970373Y-55858834D01*
X126888338Y-55868053D01*
X126752054Y-55872036D01*
X126548566Y-55872980D01*
X126459611Y-55873000D01*
X125885167Y-55873000D01*
X125885167Y-54010333D01*
X126139167Y-54010333D01*
X126139167Y-55658371D01*
G36*
X128112589Y-54010705D02*
G01*
X128275468Y-54013210D01*
X128379149Y-54019932D01*
X128436365Y-54032954D01*
X128459852Y-54054361D01*
X128462343Y-54086237D01*
X128459861Y-54105583D01*
X128449412Y-54147749D01*
X128422162Y-54175787D01*
X128362778Y-54193206D01*
X128255928Y-54203515D01*
X128086281Y-54210224D01*
X127991250Y-54212848D01*
X127536167Y-54224864D01*
X127536167Y-54814666D01*
X127938333Y-54814666D01*
X128124643Y-54815401D01*
X128242145Y-54820388D01*
X128306698Y-54833801D01*
X128334163Y-54859813D01*
X128340398Y-54902598D01*
X128340500Y-54920500D01*
X128337707Y-54969528D01*
X128318756Y-55000450D01*
X128267787Y-55017438D01*
X128168941Y-55024665D01*
X128006360Y-55026306D01*
X127938333Y-55026333D01*
X127536167Y-55026333D01*
X127536167Y-55661333D01*
X128467500Y-55661333D01*
X128467500Y-55873000D01*
X127282167Y-55873000D01*
X127282167Y-54010333D01*
X127877777Y-54010333D01*
X128112589Y-54010705D01*
G37*
X128112589Y-54010705D02*
X128275468Y-54013210D01*
X128379149Y-54019932D01*
X128436365Y-54032954D01*
X128459852Y-54054361D01*
X128462343Y-54086237D01*
X128459861Y-54105583D01*
X128449412Y-54147749D01*
X128422162Y-54175787D01*
X128362778Y-54193206D01*
X128255928Y-54203515D01*
X128086281Y-54210224D01*
X127991250Y-54212848D01*
X127536167Y-54224864D01*
X127536167Y-54814666D01*
X127938333Y-54814666D01*
X128124643Y-54815401D01*
X128242145Y-54820388D01*
X128306698Y-54833801D01*
X128334163Y-54859813D01*
X128340398Y-54902598D01*
X128340500Y-54920500D01*
X128337707Y-54969528D01*
X128318756Y-55000450D01*
X128267787Y-55017438D01*
X128168941Y-55024665D01*
X128006360Y-55026306D01*
X127938333Y-55026333D01*
X127536167Y-55026333D01*
X127536167Y-55661333D01*
X128467500Y-55661333D01*
X128467500Y-55873000D01*
X127282167Y-55873000D01*
X127282167Y-54010333D01*
X127877777Y-54010333D01*
X128112589Y-54010705D01*
D10*
%TO.C,C1*%
X145520354Y-55475000D02*
X145520354Y-56475000D01*
X145020354Y-55975000D02*
X146020354Y-55975000D01*
X155581000Y-58251000D02*
X155581000Y-59449000D01*
X155541000Y-57988000D02*
X155541000Y-59712000D01*
X155501000Y-57788000D02*
X155501000Y-59912000D01*
X155461000Y-57620000D02*
X155461000Y-60080000D01*
X155421000Y-57472000D02*
X155421000Y-60228000D01*
X155381000Y-57340000D02*
X155381000Y-60360000D01*
X155341000Y-57220000D02*
X155341000Y-60480000D01*
X155301000Y-57108000D02*
X155301000Y-60592000D01*
X155261000Y-57004000D02*
X155261000Y-60696000D01*
X155221000Y-56906000D02*
X155221000Y-60794000D01*
X155181000Y-56813000D02*
X155181000Y-60887000D01*
X155141000Y-56725000D02*
X155141000Y-60975000D01*
X155101000Y-56641000D02*
X155101000Y-61059000D01*
X155061000Y-56561000D02*
X155061000Y-61139000D01*
X155021000Y-56485000D02*
X155021000Y-61215000D01*
X154981000Y-56411000D02*
X154981000Y-61289000D01*
X154941000Y-56340000D02*
X154941000Y-61360000D01*
X154901000Y-56271000D02*
X154901000Y-61429000D01*
X154861000Y-56205000D02*
X154861000Y-61495000D01*
X154821000Y-56141000D02*
X154821000Y-61559000D01*
X154781000Y-56080000D02*
X154781000Y-61620000D01*
X154741000Y-56020000D02*
X154741000Y-61680000D01*
X154701000Y-55961000D02*
X154701000Y-61739000D01*
X154661000Y-55905000D02*
X154661000Y-61795000D01*
X154621000Y-55850000D02*
X154621000Y-61850000D01*
X154581000Y-55796000D02*
X154581000Y-61904000D01*
X154541000Y-55744000D02*
X154541000Y-61956000D01*
X154501000Y-55694000D02*
X154501000Y-62006000D01*
X154461000Y-55644000D02*
X154461000Y-62056000D01*
X154421000Y-55596000D02*
X154421000Y-62104000D01*
X154381000Y-55549000D02*
X154381000Y-62151000D01*
X154341000Y-55503000D02*
X154341000Y-62197000D01*
X154301000Y-55458000D02*
X154301000Y-62242000D01*
X154261000Y-55414000D02*
X154261000Y-62286000D01*
X154221000Y-60091000D02*
X154221000Y-62328000D01*
X154221000Y-55372000D02*
X154221000Y-57609000D01*
X154181000Y-60091000D02*
X154181000Y-62370000D01*
X154181000Y-55330000D02*
X154181000Y-57609000D01*
X154141000Y-60091000D02*
X154141000Y-62411000D01*
X154141000Y-55289000D02*
X154141000Y-57609000D01*
X154101000Y-60091000D02*
X154101000Y-62451000D01*
X154101000Y-55249000D02*
X154101000Y-57609000D01*
X154061000Y-60091000D02*
X154061000Y-62490000D01*
X154061000Y-55210000D02*
X154061000Y-57609000D01*
X154021000Y-60091000D02*
X154021000Y-62529000D01*
X154021000Y-55171000D02*
X154021000Y-57609000D01*
X153981000Y-60091000D02*
X153981000Y-62566000D01*
X153981000Y-55134000D02*
X153981000Y-57609000D01*
X153941000Y-60091000D02*
X153941000Y-62603000D01*
X153941000Y-55097000D02*
X153941000Y-57609000D01*
X153901000Y-60091000D02*
X153901000Y-62639000D01*
X153901000Y-55061000D02*
X153901000Y-57609000D01*
X153861000Y-60091000D02*
X153861000Y-62674000D01*
X153861000Y-55026000D02*
X153861000Y-57609000D01*
X153821000Y-60091000D02*
X153821000Y-62708000D01*
X153821000Y-54992000D02*
X153821000Y-57609000D01*
X153781000Y-60091000D02*
X153781000Y-62742000D01*
X153781000Y-54958000D02*
X153781000Y-57609000D01*
X153741000Y-60091000D02*
X153741000Y-62775000D01*
X153741000Y-54925000D02*
X153741000Y-57609000D01*
X153701000Y-60091000D02*
X153701000Y-62807000D01*
X153701000Y-54893000D02*
X153701000Y-57609000D01*
X153661000Y-60091000D02*
X153661000Y-62839000D01*
X153661000Y-54861000D02*
X153661000Y-57609000D01*
X153621000Y-60091000D02*
X153621000Y-62870000D01*
X153621000Y-54830000D02*
X153621000Y-57609000D01*
X153581000Y-60091000D02*
X153581000Y-62900000D01*
X153581000Y-54800000D02*
X153581000Y-57609000D01*
X153541000Y-60091000D02*
X153541000Y-62930000D01*
X153541000Y-54770000D02*
X153541000Y-57609000D01*
X153501000Y-60091000D02*
X153501000Y-62960000D01*
X153501000Y-54740000D02*
X153501000Y-57609000D01*
X153461000Y-60091000D02*
X153461000Y-62988000D01*
X153461000Y-54712000D02*
X153461000Y-57609000D01*
X153421000Y-60091000D02*
X153421000Y-63016000D01*
X153421000Y-54684000D02*
X153421000Y-57609000D01*
X153381000Y-60091000D02*
X153381000Y-63044000D01*
X153381000Y-54656000D02*
X153381000Y-57609000D01*
X153341000Y-60091000D02*
X153341000Y-63071000D01*
X153341000Y-54629000D02*
X153341000Y-57609000D01*
X153301000Y-60091000D02*
X153301000Y-63097000D01*
X153301000Y-54603000D02*
X153301000Y-57609000D01*
X153261000Y-60091000D02*
X153261000Y-63123000D01*
X153261000Y-54577000D02*
X153261000Y-57609000D01*
X153221000Y-60091000D02*
X153221000Y-63148000D01*
X153221000Y-54552000D02*
X153221000Y-57609000D01*
X153181000Y-60091000D02*
X153181000Y-63173000D01*
X153181000Y-54527000D02*
X153181000Y-57609000D01*
X153141000Y-60091000D02*
X153141000Y-63197000D01*
X153141000Y-54503000D02*
X153141000Y-57609000D01*
X153101000Y-60091000D02*
X153101000Y-63221000D01*
X153101000Y-54479000D02*
X153101000Y-57609000D01*
X153061000Y-60091000D02*
X153061000Y-63245000D01*
X153061000Y-54455000D02*
X153061000Y-57609000D01*
X153021000Y-60091000D02*
X153021000Y-63267000D01*
X153021000Y-54433000D02*
X153021000Y-57609000D01*
X152981000Y-60091000D02*
X152981000Y-63290000D01*
X152981000Y-54410000D02*
X152981000Y-57609000D01*
X152941000Y-60091000D02*
X152941000Y-63312000D01*
X152941000Y-54388000D02*
X152941000Y-57609000D01*
X152901000Y-60091000D02*
X152901000Y-63333000D01*
X152901000Y-54367000D02*
X152901000Y-57609000D01*
X152861000Y-60091000D02*
X152861000Y-63354000D01*
X152861000Y-54346000D02*
X152861000Y-57609000D01*
X152821000Y-60091000D02*
X152821000Y-63375000D01*
X152821000Y-54325000D02*
X152821000Y-57609000D01*
X152781000Y-60091000D02*
X152781000Y-63395000D01*
X152781000Y-54305000D02*
X152781000Y-57609000D01*
X152741000Y-60091000D02*
X152741000Y-63414000D01*
X152741000Y-54286000D02*
X152741000Y-57609000D01*
X152701000Y-60091000D02*
X152701000Y-63434000D01*
X152701000Y-54266000D02*
X152701000Y-57609000D01*
X152661000Y-60091000D02*
X152661000Y-63453000D01*
X152661000Y-54247000D02*
X152661000Y-57609000D01*
X152621000Y-60091000D02*
X152621000Y-63471000D01*
X152621000Y-54229000D02*
X152621000Y-57609000D01*
X152581000Y-60091000D02*
X152581000Y-63489000D01*
X152581000Y-54211000D02*
X152581000Y-57609000D01*
X152541000Y-60091000D02*
X152541000Y-63507000D01*
X152541000Y-54193000D02*
X152541000Y-57609000D01*
X152501000Y-60091000D02*
X152501000Y-63524000D01*
X152501000Y-54176000D02*
X152501000Y-57609000D01*
X152461000Y-60091000D02*
X152461000Y-63540000D01*
X152461000Y-54160000D02*
X152461000Y-57609000D01*
X152421000Y-60091000D02*
X152421000Y-63557000D01*
X152421000Y-54143000D02*
X152421000Y-57609000D01*
X152381000Y-60091000D02*
X152381000Y-63573000D01*
X152381000Y-54127000D02*
X152381000Y-57609000D01*
X152341000Y-60091000D02*
X152341000Y-63588000D01*
X152341000Y-54112000D02*
X152341000Y-57609000D01*
X152301000Y-60091000D02*
X152301000Y-63604000D01*
X152301000Y-54096000D02*
X152301000Y-57609000D01*
X152261000Y-60091000D02*
X152261000Y-63618000D01*
X152261000Y-54082000D02*
X152261000Y-57609000D01*
X152221000Y-60091000D02*
X152221000Y-63633000D01*
X152221000Y-54067000D02*
X152221000Y-57609000D01*
X152181000Y-60091000D02*
X152181000Y-63647000D01*
X152181000Y-54053000D02*
X152181000Y-57609000D01*
X152141000Y-60091000D02*
X152141000Y-63661000D01*
X152141000Y-54039000D02*
X152141000Y-57609000D01*
X152101000Y-60091000D02*
X152101000Y-63674000D01*
X152101000Y-54026000D02*
X152101000Y-57609000D01*
X152061000Y-60091000D02*
X152061000Y-63687000D01*
X152061000Y-54013000D02*
X152061000Y-57609000D01*
X152021000Y-60091000D02*
X152021000Y-63700000D01*
X152021000Y-54000000D02*
X152021000Y-57609000D01*
X151981000Y-60091000D02*
X151981000Y-63712000D01*
X151981000Y-53988000D02*
X151981000Y-57609000D01*
X151941000Y-60091000D02*
X151941000Y-63724000D01*
X151941000Y-53976000D02*
X151941000Y-57609000D01*
X151901000Y-60091000D02*
X151901000Y-63735000D01*
X151901000Y-53965000D02*
X151901000Y-57609000D01*
X151861000Y-60091000D02*
X151861000Y-63747000D01*
X151861000Y-53953000D02*
X151861000Y-57609000D01*
X151821000Y-60091000D02*
X151821000Y-63757000D01*
X151821000Y-53943000D02*
X151821000Y-57609000D01*
X151781000Y-60091000D02*
X151781000Y-63768000D01*
X151781000Y-53932000D02*
X151781000Y-57609000D01*
X151741000Y-53922000D02*
X151741000Y-63778000D01*
X151701000Y-53912000D02*
X151701000Y-63788000D01*
X151661000Y-53903000D02*
X151661000Y-63797000D01*
X151621000Y-53894000D02*
X151621000Y-63806000D01*
X151581000Y-53885000D02*
X151581000Y-63815000D01*
X151541000Y-53876000D02*
X151541000Y-63824000D01*
X151501000Y-53868000D02*
X151501000Y-63832000D01*
X151461000Y-53860000D02*
X151461000Y-63840000D01*
X151421000Y-53853000D02*
X151421000Y-63847000D01*
X151381000Y-53846000D02*
X151381000Y-63854000D01*
X151341000Y-53839000D02*
X151341000Y-63861000D01*
X151301000Y-53832000D02*
X151301000Y-63868000D01*
X151261000Y-53826000D02*
X151261000Y-63874000D01*
X151221000Y-53820000D02*
X151221000Y-63880000D01*
X151180000Y-53815000D02*
X151180000Y-63885000D01*
X151140000Y-53810000D02*
X151140000Y-63890000D01*
X151100000Y-53805000D02*
X151100000Y-63895000D01*
X151060000Y-53800000D02*
X151060000Y-63900000D01*
X151020000Y-53796000D02*
X151020000Y-63904000D01*
X150980000Y-53792000D02*
X150980000Y-63908000D01*
X150940000Y-53788000D02*
X150940000Y-63912000D01*
X150900000Y-53785000D02*
X150900000Y-63915000D01*
X150860000Y-53782000D02*
X150860000Y-63918000D01*
X150820000Y-53780000D02*
X150820000Y-63920000D01*
X150780000Y-53777000D02*
X150780000Y-63923000D01*
X150740000Y-53775000D02*
X150740000Y-63925000D01*
X150700000Y-53773000D02*
X150700000Y-63927000D01*
X150660000Y-53772000D02*
X150660000Y-63928000D01*
X150620000Y-53771000D02*
X150620000Y-63929000D01*
X150580000Y-53770000D02*
X150580000Y-63930000D01*
X150540000Y-53770000D02*
X150540000Y-63930000D01*
X150500000Y-53770000D02*
X150500000Y-63930000D01*
X155620000Y-58850000D02*
G75*
G03*
X155620000Y-58850000I-5120000J0D01*
G01*
%TO.C,C2*%
X145520354Y-69575000D02*
X145520354Y-70575000D01*
X145020354Y-70075000D02*
X146020354Y-70075000D01*
X155581000Y-72351000D02*
X155581000Y-73549000D01*
X155541000Y-72088000D02*
X155541000Y-73812000D01*
X155501000Y-71888000D02*
X155501000Y-74012000D01*
X155461000Y-71720000D02*
X155461000Y-74180000D01*
X155421000Y-71572000D02*
X155421000Y-74328000D01*
X155381000Y-71440000D02*
X155381000Y-74460000D01*
X155341000Y-71320000D02*
X155341000Y-74580000D01*
X155301000Y-71208000D02*
X155301000Y-74692000D01*
X155261000Y-71104000D02*
X155261000Y-74796000D01*
X155221000Y-71006000D02*
X155221000Y-74894000D01*
X155181000Y-70913000D02*
X155181000Y-74987000D01*
X155141000Y-70825000D02*
X155141000Y-75075000D01*
X155101000Y-70741000D02*
X155101000Y-75159000D01*
X155061000Y-70661000D02*
X155061000Y-75239000D01*
X155021000Y-70585000D02*
X155021000Y-75315000D01*
X154981000Y-70511000D02*
X154981000Y-75389000D01*
X154941000Y-70440000D02*
X154941000Y-75460000D01*
X154901000Y-70371000D02*
X154901000Y-75529000D01*
X154861000Y-70305000D02*
X154861000Y-75595000D01*
X154821000Y-70241000D02*
X154821000Y-75659000D01*
X154781000Y-70180000D02*
X154781000Y-75720000D01*
X154741000Y-70120000D02*
X154741000Y-75780000D01*
X154701000Y-70061000D02*
X154701000Y-75839000D01*
X154661000Y-70005000D02*
X154661000Y-75895000D01*
X154621000Y-69950000D02*
X154621000Y-75950000D01*
X154581000Y-69896000D02*
X154581000Y-76004000D01*
X154541000Y-69844000D02*
X154541000Y-76056000D01*
X154501000Y-69794000D02*
X154501000Y-76106000D01*
X154461000Y-69744000D02*
X154461000Y-76156000D01*
X154421000Y-69696000D02*
X154421000Y-76204000D01*
X154381000Y-69649000D02*
X154381000Y-76251000D01*
X154341000Y-69603000D02*
X154341000Y-76297000D01*
X154301000Y-69558000D02*
X154301000Y-76342000D01*
X154261000Y-69514000D02*
X154261000Y-76386000D01*
X154221000Y-74191000D02*
X154221000Y-76428000D01*
X154221000Y-69472000D02*
X154221000Y-71709000D01*
X154181000Y-74191000D02*
X154181000Y-76470000D01*
X154181000Y-69430000D02*
X154181000Y-71709000D01*
X154141000Y-74191000D02*
X154141000Y-76511000D01*
X154141000Y-69389000D02*
X154141000Y-71709000D01*
X154101000Y-74191000D02*
X154101000Y-76551000D01*
X154101000Y-69349000D02*
X154101000Y-71709000D01*
X154061000Y-74191000D02*
X154061000Y-76590000D01*
X154061000Y-69310000D02*
X154061000Y-71709000D01*
X154021000Y-74191000D02*
X154021000Y-76629000D01*
X154021000Y-69271000D02*
X154021000Y-71709000D01*
X153981000Y-74191000D02*
X153981000Y-76666000D01*
X153981000Y-69234000D02*
X153981000Y-71709000D01*
X153941000Y-74191000D02*
X153941000Y-76703000D01*
X153941000Y-69197000D02*
X153941000Y-71709000D01*
X153901000Y-74191000D02*
X153901000Y-76739000D01*
X153901000Y-69161000D02*
X153901000Y-71709000D01*
X153861000Y-74191000D02*
X153861000Y-76774000D01*
X153861000Y-69126000D02*
X153861000Y-71709000D01*
X153821000Y-74191000D02*
X153821000Y-76808000D01*
X153821000Y-69092000D02*
X153821000Y-71709000D01*
X153781000Y-74191000D02*
X153781000Y-76842000D01*
X153781000Y-69058000D02*
X153781000Y-71709000D01*
X153741000Y-74191000D02*
X153741000Y-76875000D01*
X153741000Y-69025000D02*
X153741000Y-71709000D01*
X153701000Y-74191000D02*
X153701000Y-76907000D01*
X153701000Y-68993000D02*
X153701000Y-71709000D01*
X153661000Y-74191000D02*
X153661000Y-76939000D01*
X153661000Y-68961000D02*
X153661000Y-71709000D01*
X153621000Y-74191000D02*
X153621000Y-76970000D01*
X153621000Y-68930000D02*
X153621000Y-71709000D01*
X153581000Y-74191000D02*
X153581000Y-77000000D01*
X153581000Y-68900000D02*
X153581000Y-71709000D01*
X153541000Y-74191000D02*
X153541000Y-77030000D01*
X153541000Y-68870000D02*
X153541000Y-71709000D01*
X153501000Y-74191000D02*
X153501000Y-77060000D01*
X153501000Y-68840000D02*
X153501000Y-71709000D01*
X153461000Y-74191000D02*
X153461000Y-77088000D01*
X153461000Y-68812000D02*
X153461000Y-71709000D01*
X153421000Y-74191000D02*
X153421000Y-77116000D01*
X153421000Y-68784000D02*
X153421000Y-71709000D01*
X153381000Y-74191000D02*
X153381000Y-77144000D01*
X153381000Y-68756000D02*
X153381000Y-71709000D01*
X153341000Y-74191000D02*
X153341000Y-77171000D01*
X153341000Y-68729000D02*
X153341000Y-71709000D01*
X153301000Y-74191000D02*
X153301000Y-77197000D01*
X153301000Y-68703000D02*
X153301000Y-71709000D01*
X153261000Y-74191000D02*
X153261000Y-77223000D01*
X153261000Y-68677000D02*
X153261000Y-71709000D01*
X153221000Y-74191000D02*
X153221000Y-77248000D01*
X153221000Y-68652000D02*
X153221000Y-71709000D01*
X153181000Y-74191000D02*
X153181000Y-77273000D01*
X153181000Y-68627000D02*
X153181000Y-71709000D01*
X153141000Y-74191000D02*
X153141000Y-77297000D01*
X153141000Y-68603000D02*
X153141000Y-71709000D01*
X153101000Y-74191000D02*
X153101000Y-77321000D01*
X153101000Y-68579000D02*
X153101000Y-71709000D01*
X153061000Y-74191000D02*
X153061000Y-77345000D01*
X153061000Y-68555000D02*
X153061000Y-71709000D01*
X153021000Y-74191000D02*
X153021000Y-77367000D01*
X153021000Y-68533000D02*
X153021000Y-71709000D01*
X152981000Y-74191000D02*
X152981000Y-77390000D01*
X152981000Y-68510000D02*
X152981000Y-71709000D01*
X152941000Y-74191000D02*
X152941000Y-77412000D01*
X152941000Y-68488000D02*
X152941000Y-71709000D01*
X152901000Y-74191000D02*
X152901000Y-77433000D01*
X152901000Y-68467000D02*
X152901000Y-71709000D01*
X152861000Y-74191000D02*
X152861000Y-77454000D01*
X152861000Y-68446000D02*
X152861000Y-71709000D01*
X152821000Y-74191000D02*
X152821000Y-77475000D01*
X152821000Y-68425000D02*
X152821000Y-71709000D01*
X152781000Y-74191000D02*
X152781000Y-77495000D01*
X152781000Y-68405000D02*
X152781000Y-71709000D01*
X152741000Y-74191000D02*
X152741000Y-77514000D01*
X152741000Y-68386000D02*
X152741000Y-71709000D01*
X152701000Y-74191000D02*
X152701000Y-77534000D01*
X152701000Y-68366000D02*
X152701000Y-71709000D01*
X152661000Y-74191000D02*
X152661000Y-77553000D01*
X152661000Y-68347000D02*
X152661000Y-71709000D01*
X152621000Y-74191000D02*
X152621000Y-77571000D01*
X152621000Y-68329000D02*
X152621000Y-71709000D01*
X152581000Y-74191000D02*
X152581000Y-77589000D01*
X152581000Y-68311000D02*
X152581000Y-71709000D01*
X152541000Y-74191000D02*
X152541000Y-77607000D01*
X152541000Y-68293000D02*
X152541000Y-71709000D01*
X152501000Y-74191000D02*
X152501000Y-77624000D01*
X152501000Y-68276000D02*
X152501000Y-71709000D01*
X152461000Y-74191000D02*
X152461000Y-77640000D01*
X152461000Y-68260000D02*
X152461000Y-71709000D01*
X152421000Y-74191000D02*
X152421000Y-77657000D01*
X152421000Y-68243000D02*
X152421000Y-71709000D01*
X152381000Y-74191000D02*
X152381000Y-77673000D01*
X152381000Y-68227000D02*
X152381000Y-71709000D01*
X152341000Y-74191000D02*
X152341000Y-77688000D01*
X152341000Y-68212000D02*
X152341000Y-71709000D01*
X152301000Y-74191000D02*
X152301000Y-77704000D01*
X152301000Y-68196000D02*
X152301000Y-71709000D01*
X152261000Y-74191000D02*
X152261000Y-77718000D01*
X152261000Y-68182000D02*
X152261000Y-71709000D01*
X152221000Y-74191000D02*
X152221000Y-77733000D01*
X152221000Y-68167000D02*
X152221000Y-71709000D01*
X152181000Y-74191000D02*
X152181000Y-77747000D01*
X152181000Y-68153000D02*
X152181000Y-71709000D01*
X152141000Y-74191000D02*
X152141000Y-77761000D01*
X152141000Y-68139000D02*
X152141000Y-71709000D01*
X152101000Y-74191000D02*
X152101000Y-77774000D01*
X152101000Y-68126000D02*
X152101000Y-71709000D01*
X152061000Y-74191000D02*
X152061000Y-77787000D01*
X152061000Y-68113000D02*
X152061000Y-71709000D01*
X152021000Y-74191000D02*
X152021000Y-77800000D01*
X152021000Y-68100000D02*
X152021000Y-71709000D01*
X151981000Y-74191000D02*
X151981000Y-77812000D01*
X151981000Y-68088000D02*
X151981000Y-71709000D01*
X151941000Y-74191000D02*
X151941000Y-77824000D01*
X151941000Y-68076000D02*
X151941000Y-71709000D01*
X151901000Y-74191000D02*
X151901000Y-77835000D01*
X151901000Y-68065000D02*
X151901000Y-71709000D01*
X151861000Y-74191000D02*
X151861000Y-77847000D01*
X151861000Y-68053000D02*
X151861000Y-71709000D01*
X151821000Y-74191000D02*
X151821000Y-77857000D01*
X151821000Y-68043000D02*
X151821000Y-71709000D01*
X151781000Y-74191000D02*
X151781000Y-77868000D01*
X151781000Y-68032000D02*
X151781000Y-71709000D01*
X151741000Y-68022000D02*
X151741000Y-77878000D01*
X151701000Y-68012000D02*
X151701000Y-77888000D01*
X151661000Y-68003000D02*
X151661000Y-77897000D01*
X151621000Y-67994000D02*
X151621000Y-77906000D01*
X151581000Y-67985000D02*
X151581000Y-77915000D01*
X151541000Y-67976000D02*
X151541000Y-77924000D01*
X151501000Y-67968000D02*
X151501000Y-77932000D01*
X151461000Y-67960000D02*
X151461000Y-77940000D01*
X151421000Y-67953000D02*
X151421000Y-77947000D01*
X151381000Y-67946000D02*
X151381000Y-77954000D01*
X151341000Y-67939000D02*
X151341000Y-77961000D01*
X151301000Y-67932000D02*
X151301000Y-77968000D01*
X151261000Y-67926000D02*
X151261000Y-77974000D01*
X151221000Y-67920000D02*
X151221000Y-77980000D01*
X151180000Y-67915000D02*
X151180000Y-77985000D01*
X151140000Y-67910000D02*
X151140000Y-77990000D01*
X151100000Y-67905000D02*
X151100000Y-77995000D01*
X151060000Y-67900000D02*
X151060000Y-78000000D01*
X151020000Y-67896000D02*
X151020000Y-78004000D01*
X150980000Y-67892000D02*
X150980000Y-78008000D01*
X150940000Y-67888000D02*
X150940000Y-78012000D01*
X150900000Y-67885000D02*
X150900000Y-78015000D01*
X150860000Y-67882000D02*
X150860000Y-78018000D01*
X150820000Y-67880000D02*
X150820000Y-78020000D01*
X150780000Y-67877000D02*
X150780000Y-78023000D01*
X150740000Y-67875000D02*
X150740000Y-78025000D01*
X150700000Y-67873000D02*
X150700000Y-78027000D01*
X150660000Y-67872000D02*
X150660000Y-78028000D01*
X150620000Y-67871000D02*
X150620000Y-78029000D01*
X150580000Y-67870000D02*
X150580000Y-78030000D01*
X150540000Y-67870000D02*
X150540000Y-78030000D01*
X150500000Y-67870000D02*
X150500000Y-78030000D01*
X155620000Y-72950000D02*
G75*
G03*
X155620000Y-72950000I-5120000J0D01*
G01*
%TO.C,C3*%
X155620000Y-87050000D02*
G75*
G03*
X155620000Y-87050000I-5120000J0D01*
G01*
X150500000Y-81970000D02*
X150500000Y-92130000D01*
X150540000Y-81970000D02*
X150540000Y-92130000D01*
X150580000Y-81970000D02*
X150580000Y-92130000D01*
X150620000Y-81971000D02*
X150620000Y-92129000D01*
X150660000Y-81972000D02*
X150660000Y-92128000D01*
X150700000Y-81973000D02*
X150700000Y-92127000D01*
X150740000Y-81975000D02*
X150740000Y-92125000D01*
X150780000Y-81977000D02*
X150780000Y-92123000D01*
X150820000Y-81980000D02*
X150820000Y-92120000D01*
X150860000Y-81982000D02*
X150860000Y-92118000D01*
X150900000Y-81985000D02*
X150900000Y-92115000D01*
X150940000Y-81988000D02*
X150940000Y-92112000D01*
X150980000Y-81992000D02*
X150980000Y-92108000D01*
X151020000Y-81996000D02*
X151020000Y-92104000D01*
X151060000Y-82000000D02*
X151060000Y-92100000D01*
X151100000Y-82005000D02*
X151100000Y-92095000D01*
X151140000Y-82010000D02*
X151140000Y-92090000D01*
X151180000Y-82015000D02*
X151180000Y-92085000D01*
X151221000Y-82020000D02*
X151221000Y-92080000D01*
X151261000Y-82026000D02*
X151261000Y-92074000D01*
X151301000Y-82032000D02*
X151301000Y-92068000D01*
X151341000Y-82039000D02*
X151341000Y-92061000D01*
X151381000Y-82046000D02*
X151381000Y-92054000D01*
X151421000Y-82053000D02*
X151421000Y-92047000D01*
X151461000Y-82060000D02*
X151461000Y-92040000D01*
X151501000Y-82068000D02*
X151501000Y-92032000D01*
X151541000Y-82076000D02*
X151541000Y-92024000D01*
X151581000Y-82085000D02*
X151581000Y-92015000D01*
X151621000Y-82094000D02*
X151621000Y-92006000D01*
X151661000Y-82103000D02*
X151661000Y-91997000D01*
X151701000Y-82112000D02*
X151701000Y-91988000D01*
X151741000Y-82122000D02*
X151741000Y-91978000D01*
X151781000Y-82132000D02*
X151781000Y-85809000D01*
X151781000Y-88291000D02*
X151781000Y-91968000D01*
X151821000Y-82143000D02*
X151821000Y-85809000D01*
X151821000Y-88291000D02*
X151821000Y-91957000D01*
X151861000Y-82153000D02*
X151861000Y-85809000D01*
X151861000Y-88291000D02*
X151861000Y-91947000D01*
X151901000Y-82165000D02*
X151901000Y-85809000D01*
X151901000Y-88291000D02*
X151901000Y-91935000D01*
X151941000Y-82176000D02*
X151941000Y-85809000D01*
X151941000Y-88291000D02*
X151941000Y-91924000D01*
X151981000Y-82188000D02*
X151981000Y-85809000D01*
X151981000Y-88291000D02*
X151981000Y-91912000D01*
X152021000Y-82200000D02*
X152021000Y-85809000D01*
X152021000Y-88291000D02*
X152021000Y-91900000D01*
X152061000Y-82213000D02*
X152061000Y-85809000D01*
X152061000Y-88291000D02*
X152061000Y-91887000D01*
X152101000Y-82226000D02*
X152101000Y-85809000D01*
X152101000Y-88291000D02*
X152101000Y-91874000D01*
X152141000Y-82239000D02*
X152141000Y-85809000D01*
X152141000Y-88291000D02*
X152141000Y-91861000D01*
X152181000Y-82253000D02*
X152181000Y-85809000D01*
X152181000Y-88291000D02*
X152181000Y-91847000D01*
X152221000Y-82267000D02*
X152221000Y-85809000D01*
X152221000Y-88291000D02*
X152221000Y-91833000D01*
X152261000Y-82282000D02*
X152261000Y-85809000D01*
X152261000Y-88291000D02*
X152261000Y-91818000D01*
X152301000Y-82296000D02*
X152301000Y-85809000D01*
X152301000Y-88291000D02*
X152301000Y-91804000D01*
X152341000Y-82312000D02*
X152341000Y-85809000D01*
X152341000Y-88291000D02*
X152341000Y-91788000D01*
X152381000Y-82327000D02*
X152381000Y-85809000D01*
X152381000Y-88291000D02*
X152381000Y-91773000D01*
X152421000Y-82343000D02*
X152421000Y-85809000D01*
X152421000Y-88291000D02*
X152421000Y-91757000D01*
X152461000Y-82360000D02*
X152461000Y-85809000D01*
X152461000Y-88291000D02*
X152461000Y-91740000D01*
X152501000Y-82376000D02*
X152501000Y-85809000D01*
X152501000Y-88291000D02*
X152501000Y-91724000D01*
X152541000Y-82393000D02*
X152541000Y-85809000D01*
X152541000Y-88291000D02*
X152541000Y-91707000D01*
X152581000Y-82411000D02*
X152581000Y-85809000D01*
X152581000Y-88291000D02*
X152581000Y-91689000D01*
X152621000Y-82429000D02*
X152621000Y-85809000D01*
X152621000Y-88291000D02*
X152621000Y-91671000D01*
X152661000Y-82447000D02*
X152661000Y-85809000D01*
X152661000Y-88291000D02*
X152661000Y-91653000D01*
X152701000Y-82466000D02*
X152701000Y-85809000D01*
X152701000Y-88291000D02*
X152701000Y-91634000D01*
X152741000Y-82486000D02*
X152741000Y-85809000D01*
X152741000Y-88291000D02*
X152741000Y-91614000D01*
X152781000Y-82505000D02*
X152781000Y-85809000D01*
X152781000Y-88291000D02*
X152781000Y-91595000D01*
X152821000Y-82525000D02*
X152821000Y-85809000D01*
X152821000Y-88291000D02*
X152821000Y-91575000D01*
X152861000Y-82546000D02*
X152861000Y-85809000D01*
X152861000Y-88291000D02*
X152861000Y-91554000D01*
X152901000Y-82567000D02*
X152901000Y-85809000D01*
X152901000Y-88291000D02*
X152901000Y-91533000D01*
X152941000Y-82588000D02*
X152941000Y-85809000D01*
X152941000Y-88291000D02*
X152941000Y-91512000D01*
X152981000Y-82610000D02*
X152981000Y-85809000D01*
X152981000Y-88291000D02*
X152981000Y-91490000D01*
X153021000Y-82633000D02*
X153021000Y-85809000D01*
X153021000Y-88291000D02*
X153021000Y-91467000D01*
X153061000Y-82655000D02*
X153061000Y-85809000D01*
X153061000Y-88291000D02*
X153061000Y-91445000D01*
X153101000Y-82679000D02*
X153101000Y-85809000D01*
X153101000Y-88291000D02*
X153101000Y-91421000D01*
X153141000Y-82703000D02*
X153141000Y-85809000D01*
X153141000Y-88291000D02*
X153141000Y-91397000D01*
X153181000Y-82727000D02*
X153181000Y-85809000D01*
X153181000Y-88291000D02*
X153181000Y-91373000D01*
X153221000Y-82752000D02*
X153221000Y-85809000D01*
X153221000Y-88291000D02*
X153221000Y-91348000D01*
X153261000Y-82777000D02*
X153261000Y-85809000D01*
X153261000Y-88291000D02*
X153261000Y-91323000D01*
X153301000Y-82803000D02*
X153301000Y-85809000D01*
X153301000Y-88291000D02*
X153301000Y-91297000D01*
X153341000Y-82829000D02*
X153341000Y-85809000D01*
X153341000Y-88291000D02*
X153341000Y-91271000D01*
X153381000Y-82856000D02*
X153381000Y-85809000D01*
X153381000Y-88291000D02*
X153381000Y-91244000D01*
X153421000Y-82884000D02*
X153421000Y-85809000D01*
X153421000Y-88291000D02*
X153421000Y-91216000D01*
X153461000Y-82912000D02*
X153461000Y-85809000D01*
X153461000Y-88291000D02*
X153461000Y-91188000D01*
X153501000Y-82940000D02*
X153501000Y-85809000D01*
X153501000Y-88291000D02*
X153501000Y-91160000D01*
X153541000Y-82970000D02*
X153541000Y-85809000D01*
X153541000Y-88291000D02*
X153541000Y-91130000D01*
X153581000Y-83000000D02*
X153581000Y-85809000D01*
X153581000Y-88291000D02*
X153581000Y-91100000D01*
X153621000Y-83030000D02*
X153621000Y-85809000D01*
X153621000Y-88291000D02*
X153621000Y-91070000D01*
X153661000Y-83061000D02*
X153661000Y-85809000D01*
X153661000Y-88291000D02*
X153661000Y-91039000D01*
X153701000Y-83093000D02*
X153701000Y-85809000D01*
X153701000Y-88291000D02*
X153701000Y-91007000D01*
X153741000Y-83125000D02*
X153741000Y-85809000D01*
X153741000Y-88291000D02*
X153741000Y-90975000D01*
X153781000Y-83158000D02*
X153781000Y-85809000D01*
X153781000Y-88291000D02*
X153781000Y-90942000D01*
X153821000Y-83192000D02*
X153821000Y-85809000D01*
X153821000Y-88291000D02*
X153821000Y-90908000D01*
X153861000Y-83226000D02*
X153861000Y-85809000D01*
X153861000Y-88291000D02*
X153861000Y-90874000D01*
X153901000Y-83261000D02*
X153901000Y-85809000D01*
X153901000Y-88291000D02*
X153901000Y-90839000D01*
X153941000Y-83297000D02*
X153941000Y-85809000D01*
X153941000Y-88291000D02*
X153941000Y-90803000D01*
X153981000Y-83334000D02*
X153981000Y-85809000D01*
X153981000Y-88291000D02*
X153981000Y-90766000D01*
X154021000Y-83371000D02*
X154021000Y-85809000D01*
X154021000Y-88291000D02*
X154021000Y-90729000D01*
X154061000Y-83410000D02*
X154061000Y-85809000D01*
X154061000Y-88291000D02*
X154061000Y-90690000D01*
X154101000Y-83449000D02*
X154101000Y-85809000D01*
X154101000Y-88291000D02*
X154101000Y-90651000D01*
X154141000Y-83489000D02*
X154141000Y-85809000D01*
X154141000Y-88291000D02*
X154141000Y-90611000D01*
X154181000Y-83530000D02*
X154181000Y-85809000D01*
X154181000Y-88291000D02*
X154181000Y-90570000D01*
X154221000Y-83572000D02*
X154221000Y-85809000D01*
X154221000Y-88291000D02*
X154221000Y-90528000D01*
X154261000Y-83614000D02*
X154261000Y-90486000D01*
X154301000Y-83658000D02*
X154301000Y-90442000D01*
X154341000Y-83703000D02*
X154341000Y-90397000D01*
X154381000Y-83749000D02*
X154381000Y-90351000D01*
X154421000Y-83796000D02*
X154421000Y-90304000D01*
X154461000Y-83844000D02*
X154461000Y-90256000D01*
X154501000Y-83894000D02*
X154501000Y-90206000D01*
X154541000Y-83944000D02*
X154541000Y-90156000D01*
X154581000Y-83996000D02*
X154581000Y-90104000D01*
X154621000Y-84050000D02*
X154621000Y-90050000D01*
X154661000Y-84105000D02*
X154661000Y-89995000D01*
X154701000Y-84161000D02*
X154701000Y-89939000D01*
X154741000Y-84220000D02*
X154741000Y-89880000D01*
X154781000Y-84280000D02*
X154781000Y-89820000D01*
X154821000Y-84341000D02*
X154821000Y-89759000D01*
X154861000Y-84405000D02*
X154861000Y-89695000D01*
X154901000Y-84471000D02*
X154901000Y-89629000D01*
X154941000Y-84540000D02*
X154941000Y-89560000D01*
X154981000Y-84611000D02*
X154981000Y-89489000D01*
X155021000Y-84685000D02*
X155021000Y-89415000D01*
X155061000Y-84761000D02*
X155061000Y-89339000D01*
X155101000Y-84841000D02*
X155101000Y-89259000D01*
X155141000Y-84925000D02*
X155141000Y-89175000D01*
X155181000Y-85013000D02*
X155181000Y-89087000D01*
X155221000Y-85106000D02*
X155221000Y-88994000D01*
X155261000Y-85204000D02*
X155261000Y-88896000D01*
X155301000Y-85308000D02*
X155301000Y-88792000D01*
X155341000Y-85420000D02*
X155341000Y-88680000D01*
X155381000Y-85540000D02*
X155381000Y-88560000D01*
X155421000Y-85672000D02*
X155421000Y-88428000D01*
X155461000Y-85820000D02*
X155461000Y-88280000D01*
X155501000Y-85988000D02*
X155501000Y-88112000D01*
X155541000Y-86188000D02*
X155541000Y-87912000D01*
X155581000Y-86451000D02*
X155581000Y-87649000D01*
X145020354Y-84175000D02*
X146020354Y-84175000D01*
X145520354Y-83675000D02*
X145520354Y-84675000D01*
%TO.C,C4*%
X155620000Y-101150000D02*
G75*
G03*
X155620000Y-101150000I-5120000J0D01*
G01*
X150500000Y-96070000D02*
X150500000Y-106230000D01*
X150540000Y-96070000D02*
X150540000Y-106230000D01*
X150580000Y-96070000D02*
X150580000Y-106230000D01*
X150620000Y-96071000D02*
X150620000Y-106229000D01*
X150660000Y-96072000D02*
X150660000Y-106228000D01*
X150700000Y-96073000D02*
X150700000Y-106227000D01*
X150740000Y-96075000D02*
X150740000Y-106225000D01*
X150780000Y-96077000D02*
X150780000Y-106223000D01*
X150820000Y-96080000D02*
X150820000Y-106220000D01*
X150860000Y-96082000D02*
X150860000Y-106218000D01*
X150900000Y-96085000D02*
X150900000Y-106215000D01*
X150940000Y-96088000D02*
X150940000Y-106212000D01*
X150980000Y-96092000D02*
X150980000Y-106208000D01*
X151020000Y-96096000D02*
X151020000Y-106204000D01*
X151060000Y-96100000D02*
X151060000Y-106200000D01*
X151100000Y-96105000D02*
X151100000Y-106195000D01*
X151140000Y-96110000D02*
X151140000Y-106190000D01*
X151180000Y-96115000D02*
X151180000Y-106185000D01*
X151221000Y-96120000D02*
X151221000Y-106180000D01*
X151261000Y-96126000D02*
X151261000Y-106174000D01*
X151301000Y-96132000D02*
X151301000Y-106168000D01*
X151341000Y-96139000D02*
X151341000Y-106161000D01*
X151381000Y-96146000D02*
X151381000Y-106154000D01*
X151421000Y-96153000D02*
X151421000Y-106147000D01*
X151461000Y-96160000D02*
X151461000Y-106140000D01*
X151501000Y-96168000D02*
X151501000Y-106132000D01*
X151541000Y-96176000D02*
X151541000Y-106124000D01*
X151581000Y-96185000D02*
X151581000Y-106115000D01*
X151621000Y-96194000D02*
X151621000Y-106106000D01*
X151661000Y-96203000D02*
X151661000Y-106097000D01*
X151701000Y-96212000D02*
X151701000Y-106088000D01*
X151741000Y-96222000D02*
X151741000Y-106078000D01*
X151781000Y-96232000D02*
X151781000Y-99909000D01*
X151781000Y-102391000D02*
X151781000Y-106068000D01*
X151821000Y-96243000D02*
X151821000Y-99909000D01*
X151821000Y-102391000D02*
X151821000Y-106057000D01*
X151861000Y-96253000D02*
X151861000Y-99909000D01*
X151861000Y-102391000D02*
X151861000Y-106047000D01*
X151901000Y-96265000D02*
X151901000Y-99909000D01*
X151901000Y-102391000D02*
X151901000Y-106035000D01*
X151941000Y-96276000D02*
X151941000Y-99909000D01*
X151941000Y-102391000D02*
X151941000Y-106024000D01*
X151981000Y-96288000D02*
X151981000Y-99909000D01*
X151981000Y-102391000D02*
X151981000Y-106012000D01*
X152021000Y-96300000D02*
X152021000Y-99909000D01*
X152021000Y-102391000D02*
X152021000Y-106000000D01*
X152061000Y-96313000D02*
X152061000Y-99909000D01*
X152061000Y-102391000D02*
X152061000Y-105987000D01*
X152101000Y-96326000D02*
X152101000Y-99909000D01*
X152101000Y-102391000D02*
X152101000Y-105974000D01*
X152141000Y-96339000D02*
X152141000Y-99909000D01*
X152141000Y-102391000D02*
X152141000Y-105961000D01*
X152181000Y-96353000D02*
X152181000Y-99909000D01*
X152181000Y-102391000D02*
X152181000Y-105947000D01*
X152221000Y-96367000D02*
X152221000Y-99909000D01*
X152221000Y-102391000D02*
X152221000Y-105933000D01*
X152261000Y-96382000D02*
X152261000Y-99909000D01*
X152261000Y-102391000D02*
X152261000Y-105918000D01*
X152301000Y-96396000D02*
X152301000Y-99909000D01*
X152301000Y-102391000D02*
X152301000Y-105904000D01*
X152341000Y-96412000D02*
X152341000Y-99909000D01*
X152341000Y-102391000D02*
X152341000Y-105888000D01*
X152381000Y-96427000D02*
X152381000Y-99909000D01*
X152381000Y-102391000D02*
X152381000Y-105873000D01*
X152421000Y-96443000D02*
X152421000Y-99909000D01*
X152421000Y-102391000D02*
X152421000Y-105857000D01*
X152461000Y-96460000D02*
X152461000Y-99909000D01*
X152461000Y-102391000D02*
X152461000Y-105840000D01*
X152501000Y-96476000D02*
X152501000Y-99909000D01*
X152501000Y-102391000D02*
X152501000Y-105824000D01*
X152541000Y-96493000D02*
X152541000Y-99909000D01*
X152541000Y-102391000D02*
X152541000Y-105807000D01*
X152581000Y-96511000D02*
X152581000Y-99909000D01*
X152581000Y-102391000D02*
X152581000Y-105789000D01*
X152621000Y-96529000D02*
X152621000Y-99909000D01*
X152621000Y-102391000D02*
X152621000Y-105771000D01*
X152661000Y-96547000D02*
X152661000Y-99909000D01*
X152661000Y-102391000D02*
X152661000Y-105753000D01*
X152701000Y-96566000D02*
X152701000Y-99909000D01*
X152701000Y-102391000D02*
X152701000Y-105734000D01*
X152741000Y-96586000D02*
X152741000Y-99909000D01*
X152741000Y-102391000D02*
X152741000Y-105714000D01*
X152781000Y-96605000D02*
X152781000Y-99909000D01*
X152781000Y-102391000D02*
X152781000Y-105695000D01*
X152821000Y-96625000D02*
X152821000Y-99909000D01*
X152821000Y-102391000D02*
X152821000Y-105675000D01*
X152861000Y-96646000D02*
X152861000Y-99909000D01*
X152861000Y-102391000D02*
X152861000Y-105654000D01*
X152901000Y-96667000D02*
X152901000Y-99909000D01*
X152901000Y-102391000D02*
X152901000Y-105633000D01*
X152941000Y-96688000D02*
X152941000Y-99909000D01*
X152941000Y-102391000D02*
X152941000Y-105612000D01*
X152981000Y-96710000D02*
X152981000Y-99909000D01*
X152981000Y-102391000D02*
X152981000Y-105590000D01*
X153021000Y-96733000D02*
X153021000Y-99909000D01*
X153021000Y-102391000D02*
X153021000Y-105567000D01*
X153061000Y-96755000D02*
X153061000Y-99909000D01*
X153061000Y-102391000D02*
X153061000Y-105545000D01*
X153101000Y-96779000D02*
X153101000Y-99909000D01*
X153101000Y-102391000D02*
X153101000Y-105521000D01*
X153141000Y-96803000D02*
X153141000Y-99909000D01*
X153141000Y-102391000D02*
X153141000Y-105497000D01*
X153181000Y-96827000D02*
X153181000Y-99909000D01*
X153181000Y-102391000D02*
X153181000Y-105473000D01*
X153221000Y-96852000D02*
X153221000Y-99909000D01*
X153221000Y-102391000D02*
X153221000Y-105448000D01*
X153261000Y-96877000D02*
X153261000Y-99909000D01*
X153261000Y-102391000D02*
X153261000Y-105423000D01*
X153301000Y-96903000D02*
X153301000Y-99909000D01*
X153301000Y-102391000D02*
X153301000Y-105397000D01*
X153341000Y-96929000D02*
X153341000Y-99909000D01*
X153341000Y-102391000D02*
X153341000Y-105371000D01*
X153381000Y-96956000D02*
X153381000Y-99909000D01*
X153381000Y-102391000D02*
X153381000Y-105344000D01*
X153421000Y-96984000D02*
X153421000Y-99909000D01*
X153421000Y-102391000D02*
X153421000Y-105316000D01*
X153461000Y-97012000D02*
X153461000Y-99909000D01*
X153461000Y-102391000D02*
X153461000Y-105288000D01*
X153501000Y-97040000D02*
X153501000Y-99909000D01*
X153501000Y-102391000D02*
X153501000Y-105260000D01*
X153541000Y-97070000D02*
X153541000Y-99909000D01*
X153541000Y-102391000D02*
X153541000Y-105230000D01*
X153581000Y-97100000D02*
X153581000Y-99909000D01*
X153581000Y-102391000D02*
X153581000Y-105200000D01*
X153621000Y-97130000D02*
X153621000Y-99909000D01*
X153621000Y-102391000D02*
X153621000Y-105170000D01*
X153661000Y-97161000D02*
X153661000Y-99909000D01*
X153661000Y-102391000D02*
X153661000Y-105139000D01*
X153701000Y-97193000D02*
X153701000Y-99909000D01*
X153701000Y-102391000D02*
X153701000Y-105107000D01*
X153741000Y-97225000D02*
X153741000Y-99909000D01*
X153741000Y-102391000D02*
X153741000Y-105075000D01*
X153781000Y-97258000D02*
X153781000Y-99909000D01*
X153781000Y-102391000D02*
X153781000Y-105042000D01*
X153821000Y-97292000D02*
X153821000Y-99909000D01*
X153821000Y-102391000D02*
X153821000Y-105008000D01*
X153861000Y-97326000D02*
X153861000Y-99909000D01*
X153861000Y-102391000D02*
X153861000Y-104974000D01*
X153901000Y-97361000D02*
X153901000Y-99909000D01*
X153901000Y-102391000D02*
X153901000Y-104939000D01*
X153941000Y-97397000D02*
X153941000Y-99909000D01*
X153941000Y-102391000D02*
X153941000Y-104903000D01*
X153981000Y-97434000D02*
X153981000Y-99909000D01*
X153981000Y-102391000D02*
X153981000Y-104866000D01*
X154021000Y-97471000D02*
X154021000Y-99909000D01*
X154021000Y-102391000D02*
X154021000Y-104829000D01*
X154061000Y-97510000D02*
X154061000Y-99909000D01*
X154061000Y-102391000D02*
X154061000Y-104790000D01*
X154101000Y-97549000D02*
X154101000Y-99909000D01*
X154101000Y-102391000D02*
X154101000Y-104751000D01*
X154141000Y-97589000D02*
X154141000Y-99909000D01*
X154141000Y-102391000D02*
X154141000Y-104711000D01*
X154181000Y-97630000D02*
X154181000Y-99909000D01*
X154181000Y-102391000D02*
X154181000Y-104670000D01*
X154221000Y-97672000D02*
X154221000Y-99909000D01*
X154221000Y-102391000D02*
X154221000Y-104628000D01*
X154261000Y-97714000D02*
X154261000Y-104586000D01*
X154301000Y-97758000D02*
X154301000Y-104542000D01*
X154341000Y-97803000D02*
X154341000Y-104497000D01*
X154381000Y-97849000D02*
X154381000Y-104451000D01*
X154421000Y-97896000D02*
X154421000Y-104404000D01*
X154461000Y-97944000D02*
X154461000Y-104356000D01*
X154501000Y-97994000D02*
X154501000Y-104306000D01*
X154541000Y-98044000D02*
X154541000Y-104256000D01*
X154581000Y-98096000D02*
X154581000Y-104204000D01*
X154621000Y-98150000D02*
X154621000Y-104150000D01*
X154661000Y-98205000D02*
X154661000Y-104095000D01*
X154701000Y-98261000D02*
X154701000Y-104039000D01*
X154741000Y-98320000D02*
X154741000Y-103980000D01*
X154781000Y-98380000D02*
X154781000Y-103920000D01*
X154821000Y-98441000D02*
X154821000Y-103859000D01*
X154861000Y-98505000D02*
X154861000Y-103795000D01*
X154901000Y-98571000D02*
X154901000Y-103729000D01*
X154941000Y-98640000D02*
X154941000Y-103660000D01*
X154981000Y-98711000D02*
X154981000Y-103589000D01*
X155021000Y-98785000D02*
X155021000Y-103515000D01*
X155061000Y-98861000D02*
X155061000Y-103439000D01*
X155101000Y-98941000D02*
X155101000Y-103359000D01*
X155141000Y-99025000D02*
X155141000Y-103275000D01*
X155181000Y-99113000D02*
X155181000Y-103187000D01*
X155221000Y-99206000D02*
X155221000Y-103094000D01*
X155261000Y-99304000D02*
X155261000Y-102996000D01*
X155301000Y-99408000D02*
X155301000Y-102892000D01*
X155341000Y-99520000D02*
X155341000Y-102780000D01*
X155381000Y-99640000D02*
X155381000Y-102660000D01*
X155421000Y-99772000D02*
X155421000Y-102528000D01*
X155461000Y-99920000D02*
X155461000Y-102380000D01*
X155501000Y-100088000D02*
X155501000Y-102212000D01*
X155541000Y-100288000D02*
X155541000Y-102012000D01*
X155581000Y-100551000D02*
X155581000Y-101749000D01*
X145020354Y-98275000D02*
X146020354Y-98275000D01*
X145520354Y-97775000D02*
X145520354Y-98775000D01*
%TO.C,C5*%
X126580000Y-85121000D02*
X126580000Y-86379000D01*
X128420000Y-85121000D02*
X128420000Y-86379000D01*
%TO.C,C6*%
X126580000Y-93879000D02*
X126580000Y-92621000D01*
X128420000Y-93879000D02*
X128420000Y-92621000D01*
%TO.C,D1*%
X106390000Y-93870000D02*
X106390000Y-90930000D01*
X106390000Y-90930000D02*
X100950000Y-90930000D01*
X100950000Y-90930000D02*
X100950000Y-93870000D01*
X100950000Y-93870000D02*
X106390000Y-93870000D01*
X107410000Y-92400000D02*
X106390000Y-92400000D01*
X99930000Y-92400000D02*
X100950000Y-92400000D01*
X105490000Y-93870000D02*
X105490000Y-90930000D01*
X105370000Y-93870000D02*
X105370000Y-90930000D01*
X105610000Y-93870000D02*
X105610000Y-90930000D01*
%TO.C,D2*%
X105610000Y-83910000D02*
X105610000Y-80970000D01*
X105370000Y-83910000D02*
X105370000Y-80970000D01*
X105490000Y-83910000D02*
X105490000Y-80970000D01*
X99930000Y-82440000D02*
X100950000Y-82440000D01*
X107410000Y-82440000D02*
X106390000Y-82440000D01*
X100950000Y-83910000D02*
X106390000Y-83910000D01*
X100950000Y-80970000D02*
X100950000Y-83910000D01*
X106390000Y-80970000D02*
X100950000Y-80970000D01*
X106390000Y-83910000D02*
X106390000Y-80970000D01*
%TO.C,D3*%
X106390000Y-73950000D02*
X106390000Y-71010000D01*
X106390000Y-71010000D02*
X100950000Y-71010000D01*
X100950000Y-71010000D02*
X100950000Y-73950000D01*
X100950000Y-73950000D02*
X106390000Y-73950000D01*
X107410000Y-72480000D02*
X106390000Y-72480000D01*
X99930000Y-72480000D02*
X100950000Y-72480000D01*
X105490000Y-73950000D02*
X105490000Y-71010000D01*
X105370000Y-73950000D02*
X105370000Y-71010000D01*
X105610000Y-73950000D02*
X105610000Y-71010000D01*
%TO.C,D4*%
X105610000Y-63990000D02*
X105610000Y-61050000D01*
X105370000Y-63990000D02*
X105370000Y-61050000D01*
X105490000Y-63990000D02*
X105490000Y-61050000D01*
X99930000Y-62520000D02*
X100950000Y-62520000D01*
X107410000Y-62520000D02*
X106390000Y-62520000D01*
X100950000Y-63990000D02*
X106390000Y-63990000D01*
X100950000Y-61050000D02*
X100950000Y-63990000D01*
X106390000Y-61050000D02*
X100950000Y-61050000D01*
X106390000Y-63990000D02*
X106390000Y-61050000D01*
%TO.C,D5*%
X119894999Y-93870000D02*
X119894999Y-90930000D01*
X119654999Y-93870000D02*
X119654999Y-90930000D01*
X119774999Y-93870000D02*
X119774999Y-90930000D01*
X114214999Y-92400000D02*
X115234999Y-92400000D01*
X121694999Y-92400000D02*
X120674999Y-92400000D01*
X115234999Y-93870000D02*
X120674999Y-93870000D01*
X115234999Y-90930000D02*
X115234999Y-93870000D01*
X120674999Y-90930000D02*
X115234999Y-90930000D01*
X120674999Y-93870000D02*
X120674999Y-90930000D01*
%TO.C,D6*%
X119894999Y-83910000D02*
X119894999Y-80970000D01*
X119654999Y-83910000D02*
X119654999Y-80970000D01*
X119774999Y-83910000D02*
X119774999Y-80970000D01*
X114214999Y-82440000D02*
X115234999Y-82440000D01*
X121694999Y-82440000D02*
X120674999Y-82440000D01*
X115234999Y-83910000D02*
X120674999Y-83910000D01*
X115234999Y-80970000D02*
X115234999Y-83910000D01*
X120674999Y-80970000D02*
X115234999Y-80970000D01*
X120674999Y-83910000D02*
X120674999Y-80970000D01*
%TO.C,D7*%
X120674999Y-73950000D02*
X120674999Y-71010000D01*
X120674999Y-71010000D02*
X115234999Y-71010000D01*
X115234999Y-71010000D02*
X115234999Y-73950000D01*
X115234999Y-73950000D02*
X120674999Y-73950000D01*
X121694999Y-72480000D02*
X120674999Y-72480000D01*
X114214999Y-72480000D02*
X115234999Y-72480000D01*
X119774999Y-73950000D02*
X119774999Y-71010000D01*
X119654999Y-73950000D02*
X119654999Y-71010000D01*
X119894999Y-73950000D02*
X119894999Y-71010000D01*
%TO.C,D8*%
X120674999Y-63990000D02*
X120674999Y-61050000D01*
X120674999Y-61050000D02*
X115234999Y-61050000D01*
X115234999Y-61050000D02*
X115234999Y-63990000D01*
X115234999Y-63990000D02*
X120674999Y-63990000D01*
X121694999Y-62520000D02*
X120674999Y-62520000D01*
X114214999Y-62520000D02*
X115234999Y-62520000D01*
X119774999Y-63990000D02*
X119774999Y-61050000D01*
X119654999Y-63990000D02*
X119654999Y-61050000D01*
X119894999Y-63990000D02*
X119894999Y-61050000D01*
%TO.C,D9*%
X141470000Y-86780000D02*
X138530000Y-86780000D01*
X138530000Y-86780000D02*
X138530000Y-92220000D01*
X138530000Y-92220000D02*
X141470000Y-92220000D01*
X141470000Y-92220000D02*
X141470000Y-86780000D01*
X140000000Y-85760000D02*
X140000000Y-86780000D01*
X140000000Y-93240000D02*
X140000000Y-92220000D01*
X141470000Y-87680000D02*
X138530000Y-87680000D01*
X141470000Y-87800000D02*
X138530000Y-87800000D01*
X141470000Y-87560000D02*
X138530000Y-87560000D01*
%TO.C,D10*%
X109340000Y-53090000D02*
X109340000Y-52490000D01*
X107740000Y-53090000D02*
X109340000Y-53090000D01*
X107740000Y-52490000D02*
X107740000Y-53090000D01*
X106800000Y-53090000D02*
X106800000Y-52490000D01*
X105200000Y-53090000D02*
X106800000Y-53090000D01*
X105200000Y-52490000D02*
X105200000Y-53090000D01*
X108290000Y-58510000D02*
X108290000Y-57510000D01*
X106250000Y-58510000D02*
X106250000Y-57510000D01*
X108290000Y-56980000D02*
X108540000Y-57510000D01*
X106250000Y-56980000D02*
X108290000Y-56980000D01*
X106000000Y-57510000D02*
X106250000Y-56980000D01*
X108540000Y-57510000D02*
X108540000Y-58510000D01*
X106000000Y-57510000D02*
X108540000Y-57510000D01*
X106000000Y-58510000D02*
X106000000Y-57510000D01*
X104330000Y-53520000D02*
X104330000Y-57520000D01*
X109920000Y-52490000D02*
X104620000Y-52490000D01*
X109920000Y-58510000D02*
X109920000Y-52490000D01*
X104620000Y-58510000D02*
X109920000Y-58510000D01*
X104620000Y-52490000D02*
X104620000Y-58510000D01*
%TO.C,D11*%
X137940000Y-62970000D02*
X137940000Y-60030000D01*
X137700000Y-62970000D02*
X137700000Y-60030000D01*
X137820000Y-62970000D02*
X137820000Y-60030000D01*
X132260000Y-61500000D02*
X133280000Y-61500000D01*
X139740000Y-61500000D02*
X138720000Y-61500000D01*
X133280000Y-62970000D02*
X138720000Y-62970000D01*
X133280000Y-60030000D02*
X133280000Y-62970000D01*
X138720000Y-60030000D02*
X133280000Y-60030000D01*
X138720000Y-62970000D02*
X138720000Y-60030000D01*
%TO.C,F1*%
X157350000Y-63333333D02*
X160150000Y-63333333D01*
X157350000Y-63333333D02*
X157350000Y-85933333D01*
X166950000Y-63333333D02*
X166950000Y-85933333D01*
X164150000Y-63333333D02*
X166950000Y-63333333D01*
X164150000Y-85933333D02*
X166950000Y-85933333D01*
X157350000Y-85933333D02*
X160150000Y-85933333D01*
%TO.C,J1*%
X83100000Y-90790000D02*
X83100000Y-92290000D01*
X84840000Y-90790000D02*
X83100000Y-90790000D01*
X90460000Y-98850000D02*
X83340000Y-98850000D01*
X90460000Y-91030000D02*
X83340000Y-91030000D01*
X83340000Y-91030000D02*
X83340000Y-98850000D01*
X90460000Y-91030000D02*
X90460000Y-98850000D01*
X84900000Y-91030000D02*
X84900000Y-98850000D01*
X88555000Y-96690000D02*
G75*
G03*
X88555000Y-96690000I-1555000J0D01*
G01*
X85568615Y-93797587D02*
G75*
G02*
X85445000Y-93190000I1431385J607587D01*
G01*
X87607742Y-94622109D02*
G75*
G02*
X86392000Y-94622000I-607742J1432109D01*
G01*
X88432109Y-92582258D02*
G75*
G02*
X88432000Y-93798000I-1432109J-607742D01*
G01*
X86392258Y-91757891D02*
G75*
G02*
X87608000Y-91758000I607742J-1432109D01*
G01*
X85444508Y-93217011D02*
G75*
G02*
X85568000Y-92582000I1555492J27011D01*
G01*
%TO.C,J2*%
X88555000Y-86730000D02*
G75*
G03*
X88555000Y-86730000I-1555000J0D01*
G01*
X84900000Y-81070000D02*
X84900000Y-88890000D01*
X90460000Y-81070000D02*
X90460000Y-88890000D01*
X83340000Y-81070000D02*
X83340000Y-88890000D01*
X90460000Y-81070000D02*
X83340000Y-81070000D01*
X90460000Y-88890000D02*
X83340000Y-88890000D01*
X84840000Y-80830000D02*
X83100000Y-80830000D01*
X83100000Y-80830000D02*
X83100000Y-82330000D01*
X85444508Y-83257011D02*
G75*
G02*
X85568000Y-82622000I1555492J27011D01*
G01*
X86392258Y-81797891D02*
G75*
G02*
X87608000Y-81798000I607742J-1432109D01*
G01*
X88432109Y-82622258D02*
G75*
G02*
X88432000Y-83838000I-1432109J-607742D01*
G01*
X87607742Y-84662109D02*
G75*
G02*
X86392000Y-84662000I-607742J1432109D01*
G01*
X85568615Y-83837587D02*
G75*
G02*
X85445000Y-83230000I1431385J607587D01*
G01*
%TO.C,J3*%
X88555000Y-76770000D02*
G75*
G03*
X88555000Y-76770000I-1555000J0D01*
G01*
X84900000Y-71110000D02*
X84900000Y-78930000D01*
X90460000Y-71110000D02*
X90460000Y-78930000D01*
X83340000Y-71110000D02*
X83340000Y-78930000D01*
X90460000Y-71110000D02*
X83340000Y-71110000D01*
X90460000Y-78930000D02*
X83340000Y-78930000D01*
X84840000Y-70870000D02*
X83100000Y-70870000D01*
X83100000Y-70870000D02*
X83100000Y-72370000D01*
X85444508Y-73297011D02*
G75*
G02*
X85568000Y-72662000I1555492J27011D01*
G01*
X86392258Y-71837891D02*
G75*
G02*
X87608000Y-71838000I607742J-1432109D01*
G01*
X88432109Y-72662258D02*
G75*
G02*
X88432000Y-73878000I-1432109J-607742D01*
G01*
X87607742Y-74702109D02*
G75*
G02*
X86392000Y-74702000I-607742J1432109D01*
G01*
X85568615Y-73877587D02*
G75*
G02*
X85445000Y-73270000I1431385J607587D01*
G01*
%TO.C,J4*%
X83100000Y-60910000D02*
X83100000Y-62410000D01*
X84840000Y-60910000D02*
X83100000Y-60910000D01*
X90460000Y-68970000D02*
X83340000Y-68970000D01*
X90460000Y-61150000D02*
X83340000Y-61150000D01*
X83340000Y-61150000D02*
X83340000Y-68970000D01*
X90460000Y-61150000D02*
X90460000Y-68970000D01*
X84900000Y-61150000D02*
X84900000Y-68970000D01*
X88555000Y-66810000D02*
G75*
G03*
X88555000Y-66810000I-1555000J0D01*
G01*
X85568615Y-63917587D02*
G75*
G02*
X85445000Y-63310000I1431385J607587D01*
G01*
X87607742Y-64742109D02*
G75*
G02*
X86392000Y-64742000I-607742J1432109D01*
G01*
X88432109Y-62702258D02*
G75*
G02*
X88432000Y-63918000I-1432109J-607742D01*
G01*
X86392258Y-61877891D02*
G75*
G02*
X87608000Y-61878000I607742J-1432109D01*
G01*
X85444508Y-63337011D02*
G75*
G02*
X85568000Y-62702000I1555492J27011D01*
G01*
%TO.C,J5*%
X166900000Y-98316666D02*
X166900000Y-96816666D01*
X165160000Y-98316666D02*
X166900000Y-98316666D01*
X159540000Y-90256666D02*
X166660000Y-90256666D01*
X159540000Y-98076666D02*
X166660000Y-98076666D01*
X166660000Y-98076666D02*
X166660000Y-90256666D01*
X159540000Y-98076666D02*
X159540000Y-90256666D01*
X165100000Y-98076666D02*
X165100000Y-90256666D01*
X164555000Y-92416666D02*
G75*
G03*
X164555000Y-92416666I-1555000J0D01*
G01*
X164431385Y-95309079D02*
G75*
G02*
X164555000Y-95916666I-1431385J-607587D01*
G01*
X162392258Y-94484557D02*
G75*
G02*
X163608000Y-94484666I607742J-1432109D01*
G01*
X161567891Y-96524408D02*
G75*
G02*
X161568000Y-95308666I1432109J607742D01*
G01*
X163607742Y-97348775D02*
G75*
G02*
X162392000Y-97348666I-607742J1432109D01*
G01*
X164555492Y-95889655D02*
G75*
G02*
X164432000Y-96524666I-1555492J-27011D01*
G01*
%TO.C,JP1*%
X94830000Y-106605000D02*
X93500000Y-106605000D01*
X94830000Y-105275000D02*
X94830000Y-106605000D01*
X94830000Y-104005000D02*
X92170000Y-104005000D01*
X92170000Y-104005000D02*
X92170000Y-101405000D01*
X94830000Y-104005000D02*
X94830000Y-101405000D01*
X94830000Y-101405000D02*
X92170000Y-101405000D01*
%TO.C,JP2*%
X99330000Y-101405000D02*
X96670000Y-101405000D01*
X99330000Y-104005000D02*
X99330000Y-101405000D01*
X96670000Y-104005000D02*
X96670000Y-101405000D01*
X99330000Y-104005000D02*
X96670000Y-104005000D01*
X99330000Y-105275000D02*
X99330000Y-106605000D01*
X99330000Y-106605000D02*
X98000000Y-106605000D01*
%TO.C,JP3*%
X104080000Y-106605000D02*
X102750000Y-106605000D01*
X104080000Y-105275000D02*
X104080000Y-106605000D01*
X104080000Y-104005000D02*
X101420000Y-104005000D01*
X101420000Y-104005000D02*
X101420000Y-101405000D01*
X104080000Y-104005000D02*
X104080000Y-101405000D01*
X104080000Y-101405000D02*
X101420000Y-101405000D01*
%TO.C,JP4*%
X108580000Y-101405000D02*
X105920000Y-101405000D01*
X108580000Y-104005000D02*
X108580000Y-101405000D01*
X105920000Y-104005000D02*
X105920000Y-101405000D01*
X108580000Y-104005000D02*
X105920000Y-104005000D01*
X108580000Y-105275000D02*
X108580000Y-106605000D01*
X108580000Y-106605000D02*
X107250000Y-106605000D01*
%TO.C,JP5*%
X111994999Y-107330000D02*
X111994999Y-106000000D01*
X113324999Y-107330000D02*
X111994999Y-107330000D01*
X114594999Y-107330000D02*
X114594999Y-104670000D01*
X114594999Y-104670000D02*
X117194999Y-104670000D01*
X114594999Y-107330000D02*
X117194999Y-107330000D01*
X117194999Y-107330000D02*
X117194999Y-104670000D01*
%TO.C,Q1*%
X91880000Y-99060000D02*
X91880000Y-90820000D01*
X95370000Y-99060000D02*
X95370000Y-90820000D01*
X91880000Y-99060000D02*
X95370000Y-99060000D01*
X91880000Y-90820000D02*
X95370000Y-90820000D01*
X91880000Y-96540000D02*
X92950000Y-96540000D01*
X95050000Y-96540000D02*
X95370000Y-96540000D01*
X91880000Y-93339000D02*
X93460000Y-93339000D01*
X94540000Y-93339000D02*
X95370000Y-93339000D01*
%TO.C,Q2*%
X94540000Y-83379000D02*
X95370000Y-83379000D01*
X91880000Y-83379000D02*
X93460000Y-83379000D01*
X95050000Y-86580000D02*
X95370000Y-86580000D01*
X91880000Y-86580000D02*
X92950000Y-86580000D01*
X91880000Y-80860000D02*
X95370000Y-80860000D01*
X91880000Y-89100000D02*
X95370000Y-89100000D01*
X95370000Y-89100000D02*
X95370000Y-80860000D01*
X91880000Y-89100000D02*
X91880000Y-80860000D01*
%TO.C,Q3*%
X91880000Y-79140000D02*
X91880000Y-70900000D01*
X95370000Y-79140000D02*
X95370000Y-70900000D01*
X91880000Y-79140000D02*
X95370000Y-79140000D01*
X91880000Y-70900000D02*
X95370000Y-70900000D01*
X91880000Y-76620000D02*
X92950000Y-76620000D01*
X95050000Y-76620000D02*
X95370000Y-76620000D01*
X91880000Y-73419000D02*
X93460000Y-73419000D01*
X94540000Y-73419000D02*
X95370000Y-73419000D01*
%TO.C,Q4*%
X94540000Y-63459000D02*
X95370000Y-63459000D01*
X91880000Y-63459000D02*
X93460000Y-63459000D01*
X95050000Y-66660000D02*
X95370000Y-66660000D01*
X91880000Y-66660000D02*
X92950000Y-66660000D01*
X91880000Y-60940000D02*
X95370000Y-60940000D01*
X91880000Y-69180000D02*
X95370000Y-69180000D01*
X95370000Y-69180000D02*
X95370000Y-60940000D01*
X91880000Y-69180000D02*
X91880000Y-60940000D01*
%TO.C,Q5*%
X137851000Y-53230000D02*
X137851000Y-54740000D01*
X134150000Y-53230000D02*
X134150000Y-54740000D01*
X130880000Y-54740000D02*
X141120000Y-54740000D01*
X141120000Y-53230000D02*
X141120000Y-57871000D01*
X130880000Y-53230000D02*
X130880000Y-57871000D01*
X130880000Y-57871000D02*
X141120000Y-57871000D01*
X130880000Y-53230000D02*
X141120000Y-53230000D01*
%TO.C,R2*%
X123190000Y-98850000D02*
X123190000Y-96110000D01*
X123190000Y-96110000D02*
X116650000Y-96110000D01*
X116650000Y-96110000D02*
X116650000Y-98850000D01*
X116650000Y-98850000D02*
X123190000Y-98850000D01*
X123960000Y-97480000D02*
X123190000Y-97480000D01*
X115880000Y-97480000D02*
X116650000Y-97480000D01*
%TO.C,R3*%
X113614999Y-87520000D02*
X114384999Y-87520000D01*
X121694999Y-87520000D02*
X120924999Y-87520000D01*
X114384999Y-88890000D02*
X120924999Y-88890000D01*
X114384999Y-86150000D02*
X114384999Y-88890000D01*
X120924999Y-86150000D02*
X114384999Y-86150000D01*
X120924999Y-88890000D02*
X120924999Y-86150000D01*
%TO.C,R4*%
X113614999Y-77560000D02*
X114384999Y-77560000D01*
X121694999Y-77560000D02*
X120924999Y-77560000D01*
X114384999Y-78930000D02*
X120924999Y-78930000D01*
X114384999Y-76190000D02*
X114384999Y-78930000D01*
X120924999Y-76190000D02*
X114384999Y-76190000D01*
X120924999Y-78930000D02*
X120924999Y-76190000D01*
%TO.C,R5*%
X113614999Y-67600000D02*
X114384999Y-67600000D01*
X121694999Y-67600000D02*
X120924999Y-67600000D01*
X114384999Y-68970000D02*
X120924999Y-68970000D01*
X114384999Y-66230000D02*
X114384999Y-68970000D01*
X120924999Y-66230000D02*
X114384999Y-66230000D01*
X120924999Y-68970000D02*
X120924999Y-66230000D01*
%TO.C,R7*%
X106640000Y-88890000D02*
X106640000Y-86150000D01*
X106640000Y-86150000D02*
X100100000Y-86150000D01*
X100100000Y-86150000D02*
X100100000Y-88890000D01*
X100100000Y-88890000D02*
X106640000Y-88890000D01*
X107410000Y-87520000D02*
X106640000Y-87520000D01*
X99330000Y-87520000D02*
X100100000Y-87520000D01*
%TO.C,R8*%
X106640000Y-78930000D02*
X106640000Y-76190000D01*
X106640000Y-76190000D02*
X100100000Y-76190000D01*
X100100000Y-76190000D02*
X100100000Y-78930000D01*
X100100000Y-78930000D02*
X106640000Y-78930000D01*
X107410000Y-77560000D02*
X106640000Y-77560000D01*
X99330000Y-77560000D02*
X100100000Y-77560000D01*
%TO.C,R9*%
X106640000Y-68970000D02*
X106640000Y-66230000D01*
X106640000Y-66230000D02*
X100100000Y-66230000D01*
X100100000Y-66230000D02*
X100100000Y-68970000D01*
X100100000Y-68970000D02*
X106640000Y-68970000D01*
X107410000Y-67600000D02*
X106640000Y-67600000D01*
X99330000Y-67600000D02*
X100100000Y-67600000D01*
%TO.C,R10*%
X139270000Y-67870000D02*
X139270000Y-65130000D01*
X139270000Y-65130000D02*
X132730000Y-65130000D01*
X132730000Y-65130000D02*
X132730000Y-67870000D01*
X132730000Y-67870000D02*
X139270000Y-67870000D01*
X140040000Y-66500000D02*
X139270000Y-66500000D01*
X131960000Y-66500000D02*
X132730000Y-66500000D01*
%TO.C,R11*%
X93130000Y-55500000D02*
X93900000Y-55500000D01*
X101210000Y-55500000D02*
X100440000Y-55500000D01*
X93900000Y-56870000D02*
X100440000Y-56870000D01*
X93900000Y-54130000D02*
X93900000Y-56870000D01*
X100440000Y-54130000D02*
X93900000Y-54130000D01*
X100440000Y-56870000D02*
X100440000Y-54130000D01*
%TO.C,U1*%
X134770000Y-84380000D02*
X134770000Y-94620000D01*
X130129000Y-84380000D02*
X130129000Y-94620000D01*
X134770000Y-84380000D02*
X130129000Y-84380000D01*
X134770000Y-94620000D02*
X130129000Y-94620000D01*
X133260000Y-84380000D02*
X133260000Y-94620000D01*
X134770000Y-87650000D02*
X133260000Y-87650000D01*
X134770000Y-91351000D02*
X133260000Y-91351000D01*
%TO.C,HS1*%
X139270000Y-71880000D02*
X137380000Y-73840000D01*
X139420000Y-71970000D02*
X139270000Y-71880000D01*
X138740000Y-74020000D02*
X139420000Y-71970000D01*
X142510000Y-71870000D02*
X138740000Y-74020000D01*
X142630000Y-71990000D02*
X142510000Y-71870000D01*
X139750000Y-77290000D02*
X142630000Y-71990000D01*
X142550000Y-76630000D02*
X139750000Y-77290000D01*
X142610000Y-76810000D02*
X142550000Y-76630000D01*
X138890000Y-79310000D02*
X142610000Y-76810000D01*
X142600000Y-80930000D02*
X138890000Y-79320000D01*
X142600000Y-81600000D02*
X142600000Y-80930000D01*
X136850000Y-81600000D02*
X142600000Y-81600000D01*
X136850000Y-89500000D02*
X136850000Y-81600000D01*
X129400000Y-81600000D02*
X129400000Y-80930000D01*
X135150000Y-81600000D02*
X129400000Y-81600000D01*
X135150000Y-89500000D02*
X135150000Y-81600000D01*
X129400000Y-80930000D02*
X133110000Y-79320000D01*
X132580000Y-71970000D02*
X132730000Y-71880000D01*
X129370000Y-71990000D02*
X129490000Y-71870000D01*
X129490000Y-71870000D02*
X133260000Y-74020000D01*
X133260000Y-74020000D02*
X132580000Y-71970000D01*
X132730000Y-71880000D02*
X134620000Y-73840000D01*
X132250000Y-77290000D02*
X129370000Y-71990000D01*
X133110000Y-79310000D02*
X129390000Y-76810000D01*
X129390000Y-76810000D02*
X129450000Y-76630000D01*
X129450000Y-76630000D02*
X132250000Y-77290000D01*
X136850000Y-89500000D02*
X136850000Y-97400000D01*
X142600000Y-98070000D02*
X138890000Y-99680000D01*
X142600000Y-97400000D02*
X142600000Y-98070000D01*
X136850000Y-97400000D02*
X142600000Y-97400000D01*
X135150000Y-89500000D02*
X135150000Y-97400000D01*
X133260000Y-104980000D02*
X132580000Y-107030000D01*
X129370000Y-107010000D02*
X129490000Y-107130000D01*
X132580000Y-107030000D02*
X132730000Y-107120000D01*
X129490000Y-107130000D02*
X133260000Y-104980000D01*
X132730000Y-107120000D02*
X134620000Y-105160000D01*
X133110000Y-99690000D02*
X129390000Y-102190000D01*
X129450000Y-102370000D02*
X132250000Y-101710000D01*
X129390000Y-102190000D02*
X129450000Y-102370000D01*
X132250000Y-101710000D02*
X129370000Y-107010000D01*
X129400000Y-97400000D02*
X129400000Y-98070000D01*
X135150000Y-97400000D02*
X129400000Y-97400000D01*
X129400000Y-98070000D02*
X133110000Y-99680000D01*
X142630000Y-107010000D02*
X142510000Y-107130000D01*
X139270000Y-107120000D02*
X137380000Y-105160000D01*
X138740000Y-104980000D02*
X139420000Y-107030000D01*
X139420000Y-107030000D02*
X139270000Y-107120000D01*
X142510000Y-107130000D02*
X138740000Y-104980000D01*
X139750000Y-101710000D02*
X142630000Y-107010000D01*
X142550000Y-102370000D02*
X139750000Y-101710000D01*
X142610000Y-102190000D02*
X142550000Y-102370000D01*
X138890000Y-99690000D02*
X142610000Y-102190000D01*
%TO.C,R1*%
X114304999Y-100280000D02*
X114304999Y-103720000D01*
X114304999Y-103720000D02*
X123544999Y-103720000D01*
X123544999Y-103720000D02*
X123544999Y-100280000D01*
X123544999Y-100280000D02*
X114304999Y-100280000D01*
X113614999Y-102000000D02*
X114304999Y-102000000D01*
X124234999Y-102000000D02*
X123544999Y-102000000D01*
%TO.C,R6*%
X99630000Y-97480000D02*
X100320000Y-97480000D01*
X110250000Y-97480000D02*
X109560000Y-97480000D01*
X100320000Y-99200000D02*
X109560000Y-99200000D01*
X100320000Y-95760000D02*
X100320000Y-99200000D01*
X109560000Y-95760000D02*
X100320000Y-95760000D01*
X109560000Y-99200000D02*
X109560000Y-95760000D01*
%TD*%
%TO.C,D1*%
D13*
X108488095Y-94952380D02*
X108488095Y-93952380D01*
X109059523Y-94952380D02*
X108630952Y-94380952D01*
X109059523Y-93952380D02*
X108488095Y-94523809D01*
%TO.C,D2*%
X108488095Y-84992380D02*
X108488095Y-83992380D01*
X109059523Y-84992380D02*
X108630952Y-84420952D01*
X109059523Y-83992380D02*
X108488095Y-84563809D01*
%TO.C,D3*%
X108488095Y-75032380D02*
X108488095Y-74032380D01*
X109059523Y-75032380D02*
X108630952Y-74460952D01*
X109059523Y-74032380D02*
X108488095Y-74603809D01*
%TO.C,D4*%
X108488095Y-65072380D02*
X108488095Y-64072380D01*
X109059523Y-65072380D02*
X108630952Y-64500952D01*
X109059523Y-64072380D02*
X108488095Y-64643809D01*
%TO.C,D5*%
X122773094Y-94952380D02*
X122773094Y-93952380D01*
X123344522Y-94952380D02*
X122915951Y-94380952D01*
X123344522Y-93952380D02*
X122773094Y-94523809D01*
%TO.C,D6*%
X122773094Y-84992380D02*
X122773094Y-83992380D01*
X123344522Y-84992380D02*
X122915951Y-84420952D01*
X123344522Y-83992380D02*
X122773094Y-84563809D01*
%TO.C,D7*%
X122773094Y-75032380D02*
X122773094Y-74032380D01*
X123344522Y-75032380D02*
X122915951Y-74460952D01*
X123344522Y-74032380D02*
X122773094Y-74603809D01*
%TO.C,D8*%
X122773094Y-65072380D02*
X122773094Y-64072380D01*
X123344522Y-65072380D02*
X122915951Y-64500952D01*
X123344522Y-64072380D02*
X122773094Y-64643809D01*
%TO.C,D9*%
X142552380Y-84681904D02*
X141552380Y-84681904D01*
X142552380Y-84110476D02*
X141980952Y-84539047D01*
X141552380Y-84110476D02*
X142123809Y-84681904D01*
%TO.C,D11*%
X140818095Y-64052380D02*
X140818095Y-63052380D01*
X141389523Y-64052380D02*
X140960952Y-63480952D01*
X141389523Y-63052380D02*
X140818095Y-63623809D01*
%TD*%
M02*
