%TF.GenerationSoftware,KiCad,Pcbnew,(5.1.8)-1*%
%TF.CreationDate,2021-01-26T19:05:28+01:00*%
%TF.ProjectId,psu,7073752e-6b69-4636-9164-5f7063625858,rev?*%
%TF.SameCoordinates,Original*%
%TF.FileFunction,Legend,Top*%
%TF.FilePolarity,Positive*%
%FSLAX46Y46*%
G04 Gerber Fmt 4.6, Leading zero omitted, Abs format (unit mm)*
G04 Created by KiCad (PCBNEW (5.1.8)-1) date 2021-01-26 19:05:28*
%MOMM*%
%LPD*%
G01*
G04 APERTURE LIST*
%ADD10C,0.120000*%
%TA.AperFunction,Profile*%
%ADD11C,0.050000*%
%TD*%
%ADD12C,0.010000*%
%ADD13C,0.150000*%
G04 APERTURE END LIST*
D10*
X82402380Y-66584571D02*
X82402380Y-67117904D01*
X82211904Y-66279809D02*
X82021428Y-66851238D01*
X82516666Y-66851238D01*
X81983333Y-76277904D02*
X82478571Y-76277904D01*
X82211904Y-76582666D01*
X82326190Y-76582666D01*
X82402380Y-76620761D01*
X82440476Y-76658857D01*
X82478571Y-76735047D01*
X82478571Y-76925523D01*
X82440476Y-77001714D01*
X82402380Y-77039809D01*
X82326190Y-77077904D01*
X82097619Y-77077904D01*
X82021428Y-77039809D01*
X81983333Y-77001714D01*
X82021428Y-86314095D02*
X82059523Y-86276000D01*
X82135714Y-86237904D01*
X82326190Y-86237904D01*
X82402380Y-86276000D01*
X82440476Y-86314095D01*
X82478571Y-86390285D01*
X82478571Y-86466476D01*
X82440476Y-86580761D01*
X81983333Y-87037904D01*
X82478571Y-87037904D01*
X82478571Y-96991904D02*
X82021428Y-96991904D01*
X82250000Y-96991904D02*
X82250000Y-96191904D01*
X82173809Y-96306190D01*
X82097619Y-96382380D01*
X82021428Y-96420476D01*
X124554761Y-107952380D02*
X124221428Y-107476190D01*
X123983333Y-107952380D02*
X123983333Y-106952380D01*
X124364285Y-106952380D01*
X124459523Y-107000000D01*
X124507142Y-107047619D01*
X124554761Y-107142857D01*
X124554761Y-107285714D01*
X124507142Y-107380952D01*
X124459523Y-107428571D01*
X124364285Y-107476190D01*
X123983333Y-107476190D01*
X124983333Y-107428571D02*
X125316666Y-107428571D01*
X125459523Y-107952380D02*
X124983333Y-107952380D01*
X124983333Y-106952380D01*
X125459523Y-106952380D01*
X125745238Y-106952380D02*
X126078571Y-107952380D01*
X126411904Y-106952380D01*
X126745238Y-107857142D02*
X126792857Y-107904761D01*
X126745238Y-107952380D01*
X126697619Y-107904761D01*
X126745238Y-107857142D01*
X126745238Y-107952380D01*
X126745238Y-107333333D02*
X126792857Y-107380952D01*
X126745238Y-107428571D01*
X126697619Y-107380952D01*
X126745238Y-107333333D01*
X126745238Y-107428571D01*
X128507142Y-107952380D02*
X127935714Y-107952380D01*
X128221428Y-107952380D02*
X128221428Y-106952380D01*
X128126190Y-107095238D01*
X128030952Y-107190476D01*
X127935714Y-107238095D01*
X128935714Y-107857142D02*
X128983333Y-107904761D01*
X128935714Y-107952380D01*
X128888095Y-107904761D01*
X128935714Y-107857142D01*
X128935714Y-107952380D01*
X129602380Y-106952380D02*
X129697619Y-106952380D01*
X129792857Y-107000000D01*
X129840476Y-107047619D01*
X129888095Y-107142857D01*
X129935714Y-107333333D01*
X129935714Y-107571428D01*
X129888095Y-107761904D01*
X129840476Y-107857142D01*
X129792857Y-107904761D01*
X129697619Y-107952380D01*
X129602380Y-107952380D01*
X129507142Y-107904761D01*
X129459523Y-107857142D01*
X129411904Y-107761904D01*
X129364285Y-107571428D01*
X129364285Y-107333333D01*
X129411904Y-107142857D01*
X129459523Y-107047619D01*
X129507142Y-107000000D01*
X129602380Y-106952380D01*
X130364285Y-107857142D02*
X130411904Y-107904761D01*
X130364285Y-107952380D01*
X130316666Y-107904761D01*
X130364285Y-107857142D01*
X130364285Y-107952380D01*
X131030952Y-106952380D02*
X131126190Y-106952380D01*
X131221428Y-107000000D01*
X131269047Y-107047619D01*
X131316666Y-107142857D01*
X131364285Y-107333333D01*
X131364285Y-107571428D01*
X131316666Y-107761904D01*
X131269047Y-107857142D01*
X131221428Y-107904761D01*
X131126190Y-107952380D01*
X131030952Y-107952380D01*
X130935714Y-107904761D01*
X130888095Y-107857142D01*
X130840476Y-107761904D01*
X130792857Y-107571428D01*
X130792857Y-107333333D01*
X130840476Y-107142857D01*
X130888095Y-107047619D01*
X130935714Y-107000000D01*
X131030952Y-106952380D01*
X172369047Y-95928094D02*
X173130952Y-95928094D01*
X172750000Y-96309046D02*
X172750000Y-95547142D01*
X109909047Y-52171428D02*
X110670952Y-52171428D01*
X110290000Y-52552380D02*
X110290000Y-51790476D01*
X107440476Y-107535714D02*
X107440476Y-108202380D01*
X107202380Y-107154761D02*
X106964285Y-107869047D01*
X107583333Y-107869047D01*
X102416666Y-107202380D02*
X103035714Y-107202380D01*
X102702380Y-107583333D01*
X102845238Y-107583333D01*
X102940476Y-107630952D01*
X102988095Y-107678571D01*
X103035714Y-107773809D01*
X103035714Y-108011904D01*
X102988095Y-108107142D01*
X102940476Y-108154761D01*
X102845238Y-108202380D01*
X102559523Y-108202380D01*
X102464285Y-108154761D01*
X102416666Y-108107142D01*
X97714285Y-107297619D02*
X97761904Y-107250000D01*
X97857142Y-107202380D01*
X98095238Y-107202380D01*
X98190476Y-107250000D01*
X98238095Y-107297619D01*
X98285714Y-107392857D01*
X98285714Y-107488095D01*
X98238095Y-107630952D01*
X97666666Y-108202380D01*
X98285714Y-108202380D01*
X93785714Y-108202380D02*
X93214285Y-108202380D01*
X93500000Y-108202380D02*
X93500000Y-107202380D01*
X93404761Y-107345238D01*
X93309523Y-107440476D01*
X93214285Y-107488095D01*
X81869047Y-93201428D02*
X82630952Y-93201428D01*
X82250000Y-93582380D02*
X82250000Y-92820476D01*
X81869047Y-83241428D02*
X82630952Y-83241428D01*
X82250000Y-83622380D02*
X82250000Y-82860476D01*
X81869047Y-73281428D02*
X82630952Y-73281428D01*
X82250000Y-73662380D02*
X82250000Y-72900476D01*
X81869047Y-63321428D02*
X82630952Y-63321428D01*
X82250000Y-63702380D02*
X82250000Y-62940476D01*
D11*
X85000000Y-110000000D02*
G75*
G02*
X80000000Y-105000000I0J5000000D01*
G01*
X175000000Y-105000000D02*
G75*
G02*
X170000000Y-110000000I-5000000J0D01*
G01*
X170000000Y-50000000D02*
G75*
G02*
X175000000Y-55000000I0J-5000000D01*
G01*
X80000000Y-55000000D02*
G75*
G02*
X85000000Y-50000000I5000000J0D01*
G01*
X175000000Y-55000000D02*
X175000000Y-105000000D01*
X85000000Y-110000000D02*
X170000000Y-110000000D01*
X85000000Y-50000000D02*
X170000000Y-50000000D01*
X80000000Y-55000000D02*
X80000000Y-105000000D01*
D12*
%TO.C,G\u002A\u002A\u002A*%
G36*
X133004106Y-53612846D02*
G01*
X133199561Y-53615852D01*
X133323978Y-53623918D01*
X133392638Y-53639545D01*
X133420822Y-53665234D01*
X133423812Y-53703484D01*
X133420833Y-53726700D01*
X133408295Y-53777299D01*
X133375594Y-53810945D01*
X133304333Y-53831847D01*
X133176113Y-53844218D01*
X132972537Y-53852269D01*
X132858500Y-53855418D01*
X132312400Y-53869837D01*
X132312400Y-54577600D01*
X132795000Y-54577600D01*
X133018571Y-54578481D01*
X133159573Y-54584466D01*
X133237038Y-54600561D01*
X133269995Y-54631776D01*
X133277477Y-54683117D01*
X133277600Y-54704600D01*
X133274248Y-54763434D01*
X133251507Y-54800540D01*
X133190344Y-54820925D01*
X133071729Y-54829598D01*
X132876632Y-54831567D01*
X132795000Y-54831600D01*
X132312400Y-54831600D01*
X132312400Y-55593600D01*
X133430000Y-55593600D01*
X133430000Y-55847600D01*
X132007600Y-55847600D01*
X132007600Y-53612400D01*
X132722333Y-53612400D01*
X133004106Y-53612846D01*
G37*
X133004106Y-53612846D02*
X133199561Y-53615852D01*
X133323978Y-53623918D01*
X133392638Y-53639545D01*
X133420822Y-53665234D01*
X133423812Y-53703484D01*
X133420833Y-53726700D01*
X133408295Y-53777299D01*
X133375594Y-53810945D01*
X133304333Y-53831847D01*
X133176113Y-53844218D01*
X132972537Y-53852269D01*
X132858500Y-53855418D01*
X132312400Y-53869837D01*
X132312400Y-54577600D01*
X132795000Y-54577600D01*
X133018571Y-54578481D01*
X133159573Y-54584466D01*
X133237038Y-54600561D01*
X133269995Y-54631776D01*
X133277477Y-54683117D01*
X133277600Y-54704600D01*
X133274248Y-54763434D01*
X133251507Y-54800540D01*
X133190344Y-54820925D01*
X133071729Y-54829598D01*
X132876632Y-54831567D01*
X132795000Y-54831600D01*
X132312400Y-54831600D01*
X132312400Y-55593600D01*
X133430000Y-55593600D01*
X133430000Y-55847600D01*
X132007600Y-55847600D01*
X132007600Y-53612400D01*
X132722333Y-53612400D01*
X133004106Y-53612846D01*
G36*
X130636000Y-55590045D02*
G01*
X131156700Y-55604522D01*
X131391302Y-55612288D01*
X131543179Y-55622907D01*
X131631192Y-55640903D01*
X131674204Y-55670798D01*
X131691074Y-55717117D01*
X131693633Y-55733300D01*
X131697216Y-55779058D01*
X131682336Y-55810612D01*
X131633447Y-55830601D01*
X131535006Y-55841664D01*
X131371465Y-55846443D01*
X131127279Y-55847576D01*
X131020533Y-55847600D01*
X130331200Y-55847600D01*
X130331200Y-53612400D01*
X130636000Y-53612400D01*
X130636000Y-55590045D01*
G37*
X130636000Y-55590045D02*
X131156700Y-55604522D01*
X131391302Y-55612288D01*
X131543179Y-55622907D01*
X131631192Y-55640903D01*
X131674204Y-55670798D01*
X131691074Y-55717117D01*
X131693633Y-55733300D01*
X131697216Y-55779058D01*
X131682336Y-55810612D01*
X131633447Y-55830601D01*
X131535006Y-55841664D01*
X131371465Y-55846443D01*
X131127279Y-55847576D01*
X131020533Y-55847600D01*
X130331200Y-55847600D01*
X130331200Y-53612400D01*
X130636000Y-53612400D01*
X130636000Y-55590045D01*
G36*
X126584700Y-53612683D02*
G01*
X126964965Y-53638205D01*
X127266920Y-53717450D01*
X127501402Y-53855410D01*
X127679252Y-54057078D01*
X127727733Y-54139151D01*
X127779925Y-54301261D01*
X127809434Y-54527048D01*
X127816259Y-54781155D01*
X127800402Y-55028222D01*
X127761861Y-55232891D01*
X127727733Y-55320848D01*
X127566320Y-55544817D01*
X127351881Y-55703417D01*
X127073576Y-55801640D01*
X126720565Y-55844481D01*
X126584700Y-55847316D01*
X126216400Y-55847600D01*
X126216400Y-53866400D01*
X126521200Y-53866400D01*
X126521200Y-55593600D01*
X126822102Y-55593600D01*
X127014468Y-55584716D01*
X127146300Y-55550594D01*
X127257690Y-55480024D01*
X127272713Y-55467628D01*
X127404502Y-55330384D01*
X127486810Y-55170367D01*
X127526839Y-54963959D01*
X127531786Y-54687543D01*
X127529378Y-54625672D01*
X127517852Y-54419270D01*
X127499157Y-54284720D01*
X127462758Y-54192331D01*
X127398118Y-54112411D01*
X127321468Y-54039766D01*
X127202675Y-53940668D01*
X127096540Y-53888672D01*
X126960742Y-53868947D01*
X126826746Y-53866400D01*
X126521200Y-53866400D01*
X126216400Y-53866400D01*
X126216400Y-53612400D01*
X126584700Y-53612683D01*
G37*
X126584700Y-53612683D02*
X126964965Y-53638205D01*
X127266920Y-53717450D01*
X127501402Y-53855410D01*
X127679252Y-54057078D01*
X127727733Y-54139151D01*
X127779925Y-54301261D01*
X127809434Y-54527048D01*
X127816259Y-54781155D01*
X127800402Y-55028222D01*
X127761861Y-55232891D01*
X127727733Y-55320848D01*
X127566320Y-55544817D01*
X127351881Y-55703417D01*
X127073576Y-55801640D01*
X126720565Y-55844481D01*
X126584700Y-55847316D01*
X126216400Y-55847600D01*
X126216400Y-53866400D01*
X126521200Y-53866400D01*
X126521200Y-55593600D01*
X126822102Y-55593600D01*
X127014468Y-55584716D01*
X127146300Y-55550594D01*
X127257690Y-55480024D01*
X127272713Y-55467628D01*
X127404502Y-55330384D01*
X127486810Y-55170367D01*
X127526839Y-54963959D01*
X127531786Y-54687543D01*
X127529378Y-54625672D01*
X127517852Y-54419270D01*
X127499157Y-54284720D01*
X127462758Y-54192331D01*
X127398118Y-54112411D01*
X127321468Y-54039766D01*
X127202675Y-53940668D01*
X127096540Y-53888672D01*
X126960742Y-53868947D01*
X126826746Y-53866400D01*
X126521200Y-53866400D01*
X126216400Y-53866400D01*
X126216400Y-53612400D01*
X126584700Y-53612683D01*
G36*
X123524000Y-55847600D02*
G01*
X123203481Y-55847600D01*
X123238582Y-54948291D01*
X123248412Y-54661219D01*
X123254199Y-54415075D01*
X123255800Y-54225360D01*
X123253070Y-54107574D01*
X123246724Y-54075942D01*
X123219883Y-54129512D01*
X123161705Y-54261958D01*
X123078720Y-54457879D01*
X122977456Y-54701870D01*
X122870923Y-54962550D01*
X122725790Y-55317598D01*
X122610473Y-55578980D01*
X122515854Y-55746693D01*
X122432817Y-55820735D01*
X122352243Y-55801102D01*
X122265015Y-55687792D01*
X122162016Y-55480802D01*
X122034128Y-55180127D01*
X121944725Y-54962245D01*
X121831400Y-54687416D01*
X121730582Y-54446302D01*
X121648777Y-54254196D01*
X121592495Y-54126391D01*
X121568588Y-54078454D01*
X121562655Y-54118579D01*
X121560814Y-54244615D01*
X121562913Y-54440962D01*
X121568797Y-54692020D01*
X121577176Y-54951109D01*
X121609600Y-55847600D01*
X121288800Y-55847600D01*
X121288800Y-53612400D01*
X121669800Y-53613024D01*
X122021367Y-54501712D01*
X122133198Y-54780120D01*
X122233924Y-55022831D01*
X122317199Y-55215202D01*
X122376681Y-55342589D01*
X122406024Y-55390350D01*
X122406400Y-55390400D01*
X122434659Y-55345468D01*
X122493262Y-55220434D01*
X122575865Y-55029943D01*
X122676124Y-54788635D01*
X122787694Y-54511156D01*
X122791432Y-54501712D01*
X123143000Y-53613024D01*
X123524000Y-53612400D01*
X123524000Y-55847600D01*
G37*
X123524000Y-55847600D02*
X123203481Y-55847600D01*
X123238582Y-54948291D01*
X123248412Y-54661219D01*
X123254199Y-54415075D01*
X123255800Y-54225360D01*
X123253070Y-54107574D01*
X123246724Y-54075942D01*
X123219883Y-54129512D01*
X123161705Y-54261958D01*
X123078720Y-54457879D01*
X122977456Y-54701870D01*
X122870923Y-54962550D01*
X122725790Y-55317598D01*
X122610473Y-55578980D01*
X122515854Y-55746693D01*
X122432817Y-55820735D01*
X122352243Y-55801102D01*
X122265015Y-55687792D01*
X122162016Y-55480802D01*
X122034128Y-55180127D01*
X121944725Y-54962245D01*
X121831400Y-54687416D01*
X121730582Y-54446302D01*
X121648777Y-54254196D01*
X121592495Y-54126391D01*
X121568588Y-54078454D01*
X121562655Y-54118579D01*
X121560814Y-54244615D01*
X121562913Y-54440962D01*
X121568797Y-54692020D01*
X121577176Y-54951109D01*
X121609600Y-55847600D01*
X121288800Y-55847600D01*
X121288800Y-53612400D01*
X121669800Y-53613024D01*
X122021367Y-54501712D01*
X122133198Y-54780120D01*
X122233924Y-55022831D01*
X122317199Y-55215202D01*
X122376681Y-55342589D01*
X122406024Y-55390350D01*
X122406400Y-55390400D01*
X122434659Y-55345468D01*
X122493262Y-55220434D01*
X122575865Y-55029943D01*
X122676124Y-54788635D01*
X122787694Y-54511156D01*
X122791432Y-54501712D01*
X123143000Y-53613024D01*
X123524000Y-53612400D01*
X123524000Y-55847600D01*
G36*
X114926100Y-53612683D02*
G01*
X115253238Y-53620563D01*
X115499547Y-53647422D01*
X115684896Y-53698732D01*
X115829153Y-53779964D01*
X115950620Y-53894801D01*
X116047760Y-54022968D01*
X116094229Y-54148171D01*
X116107101Y-54319385D01*
X116107200Y-54343916D01*
X116070745Y-54605650D01*
X115959627Y-54803471D01*
X115771218Y-54939427D01*
X115502886Y-55015565D01*
X115219831Y-55034800D01*
X114888000Y-55034800D01*
X114888000Y-55847600D01*
X114430800Y-55847600D01*
X114430800Y-53968000D01*
X114888000Y-53968000D01*
X114888000Y-54679200D01*
X115183090Y-54679200D01*
X115375685Y-54666599D01*
X115524834Y-54633274D01*
X115574250Y-54608952D01*
X115652320Y-54491615D01*
X115670320Y-54348407D01*
X115636483Y-54165690D01*
X115530783Y-54044828D01*
X115346938Y-53981119D01*
X115161772Y-53968000D01*
X114888000Y-53968000D01*
X114430800Y-53968000D01*
X114430800Y-53612400D01*
X114926100Y-53612683D01*
G37*
X114926100Y-53612683D02*
X115253238Y-53620563D01*
X115499547Y-53647422D01*
X115684896Y-53698732D01*
X115829153Y-53779964D01*
X115950620Y-53894801D01*
X116047760Y-54022968D01*
X116094229Y-54148171D01*
X116107101Y-54319385D01*
X116107200Y-54343916D01*
X116070745Y-54605650D01*
X115959627Y-54803471D01*
X115771218Y-54939427D01*
X115502886Y-55015565D01*
X115219831Y-55034800D01*
X114888000Y-55034800D01*
X114888000Y-55847600D01*
X114430800Y-55847600D01*
X114430800Y-53968000D01*
X114888000Y-53968000D01*
X114888000Y-54679200D01*
X115183090Y-54679200D01*
X115375685Y-54666599D01*
X115524834Y-54633274D01*
X115574250Y-54608952D01*
X115652320Y-54491615D01*
X115670320Y-54348407D01*
X115636483Y-54165690D01*
X115530783Y-54044828D01*
X115346938Y-53981119D01*
X115161772Y-53968000D01*
X114888000Y-53968000D01*
X114430800Y-53968000D01*
X114430800Y-53612400D01*
X114926100Y-53612683D01*
G36*
X128553200Y-54453939D02*
G01*
X128556874Y-54832638D01*
X128571387Y-55121784D01*
X128601970Y-55333271D01*
X128653854Y-55478990D01*
X128732272Y-55570836D01*
X128842456Y-55620701D01*
X128989638Y-55640478D01*
X129076209Y-55642784D01*
X129252858Y-55630020D01*
X129374926Y-55578968D01*
X129444509Y-55519709D01*
X129489333Y-55471796D01*
X129521879Y-55420624D01*
X129544112Y-55350186D01*
X129557996Y-55244474D01*
X129565494Y-55087481D01*
X129568573Y-54863199D01*
X129569196Y-54555622D01*
X129569200Y-54503709D01*
X129569200Y-53612400D01*
X129874000Y-53612400D01*
X129873921Y-54463300D01*
X129872243Y-54792763D01*
X129866289Y-55037860D01*
X129854570Y-55215788D01*
X129835597Y-55343743D01*
X129807881Y-55438920D01*
X129785021Y-55490271D01*
X129637534Y-55676977D01*
X129425890Y-55807781D01*
X129174976Y-55875704D01*
X128909681Y-55873767D01*
X128670868Y-55802688D01*
X128541711Y-55733679D01*
X128443643Y-55653865D01*
X128372075Y-55548676D01*
X128322418Y-55403540D01*
X128290084Y-55203886D01*
X128270483Y-54935144D01*
X128259029Y-54582742D01*
X128257071Y-54488700D01*
X128240007Y-53612400D01*
X128553200Y-53612400D01*
X128553200Y-54453939D01*
G37*
X128553200Y-54453939D02*
X128556874Y-54832638D01*
X128571387Y-55121784D01*
X128601970Y-55333271D01*
X128653854Y-55478990D01*
X128732272Y-55570836D01*
X128842456Y-55620701D01*
X128989638Y-55640478D01*
X129076209Y-55642784D01*
X129252858Y-55630020D01*
X129374926Y-55578968D01*
X129444509Y-55519709D01*
X129489333Y-55471796D01*
X129521879Y-55420624D01*
X129544112Y-55350186D01*
X129557996Y-55244474D01*
X129565494Y-55087481D01*
X129568573Y-54863199D01*
X129569196Y-54555622D01*
X129569200Y-54503709D01*
X129569200Y-53612400D01*
X129874000Y-53612400D01*
X129873921Y-54463300D01*
X129872243Y-54792763D01*
X129866289Y-55037860D01*
X129854570Y-55215788D01*
X129835597Y-55343743D01*
X129807881Y-55438920D01*
X129785021Y-55490271D01*
X129637534Y-55676977D01*
X129425890Y-55807781D01*
X129174976Y-55875704D01*
X128909681Y-55873767D01*
X128670868Y-55802688D01*
X128541711Y-55733679D01*
X128443643Y-55653865D01*
X128372075Y-55548676D01*
X128322418Y-55403540D01*
X128290084Y-55203886D01*
X128270483Y-54935144D01*
X128259029Y-54582742D01*
X128257071Y-54488700D01*
X128240007Y-53612400D01*
X128553200Y-53612400D01*
X128553200Y-54453939D01*
G36*
X125069414Y-53592692D02*
G01*
X125315062Y-53702126D01*
X125521673Y-53900276D01*
X125589223Y-54001433D01*
X125658149Y-54128036D01*
X125700949Y-54242463D01*
X125723729Y-54375490D01*
X125732598Y-54557893D01*
X125733800Y-54730000D01*
X125715265Y-55079496D01*
X125654997Y-55348858D01*
X125545998Y-55553430D01*
X125381273Y-55708556D01*
X125253136Y-55784100D01*
X125001771Y-55877493D01*
X124768583Y-55884288D01*
X124520026Y-55805337D01*
X124514600Y-55802858D01*
X124293475Y-55667111D01*
X124137023Y-55485771D01*
X124038669Y-55245504D01*
X123991838Y-54932976D01*
X123985659Y-54730000D01*
X124235766Y-54730000D01*
X124266722Y-55057233D01*
X124356031Y-55319832D01*
X124498360Y-55509918D01*
X124688372Y-55619613D01*
X124854988Y-55644400D01*
X125019151Y-55627481D01*
X125155726Y-55585342D01*
X125182474Y-55569957D01*
X125318389Y-55424925D01*
X125406279Y-55209256D01*
X125449038Y-54914014D01*
X125454400Y-54729999D01*
X125431491Y-54386329D01*
X125360232Y-54128511D01*
X125236825Y-53951089D01*
X125057471Y-53848605D01*
X124818371Y-53815600D01*
X124818015Y-53815600D01*
X124618814Y-53862678D01*
X124453637Y-53996089D01*
X124329958Y-54204095D01*
X124255250Y-54474958D01*
X124235766Y-54730000D01*
X123985659Y-54730000D01*
X124007459Y-54373019D01*
X124077241Y-54095483D01*
X124201581Y-53884058D01*
X124387050Y-53725407D01*
X124514600Y-53657141D01*
X124798127Y-53576266D01*
X125069414Y-53592692D01*
G37*
X125069414Y-53592692D02*
X125315062Y-53702126D01*
X125521673Y-53900276D01*
X125589223Y-54001433D01*
X125658149Y-54128036D01*
X125700949Y-54242463D01*
X125723729Y-54375490D01*
X125732598Y-54557893D01*
X125733800Y-54730000D01*
X125715265Y-55079496D01*
X125654997Y-55348858D01*
X125545998Y-55553430D01*
X125381273Y-55708556D01*
X125253136Y-55784100D01*
X125001771Y-55877493D01*
X124768583Y-55884288D01*
X124520026Y-55805337D01*
X124514600Y-55802858D01*
X124293475Y-55667111D01*
X124137023Y-55485771D01*
X124038669Y-55245504D01*
X123991838Y-54932976D01*
X123985659Y-54730000D01*
X124235766Y-54730000D01*
X124266722Y-55057233D01*
X124356031Y-55319832D01*
X124498360Y-55509918D01*
X124688372Y-55619613D01*
X124854988Y-55644400D01*
X125019151Y-55627481D01*
X125155726Y-55585342D01*
X125182474Y-55569957D01*
X125318389Y-55424925D01*
X125406279Y-55209256D01*
X125449038Y-54914014D01*
X125454400Y-54729999D01*
X125431491Y-54386329D01*
X125360232Y-54128511D01*
X125236825Y-53951089D01*
X125057471Y-53848605D01*
X124818371Y-53815600D01*
X124818015Y-53815600D01*
X124618814Y-53862678D01*
X124453637Y-53996089D01*
X124329958Y-54204095D01*
X124255250Y-54474958D01*
X124235766Y-54730000D01*
X123985659Y-54730000D01*
X124007459Y-54373019D01*
X124077241Y-54095483D01*
X124201581Y-53884058D01*
X124387050Y-53725407D01*
X124514600Y-53657141D01*
X124798127Y-53576266D01*
X125069414Y-53592692D01*
G36*
X118799600Y-54376031D02*
G01*
X118803578Y-54742695D01*
X118817899Y-55020714D01*
X118846135Y-55222819D01*
X118891863Y-55361740D01*
X118958657Y-55450207D01*
X119050093Y-55500950D01*
X119120594Y-55519024D01*
X119310498Y-55518626D01*
X119479768Y-55456355D01*
X119573522Y-55370095D01*
X119585985Y-55302776D01*
X119596777Y-55151966D01*
X119605137Y-54935766D01*
X119610305Y-54672280D01*
X119611622Y-54463300D01*
X119612400Y-53612400D01*
X120069600Y-53612400D01*
X120069600Y-54464092D01*
X120065995Y-54835694D01*
X120052527Y-55120889D01*
X120025210Y-55334702D01*
X119980063Y-55492157D01*
X119913100Y-55608277D01*
X119820339Y-55698087D01*
X119725857Y-55760512D01*
X119505877Y-55844189D01*
X119244149Y-55877798D01*
X118989465Y-55857368D01*
X118888018Y-55828696D01*
X118728006Y-55761859D01*
X118606532Y-55686521D01*
X118518356Y-55588391D01*
X118458242Y-55453175D01*
X118420951Y-55266581D01*
X118401245Y-55014318D01*
X118393886Y-54682091D01*
X118393200Y-54478522D01*
X118393200Y-53612400D01*
X118799600Y-53612400D01*
X118799600Y-54376031D01*
G37*
X118799600Y-54376031D02*
X118803578Y-54742695D01*
X118817899Y-55020714D01*
X118846135Y-55222819D01*
X118891863Y-55361740D01*
X118958657Y-55450207D01*
X119050093Y-55500950D01*
X119120594Y-55519024D01*
X119310498Y-55518626D01*
X119479768Y-55456355D01*
X119573522Y-55370095D01*
X119585985Y-55302776D01*
X119596777Y-55151966D01*
X119605137Y-54935766D01*
X119610305Y-54672280D01*
X119611622Y-54463300D01*
X119612400Y-53612400D01*
X120069600Y-53612400D01*
X120069600Y-54464092D01*
X120065995Y-54835694D01*
X120052527Y-55120889D01*
X120025210Y-55334702D01*
X119980063Y-55492157D01*
X119913100Y-55608277D01*
X119820339Y-55698087D01*
X119725857Y-55760512D01*
X119505877Y-55844189D01*
X119244149Y-55877798D01*
X118989465Y-55857368D01*
X118888018Y-55828696D01*
X118728006Y-55761859D01*
X118606532Y-55686521D01*
X118518356Y-55588391D01*
X118458242Y-55453175D01*
X118420951Y-55266581D01*
X118401245Y-55014318D01*
X118393886Y-54682091D01*
X118393200Y-54478522D01*
X118393200Y-53612400D01*
X118799600Y-53612400D01*
X118799600Y-54376031D01*
G36*
X117546454Y-53610953D02*
G01*
X117779137Y-53722388D01*
X117954734Y-53898190D01*
X118057369Y-54130728D01*
X118057924Y-54133099D01*
X118072033Y-54218733D01*
X118045916Y-54259443D01*
X117956013Y-54271920D01*
X117860767Y-54272799D01*
X117709743Y-54262908D01*
X117640739Y-54229250D01*
X117631200Y-54196600D01*
X117585580Y-54077284D01*
X117469386Y-53978313D01*
X117313617Y-53922417D01*
X117250200Y-53917200D01*
X117091788Y-53949422D01*
X116957073Y-54030934D01*
X116878070Y-54139003D01*
X116869200Y-54187744D01*
X116913875Y-54286623D01*
X117030842Y-54392681D01*
X117194509Y-54485861D01*
X117301000Y-54526179D01*
X117622227Y-54657101D01*
X117861568Y-54823589D01*
X118013817Y-55019850D01*
X118073763Y-55240087D01*
X118064360Y-55375614D01*
X117977866Y-55582787D01*
X117816055Y-55742546D01*
X117596787Y-55847976D01*
X117337924Y-55892166D01*
X117057325Y-55868199D01*
X116903937Y-55824800D01*
X116662470Y-55703204D01*
X116497291Y-55530811D01*
X116428772Y-55400863D01*
X116383745Y-55256460D01*
X116409191Y-55174874D01*
X116516183Y-55140646D01*
X116618198Y-55136400D01*
X116756886Y-55148715D01*
X116814235Y-55190311D01*
X116818400Y-55214909D01*
X116852138Y-55302213D01*
X116934247Y-55409068D01*
X116943090Y-55418109D01*
X117088117Y-55510105D01*
X117255448Y-55540221D01*
X117418344Y-55514537D01*
X117550068Y-55439131D01*
X117623880Y-55320079D01*
X117631200Y-55261690D01*
X117614493Y-55176559D01*
X117554671Y-55100222D01*
X117437176Y-55022330D01*
X117247454Y-54932536D01*
X117059655Y-54855378D01*
X116784272Y-54723387D01*
X116599990Y-54577340D01*
X116496333Y-54405540D01*
X116462830Y-54196290D01*
X116462800Y-54188794D01*
X116508508Y-53960797D01*
X116642414Y-53779107D01*
X116859686Y-53649184D01*
X116973338Y-53611716D01*
X117272562Y-53571518D01*
X117546454Y-53610953D01*
G37*
X117546454Y-53610953D02*
X117779137Y-53722388D01*
X117954734Y-53898190D01*
X118057369Y-54130728D01*
X118057924Y-54133099D01*
X118072033Y-54218733D01*
X118045916Y-54259443D01*
X117956013Y-54271920D01*
X117860767Y-54272799D01*
X117709743Y-54262908D01*
X117640739Y-54229250D01*
X117631200Y-54196600D01*
X117585580Y-54077284D01*
X117469386Y-53978313D01*
X117313617Y-53922417D01*
X117250200Y-53917200D01*
X117091788Y-53949422D01*
X116957073Y-54030934D01*
X116878070Y-54139003D01*
X116869200Y-54187744D01*
X116913875Y-54286623D01*
X117030842Y-54392681D01*
X117194509Y-54485861D01*
X117301000Y-54526179D01*
X117622227Y-54657101D01*
X117861568Y-54823589D01*
X118013817Y-55019850D01*
X118073763Y-55240087D01*
X118064360Y-55375614D01*
X117977866Y-55582787D01*
X117816055Y-55742546D01*
X117596787Y-55847976D01*
X117337924Y-55892166D01*
X117057325Y-55868199D01*
X116903937Y-55824800D01*
X116662470Y-55703204D01*
X116497291Y-55530811D01*
X116428772Y-55400863D01*
X116383745Y-55256460D01*
X116409191Y-55174874D01*
X116516183Y-55140646D01*
X116618198Y-55136400D01*
X116756886Y-55148715D01*
X116814235Y-55190311D01*
X116818400Y-55214909D01*
X116852138Y-55302213D01*
X116934247Y-55409068D01*
X116943090Y-55418109D01*
X117088117Y-55510105D01*
X117255448Y-55540221D01*
X117418344Y-55514537D01*
X117550068Y-55439131D01*
X117623880Y-55320079D01*
X117631200Y-55261690D01*
X117614493Y-55176559D01*
X117554671Y-55100222D01*
X117437176Y-55022330D01*
X117247454Y-54932536D01*
X117059655Y-54855378D01*
X116784272Y-54723387D01*
X116599990Y-54577340D01*
X116496333Y-54405540D01*
X116462830Y-54196290D01*
X116462800Y-54188794D01*
X116508508Y-53960797D01*
X116642414Y-53779107D01*
X116859686Y-53649184D01*
X116973338Y-53611716D01*
X117272562Y-53571518D01*
X117546454Y-53610953D01*
G36*
X134090400Y-56609600D02*
G01*
X113719600Y-56609600D01*
X113719600Y-56304800D01*
X134090400Y-56304800D01*
X134090400Y-56609600D01*
G37*
X134090400Y-56609600D02*
X113719600Y-56609600D01*
X113719600Y-56304800D01*
X134090400Y-56304800D01*
X134090400Y-56609600D01*
G36*
X127074621Y-57107990D02*
G01*
X127080000Y-57143000D01*
X127048802Y-57213060D01*
X126978664Y-57200506D01*
X126962847Y-57186714D01*
X126952574Y-57123389D01*
X127004062Y-57072044D01*
X127032198Y-57066800D01*
X127074621Y-57107990D01*
G37*
X127074621Y-57107990D02*
X127080000Y-57143000D01*
X127048802Y-57213060D01*
X126978664Y-57200506D01*
X126962847Y-57186714D01*
X126952574Y-57123389D01*
X127004062Y-57072044D01*
X127032198Y-57066800D01*
X127074621Y-57107990D01*
G36*
X125002472Y-57102552D02*
G01*
X125027479Y-57166211D01*
X125005136Y-57188894D01*
X124936326Y-57184403D01*
X124919423Y-57165848D01*
X124907575Y-57093730D01*
X124956716Y-57074306D01*
X125002472Y-57102552D01*
G37*
X125002472Y-57102552D02*
X125027479Y-57166211D01*
X125005136Y-57188894D01*
X124936326Y-57184403D01*
X124919423Y-57165848D01*
X124907575Y-57093730D01*
X124956716Y-57074306D01*
X125002472Y-57102552D01*
G36*
X123834072Y-57102552D02*
G01*
X123859079Y-57166211D01*
X123836736Y-57188894D01*
X123767926Y-57184403D01*
X123751023Y-57165848D01*
X123739175Y-57093730D01*
X123788316Y-57074306D01*
X123834072Y-57102552D01*
G37*
X123834072Y-57102552D02*
X123859079Y-57166211D01*
X123836736Y-57188894D01*
X123767926Y-57184403D01*
X123751023Y-57165848D01*
X123739175Y-57093730D01*
X123788316Y-57074306D01*
X123834072Y-57102552D01*
G36*
X121243272Y-57102552D02*
G01*
X121268279Y-57166211D01*
X121245936Y-57188894D01*
X121177126Y-57184403D01*
X121160223Y-57165848D01*
X121148375Y-57093730D01*
X121197516Y-57074306D01*
X121243272Y-57102552D01*
G37*
X121243272Y-57102552D02*
X121268279Y-57166211D01*
X121245936Y-57188894D01*
X121177126Y-57184403D01*
X121160223Y-57165848D01*
X121148375Y-57093730D01*
X121197516Y-57074306D01*
X121243272Y-57102552D01*
G36*
X131177067Y-57408318D02*
G01*
X131257016Y-57538843D01*
X131293806Y-57760488D01*
X131296400Y-57857828D01*
X131289150Y-58028942D01*
X131269982Y-58145936D01*
X131245600Y-58184400D01*
X131218328Y-58138298D01*
X131199914Y-58018627D01*
X131194800Y-57889759D01*
X131179386Y-57671141D01*
X131129146Y-57538133D01*
X131038078Y-57478919D01*
X130983227Y-57473200D01*
X130880097Y-57520085D01*
X130814871Y-57658729D01*
X130788843Y-57886116D01*
X130788400Y-57927060D01*
X130779374Y-58073043D01*
X130756267Y-58166297D01*
X130737600Y-58184400D01*
X130710411Y-58138231D01*
X130692024Y-58018083D01*
X130686800Y-57885820D01*
X130669204Y-57662851D01*
X130614314Y-57530706D01*
X130518972Y-57484517D01*
X130435237Y-57497826D01*
X130378049Y-57528714D01*
X130346497Y-57592093D01*
X130333343Y-57712988D01*
X130331200Y-57857623D01*
X130326020Y-58041742D01*
X130307529Y-58143635D01*
X130271300Y-58182287D01*
X130255000Y-58184400D01*
X130215902Y-58165258D01*
X130192438Y-58095806D01*
X130181225Y-57958004D01*
X130178800Y-57778000D01*
X130184741Y-57576740D01*
X130200961Y-57435311D01*
X130225055Y-57372954D01*
X130229600Y-57371600D01*
X130278932Y-57409461D01*
X130280400Y-57421310D01*
X130319223Y-57441408D01*
X130407400Y-57413156D01*
X130547493Y-57381242D01*
X130664303Y-57414479D01*
X130813612Y-57446210D01*
X130889563Y-57422633D01*
X131054426Y-57369414D01*
X131177067Y-57408318D01*
G37*
X131177067Y-57408318D02*
X131257016Y-57538843D01*
X131293806Y-57760488D01*
X131296400Y-57857828D01*
X131289150Y-58028942D01*
X131269982Y-58145936D01*
X131245600Y-58184400D01*
X131218328Y-58138298D01*
X131199914Y-58018627D01*
X131194800Y-57889759D01*
X131179386Y-57671141D01*
X131129146Y-57538133D01*
X131038078Y-57478919D01*
X130983227Y-57473200D01*
X130880097Y-57520085D01*
X130814871Y-57658729D01*
X130788843Y-57886116D01*
X130788400Y-57927060D01*
X130779374Y-58073043D01*
X130756267Y-58166297D01*
X130737600Y-58184400D01*
X130710411Y-58138231D01*
X130692024Y-58018083D01*
X130686800Y-57885820D01*
X130669204Y-57662851D01*
X130614314Y-57530706D01*
X130518972Y-57484517D01*
X130435237Y-57497826D01*
X130378049Y-57528714D01*
X130346497Y-57592093D01*
X130333343Y-57712988D01*
X130331200Y-57857623D01*
X130326020Y-58041742D01*
X130307529Y-58143635D01*
X130271300Y-58182287D01*
X130255000Y-58184400D01*
X130215902Y-58165258D01*
X130192438Y-58095806D01*
X130181225Y-57958004D01*
X130178800Y-57778000D01*
X130184741Y-57576740D01*
X130200961Y-57435311D01*
X130225055Y-57372954D01*
X130229600Y-57371600D01*
X130278932Y-57409461D01*
X130280400Y-57421310D01*
X130319223Y-57441408D01*
X130407400Y-57413156D01*
X130547493Y-57381242D01*
X130664303Y-57414479D01*
X130813612Y-57446210D01*
X130889563Y-57422633D01*
X131054426Y-57369414D01*
X131177067Y-57408318D01*
G36*
X129851084Y-57443469D02*
G01*
X129954135Y-57589754D01*
X129967614Y-57624527D01*
X129994379Y-57811935D01*
X129951075Y-57975697D01*
X129855494Y-58101010D01*
X129725431Y-58173069D01*
X129578679Y-58177070D01*
X129433032Y-58098208D01*
X129416800Y-58082800D01*
X129331897Y-57926055D01*
X129315200Y-57778000D01*
X129416800Y-57778000D01*
X129449765Y-57924857D01*
X129532224Y-58029764D01*
X129639522Y-58080133D01*
X129747006Y-58063380D01*
X129821412Y-57984539D01*
X129867966Y-57825381D01*
X129853305Y-57668239D01*
X129787474Y-57542302D01*
X129680523Y-57476756D01*
X129645400Y-57473200D01*
X129534540Y-57518419D01*
X129449977Y-57631771D01*
X129416800Y-57778000D01*
X129315200Y-57778000D01*
X129351384Y-57586313D01*
X129445187Y-57451812D01*
X129574487Y-57379702D01*
X129717161Y-57375186D01*
X129851084Y-57443469D01*
G37*
X129851084Y-57443469D02*
X129954135Y-57589754D01*
X129967614Y-57624527D01*
X129994379Y-57811935D01*
X129951075Y-57975697D01*
X129855494Y-58101010D01*
X129725431Y-58173069D01*
X129578679Y-58177070D01*
X129433032Y-58098208D01*
X129416800Y-58082800D01*
X129331897Y-57926055D01*
X129315200Y-57778000D01*
X129416800Y-57778000D01*
X129449765Y-57924857D01*
X129532224Y-58029764D01*
X129639522Y-58080133D01*
X129747006Y-58063380D01*
X129821412Y-57984539D01*
X129867966Y-57825381D01*
X129853305Y-57668239D01*
X129787474Y-57542302D01*
X129680523Y-57476756D01*
X129645400Y-57473200D01*
X129534540Y-57518419D01*
X129449977Y-57631771D01*
X129416800Y-57778000D01*
X129315200Y-57778000D01*
X129351384Y-57586313D01*
X129445187Y-57451812D01*
X129574487Y-57379702D01*
X129717161Y-57375186D01*
X129851084Y-57443469D01*
G36*
X128914545Y-57402789D02*
G01*
X129029965Y-57477333D01*
X129103189Y-57566696D01*
X129112000Y-57603080D01*
X129089622Y-57670027D01*
X129032848Y-57651618D01*
X128971389Y-57574800D01*
X128875226Y-57482965D01*
X128772576Y-57477930D01*
X128681464Y-57547895D01*
X128619916Y-57681059D01*
X128604000Y-57815300D01*
X128637494Y-57977219D01*
X128725029Y-58065702D01*
X128847184Y-58070994D01*
X128968611Y-57998444D01*
X129052149Y-57947856D01*
X129099611Y-57952017D01*
X129094640Y-58005467D01*
X129027344Y-58077330D01*
X128927927Y-58144057D01*
X128826592Y-58182096D01*
X128801572Y-58184400D01*
X128695546Y-58150110D01*
X128604000Y-58082800D01*
X128522221Y-57944609D01*
X128500783Y-57777666D01*
X128532122Y-57610001D01*
X128608674Y-57469647D01*
X128722877Y-57384634D01*
X128795896Y-57371600D01*
X128914545Y-57402789D01*
G37*
X128914545Y-57402789D02*
X129029965Y-57477333D01*
X129103189Y-57566696D01*
X129112000Y-57603080D01*
X129089622Y-57670027D01*
X129032848Y-57651618D01*
X128971389Y-57574800D01*
X128875226Y-57482965D01*
X128772576Y-57477930D01*
X128681464Y-57547895D01*
X128619916Y-57681059D01*
X128604000Y-57815300D01*
X128637494Y-57977219D01*
X128725029Y-58065702D01*
X128847184Y-58070994D01*
X128968611Y-57998444D01*
X129052149Y-57947856D01*
X129099611Y-57952017D01*
X129094640Y-58005467D01*
X129027344Y-58077330D01*
X128927927Y-58144057D01*
X128826592Y-58182096D01*
X128801572Y-58184400D01*
X128695546Y-58150110D01*
X128604000Y-58082800D01*
X128522221Y-57944609D01*
X128500783Y-57777666D01*
X128532122Y-57610001D01*
X128608674Y-57469647D01*
X128722877Y-57384634D01*
X128795896Y-57371600D01*
X128914545Y-57402789D01*
G36*
X128243021Y-58073190D02*
G01*
X128248400Y-58108200D01*
X128217202Y-58178260D01*
X128147064Y-58165706D01*
X128131247Y-58151914D01*
X128120974Y-58088589D01*
X128172462Y-58037244D01*
X128200598Y-58032000D01*
X128243021Y-58073190D01*
G37*
X128243021Y-58073190D02*
X128248400Y-58108200D01*
X128217202Y-58178260D01*
X128147064Y-58165706D01*
X128131247Y-58151914D01*
X128120974Y-58088589D01*
X128172462Y-58037244D01*
X128200598Y-58032000D01*
X128243021Y-58073190D01*
G36*
X127695345Y-57402789D02*
G01*
X127810765Y-57477333D01*
X127883989Y-57566696D01*
X127892800Y-57603080D01*
X127870422Y-57670027D01*
X127813648Y-57651618D01*
X127752189Y-57574800D01*
X127656026Y-57482965D01*
X127553376Y-57477930D01*
X127462264Y-57547895D01*
X127400716Y-57681059D01*
X127384800Y-57815300D01*
X127418294Y-57977219D01*
X127505829Y-58065702D01*
X127627984Y-58070994D01*
X127749411Y-57998444D01*
X127832949Y-57947856D01*
X127880411Y-57952017D01*
X127875440Y-58005467D01*
X127808144Y-58077330D01*
X127708727Y-58144057D01*
X127607392Y-58182096D01*
X127582372Y-58184400D01*
X127476346Y-58150110D01*
X127384800Y-58082800D01*
X127303021Y-57944609D01*
X127281583Y-57777666D01*
X127312922Y-57610001D01*
X127389474Y-57469647D01*
X127503677Y-57384634D01*
X127576696Y-57371600D01*
X127695345Y-57402789D01*
G37*
X127695345Y-57402789D02*
X127810765Y-57477333D01*
X127883989Y-57566696D01*
X127892800Y-57603080D01*
X127870422Y-57670027D01*
X127813648Y-57651618D01*
X127752189Y-57574800D01*
X127656026Y-57482965D01*
X127553376Y-57477930D01*
X127462264Y-57547895D01*
X127400716Y-57681059D01*
X127384800Y-57815300D01*
X127418294Y-57977219D01*
X127505829Y-58065702D01*
X127627984Y-58070994D01*
X127749411Y-57998444D01*
X127832949Y-57947856D01*
X127880411Y-57952017D01*
X127875440Y-58005467D01*
X127808144Y-58077330D01*
X127708727Y-58144057D01*
X127607392Y-58182096D01*
X127582372Y-58184400D01*
X127476346Y-58150110D01*
X127384800Y-58082800D01*
X127303021Y-57944609D01*
X127281583Y-57777666D01*
X127312922Y-57610001D01*
X127389474Y-57469647D01*
X127503677Y-57384634D01*
X127576696Y-57371600D01*
X127695345Y-57402789D01*
G36*
X127042897Y-57390741D02*
G01*
X127066361Y-57460193D01*
X127077574Y-57597995D01*
X127080000Y-57778000D01*
X127076410Y-57986520D01*
X127063388Y-58111661D01*
X127037550Y-58171462D01*
X127003800Y-58184400D01*
X126964702Y-58165258D01*
X126941238Y-58095806D01*
X126930025Y-57958004D01*
X126927600Y-57778000D01*
X126931189Y-57569479D01*
X126944211Y-57444338D01*
X126970049Y-57384537D01*
X127003800Y-57371600D01*
X127042897Y-57390741D01*
G37*
X127042897Y-57390741D02*
X127066361Y-57460193D01*
X127077574Y-57597995D01*
X127080000Y-57778000D01*
X127076410Y-57986520D01*
X127063388Y-58111661D01*
X127037550Y-58171462D01*
X127003800Y-58184400D01*
X126964702Y-58165258D01*
X126941238Y-58095806D01*
X126930025Y-57958004D01*
X126927600Y-57778000D01*
X126931189Y-57569479D01*
X126944211Y-57444338D01*
X126970049Y-57384537D01*
X127003800Y-57371600D01*
X127042897Y-57390741D01*
G36*
X126526945Y-57402789D02*
G01*
X126642365Y-57477333D01*
X126715589Y-57566696D01*
X126724400Y-57603080D01*
X126702022Y-57670027D01*
X126645248Y-57651618D01*
X126583789Y-57574800D01*
X126487626Y-57482965D01*
X126384976Y-57477930D01*
X126293864Y-57547895D01*
X126232316Y-57681059D01*
X126216400Y-57815300D01*
X126249894Y-57977219D01*
X126337429Y-58065702D01*
X126459584Y-58070994D01*
X126581011Y-57998444D01*
X126664549Y-57947856D01*
X126712011Y-57952017D01*
X126707040Y-58005467D01*
X126639744Y-58077330D01*
X126540327Y-58144057D01*
X126438992Y-58182096D01*
X126413972Y-58184400D01*
X126307946Y-58150110D01*
X126216400Y-58082800D01*
X126134621Y-57944609D01*
X126113183Y-57777666D01*
X126144522Y-57610001D01*
X126221074Y-57469647D01*
X126335277Y-57384634D01*
X126408296Y-57371600D01*
X126526945Y-57402789D01*
G37*
X126526945Y-57402789D02*
X126642365Y-57477333D01*
X126715589Y-57566696D01*
X126724400Y-57603080D01*
X126702022Y-57670027D01*
X126645248Y-57651618D01*
X126583789Y-57574800D01*
X126487626Y-57482965D01*
X126384976Y-57477930D01*
X126293864Y-57547895D01*
X126232316Y-57681059D01*
X126216400Y-57815300D01*
X126249894Y-57977219D01*
X126337429Y-58065702D01*
X126459584Y-58070994D01*
X126581011Y-57998444D01*
X126664549Y-57947856D01*
X126712011Y-57952017D01*
X126707040Y-58005467D01*
X126639744Y-58077330D01*
X126540327Y-58144057D01*
X126438992Y-58182096D01*
X126413972Y-58184400D01*
X126307946Y-58150110D01*
X126216400Y-58082800D01*
X126134621Y-57944609D01*
X126113183Y-57777666D01*
X126144522Y-57610001D01*
X126221074Y-57469647D01*
X126335277Y-57384634D01*
X126408296Y-57371600D01*
X126526945Y-57402789D01*
G36*
X125787084Y-57443469D02*
G01*
X125890135Y-57589754D01*
X125903614Y-57624527D01*
X125930379Y-57811935D01*
X125887075Y-57975697D01*
X125791494Y-58101010D01*
X125661431Y-58173069D01*
X125514679Y-58177070D01*
X125369032Y-58098208D01*
X125352800Y-58082800D01*
X125267897Y-57926055D01*
X125251200Y-57778000D01*
X125352800Y-57778000D01*
X125385765Y-57924857D01*
X125468224Y-58029764D01*
X125575522Y-58080133D01*
X125683006Y-58063380D01*
X125757412Y-57984539D01*
X125803966Y-57825381D01*
X125789305Y-57668239D01*
X125723474Y-57542302D01*
X125616523Y-57476756D01*
X125581400Y-57473200D01*
X125470540Y-57518419D01*
X125385977Y-57631771D01*
X125352800Y-57778000D01*
X125251200Y-57778000D01*
X125287384Y-57586313D01*
X125381187Y-57451812D01*
X125510487Y-57379702D01*
X125653161Y-57375186D01*
X125787084Y-57443469D01*
G37*
X125787084Y-57443469D02*
X125890135Y-57589754D01*
X125903614Y-57624527D01*
X125930379Y-57811935D01*
X125887075Y-57975697D01*
X125791494Y-58101010D01*
X125661431Y-58173069D01*
X125514679Y-58177070D01*
X125369032Y-58098208D01*
X125352800Y-58082800D01*
X125267897Y-57926055D01*
X125251200Y-57778000D01*
X125352800Y-57778000D01*
X125385765Y-57924857D01*
X125468224Y-58029764D01*
X125575522Y-58080133D01*
X125683006Y-58063380D01*
X125757412Y-57984539D01*
X125803966Y-57825381D01*
X125789305Y-57668239D01*
X125723474Y-57542302D01*
X125616523Y-57476756D01*
X125581400Y-57473200D01*
X125470540Y-57518419D01*
X125385977Y-57631771D01*
X125352800Y-57778000D01*
X125251200Y-57778000D01*
X125287384Y-57586313D01*
X125381187Y-57451812D01*
X125510487Y-57379702D01*
X125653161Y-57375186D01*
X125787084Y-57443469D01*
G36*
X124520177Y-57416462D02*
G01*
X124643689Y-57530564D01*
X124719682Y-57683174D01*
X124721140Y-57689100D01*
X124754214Y-57828800D01*
X124469307Y-57828800D01*
X124299572Y-57835234D01*
X124211177Y-57858093D01*
X124184470Y-57902706D01*
X124184400Y-57906089D01*
X124228082Y-57993803D01*
X124332934Y-58052082D01*
X124459667Y-58066662D01*
X124548710Y-58038349D01*
X124646974Y-57999547D01*
X124688128Y-58021001D01*
X124653788Y-58083383D01*
X124619110Y-58112353D01*
X124452818Y-58178896D01*
X124284627Y-58152642D01*
X124184400Y-58082800D01*
X124101636Y-57943325D01*
X124080460Y-57775799D01*
X124099113Y-57680028D01*
X124184400Y-57680028D01*
X124229476Y-57709570D01*
X124342079Y-57725998D01*
X124387600Y-57727200D01*
X124535036Y-57711621D01*
X124590493Y-57666014D01*
X124590800Y-57661160D01*
X124549730Y-57559267D01*
X124457739Y-57485030D01*
X124406468Y-57473200D01*
X124320116Y-57509070D01*
X124231501Y-57589107D01*
X124185034Y-57671947D01*
X124184400Y-57680028D01*
X124099113Y-57680028D01*
X124113116Y-57608138D01*
X124191848Y-57468262D01*
X124308899Y-57384089D01*
X124381972Y-57371600D01*
X124520177Y-57416462D01*
G37*
X124520177Y-57416462D02*
X124643689Y-57530564D01*
X124719682Y-57683174D01*
X124721140Y-57689100D01*
X124754214Y-57828800D01*
X124469307Y-57828800D01*
X124299572Y-57835234D01*
X124211177Y-57858093D01*
X124184470Y-57902706D01*
X124184400Y-57906089D01*
X124228082Y-57993803D01*
X124332934Y-58052082D01*
X124459667Y-58066662D01*
X124548710Y-58038349D01*
X124646974Y-57999547D01*
X124688128Y-58021001D01*
X124653788Y-58083383D01*
X124619110Y-58112353D01*
X124452818Y-58178896D01*
X124284627Y-58152642D01*
X124184400Y-58082800D01*
X124101636Y-57943325D01*
X124080460Y-57775799D01*
X124099113Y-57680028D01*
X124184400Y-57680028D01*
X124229476Y-57709570D01*
X124342079Y-57725998D01*
X124387600Y-57727200D01*
X124535036Y-57711621D01*
X124590493Y-57666014D01*
X124590800Y-57661160D01*
X124549730Y-57559267D01*
X124457739Y-57485030D01*
X124406468Y-57473200D01*
X124320116Y-57509070D01*
X124231501Y-57589107D01*
X124185034Y-57671947D01*
X124184400Y-57680028D01*
X124099113Y-57680028D01*
X124113116Y-57608138D01*
X124191848Y-57468262D01*
X124308899Y-57384089D01*
X124381972Y-57371600D01*
X124520177Y-57416462D01*
G36*
X123481261Y-57031607D02*
G01*
X123503541Y-57088973D01*
X123516702Y-57203915D01*
X123522808Y-57392250D01*
X123524000Y-57600200D01*
X123521964Y-57856738D01*
X123514481Y-58027550D01*
X123499489Y-58128453D01*
X123474923Y-58175263D01*
X123447800Y-58184400D01*
X123380286Y-58151620D01*
X123371600Y-58123440D01*
X123356605Y-58088097D01*
X123310640Y-58123440D01*
X123190454Y-58180726D01*
X123052021Y-58148756D01*
X122965200Y-58082800D01*
X122880297Y-57926055D01*
X122868288Y-57819563D01*
X122972923Y-57819563D01*
X123015710Y-57957680D01*
X123099367Y-58055492D01*
X123187268Y-58082800D01*
X123275556Y-58049882D01*
X123310640Y-58021840D01*
X123356093Y-57926452D01*
X123372748Y-57787316D01*
X123362082Y-57643934D01*
X123325575Y-57535807D01*
X123291245Y-57504035D01*
X123174308Y-57476210D01*
X123085845Y-57515351D01*
X123045028Y-57553028D01*
X122979773Y-57673794D01*
X122972923Y-57819563D01*
X122868288Y-57819563D01*
X122863600Y-57778000D01*
X122895086Y-57600591D01*
X122976614Y-57464192D01*
X123088785Y-57383791D01*
X123212203Y-57374377D01*
X123310640Y-57432559D01*
X123348024Y-57448468D01*
X123366747Y-57390294D01*
X123371600Y-57254759D01*
X123380771Y-57100426D01*
X123412204Y-57027945D01*
X123447800Y-57016000D01*
X123481261Y-57031607D01*
G37*
X123481261Y-57031607D02*
X123503541Y-57088973D01*
X123516702Y-57203915D01*
X123522808Y-57392250D01*
X123524000Y-57600200D01*
X123521964Y-57856738D01*
X123514481Y-58027550D01*
X123499489Y-58128453D01*
X123474923Y-58175263D01*
X123447800Y-58184400D01*
X123380286Y-58151620D01*
X123371600Y-58123440D01*
X123356605Y-58088097D01*
X123310640Y-58123440D01*
X123190454Y-58180726D01*
X123052021Y-58148756D01*
X122965200Y-58082800D01*
X122880297Y-57926055D01*
X122868288Y-57819563D01*
X122972923Y-57819563D01*
X123015710Y-57957680D01*
X123099367Y-58055492D01*
X123187268Y-58082800D01*
X123275556Y-58049882D01*
X123310640Y-58021840D01*
X123356093Y-57926452D01*
X123372748Y-57787316D01*
X123362082Y-57643934D01*
X123325575Y-57535807D01*
X123291245Y-57504035D01*
X123174308Y-57476210D01*
X123085845Y-57515351D01*
X123045028Y-57553028D01*
X122979773Y-57673794D01*
X122972923Y-57819563D01*
X122868288Y-57819563D01*
X122863600Y-57778000D01*
X122895086Y-57600591D01*
X122976614Y-57464192D01*
X123088785Y-57383791D01*
X123212203Y-57374377D01*
X123310640Y-57432559D01*
X123348024Y-57448468D01*
X123366747Y-57390294D01*
X123371600Y-57254759D01*
X123380771Y-57100426D01*
X123412204Y-57027945D01*
X123447800Y-57016000D01*
X123481261Y-57031607D01*
G36*
X122546100Y-57399877D02*
G01*
X122695872Y-57410890D01*
X122754296Y-57425804D01*
X122731429Y-57454756D01*
X122647700Y-57502256D01*
X122569165Y-57554009D01*
X122527252Y-57620550D01*
X122510654Y-57732558D01*
X122508000Y-57881222D01*
X122502092Y-58057671D01*
X122481162Y-58152176D01*
X122440398Y-58183877D01*
X122431800Y-58184400D01*
X122392360Y-58165008D01*
X122368852Y-58094735D01*
X122357803Y-57955432D01*
X122355600Y-57786177D01*
X122355600Y-57387955D01*
X122546100Y-57399877D01*
G37*
X122546100Y-57399877D02*
X122695872Y-57410890D01*
X122754296Y-57425804D01*
X122731429Y-57454756D01*
X122647700Y-57502256D01*
X122569165Y-57554009D01*
X122527252Y-57620550D01*
X122510654Y-57732558D01*
X122508000Y-57881222D01*
X122502092Y-58057671D01*
X122481162Y-58152176D01*
X122440398Y-58183877D01*
X122431800Y-58184400D01*
X122392360Y-58165008D01*
X122368852Y-58094735D01*
X122357803Y-57955432D01*
X122355600Y-57786177D01*
X122355600Y-57387955D01*
X122546100Y-57399877D01*
G36*
X122027884Y-57443469D02*
G01*
X122130935Y-57589754D01*
X122144414Y-57624527D01*
X122171179Y-57811935D01*
X122127875Y-57975697D01*
X122032294Y-58101010D01*
X121902231Y-58173069D01*
X121755479Y-58177070D01*
X121609832Y-58098208D01*
X121593600Y-58082800D01*
X121508697Y-57926055D01*
X121492000Y-57778000D01*
X121593600Y-57778000D01*
X121626565Y-57924857D01*
X121709024Y-58029764D01*
X121816322Y-58080133D01*
X121923806Y-58063380D01*
X121998212Y-57984539D01*
X122044766Y-57825381D01*
X122030105Y-57668239D01*
X121964274Y-57542302D01*
X121857323Y-57476756D01*
X121822200Y-57473200D01*
X121711340Y-57518419D01*
X121626777Y-57631771D01*
X121593600Y-57778000D01*
X121492000Y-57778000D01*
X121528184Y-57586313D01*
X121621987Y-57451812D01*
X121751287Y-57379702D01*
X121893961Y-57375186D01*
X122027884Y-57443469D01*
G37*
X122027884Y-57443469D02*
X122130935Y-57589754D01*
X122144414Y-57624527D01*
X122171179Y-57811935D01*
X122127875Y-57975697D01*
X122032294Y-58101010D01*
X121902231Y-58173069D01*
X121755479Y-58177070D01*
X121609832Y-58098208D01*
X121593600Y-58082800D01*
X121508697Y-57926055D01*
X121492000Y-57778000D01*
X121593600Y-57778000D01*
X121626565Y-57924857D01*
X121709024Y-58029764D01*
X121816322Y-58080133D01*
X121923806Y-58063380D01*
X121998212Y-57984539D01*
X122044766Y-57825381D01*
X122030105Y-57668239D01*
X121964274Y-57542302D01*
X121857323Y-57476756D01*
X121822200Y-57473200D01*
X121711340Y-57518419D01*
X121626777Y-57631771D01*
X121593600Y-57778000D01*
X121492000Y-57778000D01*
X121528184Y-57586313D01*
X121621987Y-57451812D01*
X121751287Y-57379702D01*
X121893961Y-57375186D01*
X122027884Y-57443469D01*
G36*
X120890461Y-57031607D02*
G01*
X120912741Y-57088973D01*
X120925902Y-57203915D01*
X120932008Y-57392250D01*
X120933200Y-57600200D01*
X120931164Y-57856738D01*
X120923681Y-58027550D01*
X120908689Y-58128453D01*
X120884123Y-58175263D01*
X120857000Y-58184400D01*
X120789486Y-58151620D01*
X120780800Y-58123440D01*
X120765805Y-58088097D01*
X120719840Y-58123440D01*
X120599654Y-58180726D01*
X120461221Y-58148756D01*
X120374400Y-58082800D01*
X120289497Y-57926055D01*
X120277488Y-57819563D01*
X120382123Y-57819563D01*
X120424910Y-57957680D01*
X120508567Y-58055492D01*
X120596468Y-58082800D01*
X120684756Y-58049882D01*
X120719840Y-58021840D01*
X120765293Y-57926452D01*
X120781948Y-57787316D01*
X120771282Y-57643934D01*
X120734775Y-57535807D01*
X120700445Y-57504035D01*
X120583508Y-57476210D01*
X120495045Y-57515351D01*
X120454228Y-57553028D01*
X120388973Y-57673794D01*
X120382123Y-57819563D01*
X120277488Y-57819563D01*
X120272800Y-57778000D01*
X120304286Y-57600591D01*
X120385814Y-57464192D01*
X120497985Y-57383791D01*
X120621403Y-57374377D01*
X120719840Y-57432559D01*
X120757224Y-57448468D01*
X120775947Y-57390294D01*
X120780800Y-57254759D01*
X120789971Y-57100426D01*
X120821404Y-57027945D01*
X120857000Y-57016000D01*
X120890461Y-57031607D01*
G37*
X120890461Y-57031607D02*
X120912741Y-57088973D01*
X120925902Y-57203915D01*
X120932008Y-57392250D01*
X120933200Y-57600200D01*
X120931164Y-57856738D01*
X120923681Y-58027550D01*
X120908689Y-58128453D01*
X120884123Y-58175263D01*
X120857000Y-58184400D01*
X120789486Y-58151620D01*
X120780800Y-58123440D01*
X120765805Y-58088097D01*
X120719840Y-58123440D01*
X120599654Y-58180726D01*
X120461221Y-58148756D01*
X120374400Y-58082800D01*
X120289497Y-57926055D01*
X120277488Y-57819563D01*
X120382123Y-57819563D01*
X120424910Y-57957680D01*
X120508567Y-58055492D01*
X120596468Y-58082800D01*
X120684756Y-58049882D01*
X120719840Y-58021840D01*
X120765293Y-57926452D01*
X120781948Y-57787316D01*
X120771282Y-57643934D01*
X120734775Y-57535807D01*
X120700445Y-57504035D01*
X120583508Y-57476210D01*
X120495045Y-57515351D01*
X120454228Y-57553028D01*
X120388973Y-57673794D01*
X120382123Y-57819563D01*
X120277488Y-57819563D01*
X120272800Y-57778000D01*
X120304286Y-57600591D01*
X120385814Y-57464192D01*
X120497985Y-57383791D01*
X120621403Y-57374377D01*
X120719840Y-57432559D01*
X120757224Y-57448468D01*
X120775947Y-57390294D01*
X120780800Y-57254759D01*
X120789971Y-57100426D01*
X120821404Y-57027945D01*
X120857000Y-57016000D01*
X120890461Y-57031607D01*
G36*
X120013421Y-58073190D02*
G01*
X120018800Y-58108200D01*
X119987602Y-58178260D01*
X119917464Y-58165706D01*
X119901647Y-58151914D01*
X119891374Y-58088589D01*
X119942862Y-58037244D01*
X119970998Y-58032000D01*
X120013421Y-58073190D01*
G37*
X120013421Y-58073190D02*
X120018800Y-58108200D01*
X119987602Y-58178260D01*
X119917464Y-58165706D01*
X119901647Y-58151914D01*
X119891374Y-58088589D01*
X119942862Y-58037244D01*
X119970998Y-58032000D01*
X120013421Y-58073190D01*
G36*
X119800252Y-57391251D02*
G01*
X119798654Y-57409700D01*
X119774010Y-57473894D01*
X119729965Y-57608513D01*
X119675353Y-57786385D01*
X119666505Y-57816100D01*
X119608383Y-57992119D01*
X119554088Y-58122341D01*
X119513883Y-58182782D01*
X119508862Y-58184400D01*
X119471139Y-58139465D01*
X119421070Y-58022392D01*
X119375654Y-57879492D01*
X119327869Y-57726289D01*
X119286657Y-57626788D01*
X119262726Y-57602740D01*
X119233301Y-57663718D01*
X119188155Y-57789824D01*
X119156198Y-57890910D01*
X119102812Y-58039907D01*
X119050192Y-58142312D01*
X119023458Y-58169047D01*
X118985695Y-58132417D01*
X118933614Y-58018654D01*
X118876616Y-57849415D01*
X118860876Y-57794387D01*
X118812826Y-57609221D01*
X118781121Y-57465556D01*
X118771015Y-57388007D01*
X118772751Y-57381515D01*
X118826531Y-57379214D01*
X118880509Y-57458163D01*
X118921939Y-57598840D01*
X118924674Y-57614205D01*
X118963829Y-57796323D01*
X119004920Y-57877563D01*
X119051383Y-57858633D01*
X119106651Y-57740246D01*
X119134406Y-57657581D01*
X119190186Y-57507686D01*
X119243150Y-57409950D01*
X119275785Y-57386395D01*
X119316621Y-57441056D01*
X119367313Y-57563401D01*
X119399689Y-57666827D01*
X119446475Y-57813006D01*
X119488846Y-57908715D01*
X119509222Y-57930400D01*
X119539006Y-57885239D01*
X119578269Y-57768555D01*
X119607959Y-57651000D01*
X119663352Y-57464575D01*
X119723518Y-57378059D01*
X119746041Y-57371600D01*
X119800252Y-57391251D01*
G37*
X119800252Y-57391251D02*
X119798654Y-57409700D01*
X119774010Y-57473894D01*
X119729965Y-57608513D01*
X119675353Y-57786385D01*
X119666505Y-57816100D01*
X119608383Y-57992119D01*
X119554088Y-58122341D01*
X119513883Y-58182782D01*
X119508862Y-58184400D01*
X119471139Y-58139465D01*
X119421070Y-58022392D01*
X119375654Y-57879492D01*
X119327869Y-57726289D01*
X119286657Y-57626788D01*
X119262726Y-57602740D01*
X119233301Y-57663718D01*
X119188155Y-57789824D01*
X119156198Y-57890910D01*
X119102812Y-58039907D01*
X119050192Y-58142312D01*
X119023458Y-58169047D01*
X118985695Y-58132417D01*
X118933614Y-58018654D01*
X118876616Y-57849415D01*
X118860876Y-57794387D01*
X118812826Y-57609221D01*
X118781121Y-57465556D01*
X118771015Y-57388007D01*
X118772751Y-57381515D01*
X118826531Y-57379214D01*
X118880509Y-57458163D01*
X118921939Y-57598840D01*
X118924674Y-57614205D01*
X118963829Y-57796323D01*
X119004920Y-57877563D01*
X119051383Y-57858633D01*
X119106651Y-57740246D01*
X119134406Y-57657581D01*
X119190186Y-57507686D01*
X119243150Y-57409950D01*
X119275785Y-57386395D01*
X119316621Y-57441056D01*
X119367313Y-57563401D01*
X119399689Y-57666827D01*
X119446475Y-57813006D01*
X119488846Y-57908715D01*
X119509222Y-57930400D01*
X119539006Y-57885239D01*
X119578269Y-57768555D01*
X119607959Y-57651000D01*
X119663352Y-57464575D01*
X119723518Y-57378059D01*
X119746041Y-57371600D01*
X119800252Y-57391251D01*
G36*
X118631852Y-57391251D02*
G01*
X118630254Y-57409700D01*
X118605610Y-57473894D01*
X118561565Y-57608513D01*
X118506953Y-57786385D01*
X118498105Y-57816100D01*
X118439983Y-57992119D01*
X118385688Y-58122341D01*
X118345483Y-58182782D01*
X118340462Y-58184400D01*
X118302739Y-58139465D01*
X118252670Y-58022392D01*
X118207254Y-57879492D01*
X118159469Y-57726289D01*
X118118257Y-57626788D01*
X118094326Y-57602740D01*
X118064901Y-57663718D01*
X118019755Y-57789824D01*
X117987798Y-57890910D01*
X117934412Y-58039907D01*
X117881792Y-58142312D01*
X117855058Y-58169047D01*
X117817295Y-58132417D01*
X117765214Y-58018654D01*
X117708216Y-57849415D01*
X117692476Y-57794387D01*
X117644426Y-57609221D01*
X117612721Y-57465556D01*
X117602615Y-57388007D01*
X117604351Y-57381515D01*
X117658131Y-57379214D01*
X117712109Y-57458163D01*
X117753539Y-57598840D01*
X117756274Y-57614205D01*
X117795429Y-57796323D01*
X117836520Y-57877563D01*
X117882983Y-57858633D01*
X117938251Y-57740246D01*
X117966006Y-57657581D01*
X118021786Y-57507686D01*
X118074750Y-57409950D01*
X118107385Y-57386395D01*
X118148221Y-57441056D01*
X118198913Y-57563401D01*
X118231289Y-57666827D01*
X118278075Y-57813006D01*
X118320446Y-57908715D01*
X118340822Y-57930400D01*
X118370606Y-57885239D01*
X118409869Y-57768555D01*
X118439559Y-57651000D01*
X118494952Y-57464575D01*
X118555118Y-57378059D01*
X118577641Y-57371600D01*
X118631852Y-57391251D01*
G37*
X118631852Y-57391251D02*
X118630254Y-57409700D01*
X118605610Y-57473894D01*
X118561565Y-57608513D01*
X118506953Y-57786385D01*
X118498105Y-57816100D01*
X118439983Y-57992119D01*
X118385688Y-58122341D01*
X118345483Y-58182782D01*
X118340462Y-58184400D01*
X118302739Y-58139465D01*
X118252670Y-58022392D01*
X118207254Y-57879492D01*
X118159469Y-57726289D01*
X118118257Y-57626788D01*
X118094326Y-57602740D01*
X118064901Y-57663718D01*
X118019755Y-57789824D01*
X117987798Y-57890910D01*
X117934412Y-58039907D01*
X117881792Y-58142312D01*
X117855058Y-58169047D01*
X117817295Y-58132417D01*
X117765214Y-58018654D01*
X117708216Y-57849415D01*
X117692476Y-57794387D01*
X117644426Y-57609221D01*
X117612721Y-57465556D01*
X117602615Y-57388007D01*
X117604351Y-57381515D01*
X117658131Y-57379214D01*
X117712109Y-57458163D01*
X117753539Y-57598840D01*
X117756274Y-57614205D01*
X117795429Y-57796323D01*
X117836520Y-57877563D01*
X117882983Y-57858633D01*
X117938251Y-57740246D01*
X117966006Y-57657581D01*
X118021786Y-57507686D01*
X118074750Y-57409950D01*
X118107385Y-57386395D01*
X118148221Y-57441056D01*
X118198913Y-57563401D01*
X118231289Y-57666827D01*
X118278075Y-57813006D01*
X118320446Y-57908715D01*
X118340822Y-57930400D01*
X118370606Y-57885239D01*
X118409869Y-57768555D01*
X118439559Y-57651000D01*
X118494952Y-57464575D01*
X118555118Y-57378059D01*
X118577641Y-57371600D01*
X118631852Y-57391251D01*
G36*
X117463452Y-57391251D02*
G01*
X117461854Y-57409700D01*
X117437210Y-57473894D01*
X117393165Y-57608513D01*
X117338553Y-57786385D01*
X117329705Y-57816100D01*
X117271583Y-57992119D01*
X117217288Y-58122341D01*
X117177083Y-58182782D01*
X117172062Y-58184400D01*
X117134339Y-58139465D01*
X117084270Y-58022392D01*
X117038854Y-57879492D01*
X116991069Y-57726289D01*
X116949857Y-57626788D01*
X116925926Y-57602740D01*
X116896501Y-57663718D01*
X116851355Y-57789824D01*
X116819398Y-57890910D01*
X116766012Y-58039907D01*
X116713392Y-58142312D01*
X116686658Y-58169047D01*
X116648895Y-58132417D01*
X116596814Y-58018654D01*
X116539816Y-57849415D01*
X116524076Y-57794387D01*
X116476026Y-57609221D01*
X116444321Y-57465556D01*
X116434215Y-57388007D01*
X116435951Y-57381515D01*
X116489731Y-57379214D01*
X116543709Y-57458163D01*
X116585139Y-57598840D01*
X116587874Y-57614205D01*
X116627029Y-57796323D01*
X116668120Y-57877563D01*
X116714583Y-57858633D01*
X116769851Y-57740246D01*
X116797606Y-57657581D01*
X116853386Y-57507686D01*
X116906350Y-57409950D01*
X116938985Y-57386395D01*
X116979821Y-57441056D01*
X117030513Y-57563401D01*
X117062889Y-57666827D01*
X117109675Y-57813006D01*
X117152046Y-57908715D01*
X117172422Y-57930400D01*
X117202206Y-57885239D01*
X117241469Y-57768555D01*
X117271159Y-57651000D01*
X117326552Y-57464575D01*
X117386718Y-57378059D01*
X117409241Y-57371600D01*
X117463452Y-57391251D01*
G37*
X117463452Y-57391251D02*
X117461854Y-57409700D01*
X117437210Y-57473894D01*
X117393165Y-57608513D01*
X117338553Y-57786385D01*
X117329705Y-57816100D01*
X117271583Y-57992119D01*
X117217288Y-58122341D01*
X117177083Y-58182782D01*
X117172062Y-58184400D01*
X117134339Y-58139465D01*
X117084270Y-58022392D01*
X117038854Y-57879492D01*
X116991069Y-57726289D01*
X116949857Y-57626788D01*
X116925926Y-57602740D01*
X116896501Y-57663718D01*
X116851355Y-57789824D01*
X116819398Y-57890910D01*
X116766012Y-58039907D01*
X116713392Y-58142312D01*
X116686658Y-58169047D01*
X116648895Y-58132417D01*
X116596814Y-58018654D01*
X116539816Y-57849415D01*
X116524076Y-57794387D01*
X116476026Y-57609221D01*
X116444321Y-57465556D01*
X116434215Y-57388007D01*
X116435951Y-57381515D01*
X116489731Y-57379214D01*
X116543709Y-57458163D01*
X116585139Y-57598840D01*
X116587874Y-57614205D01*
X116627029Y-57796323D01*
X116668120Y-57877563D01*
X116714583Y-57858633D01*
X116769851Y-57740246D01*
X116797606Y-57657581D01*
X116853386Y-57507686D01*
X116906350Y-57409950D01*
X116938985Y-57386395D01*
X116979821Y-57441056D01*
X117030513Y-57563401D01*
X117062889Y-57666827D01*
X117109675Y-57813006D01*
X117152046Y-57908715D01*
X117172422Y-57930400D01*
X117202206Y-57885239D01*
X117241469Y-57768555D01*
X117271159Y-57651000D01*
X117326552Y-57464575D01*
X117386718Y-57378059D01*
X117409241Y-57371600D01*
X117463452Y-57391251D01*
G36*
X125011461Y-57417746D02*
G01*
X125038443Y-57539179D01*
X125052836Y-57710393D01*
X125054727Y-57905881D01*
X125044207Y-58100135D01*
X125021365Y-58267648D01*
X124986289Y-58382914D01*
X124968171Y-58409371D01*
X124876041Y-58471145D01*
X124789118Y-58487706D01*
X124744077Y-58453437D01*
X124743200Y-58443835D01*
X124783627Y-58388301D01*
X124819400Y-58369229D01*
X124856426Y-58333826D01*
X124879736Y-58250295D01*
X124891926Y-58101138D01*
X124895593Y-57868857D01*
X124895600Y-57855794D01*
X124898313Y-57625309D01*
X124908237Y-57479311D01*
X124928049Y-57400789D01*
X124960427Y-57372730D01*
X124971800Y-57371600D01*
X125011461Y-57417746D01*
G37*
X125011461Y-57417746D02*
X125038443Y-57539179D01*
X125052836Y-57710393D01*
X125054727Y-57905881D01*
X125044207Y-58100135D01*
X125021365Y-58267648D01*
X124986289Y-58382914D01*
X124968171Y-58409371D01*
X124876041Y-58471145D01*
X124789118Y-58487706D01*
X124744077Y-58453437D01*
X124743200Y-58443835D01*
X124783627Y-58388301D01*
X124819400Y-58369229D01*
X124856426Y-58333826D01*
X124879736Y-58250295D01*
X124891926Y-58101138D01*
X124895593Y-57868857D01*
X124895600Y-57855794D01*
X124898313Y-57625309D01*
X124908237Y-57479311D01*
X124928049Y-57400789D01*
X124960427Y-57372730D01*
X124971800Y-57371600D01*
X125011461Y-57417746D01*
G36*
X123843061Y-57417746D02*
G01*
X123870043Y-57539179D01*
X123884436Y-57710393D01*
X123886327Y-57905881D01*
X123875807Y-58100135D01*
X123852965Y-58267648D01*
X123817889Y-58382914D01*
X123799771Y-58409371D01*
X123707641Y-58471145D01*
X123620718Y-58487706D01*
X123575677Y-58453437D01*
X123574800Y-58443835D01*
X123615227Y-58388301D01*
X123651000Y-58369229D01*
X123688026Y-58333826D01*
X123711336Y-58250295D01*
X123723526Y-58101138D01*
X123727193Y-57868857D01*
X123727200Y-57855794D01*
X123729913Y-57625309D01*
X123739837Y-57479311D01*
X123759649Y-57400789D01*
X123792027Y-57372730D01*
X123803400Y-57371600D01*
X123843061Y-57417746D01*
G37*
X123843061Y-57417746D02*
X123870043Y-57539179D01*
X123884436Y-57710393D01*
X123886327Y-57905881D01*
X123875807Y-58100135D01*
X123852965Y-58267648D01*
X123817889Y-58382914D01*
X123799771Y-58409371D01*
X123707641Y-58471145D01*
X123620718Y-58487706D01*
X123575677Y-58453437D01*
X123574800Y-58443835D01*
X123615227Y-58388301D01*
X123651000Y-58369229D01*
X123688026Y-58333826D01*
X123711336Y-58250295D01*
X123723526Y-58101138D01*
X123727193Y-57868857D01*
X123727200Y-57855794D01*
X123729913Y-57625309D01*
X123739837Y-57479311D01*
X123759649Y-57400789D01*
X123792027Y-57372730D01*
X123803400Y-57371600D01*
X123843061Y-57417746D01*
G36*
X121252261Y-57417746D02*
G01*
X121279243Y-57539179D01*
X121293636Y-57710393D01*
X121295527Y-57905881D01*
X121285007Y-58100135D01*
X121262165Y-58267648D01*
X121227089Y-58382914D01*
X121208971Y-58409371D01*
X121116841Y-58471145D01*
X121029918Y-58487706D01*
X120984877Y-58453437D01*
X120984000Y-58443835D01*
X121024427Y-58388301D01*
X121060200Y-58369229D01*
X121097226Y-58333826D01*
X121120536Y-58250295D01*
X121132726Y-58101138D01*
X121136393Y-57868857D01*
X121136400Y-57855794D01*
X121139113Y-57625309D01*
X121149037Y-57479311D01*
X121168849Y-57400789D01*
X121201227Y-57372730D01*
X121212600Y-57371600D01*
X121252261Y-57417746D01*
G37*
X121252261Y-57417746D02*
X121279243Y-57539179D01*
X121293636Y-57710393D01*
X121295527Y-57905881D01*
X121285007Y-58100135D01*
X121262165Y-58267648D01*
X121227089Y-58382914D01*
X121208971Y-58409371D01*
X121116841Y-58471145D01*
X121029918Y-58487706D01*
X120984877Y-58453437D01*
X120984000Y-58443835D01*
X121024427Y-58388301D01*
X121060200Y-58369229D01*
X121097226Y-58333826D01*
X121120536Y-58250295D01*
X121132726Y-58101138D01*
X121136393Y-57868857D01*
X121136400Y-57855794D01*
X121139113Y-57625309D01*
X121149037Y-57479311D01*
X121168849Y-57400789D01*
X121201227Y-57372730D01*
X121212600Y-57371600D01*
X121252261Y-57417746D01*
G36*
X127209810Y-68718977D02*
G01*
X127315967Y-68784998D01*
X127375098Y-68914995D01*
X127397991Y-69124852D01*
X127399439Y-69221741D01*
X127397120Y-69410162D01*
X127385263Y-69517387D01*
X127356518Y-69565870D01*
X127303534Y-69578066D01*
X127282806Y-69578025D01*
X127136894Y-69588843D01*
X127036581Y-69607037D01*
X126873534Y-69597571D01*
X126790357Y-69555131D01*
X126690853Y-69438264D01*
X126678850Y-69310824D01*
X126683835Y-69301605D01*
X126845972Y-69301605D01*
X126852490Y-69392214D01*
X126927417Y-69453528D01*
X127037037Y-69474103D01*
X127147632Y-69442489D01*
X127181724Y-69415598D01*
X127244332Y-69316253D01*
X127210774Y-69248117D01*
X127085908Y-69219107D01*
X127060873Y-69218619D01*
X126907637Y-69243263D01*
X126845972Y-69301605D01*
X126683835Y-69301605D01*
X126742743Y-69192671D01*
X126870927Y-69103666D01*
X127051797Y-69063672D01*
X127077835Y-69063108D01*
X127196666Y-69051720D01*
X127236385Y-69008675D01*
X127233993Y-68972394D01*
X127192685Y-68910441D01*
X127084721Y-68881341D01*
X126995656Y-68876090D01*
X126850946Y-68864797D01*
X126753905Y-68843231D01*
X126738751Y-68834394D01*
X126736388Y-68783380D01*
X126813520Y-68737550D01*
X126946099Y-68707346D01*
X127045838Y-68701045D01*
X127209810Y-68718977D01*
G37*
X127209810Y-68718977D02*
X127315967Y-68784998D01*
X127375098Y-68914995D01*
X127397991Y-69124852D01*
X127399439Y-69221741D01*
X127397120Y-69410162D01*
X127385263Y-69517387D01*
X127356518Y-69565870D01*
X127303534Y-69578066D01*
X127282806Y-69578025D01*
X127136894Y-69588843D01*
X127036581Y-69607037D01*
X126873534Y-69597571D01*
X126790357Y-69555131D01*
X126690853Y-69438264D01*
X126678850Y-69310824D01*
X126683835Y-69301605D01*
X126845972Y-69301605D01*
X126852490Y-69392214D01*
X126927417Y-69453528D01*
X127037037Y-69474103D01*
X127147632Y-69442489D01*
X127181724Y-69415598D01*
X127244332Y-69316253D01*
X127210774Y-69248117D01*
X127085908Y-69219107D01*
X127060873Y-69218619D01*
X126907637Y-69243263D01*
X126845972Y-69301605D01*
X126683835Y-69301605D01*
X126742743Y-69192671D01*
X126870927Y-69103666D01*
X127051797Y-69063672D01*
X127077835Y-69063108D01*
X127196666Y-69051720D01*
X127236385Y-69008675D01*
X127233993Y-68972394D01*
X127192685Y-68910441D01*
X127084721Y-68881341D01*
X126995656Y-68876090D01*
X126850946Y-68864797D01*
X126753905Y-68843231D01*
X126738751Y-68834394D01*
X126736388Y-68783380D01*
X126813520Y-68737550D01*
X126946099Y-68707346D01*
X127045838Y-68701045D01*
X127209810Y-68718977D01*
G36*
X128910322Y-68352997D02*
G01*
X128932880Y-68410385D01*
X128946442Y-68525422D01*
X128952995Y-68713976D01*
X128954541Y-68958854D01*
X128953832Y-69220781D01*
X128949546Y-69396200D01*
X128938440Y-69502278D01*
X128917271Y-69556180D01*
X128882797Y-69575073D01*
X128837908Y-69576337D01*
X128690509Y-69588645D01*
X128614627Y-69606271D01*
X128479042Y-69597386D01*
X128386916Y-69542151D01*
X128314640Y-69465357D01*
X128277999Y-69363457D01*
X128266191Y-69201574D01*
X128265852Y-69151216D01*
X128267212Y-69130597D01*
X128436173Y-69130597D01*
X128445205Y-69302167D01*
X128482282Y-69391648D01*
X128562374Y-69419794D01*
X128641580Y-69415386D01*
X128723866Y-69394659D01*
X128762192Y-69337996D01*
X128772858Y-69215292D01*
X128773112Y-69172431D01*
X128746895Y-68985943D01*
X128672868Y-68879273D01*
X128557970Y-68860694D01*
X128520974Y-68871803D01*
X128461493Y-68934098D01*
X128437402Y-69072482D01*
X128436173Y-69130597D01*
X128267212Y-69130597D01*
X128280845Y-68924057D01*
X128332522Y-68784098D01*
X128430929Y-68718346D01*
X128586114Y-68713808D01*
X128602492Y-68715861D01*
X128799030Y-68742223D01*
X128799030Y-68539808D01*
X128812508Y-68397498D01*
X128856917Y-68340286D01*
X128876785Y-68337394D01*
X128910322Y-68352997D01*
G37*
X128910322Y-68352997D02*
X128932880Y-68410385D01*
X128946442Y-68525422D01*
X128952995Y-68713976D01*
X128954541Y-68958854D01*
X128953832Y-69220781D01*
X128949546Y-69396200D01*
X128938440Y-69502278D01*
X128917271Y-69556180D01*
X128882797Y-69575073D01*
X128837908Y-69576337D01*
X128690509Y-69588645D01*
X128614627Y-69606271D01*
X128479042Y-69597386D01*
X128386916Y-69542151D01*
X128314640Y-69465357D01*
X128277999Y-69363457D01*
X128266191Y-69201574D01*
X128265852Y-69151216D01*
X128267212Y-69130597D01*
X128436173Y-69130597D01*
X128445205Y-69302167D01*
X128482282Y-69391648D01*
X128562374Y-69419794D01*
X128641580Y-69415386D01*
X128723866Y-69394659D01*
X128762192Y-69337996D01*
X128772858Y-69215292D01*
X128773112Y-69172431D01*
X128746895Y-68985943D01*
X128672868Y-68879273D01*
X128557970Y-68860694D01*
X128520974Y-68871803D01*
X128461493Y-68934098D01*
X128437402Y-69072482D01*
X128436173Y-69130597D01*
X128267212Y-69130597D01*
X128280845Y-68924057D01*
X128332522Y-68784098D01*
X128430929Y-68718346D01*
X128586114Y-68713808D01*
X128602492Y-68715861D01*
X128799030Y-68742223D01*
X128799030Y-68539808D01*
X128812508Y-68397498D01*
X128856917Y-68340286D01*
X128876785Y-68337394D01*
X128910322Y-68352997D01*
G36*
X131039380Y-68748687D02*
G01*
X131100864Y-68844398D01*
X131127230Y-69013514D01*
X131131683Y-69198467D01*
X131129681Y-69394192D01*
X131119207Y-69507959D01*
X131093564Y-69561471D01*
X131046054Y-69576427D01*
X131015051Y-69576337D01*
X130869432Y-69586062D01*
X130794745Y-69600804D01*
X130664357Y-69604139D01*
X130574439Y-69581114D01*
X130484805Y-69526290D01*
X130457806Y-69483712D01*
X130440637Y-69394435D01*
X130427880Y-69356458D01*
X130432928Y-69301810D01*
X130593231Y-69301810D01*
X130600032Y-69375772D01*
X130654347Y-69423018D01*
X130757498Y-69470608D01*
X130847600Y-69462850D01*
X130894178Y-69446338D01*
X130963355Y-69374182D01*
X130976173Y-69316746D01*
X130952672Y-69247720D01*
X130864890Y-69220829D01*
X130800291Y-69218619D01*
X130664748Y-69242753D01*
X130593231Y-69301810D01*
X130432928Y-69301810D01*
X130437293Y-69254571D01*
X130522641Y-69157786D01*
X130657409Y-69087089D01*
X130798546Y-69063108D01*
X130922622Y-69053052D01*
X130967499Y-69014490D01*
X130966071Y-68972394D01*
X130922517Y-68908863D01*
X130809655Y-68881363D01*
X130741964Y-68878327D01*
X130587905Y-68857225D01*
X130527003Y-68812129D01*
X130557413Y-68760552D01*
X130677289Y-68720007D01*
X130759698Y-68710043D01*
X130929938Y-68709522D01*
X131039380Y-68748687D01*
G37*
X131039380Y-68748687D02*
X131100864Y-68844398D01*
X131127230Y-69013514D01*
X131131683Y-69198467D01*
X131129681Y-69394192D01*
X131119207Y-69507959D01*
X131093564Y-69561471D01*
X131046054Y-69576427D01*
X131015051Y-69576337D01*
X130869432Y-69586062D01*
X130794745Y-69600804D01*
X130664357Y-69604139D01*
X130574439Y-69581114D01*
X130484805Y-69526290D01*
X130457806Y-69483712D01*
X130440637Y-69394435D01*
X130427880Y-69356458D01*
X130432928Y-69301810D01*
X130593231Y-69301810D01*
X130600032Y-69375772D01*
X130654347Y-69423018D01*
X130757498Y-69470608D01*
X130847600Y-69462850D01*
X130894178Y-69446338D01*
X130963355Y-69374182D01*
X130976173Y-69316746D01*
X130952672Y-69247720D01*
X130864890Y-69220829D01*
X130800291Y-69218619D01*
X130664748Y-69242753D01*
X130593231Y-69301810D01*
X130432928Y-69301810D01*
X130437293Y-69254571D01*
X130522641Y-69157786D01*
X130657409Y-69087089D01*
X130798546Y-69063108D01*
X130922622Y-69053052D01*
X130967499Y-69014490D01*
X130966071Y-68972394D01*
X130922517Y-68908863D01*
X130809655Y-68881363D01*
X130741964Y-68878327D01*
X130587905Y-68857225D01*
X130527003Y-68812129D01*
X130557413Y-68760552D01*
X130677289Y-68720007D01*
X130759698Y-68710043D01*
X130929938Y-68709522D01*
X131039380Y-68748687D01*
G36*
X132555384Y-68746764D02*
G01*
X132680520Y-68867593D01*
X132737577Y-69036051D01*
X132738622Y-69063108D01*
X132733835Y-69152011D01*
X132702461Y-69198284D01*
X132618982Y-69215847D01*
X132457880Y-69218618D01*
X132453520Y-69218619D01*
X132272263Y-69226481D01*
X132186674Y-69254841D01*
X132189607Y-69310860D01*
X132272302Y-69400238D01*
X132371699Y-69463238D01*
X132477269Y-69447551D01*
X132503716Y-69436145D01*
X132617835Y-69405276D01*
X132664867Y-69432437D01*
X132665725Y-69506437D01*
X132591481Y-69566747D01*
X132470637Y-69603397D01*
X132331698Y-69606417D01*
X132236603Y-69582230D01*
X132107101Y-69477514D01*
X132029500Y-69310666D01*
X132011293Y-69113237D01*
X132047161Y-68968475D01*
X132191175Y-68968475D01*
X132193926Y-69027833D01*
X132294185Y-69059257D01*
X132375765Y-69063108D01*
X132523622Y-69050143D01*
X132573092Y-69011647D01*
X132571387Y-69002016D01*
X132494583Y-68902396D01*
X132377512Y-68862594D01*
X132288136Y-68885648D01*
X132191175Y-68968475D01*
X132047161Y-68968475D01*
X132059971Y-68916776D01*
X132072505Y-68891231D01*
X132166316Y-68761725D01*
X132291118Y-68707805D01*
X132388724Y-68701045D01*
X132555384Y-68746764D01*
G37*
X132555384Y-68746764D02*
X132680520Y-68867593D01*
X132737577Y-69036051D01*
X132738622Y-69063108D01*
X132733835Y-69152011D01*
X132702461Y-69198284D01*
X132618982Y-69215847D01*
X132457880Y-69218618D01*
X132453520Y-69218619D01*
X132272263Y-69226481D01*
X132186674Y-69254841D01*
X132189607Y-69310860D01*
X132272302Y-69400238D01*
X132371699Y-69463238D01*
X132477269Y-69447551D01*
X132503716Y-69436145D01*
X132617835Y-69405276D01*
X132664867Y-69432437D01*
X132665725Y-69506437D01*
X132591481Y-69566747D01*
X132470637Y-69603397D01*
X132331698Y-69606417D01*
X132236603Y-69582230D01*
X132107101Y-69477514D01*
X132029500Y-69310666D01*
X132011293Y-69113237D01*
X132047161Y-68968475D01*
X132191175Y-68968475D01*
X132193926Y-69027833D01*
X132294185Y-69059257D01*
X132375765Y-69063108D01*
X132523622Y-69050143D01*
X132573092Y-69011647D01*
X132571387Y-69002016D01*
X132494583Y-68902396D01*
X132377512Y-68862594D01*
X132288136Y-68885648D01*
X132191175Y-68968475D01*
X132047161Y-68968475D01*
X132059971Y-68916776D01*
X132072505Y-68891231D01*
X132166316Y-68761725D01*
X132291118Y-68707805D01*
X132388724Y-68701045D01*
X132555384Y-68746764D01*
G36*
X126376705Y-67272598D02*
G01*
X126469051Y-67375761D01*
X126512818Y-67561486D01*
X126518214Y-67691308D01*
X126492621Y-67918789D01*
X126412927Y-68060075D01*
X126274756Y-68119941D01*
X126130611Y-68114361D01*
X125948010Y-68084728D01*
X125948010Y-68745570D01*
X126130611Y-68715938D01*
X126303306Y-68712190D01*
X126420038Y-68773704D01*
X126488540Y-68910669D01*
X126516543Y-69133273D01*
X126518214Y-69226653D01*
X126513464Y-69421297D01*
X126496415Y-69531744D01*
X126462869Y-69577152D01*
X126440459Y-69581476D01*
X126394641Y-69556950D01*
X126370426Y-69470334D01*
X126362756Y-69302071D01*
X126362704Y-69280823D01*
X126346976Y-69057743D01*
X126295710Y-68922020D01*
X126202783Y-68861598D01*
X126146813Y-68855761D01*
X126041579Y-68903603D01*
X125975022Y-69045077D01*
X125948462Y-69277105D01*
X125948010Y-69318884D01*
X125939887Y-69483068D01*
X125911707Y-69563879D01*
X125870255Y-69581476D01*
X125844777Y-69569321D01*
X125825423Y-69524871D01*
X125811393Y-69436147D01*
X125801885Y-69291168D01*
X125796100Y-69077957D01*
X125793239Y-68784533D01*
X125792500Y-68417236D01*
X125792500Y-67675620D01*
X125956304Y-67675620D01*
X125983069Y-67828001D01*
X125989463Y-67842857D01*
X126077353Y-67947010D01*
X126187794Y-67969567D01*
X126287587Y-67907262D01*
X126309043Y-67874271D01*
X126357455Y-67715373D01*
X126347491Y-67560581D01*
X126287439Y-67458236D01*
X126172129Y-67410904D01*
X126067435Y-67445643D01*
X125989960Y-67541024D01*
X125956304Y-67675620D01*
X125792500Y-67675620D01*
X125792500Y-67252996D01*
X125935051Y-67250350D01*
X126100881Y-67246738D01*
X126230258Y-67243409D01*
X126376705Y-67272598D01*
G37*
X126376705Y-67272598D02*
X126469051Y-67375761D01*
X126512818Y-67561486D01*
X126518214Y-67691308D01*
X126492621Y-67918789D01*
X126412927Y-68060075D01*
X126274756Y-68119941D01*
X126130611Y-68114361D01*
X125948010Y-68084728D01*
X125948010Y-68745570D01*
X126130611Y-68715938D01*
X126303306Y-68712190D01*
X126420038Y-68773704D01*
X126488540Y-68910669D01*
X126516543Y-69133273D01*
X126518214Y-69226653D01*
X126513464Y-69421297D01*
X126496415Y-69531744D01*
X126462869Y-69577152D01*
X126440459Y-69581476D01*
X126394641Y-69556950D01*
X126370426Y-69470334D01*
X126362756Y-69302071D01*
X126362704Y-69280823D01*
X126346976Y-69057743D01*
X126295710Y-68922020D01*
X126202783Y-68861598D01*
X126146813Y-68855761D01*
X126041579Y-68903603D01*
X125975022Y-69045077D01*
X125948462Y-69277105D01*
X125948010Y-69318884D01*
X125939887Y-69483068D01*
X125911707Y-69563879D01*
X125870255Y-69581476D01*
X125844777Y-69569321D01*
X125825423Y-69524871D01*
X125811393Y-69436147D01*
X125801885Y-69291168D01*
X125796100Y-69077957D01*
X125793239Y-68784533D01*
X125792500Y-68417236D01*
X125792500Y-67675620D01*
X125956304Y-67675620D01*
X125983069Y-67828001D01*
X125989463Y-67842857D01*
X126077353Y-67947010D01*
X126187794Y-67969567D01*
X126287587Y-67907262D01*
X126309043Y-67874271D01*
X126357455Y-67715373D01*
X126347491Y-67560581D01*
X126287439Y-67458236D01*
X126172129Y-67410904D01*
X126067435Y-67445643D01*
X125989960Y-67541024D01*
X125956304Y-67675620D01*
X125792500Y-67675620D01*
X125792500Y-67252996D01*
X125935051Y-67250350D01*
X126100881Y-67246738D01*
X126230258Y-67243409D01*
X126376705Y-67272598D01*
G36*
X128061120Y-68710220D02*
G01*
X128145276Y-68727848D01*
X128169486Y-68767077D01*
X128167116Y-68790994D01*
X128104067Y-68861889D01*
X127995214Y-68879794D01*
X127840051Y-68881680D01*
X127824723Y-69231578D01*
X127813033Y-69418975D01*
X127793656Y-69524927D01*
X127759184Y-69571666D01*
X127708090Y-69581476D01*
X127658541Y-69572616D01*
X127628384Y-69532487D01*
X127612889Y-69440766D01*
X127607326Y-69277130D01*
X127606785Y-69146225D01*
X127606785Y-68710973D01*
X127895320Y-68707527D01*
X128061120Y-68710220D01*
G37*
X128061120Y-68710220D02*
X128145276Y-68727848D01*
X128169486Y-68767077D01*
X128167116Y-68790994D01*
X128104067Y-68861889D01*
X127995214Y-68879794D01*
X127840051Y-68881680D01*
X127824723Y-69231578D01*
X127813033Y-69418975D01*
X127793656Y-69524927D01*
X127759184Y-69571666D01*
X127708090Y-69581476D01*
X127658541Y-69572616D01*
X127628384Y-69532487D01*
X127612889Y-69440766D01*
X127607326Y-69277130D01*
X127606785Y-69146225D01*
X127606785Y-68710973D01*
X127895320Y-68707527D01*
X128061120Y-68710220D01*
G36*
X129272705Y-68775944D02*
G01*
X129338949Y-68928779D01*
X129368369Y-69033583D01*
X129411157Y-69182241D01*
X129451191Y-69272008D01*
X129475219Y-69285099D01*
X129510711Y-69216212D01*
X129562701Y-69082400D01*
X129600294Y-68972394D01*
X129660002Y-68822575D01*
X129720678Y-68723731D01*
X129755345Y-68700251D01*
X129803771Y-68746524D01*
X129861896Y-68868049D01*
X129909371Y-69011272D01*
X129957740Y-69172914D01*
X129997152Y-69285374D01*
X130017194Y-69322292D01*
X130040674Y-69276682D01*
X130081463Y-69157798D01*
X130125016Y-69011272D01*
X130185857Y-68833363D01*
X130246171Y-68724740D01*
X130283208Y-68700251D01*
X130331926Y-68714343D01*
X130348602Y-68767360D01*
X130331596Y-68875415D01*
X130279266Y-69054622D01*
X130232739Y-69195562D01*
X130145977Y-69420345D01*
X130069233Y-69543481D01*
X129998639Y-69566062D01*
X129930329Y-69489180D01*
X129860435Y-69313927D01*
X129856580Y-69301812D01*
X129802488Y-69152828D01*
X129754322Y-69058669D01*
X129728122Y-69039644D01*
X129694374Y-69099595D01*
X129650037Y-69226985D01*
X129623379Y-69322409D01*
X129562463Y-69504796D01*
X129497840Y-69586768D01*
X129428027Y-69567668D01*
X129351538Y-69446843D01*
X129266890Y-69223638D01*
X129245458Y-69155620D01*
X129188933Y-68961196D01*
X129150025Y-68808009D01*
X129134600Y-68720070D01*
X129136256Y-68708604D01*
X129201839Y-68697930D01*
X129272705Y-68775944D01*
G37*
X129272705Y-68775944D02*
X129338949Y-68928779D01*
X129368369Y-69033583D01*
X129411157Y-69182241D01*
X129451191Y-69272008D01*
X129475219Y-69285099D01*
X129510711Y-69216212D01*
X129562701Y-69082400D01*
X129600294Y-68972394D01*
X129660002Y-68822575D01*
X129720678Y-68723731D01*
X129755345Y-68700251D01*
X129803771Y-68746524D01*
X129861896Y-68868049D01*
X129909371Y-69011272D01*
X129957740Y-69172914D01*
X129997152Y-69285374D01*
X130017194Y-69322292D01*
X130040674Y-69276682D01*
X130081463Y-69157798D01*
X130125016Y-69011272D01*
X130185857Y-68833363D01*
X130246171Y-68724740D01*
X130283208Y-68700251D01*
X130331926Y-68714343D01*
X130348602Y-68767360D01*
X130331596Y-68875415D01*
X130279266Y-69054622D01*
X130232739Y-69195562D01*
X130145977Y-69420345D01*
X130069233Y-69543481D01*
X129998639Y-69566062D01*
X129930329Y-69489180D01*
X129860435Y-69313927D01*
X129856580Y-69301812D01*
X129802488Y-69152828D01*
X129754322Y-69058669D01*
X129728122Y-69039644D01*
X129694374Y-69099595D01*
X129650037Y-69226985D01*
X129623379Y-69322409D01*
X129562463Y-69504796D01*
X129497840Y-69586768D01*
X129428027Y-69567668D01*
X129351538Y-69446843D01*
X129266890Y-69223638D01*
X129245458Y-69155620D01*
X129188933Y-68961196D01*
X129150025Y-68808009D01*
X129134600Y-68720070D01*
X129136256Y-68708604D01*
X129201839Y-68697930D01*
X129272705Y-68775944D01*
G36*
X131854671Y-68713787D02*
G01*
X131938412Y-68735591D01*
X131947852Y-68766604D01*
X131885848Y-68821971D01*
X131801501Y-68847769D01*
X131668197Y-68884372D01*
X131589934Y-68961550D01*
X131553747Y-69101106D01*
X131546377Y-69276802D01*
X131540183Y-69455302D01*
X131518274Y-69550232D01*
X131475663Y-69581140D01*
X131468622Y-69581476D01*
X131429398Y-69562421D01*
X131405551Y-69493134D01*
X131393804Y-69355431D01*
X131390867Y-69150022D01*
X131390867Y-68718568D01*
X131679770Y-68710967D01*
X131854671Y-68713787D01*
G37*
X131854671Y-68713787D02*
X131938412Y-68735591D01*
X131947852Y-68766604D01*
X131885848Y-68821971D01*
X131801501Y-68847769D01*
X131668197Y-68884372D01*
X131589934Y-68961550D01*
X131553747Y-69101106D01*
X131546377Y-69276802D01*
X131540183Y-69455302D01*
X131518274Y-69550232D01*
X131475663Y-69581140D01*
X131468622Y-69581476D01*
X131429398Y-69562421D01*
X131405551Y-69493134D01*
X131393804Y-69355431D01*
X131390867Y-69150022D01*
X131390867Y-68718568D01*
X131679770Y-68710967D01*
X131854671Y-68713787D01*
G36*
X125369985Y-67253864D02*
G01*
X125506249Y-67350937D01*
X125589479Y-67509836D01*
X125615021Y-67700690D01*
X125578220Y-67893632D01*
X125492401Y-68039333D01*
X125372725Y-68108963D01*
X125211711Y-68127074D01*
X125058504Y-68092745D01*
X124992811Y-68048667D01*
X124899160Y-67894594D01*
X124873282Y-67746058D01*
X125038951Y-67746058D01*
X125065108Y-67840534D01*
X125126150Y-67942868D01*
X125223144Y-67968058D01*
X125261198Y-67965018D01*
X125345846Y-67947421D01*
X125387991Y-67901170D01*
X125402338Y-67797830D01*
X125403724Y-67689435D01*
X125400210Y-67535975D01*
X125379273Y-67459447D01*
X125325323Y-67433124D01*
X125252534Y-67430251D01*
X125120210Y-67472603D01*
X125045698Y-67585134D01*
X125038951Y-67746058D01*
X124873282Y-67746058D01*
X124866076Y-67704702D01*
X124890159Y-67512281D01*
X124968010Y-67350621D01*
X125073071Y-67262664D01*
X125219978Y-67224139D01*
X125369985Y-67253864D01*
G37*
X125369985Y-67253864D02*
X125506249Y-67350937D01*
X125589479Y-67509836D01*
X125615021Y-67700690D01*
X125578220Y-67893632D01*
X125492401Y-68039333D01*
X125372725Y-68108963D01*
X125211711Y-68127074D01*
X125058504Y-68092745D01*
X124992811Y-68048667D01*
X124899160Y-67894594D01*
X124873282Y-67746058D01*
X125038951Y-67746058D01*
X125065108Y-67840534D01*
X125126150Y-67942868D01*
X125223144Y-67968058D01*
X125261198Y-67965018D01*
X125345846Y-67947421D01*
X125387991Y-67901170D01*
X125402338Y-67797830D01*
X125403724Y-67689435D01*
X125400210Y-67535975D01*
X125379273Y-67459447D01*
X125325323Y-67433124D01*
X125252534Y-67430251D01*
X125120210Y-67472603D01*
X125045698Y-67585134D01*
X125038951Y-67746058D01*
X124873282Y-67746058D01*
X124866076Y-67704702D01*
X124890159Y-67512281D01*
X124968010Y-67350621D01*
X125073071Y-67262664D01*
X125219978Y-67224139D01*
X125369985Y-67253864D01*
G36*
X127218115Y-67278316D02*
G01*
X127337605Y-67389670D01*
X127397083Y-67551157D01*
X127399439Y-67593796D01*
X127399439Y-67767190D01*
X127114336Y-67767190D01*
X126958192Y-67774669D01*
X126854636Y-67793963D01*
X126829234Y-67812680D01*
X126874412Y-67897800D01*
X126984565Y-67953059D01*
X127121625Y-67959994D01*
X127129866Y-67958472D01*
X127265188Y-67948727D01*
X127350049Y-67973361D01*
X127366126Y-68020510D01*
X127306176Y-68072639D01*
X127123551Y-68125679D01*
X126934683Y-68111034D01*
X126783826Y-68032576D01*
X126777398Y-68026374D01*
X126699217Y-67884768D01*
X126671954Y-67695536D01*
X126688405Y-67563546D01*
X126829234Y-67563546D01*
X126875231Y-67593690D01*
X126990132Y-67610454D01*
X127036581Y-67611680D01*
X127166434Y-67601002D01*
X127238648Y-67574329D01*
X127243928Y-67563546D01*
X127207381Y-67487224D01*
X127127169Y-67402361D01*
X127047435Y-67353889D01*
X127036581Y-67352496D01*
X126961599Y-67389696D01*
X126878225Y-67471341D01*
X126830603Y-67552499D01*
X126829234Y-67563546D01*
X126688405Y-67563546D01*
X126696121Y-67501644D01*
X126769320Y-67349599D01*
X126906996Y-67247827D01*
X127065586Y-67227550D01*
X127218115Y-67278316D01*
G37*
X127218115Y-67278316D02*
X127337605Y-67389670D01*
X127397083Y-67551157D01*
X127399439Y-67593796D01*
X127399439Y-67767190D01*
X127114336Y-67767190D01*
X126958192Y-67774669D01*
X126854636Y-67793963D01*
X126829234Y-67812680D01*
X126874412Y-67897800D01*
X126984565Y-67953059D01*
X127121625Y-67959994D01*
X127129866Y-67958472D01*
X127265188Y-67948727D01*
X127350049Y-67973361D01*
X127366126Y-68020510D01*
X127306176Y-68072639D01*
X127123551Y-68125679D01*
X126934683Y-68111034D01*
X126783826Y-68032576D01*
X126777398Y-68026374D01*
X126699217Y-67884768D01*
X126671954Y-67695536D01*
X126688405Y-67563546D01*
X126829234Y-67563546D01*
X126875231Y-67593690D01*
X126990132Y-67610454D01*
X127036581Y-67611680D01*
X127166434Y-67601002D01*
X127238648Y-67574329D01*
X127243928Y-67563546D01*
X127207381Y-67487224D01*
X127127169Y-67402361D01*
X127047435Y-67353889D01*
X127036581Y-67352496D01*
X126961599Y-67389696D01*
X126878225Y-67471341D01*
X126830603Y-67552499D01*
X126829234Y-67563546D01*
X126688405Y-67563546D01*
X126696121Y-67501644D01*
X126769320Y-67349599D01*
X126906996Y-67247827D01*
X127065586Y-67227550D01*
X127218115Y-67278316D01*
G36*
X128176715Y-67296612D02*
G01*
X128202045Y-67321002D01*
X128274890Y-67408305D01*
X128314483Y-67507818D01*
X128330367Y-67653907D01*
X128332500Y-67790752D01*
X128329197Y-67974113D01*
X128314764Y-68076622D01*
X128282415Y-68121007D01*
X128231195Y-68130047D01*
X128176411Y-68118022D01*
X128143506Y-68067128D01*
X128125068Y-67955135D01*
X128114562Y-67780149D01*
X128099234Y-67430251D01*
X127788214Y-67430251D01*
X127772886Y-67780149D01*
X127758330Y-67977434D01*
X127733328Y-68088042D01*
X127693520Y-68128788D01*
X127682172Y-68130047D01*
X127644222Y-68109361D01*
X127621009Y-68035654D01*
X127609541Y-67891453D01*
X127606785Y-67690016D01*
X127608220Y-67476834D01*
X127616142Y-67347237D01*
X127635978Y-67281140D01*
X127673155Y-67258458D01*
X127723418Y-67258382D01*
X127871182Y-67248503D01*
X127955820Y-67228663D01*
X128064554Y-67223911D01*
X128176715Y-67296612D01*
G37*
X128176715Y-67296612D02*
X128202045Y-67321002D01*
X128274890Y-67408305D01*
X128314483Y-67507818D01*
X128330367Y-67653907D01*
X128332500Y-67790752D01*
X128329197Y-67974113D01*
X128314764Y-68076622D01*
X128282415Y-68121007D01*
X128231195Y-68130047D01*
X128176411Y-68118022D01*
X128143506Y-68067128D01*
X128125068Y-67955135D01*
X128114562Y-67780149D01*
X128099234Y-67430251D01*
X127788214Y-67430251D01*
X127772886Y-67780149D01*
X127758330Y-67977434D01*
X127733328Y-68088042D01*
X127693520Y-68128788D01*
X127682172Y-68130047D01*
X127644222Y-68109361D01*
X127621009Y-68035654D01*
X127609541Y-67891453D01*
X127606785Y-67690016D01*
X127608220Y-67476834D01*
X127616142Y-67347237D01*
X127635978Y-67281140D01*
X127673155Y-67258458D01*
X127723418Y-67258382D01*
X127871182Y-67248503D01*
X127955820Y-67228663D01*
X128064554Y-67223911D01*
X128176715Y-67296612D01*
G36*
X129330747Y-67231171D02*
G01*
X129454378Y-67262173D01*
X129543363Y-67311480D01*
X129574427Y-67370454D01*
X129528629Y-67427851D01*
X129451048Y-67429946D01*
X129345286Y-67395798D01*
X129233351Y-67361393D01*
X129151894Y-67394545D01*
X129121095Y-67422933D01*
X129062956Y-67495353D01*
X129082863Y-67542010D01*
X129110051Y-67560924D01*
X129222163Y-67600450D01*
X129317398Y-67611680D01*
X129485731Y-67651024D01*
X129584297Y-67750298D01*
X129600837Y-67888685D01*
X129550644Y-68007759D01*
X129471132Y-68090571D01*
X129353231Y-68125478D01*
X129248355Y-68130047D01*
X129086706Y-68114692D01*
X128957679Y-68076451D01*
X128933849Y-68062524D01*
X128872040Y-68002653D01*
X128896390Y-67950492D01*
X128919326Y-67930415D01*
X128999794Y-67895829D01*
X129030740Y-67920183D01*
X129100817Y-67956967D01*
X129227083Y-67974332D01*
X129242702Y-67974537D01*
X129366457Y-67962501D01*
X129415742Y-67915738D01*
X129421071Y-67870864D01*
X129394232Y-67792687D01*
X129297190Y-67767503D01*
X129277095Y-67767190D01*
X129100191Y-67733116D01*
X128976518Y-67645960D01*
X128915161Y-67528317D01*
X128925202Y-67402785D01*
X129015728Y-67291961D01*
X129072645Y-67258631D01*
X129195744Y-67227111D01*
X129330747Y-67231171D01*
G37*
X129330747Y-67231171D02*
X129454378Y-67262173D01*
X129543363Y-67311480D01*
X129574427Y-67370454D01*
X129528629Y-67427851D01*
X129451048Y-67429946D01*
X129345286Y-67395798D01*
X129233351Y-67361393D01*
X129151894Y-67394545D01*
X129121095Y-67422933D01*
X129062956Y-67495353D01*
X129082863Y-67542010D01*
X129110051Y-67560924D01*
X129222163Y-67600450D01*
X129317398Y-67611680D01*
X129485731Y-67651024D01*
X129584297Y-67750298D01*
X129600837Y-67888685D01*
X129550644Y-68007759D01*
X129471132Y-68090571D01*
X129353231Y-68125478D01*
X129248355Y-68130047D01*
X129086706Y-68114692D01*
X128957679Y-68076451D01*
X128933849Y-68062524D01*
X128872040Y-68002653D01*
X128896390Y-67950492D01*
X128919326Y-67930415D01*
X128999794Y-67895829D01*
X129030740Y-67920183D01*
X129100817Y-67956967D01*
X129227083Y-67974332D01*
X129242702Y-67974537D01*
X129366457Y-67962501D01*
X129415742Y-67915738D01*
X129421071Y-67870864D01*
X129394232Y-67792687D01*
X129297190Y-67767503D01*
X129277095Y-67767190D01*
X129100191Y-67733116D01*
X128976518Y-67645960D01*
X128915161Y-67528317D01*
X128925202Y-67402785D01*
X129015728Y-67291961D01*
X129072645Y-67258631D01*
X129195744Y-67227111D01*
X129330747Y-67231171D01*
G36*
X130236445Y-67253349D02*
G01*
X130355074Y-67312105D01*
X130421908Y-67393800D01*
X130451141Y-67526814D01*
X130457012Y-67694360D01*
X130442352Y-67890021D01*
X130392229Y-68012187D01*
X130363010Y-68044258D01*
X130236436Y-68107207D01*
X130074382Y-68128844D01*
X129932433Y-68103533D01*
X129908321Y-68090376D01*
X129806768Y-67967920D01*
X129747072Y-67787405D01*
X129743678Y-67725458D01*
X129898035Y-67725458D01*
X129937120Y-67856746D01*
X130017137Y-67945967D01*
X130119513Y-67974510D01*
X130225676Y-67923764D01*
X130247457Y-67900399D01*
X130283880Y-67802454D01*
X130294358Y-67656705D01*
X130292681Y-67628257D01*
X130274048Y-67498850D01*
X130229830Y-67442926D01*
X130134022Y-67430296D01*
X130122115Y-67430251D01*
X129997720Y-67453917D01*
X129928695Y-67543829D01*
X129918455Y-67570714D01*
X129898035Y-67725458D01*
X129743678Y-67725458D01*
X129736165Y-67588384D01*
X129780976Y-67410409D01*
X129787080Y-67398444D01*
X129904661Y-67278688D01*
X130071935Y-67228616D01*
X130236445Y-67253349D01*
G37*
X130236445Y-67253349D02*
X130355074Y-67312105D01*
X130421908Y-67393800D01*
X130451141Y-67526814D01*
X130457012Y-67694360D01*
X130442352Y-67890021D01*
X130392229Y-68012187D01*
X130363010Y-68044258D01*
X130236436Y-68107207D01*
X130074382Y-68128844D01*
X129932433Y-68103533D01*
X129908321Y-68090376D01*
X129806768Y-67967920D01*
X129747072Y-67787405D01*
X129743678Y-67725458D01*
X129898035Y-67725458D01*
X129937120Y-67856746D01*
X130017137Y-67945967D01*
X130119513Y-67974510D01*
X130225676Y-67923764D01*
X130247457Y-67900399D01*
X130283880Y-67802454D01*
X130294358Y-67656705D01*
X130292681Y-67628257D01*
X130274048Y-67498850D01*
X130229830Y-67442926D01*
X130134022Y-67430296D01*
X130122115Y-67430251D01*
X129997720Y-67453917D01*
X129928695Y-67543829D01*
X129918455Y-67570714D01*
X129898035Y-67725458D01*
X129743678Y-67725458D01*
X129736165Y-67588384D01*
X129780976Y-67410409D01*
X129787080Y-67398444D01*
X129904661Y-67278688D01*
X130071935Y-67228616D01*
X130236445Y-67253349D01*
G36*
X131352336Y-67267877D02*
G01*
X131376183Y-67337164D01*
X131387930Y-67474868D01*
X131390867Y-67680277D01*
X131390867Y-68111730D01*
X131112147Y-68119064D01*
X130920932Y-68112575D01*
X130801643Y-68076061D01*
X130749290Y-68033426D01*
X130701791Y-67935306D01*
X130671782Y-67784804D01*
X130659503Y-67611525D01*
X130665196Y-67445077D01*
X130689101Y-67315065D01*
X130731459Y-67251095D01*
X130742908Y-67248823D01*
X130788726Y-67273349D01*
X130812941Y-67359964D01*
X130820611Y-67528227D01*
X130820663Y-67549476D01*
X130836391Y-67772556D01*
X130887656Y-67908279D01*
X130980583Y-67968700D01*
X131036553Y-67974537D01*
X131141788Y-67926695D01*
X131208345Y-67785221D01*
X131234904Y-67553193D01*
X131235357Y-67511414D01*
X131243480Y-67347231D01*
X131271660Y-67266419D01*
X131313112Y-67248823D01*
X131352336Y-67267877D01*
G37*
X131352336Y-67267877D02*
X131376183Y-67337164D01*
X131387930Y-67474868D01*
X131390867Y-67680277D01*
X131390867Y-68111730D01*
X131112147Y-68119064D01*
X130920932Y-68112575D01*
X130801643Y-68076061D01*
X130749290Y-68033426D01*
X130701791Y-67935306D01*
X130671782Y-67784804D01*
X130659503Y-67611525D01*
X130665196Y-67445077D01*
X130689101Y-67315065D01*
X130731459Y-67251095D01*
X130742908Y-67248823D01*
X130788726Y-67273349D01*
X130812941Y-67359964D01*
X130820611Y-67528227D01*
X130820663Y-67549476D01*
X130836391Y-67772556D01*
X130887656Y-67908279D01*
X130980583Y-67968700D01*
X131036553Y-67974537D01*
X131141788Y-67926695D01*
X131208345Y-67785221D01*
X131234904Y-67553193D01*
X131235357Y-67511414D01*
X131243480Y-67347231D01*
X131271660Y-67266419D01*
X131313112Y-67248823D01*
X131352336Y-67267877D01*
G36*
X132109293Y-67231897D02*
G01*
X132185649Y-67267386D01*
X132170759Y-67323387D01*
X132163163Y-67332909D01*
X132067082Y-67390008D01*
X131982466Y-67404333D01*
X131863493Y-67442845D01*
X131789120Y-67562754D01*
X131756108Y-67770620D01*
X131753724Y-67867456D01*
X131745601Y-68031639D01*
X131717421Y-68112451D01*
X131675969Y-68130047D01*
X131637322Y-68111390D01*
X131613567Y-68043433D01*
X131601575Y-67908194D01*
X131598215Y-67687693D01*
X131598214Y-67683389D01*
X131599509Y-67468668D01*
X131606786Y-67338663D01*
X131625135Y-67274417D01*
X131659644Y-67256976D01*
X131710268Y-67266034D01*
X131839862Y-67270028D01*
X131909234Y-67248823D01*
X132028752Y-67223392D01*
X132109293Y-67231897D01*
G37*
X132109293Y-67231897D02*
X132185649Y-67267386D01*
X132170759Y-67323387D01*
X132163163Y-67332909D01*
X132067082Y-67390008D01*
X131982466Y-67404333D01*
X131863493Y-67442845D01*
X131789120Y-67562754D01*
X131756108Y-67770620D01*
X131753724Y-67867456D01*
X131745601Y-68031639D01*
X131717421Y-68112451D01*
X131675969Y-68130047D01*
X131637322Y-68111390D01*
X131613567Y-68043433D01*
X131601575Y-67908194D01*
X131598215Y-67687693D01*
X131598214Y-67683389D01*
X131599509Y-67468668D01*
X131606786Y-67338663D01*
X131625135Y-67274417D01*
X131659644Y-67256976D01*
X131710268Y-67266034D01*
X131839862Y-67270028D01*
X131909234Y-67248823D01*
X132028752Y-67223392D01*
X132109293Y-67231897D01*
G36*
X132778414Y-67262152D02*
G01*
X132878700Y-67332241D01*
X132880141Y-67388054D01*
X132787311Y-67422553D01*
X132669144Y-67430251D01*
X132527290Y-67440027D01*
X132451442Y-67482524D01*
X132407133Y-67570714D01*
X132388895Y-67751719D01*
X132420107Y-67849198D01*
X132472132Y-67937304D01*
X132543219Y-67967967D01*
X132672722Y-67956855D01*
X132685435Y-67954847D01*
X132832218Y-67947066D01*
X132913540Y-67973032D01*
X132916000Y-68022741D01*
X132847155Y-68075610D01*
X132653656Y-68131236D01*
X132468939Y-68100654D01*
X132327691Y-67993465D01*
X132238725Y-67817711D01*
X132224367Y-67634901D01*
X132272486Y-67464715D01*
X132370953Y-67326832D01*
X132507638Y-67240934D01*
X132670412Y-67226702D01*
X132778414Y-67262152D01*
G37*
X132778414Y-67262152D02*
X132878700Y-67332241D01*
X132880141Y-67388054D01*
X132787311Y-67422553D01*
X132669144Y-67430251D01*
X132527290Y-67440027D01*
X132451442Y-67482524D01*
X132407133Y-67570714D01*
X132388895Y-67751719D01*
X132420107Y-67849198D01*
X132472132Y-67937304D01*
X132543219Y-67967967D01*
X132672722Y-67956855D01*
X132685435Y-67954847D01*
X132832218Y-67947066D01*
X132913540Y-67973032D01*
X132916000Y-68022741D01*
X132847155Y-68075610D01*
X132653656Y-68131236D01*
X132468939Y-68100654D01*
X132327691Y-67993465D01*
X132238725Y-67817711D01*
X132224367Y-67634901D01*
X132272486Y-67464715D01*
X132370953Y-67326832D01*
X132507638Y-67240934D01*
X132670412Y-67226702D01*
X132778414Y-67262152D01*
G36*
X133577296Y-67261148D02*
G01*
X133691557Y-67383443D01*
X133757960Y-67576392D01*
X133788922Y-67767190D01*
X133493236Y-67767190D01*
X133325417Y-67771472D01*
X133239222Y-67789080D01*
X133212787Y-67827153D01*
X133215497Y-67857904D01*
X133261241Y-67922547D01*
X133379078Y-67951733D01*
X133439604Y-67955256D01*
X133607934Y-67962213D01*
X133691279Y-67974307D01*
X133708292Y-67999337D01*
X133677626Y-68045103D01*
X133671683Y-68052292D01*
X133561033Y-68115035D01*
X133403649Y-68129640D01*
X133243462Y-68098251D01*
X133126792Y-68025705D01*
X133050934Y-67867021D01*
X133032364Y-67680562D01*
X133064613Y-67489889D01*
X133208753Y-67489889D01*
X133217271Y-67560920D01*
X133311342Y-67605369D01*
X133386581Y-67611680D01*
X133522180Y-67594077D01*
X133567934Y-67539019D01*
X133568010Y-67535749D01*
X133524562Y-67444141D01*
X133423280Y-67393842D01*
X133307755Y-67404686D01*
X133294528Y-67411304D01*
X133208753Y-67489889D01*
X133064613Y-67489889D01*
X133068107Y-67469237D01*
X133161390Y-67318630D01*
X133291294Y-67231744D01*
X133436903Y-67211582D01*
X133577296Y-67261148D01*
G37*
X133577296Y-67261148D02*
X133691557Y-67383443D01*
X133757960Y-67576392D01*
X133788922Y-67767190D01*
X133493236Y-67767190D01*
X133325417Y-67771472D01*
X133239222Y-67789080D01*
X133212787Y-67827153D01*
X133215497Y-67857904D01*
X133261241Y-67922547D01*
X133379078Y-67951733D01*
X133439604Y-67955256D01*
X133607934Y-67962213D01*
X133691279Y-67974307D01*
X133708292Y-67999337D01*
X133677626Y-68045103D01*
X133671683Y-68052292D01*
X133561033Y-68115035D01*
X133403649Y-68129640D01*
X133243462Y-68098251D01*
X133126792Y-68025705D01*
X133050934Y-67867021D01*
X133032364Y-67680562D01*
X133064613Y-67489889D01*
X133208753Y-67489889D01*
X133217271Y-67560920D01*
X133311342Y-67605369D01*
X133386581Y-67611680D01*
X133522180Y-67594077D01*
X133567934Y-67539019D01*
X133568010Y-67535749D01*
X133524562Y-67444141D01*
X133423280Y-67393842D01*
X133307755Y-67404686D01*
X133294528Y-67411304D01*
X133208753Y-67489889D01*
X133064613Y-67489889D01*
X133068107Y-67469237D01*
X133161390Y-67318630D01*
X133291294Y-67231744D01*
X133436903Y-67211582D01*
X133577296Y-67261148D01*
G36*
X129830181Y-60523006D02*
G01*
X129869185Y-60725848D01*
X129905920Y-60924539D01*
X129918583Y-60995949D01*
X129944296Y-61104939D01*
X129990982Y-61181623D01*
X130081860Y-61248143D01*
X130240150Y-61326638D01*
X130288554Y-61348723D01*
X130623726Y-61500697D01*
X131002809Y-61238638D01*
X131176388Y-61121702D01*
X131318475Y-61031659D01*
X131407270Y-60982079D01*
X131423754Y-60976578D01*
X131480332Y-61011367D01*
X131584721Y-61101284D01*
X131715155Y-61224654D01*
X131849871Y-61359800D01*
X131967106Y-61485048D01*
X132045096Y-61578722D01*
X132064745Y-61614970D01*
X132036668Y-61675515D01*
X131961813Y-61797535D01*
X131854243Y-61958562D01*
X131809590Y-62022643D01*
X131554436Y-62384801D01*
X131701822Y-62730383D01*
X131763124Y-62875181D01*
X131814402Y-62975708D01*
X131875357Y-63043844D01*
X131965696Y-63091470D01*
X132105121Y-63130468D01*
X132313338Y-63172717D01*
X132492398Y-63207066D01*
X132790459Y-63264744D01*
X132790459Y-64183105D01*
X132518316Y-64236708D01*
X132319314Y-64274991D01*
X132127877Y-64310382D01*
X132058182Y-64322707D01*
X131957066Y-64346957D01*
X131886529Y-64392788D01*
X131826718Y-64483431D01*
X131757775Y-64642114D01*
X131734203Y-64701716D01*
X131667349Y-64876682D01*
X131618817Y-65012404D01*
X131598348Y-65081538D01*
X131598214Y-65083439D01*
X131625964Y-65139694D01*
X131699530Y-65257284D01*
X131804383Y-65413240D01*
X131831479Y-65452239D01*
X131941736Y-65615489D01*
X132023878Y-65747640D01*
X132063269Y-65824853D01*
X132064745Y-65832161D01*
X132029732Y-65889168D01*
X131939229Y-65993596D01*
X131815037Y-66123771D01*
X131678957Y-66258020D01*
X131552792Y-66374668D01*
X131458343Y-66452042D01*
X131421865Y-66471272D01*
X131361792Y-66443023D01*
X131241377Y-66368050D01*
X131083825Y-66261015D01*
X131040229Y-66230162D01*
X130702344Y-65989052D01*
X130527929Y-66082981D01*
X130411510Y-66138173D01*
X130340208Y-66157943D01*
X130333381Y-66155622D01*
X130302631Y-66096938D01*
X130242716Y-65963043D01*
X130162273Y-65775014D01*
X130069941Y-65553931D01*
X129974357Y-65320870D01*
X129884159Y-65096911D01*
X129807986Y-64903132D01*
X129754474Y-64760610D01*
X129732262Y-64690424D01*
X129732093Y-64688351D01*
X129769544Y-64624174D01*
X129864205Y-64528184D01*
X129919004Y-64481932D01*
X130103759Y-64281324D01*
X130236870Y-64031569D01*
X130298156Y-63772819D01*
X130300019Y-63723925D01*
X130251462Y-63447148D01*
X130118503Y-63191712D01*
X129920211Y-62976717D01*
X129675655Y-62821266D01*
X129403903Y-62744460D01*
X129317398Y-62739605D01*
X129041099Y-62788246D01*
X128786103Y-62921435D01*
X128571480Y-63120069D01*
X128416297Y-63365048D01*
X128339623Y-63637270D01*
X128334777Y-63723925D01*
X128379418Y-63979687D01*
X128499888Y-64234418D01*
X128676004Y-64447967D01*
X128715791Y-64481932D01*
X128827695Y-64582698D01*
X128894456Y-64664977D01*
X128902702Y-64688351D01*
X128883945Y-64749107D01*
X128833386Y-64884308D01*
X128759599Y-65072909D01*
X128671155Y-65293868D01*
X128576625Y-65526139D01*
X128484583Y-65748679D01*
X128403599Y-65940443D01*
X128342247Y-66080387D01*
X128309097Y-66147467D01*
X128307522Y-66149514D01*
X128256834Y-66139361D01*
X128148561Y-66095200D01*
X128115293Y-66079715D01*
X127937088Y-65994734D01*
X127596241Y-66233003D01*
X127431276Y-66344537D01*
X127297332Y-66428128D01*
X127217920Y-66469300D01*
X127209161Y-66471272D01*
X127153515Y-66436747D01*
X127046562Y-66345008D01*
X126908607Y-66213805D01*
X126866489Y-66171707D01*
X126728811Y-66027614D01*
X126625141Y-65909661D01*
X126573020Y-65838124D01*
X126570051Y-65829035D01*
X126597897Y-65768839D01*
X126671698Y-65648089D01*
X126776847Y-65490381D01*
X126803316Y-65452239D01*
X126913325Y-65290692D01*
X126995397Y-65162214D01*
X127035006Y-65089772D01*
X127036581Y-65083439D01*
X127018896Y-65021102D01*
X126972335Y-64889894D01*
X126906638Y-64717159D01*
X126900593Y-64701716D01*
X126825554Y-64519890D01*
X126765191Y-64412588D01*
X126699647Y-64356584D01*
X126609066Y-64328646D01*
X126576613Y-64322707D01*
X126411050Y-64292852D01*
X126207676Y-64254453D01*
X126116479Y-64236708D01*
X125844336Y-64183105D01*
X125844336Y-63571952D01*
X126050574Y-63571952D01*
X126051519Y-63708686D01*
X126051683Y-63744961D01*
X126051683Y-64075043D01*
X126401581Y-64139635D01*
X126591347Y-64178422D01*
X126747278Y-64217031D01*
X126832733Y-64245939D01*
X126889633Y-64312971D01*
X126964495Y-64449361D01*
X127044745Y-64625391D01*
X127117809Y-64811345D01*
X127171115Y-64977505D01*
X127192087Y-65094154D01*
X127192092Y-65095268D01*
X127164883Y-65184956D01*
X127093087Y-65330258D01*
X126991452Y-65501772D01*
X126976882Y-65524359D01*
X126761673Y-65854675D01*
X126961484Y-66059300D01*
X127080628Y-66172580D01*
X127175141Y-66246889D01*
X127211957Y-66263925D01*
X127277155Y-66237313D01*
X127403051Y-66166983D01*
X127564394Y-66067194D01*
X127592228Y-66049176D01*
X127765377Y-65940259D01*
X127880098Y-65882807D01*
X127962476Y-65868236D01*
X128038595Y-65887963D01*
X128057299Y-65896147D01*
X128165994Y-65927863D01*
X128228829Y-65916508D01*
X128261665Y-65854365D01*
X128323606Y-65716823D01*
X128405487Y-65524835D01*
X128489445Y-65320851D01*
X128713992Y-64766552D01*
X128501263Y-64535768D01*
X128305018Y-64255229D01*
X128198305Y-63948310D01*
X128181397Y-63632954D01*
X128254562Y-63327103D01*
X128418073Y-63048698D01*
X128477801Y-62980504D01*
X128735121Y-62774636D01*
X129019100Y-62656341D01*
X129314305Y-62619621D01*
X129605300Y-62658477D01*
X129876652Y-62766911D01*
X130112926Y-62938923D01*
X130298689Y-63168515D01*
X130418506Y-63449688D01*
X130457228Y-63749843D01*
X130411492Y-64060862D01*
X130270708Y-64352999D01*
X130137591Y-64525536D01*
X129922279Y-64770144D01*
X130146088Y-65322647D01*
X130237988Y-65545565D01*
X130318277Y-65733052D01*
X130377769Y-65864114D01*
X130405966Y-65916508D01*
X130473690Y-65927283D01*
X130577496Y-65896147D01*
X130655770Y-65869959D01*
X130734500Y-65876161D01*
X130839773Y-65923335D01*
X130997673Y-66020065D01*
X131042567Y-66049176D01*
X131207285Y-66152403D01*
X131340655Y-66228487D01*
X131417429Y-66263170D01*
X131422838Y-66263925D01*
X131484524Y-66229475D01*
X131589498Y-66140813D01*
X131673311Y-66059300D01*
X131873122Y-65854675D01*
X131657913Y-65524359D01*
X131553493Y-65351602D01*
X131477005Y-65201251D01*
X131443195Y-65102709D01*
X131442704Y-65095268D01*
X131463147Y-64979501D01*
X131516095Y-64813818D01*
X131588974Y-64627935D01*
X131669211Y-64451568D01*
X131744231Y-64314436D01*
X131801461Y-64246255D01*
X131802062Y-64245939D01*
X131892668Y-64215598D01*
X132050624Y-64176816D01*
X132233214Y-64139635D01*
X132583112Y-64075043D01*
X132583112Y-63744961D01*
X132584487Y-63596443D01*
X132576885Y-63498017D01*
X132542714Y-63435306D01*
X132464382Y-63393932D01*
X132324296Y-63359517D01*
X132104866Y-63317683D01*
X132046678Y-63306536D01*
X131743510Y-63247923D01*
X131567189Y-62861011D01*
X131485209Y-62674537D01*
X131423519Y-62521679D01*
X131392589Y-62428800D01*
X131390867Y-62417064D01*
X131418488Y-62350344D01*
X131491972Y-62222911D01*
X131597251Y-62058647D01*
X131634552Y-62003384D01*
X131878236Y-61646740D01*
X131645571Y-61414075D01*
X131412907Y-61181410D01*
X131077907Y-61415374D01*
X130904328Y-61527286D01*
X130750327Y-61610198D01*
X130644890Y-61648825D01*
X130633188Y-61649896D01*
X130511408Y-61628154D01*
X130336997Y-61572221D01*
X130148471Y-61497303D01*
X129984349Y-61418606D01*
X129887602Y-61355560D01*
X129840785Y-61272874D01*
X129787683Y-61118436D01*
X129738497Y-60922852D01*
X129730622Y-60884506D01*
X129651397Y-60484129D01*
X128983399Y-60484129D01*
X128904174Y-60884506D01*
X128856834Y-61084357D01*
X128803689Y-61248738D01*
X128754936Y-61347042D01*
X128747194Y-61355560D01*
X128640056Y-61424187D01*
X128472829Y-61503124D01*
X128284029Y-61577164D01*
X128112175Y-61631101D01*
X128001608Y-61649896D01*
X127908132Y-61620977D01*
X127760815Y-61544990D01*
X127588642Y-61437219D01*
X127556888Y-61415374D01*
X127221889Y-61181410D01*
X126756559Y-61646740D01*
X127000244Y-62003384D01*
X127112591Y-62174275D01*
X127197552Y-62315819D01*
X127241058Y-62404133D01*
X127243928Y-62417064D01*
X127223580Y-62488234D01*
X127169515Y-62626827D01*
X127092204Y-62806480D01*
X127067607Y-62861011D01*
X126891285Y-63247923D01*
X126588117Y-63306536D01*
X126349667Y-63351778D01*
X126194279Y-63386563D01*
X126104363Y-63425268D01*
X126062325Y-63482272D01*
X126050574Y-63571952D01*
X125844336Y-63571952D01*
X125844336Y-63264744D01*
X126142398Y-63207066D01*
X126405158Y-63156468D01*
X126586479Y-63116748D01*
X126706063Y-63076027D01*
X126783616Y-63022422D01*
X126838842Y-62944053D01*
X126891444Y-62829040D01*
X126932974Y-62730383D01*
X127080359Y-62384801D01*
X126825205Y-62022643D01*
X126709196Y-61852975D01*
X126620770Y-61714113D01*
X126573990Y-61628525D01*
X126570051Y-61614970D01*
X126604982Y-61558620D01*
X126695265Y-61454655D01*
X126819136Y-61324750D01*
X126954833Y-61190580D01*
X127080591Y-61073820D01*
X127174646Y-60996147D01*
X127211042Y-60976578D01*
X127269871Y-61004283D01*
X127391365Y-61078309D01*
X127553607Y-61185026D01*
X127628747Y-61236398D01*
X128004590Y-61496218D01*
X128285178Y-61382845D01*
X128480256Y-61300584D01*
X128600073Y-61234417D01*
X128666548Y-61164320D01*
X128701599Y-61070270D01*
X128717761Y-60987690D01*
X128748205Y-60818987D01*
X128787000Y-60613531D01*
X128804614Y-60523006D01*
X128858217Y-60250864D01*
X129776578Y-60250864D01*
X129830181Y-60523006D01*
G37*
X129830181Y-60523006D02*
X129869185Y-60725848D01*
X129905920Y-60924539D01*
X129918583Y-60995949D01*
X129944296Y-61104939D01*
X129990982Y-61181623D01*
X130081860Y-61248143D01*
X130240150Y-61326638D01*
X130288554Y-61348723D01*
X130623726Y-61500697D01*
X131002809Y-61238638D01*
X131176388Y-61121702D01*
X131318475Y-61031659D01*
X131407270Y-60982079D01*
X131423754Y-60976578D01*
X131480332Y-61011367D01*
X131584721Y-61101284D01*
X131715155Y-61224654D01*
X131849871Y-61359800D01*
X131967106Y-61485048D01*
X132045096Y-61578722D01*
X132064745Y-61614970D01*
X132036668Y-61675515D01*
X131961813Y-61797535D01*
X131854243Y-61958562D01*
X131809590Y-62022643D01*
X131554436Y-62384801D01*
X131701822Y-62730383D01*
X131763124Y-62875181D01*
X131814402Y-62975708D01*
X131875357Y-63043844D01*
X131965696Y-63091470D01*
X132105121Y-63130468D01*
X132313338Y-63172717D01*
X132492398Y-63207066D01*
X132790459Y-63264744D01*
X132790459Y-64183105D01*
X132518316Y-64236708D01*
X132319314Y-64274991D01*
X132127877Y-64310382D01*
X132058182Y-64322707D01*
X131957066Y-64346957D01*
X131886529Y-64392788D01*
X131826718Y-64483431D01*
X131757775Y-64642114D01*
X131734203Y-64701716D01*
X131667349Y-64876682D01*
X131618817Y-65012404D01*
X131598348Y-65081538D01*
X131598214Y-65083439D01*
X131625964Y-65139694D01*
X131699530Y-65257284D01*
X131804383Y-65413240D01*
X131831479Y-65452239D01*
X131941736Y-65615489D01*
X132023878Y-65747640D01*
X132063269Y-65824853D01*
X132064745Y-65832161D01*
X132029732Y-65889168D01*
X131939229Y-65993596D01*
X131815037Y-66123771D01*
X131678957Y-66258020D01*
X131552792Y-66374668D01*
X131458343Y-66452042D01*
X131421865Y-66471272D01*
X131361792Y-66443023D01*
X131241377Y-66368050D01*
X131083825Y-66261015D01*
X131040229Y-66230162D01*
X130702344Y-65989052D01*
X130527929Y-66082981D01*
X130411510Y-66138173D01*
X130340208Y-66157943D01*
X130333381Y-66155622D01*
X130302631Y-66096938D01*
X130242716Y-65963043D01*
X130162273Y-65775014D01*
X130069941Y-65553931D01*
X129974357Y-65320870D01*
X129884159Y-65096911D01*
X129807986Y-64903132D01*
X129754474Y-64760610D01*
X129732262Y-64690424D01*
X129732093Y-64688351D01*
X129769544Y-64624174D01*
X129864205Y-64528184D01*
X129919004Y-64481932D01*
X130103759Y-64281324D01*
X130236870Y-64031569D01*
X130298156Y-63772819D01*
X130300019Y-63723925D01*
X130251462Y-63447148D01*
X130118503Y-63191712D01*
X129920211Y-62976717D01*
X129675655Y-62821266D01*
X129403903Y-62744460D01*
X129317398Y-62739605D01*
X129041099Y-62788246D01*
X128786103Y-62921435D01*
X128571480Y-63120069D01*
X128416297Y-63365048D01*
X128339623Y-63637270D01*
X128334777Y-63723925D01*
X128379418Y-63979687D01*
X128499888Y-64234418D01*
X128676004Y-64447967D01*
X128715791Y-64481932D01*
X128827695Y-64582698D01*
X128894456Y-64664977D01*
X128902702Y-64688351D01*
X128883945Y-64749107D01*
X128833386Y-64884308D01*
X128759599Y-65072909D01*
X128671155Y-65293868D01*
X128576625Y-65526139D01*
X128484583Y-65748679D01*
X128403599Y-65940443D01*
X128342247Y-66080387D01*
X128309097Y-66147467D01*
X128307522Y-66149514D01*
X128256834Y-66139361D01*
X128148561Y-66095200D01*
X128115293Y-66079715D01*
X127937088Y-65994734D01*
X127596241Y-66233003D01*
X127431276Y-66344537D01*
X127297332Y-66428128D01*
X127217920Y-66469300D01*
X127209161Y-66471272D01*
X127153515Y-66436747D01*
X127046562Y-66345008D01*
X126908607Y-66213805D01*
X126866489Y-66171707D01*
X126728811Y-66027614D01*
X126625141Y-65909661D01*
X126573020Y-65838124D01*
X126570051Y-65829035D01*
X126597897Y-65768839D01*
X126671698Y-65648089D01*
X126776847Y-65490381D01*
X126803316Y-65452239D01*
X126913325Y-65290692D01*
X126995397Y-65162214D01*
X127035006Y-65089772D01*
X127036581Y-65083439D01*
X127018896Y-65021102D01*
X126972335Y-64889894D01*
X126906638Y-64717159D01*
X126900593Y-64701716D01*
X126825554Y-64519890D01*
X126765191Y-64412588D01*
X126699647Y-64356584D01*
X126609066Y-64328646D01*
X126576613Y-64322707D01*
X126411050Y-64292852D01*
X126207676Y-64254453D01*
X126116479Y-64236708D01*
X125844336Y-64183105D01*
X125844336Y-63571952D01*
X126050574Y-63571952D01*
X126051519Y-63708686D01*
X126051683Y-63744961D01*
X126051683Y-64075043D01*
X126401581Y-64139635D01*
X126591347Y-64178422D01*
X126747278Y-64217031D01*
X126832733Y-64245939D01*
X126889633Y-64312971D01*
X126964495Y-64449361D01*
X127044745Y-64625391D01*
X127117809Y-64811345D01*
X127171115Y-64977505D01*
X127192087Y-65094154D01*
X127192092Y-65095268D01*
X127164883Y-65184956D01*
X127093087Y-65330258D01*
X126991452Y-65501772D01*
X126976882Y-65524359D01*
X126761673Y-65854675D01*
X126961484Y-66059300D01*
X127080628Y-66172580D01*
X127175141Y-66246889D01*
X127211957Y-66263925D01*
X127277155Y-66237313D01*
X127403051Y-66166983D01*
X127564394Y-66067194D01*
X127592228Y-66049176D01*
X127765377Y-65940259D01*
X127880098Y-65882807D01*
X127962476Y-65868236D01*
X128038595Y-65887963D01*
X128057299Y-65896147D01*
X128165994Y-65927863D01*
X128228829Y-65916508D01*
X128261665Y-65854365D01*
X128323606Y-65716823D01*
X128405487Y-65524835D01*
X128489445Y-65320851D01*
X128713992Y-64766552D01*
X128501263Y-64535768D01*
X128305018Y-64255229D01*
X128198305Y-63948310D01*
X128181397Y-63632954D01*
X128254562Y-63327103D01*
X128418073Y-63048698D01*
X128477801Y-62980504D01*
X128735121Y-62774636D01*
X129019100Y-62656341D01*
X129314305Y-62619621D01*
X129605300Y-62658477D01*
X129876652Y-62766911D01*
X130112926Y-62938923D01*
X130298689Y-63168515D01*
X130418506Y-63449688D01*
X130457228Y-63749843D01*
X130411492Y-64060862D01*
X130270708Y-64352999D01*
X130137591Y-64525536D01*
X129922279Y-64770144D01*
X130146088Y-65322647D01*
X130237988Y-65545565D01*
X130318277Y-65733052D01*
X130377769Y-65864114D01*
X130405966Y-65916508D01*
X130473690Y-65927283D01*
X130577496Y-65896147D01*
X130655770Y-65869959D01*
X130734500Y-65876161D01*
X130839773Y-65923335D01*
X130997673Y-66020065D01*
X131042567Y-66049176D01*
X131207285Y-66152403D01*
X131340655Y-66228487D01*
X131417429Y-66263170D01*
X131422838Y-66263925D01*
X131484524Y-66229475D01*
X131589498Y-66140813D01*
X131673311Y-66059300D01*
X131873122Y-65854675D01*
X131657913Y-65524359D01*
X131553493Y-65351602D01*
X131477005Y-65201251D01*
X131443195Y-65102709D01*
X131442704Y-65095268D01*
X131463147Y-64979501D01*
X131516095Y-64813818D01*
X131588974Y-64627935D01*
X131669211Y-64451568D01*
X131744231Y-64314436D01*
X131801461Y-64246255D01*
X131802062Y-64245939D01*
X131892668Y-64215598D01*
X132050624Y-64176816D01*
X132233214Y-64139635D01*
X132583112Y-64075043D01*
X132583112Y-63744961D01*
X132584487Y-63596443D01*
X132576885Y-63498017D01*
X132542714Y-63435306D01*
X132464382Y-63393932D01*
X132324296Y-63359517D01*
X132104866Y-63317683D01*
X132046678Y-63306536D01*
X131743510Y-63247923D01*
X131567189Y-62861011D01*
X131485209Y-62674537D01*
X131423519Y-62521679D01*
X131392589Y-62428800D01*
X131390867Y-62417064D01*
X131418488Y-62350344D01*
X131491972Y-62222911D01*
X131597251Y-62058647D01*
X131634552Y-62003384D01*
X131878236Y-61646740D01*
X131645571Y-61414075D01*
X131412907Y-61181410D01*
X131077907Y-61415374D01*
X130904328Y-61527286D01*
X130750327Y-61610198D01*
X130644890Y-61648825D01*
X130633188Y-61649896D01*
X130511408Y-61628154D01*
X130336997Y-61572221D01*
X130148471Y-61497303D01*
X129984349Y-61418606D01*
X129887602Y-61355560D01*
X129840785Y-61272874D01*
X129787683Y-61118436D01*
X129738497Y-60922852D01*
X129730622Y-60884506D01*
X129651397Y-60484129D01*
X128983399Y-60484129D01*
X128904174Y-60884506D01*
X128856834Y-61084357D01*
X128803689Y-61248738D01*
X128754936Y-61347042D01*
X128747194Y-61355560D01*
X128640056Y-61424187D01*
X128472829Y-61503124D01*
X128284029Y-61577164D01*
X128112175Y-61631101D01*
X128001608Y-61649896D01*
X127908132Y-61620977D01*
X127760815Y-61544990D01*
X127588642Y-61437219D01*
X127556888Y-61415374D01*
X127221889Y-61181410D01*
X126756559Y-61646740D01*
X127000244Y-62003384D01*
X127112591Y-62174275D01*
X127197552Y-62315819D01*
X127241058Y-62404133D01*
X127243928Y-62417064D01*
X127223580Y-62488234D01*
X127169515Y-62626827D01*
X127092204Y-62806480D01*
X127067607Y-62861011D01*
X126891285Y-63247923D01*
X126588117Y-63306536D01*
X126349667Y-63351778D01*
X126194279Y-63386563D01*
X126104363Y-63425268D01*
X126062325Y-63482272D01*
X126050574Y-63571952D01*
X125844336Y-63571952D01*
X125844336Y-63264744D01*
X126142398Y-63207066D01*
X126405158Y-63156468D01*
X126586479Y-63116748D01*
X126706063Y-63076027D01*
X126783616Y-63022422D01*
X126838842Y-62944053D01*
X126891444Y-62829040D01*
X126932974Y-62730383D01*
X127080359Y-62384801D01*
X126825205Y-62022643D01*
X126709196Y-61852975D01*
X126620770Y-61714113D01*
X126573990Y-61628525D01*
X126570051Y-61614970D01*
X126604982Y-61558620D01*
X126695265Y-61454655D01*
X126819136Y-61324750D01*
X126954833Y-61190580D01*
X127080591Y-61073820D01*
X127174646Y-60996147D01*
X127211042Y-60976578D01*
X127269871Y-61004283D01*
X127391365Y-61078309D01*
X127553607Y-61185026D01*
X127628747Y-61236398D01*
X128004590Y-61496218D01*
X128285178Y-61382845D01*
X128480256Y-61300584D01*
X128600073Y-61234417D01*
X128666548Y-61164320D01*
X128701599Y-61070270D01*
X128717761Y-60987690D01*
X128748205Y-60818987D01*
X128787000Y-60613531D01*
X128804614Y-60523006D01*
X128858217Y-60250864D01*
X129776578Y-60250864D01*
X129830181Y-60523006D01*
D10*
%TO.C,C1*%
X160620000Y-58850000D02*
G75*
G03*
X160620000Y-58850000I-5120000J0D01*
G01*
X155500000Y-53770000D02*
X155500000Y-63930000D01*
X155540000Y-53770000D02*
X155540000Y-63930000D01*
X155580000Y-53770000D02*
X155580000Y-63930000D01*
X155620000Y-53771000D02*
X155620000Y-63929000D01*
X155660000Y-53772000D02*
X155660000Y-63928000D01*
X155700000Y-53773000D02*
X155700000Y-63927000D01*
X155740000Y-53775000D02*
X155740000Y-63925000D01*
X155780000Y-53777000D02*
X155780000Y-63923000D01*
X155820000Y-53780000D02*
X155820000Y-63920000D01*
X155860000Y-53782000D02*
X155860000Y-63918000D01*
X155900000Y-53785000D02*
X155900000Y-63915000D01*
X155940000Y-53788000D02*
X155940000Y-63912000D01*
X155980000Y-53792000D02*
X155980000Y-63908000D01*
X156020000Y-53796000D02*
X156020000Y-63904000D01*
X156060000Y-53800000D02*
X156060000Y-63900000D01*
X156100000Y-53805000D02*
X156100000Y-63895000D01*
X156140000Y-53810000D02*
X156140000Y-63890000D01*
X156180000Y-53815000D02*
X156180000Y-63885000D01*
X156221000Y-53820000D02*
X156221000Y-63880000D01*
X156261000Y-53826000D02*
X156261000Y-63874000D01*
X156301000Y-53832000D02*
X156301000Y-63868000D01*
X156341000Y-53839000D02*
X156341000Y-63861000D01*
X156381000Y-53846000D02*
X156381000Y-63854000D01*
X156421000Y-53853000D02*
X156421000Y-63847000D01*
X156461000Y-53860000D02*
X156461000Y-63840000D01*
X156501000Y-53868000D02*
X156501000Y-63832000D01*
X156541000Y-53876000D02*
X156541000Y-63824000D01*
X156581000Y-53885000D02*
X156581000Y-63815000D01*
X156621000Y-53894000D02*
X156621000Y-63806000D01*
X156661000Y-53903000D02*
X156661000Y-63797000D01*
X156701000Y-53912000D02*
X156701000Y-63788000D01*
X156741000Y-53922000D02*
X156741000Y-63778000D01*
X156781000Y-53932000D02*
X156781000Y-57609000D01*
X156781000Y-60091000D02*
X156781000Y-63768000D01*
X156821000Y-53943000D02*
X156821000Y-57609000D01*
X156821000Y-60091000D02*
X156821000Y-63757000D01*
X156861000Y-53953000D02*
X156861000Y-57609000D01*
X156861000Y-60091000D02*
X156861000Y-63747000D01*
X156901000Y-53965000D02*
X156901000Y-57609000D01*
X156901000Y-60091000D02*
X156901000Y-63735000D01*
X156941000Y-53976000D02*
X156941000Y-57609000D01*
X156941000Y-60091000D02*
X156941000Y-63724000D01*
X156981000Y-53988000D02*
X156981000Y-57609000D01*
X156981000Y-60091000D02*
X156981000Y-63712000D01*
X157021000Y-54000000D02*
X157021000Y-57609000D01*
X157021000Y-60091000D02*
X157021000Y-63700000D01*
X157061000Y-54013000D02*
X157061000Y-57609000D01*
X157061000Y-60091000D02*
X157061000Y-63687000D01*
X157101000Y-54026000D02*
X157101000Y-57609000D01*
X157101000Y-60091000D02*
X157101000Y-63674000D01*
X157141000Y-54039000D02*
X157141000Y-57609000D01*
X157141000Y-60091000D02*
X157141000Y-63661000D01*
X157181000Y-54053000D02*
X157181000Y-57609000D01*
X157181000Y-60091000D02*
X157181000Y-63647000D01*
X157221000Y-54067000D02*
X157221000Y-57609000D01*
X157221000Y-60091000D02*
X157221000Y-63633000D01*
X157261000Y-54082000D02*
X157261000Y-57609000D01*
X157261000Y-60091000D02*
X157261000Y-63618000D01*
X157301000Y-54096000D02*
X157301000Y-57609000D01*
X157301000Y-60091000D02*
X157301000Y-63604000D01*
X157341000Y-54112000D02*
X157341000Y-57609000D01*
X157341000Y-60091000D02*
X157341000Y-63588000D01*
X157381000Y-54127000D02*
X157381000Y-57609000D01*
X157381000Y-60091000D02*
X157381000Y-63573000D01*
X157421000Y-54143000D02*
X157421000Y-57609000D01*
X157421000Y-60091000D02*
X157421000Y-63557000D01*
X157461000Y-54160000D02*
X157461000Y-57609000D01*
X157461000Y-60091000D02*
X157461000Y-63540000D01*
X157501000Y-54176000D02*
X157501000Y-57609000D01*
X157501000Y-60091000D02*
X157501000Y-63524000D01*
X157541000Y-54193000D02*
X157541000Y-57609000D01*
X157541000Y-60091000D02*
X157541000Y-63507000D01*
X157581000Y-54211000D02*
X157581000Y-57609000D01*
X157581000Y-60091000D02*
X157581000Y-63489000D01*
X157621000Y-54229000D02*
X157621000Y-57609000D01*
X157621000Y-60091000D02*
X157621000Y-63471000D01*
X157661000Y-54247000D02*
X157661000Y-57609000D01*
X157661000Y-60091000D02*
X157661000Y-63453000D01*
X157701000Y-54266000D02*
X157701000Y-57609000D01*
X157701000Y-60091000D02*
X157701000Y-63434000D01*
X157741000Y-54286000D02*
X157741000Y-57609000D01*
X157741000Y-60091000D02*
X157741000Y-63414000D01*
X157781000Y-54305000D02*
X157781000Y-57609000D01*
X157781000Y-60091000D02*
X157781000Y-63395000D01*
X157821000Y-54325000D02*
X157821000Y-57609000D01*
X157821000Y-60091000D02*
X157821000Y-63375000D01*
X157861000Y-54346000D02*
X157861000Y-57609000D01*
X157861000Y-60091000D02*
X157861000Y-63354000D01*
X157901000Y-54367000D02*
X157901000Y-57609000D01*
X157901000Y-60091000D02*
X157901000Y-63333000D01*
X157941000Y-54388000D02*
X157941000Y-57609000D01*
X157941000Y-60091000D02*
X157941000Y-63312000D01*
X157981000Y-54410000D02*
X157981000Y-57609000D01*
X157981000Y-60091000D02*
X157981000Y-63290000D01*
X158021000Y-54433000D02*
X158021000Y-57609000D01*
X158021000Y-60091000D02*
X158021000Y-63267000D01*
X158061000Y-54455000D02*
X158061000Y-57609000D01*
X158061000Y-60091000D02*
X158061000Y-63245000D01*
X158101000Y-54479000D02*
X158101000Y-57609000D01*
X158101000Y-60091000D02*
X158101000Y-63221000D01*
X158141000Y-54503000D02*
X158141000Y-57609000D01*
X158141000Y-60091000D02*
X158141000Y-63197000D01*
X158181000Y-54527000D02*
X158181000Y-57609000D01*
X158181000Y-60091000D02*
X158181000Y-63173000D01*
X158221000Y-54552000D02*
X158221000Y-57609000D01*
X158221000Y-60091000D02*
X158221000Y-63148000D01*
X158261000Y-54577000D02*
X158261000Y-57609000D01*
X158261000Y-60091000D02*
X158261000Y-63123000D01*
X158301000Y-54603000D02*
X158301000Y-57609000D01*
X158301000Y-60091000D02*
X158301000Y-63097000D01*
X158341000Y-54629000D02*
X158341000Y-57609000D01*
X158341000Y-60091000D02*
X158341000Y-63071000D01*
X158381000Y-54656000D02*
X158381000Y-57609000D01*
X158381000Y-60091000D02*
X158381000Y-63044000D01*
X158421000Y-54684000D02*
X158421000Y-57609000D01*
X158421000Y-60091000D02*
X158421000Y-63016000D01*
X158461000Y-54712000D02*
X158461000Y-57609000D01*
X158461000Y-60091000D02*
X158461000Y-62988000D01*
X158501000Y-54740000D02*
X158501000Y-57609000D01*
X158501000Y-60091000D02*
X158501000Y-62960000D01*
X158541000Y-54770000D02*
X158541000Y-57609000D01*
X158541000Y-60091000D02*
X158541000Y-62930000D01*
X158581000Y-54800000D02*
X158581000Y-57609000D01*
X158581000Y-60091000D02*
X158581000Y-62900000D01*
X158621000Y-54830000D02*
X158621000Y-57609000D01*
X158621000Y-60091000D02*
X158621000Y-62870000D01*
X158661000Y-54861000D02*
X158661000Y-57609000D01*
X158661000Y-60091000D02*
X158661000Y-62839000D01*
X158701000Y-54893000D02*
X158701000Y-57609000D01*
X158701000Y-60091000D02*
X158701000Y-62807000D01*
X158741000Y-54925000D02*
X158741000Y-57609000D01*
X158741000Y-60091000D02*
X158741000Y-62775000D01*
X158781000Y-54958000D02*
X158781000Y-57609000D01*
X158781000Y-60091000D02*
X158781000Y-62742000D01*
X158821000Y-54992000D02*
X158821000Y-57609000D01*
X158821000Y-60091000D02*
X158821000Y-62708000D01*
X158861000Y-55026000D02*
X158861000Y-57609000D01*
X158861000Y-60091000D02*
X158861000Y-62674000D01*
X158901000Y-55061000D02*
X158901000Y-57609000D01*
X158901000Y-60091000D02*
X158901000Y-62639000D01*
X158941000Y-55097000D02*
X158941000Y-57609000D01*
X158941000Y-60091000D02*
X158941000Y-62603000D01*
X158981000Y-55134000D02*
X158981000Y-57609000D01*
X158981000Y-60091000D02*
X158981000Y-62566000D01*
X159021000Y-55171000D02*
X159021000Y-57609000D01*
X159021000Y-60091000D02*
X159021000Y-62529000D01*
X159061000Y-55210000D02*
X159061000Y-57609000D01*
X159061000Y-60091000D02*
X159061000Y-62490000D01*
X159101000Y-55249000D02*
X159101000Y-57609000D01*
X159101000Y-60091000D02*
X159101000Y-62451000D01*
X159141000Y-55289000D02*
X159141000Y-57609000D01*
X159141000Y-60091000D02*
X159141000Y-62411000D01*
X159181000Y-55330000D02*
X159181000Y-57609000D01*
X159181000Y-60091000D02*
X159181000Y-62370000D01*
X159221000Y-55372000D02*
X159221000Y-57609000D01*
X159221000Y-60091000D02*
X159221000Y-62328000D01*
X159261000Y-55414000D02*
X159261000Y-62286000D01*
X159301000Y-55458000D02*
X159301000Y-62242000D01*
X159341000Y-55503000D02*
X159341000Y-62197000D01*
X159381000Y-55549000D02*
X159381000Y-62151000D01*
X159421000Y-55596000D02*
X159421000Y-62104000D01*
X159461000Y-55644000D02*
X159461000Y-62056000D01*
X159501000Y-55694000D02*
X159501000Y-62006000D01*
X159541000Y-55744000D02*
X159541000Y-61956000D01*
X159581000Y-55796000D02*
X159581000Y-61904000D01*
X159621000Y-55850000D02*
X159621000Y-61850000D01*
X159661000Y-55905000D02*
X159661000Y-61795000D01*
X159701000Y-55961000D02*
X159701000Y-61739000D01*
X159741000Y-56020000D02*
X159741000Y-61680000D01*
X159781000Y-56080000D02*
X159781000Y-61620000D01*
X159821000Y-56141000D02*
X159821000Y-61559000D01*
X159861000Y-56205000D02*
X159861000Y-61495000D01*
X159901000Y-56271000D02*
X159901000Y-61429000D01*
X159941000Y-56340000D02*
X159941000Y-61360000D01*
X159981000Y-56411000D02*
X159981000Y-61289000D01*
X160021000Y-56485000D02*
X160021000Y-61215000D01*
X160061000Y-56561000D02*
X160061000Y-61139000D01*
X160101000Y-56641000D02*
X160101000Y-61059000D01*
X160141000Y-56725000D02*
X160141000Y-60975000D01*
X160181000Y-56813000D02*
X160181000Y-60887000D01*
X160221000Y-56906000D02*
X160221000Y-60794000D01*
X160261000Y-57004000D02*
X160261000Y-60696000D01*
X160301000Y-57108000D02*
X160301000Y-60592000D01*
X160341000Y-57220000D02*
X160341000Y-60480000D01*
X160381000Y-57340000D02*
X160381000Y-60360000D01*
X160421000Y-57472000D02*
X160421000Y-60228000D01*
X160461000Y-57620000D02*
X160461000Y-60080000D01*
X160501000Y-57788000D02*
X160501000Y-59912000D01*
X160541000Y-57988000D02*
X160541000Y-59712000D01*
X160581000Y-58251000D02*
X160581000Y-59449000D01*
X150020354Y-55975000D02*
X151020354Y-55975000D01*
X150520354Y-55475000D02*
X150520354Y-56475000D01*
%TO.C,C2*%
X160620000Y-72950000D02*
G75*
G03*
X160620000Y-72950000I-5120000J0D01*
G01*
X155500000Y-67870000D02*
X155500000Y-78030000D01*
X155540000Y-67870000D02*
X155540000Y-78030000D01*
X155580000Y-67870000D02*
X155580000Y-78030000D01*
X155620000Y-67871000D02*
X155620000Y-78029000D01*
X155660000Y-67872000D02*
X155660000Y-78028000D01*
X155700000Y-67873000D02*
X155700000Y-78027000D01*
X155740000Y-67875000D02*
X155740000Y-78025000D01*
X155780000Y-67877000D02*
X155780000Y-78023000D01*
X155820000Y-67880000D02*
X155820000Y-78020000D01*
X155860000Y-67882000D02*
X155860000Y-78018000D01*
X155900000Y-67885000D02*
X155900000Y-78015000D01*
X155940000Y-67888000D02*
X155940000Y-78012000D01*
X155980000Y-67892000D02*
X155980000Y-78008000D01*
X156020000Y-67896000D02*
X156020000Y-78004000D01*
X156060000Y-67900000D02*
X156060000Y-78000000D01*
X156100000Y-67905000D02*
X156100000Y-77995000D01*
X156140000Y-67910000D02*
X156140000Y-77990000D01*
X156180000Y-67915000D02*
X156180000Y-77985000D01*
X156221000Y-67920000D02*
X156221000Y-77980000D01*
X156261000Y-67926000D02*
X156261000Y-77974000D01*
X156301000Y-67932000D02*
X156301000Y-77968000D01*
X156341000Y-67939000D02*
X156341000Y-77961000D01*
X156381000Y-67946000D02*
X156381000Y-77954000D01*
X156421000Y-67953000D02*
X156421000Y-77947000D01*
X156461000Y-67960000D02*
X156461000Y-77940000D01*
X156501000Y-67968000D02*
X156501000Y-77932000D01*
X156541000Y-67976000D02*
X156541000Y-77924000D01*
X156581000Y-67985000D02*
X156581000Y-77915000D01*
X156621000Y-67994000D02*
X156621000Y-77906000D01*
X156661000Y-68003000D02*
X156661000Y-77897000D01*
X156701000Y-68012000D02*
X156701000Y-77888000D01*
X156741000Y-68022000D02*
X156741000Y-77878000D01*
X156781000Y-68032000D02*
X156781000Y-71709000D01*
X156781000Y-74191000D02*
X156781000Y-77868000D01*
X156821000Y-68043000D02*
X156821000Y-71709000D01*
X156821000Y-74191000D02*
X156821000Y-77857000D01*
X156861000Y-68053000D02*
X156861000Y-71709000D01*
X156861000Y-74191000D02*
X156861000Y-77847000D01*
X156901000Y-68065000D02*
X156901000Y-71709000D01*
X156901000Y-74191000D02*
X156901000Y-77835000D01*
X156941000Y-68076000D02*
X156941000Y-71709000D01*
X156941000Y-74191000D02*
X156941000Y-77824000D01*
X156981000Y-68088000D02*
X156981000Y-71709000D01*
X156981000Y-74191000D02*
X156981000Y-77812000D01*
X157021000Y-68100000D02*
X157021000Y-71709000D01*
X157021000Y-74191000D02*
X157021000Y-77800000D01*
X157061000Y-68113000D02*
X157061000Y-71709000D01*
X157061000Y-74191000D02*
X157061000Y-77787000D01*
X157101000Y-68126000D02*
X157101000Y-71709000D01*
X157101000Y-74191000D02*
X157101000Y-77774000D01*
X157141000Y-68139000D02*
X157141000Y-71709000D01*
X157141000Y-74191000D02*
X157141000Y-77761000D01*
X157181000Y-68153000D02*
X157181000Y-71709000D01*
X157181000Y-74191000D02*
X157181000Y-77747000D01*
X157221000Y-68167000D02*
X157221000Y-71709000D01*
X157221000Y-74191000D02*
X157221000Y-77733000D01*
X157261000Y-68182000D02*
X157261000Y-71709000D01*
X157261000Y-74191000D02*
X157261000Y-77718000D01*
X157301000Y-68196000D02*
X157301000Y-71709000D01*
X157301000Y-74191000D02*
X157301000Y-77704000D01*
X157341000Y-68212000D02*
X157341000Y-71709000D01*
X157341000Y-74191000D02*
X157341000Y-77688000D01*
X157381000Y-68227000D02*
X157381000Y-71709000D01*
X157381000Y-74191000D02*
X157381000Y-77673000D01*
X157421000Y-68243000D02*
X157421000Y-71709000D01*
X157421000Y-74191000D02*
X157421000Y-77657000D01*
X157461000Y-68260000D02*
X157461000Y-71709000D01*
X157461000Y-74191000D02*
X157461000Y-77640000D01*
X157501000Y-68276000D02*
X157501000Y-71709000D01*
X157501000Y-74191000D02*
X157501000Y-77624000D01*
X157541000Y-68293000D02*
X157541000Y-71709000D01*
X157541000Y-74191000D02*
X157541000Y-77607000D01*
X157581000Y-68311000D02*
X157581000Y-71709000D01*
X157581000Y-74191000D02*
X157581000Y-77589000D01*
X157621000Y-68329000D02*
X157621000Y-71709000D01*
X157621000Y-74191000D02*
X157621000Y-77571000D01*
X157661000Y-68347000D02*
X157661000Y-71709000D01*
X157661000Y-74191000D02*
X157661000Y-77553000D01*
X157701000Y-68366000D02*
X157701000Y-71709000D01*
X157701000Y-74191000D02*
X157701000Y-77534000D01*
X157741000Y-68386000D02*
X157741000Y-71709000D01*
X157741000Y-74191000D02*
X157741000Y-77514000D01*
X157781000Y-68405000D02*
X157781000Y-71709000D01*
X157781000Y-74191000D02*
X157781000Y-77495000D01*
X157821000Y-68425000D02*
X157821000Y-71709000D01*
X157821000Y-74191000D02*
X157821000Y-77475000D01*
X157861000Y-68446000D02*
X157861000Y-71709000D01*
X157861000Y-74191000D02*
X157861000Y-77454000D01*
X157901000Y-68467000D02*
X157901000Y-71709000D01*
X157901000Y-74191000D02*
X157901000Y-77433000D01*
X157941000Y-68488000D02*
X157941000Y-71709000D01*
X157941000Y-74191000D02*
X157941000Y-77412000D01*
X157981000Y-68510000D02*
X157981000Y-71709000D01*
X157981000Y-74191000D02*
X157981000Y-77390000D01*
X158021000Y-68533000D02*
X158021000Y-71709000D01*
X158021000Y-74191000D02*
X158021000Y-77367000D01*
X158061000Y-68555000D02*
X158061000Y-71709000D01*
X158061000Y-74191000D02*
X158061000Y-77345000D01*
X158101000Y-68579000D02*
X158101000Y-71709000D01*
X158101000Y-74191000D02*
X158101000Y-77321000D01*
X158141000Y-68603000D02*
X158141000Y-71709000D01*
X158141000Y-74191000D02*
X158141000Y-77297000D01*
X158181000Y-68627000D02*
X158181000Y-71709000D01*
X158181000Y-74191000D02*
X158181000Y-77273000D01*
X158221000Y-68652000D02*
X158221000Y-71709000D01*
X158221000Y-74191000D02*
X158221000Y-77248000D01*
X158261000Y-68677000D02*
X158261000Y-71709000D01*
X158261000Y-74191000D02*
X158261000Y-77223000D01*
X158301000Y-68703000D02*
X158301000Y-71709000D01*
X158301000Y-74191000D02*
X158301000Y-77197000D01*
X158341000Y-68729000D02*
X158341000Y-71709000D01*
X158341000Y-74191000D02*
X158341000Y-77171000D01*
X158381000Y-68756000D02*
X158381000Y-71709000D01*
X158381000Y-74191000D02*
X158381000Y-77144000D01*
X158421000Y-68784000D02*
X158421000Y-71709000D01*
X158421000Y-74191000D02*
X158421000Y-77116000D01*
X158461000Y-68812000D02*
X158461000Y-71709000D01*
X158461000Y-74191000D02*
X158461000Y-77088000D01*
X158501000Y-68840000D02*
X158501000Y-71709000D01*
X158501000Y-74191000D02*
X158501000Y-77060000D01*
X158541000Y-68870000D02*
X158541000Y-71709000D01*
X158541000Y-74191000D02*
X158541000Y-77030000D01*
X158581000Y-68900000D02*
X158581000Y-71709000D01*
X158581000Y-74191000D02*
X158581000Y-77000000D01*
X158621000Y-68930000D02*
X158621000Y-71709000D01*
X158621000Y-74191000D02*
X158621000Y-76970000D01*
X158661000Y-68961000D02*
X158661000Y-71709000D01*
X158661000Y-74191000D02*
X158661000Y-76939000D01*
X158701000Y-68993000D02*
X158701000Y-71709000D01*
X158701000Y-74191000D02*
X158701000Y-76907000D01*
X158741000Y-69025000D02*
X158741000Y-71709000D01*
X158741000Y-74191000D02*
X158741000Y-76875000D01*
X158781000Y-69058000D02*
X158781000Y-71709000D01*
X158781000Y-74191000D02*
X158781000Y-76842000D01*
X158821000Y-69092000D02*
X158821000Y-71709000D01*
X158821000Y-74191000D02*
X158821000Y-76808000D01*
X158861000Y-69126000D02*
X158861000Y-71709000D01*
X158861000Y-74191000D02*
X158861000Y-76774000D01*
X158901000Y-69161000D02*
X158901000Y-71709000D01*
X158901000Y-74191000D02*
X158901000Y-76739000D01*
X158941000Y-69197000D02*
X158941000Y-71709000D01*
X158941000Y-74191000D02*
X158941000Y-76703000D01*
X158981000Y-69234000D02*
X158981000Y-71709000D01*
X158981000Y-74191000D02*
X158981000Y-76666000D01*
X159021000Y-69271000D02*
X159021000Y-71709000D01*
X159021000Y-74191000D02*
X159021000Y-76629000D01*
X159061000Y-69310000D02*
X159061000Y-71709000D01*
X159061000Y-74191000D02*
X159061000Y-76590000D01*
X159101000Y-69349000D02*
X159101000Y-71709000D01*
X159101000Y-74191000D02*
X159101000Y-76551000D01*
X159141000Y-69389000D02*
X159141000Y-71709000D01*
X159141000Y-74191000D02*
X159141000Y-76511000D01*
X159181000Y-69430000D02*
X159181000Y-71709000D01*
X159181000Y-74191000D02*
X159181000Y-76470000D01*
X159221000Y-69472000D02*
X159221000Y-71709000D01*
X159221000Y-74191000D02*
X159221000Y-76428000D01*
X159261000Y-69514000D02*
X159261000Y-76386000D01*
X159301000Y-69558000D02*
X159301000Y-76342000D01*
X159341000Y-69603000D02*
X159341000Y-76297000D01*
X159381000Y-69649000D02*
X159381000Y-76251000D01*
X159421000Y-69696000D02*
X159421000Y-76204000D01*
X159461000Y-69744000D02*
X159461000Y-76156000D01*
X159501000Y-69794000D02*
X159501000Y-76106000D01*
X159541000Y-69844000D02*
X159541000Y-76056000D01*
X159581000Y-69896000D02*
X159581000Y-76004000D01*
X159621000Y-69950000D02*
X159621000Y-75950000D01*
X159661000Y-70005000D02*
X159661000Y-75895000D01*
X159701000Y-70061000D02*
X159701000Y-75839000D01*
X159741000Y-70120000D02*
X159741000Y-75780000D01*
X159781000Y-70180000D02*
X159781000Y-75720000D01*
X159821000Y-70241000D02*
X159821000Y-75659000D01*
X159861000Y-70305000D02*
X159861000Y-75595000D01*
X159901000Y-70371000D02*
X159901000Y-75529000D01*
X159941000Y-70440000D02*
X159941000Y-75460000D01*
X159981000Y-70511000D02*
X159981000Y-75389000D01*
X160021000Y-70585000D02*
X160021000Y-75315000D01*
X160061000Y-70661000D02*
X160061000Y-75239000D01*
X160101000Y-70741000D02*
X160101000Y-75159000D01*
X160141000Y-70825000D02*
X160141000Y-75075000D01*
X160181000Y-70913000D02*
X160181000Y-74987000D01*
X160221000Y-71006000D02*
X160221000Y-74894000D01*
X160261000Y-71104000D02*
X160261000Y-74796000D01*
X160301000Y-71208000D02*
X160301000Y-74692000D01*
X160341000Y-71320000D02*
X160341000Y-74580000D01*
X160381000Y-71440000D02*
X160381000Y-74460000D01*
X160421000Y-71572000D02*
X160421000Y-74328000D01*
X160461000Y-71720000D02*
X160461000Y-74180000D01*
X160501000Y-71888000D02*
X160501000Y-74012000D01*
X160541000Y-72088000D02*
X160541000Y-73812000D01*
X160581000Y-72351000D02*
X160581000Y-73549000D01*
X150020354Y-70075000D02*
X151020354Y-70075000D01*
X150520354Y-69575000D02*
X150520354Y-70575000D01*
%TO.C,C3*%
X150520354Y-83675000D02*
X150520354Y-84675000D01*
X150020354Y-84175000D02*
X151020354Y-84175000D01*
X160581000Y-86451000D02*
X160581000Y-87649000D01*
X160541000Y-86188000D02*
X160541000Y-87912000D01*
X160501000Y-85988000D02*
X160501000Y-88112000D01*
X160461000Y-85820000D02*
X160461000Y-88280000D01*
X160421000Y-85672000D02*
X160421000Y-88428000D01*
X160381000Y-85540000D02*
X160381000Y-88560000D01*
X160341000Y-85420000D02*
X160341000Y-88680000D01*
X160301000Y-85308000D02*
X160301000Y-88792000D01*
X160261000Y-85204000D02*
X160261000Y-88896000D01*
X160221000Y-85106000D02*
X160221000Y-88994000D01*
X160181000Y-85013000D02*
X160181000Y-89087000D01*
X160141000Y-84925000D02*
X160141000Y-89175000D01*
X160101000Y-84841000D02*
X160101000Y-89259000D01*
X160061000Y-84761000D02*
X160061000Y-89339000D01*
X160021000Y-84685000D02*
X160021000Y-89415000D01*
X159981000Y-84611000D02*
X159981000Y-89489000D01*
X159941000Y-84540000D02*
X159941000Y-89560000D01*
X159901000Y-84471000D02*
X159901000Y-89629000D01*
X159861000Y-84405000D02*
X159861000Y-89695000D01*
X159821000Y-84341000D02*
X159821000Y-89759000D01*
X159781000Y-84280000D02*
X159781000Y-89820000D01*
X159741000Y-84220000D02*
X159741000Y-89880000D01*
X159701000Y-84161000D02*
X159701000Y-89939000D01*
X159661000Y-84105000D02*
X159661000Y-89995000D01*
X159621000Y-84050000D02*
X159621000Y-90050000D01*
X159581000Y-83996000D02*
X159581000Y-90104000D01*
X159541000Y-83944000D02*
X159541000Y-90156000D01*
X159501000Y-83894000D02*
X159501000Y-90206000D01*
X159461000Y-83844000D02*
X159461000Y-90256000D01*
X159421000Y-83796000D02*
X159421000Y-90304000D01*
X159381000Y-83749000D02*
X159381000Y-90351000D01*
X159341000Y-83703000D02*
X159341000Y-90397000D01*
X159301000Y-83658000D02*
X159301000Y-90442000D01*
X159261000Y-83614000D02*
X159261000Y-90486000D01*
X159221000Y-88291000D02*
X159221000Y-90528000D01*
X159221000Y-83572000D02*
X159221000Y-85809000D01*
X159181000Y-88291000D02*
X159181000Y-90570000D01*
X159181000Y-83530000D02*
X159181000Y-85809000D01*
X159141000Y-88291000D02*
X159141000Y-90611000D01*
X159141000Y-83489000D02*
X159141000Y-85809000D01*
X159101000Y-88291000D02*
X159101000Y-90651000D01*
X159101000Y-83449000D02*
X159101000Y-85809000D01*
X159061000Y-88291000D02*
X159061000Y-90690000D01*
X159061000Y-83410000D02*
X159061000Y-85809000D01*
X159021000Y-88291000D02*
X159021000Y-90729000D01*
X159021000Y-83371000D02*
X159021000Y-85809000D01*
X158981000Y-88291000D02*
X158981000Y-90766000D01*
X158981000Y-83334000D02*
X158981000Y-85809000D01*
X158941000Y-88291000D02*
X158941000Y-90803000D01*
X158941000Y-83297000D02*
X158941000Y-85809000D01*
X158901000Y-88291000D02*
X158901000Y-90839000D01*
X158901000Y-83261000D02*
X158901000Y-85809000D01*
X158861000Y-88291000D02*
X158861000Y-90874000D01*
X158861000Y-83226000D02*
X158861000Y-85809000D01*
X158821000Y-88291000D02*
X158821000Y-90908000D01*
X158821000Y-83192000D02*
X158821000Y-85809000D01*
X158781000Y-88291000D02*
X158781000Y-90942000D01*
X158781000Y-83158000D02*
X158781000Y-85809000D01*
X158741000Y-88291000D02*
X158741000Y-90975000D01*
X158741000Y-83125000D02*
X158741000Y-85809000D01*
X158701000Y-88291000D02*
X158701000Y-91007000D01*
X158701000Y-83093000D02*
X158701000Y-85809000D01*
X158661000Y-88291000D02*
X158661000Y-91039000D01*
X158661000Y-83061000D02*
X158661000Y-85809000D01*
X158621000Y-88291000D02*
X158621000Y-91070000D01*
X158621000Y-83030000D02*
X158621000Y-85809000D01*
X158581000Y-88291000D02*
X158581000Y-91100000D01*
X158581000Y-83000000D02*
X158581000Y-85809000D01*
X158541000Y-88291000D02*
X158541000Y-91130000D01*
X158541000Y-82970000D02*
X158541000Y-85809000D01*
X158501000Y-88291000D02*
X158501000Y-91160000D01*
X158501000Y-82940000D02*
X158501000Y-85809000D01*
X158461000Y-88291000D02*
X158461000Y-91188000D01*
X158461000Y-82912000D02*
X158461000Y-85809000D01*
X158421000Y-88291000D02*
X158421000Y-91216000D01*
X158421000Y-82884000D02*
X158421000Y-85809000D01*
X158381000Y-88291000D02*
X158381000Y-91244000D01*
X158381000Y-82856000D02*
X158381000Y-85809000D01*
X158341000Y-88291000D02*
X158341000Y-91271000D01*
X158341000Y-82829000D02*
X158341000Y-85809000D01*
X158301000Y-88291000D02*
X158301000Y-91297000D01*
X158301000Y-82803000D02*
X158301000Y-85809000D01*
X158261000Y-88291000D02*
X158261000Y-91323000D01*
X158261000Y-82777000D02*
X158261000Y-85809000D01*
X158221000Y-88291000D02*
X158221000Y-91348000D01*
X158221000Y-82752000D02*
X158221000Y-85809000D01*
X158181000Y-88291000D02*
X158181000Y-91373000D01*
X158181000Y-82727000D02*
X158181000Y-85809000D01*
X158141000Y-88291000D02*
X158141000Y-91397000D01*
X158141000Y-82703000D02*
X158141000Y-85809000D01*
X158101000Y-88291000D02*
X158101000Y-91421000D01*
X158101000Y-82679000D02*
X158101000Y-85809000D01*
X158061000Y-88291000D02*
X158061000Y-91445000D01*
X158061000Y-82655000D02*
X158061000Y-85809000D01*
X158021000Y-88291000D02*
X158021000Y-91467000D01*
X158021000Y-82633000D02*
X158021000Y-85809000D01*
X157981000Y-88291000D02*
X157981000Y-91490000D01*
X157981000Y-82610000D02*
X157981000Y-85809000D01*
X157941000Y-88291000D02*
X157941000Y-91512000D01*
X157941000Y-82588000D02*
X157941000Y-85809000D01*
X157901000Y-88291000D02*
X157901000Y-91533000D01*
X157901000Y-82567000D02*
X157901000Y-85809000D01*
X157861000Y-88291000D02*
X157861000Y-91554000D01*
X157861000Y-82546000D02*
X157861000Y-85809000D01*
X157821000Y-88291000D02*
X157821000Y-91575000D01*
X157821000Y-82525000D02*
X157821000Y-85809000D01*
X157781000Y-88291000D02*
X157781000Y-91595000D01*
X157781000Y-82505000D02*
X157781000Y-85809000D01*
X157741000Y-88291000D02*
X157741000Y-91614000D01*
X157741000Y-82486000D02*
X157741000Y-85809000D01*
X157701000Y-88291000D02*
X157701000Y-91634000D01*
X157701000Y-82466000D02*
X157701000Y-85809000D01*
X157661000Y-88291000D02*
X157661000Y-91653000D01*
X157661000Y-82447000D02*
X157661000Y-85809000D01*
X157621000Y-88291000D02*
X157621000Y-91671000D01*
X157621000Y-82429000D02*
X157621000Y-85809000D01*
X157581000Y-88291000D02*
X157581000Y-91689000D01*
X157581000Y-82411000D02*
X157581000Y-85809000D01*
X157541000Y-88291000D02*
X157541000Y-91707000D01*
X157541000Y-82393000D02*
X157541000Y-85809000D01*
X157501000Y-88291000D02*
X157501000Y-91724000D01*
X157501000Y-82376000D02*
X157501000Y-85809000D01*
X157461000Y-88291000D02*
X157461000Y-91740000D01*
X157461000Y-82360000D02*
X157461000Y-85809000D01*
X157421000Y-88291000D02*
X157421000Y-91757000D01*
X157421000Y-82343000D02*
X157421000Y-85809000D01*
X157381000Y-88291000D02*
X157381000Y-91773000D01*
X157381000Y-82327000D02*
X157381000Y-85809000D01*
X157341000Y-88291000D02*
X157341000Y-91788000D01*
X157341000Y-82312000D02*
X157341000Y-85809000D01*
X157301000Y-88291000D02*
X157301000Y-91804000D01*
X157301000Y-82296000D02*
X157301000Y-85809000D01*
X157261000Y-88291000D02*
X157261000Y-91818000D01*
X157261000Y-82282000D02*
X157261000Y-85809000D01*
X157221000Y-88291000D02*
X157221000Y-91833000D01*
X157221000Y-82267000D02*
X157221000Y-85809000D01*
X157181000Y-88291000D02*
X157181000Y-91847000D01*
X157181000Y-82253000D02*
X157181000Y-85809000D01*
X157141000Y-88291000D02*
X157141000Y-91861000D01*
X157141000Y-82239000D02*
X157141000Y-85809000D01*
X157101000Y-88291000D02*
X157101000Y-91874000D01*
X157101000Y-82226000D02*
X157101000Y-85809000D01*
X157061000Y-88291000D02*
X157061000Y-91887000D01*
X157061000Y-82213000D02*
X157061000Y-85809000D01*
X157021000Y-88291000D02*
X157021000Y-91900000D01*
X157021000Y-82200000D02*
X157021000Y-85809000D01*
X156981000Y-88291000D02*
X156981000Y-91912000D01*
X156981000Y-82188000D02*
X156981000Y-85809000D01*
X156941000Y-88291000D02*
X156941000Y-91924000D01*
X156941000Y-82176000D02*
X156941000Y-85809000D01*
X156901000Y-88291000D02*
X156901000Y-91935000D01*
X156901000Y-82165000D02*
X156901000Y-85809000D01*
X156861000Y-88291000D02*
X156861000Y-91947000D01*
X156861000Y-82153000D02*
X156861000Y-85809000D01*
X156821000Y-88291000D02*
X156821000Y-91957000D01*
X156821000Y-82143000D02*
X156821000Y-85809000D01*
X156781000Y-88291000D02*
X156781000Y-91968000D01*
X156781000Y-82132000D02*
X156781000Y-85809000D01*
X156741000Y-82122000D02*
X156741000Y-91978000D01*
X156701000Y-82112000D02*
X156701000Y-91988000D01*
X156661000Y-82103000D02*
X156661000Y-91997000D01*
X156621000Y-82094000D02*
X156621000Y-92006000D01*
X156581000Y-82085000D02*
X156581000Y-92015000D01*
X156541000Y-82076000D02*
X156541000Y-92024000D01*
X156501000Y-82068000D02*
X156501000Y-92032000D01*
X156461000Y-82060000D02*
X156461000Y-92040000D01*
X156421000Y-82053000D02*
X156421000Y-92047000D01*
X156381000Y-82046000D02*
X156381000Y-92054000D01*
X156341000Y-82039000D02*
X156341000Y-92061000D01*
X156301000Y-82032000D02*
X156301000Y-92068000D01*
X156261000Y-82026000D02*
X156261000Y-92074000D01*
X156221000Y-82020000D02*
X156221000Y-92080000D01*
X156180000Y-82015000D02*
X156180000Y-92085000D01*
X156140000Y-82010000D02*
X156140000Y-92090000D01*
X156100000Y-82005000D02*
X156100000Y-92095000D01*
X156060000Y-82000000D02*
X156060000Y-92100000D01*
X156020000Y-81996000D02*
X156020000Y-92104000D01*
X155980000Y-81992000D02*
X155980000Y-92108000D01*
X155940000Y-81988000D02*
X155940000Y-92112000D01*
X155900000Y-81985000D02*
X155900000Y-92115000D01*
X155860000Y-81982000D02*
X155860000Y-92118000D01*
X155820000Y-81980000D02*
X155820000Y-92120000D01*
X155780000Y-81977000D02*
X155780000Y-92123000D01*
X155740000Y-81975000D02*
X155740000Y-92125000D01*
X155700000Y-81973000D02*
X155700000Y-92127000D01*
X155660000Y-81972000D02*
X155660000Y-92128000D01*
X155620000Y-81971000D02*
X155620000Y-92129000D01*
X155580000Y-81970000D02*
X155580000Y-92130000D01*
X155540000Y-81970000D02*
X155540000Y-92130000D01*
X155500000Y-81970000D02*
X155500000Y-92130000D01*
X160620000Y-87050000D02*
G75*
G03*
X160620000Y-87050000I-5120000J0D01*
G01*
%TO.C,C4*%
X150520354Y-97775000D02*
X150520354Y-98775000D01*
X150020354Y-98275000D02*
X151020354Y-98275000D01*
X160581000Y-100551000D02*
X160581000Y-101749000D01*
X160541000Y-100288000D02*
X160541000Y-102012000D01*
X160501000Y-100088000D02*
X160501000Y-102212000D01*
X160461000Y-99920000D02*
X160461000Y-102380000D01*
X160421000Y-99772000D02*
X160421000Y-102528000D01*
X160381000Y-99640000D02*
X160381000Y-102660000D01*
X160341000Y-99520000D02*
X160341000Y-102780000D01*
X160301000Y-99408000D02*
X160301000Y-102892000D01*
X160261000Y-99304000D02*
X160261000Y-102996000D01*
X160221000Y-99206000D02*
X160221000Y-103094000D01*
X160181000Y-99113000D02*
X160181000Y-103187000D01*
X160141000Y-99025000D02*
X160141000Y-103275000D01*
X160101000Y-98941000D02*
X160101000Y-103359000D01*
X160061000Y-98861000D02*
X160061000Y-103439000D01*
X160021000Y-98785000D02*
X160021000Y-103515000D01*
X159981000Y-98711000D02*
X159981000Y-103589000D01*
X159941000Y-98640000D02*
X159941000Y-103660000D01*
X159901000Y-98571000D02*
X159901000Y-103729000D01*
X159861000Y-98505000D02*
X159861000Y-103795000D01*
X159821000Y-98441000D02*
X159821000Y-103859000D01*
X159781000Y-98380000D02*
X159781000Y-103920000D01*
X159741000Y-98320000D02*
X159741000Y-103980000D01*
X159701000Y-98261000D02*
X159701000Y-104039000D01*
X159661000Y-98205000D02*
X159661000Y-104095000D01*
X159621000Y-98150000D02*
X159621000Y-104150000D01*
X159581000Y-98096000D02*
X159581000Y-104204000D01*
X159541000Y-98044000D02*
X159541000Y-104256000D01*
X159501000Y-97994000D02*
X159501000Y-104306000D01*
X159461000Y-97944000D02*
X159461000Y-104356000D01*
X159421000Y-97896000D02*
X159421000Y-104404000D01*
X159381000Y-97849000D02*
X159381000Y-104451000D01*
X159341000Y-97803000D02*
X159341000Y-104497000D01*
X159301000Y-97758000D02*
X159301000Y-104542000D01*
X159261000Y-97714000D02*
X159261000Y-104586000D01*
X159221000Y-102391000D02*
X159221000Y-104628000D01*
X159221000Y-97672000D02*
X159221000Y-99909000D01*
X159181000Y-102391000D02*
X159181000Y-104670000D01*
X159181000Y-97630000D02*
X159181000Y-99909000D01*
X159141000Y-102391000D02*
X159141000Y-104711000D01*
X159141000Y-97589000D02*
X159141000Y-99909000D01*
X159101000Y-102391000D02*
X159101000Y-104751000D01*
X159101000Y-97549000D02*
X159101000Y-99909000D01*
X159061000Y-102391000D02*
X159061000Y-104790000D01*
X159061000Y-97510000D02*
X159061000Y-99909000D01*
X159021000Y-102391000D02*
X159021000Y-104829000D01*
X159021000Y-97471000D02*
X159021000Y-99909000D01*
X158981000Y-102391000D02*
X158981000Y-104866000D01*
X158981000Y-97434000D02*
X158981000Y-99909000D01*
X158941000Y-102391000D02*
X158941000Y-104903000D01*
X158941000Y-97397000D02*
X158941000Y-99909000D01*
X158901000Y-102391000D02*
X158901000Y-104939000D01*
X158901000Y-97361000D02*
X158901000Y-99909000D01*
X158861000Y-102391000D02*
X158861000Y-104974000D01*
X158861000Y-97326000D02*
X158861000Y-99909000D01*
X158821000Y-102391000D02*
X158821000Y-105008000D01*
X158821000Y-97292000D02*
X158821000Y-99909000D01*
X158781000Y-102391000D02*
X158781000Y-105042000D01*
X158781000Y-97258000D02*
X158781000Y-99909000D01*
X158741000Y-102391000D02*
X158741000Y-105075000D01*
X158741000Y-97225000D02*
X158741000Y-99909000D01*
X158701000Y-102391000D02*
X158701000Y-105107000D01*
X158701000Y-97193000D02*
X158701000Y-99909000D01*
X158661000Y-102391000D02*
X158661000Y-105139000D01*
X158661000Y-97161000D02*
X158661000Y-99909000D01*
X158621000Y-102391000D02*
X158621000Y-105170000D01*
X158621000Y-97130000D02*
X158621000Y-99909000D01*
X158581000Y-102391000D02*
X158581000Y-105200000D01*
X158581000Y-97100000D02*
X158581000Y-99909000D01*
X158541000Y-102391000D02*
X158541000Y-105230000D01*
X158541000Y-97070000D02*
X158541000Y-99909000D01*
X158501000Y-102391000D02*
X158501000Y-105260000D01*
X158501000Y-97040000D02*
X158501000Y-99909000D01*
X158461000Y-102391000D02*
X158461000Y-105288000D01*
X158461000Y-97012000D02*
X158461000Y-99909000D01*
X158421000Y-102391000D02*
X158421000Y-105316000D01*
X158421000Y-96984000D02*
X158421000Y-99909000D01*
X158381000Y-102391000D02*
X158381000Y-105344000D01*
X158381000Y-96956000D02*
X158381000Y-99909000D01*
X158341000Y-102391000D02*
X158341000Y-105371000D01*
X158341000Y-96929000D02*
X158341000Y-99909000D01*
X158301000Y-102391000D02*
X158301000Y-105397000D01*
X158301000Y-96903000D02*
X158301000Y-99909000D01*
X158261000Y-102391000D02*
X158261000Y-105423000D01*
X158261000Y-96877000D02*
X158261000Y-99909000D01*
X158221000Y-102391000D02*
X158221000Y-105448000D01*
X158221000Y-96852000D02*
X158221000Y-99909000D01*
X158181000Y-102391000D02*
X158181000Y-105473000D01*
X158181000Y-96827000D02*
X158181000Y-99909000D01*
X158141000Y-102391000D02*
X158141000Y-105497000D01*
X158141000Y-96803000D02*
X158141000Y-99909000D01*
X158101000Y-102391000D02*
X158101000Y-105521000D01*
X158101000Y-96779000D02*
X158101000Y-99909000D01*
X158061000Y-102391000D02*
X158061000Y-105545000D01*
X158061000Y-96755000D02*
X158061000Y-99909000D01*
X158021000Y-102391000D02*
X158021000Y-105567000D01*
X158021000Y-96733000D02*
X158021000Y-99909000D01*
X157981000Y-102391000D02*
X157981000Y-105590000D01*
X157981000Y-96710000D02*
X157981000Y-99909000D01*
X157941000Y-102391000D02*
X157941000Y-105612000D01*
X157941000Y-96688000D02*
X157941000Y-99909000D01*
X157901000Y-102391000D02*
X157901000Y-105633000D01*
X157901000Y-96667000D02*
X157901000Y-99909000D01*
X157861000Y-102391000D02*
X157861000Y-105654000D01*
X157861000Y-96646000D02*
X157861000Y-99909000D01*
X157821000Y-102391000D02*
X157821000Y-105675000D01*
X157821000Y-96625000D02*
X157821000Y-99909000D01*
X157781000Y-102391000D02*
X157781000Y-105695000D01*
X157781000Y-96605000D02*
X157781000Y-99909000D01*
X157741000Y-102391000D02*
X157741000Y-105714000D01*
X157741000Y-96586000D02*
X157741000Y-99909000D01*
X157701000Y-102391000D02*
X157701000Y-105734000D01*
X157701000Y-96566000D02*
X157701000Y-99909000D01*
X157661000Y-102391000D02*
X157661000Y-105753000D01*
X157661000Y-96547000D02*
X157661000Y-99909000D01*
X157621000Y-102391000D02*
X157621000Y-105771000D01*
X157621000Y-96529000D02*
X157621000Y-99909000D01*
X157581000Y-102391000D02*
X157581000Y-105789000D01*
X157581000Y-96511000D02*
X157581000Y-99909000D01*
X157541000Y-102391000D02*
X157541000Y-105807000D01*
X157541000Y-96493000D02*
X157541000Y-99909000D01*
X157501000Y-102391000D02*
X157501000Y-105824000D01*
X157501000Y-96476000D02*
X157501000Y-99909000D01*
X157461000Y-102391000D02*
X157461000Y-105840000D01*
X157461000Y-96460000D02*
X157461000Y-99909000D01*
X157421000Y-102391000D02*
X157421000Y-105857000D01*
X157421000Y-96443000D02*
X157421000Y-99909000D01*
X157381000Y-102391000D02*
X157381000Y-105873000D01*
X157381000Y-96427000D02*
X157381000Y-99909000D01*
X157341000Y-102391000D02*
X157341000Y-105888000D01*
X157341000Y-96412000D02*
X157341000Y-99909000D01*
X157301000Y-102391000D02*
X157301000Y-105904000D01*
X157301000Y-96396000D02*
X157301000Y-99909000D01*
X157261000Y-102391000D02*
X157261000Y-105918000D01*
X157261000Y-96382000D02*
X157261000Y-99909000D01*
X157221000Y-102391000D02*
X157221000Y-105933000D01*
X157221000Y-96367000D02*
X157221000Y-99909000D01*
X157181000Y-102391000D02*
X157181000Y-105947000D01*
X157181000Y-96353000D02*
X157181000Y-99909000D01*
X157141000Y-102391000D02*
X157141000Y-105961000D01*
X157141000Y-96339000D02*
X157141000Y-99909000D01*
X157101000Y-102391000D02*
X157101000Y-105974000D01*
X157101000Y-96326000D02*
X157101000Y-99909000D01*
X157061000Y-102391000D02*
X157061000Y-105987000D01*
X157061000Y-96313000D02*
X157061000Y-99909000D01*
X157021000Y-102391000D02*
X157021000Y-106000000D01*
X157021000Y-96300000D02*
X157021000Y-99909000D01*
X156981000Y-102391000D02*
X156981000Y-106012000D01*
X156981000Y-96288000D02*
X156981000Y-99909000D01*
X156941000Y-102391000D02*
X156941000Y-106024000D01*
X156941000Y-96276000D02*
X156941000Y-99909000D01*
X156901000Y-102391000D02*
X156901000Y-106035000D01*
X156901000Y-96265000D02*
X156901000Y-99909000D01*
X156861000Y-102391000D02*
X156861000Y-106047000D01*
X156861000Y-96253000D02*
X156861000Y-99909000D01*
X156821000Y-102391000D02*
X156821000Y-106057000D01*
X156821000Y-96243000D02*
X156821000Y-99909000D01*
X156781000Y-102391000D02*
X156781000Y-106068000D01*
X156781000Y-96232000D02*
X156781000Y-99909000D01*
X156741000Y-96222000D02*
X156741000Y-106078000D01*
X156701000Y-96212000D02*
X156701000Y-106088000D01*
X156661000Y-96203000D02*
X156661000Y-106097000D01*
X156621000Y-96194000D02*
X156621000Y-106106000D01*
X156581000Y-96185000D02*
X156581000Y-106115000D01*
X156541000Y-96176000D02*
X156541000Y-106124000D01*
X156501000Y-96168000D02*
X156501000Y-106132000D01*
X156461000Y-96160000D02*
X156461000Y-106140000D01*
X156421000Y-96153000D02*
X156421000Y-106147000D01*
X156381000Y-96146000D02*
X156381000Y-106154000D01*
X156341000Y-96139000D02*
X156341000Y-106161000D01*
X156301000Y-96132000D02*
X156301000Y-106168000D01*
X156261000Y-96126000D02*
X156261000Y-106174000D01*
X156221000Y-96120000D02*
X156221000Y-106180000D01*
X156180000Y-96115000D02*
X156180000Y-106185000D01*
X156140000Y-96110000D02*
X156140000Y-106190000D01*
X156100000Y-96105000D02*
X156100000Y-106195000D01*
X156060000Y-96100000D02*
X156060000Y-106200000D01*
X156020000Y-96096000D02*
X156020000Y-106204000D01*
X155980000Y-96092000D02*
X155980000Y-106208000D01*
X155940000Y-96088000D02*
X155940000Y-106212000D01*
X155900000Y-96085000D02*
X155900000Y-106215000D01*
X155860000Y-96082000D02*
X155860000Y-106218000D01*
X155820000Y-96080000D02*
X155820000Y-106220000D01*
X155780000Y-96077000D02*
X155780000Y-106223000D01*
X155740000Y-96075000D02*
X155740000Y-106225000D01*
X155700000Y-96073000D02*
X155700000Y-106227000D01*
X155660000Y-96072000D02*
X155660000Y-106228000D01*
X155620000Y-96071000D02*
X155620000Y-106229000D01*
X155580000Y-96070000D02*
X155580000Y-106230000D01*
X155540000Y-96070000D02*
X155540000Y-106230000D01*
X155500000Y-96070000D02*
X155500000Y-106230000D01*
X160620000Y-101150000D02*
G75*
G03*
X160620000Y-101150000I-5120000J0D01*
G01*
%TO.C,C5*%
X133420000Y-85121000D02*
X133420000Y-86379000D01*
X131580000Y-85121000D02*
X131580000Y-86379000D01*
%TO.C,C6*%
X133420000Y-93879000D02*
X133420000Y-92621000D01*
X131580000Y-93879000D02*
X131580000Y-92621000D01*
%TO.C,D1*%
X105610000Y-93870000D02*
X105610000Y-90930000D01*
X105370000Y-93870000D02*
X105370000Y-90930000D01*
X105490000Y-93870000D02*
X105490000Y-90930000D01*
X99930000Y-92400000D02*
X100950000Y-92400000D01*
X107410000Y-92400000D02*
X106390000Y-92400000D01*
X100950000Y-93870000D02*
X106390000Y-93870000D01*
X100950000Y-90930000D02*
X100950000Y-93870000D01*
X106390000Y-90930000D02*
X100950000Y-90930000D01*
X106390000Y-93870000D02*
X106390000Y-90930000D01*
%TO.C,D2*%
X106390000Y-83910000D02*
X106390000Y-80970000D01*
X106390000Y-80970000D02*
X100950000Y-80970000D01*
X100950000Y-80970000D02*
X100950000Y-83910000D01*
X100950000Y-83910000D02*
X106390000Y-83910000D01*
X107410000Y-82440000D02*
X106390000Y-82440000D01*
X99930000Y-82440000D02*
X100950000Y-82440000D01*
X105490000Y-83910000D02*
X105490000Y-80970000D01*
X105370000Y-83910000D02*
X105370000Y-80970000D01*
X105610000Y-83910000D02*
X105610000Y-80970000D01*
%TO.C,D3*%
X105610000Y-73950000D02*
X105610000Y-71010000D01*
X105370000Y-73950000D02*
X105370000Y-71010000D01*
X105490000Y-73950000D02*
X105490000Y-71010000D01*
X99930000Y-72480000D02*
X100950000Y-72480000D01*
X107410000Y-72480000D02*
X106390000Y-72480000D01*
X100950000Y-73950000D02*
X106390000Y-73950000D01*
X100950000Y-71010000D02*
X100950000Y-73950000D01*
X106390000Y-71010000D02*
X100950000Y-71010000D01*
X106390000Y-73950000D02*
X106390000Y-71010000D01*
%TO.C,D4*%
X106390000Y-63990000D02*
X106390000Y-61050000D01*
X106390000Y-61050000D02*
X100950000Y-61050000D01*
X100950000Y-61050000D02*
X100950000Y-63990000D01*
X100950000Y-63990000D02*
X106390000Y-63990000D01*
X107410000Y-62520000D02*
X106390000Y-62520000D01*
X99930000Y-62520000D02*
X100950000Y-62520000D01*
X105490000Y-63990000D02*
X105490000Y-61050000D01*
X105370000Y-63990000D02*
X105370000Y-61050000D01*
X105610000Y-63990000D02*
X105610000Y-61050000D01*
%TO.C,D5*%
X120674999Y-93870000D02*
X120674999Y-90930000D01*
X120674999Y-90930000D02*
X115234999Y-90930000D01*
X115234999Y-90930000D02*
X115234999Y-93870000D01*
X115234999Y-93870000D02*
X120674999Y-93870000D01*
X121694999Y-92400000D02*
X120674999Y-92400000D01*
X114214999Y-92400000D02*
X115234999Y-92400000D01*
X119774999Y-93870000D02*
X119774999Y-90930000D01*
X119654999Y-93870000D02*
X119654999Y-90930000D01*
X119894999Y-93870000D02*
X119894999Y-90930000D01*
%TO.C,D6*%
X120674999Y-83910000D02*
X120674999Y-80970000D01*
X120674999Y-80970000D02*
X115234999Y-80970000D01*
X115234999Y-80970000D02*
X115234999Y-83910000D01*
X115234999Y-83910000D02*
X120674999Y-83910000D01*
X121694999Y-82440000D02*
X120674999Y-82440000D01*
X114214999Y-82440000D02*
X115234999Y-82440000D01*
X119774999Y-83910000D02*
X119774999Y-80970000D01*
X119654999Y-83910000D02*
X119654999Y-80970000D01*
X119894999Y-83910000D02*
X119894999Y-80970000D01*
%TO.C,D7*%
X119894999Y-73950000D02*
X119894999Y-71010000D01*
X119654999Y-73950000D02*
X119654999Y-71010000D01*
X119774999Y-73950000D02*
X119774999Y-71010000D01*
X114214999Y-72480000D02*
X115234999Y-72480000D01*
X121694999Y-72480000D02*
X120674999Y-72480000D01*
X115234999Y-73950000D02*
X120674999Y-73950000D01*
X115234999Y-71010000D02*
X115234999Y-73950000D01*
X120674999Y-71010000D02*
X115234999Y-71010000D01*
X120674999Y-73950000D02*
X120674999Y-71010000D01*
%TO.C,D8*%
X119894999Y-63990000D02*
X119894999Y-61050000D01*
X119654999Y-63990000D02*
X119654999Y-61050000D01*
X119774999Y-63990000D02*
X119774999Y-61050000D01*
X114214999Y-62520000D02*
X115234999Y-62520000D01*
X121694999Y-62520000D02*
X120674999Y-62520000D01*
X115234999Y-63990000D02*
X120674999Y-63990000D01*
X115234999Y-61050000D02*
X115234999Y-63990000D01*
X120674999Y-61050000D02*
X115234999Y-61050000D01*
X120674999Y-63990000D02*
X120674999Y-61050000D01*
%TO.C,D9*%
X129470000Y-87560000D02*
X126530000Y-87560000D01*
X129470000Y-87800000D02*
X126530000Y-87800000D01*
X129470000Y-87680000D02*
X126530000Y-87680000D01*
X128000000Y-93240000D02*
X128000000Y-92220000D01*
X128000000Y-85760000D02*
X128000000Y-86780000D01*
X129470000Y-92220000D02*
X129470000Y-86780000D01*
X126530000Y-92220000D02*
X129470000Y-92220000D01*
X126530000Y-86780000D02*
X126530000Y-92220000D01*
X129470000Y-86780000D02*
X126530000Y-86780000D01*
%TO.C,D10*%
X106370000Y-52990000D02*
X106370000Y-59010000D01*
X106370000Y-59010000D02*
X111670000Y-59010000D01*
X111670000Y-59010000D02*
X111670000Y-52990000D01*
X111670000Y-52990000D02*
X106370000Y-52990000D01*
X106080000Y-54020000D02*
X106080000Y-58020000D01*
X107750000Y-59010000D02*
X107750000Y-58010000D01*
X107750000Y-58010000D02*
X110290000Y-58010000D01*
X110290000Y-58010000D02*
X110290000Y-59010000D01*
X107750000Y-58010000D02*
X108000000Y-57480000D01*
X108000000Y-57480000D02*
X110040000Y-57480000D01*
X110040000Y-57480000D02*
X110290000Y-58010000D01*
X108000000Y-59010000D02*
X108000000Y-58010000D01*
X110040000Y-59010000D02*
X110040000Y-58010000D01*
X106950000Y-52990000D02*
X106950000Y-53590000D01*
X106950000Y-53590000D02*
X108550000Y-53590000D01*
X108550000Y-53590000D02*
X108550000Y-52990000D01*
X109490000Y-52990000D02*
X109490000Y-53590000D01*
X109490000Y-53590000D02*
X111090000Y-53590000D01*
X111090000Y-53590000D02*
X111090000Y-52990000D01*
%TO.C,D11*%
X143720000Y-62970000D02*
X143720000Y-60030000D01*
X143720000Y-60030000D02*
X138280000Y-60030000D01*
X138280000Y-60030000D02*
X138280000Y-62970000D01*
X138280000Y-62970000D02*
X143720000Y-62970000D01*
X144740000Y-61500000D02*
X143720000Y-61500000D01*
X137260000Y-61500000D02*
X138280000Y-61500000D01*
X142820000Y-62970000D02*
X142820000Y-60030000D01*
X142700000Y-62970000D02*
X142700000Y-60030000D01*
X142940000Y-62970000D02*
X142940000Y-60030000D01*
%TO.C,F1*%
X162350000Y-85933333D02*
X165150000Y-85933333D01*
X169150000Y-85933333D02*
X171950000Y-85933333D01*
X169150000Y-63333333D02*
X171950000Y-63333333D01*
X171950000Y-63333333D02*
X171950000Y-85933333D01*
X162350000Y-63333333D02*
X162350000Y-85933333D01*
X162350000Y-63333333D02*
X165150000Y-63333333D01*
%TO.C,J1*%
X88555000Y-96690000D02*
G75*
G03*
X88555000Y-96690000I-1555000J0D01*
G01*
X84900000Y-91030000D02*
X84900000Y-98850000D01*
X90460000Y-91030000D02*
X90460000Y-98850000D01*
X83340000Y-91030000D02*
X83340000Y-98850000D01*
X90460000Y-91030000D02*
X83340000Y-91030000D01*
X90460000Y-98850000D02*
X83340000Y-98850000D01*
X84840000Y-90790000D02*
X83100000Y-90790000D01*
X83100000Y-90790000D02*
X83100000Y-92290000D01*
X85568615Y-93797587D02*
G75*
G02*
X85445000Y-93190000I1431385J607587D01*
G01*
X87607742Y-94622109D02*
G75*
G02*
X86392000Y-94622000I-607742J1432109D01*
G01*
X88432109Y-92582258D02*
G75*
G02*
X88432000Y-93798000I-1432109J-607742D01*
G01*
X86392258Y-91757891D02*
G75*
G02*
X87608000Y-91758000I607742J-1432109D01*
G01*
X85444508Y-93217011D02*
G75*
G02*
X85568000Y-92582000I1555492J27011D01*
G01*
%TO.C,J2*%
X83100000Y-80830000D02*
X83100000Y-82330000D01*
X84840000Y-80830000D02*
X83100000Y-80830000D01*
X90460000Y-88890000D02*
X83340000Y-88890000D01*
X90460000Y-81070000D02*
X83340000Y-81070000D01*
X83340000Y-81070000D02*
X83340000Y-88890000D01*
X90460000Y-81070000D02*
X90460000Y-88890000D01*
X84900000Y-81070000D02*
X84900000Y-88890000D01*
X88555000Y-86730000D02*
G75*
G03*
X88555000Y-86730000I-1555000J0D01*
G01*
X85444508Y-83257011D02*
G75*
G02*
X85568000Y-82622000I1555492J27011D01*
G01*
X86392258Y-81797891D02*
G75*
G02*
X87608000Y-81798000I607742J-1432109D01*
G01*
X88432109Y-82622258D02*
G75*
G02*
X88432000Y-83838000I-1432109J-607742D01*
G01*
X87607742Y-84662109D02*
G75*
G02*
X86392000Y-84662000I-607742J1432109D01*
G01*
X85568615Y-83837587D02*
G75*
G02*
X85445000Y-83230000I1431385J607587D01*
G01*
%TO.C,J3*%
X83100000Y-70870000D02*
X83100000Y-72370000D01*
X84840000Y-70870000D02*
X83100000Y-70870000D01*
X90460000Y-78930000D02*
X83340000Y-78930000D01*
X90460000Y-71110000D02*
X83340000Y-71110000D01*
X83340000Y-71110000D02*
X83340000Y-78930000D01*
X90460000Y-71110000D02*
X90460000Y-78930000D01*
X84900000Y-71110000D02*
X84900000Y-78930000D01*
X88555000Y-76770000D02*
G75*
G03*
X88555000Y-76770000I-1555000J0D01*
G01*
X85444508Y-73297011D02*
G75*
G02*
X85568000Y-72662000I1555492J27011D01*
G01*
X86392258Y-71837891D02*
G75*
G02*
X87608000Y-71838000I607742J-1432109D01*
G01*
X88432109Y-72662258D02*
G75*
G02*
X88432000Y-73878000I-1432109J-607742D01*
G01*
X87607742Y-74702109D02*
G75*
G02*
X86392000Y-74702000I-607742J1432109D01*
G01*
X85568615Y-73877587D02*
G75*
G02*
X85445000Y-73270000I1431385J607587D01*
G01*
%TO.C,J4*%
X88555000Y-66810000D02*
G75*
G03*
X88555000Y-66810000I-1555000J0D01*
G01*
X84900000Y-61150000D02*
X84900000Y-68970000D01*
X90460000Y-61150000D02*
X90460000Y-68970000D01*
X83340000Y-61150000D02*
X83340000Y-68970000D01*
X90460000Y-61150000D02*
X83340000Y-61150000D01*
X90460000Y-68970000D02*
X83340000Y-68970000D01*
X84840000Y-60910000D02*
X83100000Y-60910000D01*
X83100000Y-60910000D02*
X83100000Y-62410000D01*
X85568615Y-63917587D02*
G75*
G02*
X85445000Y-63310000I1431385J607587D01*
G01*
X87607742Y-64742109D02*
G75*
G02*
X86392000Y-64742000I-607742J1432109D01*
G01*
X88432109Y-62702258D02*
G75*
G02*
X88432000Y-63918000I-1432109J-607742D01*
G01*
X86392258Y-61877891D02*
G75*
G02*
X87608000Y-61878000I607742J-1432109D01*
G01*
X85444508Y-63337011D02*
G75*
G02*
X85568000Y-62702000I1555492J27011D01*
G01*
%TO.C,J5*%
X169555000Y-92416666D02*
G75*
G03*
X169555000Y-92416666I-1555000J0D01*
G01*
X170100000Y-98076666D02*
X170100000Y-90256666D01*
X164540000Y-98076666D02*
X164540000Y-90256666D01*
X171660000Y-98076666D02*
X171660000Y-90256666D01*
X164540000Y-98076666D02*
X171660000Y-98076666D01*
X164540000Y-90256666D02*
X171660000Y-90256666D01*
X170160000Y-98316666D02*
X171900000Y-98316666D01*
X171900000Y-98316666D02*
X171900000Y-96816666D01*
X169431385Y-95309079D02*
G75*
G02*
X169555000Y-95916666I-1431385J-607587D01*
G01*
X167392258Y-94484557D02*
G75*
G02*
X168608000Y-94484666I607742J-1432109D01*
G01*
X166567891Y-96524408D02*
G75*
G02*
X166568000Y-95308666I1432109J607742D01*
G01*
X168607742Y-97348775D02*
G75*
G02*
X167392000Y-97348666I-607742J1432109D01*
G01*
X169555492Y-95889655D02*
G75*
G02*
X169432000Y-96524666I-1555492J-27011D01*
G01*
%TO.C,JP1*%
X94830000Y-101405000D02*
X92170000Y-101405000D01*
X94830000Y-104005000D02*
X94830000Y-101405000D01*
X92170000Y-104005000D02*
X92170000Y-101405000D01*
X94830000Y-104005000D02*
X92170000Y-104005000D01*
X94830000Y-105275000D02*
X94830000Y-106605000D01*
X94830000Y-106605000D02*
X93500000Y-106605000D01*
%TO.C,JP2*%
X99330000Y-106605000D02*
X98000000Y-106605000D01*
X99330000Y-105275000D02*
X99330000Y-106605000D01*
X99330000Y-104005000D02*
X96670000Y-104005000D01*
X96670000Y-104005000D02*
X96670000Y-101405000D01*
X99330000Y-104005000D02*
X99330000Y-101405000D01*
X99330000Y-101405000D02*
X96670000Y-101405000D01*
%TO.C,JP3*%
X104080000Y-101405000D02*
X101420000Y-101405000D01*
X104080000Y-104005000D02*
X104080000Y-101405000D01*
X101420000Y-104005000D02*
X101420000Y-101405000D01*
X104080000Y-104005000D02*
X101420000Y-104005000D01*
X104080000Y-105275000D02*
X104080000Y-106605000D01*
X104080000Y-106605000D02*
X102750000Y-106605000D01*
%TO.C,JP4*%
X108580000Y-106605000D02*
X107250000Y-106605000D01*
X108580000Y-105275000D02*
X108580000Y-106605000D01*
X108580000Y-104005000D02*
X105920000Y-104005000D01*
X105920000Y-104005000D02*
X105920000Y-101405000D01*
X108580000Y-104005000D02*
X108580000Y-101405000D01*
X108580000Y-101405000D02*
X105920000Y-101405000D01*
%TO.C,JP5*%
X120570000Y-107830000D02*
X120570000Y-105170000D01*
X117970000Y-107830000D02*
X120570000Y-107830000D01*
X117970000Y-105170000D02*
X120570000Y-105170000D01*
X117970000Y-107830000D02*
X117970000Y-105170000D01*
X116700000Y-107830000D02*
X115370000Y-107830000D01*
X115370000Y-107830000D02*
X115370000Y-106500000D01*
%TO.C,Q1*%
X94540000Y-93339000D02*
X95370000Y-93339000D01*
X91880000Y-93339000D02*
X93460000Y-93339000D01*
X95050000Y-96540000D02*
X95370000Y-96540000D01*
X91880000Y-96540000D02*
X92950000Y-96540000D01*
X91880000Y-90820000D02*
X95370000Y-90820000D01*
X91880000Y-99060000D02*
X95370000Y-99060000D01*
X95370000Y-99060000D02*
X95370000Y-90820000D01*
X91880000Y-99060000D02*
X91880000Y-90820000D01*
%TO.C,Q2*%
X91880000Y-89100000D02*
X91880000Y-80860000D01*
X95370000Y-89100000D02*
X95370000Y-80860000D01*
X91880000Y-89100000D02*
X95370000Y-89100000D01*
X91880000Y-80860000D02*
X95370000Y-80860000D01*
X91880000Y-86580000D02*
X92950000Y-86580000D01*
X95050000Y-86580000D02*
X95370000Y-86580000D01*
X91880000Y-83379000D02*
X93460000Y-83379000D01*
X94540000Y-83379000D02*
X95370000Y-83379000D01*
%TO.C,Q3*%
X94540000Y-73419000D02*
X95370000Y-73419000D01*
X91880000Y-73419000D02*
X93460000Y-73419000D01*
X95050000Y-76620000D02*
X95370000Y-76620000D01*
X91880000Y-76620000D02*
X92950000Y-76620000D01*
X91880000Y-70900000D02*
X95370000Y-70900000D01*
X91880000Y-79140000D02*
X95370000Y-79140000D01*
X95370000Y-79140000D02*
X95370000Y-70900000D01*
X91880000Y-79140000D02*
X91880000Y-70900000D01*
%TO.C,Q4*%
X91880000Y-69180000D02*
X91880000Y-60940000D01*
X95370000Y-69180000D02*
X95370000Y-60940000D01*
X91880000Y-69180000D02*
X95370000Y-69180000D01*
X91880000Y-60940000D02*
X95370000Y-60940000D01*
X91880000Y-66660000D02*
X92950000Y-66660000D01*
X95050000Y-66660000D02*
X95370000Y-66660000D01*
X91880000Y-63459000D02*
X93460000Y-63459000D01*
X94540000Y-63459000D02*
X95370000Y-63459000D01*
%TO.C,Q5*%
X135880000Y-53230000D02*
X146120000Y-53230000D01*
X135880000Y-57871000D02*
X146120000Y-57871000D01*
X135880000Y-53230000D02*
X135880000Y-57871000D01*
X146120000Y-53230000D02*
X146120000Y-57871000D01*
X135880000Y-54740000D02*
X146120000Y-54740000D01*
X139150000Y-53230000D02*
X139150000Y-54740000D01*
X142851000Y-53230000D02*
X142851000Y-54740000D01*
%TO.C,R1*%
X120924999Y-103370000D02*
X120924999Y-100630000D01*
X120924999Y-100630000D02*
X114384999Y-100630000D01*
X114384999Y-100630000D02*
X114384999Y-103370000D01*
X114384999Y-103370000D02*
X120924999Y-103370000D01*
X121694999Y-102000000D02*
X120924999Y-102000000D01*
X113614999Y-102000000D02*
X114384999Y-102000000D01*
%TO.C,R2*%
X113614999Y-97480000D02*
X114384999Y-97480000D01*
X121694999Y-97480000D02*
X120924999Y-97480000D01*
X114384999Y-98850000D02*
X120924999Y-98850000D01*
X114384999Y-96110000D02*
X114384999Y-98850000D01*
X120924999Y-96110000D02*
X114384999Y-96110000D01*
X120924999Y-98850000D02*
X120924999Y-96110000D01*
%TO.C,R3*%
X120924999Y-88890000D02*
X120924999Y-86150000D01*
X120924999Y-86150000D02*
X114384999Y-86150000D01*
X114384999Y-86150000D02*
X114384999Y-88890000D01*
X114384999Y-88890000D02*
X120924999Y-88890000D01*
X121694999Y-87520000D02*
X120924999Y-87520000D01*
X113614999Y-87520000D02*
X114384999Y-87520000D01*
%TO.C,R4*%
X120924999Y-78930000D02*
X120924999Y-76190000D01*
X120924999Y-76190000D02*
X114384999Y-76190000D01*
X114384999Y-76190000D02*
X114384999Y-78930000D01*
X114384999Y-78930000D02*
X120924999Y-78930000D01*
X121694999Y-77560000D02*
X120924999Y-77560000D01*
X113614999Y-77560000D02*
X114384999Y-77560000D01*
%TO.C,R5*%
X120924999Y-68970000D02*
X120924999Y-66230000D01*
X120924999Y-66230000D02*
X114384999Y-66230000D01*
X114384999Y-66230000D02*
X114384999Y-68970000D01*
X114384999Y-68970000D02*
X120924999Y-68970000D01*
X121694999Y-67600000D02*
X120924999Y-67600000D01*
X113614999Y-67600000D02*
X114384999Y-67600000D01*
%TO.C,R6*%
X106640000Y-98850000D02*
X106640000Y-96110000D01*
X106640000Y-96110000D02*
X100100000Y-96110000D01*
X100100000Y-96110000D02*
X100100000Y-98850000D01*
X100100000Y-98850000D02*
X106640000Y-98850000D01*
X107410000Y-97480000D02*
X106640000Y-97480000D01*
X99330000Y-97480000D02*
X100100000Y-97480000D01*
%TO.C,R7*%
X99330000Y-87520000D02*
X100100000Y-87520000D01*
X107410000Y-87520000D02*
X106640000Y-87520000D01*
X100100000Y-88890000D02*
X106640000Y-88890000D01*
X100100000Y-86150000D02*
X100100000Y-88890000D01*
X106640000Y-86150000D02*
X100100000Y-86150000D01*
X106640000Y-88890000D02*
X106640000Y-86150000D01*
%TO.C,R8*%
X99330000Y-77560000D02*
X100100000Y-77560000D01*
X107410000Y-77560000D02*
X106640000Y-77560000D01*
X100100000Y-78930000D02*
X106640000Y-78930000D01*
X100100000Y-76190000D02*
X100100000Y-78930000D01*
X106640000Y-76190000D02*
X100100000Y-76190000D01*
X106640000Y-78930000D02*
X106640000Y-76190000D01*
%TO.C,R9*%
X99330000Y-67600000D02*
X100100000Y-67600000D01*
X107410000Y-67600000D02*
X106640000Y-67600000D01*
X100100000Y-68970000D02*
X106640000Y-68970000D01*
X100100000Y-66230000D02*
X100100000Y-68970000D01*
X106640000Y-66230000D02*
X100100000Y-66230000D01*
X106640000Y-68970000D02*
X106640000Y-66230000D01*
%TO.C,R10*%
X136960000Y-66500000D02*
X137730000Y-66500000D01*
X145040000Y-66500000D02*
X144270000Y-66500000D01*
X137730000Y-67870000D02*
X144270000Y-67870000D01*
X137730000Y-65130000D02*
X137730000Y-67870000D01*
X144270000Y-65130000D02*
X137730000Y-65130000D01*
X144270000Y-67870000D02*
X144270000Y-65130000D01*
%TO.C,R11*%
X101100000Y-57370000D02*
X101100000Y-54630000D01*
X101100000Y-54630000D02*
X94560000Y-54630000D01*
X94560000Y-54630000D02*
X94560000Y-57370000D01*
X94560000Y-57370000D02*
X101100000Y-57370000D01*
X101870000Y-56000000D02*
X101100000Y-56000000D01*
X93790000Y-56000000D02*
X94560000Y-56000000D01*
%TO.C,U1*%
X139770000Y-91351000D02*
X138260000Y-91351000D01*
X139770000Y-87650000D02*
X138260000Y-87650000D01*
X138260000Y-84380000D02*
X138260000Y-94620000D01*
X139770000Y-94620000D02*
X135129000Y-94620000D01*
X139770000Y-84380000D02*
X135129000Y-84380000D01*
X135129000Y-84380000D02*
X135129000Y-94620000D01*
X139770000Y-84380000D02*
X139770000Y-94620000D01*
%TO.C,HS1*%
X143890000Y-99690000D02*
X147610000Y-102190000D01*
X147610000Y-102190000D02*
X147550000Y-102370000D01*
X147550000Y-102370000D02*
X144750000Y-101710000D01*
X144750000Y-101710000D02*
X147630000Y-107010000D01*
X147510000Y-107130000D02*
X143740000Y-104980000D01*
X144420000Y-107030000D02*
X144270000Y-107120000D01*
X143740000Y-104980000D02*
X144420000Y-107030000D01*
X144270000Y-107120000D02*
X142380000Y-105160000D01*
X147630000Y-107010000D02*
X147510000Y-107130000D01*
X134400000Y-98070000D02*
X138110000Y-99680000D01*
X140150000Y-97400000D02*
X134400000Y-97400000D01*
X134400000Y-97400000D02*
X134400000Y-98070000D01*
X137250000Y-101710000D02*
X134370000Y-107010000D01*
X134390000Y-102190000D02*
X134450000Y-102370000D01*
X134450000Y-102370000D02*
X137250000Y-101710000D01*
X138110000Y-99690000D02*
X134390000Y-102190000D01*
X137730000Y-107120000D02*
X139620000Y-105160000D01*
X134490000Y-107130000D02*
X138260000Y-104980000D01*
X137580000Y-107030000D02*
X137730000Y-107120000D01*
X134370000Y-107010000D02*
X134490000Y-107130000D01*
X138260000Y-104980000D02*
X137580000Y-107030000D01*
X140150000Y-89500000D02*
X140150000Y-97400000D01*
X141850000Y-97400000D02*
X147600000Y-97400000D01*
X147600000Y-97400000D02*
X147600000Y-98070000D01*
X147600000Y-98070000D02*
X143890000Y-99680000D01*
X141850000Y-89500000D02*
X141850000Y-97400000D01*
X134450000Y-76630000D02*
X137250000Y-77290000D01*
X134390000Y-76810000D02*
X134450000Y-76630000D01*
X138110000Y-79310000D02*
X134390000Y-76810000D01*
X137250000Y-77290000D02*
X134370000Y-71990000D01*
X137730000Y-71880000D02*
X139620000Y-73840000D01*
X138260000Y-74020000D02*
X137580000Y-71970000D01*
X134490000Y-71870000D02*
X138260000Y-74020000D01*
X134370000Y-71990000D02*
X134490000Y-71870000D01*
X137580000Y-71970000D02*
X137730000Y-71880000D01*
X134400000Y-80930000D02*
X138110000Y-79320000D01*
X140150000Y-89500000D02*
X140150000Y-81600000D01*
X140150000Y-81600000D02*
X134400000Y-81600000D01*
X134400000Y-81600000D02*
X134400000Y-80930000D01*
X141850000Y-89500000D02*
X141850000Y-81600000D01*
X141850000Y-81600000D02*
X147600000Y-81600000D01*
X147600000Y-81600000D02*
X147600000Y-80930000D01*
X147600000Y-80930000D02*
X143890000Y-79320000D01*
X143890000Y-79310000D02*
X147610000Y-76810000D01*
X147610000Y-76810000D02*
X147550000Y-76630000D01*
X147550000Y-76630000D02*
X144750000Y-77290000D01*
X144750000Y-77290000D02*
X147630000Y-71990000D01*
X147630000Y-71990000D02*
X147510000Y-71870000D01*
X147510000Y-71870000D02*
X143740000Y-74020000D01*
X143740000Y-74020000D02*
X144420000Y-71970000D01*
X144420000Y-71970000D02*
X144270000Y-71880000D01*
X144270000Y-71880000D02*
X142380000Y-73840000D01*
%TD*%
%TO.C,D1*%
D13*
X108488095Y-94952380D02*
X108488095Y-93952380D01*
X109059523Y-94952380D02*
X108630952Y-94380952D01*
X109059523Y-93952380D02*
X108488095Y-94523809D01*
%TO.C,D2*%
X108488095Y-84992380D02*
X108488095Y-83992380D01*
X109059523Y-84992380D02*
X108630952Y-84420952D01*
X109059523Y-83992380D02*
X108488095Y-84563809D01*
%TO.C,D3*%
X108488095Y-75032380D02*
X108488095Y-74032380D01*
X109059523Y-75032380D02*
X108630952Y-74460952D01*
X109059523Y-74032380D02*
X108488095Y-74603809D01*
%TO.C,D4*%
X108488095Y-65072380D02*
X108488095Y-64072380D01*
X109059523Y-65072380D02*
X108630952Y-64500952D01*
X109059523Y-64072380D02*
X108488095Y-64643809D01*
%TO.C,D5*%
X122773094Y-94952380D02*
X122773094Y-93952380D01*
X123344522Y-94952380D02*
X122915951Y-94380952D01*
X123344522Y-93952380D02*
X122773094Y-94523809D01*
%TO.C,D6*%
X122773094Y-84992380D02*
X122773094Y-83992380D01*
X123344522Y-84992380D02*
X122915951Y-84420952D01*
X123344522Y-83992380D02*
X122773094Y-84563809D01*
%TO.C,D7*%
X122773094Y-75032380D02*
X122773094Y-74032380D01*
X123344522Y-75032380D02*
X122915951Y-74460952D01*
X123344522Y-74032380D02*
X122773094Y-74603809D01*
%TO.C,D8*%
X122773094Y-65072380D02*
X122773094Y-64072380D01*
X123344522Y-65072380D02*
X122915951Y-64500952D01*
X123344522Y-64072380D02*
X122773094Y-64643809D01*
%TO.C,D9*%
X130552380Y-84681904D02*
X129552380Y-84681904D01*
X130552380Y-84110476D02*
X129980952Y-84539047D01*
X129552380Y-84110476D02*
X130123809Y-84681904D01*
%TO.C,D11*%
X145818095Y-64052380D02*
X145818095Y-63052380D01*
X146389523Y-64052380D02*
X145960952Y-63480952D01*
X146389523Y-63052380D02*
X145818095Y-63623809D01*
%TD*%
M02*
