M48
; DRILL file {KiCad (5.1.8)-1} date 01/26/21 19:06:13
; FORMAT={-:-/ absolute / inch / decimal}
; #@! TF.CreationDate,2021-01-26T19:06:13+01:00
; #@! TF.GenerationSoftware,Kicad,Pcbnew,(5.1.8)-1
FMAT,2
INCH
T1C0.0197
T2C0.0315
T3C0.0394
T4C0.0433
T5C0.0469
T6C0.0472
T7C0.0591
T8C0.1260
T9C0.1378
%
G90
G05
T1
X6.5591Y-4.0945
X6.5867Y-4.0277
X6.5867Y-4.1613
X6.6535Y-4.0
X6.6535Y-4.189
X6.7204Y-4.0277
X6.7204Y-4.1613
X6.748Y-4.0945
X6.5591Y-2.2047
X6.5867Y-2.1379
X6.5867Y-2.2715
X6.6535Y-2.1102
X6.6535Y-2.2992
X6.7204Y-2.1379
X6.7204Y-2.2715
X6.748Y-2.2047
X3.2913Y-2.2047
X3.319Y-2.1379
X3.319Y-2.2715
X3.3858Y-2.1102
X3.3858Y-2.2992
X3.4526Y-2.1379
X3.4526Y-2.2715
X3.4803Y-2.2047
X3.2913Y-4.0945
X3.319Y-4.0277
X3.319Y-4.1613
X3.3858Y-4.0
X3.3858Y-4.189
X3.4526Y-4.0277
X3.4526Y-4.1613
X3.4803Y-4.0945
T2
X4.4321Y-3.8378
X4.8321Y-3.8378
X4.4321Y-4.0157
X4.8321Y-4.0157
X5.2165Y-3.622
X5.2165Y-3.7205
X5.3512Y-2.6181
X5.7512Y-2.6181
X4.4321Y-3.0535
X4.8321Y-3.0535
X5.2165Y-3.3268
X5.2165Y-3.4252
X3.8697Y-3.0535
X4.2697Y-3.0535
X3.8697Y-3.8378
X4.2697Y-3.8378
X4.4321Y-3.4457
X4.8321Y-3.4457
X3.6516Y-2.2047
X4.0516Y-2.2047
X3.8697Y-2.6614
X4.2697Y-2.6614
X3.8697Y-3.4457
X4.2697Y-3.4457
X4.4321Y-2.6614
X4.8321Y-2.6614
T3
X6.0236Y-2.872
X6.2205Y-2.872
X3.8583Y-4.0447
X3.8583Y-4.1447
X3.7008Y-2.4614
X3.7008Y-2.5614
X3.7008Y-2.6614
X6.0236Y-3.9823
X6.2205Y-3.9823
X3.7008Y-3.2457
X3.7008Y-3.3457
X3.7008Y-3.4457
X4.2224Y-4.0447
X4.2224Y-4.1447
X3.7008Y-2.8535
X3.7008Y-2.9535
X3.7008Y-3.0535
X6.0236Y-2.3169
X6.2205Y-2.3169
X4.0453Y-4.0447
X4.0453Y-4.1447
X3.7008Y-3.6378
X3.7008Y-3.7378
X3.7008Y-3.8378
X3.6811Y-4.0447
X3.6811Y-4.1447
X6.0236Y-3.4272
X6.2205Y-3.4272
X4.5945Y-4.1929
X4.6945Y-4.1929
T4
X3.8815Y-2.8535
X4.2815Y-2.8535
X5.374Y-3.4236
X5.374Y-3.5236
X5.374Y-3.6236
X3.8815Y-3.2457
X4.2815Y-3.2457
X3.8815Y-3.6378
X4.2815Y-3.6378
X4.4439Y-3.2457
X4.8439Y-3.2457
X5.3512Y-2.4213
X5.7512Y-2.4213
X5.4512Y-2.2244
X5.5512Y-2.2244
X5.6512Y-2.2244
X4.4439Y-2.4614
X4.8439Y-2.4614
X4.4439Y-2.8535
X4.8439Y-2.8535
X3.8815Y-2.4614
X4.2815Y-2.4614
X4.4439Y-3.6378
X4.8439Y-3.6378
X5.0394Y-3.3236
X5.0394Y-3.7236
T5
X4.2421Y-2.2055
X4.3421Y-2.2055
T6
X3.4252Y-2.4925
X3.4252Y-2.6303
X3.4252Y-3.6689
X3.4252Y-3.8067
X6.6142Y-3.6385
X6.6142Y-3.7762
X3.4252Y-2.8846
X3.4252Y-3.0224
X3.4252Y-3.2768
X3.4252Y-3.4146
T7
X6.5807Y-2.4934
X6.5807Y-3.3832
T8
X6.6535Y-4.0945
X6.6535Y-2.2047
X3.3858Y-2.2047
X3.3858Y-4.0945
T9
X5.5512Y-3.0236
X5.5512Y-4.0236
T0
M30
