M48
; DRILL file {KiCad (5.1.8)-1} date 02/11/21 07:27:11
; FORMAT={-:-/ absolute / inch / decimal}
; #@! TF.CreationDate,2021-02-11T07:27:11+01:00
; #@! TF.GenerationSoftware,Kicad,Pcbnew,(5.1.8)-1
FMAT,2
INCH
T1C0.0197
T2C0.0315
T3C0.0394
T4C0.0433
T5C0.0469
T6C0.0472
T7C0.0591
T8C0.1260
T9C0.1378
%
G90
G05
T1
X6.3622Y-4.0945
X6.3899Y-4.0277
X6.3899Y-4.1613
X6.4567Y-4.0
X6.4567Y-4.189
X6.5235Y-4.0277
X6.5235Y-4.1613
X6.5512Y-4.0945
X3.2913Y-2.2047
X3.319Y-2.1379
X3.319Y-2.2715
X3.3858Y-2.1102
X3.3858Y-2.2992
X3.4526Y-2.1379
X3.4526Y-2.2715
X3.4803Y-2.2047
X6.3622Y-2.2047
X6.3899Y-2.1379
X6.3899Y-2.2715
X6.4567Y-2.1102
X6.4567Y-2.2992
X6.5235Y-2.1379
X6.5235Y-2.2715
X6.5512Y-2.2047
X3.2913Y-4.0945
X3.319Y-4.0277
X3.319Y-4.1613
X3.3858Y-4.0
X3.3858Y-4.189
X3.4526Y-4.0277
X3.4526Y-4.1613
X3.4803Y-4.0945
T2
X4.4321Y-3.0535
X4.8321Y-3.0535
X4.5213Y-3.8378
X4.9213Y-3.8378
X5.0197Y-3.3268
X5.0197Y-3.4252
X5.0197Y-3.622
X5.0197Y-3.7205
X3.8697Y-3.0535
X4.2697Y-3.0535
X4.4321Y-2.6614
X4.8321Y-2.6614
X4.4321Y-3.4457
X4.8321Y-3.4457
X4.4321Y-4.0157
X4.9321Y-4.0157
X5.1543Y-2.6181
X5.5543Y-2.6181
X3.8697Y-3.4457
X4.2697Y-3.4457
X3.8815Y-3.8378
X4.3815Y-3.8378
X3.8697Y-2.6614
X4.2697Y-2.6614
X3.6256Y-2.185
X4.0256Y-2.185
T3
X3.6811Y-4.0447
X3.6811Y-4.1447
X3.7008Y-3.6378
X3.7008Y-3.7378
X3.7008Y-3.8378
X4.4616Y-4.1732
X4.5616Y-4.1732
X5.8268Y-3.9823
X6.0236Y-3.9823
X4.2224Y-4.0447
X4.2224Y-4.1447
X3.7008Y-3.2457
X3.7008Y-3.3457
X3.7008Y-3.4457
X5.8268Y-2.3169
X6.0236Y-2.3169
X4.0453Y-4.0447
X4.0453Y-4.1447
X3.7008Y-2.4614
X3.7008Y-2.5614
X3.7008Y-2.6614
X5.8268Y-3.4272
X6.0236Y-3.4272
X3.8583Y-4.0447
X3.8583Y-4.1447
X3.7008Y-2.8535
X3.7008Y-2.9535
X3.7008Y-3.0535
X5.8268Y-2.872
X6.0236Y-2.872
T4
X5.1772Y-3.4236
X5.1772Y-3.5236
X5.1772Y-3.6236
X4.4439Y-3.2457
X4.8439Y-3.2457
X3.8815Y-3.2457
X4.2815Y-3.2457
X4.4439Y-2.4614
X4.8439Y-2.4614
X4.4439Y-3.6378
X4.8439Y-3.6378
X3.8815Y-3.6378
X4.2815Y-3.6378
X5.2543Y-2.2244
X5.3543Y-2.2244
X5.4543Y-2.2244
X5.1543Y-2.4213
X5.5543Y-2.4213
X3.8815Y-2.8535
X4.2815Y-2.8535
X3.8815Y-2.4614
X4.2815Y-2.4614
X4.4439Y-2.8535
X4.8439Y-2.8535
X5.5118Y-3.3236
X5.5118Y-3.7236
T5
X4.1732Y-2.1858
X4.2732Y-2.1858
T6
X3.4252Y-2.8846
X3.4252Y-3.0224
X3.4252Y-3.6689
X3.4252Y-3.8067
X3.4252Y-3.2768
X3.4252Y-3.4146
X3.4252Y-2.4925
X3.4252Y-2.6303
X6.4173Y-3.6385
X6.4173Y-3.7762
T7
X6.3839Y-2.4934
X6.3839Y-3.3832
T8
X6.4567Y-4.0945
X3.3858Y-2.2047
X6.4567Y-2.2047
X3.3858Y-4.0945
T9
X5.3543Y-3.0236
X5.3543Y-4.0236
T0
M30
