M48
;DRILL file {KiCad 5.0.2+dfsg1-1} date Mon 24 Aug 2020 01:19:46 AM EDT
;FORMAT={-:-/ absolute / inch / decimal}
FMAT,2
INCH,TZ
T1C0.0394
%
G90
G05
T1
X5.2659Y-3.2514
X5.2659Y-3.3514
X5.0219Y-2.7219
X5.0219Y-2.8219
X5.0219Y-2.9219
X5.0219Y-3.0219
X5.0219Y-3.1219
X5.0219Y-3.2219
X5.0219Y-3.3219
X5.0219Y-3.4219
X5.0219Y-3.5219
X5.0219Y-3.6219
X5.0219Y-3.7219
X5.0219Y-3.8219
X5.0219Y-3.9219
X5.0219Y-4.0219
X5.0219Y-4.1219
X5.0219Y-4.2219
X5.0219Y-4.3219
X5.0219Y-4.4219
X5.0219Y-4.5219
X5.0219Y-4.6219
X5.1219Y-2.7219
X5.1219Y-2.8219
X5.1219Y-2.9219
X5.1219Y-3.0219
X5.1219Y-3.1219
X5.1219Y-3.2219
X5.1219Y-3.3219
X5.1219Y-3.4219
X5.1219Y-3.5219
X5.1219Y-3.6219
X5.1219Y-3.7219
X5.1219Y-3.8219
X5.1219Y-3.9219
X5.1219Y-4.0219
X5.1219Y-4.1219
X5.1219Y-4.2219
X5.1219Y-4.3219
X5.1219Y-4.4219
X5.1219Y-4.5219
X5.1219Y-4.6219
X5.7955Y-2.7219
X5.7955Y-2.8219
T0
M30
