G04 #@! TF.GenerationSoftware,KiCad,Pcbnew,5.0.2+dfsg1-1*
G04 #@! TF.CreationDate,2020-08-24T01:19:37-04:00*
G04 #@! TF.ProjectId,hardware,68617264-7761-4726-952e-6b696361645f,rev?*
G04 #@! TF.SameCoordinates,Original*
G04 #@! TF.FileFunction,Copper,L2,Bot*
G04 #@! TF.FilePolarity,Positive*
%FSLAX46Y46*%
G04 Gerber Fmt 4.6, Leading zero omitted, Abs format (unit mm)*
G04 Created by KiCad (PCBNEW 5.0.2+dfsg1-1) date Mon 24 Aug 2020 01:19:37 AM EDT*
%MOMM*%
%LPD*%
G01*
G04 APERTURE LIST*
G04 #@! TA.AperFunction,ComponentPad*
%ADD10R,1.700000X1.700000*%
G04 #@! TD*
G04 #@! TA.AperFunction,ComponentPad*
%ADD11O,1.700000X1.700000*%
G04 #@! TD*
G04 APERTURE END LIST*
D10*
G04 #@! TO.P,BT1,1*
G04 #@! TO.N,BAT+*
X147205001Y-69135001D03*
D11*
G04 #@! TO.P,BT1,2*
G04 #@! TO.N,BAT-*
X147205001Y-71675001D03*
G04 #@! TD*
D10*
G04 #@! TO.P,J2,1*
G04 #@! TO.N,VDD*
X127555001Y-69135001D03*
D11*
G04 #@! TO.P,J2,2*
G04 #@! TO.N,BAT-*
X130095001Y-69135001D03*
G04 #@! TO.P,J2,3*
G04 #@! TO.N,IC_RE0*
X127555001Y-71675001D03*
G04 #@! TO.P,J2,4*
G04 #@! TO.N,IC_RE1*
X130095001Y-71675001D03*
G04 #@! TO.P,J2,5*
G04 #@! TO.N,IC_RE2*
X127555001Y-74215001D03*
G04 #@! TO.P,J2,6*
G04 #@! TO.N,IC_RD0*
X130095001Y-74215001D03*
G04 #@! TO.P,J2,7*
G04 #@! TO.N,IC_RD1*
X127555001Y-76755001D03*
G04 #@! TO.P,J2,8*
G04 #@! TO.N,IC_RD2*
X130095001Y-76755001D03*
G04 #@! TO.P,J2,9*
G04 #@! TO.N,IC_RD3*
X127555001Y-79295001D03*
G04 #@! TO.P,J2,10*
G04 #@! TO.N,IC_RD4*
X130095001Y-79295001D03*
G04 #@! TO.P,J2,11*
G04 #@! TO.N,IC_RD5*
X127555001Y-81835001D03*
G04 #@! TO.P,J2,12*
G04 #@! TO.N,IC_RD6*
X130095001Y-81835001D03*
G04 #@! TO.P,J2,13*
G04 #@! TO.N,IC_RD7*
X127555001Y-84375001D03*
G04 #@! TO.P,J2,14*
G04 #@! TO.N,IC_RC0*
X130095001Y-84375001D03*
G04 #@! TO.P,J2,15*
G04 #@! TO.N,IC_RC1*
X127555001Y-86915001D03*
G04 #@! TO.P,J2,16*
G04 #@! TO.N,IC_RC2*
X130095001Y-86915001D03*
G04 #@! TO.P,J2,17*
G04 #@! TO.N,IC_RC6*
X127555001Y-89455001D03*
G04 #@! TO.P,J2,18*
G04 #@! TO.N,IC_RC7*
X130095001Y-89455001D03*
G04 #@! TO.P,J2,19*
G04 #@! TO.N,IC_OSC1*
X127555001Y-91995001D03*
G04 #@! TO.P,J2,20*
G04 #@! TO.N,IC_OSC2*
X130095001Y-91995001D03*
G04 #@! TO.P,J2,21*
G04 #@! TO.N,USB_D+*
X127555001Y-94535001D03*
G04 #@! TO.P,J2,22*
G04 #@! TO.N,USB_D-*
X130095001Y-94535001D03*
G04 #@! TO.P,J2,23*
G04 #@! TO.N,USB_VBUS*
X127555001Y-97075001D03*
G04 #@! TO.P,J2,24*
G04 #@! TO.N,IC_ICVPP*
X130095001Y-97075001D03*
G04 #@! TO.P,J2,25*
G04 #@! TO.N,IC_ICPGD*
X127555001Y-99615001D03*
G04 #@! TO.P,J2,26*
G04 #@! TO.N,IC_ICPGC*
X130095001Y-99615001D03*
G04 #@! TO.P,J2,27*
G04 #@! TO.N,IC_RB7*
X127555001Y-102155001D03*
G04 #@! TO.P,J2,28*
G04 #@! TO.N,IC_RB6*
X130095001Y-102155001D03*
G04 #@! TO.P,J2,29*
G04 #@! TO.N,IC_RB5*
X127555001Y-104695001D03*
G04 #@! TO.P,J2,30*
G04 #@! TO.N,IC_RB4*
X130095001Y-104695001D03*
G04 #@! TO.P,J2,31*
G04 #@! TO.N,IC_RB3*
X127555001Y-107235001D03*
G04 #@! TO.P,J2,32*
G04 #@! TO.N,IC_RB2*
X130095001Y-107235001D03*
G04 #@! TO.P,J2,33*
G04 #@! TO.N,IC_RB1*
X127555001Y-109775001D03*
G04 #@! TO.P,J2,34*
G04 #@! TO.N,IC_RB0*
X130095001Y-109775001D03*
G04 #@! TO.P,J2,35*
G04 #@! TO.N,IC_RA5*
X127555001Y-112315001D03*
G04 #@! TO.P,J2,36*
G04 #@! TO.N,IC_RA4*
X130095001Y-112315001D03*
G04 #@! TO.P,J2,37*
G04 #@! TO.N,IC_RA3*
X127555001Y-114855001D03*
G04 #@! TO.P,J2,38*
G04 #@! TO.N,IC_RA2*
X130095001Y-114855001D03*
G04 #@! TO.P,J2,39*
G04 #@! TO.N,IC_RA1*
X127555001Y-117395001D03*
G04 #@! TO.P,J2,40*
G04 #@! TO.N,IC_RA0*
X130095001Y-117395001D03*
G04 #@! TD*
D10*
G04 #@! TO.P,JP1,1*
G04 #@! TO.N,Net-(JP1-Pad1)*
X133755001Y-82585001D03*
D11*
G04 #@! TO.P,JP1,2*
G04 #@! TO.N,Net-(C14-Pad1)*
X133755001Y-85125001D03*
G04 #@! TD*
M02*
