G04 #@! TF.GenerationSoftware,KiCad,Pcbnew,5.0.2+dfsg1-1*
G04 #@! TF.CreationDate,2020-08-24T01:19:37-04:00*
G04 #@! TF.ProjectId,hardware,68617264-7761-4726-952e-6b696361645f,rev?*
G04 #@! TF.SameCoordinates,Original*
G04 #@! TF.FileFunction,Copper,L1,Top*
G04 #@! TF.FilePolarity,Positive*
%FSLAX46Y46*%
G04 Gerber Fmt 4.6, Leading zero omitted, Abs format (unit mm)*
G04 Created by KiCad (PCBNEW 5.0.2+dfsg1-1) date Mon 24 Aug 2020 01:19:37 AM EDT*
%MOMM*%
%LPD*%
G01*
G04 APERTURE LIST*
G04 #@! TA.AperFunction,ComponentPad*
%ADD10R,1.700000X1.700000*%
G04 #@! TD*
G04 #@! TA.AperFunction,ComponentPad*
%ADD11O,1.700000X1.700000*%
G04 #@! TD*
G04 #@! TA.AperFunction,Conductor*
%ADD12C,0.100000*%
G04 #@! TD*
G04 #@! TA.AperFunction,SMDPad,CuDef*
%ADD13C,0.950000*%
G04 #@! TD*
G04 #@! TA.AperFunction,SMDPad,CuDef*
%ADD14R,3.300000X1.700000*%
G04 #@! TD*
G04 #@! TA.AperFunction,SMDPad,CuDef*
%ADD15R,1.000000X0.700000*%
G04 #@! TD*
G04 #@! TA.AperFunction,SMDPad,CuDef*
%ADD16R,0.450000X1.380000*%
G04 #@! TD*
G04 #@! TA.AperFunction,SMDPad,CuDef*
%ADD17R,1.475000X2.100000*%
G04 #@! TD*
G04 #@! TA.AperFunction,SMDPad,CuDef*
%ADD18R,2.375000X1.900000*%
G04 #@! TD*
G04 #@! TA.AperFunction,SMDPad,CuDef*
%ADD19R,1.175000X1.900000*%
G04 #@! TD*
G04 #@! TA.AperFunction,SMDPad,CuDef*
%ADD20R,2.000000X0.650000*%
G04 #@! TD*
G04 #@! TA.AperFunction,SMDPad,CuDef*
%ADD21R,1.600000X0.300000*%
G04 #@! TD*
G04 #@! TA.AperFunction,SMDPad,CuDef*
%ADD22R,1.560000X0.650000*%
G04 #@! TD*
G04 #@! TA.AperFunction,SMDPad,CuDef*
%ADD23R,2.200000X1.200000*%
G04 #@! TD*
G04 #@! TA.AperFunction,SMDPad,CuDef*
%ADD24R,6.400000X5.800000*%
G04 #@! TD*
G04 #@! TA.AperFunction,SMDPad,CuDef*
%ADD25R,1.500000X0.550000*%
G04 #@! TD*
G04 #@! TA.AperFunction,SMDPad,CuDef*
%ADD26R,0.550000X1.500000*%
G04 #@! TD*
G04 APERTURE END LIST*
D10*
G04 #@! TO.P,BT1,1*
G04 #@! TO.N,BAT+*
X147205001Y-69135001D03*
D11*
G04 #@! TO.P,BT1,2*
G04 #@! TO.N,BAT-*
X147205001Y-71675001D03*
G04 #@! TD*
D12*
G04 #@! TO.N,Net-(C1-Pad1)*
G04 #@! TO.C,C1*
G36*
X133040780Y-94791145D02*
X133063835Y-94794564D01*
X133086444Y-94800228D01*
X133108388Y-94808080D01*
X133129458Y-94818045D01*
X133149449Y-94830027D01*
X133168169Y-94843911D01*
X133185439Y-94859563D01*
X133201091Y-94876833D01*
X133214975Y-94895553D01*
X133226957Y-94915544D01*
X133236922Y-94936614D01*
X133244774Y-94958558D01*
X133250438Y-94981167D01*
X133253857Y-95004222D01*
X133255001Y-95027501D01*
X133255001Y-95502501D01*
X133253857Y-95525780D01*
X133250438Y-95548835D01*
X133244774Y-95571444D01*
X133236922Y-95593388D01*
X133226957Y-95614458D01*
X133214975Y-95634449D01*
X133201091Y-95653169D01*
X133185439Y-95670439D01*
X133168169Y-95686091D01*
X133149449Y-95699975D01*
X133129458Y-95711957D01*
X133108388Y-95721922D01*
X133086444Y-95729774D01*
X133063835Y-95735438D01*
X133040780Y-95738857D01*
X133017501Y-95740001D01*
X132442501Y-95740001D01*
X132419222Y-95738857D01*
X132396167Y-95735438D01*
X132373558Y-95729774D01*
X132351614Y-95721922D01*
X132330544Y-95711957D01*
X132310553Y-95699975D01*
X132291833Y-95686091D01*
X132274563Y-95670439D01*
X132258911Y-95653169D01*
X132245027Y-95634449D01*
X132233045Y-95614458D01*
X132223080Y-95593388D01*
X132215228Y-95571444D01*
X132209564Y-95548835D01*
X132206145Y-95525780D01*
X132205001Y-95502501D01*
X132205001Y-95027501D01*
X132206145Y-95004222D01*
X132209564Y-94981167D01*
X132215228Y-94958558D01*
X132223080Y-94936614D01*
X132233045Y-94915544D01*
X132245027Y-94895553D01*
X132258911Y-94876833D01*
X132274563Y-94859563D01*
X132291833Y-94843911D01*
X132310553Y-94830027D01*
X132330544Y-94818045D01*
X132351614Y-94808080D01*
X132373558Y-94800228D01*
X132396167Y-94794564D01*
X132419222Y-94791145D01*
X132442501Y-94790001D01*
X133017501Y-94790001D01*
X133040780Y-94791145D01*
X133040780Y-94791145D01*
G37*
D13*
G04 #@! TD*
G04 #@! TO.P,C1,1*
G04 #@! TO.N,Net-(C1-Pad1)*
X132730001Y-95265001D03*
D12*
G04 #@! TO.N,BAT-*
G04 #@! TO.C,C1*
G36*
X134790780Y-94791145D02*
X134813835Y-94794564D01*
X134836444Y-94800228D01*
X134858388Y-94808080D01*
X134879458Y-94818045D01*
X134899449Y-94830027D01*
X134918169Y-94843911D01*
X134935439Y-94859563D01*
X134951091Y-94876833D01*
X134964975Y-94895553D01*
X134976957Y-94915544D01*
X134986922Y-94936614D01*
X134994774Y-94958558D01*
X135000438Y-94981167D01*
X135003857Y-95004222D01*
X135005001Y-95027501D01*
X135005001Y-95502501D01*
X135003857Y-95525780D01*
X135000438Y-95548835D01*
X134994774Y-95571444D01*
X134986922Y-95593388D01*
X134976957Y-95614458D01*
X134964975Y-95634449D01*
X134951091Y-95653169D01*
X134935439Y-95670439D01*
X134918169Y-95686091D01*
X134899449Y-95699975D01*
X134879458Y-95711957D01*
X134858388Y-95721922D01*
X134836444Y-95729774D01*
X134813835Y-95735438D01*
X134790780Y-95738857D01*
X134767501Y-95740001D01*
X134192501Y-95740001D01*
X134169222Y-95738857D01*
X134146167Y-95735438D01*
X134123558Y-95729774D01*
X134101614Y-95721922D01*
X134080544Y-95711957D01*
X134060553Y-95699975D01*
X134041833Y-95686091D01*
X134024563Y-95670439D01*
X134008911Y-95653169D01*
X133995027Y-95634449D01*
X133983045Y-95614458D01*
X133973080Y-95593388D01*
X133965228Y-95571444D01*
X133959564Y-95548835D01*
X133956145Y-95525780D01*
X133955001Y-95502501D01*
X133955001Y-95027501D01*
X133956145Y-95004222D01*
X133959564Y-94981167D01*
X133965228Y-94958558D01*
X133973080Y-94936614D01*
X133983045Y-94915544D01*
X133995027Y-94895553D01*
X134008911Y-94876833D01*
X134024563Y-94859563D01*
X134041833Y-94843911D01*
X134060553Y-94830027D01*
X134080544Y-94818045D01*
X134101614Y-94808080D01*
X134123558Y-94800228D01*
X134146167Y-94794564D01*
X134169222Y-94791145D01*
X134192501Y-94790001D01*
X134767501Y-94790001D01*
X134790780Y-94791145D01*
X134790780Y-94791145D01*
G37*
D13*
G04 #@! TD*
G04 #@! TO.P,C1,2*
G04 #@! TO.N,BAT-*
X134480001Y-95265001D03*
D12*
G04 #@! TO.N,BP_VDD*
G04 #@! TO.C,C2*
G36*
X133040780Y-93281145D02*
X133063835Y-93284564D01*
X133086444Y-93290228D01*
X133108388Y-93298080D01*
X133129458Y-93308045D01*
X133149449Y-93320027D01*
X133168169Y-93333911D01*
X133185439Y-93349563D01*
X133201091Y-93366833D01*
X133214975Y-93385553D01*
X133226957Y-93405544D01*
X133236922Y-93426614D01*
X133244774Y-93448558D01*
X133250438Y-93471167D01*
X133253857Y-93494222D01*
X133255001Y-93517501D01*
X133255001Y-93992501D01*
X133253857Y-94015780D01*
X133250438Y-94038835D01*
X133244774Y-94061444D01*
X133236922Y-94083388D01*
X133226957Y-94104458D01*
X133214975Y-94124449D01*
X133201091Y-94143169D01*
X133185439Y-94160439D01*
X133168169Y-94176091D01*
X133149449Y-94189975D01*
X133129458Y-94201957D01*
X133108388Y-94211922D01*
X133086444Y-94219774D01*
X133063835Y-94225438D01*
X133040780Y-94228857D01*
X133017501Y-94230001D01*
X132442501Y-94230001D01*
X132419222Y-94228857D01*
X132396167Y-94225438D01*
X132373558Y-94219774D01*
X132351614Y-94211922D01*
X132330544Y-94201957D01*
X132310553Y-94189975D01*
X132291833Y-94176091D01*
X132274563Y-94160439D01*
X132258911Y-94143169D01*
X132245027Y-94124449D01*
X132233045Y-94104458D01*
X132223080Y-94083388D01*
X132215228Y-94061444D01*
X132209564Y-94038835D01*
X132206145Y-94015780D01*
X132205001Y-93992501D01*
X132205001Y-93517501D01*
X132206145Y-93494222D01*
X132209564Y-93471167D01*
X132215228Y-93448558D01*
X132223080Y-93426614D01*
X132233045Y-93405544D01*
X132245027Y-93385553D01*
X132258911Y-93366833D01*
X132274563Y-93349563D01*
X132291833Y-93333911D01*
X132310553Y-93320027D01*
X132330544Y-93308045D01*
X132351614Y-93298080D01*
X132373558Y-93290228D01*
X132396167Y-93284564D01*
X132419222Y-93281145D01*
X132442501Y-93280001D01*
X133017501Y-93280001D01*
X133040780Y-93281145D01*
X133040780Y-93281145D01*
G37*
D13*
G04 #@! TD*
G04 #@! TO.P,C2,1*
G04 #@! TO.N,BP_VDD*
X132730001Y-93755001D03*
D12*
G04 #@! TO.N,BAT-*
G04 #@! TO.C,C2*
G36*
X134790780Y-93281145D02*
X134813835Y-93284564D01*
X134836444Y-93290228D01*
X134858388Y-93298080D01*
X134879458Y-93308045D01*
X134899449Y-93320027D01*
X134918169Y-93333911D01*
X134935439Y-93349563D01*
X134951091Y-93366833D01*
X134964975Y-93385553D01*
X134976957Y-93405544D01*
X134986922Y-93426614D01*
X134994774Y-93448558D01*
X135000438Y-93471167D01*
X135003857Y-93494222D01*
X135005001Y-93517501D01*
X135005001Y-93992501D01*
X135003857Y-94015780D01*
X135000438Y-94038835D01*
X134994774Y-94061444D01*
X134986922Y-94083388D01*
X134976957Y-94104458D01*
X134964975Y-94124449D01*
X134951091Y-94143169D01*
X134935439Y-94160439D01*
X134918169Y-94176091D01*
X134899449Y-94189975D01*
X134879458Y-94201957D01*
X134858388Y-94211922D01*
X134836444Y-94219774D01*
X134813835Y-94225438D01*
X134790780Y-94228857D01*
X134767501Y-94230001D01*
X134192501Y-94230001D01*
X134169222Y-94228857D01*
X134146167Y-94225438D01*
X134123558Y-94219774D01*
X134101614Y-94211922D01*
X134080544Y-94201957D01*
X134060553Y-94189975D01*
X134041833Y-94176091D01*
X134024563Y-94160439D01*
X134008911Y-94143169D01*
X133995027Y-94124449D01*
X133983045Y-94104458D01*
X133973080Y-94083388D01*
X133965228Y-94061444D01*
X133959564Y-94038835D01*
X133956145Y-94015780D01*
X133955001Y-93992501D01*
X133955001Y-93517501D01*
X133956145Y-93494222D01*
X133959564Y-93471167D01*
X133965228Y-93448558D01*
X133973080Y-93426614D01*
X133983045Y-93405544D01*
X133995027Y-93385553D01*
X134008911Y-93366833D01*
X134024563Y-93349563D01*
X134041833Y-93333911D01*
X134060553Y-93320027D01*
X134080544Y-93308045D01*
X134101614Y-93298080D01*
X134123558Y-93290228D01*
X134146167Y-93284564D01*
X134169222Y-93281145D01*
X134192501Y-93280001D01*
X134767501Y-93280001D01*
X134790780Y-93281145D01*
X134790780Y-93281145D01*
G37*
D13*
G04 #@! TD*
G04 #@! TO.P,C2,2*
G04 #@! TO.N,BAT-*
X134480001Y-93755001D03*
D12*
G04 #@! TO.N,BAT-*
G04 #@! TO.C,C3*
G36*
X148630780Y-83541145D02*
X148653835Y-83544564D01*
X148676444Y-83550228D01*
X148698388Y-83558080D01*
X148719458Y-83568045D01*
X148739449Y-83580027D01*
X148758169Y-83593911D01*
X148775439Y-83609563D01*
X148791091Y-83626833D01*
X148804975Y-83645553D01*
X148816957Y-83665544D01*
X148826922Y-83686614D01*
X148834774Y-83708558D01*
X148840438Y-83731167D01*
X148843857Y-83754222D01*
X148845001Y-83777501D01*
X148845001Y-84252501D01*
X148843857Y-84275780D01*
X148840438Y-84298835D01*
X148834774Y-84321444D01*
X148826922Y-84343388D01*
X148816957Y-84364458D01*
X148804975Y-84384449D01*
X148791091Y-84403169D01*
X148775439Y-84420439D01*
X148758169Y-84436091D01*
X148739449Y-84449975D01*
X148719458Y-84461957D01*
X148698388Y-84471922D01*
X148676444Y-84479774D01*
X148653835Y-84485438D01*
X148630780Y-84488857D01*
X148607501Y-84490001D01*
X148032501Y-84490001D01*
X148009222Y-84488857D01*
X147986167Y-84485438D01*
X147963558Y-84479774D01*
X147941614Y-84471922D01*
X147920544Y-84461957D01*
X147900553Y-84449975D01*
X147881833Y-84436091D01*
X147864563Y-84420439D01*
X147848911Y-84403169D01*
X147835027Y-84384449D01*
X147823045Y-84364458D01*
X147813080Y-84343388D01*
X147805228Y-84321444D01*
X147799564Y-84298835D01*
X147796145Y-84275780D01*
X147795001Y-84252501D01*
X147795001Y-83777501D01*
X147796145Y-83754222D01*
X147799564Y-83731167D01*
X147805228Y-83708558D01*
X147813080Y-83686614D01*
X147823045Y-83665544D01*
X147835027Y-83645553D01*
X147848911Y-83626833D01*
X147864563Y-83609563D01*
X147881833Y-83593911D01*
X147900553Y-83580027D01*
X147920544Y-83568045D01*
X147941614Y-83558080D01*
X147963558Y-83550228D01*
X147986167Y-83544564D01*
X148009222Y-83541145D01*
X148032501Y-83540001D01*
X148607501Y-83540001D01*
X148630780Y-83541145D01*
X148630780Y-83541145D01*
G37*
D13*
G04 #@! TD*
G04 #@! TO.P,C3,1*
G04 #@! TO.N,BAT-*
X148320001Y-84015001D03*
D12*
G04 #@! TO.N,USB_VBUS*
G04 #@! TO.C,C3*
G36*
X150380780Y-83541145D02*
X150403835Y-83544564D01*
X150426444Y-83550228D01*
X150448388Y-83558080D01*
X150469458Y-83568045D01*
X150489449Y-83580027D01*
X150508169Y-83593911D01*
X150525439Y-83609563D01*
X150541091Y-83626833D01*
X150554975Y-83645553D01*
X150566957Y-83665544D01*
X150576922Y-83686614D01*
X150584774Y-83708558D01*
X150590438Y-83731167D01*
X150593857Y-83754222D01*
X150595001Y-83777501D01*
X150595001Y-84252501D01*
X150593857Y-84275780D01*
X150590438Y-84298835D01*
X150584774Y-84321444D01*
X150576922Y-84343388D01*
X150566957Y-84364458D01*
X150554975Y-84384449D01*
X150541091Y-84403169D01*
X150525439Y-84420439D01*
X150508169Y-84436091D01*
X150489449Y-84449975D01*
X150469458Y-84461957D01*
X150448388Y-84471922D01*
X150426444Y-84479774D01*
X150403835Y-84485438D01*
X150380780Y-84488857D01*
X150357501Y-84490001D01*
X149782501Y-84490001D01*
X149759222Y-84488857D01*
X149736167Y-84485438D01*
X149713558Y-84479774D01*
X149691614Y-84471922D01*
X149670544Y-84461957D01*
X149650553Y-84449975D01*
X149631833Y-84436091D01*
X149614563Y-84420439D01*
X149598911Y-84403169D01*
X149585027Y-84384449D01*
X149573045Y-84364458D01*
X149563080Y-84343388D01*
X149555228Y-84321444D01*
X149549564Y-84298835D01*
X149546145Y-84275780D01*
X149545001Y-84252501D01*
X149545001Y-83777501D01*
X149546145Y-83754222D01*
X149549564Y-83731167D01*
X149555228Y-83708558D01*
X149563080Y-83686614D01*
X149573045Y-83665544D01*
X149585027Y-83645553D01*
X149598911Y-83626833D01*
X149614563Y-83609563D01*
X149631833Y-83593911D01*
X149650553Y-83580027D01*
X149670544Y-83568045D01*
X149691614Y-83558080D01*
X149713558Y-83550228D01*
X149736167Y-83544564D01*
X149759222Y-83541145D01*
X149782501Y-83540001D01*
X150357501Y-83540001D01*
X150380780Y-83541145D01*
X150380780Y-83541145D01*
G37*
D13*
G04 #@! TD*
G04 #@! TO.P,C3,2*
G04 #@! TO.N,USB_VBUS*
X150070001Y-84015001D03*
D12*
G04 #@! TO.N,BAT-*
G04 #@! TO.C,C4*
G36*
X134790780Y-91771145D02*
X134813835Y-91774564D01*
X134836444Y-91780228D01*
X134858388Y-91788080D01*
X134879458Y-91798045D01*
X134899449Y-91810027D01*
X134918169Y-91823911D01*
X134935439Y-91839563D01*
X134951091Y-91856833D01*
X134964975Y-91875553D01*
X134976957Y-91895544D01*
X134986922Y-91916614D01*
X134994774Y-91938558D01*
X135000438Y-91961167D01*
X135003857Y-91984222D01*
X135005001Y-92007501D01*
X135005001Y-92482501D01*
X135003857Y-92505780D01*
X135000438Y-92528835D01*
X134994774Y-92551444D01*
X134986922Y-92573388D01*
X134976957Y-92594458D01*
X134964975Y-92614449D01*
X134951091Y-92633169D01*
X134935439Y-92650439D01*
X134918169Y-92666091D01*
X134899449Y-92679975D01*
X134879458Y-92691957D01*
X134858388Y-92701922D01*
X134836444Y-92709774D01*
X134813835Y-92715438D01*
X134790780Y-92718857D01*
X134767501Y-92720001D01*
X134192501Y-92720001D01*
X134169222Y-92718857D01*
X134146167Y-92715438D01*
X134123558Y-92709774D01*
X134101614Y-92701922D01*
X134080544Y-92691957D01*
X134060553Y-92679975D01*
X134041833Y-92666091D01*
X134024563Y-92650439D01*
X134008911Y-92633169D01*
X133995027Y-92614449D01*
X133983045Y-92594458D01*
X133973080Y-92573388D01*
X133965228Y-92551444D01*
X133959564Y-92528835D01*
X133956145Y-92505780D01*
X133955001Y-92482501D01*
X133955001Y-92007501D01*
X133956145Y-91984222D01*
X133959564Y-91961167D01*
X133965228Y-91938558D01*
X133973080Y-91916614D01*
X133983045Y-91895544D01*
X133995027Y-91875553D01*
X134008911Y-91856833D01*
X134024563Y-91839563D01*
X134041833Y-91823911D01*
X134060553Y-91810027D01*
X134080544Y-91798045D01*
X134101614Y-91788080D01*
X134123558Y-91780228D01*
X134146167Y-91774564D01*
X134169222Y-91771145D01*
X134192501Y-91770001D01*
X134767501Y-91770001D01*
X134790780Y-91771145D01*
X134790780Y-91771145D01*
G37*
D13*
G04 #@! TD*
G04 #@! TO.P,C4,2*
G04 #@! TO.N,BAT-*
X134480001Y-92245001D03*
D12*
G04 #@! TO.N,BP_VDD*
G04 #@! TO.C,C4*
G36*
X133040780Y-91771145D02*
X133063835Y-91774564D01*
X133086444Y-91780228D01*
X133108388Y-91788080D01*
X133129458Y-91798045D01*
X133149449Y-91810027D01*
X133168169Y-91823911D01*
X133185439Y-91839563D01*
X133201091Y-91856833D01*
X133214975Y-91875553D01*
X133226957Y-91895544D01*
X133236922Y-91916614D01*
X133244774Y-91938558D01*
X133250438Y-91961167D01*
X133253857Y-91984222D01*
X133255001Y-92007501D01*
X133255001Y-92482501D01*
X133253857Y-92505780D01*
X133250438Y-92528835D01*
X133244774Y-92551444D01*
X133236922Y-92573388D01*
X133226957Y-92594458D01*
X133214975Y-92614449D01*
X133201091Y-92633169D01*
X133185439Y-92650439D01*
X133168169Y-92666091D01*
X133149449Y-92679975D01*
X133129458Y-92691957D01*
X133108388Y-92701922D01*
X133086444Y-92709774D01*
X133063835Y-92715438D01*
X133040780Y-92718857D01*
X133017501Y-92720001D01*
X132442501Y-92720001D01*
X132419222Y-92718857D01*
X132396167Y-92715438D01*
X132373558Y-92709774D01*
X132351614Y-92701922D01*
X132330544Y-92691957D01*
X132310553Y-92679975D01*
X132291833Y-92666091D01*
X132274563Y-92650439D01*
X132258911Y-92633169D01*
X132245027Y-92614449D01*
X132233045Y-92594458D01*
X132223080Y-92573388D01*
X132215228Y-92551444D01*
X132209564Y-92528835D01*
X132206145Y-92505780D01*
X132205001Y-92482501D01*
X132205001Y-92007501D01*
X132206145Y-91984222D01*
X132209564Y-91961167D01*
X132215228Y-91938558D01*
X132223080Y-91916614D01*
X132233045Y-91895544D01*
X132245027Y-91875553D01*
X132258911Y-91856833D01*
X132274563Y-91839563D01*
X132291833Y-91823911D01*
X132310553Y-91810027D01*
X132330544Y-91798045D01*
X132351614Y-91788080D01*
X132373558Y-91780228D01*
X132396167Y-91774564D01*
X132419222Y-91771145D01*
X132442501Y-91770001D01*
X133017501Y-91770001D01*
X133040780Y-91771145D01*
X133040780Y-91771145D01*
G37*
D13*
G04 #@! TD*
G04 #@! TO.P,C4,1*
G04 #@! TO.N,BP_VDD*
X132730001Y-92245001D03*
D12*
G04 #@! TO.N,BAT-*
G04 #@! TO.C,C5*
G36*
X138140780Y-90261145D02*
X138163835Y-90264564D01*
X138186444Y-90270228D01*
X138208388Y-90278080D01*
X138229458Y-90288045D01*
X138249449Y-90300027D01*
X138268169Y-90313911D01*
X138285439Y-90329563D01*
X138301091Y-90346833D01*
X138314975Y-90365553D01*
X138326957Y-90385544D01*
X138336922Y-90406614D01*
X138344774Y-90428558D01*
X138350438Y-90451167D01*
X138353857Y-90474222D01*
X138355001Y-90497501D01*
X138355001Y-90972501D01*
X138353857Y-90995780D01*
X138350438Y-91018835D01*
X138344774Y-91041444D01*
X138336922Y-91063388D01*
X138326957Y-91084458D01*
X138314975Y-91104449D01*
X138301091Y-91123169D01*
X138285439Y-91140439D01*
X138268169Y-91156091D01*
X138249449Y-91169975D01*
X138229458Y-91181957D01*
X138208388Y-91191922D01*
X138186444Y-91199774D01*
X138163835Y-91205438D01*
X138140780Y-91208857D01*
X138117501Y-91210001D01*
X137542501Y-91210001D01*
X137519222Y-91208857D01*
X137496167Y-91205438D01*
X137473558Y-91199774D01*
X137451614Y-91191922D01*
X137430544Y-91181957D01*
X137410553Y-91169975D01*
X137391833Y-91156091D01*
X137374563Y-91140439D01*
X137358911Y-91123169D01*
X137345027Y-91104449D01*
X137333045Y-91084458D01*
X137323080Y-91063388D01*
X137315228Y-91041444D01*
X137309564Y-91018835D01*
X137306145Y-90995780D01*
X137305001Y-90972501D01*
X137305001Y-90497501D01*
X137306145Y-90474222D01*
X137309564Y-90451167D01*
X137315228Y-90428558D01*
X137323080Y-90406614D01*
X137333045Y-90385544D01*
X137345027Y-90365553D01*
X137358911Y-90346833D01*
X137374563Y-90329563D01*
X137391833Y-90313911D01*
X137410553Y-90300027D01*
X137430544Y-90288045D01*
X137451614Y-90278080D01*
X137473558Y-90270228D01*
X137496167Y-90264564D01*
X137519222Y-90261145D01*
X137542501Y-90260001D01*
X138117501Y-90260001D01*
X138140780Y-90261145D01*
X138140780Y-90261145D01*
G37*
D13*
G04 #@! TD*
G04 #@! TO.P,C5,2*
G04 #@! TO.N,BAT-*
X137830001Y-90735001D03*
D12*
G04 #@! TO.N,BP_VDD*
G04 #@! TO.C,C5*
G36*
X136390780Y-90261145D02*
X136413835Y-90264564D01*
X136436444Y-90270228D01*
X136458388Y-90278080D01*
X136479458Y-90288045D01*
X136499449Y-90300027D01*
X136518169Y-90313911D01*
X136535439Y-90329563D01*
X136551091Y-90346833D01*
X136564975Y-90365553D01*
X136576957Y-90385544D01*
X136586922Y-90406614D01*
X136594774Y-90428558D01*
X136600438Y-90451167D01*
X136603857Y-90474222D01*
X136605001Y-90497501D01*
X136605001Y-90972501D01*
X136603857Y-90995780D01*
X136600438Y-91018835D01*
X136594774Y-91041444D01*
X136586922Y-91063388D01*
X136576957Y-91084458D01*
X136564975Y-91104449D01*
X136551091Y-91123169D01*
X136535439Y-91140439D01*
X136518169Y-91156091D01*
X136499449Y-91169975D01*
X136479458Y-91181957D01*
X136458388Y-91191922D01*
X136436444Y-91199774D01*
X136413835Y-91205438D01*
X136390780Y-91208857D01*
X136367501Y-91210001D01*
X135792501Y-91210001D01*
X135769222Y-91208857D01*
X135746167Y-91205438D01*
X135723558Y-91199774D01*
X135701614Y-91191922D01*
X135680544Y-91181957D01*
X135660553Y-91169975D01*
X135641833Y-91156091D01*
X135624563Y-91140439D01*
X135608911Y-91123169D01*
X135595027Y-91104449D01*
X135583045Y-91084458D01*
X135573080Y-91063388D01*
X135565228Y-91041444D01*
X135559564Y-91018835D01*
X135556145Y-90995780D01*
X135555001Y-90972501D01*
X135555001Y-90497501D01*
X135556145Y-90474222D01*
X135559564Y-90451167D01*
X135565228Y-90428558D01*
X135573080Y-90406614D01*
X135583045Y-90385544D01*
X135595027Y-90365553D01*
X135608911Y-90346833D01*
X135624563Y-90329563D01*
X135641833Y-90313911D01*
X135660553Y-90300027D01*
X135680544Y-90288045D01*
X135701614Y-90278080D01*
X135723558Y-90270228D01*
X135746167Y-90264564D01*
X135769222Y-90261145D01*
X135792501Y-90260001D01*
X136367501Y-90260001D01*
X136390780Y-90261145D01*
X136390780Y-90261145D01*
G37*
D13*
G04 #@! TD*
G04 #@! TO.P,C5,1*
G04 #@! TO.N,BP_VDD*
X136080001Y-90735001D03*
D12*
G04 #@! TO.N,BAT-*
G04 #@! TO.C,C6*
G36*
X155740780Y-78291145D02*
X155763835Y-78294564D01*
X155786444Y-78300228D01*
X155808388Y-78308080D01*
X155829458Y-78318045D01*
X155849449Y-78330027D01*
X155868169Y-78343911D01*
X155885439Y-78359563D01*
X155901091Y-78376833D01*
X155914975Y-78395553D01*
X155926957Y-78415544D01*
X155936922Y-78436614D01*
X155944774Y-78458558D01*
X155950438Y-78481167D01*
X155953857Y-78504222D01*
X155955001Y-78527501D01*
X155955001Y-79002501D01*
X155953857Y-79025780D01*
X155950438Y-79048835D01*
X155944774Y-79071444D01*
X155936922Y-79093388D01*
X155926957Y-79114458D01*
X155914975Y-79134449D01*
X155901091Y-79153169D01*
X155885439Y-79170439D01*
X155868169Y-79186091D01*
X155849449Y-79199975D01*
X155829458Y-79211957D01*
X155808388Y-79221922D01*
X155786444Y-79229774D01*
X155763835Y-79235438D01*
X155740780Y-79238857D01*
X155717501Y-79240001D01*
X155142501Y-79240001D01*
X155119222Y-79238857D01*
X155096167Y-79235438D01*
X155073558Y-79229774D01*
X155051614Y-79221922D01*
X155030544Y-79211957D01*
X155010553Y-79199975D01*
X154991833Y-79186091D01*
X154974563Y-79170439D01*
X154958911Y-79153169D01*
X154945027Y-79134449D01*
X154933045Y-79114458D01*
X154923080Y-79093388D01*
X154915228Y-79071444D01*
X154909564Y-79048835D01*
X154906145Y-79025780D01*
X154905001Y-79002501D01*
X154905001Y-78527501D01*
X154906145Y-78504222D01*
X154909564Y-78481167D01*
X154915228Y-78458558D01*
X154923080Y-78436614D01*
X154933045Y-78415544D01*
X154945027Y-78395553D01*
X154958911Y-78376833D01*
X154974563Y-78359563D01*
X154991833Y-78343911D01*
X155010553Y-78330027D01*
X155030544Y-78318045D01*
X155051614Y-78308080D01*
X155073558Y-78300228D01*
X155096167Y-78294564D01*
X155119222Y-78291145D01*
X155142501Y-78290001D01*
X155717501Y-78290001D01*
X155740780Y-78291145D01*
X155740780Y-78291145D01*
G37*
D13*
G04 #@! TD*
G04 #@! TO.P,C6,2*
G04 #@! TO.N,BAT-*
X155430001Y-78765001D03*
D12*
G04 #@! TO.N,VDD*
G04 #@! TO.C,C6*
G36*
X153990780Y-78291145D02*
X154013835Y-78294564D01*
X154036444Y-78300228D01*
X154058388Y-78308080D01*
X154079458Y-78318045D01*
X154099449Y-78330027D01*
X154118169Y-78343911D01*
X154135439Y-78359563D01*
X154151091Y-78376833D01*
X154164975Y-78395553D01*
X154176957Y-78415544D01*
X154186922Y-78436614D01*
X154194774Y-78458558D01*
X154200438Y-78481167D01*
X154203857Y-78504222D01*
X154205001Y-78527501D01*
X154205001Y-79002501D01*
X154203857Y-79025780D01*
X154200438Y-79048835D01*
X154194774Y-79071444D01*
X154186922Y-79093388D01*
X154176957Y-79114458D01*
X154164975Y-79134449D01*
X154151091Y-79153169D01*
X154135439Y-79170439D01*
X154118169Y-79186091D01*
X154099449Y-79199975D01*
X154079458Y-79211957D01*
X154058388Y-79221922D01*
X154036444Y-79229774D01*
X154013835Y-79235438D01*
X153990780Y-79238857D01*
X153967501Y-79240001D01*
X153392501Y-79240001D01*
X153369222Y-79238857D01*
X153346167Y-79235438D01*
X153323558Y-79229774D01*
X153301614Y-79221922D01*
X153280544Y-79211957D01*
X153260553Y-79199975D01*
X153241833Y-79186091D01*
X153224563Y-79170439D01*
X153208911Y-79153169D01*
X153195027Y-79134449D01*
X153183045Y-79114458D01*
X153173080Y-79093388D01*
X153165228Y-79071444D01*
X153159564Y-79048835D01*
X153156145Y-79025780D01*
X153155001Y-79002501D01*
X153155001Y-78527501D01*
X153156145Y-78504222D01*
X153159564Y-78481167D01*
X153165228Y-78458558D01*
X153173080Y-78436614D01*
X153183045Y-78415544D01*
X153195027Y-78395553D01*
X153208911Y-78376833D01*
X153224563Y-78359563D01*
X153241833Y-78343911D01*
X153260553Y-78330027D01*
X153280544Y-78318045D01*
X153301614Y-78308080D01*
X153323558Y-78300228D01*
X153346167Y-78294564D01*
X153369222Y-78291145D01*
X153392501Y-78290001D01*
X153967501Y-78290001D01*
X153990780Y-78291145D01*
X153990780Y-78291145D01*
G37*
D13*
G04 #@! TD*
G04 #@! TO.P,C6,1*
G04 #@! TO.N,VDD*
X153680001Y-78765001D03*
D12*
G04 #@! TO.N,VDD*
G04 #@! TO.C,C7*
G36*
X136690780Y-84491145D02*
X136713835Y-84494564D01*
X136736444Y-84500228D01*
X136758388Y-84508080D01*
X136779458Y-84518045D01*
X136799449Y-84530027D01*
X136818169Y-84543911D01*
X136835439Y-84559563D01*
X136851091Y-84576833D01*
X136864975Y-84595553D01*
X136876957Y-84615544D01*
X136886922Y-84636614D01*
X136894774Y-84658558D01*
X136900438Y-84681167D01*
X136903857Y-84704222D01*
X136905001Y-84727501D01*
X136905001Y-85202501D01*
X136903857Y-85225780D01*
X136900438Y-85248835D01*
X136894774Y-85271444D01*
X136886922Y-85293388D01*
X136876957Y-85314458D01*
X136864975Y-85334449D01*
X136851091Y-85353169D01*
X136835439Y-85370439D01*
X136818169Y-85386091D01*
X136799449Y-85399975D01*
X136779458Y-85411957D01*
X136758388Y-85421922D01*
X136736444Y-85429774D01*
X136713835Y-85435438D01*
X136690780Y-85438857D01*
X136667501Y-85440001D01*
X136092501Y-85440001D01*
X136069222Y-85438857D01*
X136046167Y-85435438D01*
X136023558Y-85429774D01*
X136001614Y-85421922D01*
X135980544Y-85411957D01*
X135960553Y-85399975D01*
X135941833Y-85386091D01*
X135924563Y-85370439D01*
X135908911Y-85353169D01*
X135895027Y-85334449D01*
X135883045Y-85314458D01*
X135873080Y-85293388D01*
X135865228Y-85271444D01*
X135859564Y-85248835D01*
X135856145Y-85225780D01*
X135855001Y-85202501D01*
X135855001Y-84727501D01*
X135856145Y-84704222D01*
X135859564Y-84681167D01*
X135865228Y-84658558D01*
X135873080Y-84636614D01*
X135883045Y-84615544D01*
X135895027Y-84595553D01*
X135908911Y-84576833D01*
X135924563Y-84559563D01*
X135941833Y-84543911D01*
X135960553Y-84530027D01*
X135980544Y-84518045D01*
X136001614Y-84508080D01*
X136023558Y-84500228D01*
X136046167Y-84494564D01*
X136069222Y-84491145D01*
X136092501Y-84490001D01*
X136667501Y-84490001D01*
X136690780Y-84491145D01*
X136690780Y-84491145D01*
G37*
D13*
G04 #@! TD*
G04 #@! TO.P,C7,1*
G04 #@! TO.N,VDD*
X136380001Y-84965001D03*
D12*
G04 #@! TO.N,BAT-*
G04 #@! TO.C,C7*
G36*
X138440780Y-84491145D02*
X138463835Y-84494564D01*
X138486444Y-84500228D01*
X138508388Y-84508080D01*
X138529458Y-84518045D01*
X138549449Y-84530027D01*
X138568169Y-84543911D01*
X138585439Y-84559563D01*
X138601091Y-84576833D01*
X138614975Y-84595553D01*
X138626957Y-84615544D01*
X138636922Y-84636614D01*
X138644774Y-84658558D01*
X138650438Y-84681167D01*
X138653857Y-84704222D01*
X138655001Y-84727501D01*
X138655001Y-85202501D01*
X138653857Y-85225780D01*
X138650438Y-85248835D01*
X138644774Y-85271444D01*
X138636922Y-85293388D01*
X138626957Y-85314458D01*
X138614975Y-85334449D01*
X138601091Y-85353169D01*
X138585439Y-85370439D01*
X138568169Y-85386091D01*
X138549449Y-85399975D01*
X138529458Y-85411957D01*
X138508388Y-85421922D01*
X138486444Y-85429774D01*
X138463835Y-85435438D01*
X138440780Y-85438857D01*
X138417501Y-85440001D01*
X137842501Y-85440001D01*
X137819222Y-85438857D01*
X137796167Y-85435438D01*
X137773558Y-85429774D01*
X137751614Y-85421922D01*
X137730544Y-85411957D01*
X137710553Y-85399975D01*
X137691833Y-85386091D01*
X137674563Y-85370439D01*
X137658911Y-85353169D01*
X137645027Y-85334449D01*
X137633045Y-85314458D01*
X137623080Y-85293388D01*
X137615228Y-85271444D01*
X137609564Y-85248835D01*
X137606145Y-85225780D01*
X137605001Y-85202501D01*
X137605001Y-84727501D01*
X137606145Y-84704222D01*
X137609564Y-84681167D01*
X137615228Y-84658558D01*
X137623080Y-84636614D01*
X137633045Y-84615544D01*
X137645027Y-84595553D01*
X137658911Y-84576833D01*
X137674563Y-84559563D01*
X137691833Y-84543911D01*
X137710553Y-84530027D01*
X137730544Y-84518045D01*
X137751614Y-84508080D01*
X137773558Y-84500228D01*
X137796167Y-84494564D01*
X137819222Y-84491145D01*
X137842501Y-84490001D01*
X138417501Y-84490001D01*
X138440780Y-84491145D01*
X138440780Y-84491145D01*
G37*
D13*
G04 #@! TD*
G04 #@! TO.P,C7,2*
G04 #@! TO.N,BAT-*
X138130001Y-84965001D03*
D12*
G04 #@! TO.N,BAT-*
G04 #@! TO.C,C8*
G36*
X134790780Y-87241145D02*
X134813835Y-87244564D01*
X134836444Y-87250228D01*
X134858388Y-87258080D01*
X134879458Y-87268045D01*
X134899449Y-87280027D01*
X134918169Y-87293911D01*
X134935439Y-87309563D01*
X134951091Y-87326833D01*
X134964975Y-87345553D01*
X134976957Y-87365544D01*
X134986922Y-87386614D01*
X134994774Y-87408558D01*
X135000438Y-87431167D01*
X135003857Y-87454222D01*
X135005001Y-87477501D01*
X135005001Y-87952501D01*
X135003857Y-87975780D01*
X135000438Y-87998835D01*
X134994774Y-88021444D01*
X134986922Y-88043388D01*
X134976957Y-88064458D01*
X134964975Y-88084449D01*
X134951091Y-88103169D01*
X134935439Y-88120439D01*
X134918169Y-88136091D01*
X134899449Y-88149975D01*
X134879458Y-88161957D01*
X134858388Y-88171922D01*
X134836444Y-88179774D01*
X134813835Y-88185438D01*
X134790780Y-88188857D01*
X134767501Y-88190001D01*
X134192501Y-88190001D01*
X134169222Y-88188857D01*
X134146167Y-88185438D01*
X134123558Y-88179774D01*
X134101614Y-88171922D01*
X134080544Y-88161957D01*
X134060553Y-88149975D01*
X134041833Y-88136091D01*
X134024563Y-88120439D01*
X134008911Y-88103169D01*
X133995027Y-88084449D01*
X133983045Y-88064458D01*
X133973080Y-88043388D01*
X133965228Y-88021444D01*
X133959564Y-87998835D01*
X133956145Y-87975780D01*
X133955001Y-87952501D01*
X133955001Y-87477501D01*
X133956145Y-87454222D01*
X133959564Y-87431167D01*
X133965228Y-87408558D01*
X133973080Y-87386614D01*
X133983045Y-87365544D01*
X133995027Y-87345553D01*
X134008911Y-87326833D01*
X134024563Y-87309563D01*
X134041833Y-87293911D01*
X134060553Y-87280027D01*
X134080544Y-87268045D01*
X134101614Y-87258080D01*
X134123558Y-87250228D01*
X134146167Y-87244564D01*
X134169222Y-87241145D01*
X134192501Y-87240001D01*
X134767501Y-87240001D01*
X134790780Y-87241145D01*
X134790780Y-87241145D01*
G37*
D13*
G04 #@! TD*
G04 #@! TO.P,C8,2*
G04 #@! TO.N,BAT-*
X134480001Y-87715001D03*
D12*
G04 #@! TO.N,VDD*
G04 #@! TO.C,C8*
G36*
X133040780Y-87241145D02*
X133063835Y-87244564D01*
X133086444Y-87250228D01*
X133108388Y-87258080D01*
X133129458Y-87268045D01*
X133149449Y-87280027D01*
X133168169Y-87293911D01*
X133185439Y-87309563D01*
X133201091Y-87326833D01*
X133214975Y-87345553D01*
X133226957Y-87365544D01*
X133236922Y-87386614D01*
X133244774Y-87408558D01*
X133250438Y-87431167D01*
X133253857Y-87454222D01*
X133255001Y-87477501D01*
X133255001Y-87952501D01*
X133253857Y-87975780D01*
X133250438Y-87998835D01*
X133244774Y-88021444D01*
X133236922Y-88043388D01*
X133226957Y-88064458D01*
X133214975Y-88084449D01*
X133201091Y-88103169D01*
X133185439Y-88120439D01*
X133168169Y-88136091D01*
X133149449Y-88149975D01*
X133129458Y-88161957D01*
X133108388Y-88171922D01*
X133086444Y-88179774D01*
X133063835Y-88185438D01*
X133040780Y-88188857D01*
X133017501Y-88190001D01*
X132442501Y-88190001D01*
X132419222Y-88188857D01*
X132396167Y-88185438D01*
X132373558Y-88179774D01*
X132351614Y-88171922D01*
X132330544Y-88161957D01*
X132310553Y-88149975D01*
X132291833Y-88136091D01*
X132274563Y-88120439D01*
X132258911Y-88103169D01*
X132245027Y-88084449D01*
X132233045Y-88064458D01*
X132223080Y-88043388D01*
X132215228Y-88021444D01*
X132209564Y-87998835D01*
X132206145Y-87975780D01*
X132205001Y-87952501D01*
X132205001Y-87477501D01*
X132206145Y-87454222D01*
X132209564Y-87431167D01*
X132215228Y-87408558D01*
X132223080Y-87386614D01*
X132233045Y-87365544D01*
X132245027Y-87345553D01*
X132258911Y-87326833D01*
X132274563Y-87309563D01*
X132291833Y-87293911D01*
X132310553Y-87280027D01*
X132330544Y-87268045D01*
X132351614Y-87258080D01*
X132373558Y-87250228D01*
X132396167Y-87244564D01*
X132419222Y-87241145D01*
X132442501Y-87240001D01*
X133017501Y-87240001D01*
X133040780Y-87241145D01*
X133040780Y-87241145D01*
G37*
D13*
G04 #@! TD*
G04 #@! TO.P,C8,1*
G04 #@! TO.N,VDD*
X132730001Y-87715001D03*
D12*
G04 #@! TO.N,VDD*
G04 #@! TO.C,C9*
G36*
X136390780Y-87241145D02*
X136413835Y-87244564D01*
X136436444Y-87250228D01*
X136458388Y-87258080D01*
X136479458Y-87268045D01*
X136499449Y-87280027D01*
X136518169Y-87293911D01*
X136535439Y-87309563D01*
X136551091Y-87326833D01*
X136564975Y-87345553D01*
X136576957Y-87365544D01*
X136586922Y-87386614D01*
X136594774Y-87408558D01*
X136600438Y-87431167D01*
X136603857Y-87454222D01*
X136605001Y-87477501D01*
X136605001Y-87952501D01*
X136603857Y-87975780D01*
X136600438Y-87998835D01*
X136594774Y-88021444D01*
X136586922Y-88043388D01*
X136576957Y-88064458D01*
X136564975Y-88084449D01*
X136551091Y-88103169D01*
X136535439Y-88120439D01*
X136518169Y-88136091D01*
X136499449Y-88149975D01*
X136479458Y-88161957D01*
X136458388Y-88171922D01*
X136436444Y-88179774D01*
X136413835Y-88185438D01*
X136390780Y-88188857D01*
X136367501Y-88190001D01*
X135792501Y-88190001D01*
X135769222Y-88188857D01*
X135746167Y-88185438D01*
X135723558Y-88179774D01*
X135701614Y-88171922D01*
X135680544Y-88161957D01*
X135660553Y-88149975D01*
X135641833Y-88136091D01*
X135624563Y-88120439D01*
X135608911Y-88103169D01*
X135595027Y-88084449D01*
X135583045Y-88064458D01*
X135573080Y-88043388D01*
X135565228Y-88021444D01*
X135559564Y-87998835D01*
X135556145Y-87975780D01*
X135555001Y-87952501D01*
X135555001Y-87477501D01*
X135556145Y-87454222D01*
X135559564Y-87431167D01*
X135565228Y-87408558D01*
X135573080Y-87386614D01*
X135583045Y-87365544D01*
X135595027Y-87345553D01*
X135608911Y-87326833D01*
X135624563Y-87309563D01*
X135641833Y-87293911D01*
X135660553Y-87280027D01*
X135680544Y-87268045D01*
X135701614Y-87258080D01*
X135723558Y-87250228D01*
X135746167Y-87244564D01*
X135769222Y-87241145D01*
X135792501Y-87240001D01*
X136367501Y-87240001D01*
X136390780Y-87241145D01*
X136390780Y-87241145D01*
G37*
D13*
G04 #@! TD*
G04 #@! TO.P,C9,1*
G04 #@! TO.N,VDD*
X136080001Y-87715001D03*
D12*
G04 #@! TO.N,BAT-*
G04 #@! TO.C,C9*
G36*
X138140780Y-87241145D02*
X138163835Y-87244564D01*
X138186444Y-87250228D01*
X138208388Y-87258080D01*
X138229458Y-87268045D01*
X138249449Y-87280027D01*
X138268169Y-87293911D01*
X138285439Y-87309563D01*
X138301091Y-87326833D01*
X138314975Y-87345553D01*
X138326957Y-87365544D01*
X138336922Y-87386614D01*
X138344774Y-87408558D01*
X138350438Y-87431167D01*
X138353857Y-87454222D01*
X138355001Y-87477501D01*
X138355001Y-87952501D01*
X138353857Y-87975780D01*
X138350438Y-87998835D01*
X138344774Y-88021444D01*
X138336922Y-88043388D01*
X138326957Y-88064458D01*
X138314975Y-88084449D01*
X138301091Y-88103169D01*
X138285439Y-88120439D01*
X138268169Y-88136091D01*
X138249449Y-88149975D01*
X138229458Y-88161957D01*
X138208388Y-88171922D01*
X138186444Y-88179774D01*
X138163835Y-88185438D01*
X138140780Y-88188857D01*
X138117501Y-88190001D01*
X137542501Y-88190001D01*
X137519222Y-88188857D01*
X137496167Y-88185438D01*
X137473558Y-88179774D01*
X137451614Y-88171922D01*
X137430544Y-88161957D01*
X137410553Y-88149975D01*
X137391833Y-88136091D01*
X137374563Y-88120439D01*
X137358911Y-88103169D01*
X137345027Y-88084449D01*
X137333045Y-88064458D01*
X137323080Y-88043388D01*
X137315228Y-88021444D01*
X137309564Y-87998835D01*
X137306145Y-87975780D01*
X137305001Y-87952501D01*
X137305001Y-87477501D01*
X137306145Y-87454222D01*
X137309564Y-87431167D01*
X137315228Y-87408558D01*
X137323080Y-87386614D01*
X137333045Y-87365544D01*
X137345027Y-87345553D01*
X137358911Y-87326833D01*
X137374563Y-87309563D01*
X137391833Y-87293911D01*
X137410553Y-87280027D01*
X137430544Y-87268045D01*
X137451614Y-87258080D01*
X137473558Y-87250228D01*
X137496167Y-87244564D01*
X137519222Y-87241145D01*
X137542501Y-87240001D01*
X138117501Y-87240001D01*
X138140780Y-87241145D01*
X138140780Y-87241145D01*
G37*
D13*
G04 #@! TD*
G04 #@! TO.P,C9,2*
G04 #@! TO.N,BAT-*
X137830001Y-87715001D03*
D12*
G04 #@! TO.N,BAT-*
G04 #@! TO.C,C10*
G36*
X141790780Y-84491145D02*
X141813835Y-84494564D01*
X141836444Y-84500228D01*
X141858388Y-84508080D01*
X141879458Y-84518045D01*
X141899449Y-84530027D01*
X141918169Y-84543911D01*
X141935439Y-84559563D01*
X141951091Y-84576833D01*
X141964975Y-84595553D01*
X141976957Y-84615544D01*
X141986922Y-84636614D01*
X141994774Y-84658558D01*
X142000438Y-84681167D01*
X142003857Y-84704222D01*
X142005001Y-84727501D01*
X142005001Y-85202501D01*
X142003857Y-85225780D01*
X142000438Y-85248835D01*
X141994774Y-85271444D01*
X141986922Y-85293388D01*
X141976957Y-85314458D01*
X141964975Y-85334449D01*
X141951091Y-85353169D01*
X141935439Y-85370439D01*
X141918169Y-85386091D01*
X141899449Y-85399975D01*
X141879458Y-85411957D01*
X141858388Y-85421922D01*
X141836444Y-85429774D01*
X141813835Y-85435438D01*
X141790780Y-85438857D01*
X141767501Y-85440001D01*
X141192501Y-85440001D01*
X141169222Y-85438857D01*
X141146167Y-85435438D01*
X141123558Y-85429774D01*
X141101614Y-85421922D01*
X141080544Y-85411957D01*
X141060553Y-85399975D01*
X141041833Y-85386091D01*
X141024563Y-85370439D01*
X141008911Y-85353169D01*
X140995027Y-85334449D01*
X140983045Y-85314458D01*
X140973080Y-85293388D01*
X140965228Y-85271444D01*
X140959564Y-85248835D01*
X140956145Y-85225780D01*
X140955001Y-85202501D01*
X140955001Y-84727501D01*
X140956145Y-84704222D01*
X140959564Y-84681167D01*
X140965228Y-84658558D01*
X140973080Y-84636614D01*
X140983045Y-84615544D01*
X140995027Y-84595553D01*
X141008911Y-84576833D01*
X141024563Y-84559563D01*
X141041833Y-84543911D01*
X141060553Y-84530027D01*
X141080544Y-84518045D01*
X141101614Y-84508080D01*
X141123558Y-84500228D01*
X141146167Y-84494564D01*
X141169222Y-84491145D01*
X141192501Y-84490001D01*
X141767501Y-84490001D01*
X141790780Y-84491145D01*
X141790780Y-84491145D01*
G37*
D13*
G04 #@! TD*
G04 #@! TO.P,C10,2*
G04 #@! TO.N,BAT-*
X141480001Y-84965001D03*
D12*
G04 #@! TO.N,VDD*
G04 #@! TO.C,C10*
G36*
X140040780Y-84491145D02*
X140063835Y-84494564D01*
X140086444Y-84500228D01*
X140108388Y-84508080D01*
X140129458Y-84518045D01*
X140149449Y-84530027D01*
X140168169Y-84543911D01*
X140185439Y-84559563D01*
X140201091Y-84576833D01*
X140214975Y-84595553D01*
X140226957Y-84615544D01*
X140236922Y-84636614D01*
X140244774Y-84658558D01*
X140250438Y-84681167D01*
X140253857Y-84704222D01*
X140255001Y-84727501D01*
X140255001Y-85202501D01*
X140253857Y-85225780D01*
X140250438Y-85248835D01*
X140244774Y-85271444D01*
X140236922Y-85293388D01*
X140226957Y-85314458D01*
X140214975Y-85334449D01*
X140201091Y-85353169D01*
X140185439Y-85370439D01*
X140168169Y-85386091D01*
X140149449Y-85399975D01*
X140129458Y-85411957D01*
X140108388Y-85421922D01*
X140086444Y-85429774D01*
X140063835Y-85435438D01*
X140040780Y-85438857D01*
X140017501Y-85440001D01*
X139442501Y-85440001D01*
X139419222Y-85438857D01*
X139396167Y-85435438D01*
X139373558Y-85429774D01*
X139351614Y-85421922D01*
X139330544Y-85411957D01*
X139310553Y-85399975D01*
X139291833Y-85386091D01*
X139274563Y-85370439D01*
X139258911Y-85353169D01*
X139245027Y-85334449D01*
X139233045Y-85314458D01*
X139223080Y-85293388D01*
X139215228Y-85271444D01*
X139209564Y-85248835D01*
X139206145Y-85225780D01*
X139205001Y-85202501D01*
X139205001Y-84727501D01*
X139206145Y-84704222D01*
X139209564Y-84681167D01*
X139215228Y-84658558D01*
X139223080Y-84636614D01*
X139233045Y-84615544D01*
X139245027Y-84595553D01*
X139258911Y-84576833D01*
X139274563Y-84559563D01*
X139291833Y-84543911D01*
X139310553Y-84530027D01*
X139330544Y-84518045D01*
X139351614Y-84508080D01*
X139373558Y-84500228D01*
X139396167Y-84494564D01*
X139419222Y-84491145D01*
X139442501Y-84490001D01*
X140017501Y-84490001D01*
X140040780Y-84491145D01*
X140040780Y-84491145D01*
G37*
D13*
G04 #@! TD*
G04 #@! TO.P,C10,1*
G04 #@! TO.N,VDD*
X139730001Y-84965001D03*
D12*
G04 #@! TO.N,VDD*
G04 #@! TO.C,C11*
G36*
X139740780Y-86001145D02*
X139763835Y-86004564D01*
X139786444Y-86010228D01*
X139808388Y-86018080D01*
X139829458Y-86028045D01*
X139849449Y-86040027D01*
X139868169Y-86053911D01*
X139885439Y-86069563D01*
X139901091Y-86086833D01*
X139914975Y-86105553D01*
X139926957Y-86125544D01*
X139936922Y-86146614D01*
X139944774Y-86168558D01*
X139950438Y-86191167D01*
X139953857Y-86214222D01*
X139955001Y-86237501D01*
X139955001Y-86712501D01*
X139953857Y-86735780D01*
X139950438Y-86758835D01*
X139944774Y-86781444D01*
X139936922Y-86803388D01*
X139926957Y-86824458D01*
X139914975Y-86844449D01*
X139901091Y-86863169D01*
X139885439Y-86880439D01*
X139868169Y-86896091D01*
X139849449Y-86909975D01*
X139829458Y-86921957D01*
X139808388Y-86931922D01*
X139786444Y-86939774D01*
X139763835Y-86945438D01*
X139740780Y-86948857D01*
X139717501Y-86950001D01*
X139142501Y-86950001D01*
X139119222Y-86948857D01*
X139096167Y-86945438D01*
X139073558Y-86939774D01*
X139051614Y-86931922D01*
X139030544Y-86921957D01*
X139010553Y-86909975D01*
X138991833Y-86896091D01*
X138974563Y-86880439D01*
X138958911Y-86863169D01*
X138945027Y-86844449D01*
X138933045Y-86824458D01*
X138923080Y-86803388D01*
X138915228Y-86781444D01*
X138909564Y-86758835D01*
X138906145Y-86735780D01*
X138905001Y-86712501D01*
X138905001Y-86237501D01*
X138906145Y-86214222D01*
X138909564Y-86191167D01*
X138915228Y-86168558D01*
X138923080Y-86146614D01*
X138933045Y-86125544D01*
X138945027Y-86105553D01*
X138958911Y-86086833D01*
X138974563Y-86069563D01*
X138991833Y-86053911D01*
X139010553Y-86040027D01*
X139030544Y-86028045D01*
X139051614Y-86018080D01*
X139073558Y-86010228D01*
X139096167Y-86004564D01*
X139119222Y-86001145D01*
X139142501Y-86000001D01*
X139717501Y-86000001D01*
X139740780Y-86001145D01*
X139740780Y-86001145D01*
G37*
D13*
G04 #@! TD*
G04 #@! TO.P,C11,1*
G04 #@! TO.N,VDD*
X139430001Y-86475001D03*
D12*
G04 #@! TO.N,BAT-*
G04 #@! TO.C,C11*
G36*
X141490780Y-86001145D02*
X141513835Y-86004564D01*
X141536444Y-86010228D01*
X141558388Y-86018080D01*
X141579458Y-86028045D01*
X141599449Y-86040027D01*
X141618169Y-86053911D01*
X141635439Y-86069563D01*
X141651091Y-86086833D01*
X141664975Y-86105553D01*
X141676957Y-86125544D01*
X141686922Y-86146614D01*
X141694774Y-86168558D01*
X141700438Y-86191167D01*
X141703857Y-86214222D01*
X141705001Y-86237501D01*
X141705001Y-86712501D01*
X141703857Y-86735780D01*
X141700438Y-86758835D01*
X141694774Y-86781444D01*
X141686922Y-86803388D01*
X141676957Y-86824458D01*
X141664975Y-86844449D01*
X141651091Y-86863169D01*
X141635439Y-86880439D01*
X141618169Y-86896091D01*
X141599449Y-86909975D01*
X141579458Y-86921957D01*
X141558388Y-86931922D01*
X141536444Y-86939774D01*
X141513835Y-86945438D01*
X141490780Y-86948857D01*
X141467501Y-86950001D01*
X140892501Y-86950001D01*
X140869222Y-86948857D01*
X140846167Y-86945438D01*
X140823558Y-86939774D01*
X140801614Y-86931922D01*
X140780544Y-86921957D01*
X140760553Y-86909975D01*
X140741833Y-86896091D01*
X140724563Y-86880439D01*
X140708911Y-86863169D01*
X140695027Y-86844449D01*
X140683045Y-86824458D01*
X140673080Y-86803388D01*
X140665228Y-86781444D01*
X140659564Y-86758835D01*
X140656145Y-86735780D01*
X140655001Y-86712501D01*
X140655001Y-86237501D01*
X140656145Y-86214222D01*
X140659564Y-86191167D01*
X140665228Y-86168558D01*
X140673080Y-86146614D01*
X140683045Y-86125544D01*
X140695027Y-86105553D01*
X140708911Y-86086833D01*
X140724563Y-86069563D01*
X140741833Y-86053911D01*
X140760553Y-86040027D01*
X140780544Y-86028045D01*
X140801614Y-86018080D01*
X140823558Y-86010228D01*
X140846167Y-86004564D01*
X140869222Y-86001145D01*
X140892501Y-86000001D01*
X141467501Y-86000001D01*
X141490780Y-86001145D01*
X141490780Y-86001145D01*
G37*
D13*
G04 #@! TD*
G04 #@! TO.P,C11,2*
G04 #@! TO.N,BAT-*
X141180001Y-86475001D03*
D12*
G04 #@! TO.N,Net-(C12-Pad1)*
G04 #@! TO.C,C12*
G36*
X139740780Y-87511145D02*
X139763835Y-87514564D01*
X139786444Y-87520228D01*
X139808388Y-87528080D01*
X139829458Y-87538045D01*
X139849449Y-87550027D01*
X139868169Y-87563911D01*
X139885439Y-87579563D01*
X139901091Y-87596833D01*
X139914975Y-87615553D01*
X139926957Y-87635544D01*
X139936922Y-87656614D01*
X139944774Y-87678558D01*
X139950438Y-87701167D01*
X139953857Y-87724222D01*
X139955001Y-87747501D01*
X139955001Y-88222501D01*
X139953857Y-88245780D01*
X139950438Y-88268835D01*
X139944774Y-88291444D01*
X139936922Y-88313388D01*
X139926957Y-88334458D01*
X139914975Y-88354449D01*
X139901091Y-88373169D01*
X139885439Y-88390439D01*
X139868169Y-88406091D01*
X139849449Y-88419975D01*
X139829458Y-88431957D01*
X139808388Y-88441922D01*
X139786444Y-88449774D01*
X139763835Y-88455438D01*
X139740780Y-88458857D01*
X139717501Y-88460001D01*
X139142501Y-88460001D01*
X139119222Y-88458857D01*
X139096167Y-88455438D01*
X139073558Y-88449774D01*
X139051614Y-88441922D01*
X139030544Y-88431957D01*
X139010553Y-88419975D01*
X138991833Y-88406091D01*
X138974563Y-88390439D01*
X138958911Y-88373169D01*
X138945027Y-88354449D01*
X138933045Y-88334458D01*
X138923080Y-88313388D01*
X138915228Y-88291444D01*
X138909564Y-88268835D01*
X138906145Y-88245780D01*
X138905001Y-88222501D01*
X138905001Y-87747501D01*
X138906145Y-87724222D01*
X138909564Y-87701167D01*
X138915228Y-87678558D01*
X138923080Y-87656614D01*
X138933045Y-87635544D01*
X138945027Y-87615553D01*
X138958911Y-87596833D01*
X138974563Y-87579563D01*
X138991833Y-87563911D01*
X139010553Y-87550027D01*
X139030544Y-87538045D01*
X139051614Y-87528080D01*
X139073558Y-87520228D01*
X139096167Y-87514564D01*
X139119222Y-87511145D01*
X139142501Y-87510001D01*
X139717501Y-87510001D01*
X139740780Y-87511145D01*
X139740780Y-87511145D01*
G37*
D13*
G04 #@! TD*
G04 #@! TO.P,C12,1*
G04 #@! TO.N,Net-(C12-Pad1)*
X139430001Y-87985001D03*
D12*
G04 #@! TO.N,BAT-*
G04 #@! TO.C,C12*
G36*
X141490780Y-87511145D02*
X141513835Y-87514564D01*
X141536444Y-87520228D01*
X141558388Y-87528080D01*
X141579458Y-87538045D01*
X141599449Y-87550027D01*
X141618169Y-87563911D01*
X141635439Y-87579563D01*
X141651091Y-87596833D01*
X141664975Y-87615553D01*
X141676957Y-87635544D01*
X141686922Y-87656614D01*
X141694774Y-87678558D01*
X141700438Y-87701167D01*
X141703857Y-87724222D01*
X141705001Y-87747501D01*
X141705001Y-88222501D01*
X141703857Y-88245780D01*
X141700438Y-88268835D01*
X141694774Y-88291444D01*
X141686922Y-88313388D01*
X141676957Y-88334458D01*
X141664975Y-88354449D01*
X141651091Y-88373169D01*
X141635439Y-88390439D01*
X141618169Y-88406091D01*
X141599449Y-88419975D01*
X141579458Y-88431957D01*
X141558388Y-88441922D01*
X141536444Y-88449774D01*
X141513835Y-88455438D01*
X141490780Y-88458857D01*
X141467501Y-88460001D01*
X140892501Y-88460001D01*
X140869222Y-88458857D01*
X140846167Y-88455438D01*
X140823558Y-88449774D01*
X140801614Y-88441922D01*
X140780544Y-88431957D01*
X140760553Y-88419975D01*
X140741833Y-88406091D01*
X140724563Y-88390439D01*
X140708911Y-88373169D01*
X140695027Y-88354449D01*
X140683045Y-88334458D01*
X140673080Y-88313388D01*
X140665228Y-88291444D01*
X140659564Y-88268835D01*
X140656145Y-88245780D01*
X140655001Y-88222501D01*
X140655001Y-87747501D01*
X140656145Y-87724222D01*
X140659564Y-87701167D01*
X140665228Y-87678558D01*
X140673080Y-87656614D01*
X140683045Y-87635544D01*
X140695027Y-87615553D01*
X140708911Y-87596833D01*
X140724563Y-87579563D01*
X140741833Y-87563911D01*
X140760553Y-87550027D01*
X140780544Y-87538045D01*
X140801614Y-87528080D01*
X140823558Y-87520228D01*
X140846167Y-87514564D01*
X140869222Y-87511145D01*
X140892501Y-87510001D01*
X141467501Y-87510001D01*
X141490780Y-87511145D01*
X141490780Y-87511145D01*
G37*
D13*
G04 #@! TD*
G04 #@! TO.P,C12,2*
G04 #@! TO.N,BAT-*
X141180001Y-87985001D03*
D12*
G04 #@! TO.N,BAT-*
G04 #@! TO.C,C13*
G36*
X134790780Y-88751145D02*
X134813835Y-88754564D01*
X134836444Y-88760228D01*
X134858388Y-88768080D01*
X134879458Y-88778045D01*
X134899449Y-88790027D01*
X134918169Y-88803911D01*
X134935439Y-88819563D01*
X134951091Y-88836833D01*
X134964975Y-88855553D01*
X134976957Y-88875544D01*
X134986922Y-88896614D01*
X134994774Y-88918558D01*
X135000438Y-88941167D01*
X135003857Y-88964222D01*
X135005001Y-88987501D01*
X135005001Y-89462501D01*
X135003857Y-89485780D01*
X135000438Y-89508835D01*
X134994774Y-89531444D01*
X134986922Y-89553388D01*
X134976957Y-89574458D01*
X134964975Y-89594449D01*
X134951091Y-89613169D01*
X134935439Y-89630439D01*
X134918169Y-89646091D01*
X134899449Y-89659975D01*
X134879458Y-89671957D01*
X134858388Y-89681922D01*
X134836444Y-89689774D01*
X134813835Y-89695438D01*
X134790780Y-89698857D01*
X134767501Y-89700001D01*
X134192501Y-89700001D01*
X134169222Y-89698857D01*
X134146167Y-89695438D01*
X134123558Y-89689774D01*
X134101614Y-89681922D01*
X134080544Y-89671957D01*
X134060553Y-89659975D01*
X134041833Y-89646091D01*
X134024563Y-89630439D01*
X134008911Y-89613169D01*
X133995027Y-89594449D01*
X133983045Y-89574458D01*
X133973080Y-89553388D01*
X133965228Y-89531444D01*
X133959564Y-89508835D01*
X133956145Y-89485780D01*
X133955001Y-89462501D01*
X133955001Y-88987501D01*
X133956145Y-88964222D01*
X133959564Y-88941167D01*
X133965228Y-88918558D01*
X133973080Y-88896614D01*
X133983045Y-88875544D01*
X133995027Y-88855553D01*
X134008911Y-88836833D01*
X134024563Y-88819563D01*
X134041833Y-88803911D01*
X134060553Y-88790027D01*
X134080544Y-88778045D01*
X134101614Y-88768080D01*
X134123558Y-88760228D01*
X134146167Y-88754564D01*
X134169222Y-88751145D01*
X134192501Y-88750001D01*
X134767501Y-88750001D01*
X134790780Y-88751145D01*
X134790780Y-88751145D01*
G37*
D13*
G04 #@! TD*
G04 #@! TO.P,C13,2*
G04 #@! TO.N,BAT-*
X134480001Y-89225001D03*
D12*
G04 #@! TO.N,VDD*
G04 #@! TO.C,C13*
G36*
X133040780Y-88751145D02*
X133063835Y-88754564D01*
X133086444Y-88760228D01*
X133108388Y-88768080D01*
X133129458Y-88778045D01*
X133149449Y-88790027D01*
X133168169Y-88803911D01*
X133185439Y-88819563D01*
X133201091Y-88836833D01*
X133214975Y-88855553D01*
X133226957Y-88875544D01*
X133236922Y-88896614D01*
X133244774Y-88918558D01*
X133250438Y-88941167D01*
X133253857Y-88964222D01*
X133255001Y-88987501D01*
X133255001Y-89462501D01*
X133253857Y-89485780D01*
X133250438Y-89508835D01*
X133244774Y-89531444D01*
X133236922Y-89553388D01*
X133226957Y-89574458D01*
X133214975Y-89594449D01*
X133201091Y-89613169D01*
X133185439Y-89630439D01*
X133168169Y-89646091D01*
X133149449Y-89659975D01*
X133129458Y-89671957D01*
X133108388Y-89681922D01*
X133086444Y-89689774D01*
X133063835Y-89695438D01*
X133040780Y-89698857D01*
X133017501Y-89700001D01*
X132442501Y-89700001D01*
X132419222Y-89698857D01*
X132396167Y-89695438D01*
X132373558Y-89689774D01*
X132351614Y-89681922D01*
X132330544Y-89671957D01*
X132310553Y-89659975D01*
X132291833Y-89646091D01*
X132274563Y-89630439D01*
X132258911Y-89613169D01*
X132245027Y-89594449D01*
X132233045Y-89574458D01*
X132223080Y-89553388D01*
X132215228Y-89531444D01*
X132209564Y-89508835D01*
X132206145Y-89485780D01*
X132205001Y-89462501D01*
X132205001Y-88987501D01*
X132206145Y-88964222D01*
X132209564Y-88941167D01*
X132215228Y-88918558D01*
X132223080Y-88896614D01*
X132233045Y-88875544D01*
X132245027Y-88855553D01*
X132258911Y-88836833D01*
X132274563Y-88819563D01*
X132291833Y-88803911D01*
X132310553Y-88790027D01*
X132330544Y-88778045D01*
X132351614Y-88768080D01*
X132373558Y-88760228D01*
X132396167Y-88754564D01*
X132419222Y-88751145D01*
X132442501Y-88750001D01*
X133017501Y-88750001D01*
X133040780Y-88751145D01*
X133040780Y-88751145D01*
G37*
D13*
G04 #@! TD*
G04 #@! TO.P,C13,1*
G04 #@! TO.N,VDD*
X132730001Y-89225001D03*
D12*
G04 #@! TO.N,BAT-*
G04 #@! TO.C,C14*
G36*
X138140780Y-88751145D02*
X138163835Y-88754564D01*
X138186444Y-88760228D01*
X138208388Y-88768080D01*
X138229458Y-88778045D01*
X138249449Y-88790027D01*
X138268169Y-88803911D01*
X138285439Y-88819563D01*
X138301091Y-88836833D01*
X138314975Y-88855553D01*
X138326957Y-88875544D01*
X138336922Y-88896614D01*
X138344774Y-88918558D01*
X138350438Y-88941167D01*
X138353857Y-88964222D01*
X138355001Y-88987501D01*
X138355001Y-89462501D01*
X138353857Y-89485780D01*
X138350438Y-89508835D01*
X138344774Y-89531444D01*
X138336922Y-89553388D01*
X138326957Y-89574458D01*
X138314975Y-89594449D01*
X138301091Y-89613169D01*
X138285439Y-89630439D01*
X138268169Y-89646091D01*
X138249449Y-89659975D01*
X138229458Y-89671957D01*
X138208388Y-89681922D01*
X138186444Y-89689774D01*
X138163835Y-89695438D01*
X138140780Y-89698857D01*
X138117501Y-89700001D01*
X137542501Y-89700001D01*
X137519222Y-89698857D01*
X137496167Y-89695438D01*
X137473558Y-89689774D01*
X137451614Y-89681922D01*
X137430544Y-89671957D01*
X137410553Y-89659975D01*
X137391833Y-89646091D01*
X137374563Y-89630439D01*
X137358911Y-89613169D01*
X137345027Y-89594449D01*
X137333045Y-89574458D01*
X137323080Y-89553388D01*
X137315228Y-89531444D01*
X137309564Y-89508835D01*
X137306145Y-89485780D01*
X137305001Y-89462501D01*
X137305001Y-88987501D01*
X137306145Y-88964222D01*
X137309564Y-88941167D01*
X137315228Y-88918558D01*
X137323080Y-88896614D01*
X137333045Y-88875544D01*
X137345027Y-88855553D01*
X137358911Y-88836833D01*
X137374563Y-88819563D01*
X137391833Y-88803911D01*
X137410553Y-88790027D01*
X137430544Y-88778045D01*
X137451614Y-88768080D01*
X137473558Y-88760228D01*
X137496167Y-88754564D01*
X137519222Y-88751145D01*
X137542501Y-88750001D01*
X138117501Y-88750001D01*
X138140780Y-88751145D01*
X138140780Y-88751145D01*
G37*
D13*
G04 #@! TD*
G04 #@! TO.P,C14,2*
G04 #@! TO.N,BAT-*
X137830001Y-89225001D03*
D12*
G04 #@! TO.N,Net-(C14-Pad1)*
G04 #@! TO.C,C14*
G36*
X136390780Y-88751145D02*
X136413835Y-88754564D01*
X136436444Y-88760228D01*
X136458388Y-88768080D01*
X136479458Y-88778045D01*
X136499449Y-88790027D01*
X136518169Y-88803911D01*
X136535439Y-88819563D01*
X136551091Y-88836833D01*
X136564975Y-88855553D01*
X136576957Y-88875544D01*
X136586922Y-88896614D01*
X136594774Y-88918558D01*
X136600438Y-88941167D01*
X136603857Y-88964222D01*
X136605001Y-88987501D01*
X136605001Y-89462501D01*
X136603857Y-89485780D01*
X136600438Y-89508835D01*
X136594774Y-89531444D01*
X136586922Y-89553388D01*
X136576957Y-89574458D01*
X136564975Y-89594449D01*
X136551091Y-89613169D01*
X136535439Y-89630439D01*
X136518169Y-89646091D01*
X136499449Y-89659975D01*
X136479458Y-89671957D01*
X136458388Y-89681922D01*
X136436444Y-89689774D01*
X136413835Y-89695438D01*
X136390780Y-89698857D01*
X136367501Y-89700001D01*
X135792501Y-89700001D01*
X135769222Y-89698857D01*
X135746167Y-89695438D01*
X135723558Y-89689774D01*
X135701614Y-89681922D01*
X135680544Y-89671957D01*
X135660553Y-89659975D01*
X135641833Y-89646091D01*
X135624563Y-89630439D01*
X135608911Y-89613169D01*
X135595027Y-89594449D01*
X135583045Y-89574458D01*
X135573080Y-89553388D01*
X135565228Y-89531444D01*
X135559564Y-89508835D01*
X135556145Y-89485780D01*
X135555001Y-89462501D01*
X135555001Y-88987501D01*
X135556145Y-88964222D01*
X135559564Y-88941167D01*
X135565228Y-88918558D01*
X135573080Y-88896614D01*
X135583045Y-88875544D01*
X135595027Y-88855553D01*
X135608911Y-88836833D01*
X135624563Y-88819563D01*
X135641833Y-88803911D01*
X135660553Y-88790027D01*
X135680544Y-88778045D01*
X135701614Y-88768080D01*
X135723558Y-88760228D01*
X135746167Y-88754564D01*
X135769222Y-88751145D01*
X135792501Y-88750001D01*
X136367501Y-88750001D01*
X136390780Y-88751145D01*
X136390780Y-88751145D01*
G37*
D13*
G04 #@! TD*
G04 #@! TO.P,C14,1*
G04 #@! TO.N,Net-(C14-Pad1)*
X136080001Y-89225001D03*
D12*
G04 #@! TO.N,Net-(C1-Pad1)*
G04 #@! TO.C,D1*
G36*
X160825780Y-74681145D02*
X160848835Y-74684564D01*
X160871444Y-74690228D01*
X160893388Y-74698080D01*
X160914458Y-74708045D01*
X160934449Y-74720027D01*
X160953169Y-74733911D01*
X160970439Y-74749563D01*
X160986091Y-74766833D01*
X160999975Y-74785553D01*
X161011957Y-74805544D01*
X161021922Y-74826614D01*
X161029774Y-74848558D01*
X161035438Y-74871167D01*
X161038857Y-74894222D01*
X161040001Y-74917501D01*
X161040001Y-75392501D01*
X161038857Y-75415780D01*
X161035438Y-75438835D01*
X161029774Y-75461444D01*
X161021922Y-75483388D01*
X161011957Y-75504458D01*
X160999975Y-75524449D01*
X160986091Y-75543169D01*
X160970439Y-75560439D01*
X160953169Y-75576091D01*
X160934449Y-75589975D01*
X160914458Y-75601957D01*
X160893388Y-75611922D01*
X160871444Y-75619774D01*
X160848835Y-75625438D01*
X160825780Y-75628857D01*
X160802501Y-75630001D01*
X160227501Y-75630001D01*
X160204222Y-75628857D01*
X160181167Y-75625438D01*
X160158558Y-75619774D01*
X160136614Y-75611922D01*
X160115544Y-75601957D01*
X160095553Y-75589975D01*
X160076833Y-75576091D01*
X160059563Y-75560439D01*
X160043911Y-75543169D01*
X160030027Y-75524449D01*
X160018045Y-75504458D01*
X160008080Y-75483388D01*
X160000228Y-75461444D01*
X159994564Y-75438835D01*
X159991145Y-75415780D01*
X159990001Y-75392501D01*
X159990001Y-74917501D01*
X159991145Y-74894222D01*
X159994564Y-74871167D01*
X160000228Y-74848558D01*
X160008080Y-74826614D01*
X160018045Y-74805544D01*
X160030027Y-74785553D01*
X160043911Y-74766833D01*
X160059563Y-74749563D01*
X160076833Y-74733911D01*
X160095553Y-74720027D01*
X160115544Y-74708045D01*
X160136614Y-74698080D01*
X160158558Y-74690228D01*
X160181167Y-74684564D01*
X160204222Y-74681145D01*
X160227501Y-74680001D01*
X160802501Y-74680001D01*
X160825780Y-74681145D01*
X160825780Y-74681145D01*
G37*
D13*
G04 #@! TD*
G04 #@! TO.P,D1,2*
G04 #@! TO.N,Net-(C1-Pad1)*
X160515001Y-75155001D03*
D12*
G04 #@! TO.N,Net-(D1-Pad1)*
G04 #@! TO.C,D1*
G36*
X159075780Y-74681145D02*
X159098835Y-74684564D01*
X159121444Y-74690228D01*
X159143388Y-74698080D01*
X159164458Y-74708045D01*
X159184449Y-74720027D01*
X159203169Y-74733911D01*
X159220439Y-74749563D01*
X159236091Y-74766833D01*
X159249975Y-74785553D01*
X159261957Y-74805544D01*
X159271922Y-74826614D01*
X159279774Y-74848558D01*
X159285438Y-74871167D01*
X159288857Y-74894222D01*
X159290001Y-74917501D01*
X159290001Y-75392501D01*
X159288857Y-75415780D01*
X159285438Y-75438835D01*
X159279774Y-75461444D01*
X159271922Y-75483388D01*
X159261957Y-75504458D01*
X159249975Y-75524449D01*
X159236091Y-75543169D01*
X159220439Y-75560439D01*
X159203169Y-75576091D01*
X159184449Y-75589975D01*
X159164458Y-75601957D01*
X159143388Y-75611922D01*
X159121444Y-75619774D01*
X159098835Y-75625438D01*
X159075780Y-75628857D01*
X159052501Y-75630001D01*
X158477501Y-75630001D01*
X158454222Y-75628857D01*
X158431167Y-75625438D01*
X158408558Y-75619774D01*
X158386614Y-75611922D01*
X158365544Y-75601957D01*
X158345553Y-75589975D01*
X158326833Y-75576091D01*
X158309563Y-75560439D01*
X158293911Y-75543169D01*
X158280027Y-75524449D01*
X158268045Y-75504458D01*
X158258080Y-75483388D01*
X158250228Y-75461444D01*
X158244564Y-75438835D01*
X158241145Y-75415780D01*
X158240001Y-75392501D01*
X158240001Y-74917501D01*
X158241145Y-74894222D01*
X158244564Y-74871167D01*
X158250228Y-74848558D01*
X158258080Y-74826614D01*
X158268045Y-74805544D01*
X158280027Y-74785553D01*
X158293911Y-74766833D01*
X158309563Y-74749563D01*
X158326833Y-74733911D01*
X158345553Y-74720027D01*
X158365544Y-74708045D01*
X158386614Y-74698080D01*
X158408558Y-74690228D01*
X158431167Y-74684564D01*
X158454222Y-74681145D01*
X158477501Y-74680001D01*
X159052501Y-74680001D01*
X159075780Y-74681145D01*
X159075780Y-74681145D01*
G37*
D13*
G04 #@! TD*
G04 #@! TO.P,D1,1*
G04 #@! TO.N,Net-(D1-Pad1)*
X158765001Y-75155001D03*
D14*
G04 #@! TO.P,D2,1*
G04 #@! TO.N,Net-(C1-Pad1)*
X127655001Y-120335001D03*
G04 #@! TO.P,D2,2*
G04 #@! TO.N,BAT-*
X133155001Y-120335001D03*
G04 #@! TD*
D12*
G04 #@! TO.N,Net-(D3-Pad1)*
G04 #@! TO.C,D3*
G36*
X126885780Y-121781145D02*
X126908835Y-121784564D01*
X126931444Y-121790228D01*
X126953388Y-121798080D01*
X126974458Y-121808045D01*
X126994449Y-121820027D01*
X127013169Y-121833911D01*
X127030439Y-121849563D01*
X127046091Y-121866833D01*
X127059975Y-121885553D01*
X127071957Y-121905544D01*
X127081922Y-121926614D01*
X127089774Y-121948558D01*
X127095438Y-121971167D01*
X127098857Y-121994222D01*
X127100001Y-122017501D01*
X127100001Y-122492501D01*
X127098857Y-122515780D01*
X127095438Y-122538835D01*
X127089774Y-122561444D01*
X127081922Y-122583388D01*
X127071957Y-122604458D01*
X127059975Y-122624449D01*
X127046091Y-122643169D01*
X127030439Y-122660439D01*
X127013169Y-122676091D01*
X126994449Y-122689975D01*
X126974458Y-122701957D01*
X126953388Y-122711922D01*
X126931444Y-122719774D01*
X126908835Y-122725438D01*
X126885780Y-122728857D01*
X126862501Y-122730001D01*
X126287501Y-122730001D01*
X126264222Y-122728857D01*
X126241167Y-122725438D01*
X126218558Y-122719774D01*
X126196614Y-122711922D01*
X126175544Y-122701957D01*
X126155553Y-122689975D01*
X126136833Y-122676091D01*
X126119563Y-122660439D01*
X126103911Y-122643169D01*
X126090027Y-122624449D01*
X126078045Y-122604458D01*
X126068080Y-122583388D01*
X126060228Y-122561444D01*
X126054564Y-122538835D01*
X126051145Y-122515780D01*
X126050001Y-122492501D01*
X126050001Y-122017501D01*
X126051145Y-121994222D01*
X126054564Y-121971167D01*
X126060228Y-121948558D01*
X126068080Y-121926614D01*
X126078045Y-121905544D01*
X126090027Y-121885553D01*
X126103911Y-121866833D01*
X126119563Y-121849563D01*
X126136833Y-121833911D01*
X126155553Y-121820027D01*
X126175544Y-121808045D01*
X126196614Y-121798080D01*
X126218558Y-121790228D01*
X126241167Y-121784564D01*
X126264222Y-121781145D01*
X126287501Y-121780001D01*
X126862501Y-121780001D01*
X126885780Y-121781145D01*
X126885780Y-121781145D01*
G37*
D13*
G04 #@! TD*
G04 #@! TO.P,D3,1*
G04 #@! TO.N,Net-(D3-Pad1)*
X126575001Y-122255001D03*
D12*
G04 #@! TO.N,Net-(C1-Pad1)*
G04 #@! TO.C,D3*
G36*
X128635780Y-121781145D02*
X128658835Y-121784564D01*
X128681444Y-121790228D01*
X128703388Y-121798080D01*
X128724458Y-121808045D01*
X128744449Y-121820027D01*
X128763169Y-121833911D01*
X128780439Y-121849563D01*
X128796091Y-121866833D01*
X128809975Y-121885553D01*
X128821957Y-121905544D01*
X128831922Y-121926614D01*
X128839774Y-121948558D01*
X128845438Y-121971167D01*
X128848857Y-121994222D01*
X128850001Y-122017501D01*
X128850001Y-122492501D01*
X128848857Y-122515780D01*
X128845438Y-122538835D01*
X128839774Y-122561444D01*
X128831922Y-122583388D01*
X128821957Y-122604458D01*
X128809975Y-122624449D01*
X128796091Y-122643169D01*
X128780439Y-122660439D01*
X128763169Y-122676091D01*
X128744449Y-122689975D01*
X128724458Y-122701957D01*
X128703388Y-122711922D01*
X128681444Y-122719774D01*
X128658835Y-122725438D01*
X128635780Y-122728857D01*
X128612501Y-122730001D01*
X128037501Y-122730001D01*
X128014222Y-122728857D01*
X127991167Y-122725438D01*
X127968558Y-122719774D01*
X127946614Y-122711922D01*
X127925544Y-122701957D01*
X127905553Y-122689975D01*
X127886833Y-122676091D01*
X127869563Y-122660439D01*
X127853911Y-122643169D01*
X127840027Y-122624449D01*
X127828045Y-122604458D01*
X127818080Y-122583388D01*
X127810228Y-122561444D01*
X127804564Y-122538835D01*
X127801145Y-122515780D01*
X127800001Y-122492501D01*
X127800001Y-122017501D01*
X127801145Y-121994222D01*
X127804564Y-121971167D01*
X127810228Y-121948558D01*
X127818080Y-121926614D01*
X127828045Y-121905544D01*
X127840027Y-121885553D01*
X127853911Y-121866833D01*
X127869563Y-121849563D01*
X127886833Y-121833911D01*
X127905553Y-121820027D01*
X127925544Y-121808045D01*
X127946614Y-121798080D01*
X127968558Y-121790228D01*
X127991167Y-121784564D01*
X128014222Y-121781145D01*
X128037501Y-121780001D01*
X128612501Y-121780001D01*
X128635780Y-121781145D01*
X128635780Y-121781145D01*
G37*
D13*
G04 #@! TD*
G04 #@! TO.P,D3,2*
G04 #@! TO.N,Net-(C1-Pad1)*
X128325001Y-122255001D03*
D15*
G04 #@! TO.P,D4,1*
G04 #@! TO.N,VDD*
X146150001Y-75135001D03*
G04 #@! TO.P,D4,2*
G04 #@! TO.N,Net-(C12-Pad1)*
X146150001Y-79135001D03*
G04 #@! TO.P,D4,3*
G04 #@! TO.N,N/C*
X152100001Y-79135001D03*
G04 #@! TO.P,D4,4*
X152100001Y-75135001D03*
G04 #@! TD*
D16*
G04 #@! TO.P,J1,1*
G04 #@! TO.N,USB_VBUS*
X172255001Y-68575001D03*
G04 #@! TO.P,J1,2*
G04 #@! TO.N,Net-(J1-Pad2)*
X172905001Y-68575001D03*
G04 #@! TO.P,J1,3*
G04 #@! TO.N,Net-(J1-Pad3)*
X173555001Y-68575001D03*
G04 #@! TO.P,J1,4*
G04 #@! TO.N,Net-(J1-Pad4)*
X174205001Y-68575001D03*
G04 #@! TO.P,J1,5*
G04 #@! TO.N,BAT-*
X174855001Y-68575001D03*
D17*
G04 #@! TO.P,J1,6*
G04 #@! TO.N,Net-(J1-Pad6)*
X171092501Y-68935001D03*
X176017501Y-68935001D03*
D18*
X170645001Y-71235001D03*
X176465001Y-71235001D03*
D19*
X172715001Y-71235001D03*
X174395001Y-71235001D03*
G04 #@! TD*
D10*
G04 #@! TO.P,J2,1*
G04 #@! TO.N,VDD*
X127555001Y-69135001D03*
D11*
G04 #@! TO.P,J2,2*
G04 #@! TO.N,BAT-*
X130095001Y-69135001D03*
G04 #@! TO.P,J2,3*
G04 #@! TO.N,IC_RE0*
X127555001Y-71675001D03*
G04 #@! TO.P,J2,4*
G04 #@! TO.N,IC_RE1*
X130095001Y-71675001D03*
G04 #@! TO.P,J2,5*
G04 #@! TO.N,IC_RE2*
X127555001Y-74215001D03*
G04 #@! TO.P,J2,6*
G04 #@! TO.N,IC_RD0*
X130095001Y-74215001D03*
G04 #@! TO.P,J2,7*
G04 #@! TO.N,IC_RD1*
X127555001Y-76755001D03*
G04 #@! TO.P,J2,8*
G04 #@! TO.N,IC_RD2*
X130095001Y-76755001D03*
G04 #@! TO.P,J2,9*
G04 #@! TO.N,IC_RD3*
X127555001Y-79295001D03*
G04 #@! TO.P,J2,10*
G04 #@! TO.N,IC_RD4*
X130095001Y-79295001D03*
G04 #@! TO.P,J2,11*
G04 #@! TO.N,IC_RD5*
X127555001Y-81835001D03*
G04 #@! TO.P,J2,12*
G04 #@! TO.N,IC_RD6*
X130095001Y-81835001D03*
G04 #@! TO.P,J2,13*
G04 #@! TO.N,IC_RD7*
X127555001Y-84375001D03*
G04 #@! TO.P,J2,14*
G04 #@! TO.N,IC_RC0*
X130095001Y-84375001D03*
G04 #@! TO.P,J2,15*
G04 #@! TO.N,IC_RC1*
X127555001Y-86915001D03*
G04 #@! TO.P,J2,16*
G04 #@! TO.N,IC_RC2*
X130095001Y-86915001D03*
G04 #@! TO.P,J2,17*
G04 #@! TO.N,IC_RC6*
X127555001Y-89455001D03*
G04 #@! TO.P,J2,18*
G04 #@! TO.N,IC_RC7*
X130095001Y-89455001D03*
G04 #@! TO.P,J2,19*
G04 #@! TO.N,IC_OSC1*
X127555001Y-91995001D03*
G04 #@! TO.P,J2,20*
G04 #@! TO.N,IC_OSC2*
X130095001Y-91995001D03*
G04 #@! TO.P,J2,21*
G04 #@! TO.N,USB_D+*
X127555001Y-94535001D03*
G04 #@! TO.P,J2,22*
G04 #@! TO.N,USB_D-*
X130095001Y-94535001D03*
G04 #@! TO.P,J2,23*
G04 #@! TO.N,USB_VBUS*
X127555001Y-97075001D03*
G04 #@! TO.P,J2,24*
G04 #@! TO.N,IC_ICVPP*
X130095001Y-97075001D03*
G04 #@! TO.P,J2,25*
G04 #@! TO.N,IC_ICPGD*
X127555001Y-99615001D03*
G04 #@! TO.P,J2,26*
G04 #@! TO.N,IC_ICPGC*
X130095001Y-99615001D03*
G04 #@! TO.P,J2,27*
G04 #@! TO.N,IC_RB7*
X127555001Y-102155001D03*
G04 #@! TO.P,J2,28*
G04 #@! TO.N,IC_RB6*
X130095001Y-102155001D03*
G04 #@! TO.P,J2,29*
G04 #@! TO.N,IC_RB5*
X127555001Y-104695001D03*
G04 #@! TO.P,J2,30*
G04 #@! TO.N,IC_RB4*
X130095001Y-104695001D03*
G04 #@! TO.P,J2,31*
G04 #@! TO.N,IC_RB3*
X127555001Y-107235001D03*
G04 #@! TO.P,J2,32*
G04 #@! TO.N,IC_RB2*
X130095001Y-107235001D03*
G04 #@! TO.P,J2,33*
G04 #@! TO.N,IC_RB1*
X127555001Y-109775001D03*
G04 #@! TO.P,J2,34*
G04 #@! TO.N,IC_RB0*
X130095001Y-109775001D03*
G04 #@! TO.P,J2,35*
G04 #@! TO.N,IC_RA5*
X127555001Y-112315001D03*
G04 #@! TO.P,J2,36*
G04 #@! TO.N,IC_RA4*
X130095001Y-112315001D03*
G04 #@! TO.P,J2,37*
G04 #@! TO.N,IC_RA3*
X127555001Y-114855001D03*
G04 #@! TO.P,J2,38*
G04 #@! TO.N,IC_RA2*
X130095001Y-114855001D03*
G04 #@! TO.P,J2,39*
G04 #@! TO.N,IC_RA1*
X127555001Y-117395001D03*
G04 #@! TO.P,J2,40*
G04 #@! TO.N,IC_RA0*
X130095001Y-117395001D03*
G04 #@! TD*
D10*
G04 #@! TO.P,JP1,1*
G04 #@! TO.N,Net-(JP1-Pad1)*
X133755001Y-82585001D03*
D11*
G04 #@! TO.P,JP1,2*
G04 #@! TO.N,Net-(C14-Pad1)*
X133755001Y-85125001D03*
G04 #@! TD*
D20*
G04 #@! TO.P,Q1,1*
G04 #@! TO.N,BAT-*
X142825001Y-81535001D03*
G04 #@! TO.P,Q1,2*
G04 #@! TO.N,Net-(Q1-Pad2)*
X142825001Y-82485001D03*
G04 #@! TO.P,Q1,3*
G04 #@! TO.N,Net-(Q1-Pad3)*
X142825001Y-83435001D03*
G04 #@! TO.P,Q1,4*
G04 #@! TO.N,BP_OC*
X146245001Y-83435001D03*
G04 #@! TO.P,Q1,5*
G04 #@! TO.N,Net-(Q1-Pad5)*
X146245001Y-82485001D03*
G04 #@! TO.P,Q1,6*
G04 #@! TO.N,BP_OD*
X146245001Y-81535001D03*
G04 #@! TD*
D12*
G04 #@! TO.N,Net-(C1-Pad1)*
G04 #@! TO.C,R1*
G36*
X143390780Y-84491145D02*
X143413835Y-84494564D01*
X143436444Y-84500228D01*
X143458388Y-84508080D01*
X143479458Y-84518045D01*
X143499449Y-84530027D01*
X143518169Y-84543911D01*
X143535439Y-84559563D01*
X143551091Y-84576833D01*
X143564975Y-84595553D01*
X143576957Y-84615544D01*
X143586922Y-84636614D01*
X143594774Y-84658558D01*
X143600438Y-84681167D01*
X143603857Y-84704222D01*
X143605001Y-84727501D01*
X143605001Y-85202501D01*
X143603857Y-85225780D01*
X143600438Y-85248835D01*
X143594774Y-85271444D01*
X143586922Y-85293388D01*
X143576957Y-85314458D01*
X143564975Y-85334449D01*
X143551091Y-85353169D01*
X143535439Y-85370439D01*
X143518169Y-85386091D01*
X143499449Y-85399975D01*
X143479458Y-85411957D01*
X143458388Y-85421922D01*
X143436444Y-85429774D01*
X143413835Y-85435438D01*
X143390780Y-85438857D01*
X143367501Y-85440001D01*
X142792501Y-85440001D01*
X142769222Y-85438857D01*
X142746167Y-85435438D01*
X142723558Y-85429774D01*
X142701614Y-85421922D01*
X142680544Y-85411957D01*
X142660553Y-85399975D01*
X142641833Y-85386091D01*
X142624563Y-85370439D01*
X142608911Y-85353169D01*
X142595027Y-85334449D01*
X142583045Y-85314458D01*
X142573080Y-85293388D01*
X142565228Y-85271444D01*
X142559564Y-85248835D01*
X142556145Y-85225780D01*
X142555001Y-85202501D01*
X142555001Y-84727501D01*
X142556145Y-84704222D01*
X142559564Y-84681167D01*
X142565228Y-84658558D01*
X142573080Y-84636614D01*
X142583045Y-84615544D01*
X142595027Y-84595553D01*
X142608911Y-84576833D01*
X142624563Y-84559563D01*
X142641833Y-84543911D01*
X142660553Y-84530027D01*
X142680544Y-84518045D01*
X142701614Y-84508080D01*
X142723558Y-84500228D01*
X142746167Y-84494564D01*
X142769222Y-84491145D01*
X142792501Y-84490001D01*
X143367501Y-84490001D01*
X143390780Y-84491145D01*
X143390780Y-84491145D01*
G37*
D13*
G04 #@! TD*
G04 #@! TO.P,R1,1*
G04 #@! TO.N,Net-(C1-Pad1)*
X143080001Y-84965001D03*
D12*
G04 #@! TO.N,USB_VBUS*
G04 #@! TO.C,R1*
G36*
X145140780Y-84491145D02*
X145163835Y-84494564D01*
X145186444Y-84500228D01*
X145208388Y-84508080D01*
X145229458Y-84518045D01*
X145249449Y-84530027D01*
X145268169Y-84543911D01*
X145285439Y-84559563D01*
X145301091Y-84576833D01*
X145314975Y-84595553D01*
X145326957Y-84615544D01*
X145336922Y-84636614D01*
X145344774Y-84658558D01*
X145350438Y-84681167D01*
X145353857Y-84704222D01*
X145355001Y-84727501D01*
X145355001Y-85202501D01*
X145353857Y-85225780D01*
X145350438Y-85248835D01*
X145344774Y-85271444D01*
X145336922Y-85293388D01*
X145326957Y-85314458D01*
X145314975Y-85334449D01*
X145301091Y-85353169D01*
X145285439Y-85370439D01*
X145268169Y-85386091D01*
X145249449Y-85399975D01*
X145229458Y-85411957D01*
X145208388Y-85421922D01*
X145186444Y-85429774D01*
X145163835Y-85435438D01*
X145140780Y-85438857D01*
X145117501Y-85440001D01*
X144542501Y-85440001D01*
X144519222Y-85438857D01*
X144496167Y-85435438D01*
X144473558Y-85429774D01*
X144451614Y-85421922D01*
X144430544Y-85411957D01*
X144410553Y-85399975D01*
X144391833Y-85386091D01*
X144374563Y-85370439D01*
X144358911Y-85353169D01*
X144345027Y-85334449D01*
X144333045Y-85314458D01*
X144323080Y-85293388D01*
X144315228Y-85271444D01*
X144309564Y-85248835D01*
X144306145Y-85225780D01*
X144305001Y-85202501D01*
X144305001Y-84727501D01*
X144306145Y-84704222D01*
X144309564Y-84681167D01*
X144315228Y-84658558D01*
X144323080Y-84636614D01*
X144333045Y-84615544D01*
X144345027Y-84595553D01*
X144358911Y-84576833D01*
X144374563Y-84559563D01*
X144391833Y-84543911D01*
X144410553Y-84530027D01*
X144430544Y-84518045D01*
X144451614Y-84508080D01*
X144473558Y-84500228D01*
X144496167Y-84494564D01*
X144519222Y-84491145D01*
X144542501Y-84490001D01*
X145117501Y-84490001D01*
X145140780Y-84491145D01*
X145140780Y-84491145D01*
G37*
D13*
G04 #@! TD*
G04 #@! TO.P,R1,2*
G04 #@! TO.N,USB_VBUS*
X144830001Y-84965001D03*
D12*
G04 #@! TO.N,Net-(R2-Pad1)*
G04 #@! TO.C,R2*
G36*
X179290780Y-67591145D02*
X179313835Y-67594564D01*
X179336444Y-67600228D01*
X179358388Y-67608080D01*
X179379458Y-67618045D01*
X179399449Y-67630027D01*
X179418169Y-67643911D01*
X179435439Y-67659563D01*
X179451091Y-67676833D01*
X179464975Y-67695553D01*
X179476957Y-67715544D01*
X179486922Y-67736614D01*
X179494774Y-67758558D01*
X179500438Y-67781167D01*
X179503857Y-67804222D01*
X179505001Y-67827501D01*
X179505001Y-68302501D01*
X179503857Y-68325780D01*
X179500438Y-68348835D01*
X179494774Y-68371444D01*
X179486922Y-68393388D01*
X179476957Y-68414458D01*
X179464975Y-68434449D01*
X179451091Y-68453169D01*
X179435439Y-68470439D01*
X179418169Y-68486091D01*
X179399449Y-68499975D01*
X179379458Y-68511957D01*
X179358388Y-68521922D01*
X179336444Y-68529774D01*
X179313835Y-68535438D01*
X179290780Y-68538857D01*
X179267501Y-68540001D01*
X178692501Y-68540001D01*
X178669222Y-68538857D01*
X178646167Y-68535438D01*
X178623558Y-68529774D01*
X178601614Y-68521922D01*
X178580544Y-68511957D01*
X178560553Y-68499975D01*
X178541833Y-68486091D01*
X178524563Y-68470439D01*
X178508911Y-68453169D01*
X178495027Y-68434449D01*
X178483045Y-68414458D01*
X178473080Y-68393388D01*
X178465228Y-68371444D01*
X178459564Y-68348835D01*
X178456145Y-68325780D01*
X178455001Y-68302501D01*
X178455001Y-67827501D01*
X178456145Y-67804222D01*
X178459564Y-67781167D01*
X178465228Y-67758558D01*
X178473080Y-67736614D01*
X178483045Y-67715544D01*
X178495027Y-67695553D01*
X178508911Y-67676833D01*
X178524563Y-67659563D01*
X178541833Y-67643911D01*
X178560553Y-67630027D01*
X178580544Y-67618045D01*
X178601614Y-67608080D01*
X178623558Y-67600228D01*
X178646167Y-67594564D01*
X178669222Y-67591145D01*
X178692501Y-67590001D01*
X179267501Y-67590001D01*
X179290780Y-67591145D01*
X179290780Y-67591145D01*
G37*
D13*
G04 #@! TD*
G04 #@! TO.P,R2,1*
G04 #@! TO.N,Net-(R2-Pad1)*
X178980001Y-68065001D03*
D12*
G04 #@! TO.N,Net-(D3-Pad1)*
G04 #@! TO.C,R2*
G36*
X181040780Y-67591145D02*
X181063835Y-67594564D01*
X181086444Y-67600228D01*
X181108388Y-67608080D01*
X181129458Y-67618045D01*
X181149449Y-67630027D01*
X181168169Y-67643911D01*
X181185439Y-67659563D01*
X181201091Y-67676833D01*
X181214975Y-67695553D01*
X181226957Y-67715544D01*
X181236922Y-67736614D01*
X181244774Y-67758558D01*
X181250438Y-67781167D01*
X181253857Y-67804222D01*
X181255001Y-67827501D01*
X181255001Y-68302501D01*
X181253857Y-68325780D01*
X181250438Y-68348835D01*
X181244774Y-68371444D01*
X181236922Y-68393388D01*
X181226957Y-68414458D01*
X181214975Y-68434449D01*
X181201091Y-68453169D01*
X181185439Y-68470439D01*
X181168169Y-68486091D01*
X181149449Y-68499975D01*
X181129458Y-68511957D01*
X181108388Y-68521922D01*
X181086444Y-68529774D01*
X181063835Y-68535438D01*
X181040780Y-68538857D01*
X181017501Y-68540001D01*
X180442501Y-68540001D01*
X180419222Y-68538857D01*
X180396167Y-68535438D01*
X180373558Y-68529774D01*
X180351614Y-68521922D01*
X180330544Y-68511957D01*
X180310553Y-68499975D01*
X180291833Y-68486091D01*
X180274563Y-68470439D01*
X180258911Y-68453169D01*
X180245027Y-68434449D01*
X180233045Y-68414458D01*
X180223080Y-68393388D01*
X180215228Y-68371444D01*
X180209564Y-68348835D01*
X180206145Y-68325780D01*
X180205001Y-68302501D01*
X180205001Y-67827501D01*
X180206145Y-67804222D01*
X180209564Y-67781167D01*
X180215228Y-67758558D01*
X180223080Y-67736614D01*
X180233045Y-67715544D01*
X180245027Y-67695553D01*
X180258911Y-67676833D01*
X180274563Y-67659563D01*
X180291833Y-67643911D01*
X180310553Y-67630027D01*
X180330544Y-67618045D01*
X180351614Y-67608080D01*
X180373558Y-67600228D01*
X180396167Y-67594564D01*
X180419222Y-67591145D01*
X180442501Y-67590001D01*
X181017501Y-67590001D01*
X181040780Y-67591145D01*
X181040780Y-67591145D01*
G37*
D13*
G04 #@! TD*
G04 #@! TO.P,R2,2*
G04 #@! TO.N,Net-(D3-Pad1)*
X180730001Y-68065001D03*
D12*
G04 #@! TO.N,Net-(D1-Pad1)*
G04 #@! TO.C,R3*
G36*
X138140780Y-94791145D02*
X138163835Y-94794564D01*
X138186444Y-94800228D01*
X138208388Y-94808080D01*
X138229458Y-94818045D01*
X138249449Y-94830027D01*
X138268169Y-94843911D01*
X138285439Y-94859563D01*
X138301091Y-94876833D01*
X138314975Y-94895553D01*
X138326957Y-94915544D01*
X138336922Y-94936614D01*
X138344774Y-94958558D01*
X138350438Y-94981167D01*
X138353857Y-95004222D01*
X138355001Y-95027501D01*
X138355001Y-95502501D01*
X138353857Y-95525780D01*
X138350438Y-95548835D01*
X138344774Y-95571444D01*
X138336922Y-95593388D01*
X138326957Y-95614458D01*
X138314975Y-95634449D01*
X138301091Y-95653169D01*
X138285439Y-95670439D01*
X138268169Y-95686091D01*
X138249449Y-95699975D01*
X138229458Y-95711957D01*
X138208388Y-95721922D01*
X138186444Y-95729774D01*
X138163835Y-95735438D01*
X138140780Y-95738857D01*
X138117501Y-95740001D01*
X137542501Y-95740001D01*
X137519222Y-95738857D01*
X137496167Y-95735438D01*
X137473558Y-95729774D01*
X137451614Y-95721922D01*
X137430544Y-95711957D01*
X137410553Y-95699975D01*
X137391833Y-95686091D01*
X137374563Y-95670439D01*
X137358911Y-95653169D01*
X137345027Y-95634449D01*
X137333045Y-95614458D01*
X137323080Y-95593388D01*
X137315228Y-95571444D01*
X137309564Y-95548835D01*
X137306145Y-95525780D01*
X137305001Y-95502501D01*
X137305001Y-95027501D01*
X137306145Y-95004222D01*
X137309564Y-94981167D01*
X137315228Y-94958558D01*
X137323080Y-94936614D01*
X137333045Y-94915544D01*
X137345027Y-94895553D01*
X137358911Y-94876833D01*
X137374563Y-94859563D01*
X137391833Y-94843911D01*
X137410553Y-94830027D01*
X137430544Y-94818045D01*
X137451614Y-94808080D01*
X137473558Y-94800228D01*
X137496167Y-94794564D01*
X137519222Y-94791145D01*
X137542501Y-94790001D01*
X138117501Y-94790001D01*
X138140780Y-94791145D01*
X138140780Y-94791145D01*
G37*
D13*
G04 #@! TD*
G04 #@! TO.P,R3,2*
G04 #@! TO.N,Net-(D1-Pad1)*
X137830001Y-95265001D03*
D12*
G04 #@! TO.N,Net-(R3-Pad1)*
G04 #@! TO.C,R3*
G36*
X136390780Y-94791145D02*
X136413835Y-94794564D01*
X136436444Y-94800228D01*
X136458388Y-94808080D01*
X136479458Y-94818045D01*
X136499449Y-94830027D01*
X136518169Y-94843911D01*
X136535439Y-94859563D01*
X136551091Y-94876833D01*
X136564975Y-94895553D01*
X136576957Y-94915544D01*
X136586922Y-94936614D01*
X136594774Y-94958558D01*
X136600438Y-94981167D01*
X136603857Y-95004222D01*
X136605001Y-95027501D01*
X136605001Y-95502501D01*
X136603857Y-95525780D01*
X136600438Y-95548835D01*
X136594774Y-95571444D01*
X136586922Y-95593388D01*
X136576957Y-95614458D01*
X136564975Y-95634449D01*
X136551091Y-95653169D01*
X136535439Y-95670439D01*
X136518169Y-95686091D01*
X136499449Y-95699975D01*
X136479458Y-95711957D01*
X136458388Y-95721922D01*
X136436444Y-95729774D01*
X136413835Y-95735438D01*
X136390780Y-95738857D01*
X136367501Y-95740001D01*
X135792501Y-95740001D01*
X135769222Y-95738857D01*
X135746167Y-95735438D01*
X135723558Y-95729774D01*
X135701614Y-95721922D01*
X135680544Y-95711957D01*
X135660553Y-95699975D01*
X135641833Y-95686091D01*
X135624563Y-95670439D01*
X135608911Y-95653169D01*
X135595027Y-95634449D01*
X135583045Y-95614458D01*
X135573080Y-95593388D01*
X135565228Y-95571444D01*
X135559564Y-95548835D01*
X135556145Y-95525780D01*
X135555001Y-95502501D01*
X135555001Y-95027501D01*
X135556145Y-95004222D01*
X135559564Y-94981167D01*
X135565228Y-94958558D01*
X135573080Y-94936614D01*
X135583045Y-94915544D01*
X135595027Y-94895553D01*
X135608911Y-94876833D01*
X135624563Y-94859563D01*
X135641833Y-94843911D01*
X135660553Y-94830027D01*
X135680544Y-94818045D01*
X135701614Y-94808080D01*
X135723558Y-94800228D01*
X135746167Y-94794564D01*
X135769222Y-94791145D01*
X135792501Y-94790001D01*
X136367501Y-94790001D01*
X136390780Y-94791145D01*
X136390780Y-94791145D01*
G37*
D13*
G04 #@! TD*
G04 #@! TO.P,R3,1*
G04 #@! TO.N,Net-(R3-Pad1)*
X136080001Y-95265001D03*
D12*
G04 #@! TO.N,BAT+*
G04 #@! TO.C,R4*
G36*
X138140780Y-91771145D02*
X138163835Y-91774564D01*
X138186444Y-91780228D01*
X138208388Y-91788080D01*
X138229458Y-91798045D01*
X138249449Y-91810027D01*
X138268169Y-91823911D01*
X138285439Y-91839563D01*
X138301091Y-91856833D01*
X138314975Y-91875553D01*
X138326957Y-91895544D01*
X138336922Y-91916614D01*
X138344774Y-91938558D01*
X138350438Y-91961167D01*
X138353857Y-91984222D01*
X138355001Y-92007501D01*
X138355001Y-92482501D01*
X138353857Y-92505780D01*
X138350438Y-92528835D01*
X138344774Y-92551444D01*
X138336922Y-92573388D01*
X138326957Y-92594458D01*
X138314975Y-92614449D01*
X138301091Y-92633169D01*
X138285439Y-92650439D01*
X138268169Y-92666091D01*
X138249449Y-92679975D01*
X138229458Y-92691957D01*
X138208388Y-92701922D01*
X138186444Y-92709774D01*
X138163835Y-92715438D01*
X138140780Y-92718857D01*
X138117501Y-92720001D01*
X137542501Y-92720001D01*
X137519222Y-92718857D01*
X137496167Y-92715438D01*
X137473558Y-92709774D01*
X137451614Y-92701922D01*
X137430544Y-92691957D01*
X137410553Y-92679975D01*
X137391833Y-92666091D01*
X137374563Y-92650439D01*
X137358911Y-92633169D01*
X137345027Y-92614449D01*
X137333045Y-92594458D01*
X137323080Y-92573388D01*
X137315228Y-92551444D01*
X137309564Y-92528835D01*
X137306145Y-92505780D01*
X137305001Y-92482501D01*
X137305001Y-92007501D01*
X137306145Y-91984222D01*
X137309564Y-91961167D01*
X137315228Y-91938558D01*
X137323080Y-91916614D01*
X137333045Y-91895544D01*
X137345027Y-91875553D01*
X137358911Y-91856833D01*
X137374563Y-91839563D01*
X137391833Y-91823911D01*
X137410553Y-91810027D01*
X137430544Y-91798045D01*
X137451614Y-91788080D01*
X137473558Y-91780228D01*
X137496167Y-91774564D01*
X137519222Y-91771145D01*
X137542501Y-91770001D01*
X138117501Y-91770001D01*
X138140780Y-91771145D01*
X138140780Y-91771145D01*
G37*
D13*
G04 #@! TD*
G04 #@! TO.P,R4,2*
G04 #@! TO.N,BAT+*
X137830001Y-92245001D03*
D12*
G04 #@! TO.N,BP_VDD*
G04 #@! TO.C,R4*
G36*
X136390780Y-91771145D02*
X136413835Y-91774564D01*
X136436444Y-91780228D01*
X136458388Y-91788080D01*
X136479458Y-91798045D01*
X136499449Y-91810027D01*
X136518169Y-91823911D01*
X136535439Y-91839563D01*
X136551091Y-91856833D01*
X136564975Y-91875553D01*
X136576957Y-91895544D01*
X136586922Y-91916614D01*
X136594774Y-91938558D01*
X136600438Y-91961167D01*
X136603857Y-91984222D01*
X136605001Y-92007501D01*
X136605001Y-92482501D01*
X136603857Y-92505780D01*
X136600438Y-92528835D01*
X136594774Y-92551444D01*
X136586922Y-92573388D01*
X136576957Y-92594458D01*
X136564975Y-92614449D01*
X136551091Y-92633169D01*
X136535439Y-92650439D01*
X136518169Y-92666091D01*
X136499449Y-92679975D01*
X136479458Y-92691957D01*
X136458388Y-92701922D01*
X136436444Y-92709774D01*
X136413835Y-92715438D01*
X136390780Y-92718857D01*
X136367501Y-92720001D01*
X135792501Y-92720001D01*
X135769222Y-92718857D01*
X135746167Y-92715438D01*
X135723558Y-92709774D01*
X135701614Y-92701922D01*
X135680544Y-92691957D01*
X135660553Y-92679975D01*
X135641833Y-92666091D01*
X135624563Y-92650439D01*
X135608911Y-92633169D01*
X135595027Y-92614449D01*
X135583045Y-92594458D01*
X135573080Y-92573388D01*
X135565228Y-92551444D01*
X135559564Y-92528835D01*
X135556145Y-92505780D01*
X135555001Y-92482501D01*
X135555001Y-92007501D01*
X135556145Y-91984222D01*
X135559564Y-91961167D01*
X135565228Y-91938558D01*
X135573080Y-91916614D01*
X135583045Y-91895544D01*
X135595027Y-91875553D01*
X135608911Y-91856833D01*
X135624563Y-91839563D01*
X135641833Y-91823911D01*
X135660553Y-91810027D01*
X135680544Y-91798045D01*
X135701614Y-91788080D01*
X135723558Y-91780228D01*
X135746167Y-91774564D01*
X135769222Y-91771145D01*
X135792501Y-91770001D01*
X136367501Y-91770001D01*
X136390780Y-91771145D01*
X136390780Y-91771145D01*
G37*
D13*
G04 #@! TD*
G04 #@! TO.P,R4,1*
G04 #@! TO.N,BP_VDD*
X136080001Y-92245001D03*
D12*
G04 #@! TO.N,Net-(R5-Pad1)*
G04 #@! TO.C,R5*
G36*
X133040780Y-97811145D02*
X133063835Y-97814564D01*
X133086444Y-97820228D01*
X133108388Y-97828080D01*
X133129458Y-97838045D01*
X133149449Y-97850027D01*
X133168169Y-97863911D01*
X133185439Y-97879563D01*
X133201091Y-97896833D01*
X133214975Y-97915553D01*
X133226957Y-97935544D01*
X133236922Y-97956614D01*
X133244774Y-97978558D01*
X133250438Y-98001167D01*
X133253857Y-98024222D01*
X133255001Y-98047501D01*
X133255001Y-98522501D01*
X133253857Y-98545780D01*
X133250438Y-98568835D01*
X133244774Y-98591444D01*
X133236922Y-98613388D01*
X133226957Y-98634458D01*
X133214975Y-98654449D01*
X133201091Y-98673169D01*
X133185439Y-98690439D01*
X133168169Y-98706091D01*
X133149449Y-98719975D01*
X133129458Y-98731957D01*
X133108388Y-98741922D01*
X133086444Y-98749774D01*
X133063835Y-98755438D01*
X133040780Y-98758857D01*
X133017501Y-98760001D01*
X132442501Y-98760001D01*
X132419222Y-98758857D01*
X132396167Y-98755438D01*
X132373558Y-98749774D01*
X132351614Y-98741922D01*
X132330544Y-98731957D01*
X132310553Y-98719975D01*
X132291833Y-98706091D01*
X132274563Y-98690439D01*
X132258911Y-98673169D01*
X132245027Y-98654449D01*
X132233045Y-98634458D01*
X132223080Y-98613388D01*
X132215228Y-98591444D01*
X132209564Y-98568835D01*
X132206145Y-98545780D01*
X132205001Y-98522501D01*
X132205001Y-98047501D01*
X132206145Y-98024222D01*
X132209564Y-98001167D01*
X132215228Y-97978558D01*
X132223080Y-97956614D01*
X132233045Y-97935544D01*
X132245027Y-97915553D01*
X132258911Y-97896833D01*
X132274563Y-97879563D01*
X132291833Y-97863911D01*
X132310553Y-97850027D01*
X132330544Y-97838045D01*
X132351614Y-97828080D01*
X132373558Y-97820228D01*
X132396167Y-97814564D01*
X132419222Y-97811145D01*
X132442501Y-97810001D01*
X133017501Y-97810001D01*
X133040780Y-97811145D01*
X133040780Y-97811145D01*
G37*
D13*
G04 #@! TD*
G04 #@! TO.P,R5,1*
G04 #@! TO.N,Net-(R5-Pad1)*
X132730001Y-98285001D03*
D12*
G04 #@! TO.N,BAT-*
G04 #@! TO.C,R5*
G36*
X134790780Y-97811145D02*
X134813835Y-97814564D01*
X134836444Y-97820228D01*
X134858388Y-97828080D01*
X134879458Y-97838045D01*
X134899449Y-97850027D01*
X134918169Y-97863911D01*
X134935439Y-97879563D01*
X134951091Y-97896833D01*
X134964975Y-97915553D01*
X134976957Y-97935544D01*
X134986922Y-97956614D01*
X134994774Y-97978558D01*
X135000438Y-98001167D01*
X135003857Y-98024222D01*
X135005001Y-98047501D01*
X135005001Y-98522501D01*
X135003857Y-98545780D01*
X135000438Y-98568835D01*
X134994774Y-98591444D01*
X134986922Y-98613388D01*
X134976957Y-98634458D01*
X134964975Y-98654449D01*
X134951091Y-98673169D01*
X134935439Y-98690439D01*
X134918169Y-98706091D01*
X134899449Y-98719975D01*
X134879458Y-98731957D01*
X134858388Y-98741922D01*
X134836444Y-98749774D01*
X134813835Y-98755438D01*
X134790780Y-98758857D01*
X134767501Y-98760001D01*
X134192501Y-98760001D01*
X134169222Y-98758857D01*
X134146167Y-98755438D01*
X134123558Y-98749774D01*
X134101614Y-98741922D01*
X134080544Y-98731957D01*
X134060553Y-98719975D01*
X134041833Y-98706091D01*
X134024563Y-98690439D01*
X134008911Y-98673169D01*
X133995027Y-98654449D01*
X133983045Y-98634458D01*
X133973080Y-98613388D01*
X133965228Y-98591444D01*
X133959564Y-98568835D01*
X133956145Y-98545780D01*
X133955001Y-98522501D01*
X133955001Y-98047501D01*
X133956145Y-98024222D01*
X133959564Y-98001167D01*
X133965228Y-97978558D01*
X133973080Y-97956614D01*
X133983045Y-97935544D01*
X133995027Y-97915553D01*
X134008911Y-97896833D01*
X134024563Y-97879563D01*
X134041833Y-97863911D01*
X134060553Y-97850027D01*
X134080544Y-97838045D01*
X134101614Y-97828080D01*
X134123558Y-97820228D01*
X134146167Y-97814564D01*
X134169222Y-97811145D01*
X134192501Y-97810001D01*
X134767501Y-97810001D01*
X134790780Y-97811145D01*
X134790780Y-97811145D01*
G37*
D13*
G04 #@! TD*
G04 #@! TO.P,R5,2*
G04 #@! TO.N,BAT-*
X134480001Y-98285001D03*
D12*
G04 #@! TO.N,Net-(Q1-Pad3)*
G04 #@! TO.C,R6*
G36*
X134790780Y-96301145D02*
X134813835Y-96304564D01*
X134836444Y-96310228D01*
X134858388Y-96318080D01*
X134879458Y-96328045D01*
X134899449Y-96340027D01*
X134918169Y-96353911D01*
X134935439Y-96369563D01*
X134951091Y-96386833D01*
X134964975Y-96405553D01*
X134976957Y-96425544D01*
X134986922Y-96446614D01*
X134994774Y-96468558D01*
X135000438Y-96491167D01*
X135003857Y-96514222D01*
X135005001Y-96537501D01*
X135005001Y-97012501D01*
X135003857Y-97035780D01*
X135000438Y-97058835D01*
X134994774Y-97081444D01*
X134986922Y-97103388D01*
X134976957Y-97124458D01*
X134964975Y-97144449D01*
X134951091Y-97163169D01*
X134935439Y-97180439D01*
X134918169Y-97196091D01*
X134899449Y-97209975D01*
X134879458Y-97221957D01*
X134858388Y-97231922D01*
X134836444Y-97239774D01*
X134813835Y-97245438D01*
X134790780Y-97248857D01*
X134767501Y-97250001D01*
X134192501Y-97250001D01*
X134169222Y-97248857D01*
X134146167Y-97245438D01*
X134123558Y-97239774D01*
X134101614Y-97231922D01*
X134080544Y-97221957D01*
X134060553Y-97209975D01*
X134041833Y-97196091D01*
X134024563Y-97180439D01*
X134008911Y-97163169D01*
X133995027Y-97144449D01*
X133983045Y-97124458D01*
X133973080Y-97103388D01*
X133965228Y-97081444D01*
X133959564Y-97058835D01*
X133956145Y-97035780D01*
X133955001Y-97012501D01*
X133955001Y-96537501D01*
X133956145Y-96514222D01*
X133959564Y-96491167D01*
X133965228Y-96468558D01*
X133973080Y-96446614D01*
X133983045Y-96425544D01*
X133995027Y-96405553D01*
X134008911Y-96386833D01*
X134024563Y-96369563D01*
X134041833Y-96353911D01*
X134060553Y-96340027D01*
X134080544Y-96328045D01*
X134101614Y-96318080D01*
X134123558Y-96310228D01*
X134146167Y-96304564D01*
X134169222Y-96301145D01*
X134192501Y-96300001D01*
X134767501Y-96300001D01*
X134790780Y-96301145D01*
X134790780Y-96301145D01*
G37*
D13*
G04 #@! TD*
G04 #@! TO.P,R6,2*
G04 #@! TO.N,Net-(Q1-Pad3)*
X134480001Y-96775001D03*
D12*
G04 #@! TO.N,BP_CS*
G04 #@! TO.C,R6*
G36*
X133040780Y-96301145D02*
X133063835Y-96304564D01*
X133086444Y-96310228D01*
X133108388Y-96318080D01*
X133129458Y-96328045D01*
X133149449Y-96340027D01*
X133168169Y-96353911D01*
X133185439Y-96369563D01*
X133201091Y-96386833D01*
X133214975Y-96405553D01*
X133226957Y-96425544D01*
X133236922Y-96446614D01*
X133244774Y-96468558D01*
X133250438Y-96491167D01*
X133253857Y-96514222D01*
X133255001Y-96537501D01*
X133255001Y-97012501D01*
X133253857Y-97035780D01*
X133250438Y-97058835D01*
X133244774Y-97081444D01*
X133236922Y-97103388D01*
X133226957Y-97124458D01*
X133214975Y-97144449D01*
X133201091Y-97163169D01*
X133185439Y-97180439D01*
X133168169Y-97196091D01*
X133149449Y-97209975D01*
X133129458Y-97221957D01*
X133108388Y-97231922D01*
X133086444Y-97239774D01*
X133063835Y-97245438D01*
X133040780Y-97248857D01*
X133017501Y-97250001D01*
X132442501Y-97250001D01*
X132419222Y-97248857D01*
X132396167Y-97245438D01*
X132373558Y-97239774D01*
X132351614Y-97231922D01*
X132330544Y-97221957D01*
X132310553Y-97209975D01*
X132291833Y-97196091D01*
X132274563Y-97180439D01*
X132258911Y-97163169D01*
X132245027Y-97144449D01*
X132233045Y-97124458D01*
X132223080Y-97103388D01*
X132215228Y-97081444D01*
X132209564Y-97058835D01*
X132206145Y-97035780D01*
X132205001Y-97012501D01*
X132205001Y-96537501D01*
X132206145Y-96514222D01*
X132209564Y-96491167D01*
X132215228Y-96468558D01*
X132223080Y-96446614D01*
X132233045Y-96425544D01*
X132245027Y-96405553D01*
X132258911Y-96386833D01*
X132274563Y-96369563D01*
X132291833Y-96353911D01*
X132310553Y-96340027D01*
X132330544Y-96328045D01*
X132351614Y-96318080D01*
X132373558Y-96310228D01*
X132396167Y-96304564D01*
X132419222Y-96301145D01*
X132442501Y-96300001D01*
X133017501Y-96300001D01*
X133040780Y-96301145D01*
X133040780Y-96301145D01*
G37*
D13*
G04 #@! TD*
G04 #@! TO.P,R6,1*
G04 #@! TO.N,BP_CS*
X132730001Y-96775001D03*
D12*
G04 #@! TO.N,Net-(C12-Pad1)*
G04 #@! TO.C,R7*
G36*
X134790780Y-90261145D02*
X134813835Y-90264564D01*
X134836444Y-90270228D01*
X134858388Y-90278080D01*
X134879458Y-90288045D01*
X134899449Y-90300027D01*
X134918169Y-90313911D01*
X134935439Y-90329563D01*
X134951091Y-90346833D01*
X134964975Y-90365553D01*
X134976957Y-90385544D01*
X134986922Y-90406614D01*
X134994774Y-90428558D01*
X135000438Y-90451167D01*
X135003857Y-90474222D01*
X135005001Y-90497501D01*
X135005001Y-90972501D01*
X135003857Y-90995780D01*
X135000438Y-91018835D01*
X134994774Y-91041444D01*
X134986922Y-91063388D01*
X134976957Y-91084458D01*
X134964975Y-91104449D01*
X134951091Y-91123169D01*
X134935439Y-91140439D01*
X134918169Y-91156091D01*
X134899449Y-91169975D01*
X134879458Y-91181957D01*
X134858388Y-91191922D01*
X134836444Y-91199774D01*
X134813835Y-91205438D01*
X134790780Y-91208857D01*
X134767501Y-91210001D01*
X134192501Y-91210001D01*
X134169222Y-91208857D01*
X134146167Y-91205438D01*
X134123558Y-91199774D01*
X134101614Y-91191922D01*
X134080544Y-91181957D01*
X134060553Y-91169975D01*
X134041833Y-91156091D01*
X134024563Y-91140439D01*
X134008911Y-91123169D01*
X133995027Y-91104449D01*
X133983045Y-91084458D01*
X133973080Y-91063388D01*
X133965228Y-91041444D01*
X133959564Y-91018835D01*
X133956145Y-90995780D01*
X133955001Y-90972501D01*
X133955001Y-90497501D01*
X133956145Y-90474222D01*
X133959564Y-90451167D01*
X133965228Y-90428558D01*
X133973080Y-90406614D01*
X133983045Y-90385544D01*
X133995027Y-90365553D01*
X134008911Y-90346833D01*
X134024563Y-90329563D01*
X134041833Y-90313911D01*
X134060553Y-90300027D01*
X134080544Y-90288045D01*
X134101614Y-90278080D01*
X134123558Y-90270228D01*
X134146167Y-90264564D01*
X134169222Y-90261145D01*
X134192501Y-90260001D01*
X134767501Y-90260001D01*
X134790780Y-90261145D01*
X134790780Y-90261145D01*
G37*
D13*
G04 #@! TD*
G04 #@! TO.P,R7,2*
G04 #@! TO.N,Net-(C12-Pad1)*
X134480001Y-90735001D03*
D12*
G04 #@! TO.N,VDD*
G04 #@! TO.C,R7*
G36*
X133040780Y-90261145D02*
X133063835Y-90264564D01*
X133086444Y-90270228D01*
X133108388Y-90278080D01*
X133129458Y-90288045D01*
X133149449Y-90300027D01*
X133168169Y-90313911D01*
X133185439Y-90329563D01*
X133201091Y-90346833D01*
X133214975Y-90365553D01*
X133226957Y-90385544D01*
X133236922Y-90406614D01*
X133244774Y-90428558D01*
X133250438Y-90451167D01*
X133253857Y-90474222D01*
X133255001Y-90497501D01*
X133255001Y-90972501D01*
X133253857Y-90995780D01*
X133250438Y-91018835D01*
X133244774Y-91041444D01*
X133236922Y-91063388D01*
X133226957Y-91084458D01*
X133214975Y-91104449D01*
X133201091Y-91123169D01*
X133185439Y-91140439D01*
X133168169Y-91156091D01*
X133149449Y-91169975D01*
X133129458Y-91181957D01*
X133108388Y-91191922D01*
X133086444Y-91199774D01*
X133063835Y-91205438D01*
X133040780Y-91208857D01*
X133017501Y-91210001D01*
X132442501Y-91210001D01*
X132419222Y-91208857D01*
X132396167Y-91205438D01*
X132373558Y-91199774D01*
X132351614Y-91191922D01*
X132330544Y-91181957D01*
X132310553Y-91169975D01*
X132291833Y-91156091D01*
X132274563Y-91140439D01*
X132258911Y-91123169D01*
X132245027Y-91104449D01*
X132233045Y-91084458D01*
X132223080Y-91063388D01*
X132215228Y-91041444D01*
X132209564Y-91018835D01*
X132206145Y-90995780D01*
X132205001Y-90972501D01*
X132205001Y-90497501D01*
X132206145Y-90474222D01*
X132209564Y-90451167D01*
X132215228Y-90428558D01*
X132223080Y-90406614D01*
X132233045Y-90385544D01*
X132245027Y-90365553D01*
X132258911Y-90346833D01*
X132274563Y-90329563D01*
X132291833Y-90313911D01*
X132310553Y-90300027D01*
X132330544Y-90288045D01*
X132351614Y-90278080D01*
X132373558Y-90270228D01*
X132396167Y-90264564D01*
X132419222Y-90261145D01*
X132442501Y-90260001D01*
X133017501Y-90260001D01*
X133040780Y-90261145D01*
X133040780Y-90261145D01*
G37*
D13*
G04 #@! TD*
G04 #@! TO.P,R7,1*
G04 #@! TO.N,VDD*
X132730001Y-90735001D03*
D12*
G04 #@! TO.N,Net-(C12-Pad1)*
G04 #@! TO.C,R8*
G36*
X136390780Y-93281145D02*
X136413835Y-93284564D01*
X136436444Y-93290228D01*
X136458388Y-93298080D01*
X136479458Y-93308045D01*
X136499449Y-93320027D01*
X136518169Y-93333911D01*
X136535439Y-93349563D01*
X136551091Y-93366833D01*
X136564975Y-93385553D01*
X136576957Y-93405544D01*
X136586922Y-93426614D01*
X136594774Y-93448558D01*
X136600438Y-93471167D01*
X136603857Y-93494222D01*
X136605001Y-93517501D01*
X136605001Y-93992501D01*
X136603857Y-94015780D01*
X136600438Y-94038835D01*
X136594774Y-94061444D01*
X136586922Y-94083388D01*
X136576957Y-94104458D01*
X136564975Y-94124449D01*
X136551091Y-94143169D01*
X136535439Y-94160439D01*
X136518169Y-94176091D01*
X136499449Y-94189975D01*
X136479458Y-94201957D01*
X136458388Y-94211922D01*
X136436444Y-94219774D01*
X136413835Y-94225438D01*
X136390780Y-94228857D01*
X136367501Y-94230001D01*
X135792501Y-94230001D01*
X135769222Y-94228857D01*
X135746167Y-94225438D01*
X135723558Y-94219774D01*
X135701614Y-94211922D01*
X135680544Y-94201957D01*
X135660553Y-94189975D01*
X135641833Y-94176091D01*
X135624563Y-94160439D01*
X135608911Y-94143169D01*
X135595027Y-94124449D01*
X135583045Y-94104458D01*
X135573080Y-94083388D01*
X135565228Y-94061444D01*
X135559564Y-94038835D01*
X135556145Y-94015780D01*
X135555001Y-93992501D01*
X135555001Y-93517501D01*
X135556145Y-93494222D01*
X135559564Y-93471167D01*
X135565228Y-93448558D01*
X135573080Y-93426614D01*
X135583045Y-93405544D01*
X135595027Y-93385553D01*
X135608911Y-93366833D01*
X135624563Y-93349563D01*
X135641833Y-93333911D01*
X135660553Y-93320027D01*
X135680544Y-93308045D01*
X135701614Y-93298080D01*
X135723558Y-93290228D01*
X135746167Y-93284564D01*
X135769222Y-93281145D01*
X135792501Y-93280001D01*
X136367501Y-93280001D01*
X136390780Y-93281145D01*
X136390780Y-93281145D01*
G37*
D13*
G04 #@! TD*
G04 #@! TO.P,R8,1*
G04 #@! TO.N,Net-(C12-Pad1)*
X136080001Y-93755001D03*
D12*
G04 #@! TO.N,BAT-*
G04 #@! TO.C,R8*
G36*
X138140780Y-93281145D02*
X138163835Y-93284564D01*
X138186444Y-93290228D01*
X138208388Y-93298080D01*
X138229458Y-93308045D01*
X138249449Y-93320027D01*
X138268169Y-93333911D01*
X138285439Y-93349563D01*
X138301091Y-93366833D01*
X138314975Y-93385553D01*
X138326957Y-93405544D01*
X138336922Y-93426614D01*
X138344774Y-93448558D01*
X138350438Y-93471167D01*
X138353857Y-93494222D01*
X138355001Y-93517501D01*
X138355001Y-93992501D01*
X138353857Y-94015780D01*
X138350438Y-94038835D01*
X138344774Y-94061444D01*
X138336922Y-94083388D01*
X138326957Y-94104458D01*
X138314975Y-94124449D01*
X138301091Y-94143169D01*
X138285439Y-94160439D01*
X138268169Y-94176091D01*
X138249449Y-94189975D01*
X138229458Y-94201957D01*
X138208388Y-94211922D01*
X138186444Y-94219774D01*
X138163835Y-94225438D01*
X138140780Y-94228857D01*
X138117501Y-94230001D01*
X137542501Y-94230001D01*
X137519222Y-94228857D01*
X137496167Y-94225438D01*
X137473558Y-94219774D01*
X137451614Y-94211922D01*
X137430544Y-94201957D01*
X137410553Y-94189975D01*
X137391833Y-94176091D01*
X137374563Y-94160439D01*
X137358911Y-94143169D01*
X137345027Y-94124449D01*
X137333045Y-94104458D01*
X137323080Y-94083388D01*
X137315228Y-94061444D01*
X137309564Y-94038835D01*
X137306145Y-94015780D01*
X137305001Y-93992501D01*
X137305001Y-93517501D01*
X137306145Y-93494222D01*
X137309564Y-93471167D01*
X137315228Y-93448558D01*
X137323080Y-93426614D01*
X137333045Y-93405544D01*
X137345027Y-93385553D01*
X137358911Y-93366833D01*
X137374563Y-93349563D01*
X137391833Y-93333911D01*
X137410553Y-93320027D01*
X137430544Y-93308045D01*
X137451614Y-93298080D01*
X137473558Y-93290228D01*
X137496167Y-93284564D01*
X137519222Y-93281145D01*
X137542501Y-93280001D01*
X138117501Y-93280001D01*
X138140780Y-93281145D01*
X138140780Y-93281145D01*
G37*
D13*
G04 #@! TD*
G04 #@! TO.P,R8,2*
G04 #@! TO.N,BAT-*
X137830001Y-93755001D03*
D12*
G04 #@! TO.N,VDD*
G04 #@! TO.C,R9*
G36*
X143090780Y-87511145D02*
X143113835Y-87514564D01*
X143136444Y-87520228D01*
X143158388Y-87528080D01*
X143179458Y-87538045D01*
X143199449Y-87550027D01*
X143218169Y-87563911D01*
X143235439Y-87579563D01*
X143251091Y-87596833D01*
X143264975Y-87615553D01*
X143276957Y-87635544D01*
X143286922Y-87656614D01*
X143294774Y-87678558D01*
X143300438Y-87701167D01*
X143303857Y-87724222D01*
X143305001Y-87747501D01*
X143305001Y-88222501D01*
X143303857Y-88245780D01*
X143300438Y-88268835D01*
X143294774Y-88291444D01*
X143286922Y-88313388D01*
X143276957Y-88334458D01*
X143264975Y-88354449D01*
X143251091Y-88373169D01*
X143235439Y-88390439D01*
X143218169Y-88406091D01*
X143199449Y-88419975D01*
X143179458Y-88431957D01*
X143158388Y-88441922D01*
X143136444Y-88449774D01*
X143113835Y-88455438D01*
X143090780Y-88458857D01*
X143067501Y-88460001D01*
X142492501Y-88460001D01*
X142469222Y-88458857D01*
X142446167Y-88455438D01*
X142423558Y-88449774D01*
X142401614Y-88441922D01*
X142380544Y-88431957D01*
X142360553Y-88419975D01*
X142341833Y-88406091D01*
X142324563Y-88390439D01*
X142308911Y-88373169D01*
X142295027Y-88354449D01*
X142283045Y-88334458D01*
X142273080Y-88313388D01*
X142265228Y-88291444D01*
X142259564Y-88268835D01*
X142256145Y-88245780D01*
X142255001Y-88222501D01*
X142255001Y-87747501D01*
X142256145Y-87724222D01*
X142259564Y-87701167D01*
X142265228Y-87678558D01*
X142273080Y-87656614D01*
X142283045Y-87635544D01*
X142295027Y-87615553D01*
X142308911Y-87596833D01*
X142324563Y-87579563D01*
X142341833Y-87563911D01*
X142360553Y-87550027D01*
X142380544Y-87538045D01*
X142401614Y-87528080D01*
X142423558Y-87520228D01*
X142446167Y-87514564D01*
X142469222Y-87511145D01*
X142492501Y-87510001D01*
X143067501Y-87510001D01*
X143090780Y-87511145D01*
X143090780Y-87511145D01*
G37*
D13*
G04 #@! TD*
G04 #@! TO.P,R9,1*
G04 #@! TO.N,VDD*
X142780001Y-87985001D03*
D12*
G04 #@! TO.N,Net-(JP1-Pad1)*
G04 #@! TO.C,R9*
G36*
X144840780Y-87511145D02*
X144863835Y-87514564D01*
X144886444Y-87520228D01*
X144908388Y-87528080D01*
X144929458Y-87538045D01*
X144949449Y-87550027D01*
X144968169Y-87563911D01*
X144985439Y-87579563D01*
X145001091Y-87596833D01*
X145014975Y-87615553D01*
X145026957Y-87635544D01*
X145036922Y-87656614D01*
X145044774Y-87678558D01*
X145050438Y-87701167D01*
X145053857Y-87724222D01*
X145055001Y-87747501D01*
X145055001Y-88222501D01*
X145053857Y-88245780D01*
X145050438Y-88268835D01*
X145044774Y-88291444D01*
X145036922Y-88313388D01*
X145026957Y-88334458D01*
X145014975Y-88354449D01*
X145001091Y-88373169D01*
X144985439Y-88390439D01*
X144968169Y-88406091D01*
X144949449Y-88419975D01*
X144929458Y-88431957D01*
X144908388Y-88441922D01*
X144886444Y-88449774D01*
X144863835Y-88455438D01*
X144840780Y-88458857D01*
X144817501Y-88460001D01*
X144242501Y-88460001D01*
X144219222Y-88458857D01*
X144196167Y-88455438D01*
X144173558Y-88449774D01*
X144151614Y-88441922D01*
X144130544Y-88431957D01*
X144110553Y-88419975D01*
X144091833Y-88406091D01*
X144074563Y-88390439D01*
X144058911Y-88373169D01*
X144045027Y-88354449D01*
X144033045Y-88334458D01*
X144023080Y-88313388D01*
X144015228Y-88291444D01*
X144009564Y-88268835D01*
X144006145Y-88245780D01*
X144005001Y-88222501D01*
X144005001Y-87747501D01*
X144006145Y-87724222D01*
X144009564Y-87701167D01*
X144015228Y-87678558D01*
X144023080Y-87656614D01*
X144033045Y-87635544D01*
X144045027Y-87615553D01*
X144058911Y-87596833D01*
X144074563Y-87579563D01*
X144091833Y-87563911D01*
X144110553Y-87550027D01*
X144130544Y-87538045D01*
X144151614Y-87528080D01*
X144173558Y-87520228D01*
X144196167Y-87514564D01*
X144219222Y-87511145D01*
X144242501Y-87510001D01*
X144817501Y-87510001D01*
X144840780Y-87511145D01*
X144840780Y-87511145D01*
G37*
D13*
G04 #@! TD*
G04 #@! TO.P,R9,2*
G04 #@! TO.N,Net-(JP1-Pad1)*
X144530001Y-87985001D03*
D12*
G04 #@! TO.N,IC_MCLR*
G04 #@! TO.C,R10*
G36*
X144840780Y-86001145D02*
X144863835Y-86004564D01*
X144886444Y-86010228D01*
X144908388Y-86018080D01*
X144929458Y-86028045D01*
X144949449Y-86040027D01*
X144968169Y-86053911D01*
X144985439Y-86069563D01*
X145001091Y-86086833D01*
X145014975Y-86105553D01*
X145026957Y-86125544D01*
X145036922Y-86146614D01*
X145044774Y-86168558D01*
X145050438Y-86191167D01*
X145053857Y-86214222D01*
X145055001Y-86237501D01*
X145055001Y-86712501D01*
X145053857Y-86735780D01*
X145050438Y-86758835D01*
X145044774Y-86781444D01*
X145036922Y-86803388D01*
X145026957Y-86824458D01*
X145014975Y-86844449D01*
X145001091Y-86863169D01*
X144985439Y-86880439D01*
X144968169Y-86896091D01*
X144949449Y-86909975D01*
X144929458Y-86921957D01*
X144908388Y-86931922D01*
X144886444Y-86939774D01*
X144863835Y-86945438D01*
X144840780Y-86948857D01*
X144817501Y-86950001D01*
X144242501Y-86950001D01*
X144219222Y-86948857D01*
X144196167Y-86945438D01*
X144173558Y-86939774D01*
X144151614Y-86931922D01*
X144130544Y-86921957D01*
X144110553Y-86909975D01*
X144091833Y-86896091D01*
X144074563Y-86880439D01*
X144058911Y-86863169D01*
X144045027Y-86844449D01*
X144033045Y-86824458D01*
X144023080Y-86803388D01*
X144015228Y-86781444D01*
X144009564Y-86758835D01*
X144006145Y-86735780D01*
X144005001Y-86712501D01*
X144005001Y-86237501D01*
X144006145Y-86214222D01*
X144009564Y-86191167D01*
X144015228Y-86168558D01*
X144023080Y-86146614D01*
X144033045Y-86125544D01*
X144045027Y-86105553D01*
X144058911Y-86086833D01*
X144074563Y-86069563D01*
X144091833Y-86053911D01*
X144110553Y-86040027D01*
X144130544Y-86028045D01*
X144151614Y-86018080D01*
X144173558Y-86010228D01*
X144196167Y-86004564D01*
X144219222Y-86001145D01*
X144242501Y-86000001D01*
X144817501Y-86000001D01*
X144840780Y-86001145D01*
X144840780Y-86001145D01*
G37*
D13*
G04 #@! TD*
G04 #@! TO.P,R10,2*
G04 #@! TO.N,IC_MCLR*
X144530001Y-86475001D03*
D12*
G04 #@! TO.N,Net-(JP1-Pad1)*
G04 #@! TO.C,R10*
G36*
X143090780Y-86001145D02*
X143113835Y-86004564D01*
X143136444Y-86010228D01*
X143158388Y-86018080D01*
X143179458Y-86028045D01*
X143199449Y-86040027D01*
X143218169Y-86053911D01*
X143235439Y-86069563D01*
X143251091Y-86086833D01*
X143264975Y-86105553D01*
X143276957Y-86125544D01*
X143286922Y-86146614D01*
X143294774Y-86168558D01*
X143300438Y-86191167D01*
X143303857Y-86214222D01*
X143305001Y-86237501D01*
X143305001Y-86712501D01*
X143303857Y-86735780D01*
X143300438Y-86758835D01*
X143294774Y-86781444D01*
X143286922Y-86803388D01*
X143276957Y-86824458D01*
X143264975Y-86844449D01*
X143251091Y-86863169D01*
X143235439Y-86880439D01*
X143218169Y-86896091D01*
X143199449Y-86909975D01*
X143179458Y-86921957D01*
X143158388Y-86931922D01*
X143136444Y-86939774D01*
X143113835Y-86945438D01*
X143090780Y-86948857D01*
X143067501Y-86950001D01*
X142492501Y-86950001D01*
X142469222Y-86948857D01*
X142446167Y-86945438D01*
X142423558Y-86939774D01*
X142401614Y-86931922D01*
X142380544Y-86921957D01*
X142360553Y-86909975D01*
X142341833Y-86896091D01*
X142324563Y-86880439D01*
X142308911Y-86863169D01*
X142295027Y-86844449D01*
X142283045Y-86824458D01*
X142273080Y-86803388D01*
X142265228Y-86781444D01*
X142259564Y-86758835D01*
X142256145Y-86735780D01*
X142255001Y-86712501D01*
X142255001Y-86237501D01*
X142256145Y-86214222D01*
X142259564Y-86191167D01*
X142265228Y-86168558D01*
X142273080Y-86146614D01*
X142283045Y-86125544D01*
X142295027Y-86105553D01*
X142308911Y-86086833D01*
X142324563Y-86069563D01*
X142341833Y-86053911D01*
X142360553Y-86040027D01*
X142380544Y-86028045D01*
X142401614Y-86018080D01*
X142423558Y-86010228D01*
X142446167Y-86004564D01*
X142469222Y-86001145D01*
X142492501Y-86000001D01*
X143067501Y-86000001D01*
X143090780Y-86001145D01*
X143090780Y-86001145D01*
G37*
D13*
G04 #@! TD*
G04 #@! TO.P,R10,1*
G04 #@! TO.N,Net-(JP1-Pad1)*
X142780001Y-86475001D03*
D20*
G04 #@! TO.P,U1,6*
G04 #@! TO.N,BAT-*
X140275001Y-81535001D03*
G04 #@! TO.P,U1,5*
G04 #@! TO.N,BP_VDD*
X140275001Y-82485001D03*
G04 #@! TO.P,U1,4*
G04 #@! TO.N,Net-(U1-Pad4)*
X140275001Y-83435001D03*
G04 #@! TO.P,U1,3*
G04 #@! TO.N,BP_OC*
X136855001Y-83435001D03*
G04 #@! TO.P,U1,2*
G04 #@! TO.N,BP_CS*
X136855001Y-82485001D03*
G04 #@! TO.P,U1,1*
G04 #@! TO.N,BP_OD*
X136855001Y-81535001D03*
G04 #@! TD*
D21*
G04 #@! TO.P,U2,1*
G04 #@! TO.N,BAT-*
X148595001Y-80610001D03*
G04 #@! TO.P,U2,2*
G04 #@! TO.N,Net-(R5-Pad1)*
X148595001Y-81260001D03*
G04 #@! TO.P,U2,3*
G04 #@! TO.N,BAT-*
X148595001Y-81910001D03*
G04 #@! TO.P,U2,4*
G04 #@! TO.N,Net-(C1-Pad1)*
X148595001Y-82560001D03*
G04 #@! TO.P,U2,5*
G04 #@! TO.N,BP_VDD*
X151995001Y-82560001D03*
G04 #@! TO.P,U2,6*
G04 #@! TO.N,Net-(R3-Pad1)*
X151995001Y-81910001D03*
G04 #@! TO.P,U2,7*
G04 #@! TO.N,Net-(R2-Pad1)*
X151995001Y-81260001D03*
G04 #@! TO.P,U2,8*
G04 #@! TO.N,Net-(C1-Pad1)*
X151995001Y-80610001D03*
G04 #@! TD*
D22*
G04 #@! TO.P,U3,1*
G04 #@! TO.N,Net-(J1-Pad3)*
X154145001Y-75235001D03*
G04 #@! TO.P,U3,2*
G04 #@! TO.N,BAT-*
X154145001Y-76185001D03*
G04 #@! TO.P,U3,3*
G04 #@! TO.N,Net-(J1-Pad2)*
X154145001Y-77135001D03*
G04 #@! TO.P,U3,4*
G04 #@! TO.N,USB_D-*
X156845001Y-77135001D03*
G04 #@! TO.P,U3,6*
G04 #@! TO.N,USB_D+*
X156845001Y-75235001D03*
G04 #@! TO.P,U3,5*
G04 #@! TO.N,USB_VBUS*
X156845001Y-76185001D03*
G04 #@! TD*
D23*
G04 #@! TO.P,U4,1*
G04 #@! TO.N,Net-(C12-Pad1)*
X159155001Y-68555001D03*
G04 #@! TO.P,U4,3*
G04 #@! TO.N,BP_VDD*
X159155001Y-73115001D03*
D24*
G04 #@! TO.P,U4,2*
G04 #@! TO.N,VDD*
X165455001Y-70835001D03*
G04 #@! TD*
D25*
G04 #@! TO.P,U5,1*
G04 #@! TO.N,IC_RC7*
X132955001Y-70035001D03*
G04 #@! TO.P,U5,2*
G04 #@! TO.N,IC_RD4*
X132955001Y-70835001D03*
G04 #@! TO.P,U5,3*
G04 #@! TO.N,IC_RD5*
X132955001Y-71635001D03*
G04 #@! TO.P,U5,4*
G04 #@! TO.N,IC_RD6*
X132955001Y-72435001D03*
G04 #@! TO.P,U5,5*
G04 #@! TO.N,IC_RD7*
X132955001Y-73235001D03*
G04 #@! TO.P,U5,6*
G04 #@! TO.N,BAT-*
X132955001Y-74035001D03*
G04 #@! TO.P,U5,7*
G04 #@! TO.N,VDD*
X132955001Y-74835001D03*
G04 #@! TO.P,U5,8*
G04 #@! TO.N,IC_RB0*
X132955001Y-75635001D03*
G04 #@! TO.P,U5,9*
G04 #@! TO.N,IC_RB1*
X132955001Y-76435001D03*
G04 #@! TO.P,U5,10*
G04 #@! TO.N,IC_RB2*
X132955001Y-77235001D03*
G04 #@! TO.P,U5,11*
G04 #@! TO.N,IC_RB3*
X132955001Y-78035001D03*
D26*
G04 #@! TO.P,U5,12*
G04 #@! TO.N,IC_ICPGC*
X134655001Y-79735001D03*
G04 #@! TO.P,U5,13*
G04 #@! TO.N,IC_ICPGD*
X135455001Y-79735001D03*
G04 #@! TO.P,U5,14*
G04 #@! TO.N,IC_RB4*
X136255001Y-79735001D03*
G04 #@! TO.P,U5,15*
G04 #@! TO.N,IC_RB5*
X137055001Y-79735001D03*
G04 #@! TO.P,U5,16*
G04 #@! TO.N,IC_RB6*
X137855001Y-79735001D03*
G04 #@! TO.P,U5,17*
G04 #@! TO.N,IC_RB7*
X138655001Y-79735001D03*
G04 #@! TO.P,U5,18*
G04 #@! TO.N,IC_MCLR*
X139455001Y-79735001D03*
G04 #@! TO.P,U5,19*
G04 #@! TO.N,IC_RA0*
X140255001Y-79735001D03*
G04 #@! TO.P,U5,20*
G04 #@! TO.N,IC_RA1*
X141055001Y-79735001D03*
G04 #@! TO.P,U5,21*
G04 #@! TO.N,IC_RA2*
X141855001Y-79735001D03*
G04 #@! TO.P,U5,22*
G04 #@! TO.N,IC_RA3*
X142655001Y-79735001D03*
D25*
G04 #@! TO.P,U5,23*
G04 #@! TO.N,IC_RA4*
X144355001Y-78035001D03*
G04 #@! TO.P,U5,24*
G04 #@! TO.N,IC_RA5*
X144355001Y-77235001D03*
G04 #@! TO.P,U5,25*
G04 #@! TO.N,IC_RE0*
X144355001Y-76435001D03*
G04 #@! TO.P,U5,26*
G04 #@! TO.N,IC_RE1*
X144355001Y-75635001D03*
G04 #@! TO.P,U5,27*
G04 #@! TO.N,IC_RE2*
X144355001Y-74835001D03*
G04 #@! TO.P,U5,28*
G04 #@! TO.N,VDD*
X144355001Y-74035001D03*
G04 #@! TO.P,U5,29*
G04 #@! TO.N,BAT-*
X144355001Y-73235001D03*
G04 #@! TO.P,U5,30*
G04 #@! TO.N,IC_OSC1*
X144355001Y-72435001D03*
G04 #@! TO.P,U5,31*
G04 #@! TO.N,IC_OSC2*
X144355001Y-71635001D03*
G04 #@! TO.P,U5,32*
G04 #@! TO.N,IC_RC0*
X144355001Y-70835001D03*
G04 #@! TO.P,U5,33*
G04 #@! TO.N,IC_ICVPP*
X144355001Y-70035001D03*
D26*
G04 #@! TO.P,U5,34*
G04 #@! TO.N,Net-(U5-Pad34)*
X142655001Y-68335001D03*
G04 #@! TO.P,U5,35*
G04 #@! TO.N,IC_RC1*
X141855001Y-68335001D03*
G04 #@! TO.P,U5,36*
G04 #@! TO.N,IC_RC2*
X141055001Y-68335001D03*
G04 #@! TO.P,U5,37*
G04 #@! TO.N,USB_VBUS*
X140255001Y-68335001D03*
G04 #@! TO.P,U5,38*
G04 #@! TO.N,IC_RD0*
X139455001Y-68335001D03*
G04 #@! TO.P,U5,39*
G04 #@! TO.N,IC_RD1*
X138655001Y-68335001D03*
G04 #@! TO.P,U5,40*
G04 #@! TO.N,IC_RD2*
X137855001Y-68335001D03*
G04 #@! TO.P,U5,41*
G04 #@! TO.N,IC_RD3*
X137055001Y-68335001D03*
G04 #@! TO.P,U5,42*
G04 #@! TO.N,USB_D-*
X136255001Y-68335001D03*
G04 #@! TO.P,U5,43*
G04 #@! TO.N,USB_D+*
X135455001Y-68335001D03*
G04 #@! TO.P,U5,44*
G04 #@! TO.N,IC_RC6*
X134655001Y-68335001D03*
G04 #@! TD*
M02*
