G04 #@! TF.GenerationSoftware,KiCad,Pcbnew,5.0.2+dfsg1-1*
G04 #@! TF.CreationDate,2020-08-24T01:19:37-04:00*
G04 #@! TF.ProjectId,hardware,68617264-7761-4726-952e-6b696361645f,rev?*
G04 #@! TF.SameCoordinates,Original*
G04 #@! TF.FileFunction,Soldermask,Bot*
G04 #@! TF.FilePolarity,Negative*
%FSLAX46Y46*%
G04 Gerber Fmt 4.6, Leading zero omitted, Abs format (unit mm)*
G04 Created by KiCad (PCBNEW 5.0.2+dfsg1-1) date Mon 24 Aug 2020 01:19:37 AM EDT*
%MOMM*%
%LPD*%
G01*
G04 APERTURE LIST*
%ADD10C,0.100000*%
G04 APERTURE END LIST*
D10*
G36*
X130205444Y-116500520D02*
X130271628Y-116507038D01*
X130384854Y-116541385D01*
X130441468Y-116558558D01*
X130580088Y-116632653D01*
X130597992Y-116642223D01*
X130633730Y-116671553D01*
X130735187Y-116754815D01*
X130818449Y-116856272D01*
X130847779Y-116892010D01*
X130847780Y-116892012D01*
X130931444Y-117048534D01*
X130931444Y-117048535D01*
X130982964Y-117218374D01*
X131000360Y-117395001D01*
X130982964Y-117571628D01*
X130948617Y-117684854D01*
X130931444Y-117741468D01*
X130857349Y-117880088D01*
X130847779Y-117897992D01*
X130818449Y-117933730D01*
X130735187Y-118035187D01*
X130633730Y-118118449D01*
X130597992Y-118147779D01*
X130597990Y-118147780D01*
X130441468Y-118231444D01*
X130384854Y-118248617D01*
X130271628Y-118282964D01*
X130205444Y-118289482D01*
X130139261Y-118296001D01*
X130050741Y-118296001D01*
X129984558Y-118289482D01*
X129918374Y-118282964D01*
X129805148Y-118248617D01*
X129748534Y-118231444D01*
X129592012Y-118147780D01*
X129592010Y-118147779D01*
X129556272Y-118118449D01*
X129454815Y-118035187D01*
X129371553Y-117933730D01*
X129342223Y-117897992D01*
X129332653Y-117880088D01*
X129258558Y-117741468D01*
X129241385Y-117684854D01*
X129207038Y-117571628D01*
X129189642Y-117395001D01*
X129207038Y-117218374D01*
X129258558Y-117048535D01*
X129258558Y-117048534D01*
X129342222Y-116892012D01*
X129342223Y-116892010D01*
X129371553Y-116856272D01*
X129454815Y-116754815D01*
X129556272Y-116671553D01*
X129592010Y-116642223D01*
X129609914Y-116632653D01*
X129748534Y-116558558D01*
X129805148Y-116541385D01*
X129918374Y-116507038D01*
X129984558Y-116500520D01*
X130050741Y-116494001D01*
X130139261Y-116494001D01*
X130205444Y-116500520D01*
X130205444Y-116500520D01*
G37*
G36*
X127665444Y-116500520D02*
X127731628Y-116507038D01*
X127844854Y-116541385D01*
X127901468Y-116558558D01*
X128040088Y-116632653D01*
X128057992Y-116642223D01*
X128093730Y-116671553D01*
X128195187Y-116754815D01*
X128278449Y-116856272D01*
X128307779Y-116892010D01*
X128307780Y-116892012D01*
X128391444Y-117048534D01*
X128391444Y-117048535D01*
X128442964Y-117218374D01*
X128460360Y-117395001D01*
X128442964Y-117571628D01*
X128408617Y-117684854D01*
X128391444Y-117741468D01*
X128317349Y-117880088D01*
X128307779Y-117897992D01*
X128278449Y-117933730D01*
X128195187Y-118035187D01*
X128093730Y-118118449D01*
X128057992Y-118147779D01*
X128057990Y-118147780D01*
X127901468Y-118231444D01*
X127844854Y-118248617D01*
X127731628Y-118282964D01*
X127665444Y-118289482D01*
X127599261Y-118296001D01*
X127510741Y-118296001D01*
X127444558Y-118289482D01*
X127378374Y-118282964D01*
X127265148Y-118248617D01*
X127208534Y-118231444D01*
X127052012Y-118147780D01*
X127052010Y-118147779D01*
X127016272Y-118118449D01*
X126914815Y-118035187D01*
X126831553Y-117933730D01*
X126802223Y-117897992D01*
X126792653Y-117880088D01*
X126718558Y-117741468D01*
X126701385Y-117684854D01*
X126667038Y-117571628D01*
X126649642Y-117395001D01*
X126667038Y-117218374D01*
X126718558Y-117048535D01*
X126718558Y-117048534D01*
X126802222Y-116892012D01*
X126802223Y-116892010D01*
X126831553Y-116856272D01*
X126914815Y-116754815D01*
X127016272Y-116671553D01*
X127052010Y-116642223D01*
X127069914Y-116632653D01*
X127208534Y-116558558D01*
X127265148Y-116541385D01*
X127378374Y-116507038D01*
X127444558Y-116500520D01*
X127510741Y-116494001D01*
X127599261Y-116494001D01*
X127665444Y-116500520D01*
X127665444Y-116500520D01*
G37*
G36*
X130205444Y-113960520D02*
X130271628Y-113967038D01*
X130384854Y-114001385D01*
X130441468Y-114018558D01*
X130580088Y-114092653D01*
X130597992Y-114102223D01*
X130633730Y-114131553D01*
X130735187Y-114214815D01*
X130818449Y-114316272D01*
X130847779Y-114352010D01*
X130847780Y-114352012D01*
X130931444Y-114508534D01*
X130931444Y-114508535D01*
X130982964Y-114678374D01*
X131000360Y-114855001D01*
X130982964Y-115031628D01*
X130948617Y-115144854D01*
X130931444Y-115201468D01*
X130857349Y-115340088D01*
X130847779Y-115357992D01*
X130818449Y-115393730D01*
X130735187Y-115495187D01*
X130633730Y-115578449D01*
X130597992Y-115607779D01*
X130597990Y-115607780D01*
X130441468Y-115691444D01*
X130384854Y-115708617D01*
X130271628Y-115742964D01*
X130205443Y-115749483D01*
X130139261Y-115756001D01*
X130050741Y-115756001D01*
X129984559Y-115749483D01*
X129918374Y-115742964D01*
X129805148Y-115708617D01*
X129748534Y-115691444D01*
X129592012Y-115607780D01*
X129592010Y-115607779D01*
X129556272Y-115578449D01*
X129454815Y-115495187D01*
X129371553Y-115393730D01*
X129342223Y-115357992D01*
X129332653Y-115340088D01*
X129258558Y-115201468D01*
X129241385Y-115144854D01*
X129207038Y-115031628D01*
X129189642Y-114855001D01*
X129207038Y-114678374D01*
X129258558Y-114508535D01*
X129258558Y-114508534D01*
X129342222Y-114352012D01*
X129342223Y-114352010D01*
X129371553Y-114316272D01*
X129454815Y-114214815D01*
X129556272Y-114131553D01*
X129592010Y-114102223D01*
X129609914Y-114092653D01*
X129748534Y-114018558D01*
X129805148Y-114001385D01*
X129918374Y-113967038D01*
X129984558Y-113960520D01*
X130050741Y-113954001D01*
X130139261Y-113954001D01*
X130205444Y-113960520D01*
X130205444Y-113960520D01*
G37*
G36*
X127665444Y-113960520D02*
X127731628Y-113967038D01*
X127844854Y-114001385D01*
X127901468Y-114018558D01*
X128040088Y-114092653D01*
X128057992Y-114102223D01*
X128093730Y-114131553D01*
X128195187Y-114214815D01*
X128278449Y-114316272D01*
X128307779Y-114352010D01*
X128307780Y-114352012D01*
X128391444Y-114508534D01*
X128391444Y-114508535D01*
X128442964Y-114678374D01*
X128460360Y-114855001D01*
X128442964Y-115031628D01*
X128408617Y-115144854D01*
X128391444Y-115201468D01*
X128317349Y-115340088D01*
X128307779Y-115357992D01*
X128278449Y-115393730D01*
X128195187Y-115495187D01*
X128093730Y-115578449D01*
X128057992Y-115607779D01*
X128057990Y-115607780D01*
X127901468Y-115691444D01*
X127844854Y-115708617D01*
X127731628Y-115742964D01*
X127665443Y-115749483D01*
X127599261Y-115756001D01*
X127510741Y-115756001D01*
X127444559Y-115749483D01*
X127378374Y-115742964D01*
X127265148Y-115708617D01*
X127208534Y-115691444D01*
X127052012Y-115607780D01*
X127052010Y-115607779D01*
X127016272Y-115578449D01*
X126914815Y-115495187D01*
X126831553Y-115393730D01*
X126802223Y-115357992D01*
X126792653Y-115340088D01*
X126718558Y-115201468D01*
X126701385Y-115144854D01*
X126667038Y-115031628D01*
X126649642Y-114855001D01*
X126667038Y-114678374D01*
X126718558Y-114508535D01*
X126718558Y-114508534D01*
X126802222Y-114352012D01*
X126802223Y-114352010D01*
X126831553Y-114316272D01*
X126914815Y-114214815D01*
X127016272Y-114131553D01*
X127052010Y-114102223D01*
X127069914Y-114092653D01*
X127208534Y-114018558D01*
X127265148Y-114001385D01*
X127378374Y-113967038D01*
X127444558Y-113960520D01*
X127510741Y-113954001D01*
X127599261Y-113954001D01*
X127665444Y-113960520D01*
X127665444Y-113960520D01*
G37*
G36*
X127665443Y-111420519D02*
X127731628Y-111427038D01*
X127844854Y-111461385D01*
X127901468Y-111478558D01*
X128040088Y-111552653D01*
X128057992Y-111562223D01*
X128093730Y-111591553D01*
X128195187Y-111674815D01*
X128278449Y-111776272D01*
X128307779Y-111812010D01*
X128307780Y-111812012D01*
X128391444Y-111968534D01*
X128391444Y-111968535D01*
X128442964Y-112138374D01*
X128460360Y-112315001D01*
X128442964Y-112491628D01*
X128408617Y-112604854D01*
X128391444Y-112661468D01*
X128317349Y-112800088D01*
X128307779Y-112817992D01*
X128278449Y-112853730D01*
X128195187Y-112955187D01*
X128093730Y-113038449D01*
X128057992Y-113067779D01*
X128057990Y-113067780D01*
X127901468Y-113151444D01*
X127844854Y-113168617D01*
X127731628Y-113202964D01*
X127665444Y-113209482D01*
X127599261Y-113216001D01*
X127510741Y-113216001D01*
X127444558Y-113209482D01*
X127378374Y-113202964D01*
X127265148Y-113168617D01*
X127208534Y-113151444D01*
X127052012Y-113067780D01*
X127052010Y-113067779D01*
X127016272Y-113038449D01*
X126914815Y-112955187D01*
X126831553Y-112853730D01*
X126802223Y-112817992D01*
X126792653Y-112800088D01*
X126718558Y-112661468D01*
X126701385Y-112604854D01*
X126667038Y-112491628D01*
X126649642Y-112315001D01*
X126667038Y-112138374D01*
X126718558Y-111968535D01*
X126718558Y-111968534D01*
X126802222Y-111812012D01*
X126802223Y-111812010D01*
X126831553Y-111776272D01*
X126914815Y-111674815D01*
X127016272Y-111591553D01*
X127052010Y-111562223D01*
X127069914Y-111552653D01*
X127208534Y-111478558D01*
X127265148Y-111461385D01*
X127378374Y-111427038D01*
X127444559Y-111420519D01*
X127510741Y-111414001D01*
X127599261Y-111414001D01*
X127665443Y-111420519D01*
X127665443Y-111420519D01*
G37*
G36*
X130205443Y-111420519D02*
X130271628Y-111427038D01*
X130384854Y-111461385D01*
X130441468Y-111478558D01*
X130580088Y-111552653D01*
X130597992Y-111562223D01*
X130633730Y-111591553D01*
X130735187Y-111674815D01*
X130818449Y-111776272D01*
X130847779Y-111812010D01*
X130847780Y-111812012D01*
X130931444Y-111968534D01*
X130931444Y-111968535D01*
X130982964Y-112138374D01*
X131000360Y-112315001D01*
X130982964Y-112491628D01*
X130948617Y-112604854D01*
X130931444Y-112661468D01*
X130857349Y-112800088D01*
X130847779Y-112817992D01*
X130818449Y-112853730D01*
X130735187Y-112955187D01*
X130633730Y-113038449D01*
X130597992Y-113067779D01*
X130597990Y-113067780D01*
X130441468Y-113151444D01*
X130384854Y-113168617D01*
X130271628Y-113202964D01*
X130205444Y-113209482D01*
X130139261Y-113216001D01*
X130050741Y-113216001D01*
X129984558Y-113209482D01*
X129918374Y-113202964D01*
X129805148Y-113168617D01*
X129748534Y-113151444D01*
X129592012Y-113067780D01*
X129592010Y-113067779D01*
X129556272Y-113038449D01*
X129454815Y-112955187D01*
X129371553Y-112853730D01*
X129342223Y-112817992D01*
X129332653Y-112800088D01*
X129258558Y-112661468D01*
X129241385Y-112604854D01*
X129207038Y-112491628D01*
X129189642Y-112315001D01*
X129207038Y-112138374D01*
X129258558Y-111968535D01*
X129258558Y-111968534D01*
X129342222Y-111812012D01*
X129342223Y-111812010D01*
X129371553Y-111776272D01*
X129454815Y-111674815D01*
X129556272Y-111591553D01*
X129592010Y-111562223D01*
X129609914Y-111552653D01*
X129748534Y-111478558D01*
X129805148Y-111461385D01*
X129918374Y-111427038D01*
X129984559Y-111420519D01*
X130050741Y-111414001D01*
X130139261Y-111414001D01*
X130205443Y-111420519D01*
X130205443Y-111420519D01*
G37*
G36*
X127665443Y-108880519D02*
X127731628Y-108887038D01*
X127844854Y-108921385D01*
X127901468Y-108938558D01*
X128040088Y-109012653D01*
X128057992Y-109022223D01*
X128093730Y-109051553D01*
X128195187Y-109134815D01*
X128278449Y-109236272D01*
X128307779Y-109272010D01*
X128307780Y-109272012D01*
X128391444Y-109428534D01*
X128391444Y-109428535D01*
X128442964Y-109598374D01*
X128460360Y-109775001D01*
X128442964Y-109951628D01*
X128408617Y-110064854D01*
X128391444Y-110121468D01*
X128317349Y-110260088D01*
X128307779Y-110277992D01*
X128278449Y-110313730D01*
X128195187Y-110415187D01*
X128093730Y-110498449D01*
X128057992Y-110527779D01*
X128057990Y-110527780D01*
X127901468Y-110611444D01*
X127844854Y-110628617D01*
X127731628Y-110662964D01*
X127665444Y-110669482D01*
X127599261Y-110676001D01*
X127510741Y-110676001D01*
X127444558Y-110669482D01*
X127378374Y-110662964D01*
X127265148Y-110628617D01*
X127208534Y-110611444D01*
X127052012Y-110527780D01*
X127052010Y-110527779D01*
X127016272Y-110498449D01*
X126914815Y-110415187D01*
X126831553Y-110313730D01*
X126802223Y-110277992D01*
X126792653Y-110260088D01*
X126718558Y-110121468D01*
X126701385Y-110064854D01*
X126667038Y-109951628D01*
X126649642Y-109775001D01*
X126667038Y-109598374D01*
X126718558Y-109428535D01*
X126718558Y-109428534D01*
X126802222Y-109272012D01*
X126802223Y-109272010D01*
X126831553Y-109236272D01*
X126914815Y-109134815D01*
X127016272Y-109051553D01*
X127052010Y-109022223D01*
X127069914Y-109012653D01*
X127208534Y-108938558D01*
X127265148Y-108921385D01*
X127378374Y-108887038D01*
X127444559Y-108880519D01*
X127510741Y-108874001D01*
X127599261Y-108874001D01*
X127665443Y-108880519D01*
X127665443Y-108880519D01*
G37*
G36*
X130205443Y-108880519D02*
X130271628Y-108887038D01*
X130384854Y-108921385D01*
X130441468Y-108938558D01*
X130580088Y-109012653D01*
X130597992Y-109022223D01*
X130633730Y-109051553D01*
X130735187Y-109134815D01*
X130818449Y-109236272D01*
X130847779Y-109272010D01*
X130847780Y-109272012D01*
X130931444Y-109428534D01*
X130931444Y-109428535D01*
X130982964Y-109598374D01*
X131000360Y-109775001D01*
X130982964Y-109951628D01*
X130948617Y-110064854D01*
X130931444Y-110121468D01*
X130857349Y-110260088D01*
X130847779Y-110277992D01*
X130818449Y-110313730D01*
X130735187Y-110415187D01*
X130633730Y-110498449D01*
X130597992Y-110527779D01*
X130597990Y-110527780D01*
X130441468Y-110611444D01*
X130384854Y-110628617D01*
X130271628Y-110662964D01*
X130205444Y-110669482D01*
X130139261Y-110676001D01*
X130050741Y-110676001D01*
X129984558Y-110669482D01*
X129918374Y-110662964D01*
X129805148Y-110628617D01*
X129748534Y-110611444D01*
X129592012Y-110527780D01*
X129592010Y-110527779D01*
X129556272Y-110498449D01*
X129454815Y-110415187D01*
X129371553Y-110313730D01*
X129342223Y-110277992D01*
X129332653Y-110260088D01*
X129258558Y-110121468D01*
X129241385Y-110064854D01*
X129207038Y-109951628D01*
X129189642Y-109775001D01*
X129207038Y-109598374D01*
X129258558Y-109428535D01*
X129258558Y-109428534D01*
X129342222Y-109272012D01*
X129342223Y-109272010D01*
X129371553Y-109236272D01*
X129454815Y-109134815D01*
X129556272Y-109051553D01*
X129592010Y-109022223D01*
X129609914Y-109012653D01*
X129748534Y-108938558D01*
X129805148Y-108921385D01*
X129918374Y-108887038D01*
X129984559Y-108880519D01*
X130050741Y-108874001D01*
X130139261Y-108874001D01*
X130205443Y-108880519D01*
X130205443Y-108880519D01*
G37*
G36*
X127665443Y-106340519D02*
X127731628Y-106347038D01*
X127844854Y-106381385D01*
X127901468Y-106398558D01*
X128040088Y-106472653D01*
X128057992Y-106482223D01*
X128093730Y-106511553D01*
X128195187Y-106594815D01*
X128278449Y-106696272D01*
X128307779Y-106732010D01*
X128307780Y-106732012D01*
X128391444Y-106888534D01*
X128391444Y-106888535D01*
X128442964Y-107058374D01*
X128460360Y-107235001D01*
X128442964Y-107411628D01*
X128408617Y-107524854D01*
X128391444Y-107581468D01*
X128317349Y-107720088D01*
X128307779Y-107737992D01*
X128278449Y-107773730D01*
X128195187Y-107875187D01*
X128093730Y-107958449D01*
X128057992Y-107987779D01*
X128057990Y-107987780D01*
X127901468Y-108071444D01*
X127844854Y-108088617D01*
X127731628Y-108122964D01*
X127665443Y-108129483D01*
X127599261Y-108136001D01*
X127510741Y-108136001D01*
X127444559Y-108129483D01*
X127378374Y-108122964D01*
X127265148Y-108088617D01*
X127208534Y-108071444D01*
X127052012Y-107987780D01*
X127052010Y-107987779D01*
X127016272Y-107958449D01*
X126914815Y-107875187D01*
X126831553Y-107773730D01*
X126802223Y-107737992D01*
X126792653Y-107720088D01*
X126718558Y-107581468D01*
X126701385Y-107524854D01*
X126667038Y-107411628D01*
X126649642Y-107235001D01*
X126667038Y-107058374D01*
X126718558Y-106888535D01*
X126718558Y-106888534D01*
X126802222Y-106732012D01*
X126802223Y-106732010D01*
X126831553Y-106696272D01*
X126914815Y-106594815D01*
X127016272Y-106511553D01*
X127052010Y-106482223D01*
X127069914Y-106472653D01*
X127208534Y-106398558D01*
X127265148Y-106381385D01*
X127378374Y-106347038D01*
X127444559Y-106340519D01*
X127510741Y-106334001D01*
X127599261Y-106334001D01*
X127665443Y-106340519D01*
X127665443Y-106340519D01*
G37*
G36*
X130205443Y-106340519D02*
X130271628Y-106347038D01*
X130384854Y-106381385D01*
X130441468Y-106398558D01*
X130580088Y-106472653D01*
X130597992Y-106482223D01*
X130633730Y-106511553D01*
X130735187Y-106594815D01*
X130818449Y-106696272D01*
X130847779Y-106732010D01*
X130847780Y-106732012D01*
X130931444Y-106888534D01*
X130931444Y-106888535D01*
X130982964Y-107058374D01*
X131000360Y-107235001D01*
X130982964Y-107411628D01*
X130948617Y-107524854D01*
X130931444Y-107581468D01*
X130857349Y-107720088D01*
X130847779Y-107737992D01*
X130818449Y-107773730D01*
X130735187Y-107875187D01*
X130633730Y-107958449D01*
X130597992Y-107987779D01*
X130597990Y-107987780D01*
X130441468Y-108071444D01*
X130384854Y-108088617D01*
X130271628Y-108122964D01*
X130205443Y-108129483D01*
X130139261Y-108136001D01*
X130050741Y-108136001D01*
X129984559Y-108129483D01*
X129918374Y-108122964D01*
X129805148Y-108088617D01*
X129748534Y-108071444D01*
X129592012Y-107987780D01*
X129592010Y-107987779D01*
X129556272Y-107958449D01*
X129454815Y-107875187D01*
X129371553Y-107773730D01*
X129342223Y-107737992D01*
X129332653Y-107720088D01*
X129258558Y-107581468D01*
X129241385Y-107524854D01*
X129207038Y-107411628D01*
X129189642Y-107235001D01*
X129207038Y-107058374D01*
X129258558Y-106888535D01*
X129258558Y-106888534D01*
X129342222Y-106732012D01*
X129342223Y-106732010D01*
X129371553Y-106696272D01*
X129454815Y-106594815D01*
X129556272Y-106511553D01*
X129592010Y-106482223D01*
X129609914Y-106472653D01*
X129748534Y-106398558D01*
X129805148Y-106381385D01*
X129918374Y-106347038D01*
X129984559Y-106340519D01*
X130050741Y-106334001D01*
X130139261Y-106334001D01*
X130205443Y-106340519D01*
X130205443Y-106340519D01*
G37*
G36*
X127665444Y-103800520D02*
X127731628Y-103807038D01*
X127844854Y-103841385D01*
X127901468Y-103858558D01*
X128040088Y-103932653D01*
X128057992Y-103942223D01*
X128093730Y-103971553D01*
X128195187Y-104054815D01*
X128278449Y-104156272D01*
X128307779Y-104192010D01*
X128307780Y-104192012D01*
X128391444Y-104348534D01*
X128391444Y-104348535D01*
X128442964Y-104518374D01*
X128460360Y-104695001D01*
X128442964Y-104871628D01*
X128408617Y-104984854D01*
X128391444Y-105041468D01*
X128317349Y-105180088D01*
X128307779Y-105197992D01*
X128278449Y-105233730D01*
X128195187Y-105335187D01*
X128093730Y-105418449D01*
X128057992Y-105447779D01*
X128057990Y-105447780D01*
X127901468Y-105531444D01*
X127844854Y-105548617D01*
X127731628Y-105582964D01*
X127665444Y-105589482D01*
X127599261Y-105596001D01*
X127510741Y-105596001D01*
X127444558Y-105589482D01*
X127378374Y-105582964D01*
X127265148Y-105548617D01*
X127208534Y-105531444D01*
X127052012Y-105447780D01*
X127052010Y-105447779D01*
X127016272Y-105418449D01*
X126914815Y-105335187D01*
X126831553Y-105233730D01*
X126802223Y-105197992D01*
X126792653Y-105180088D01*
X126718558Y-105041468D01*
X126701385Y-104984854D01*
X126667038Y-104871628D01*
X126649642Y-104695001D01*
X126667038Y-104518374D01*
X126718558Y-104348535D01*
X126718558Y-104348534D01*
X126802222Y-104192012D01*
X126802223Y-104192010D01*
X126831553Y-104156272D01*
X126914815Y-104054815D01*
X127016272Y-103971553D01*
X127052010Y-103942223D01*
X127069914Y-103932653D01*
X127208534Y-103858558D01*
X127265148Y-103841385D01*
X127378374Y-103807038D01*
X127444558Y-103800520D01*
X127510741Y-103794001D01*
X127599261Y-103794001D01*
X127665444Y-103800520D01*
X127665444Y-103800520D01*
G37*
G36*
X130205444Y-103800520D02*
X130271628Y-103807038D01*
X130384854Y-103841385D01*
X130441468Y-103858558D01*
X130580088Y-103932653D01*
X130597992Y-103942223D01*
X130633730Y-103971553D01*
X130735187Y-104054815D01*
X130818449Y-104156272D01*
X130847779Y-104192010D01*
X130847780Y-104192012D01*
X130931444Y-104348534D01*
X130931444Y-104348535D01*
X130982964Y-104518374D01*
X131000360Y-104695001D01*
X130982964Y-104871628D01*
X130948617Y-104984854D01*
X130931444Y-105041468D01*
X130857349Y-105180088D01*
X130847779Y-105197992D01*
X130818449Y-105233730D01*
X130735187Y-105335187D01*
X130633730Y-105418449D01*
X130597992Y-105447779D01*
X130597990Y-105447780D01*
X130441468Y-105531444D01*
X130384854Y-105548617D01*
X130271628Y-105582964D01*
X130205444Y-105589482D01*
X130139261Y-105596001D01*
X130050741Y-105596001D01*
X129984558Y-105589482D01*
X129918374Y-105582964D01*
X129805148Y-105548617D01*
X129748534Y-105531444D01*
X129592012Y-105447780D01*
X129592010Y-105447779D01*
X129556272Y-105418449D01*
X129454815Y-105335187D01*
X129371553Y-105233730D01*
X129342223Y-105197992D01*
X129332653Y-105180088D01*
X129258558Y-105041468D01*
X129241385Y-104984854D01*
X129207038Y-104871628D01*
X129189642Y-104695001D01*
X129207038Y-104518374D01*
X129258558Y-104348535D01*
X129258558Y-104348534D01*
X129342222Y-104192012D01*
X129342223Y-104192010D01*
X129371553Y-104156272D01*
X129454815Y-104054815D01*
X129556272Y-103971553D01*
X129592010Y-103942223D01*
X129609914Y-103932653D01*
X129748534Y-103858558D01*
X129805148Y-103841385D01*
X129918374Y-103807038D01*
X129984558Y-103800520D01*
X130050741Y-103794001D01*
X130139261Y-103794001D01*
X130205444Y-103800520D01*
X130205444Y-103800520D01*
G37*
G36*
X127665444Y-101260520D02*
X127731628Y-101267038D01*
X127844854Y-101301385D01*
X127901468Y-101318558D01*
X128040088Y-101392653D01*
X128057992Y-101402223D01*
X128093730Y-101431553D01*
X128195187Y-101514815D01*
X128278449Y-101616272D01*
X128307779Y-101652010D01*
X128307780Y-101652012D01*
X128391444Y-101808534D01*
X128391444Y-101808535D01*
X128442964Y-101978374D01*
X128460360Y-102155001D01*
X128442964Y-102331628D01*
X128408617Y-102444854D01*
X128391444Y-102501468D01*
X128317349Y-102640088D01*
X128307779Y-102657992D01*
X128278449Y-102693730D01*
X128195187Y-102795187D01*
X128093730Y-102878449D01*
X128057992Y-102907779D01*
X128057990Y-102907780D01*
X127901468Y-102991444D01*
X127844854Y-103008617D01*
X127731628Y-103042964D01*
X127665444Y-103049482D01*
X127599261Y-103056001D01*
X127510741Y-103056001D01*
X127444558Y-103049482D01*
X127378374Y-103042964D01*
X127265148Y-103008617D01*
X127208534Y-102991444D01*
X127052012Y-102907780D01*
X127052010Y-102907779D01*
X127016272Y-102878449D01*
X126914815Y-102795187D01*
X126831553Y-102693730D01*
X126802223Y-102657992D01*
X126792653Y-102640088D01*
X126718558Y-102501468D01*
X126701385Y-102444854D01*
X126667038Y-102331628D01*
X126649642Y-102155001D01*
X126667038Y-101978374D01*
X126718558Y-101808535D01*
X126718558Y-101808534D01*
X126802222Y-101652012D01*
X126802223Y-101652010D01*
X126831553Y-101616272D01*
X126914815Y-101514815D01*
X127016272Y-101431553D01*
X127052010Y-101402223D01*
X127069914Y-101392653D01*
X127208534Y-101318558D01*
X127265148Y-101301385D01*
X127378374Y-101267038D01*
X127444559Y-101260519D01*
X127510741Y-101254001D01*
X127599261Y-101254001D01*
X127665444Y-101260520D01*
X127665444Y-101260520D01*
G37*
G36*
X130205444Y-101260520D02*
X130271628Y-101267038D01*
X130384854Y-101301385D01*
X130441468Y-101318558D01*
X130580088Y-101392653D01*
X130597992Y-101402223D01*
X130633730Y-101431553D01*
X130735187Y-101514815D01*
X130818449Y-101616272D01*
X130847779Y-101652010D01*
X130847780Y-101652012D01*
X130931444Y-101808534D01*
X130931444Y-101808535D01*
X130982964Y-101978374D01*
X131000360Y-102155001D01*
X130982964Y-102331628D01*
X130948617Y-102444854D01*
X130931444Y-102501468D01*
X130857349Y-102640088D01*
X130847779Y-102657992D01*
X130818449Y-102693730D01*
X130735187Y-102795187D01*
X130633730Y-102878449D01*
X130597992Y-102907779D01*
X130597990Y-102907780D01*
X130441468Y-102991444D01*
X130384854Y-103008617D01*
X130271628Y-103042964D01*
X130205444Y-103049482D01*
X130139261Y-103056001D01*
X130050741Y-103056001D01*
X129984558Y-103049482D01*
X129918374Y-103042964D01*
X129805148Y-103008617D01*
X129748534Y-102991444D01*
X129592012Y-102907780D01*
X129592010Y-102907779D01*
X129556272Y-102878449D01*
X129454815Y-102795187D01*
X129371553Y-102693730D01*
X129342223Y-102657992D01*
X129332653Y-102640088D01*
X129258558Y-102501468D01*
X129241385Y-102444854D01*
X129207038Y-102331628D01*
X129189642Y-102155001D01*
X129207038Y-101978374D01*
X129258558Y-101808535D01*
X129258558Y-101808534D01*
X129342222Y-101652012D01*
X129342223Y-101652010D01*
X129371553Y-101616272D01*
X129454815Y-101514815D01*
X129556272Y-101431553D01*
X129592010Y-101402223D01*
X129609914Y-101392653D01*
X129748534Y-101318558D01*
X129805148Y-101301385D01*
X129918374Y-101267038D01*
X129984559Y-101260519D01*
X130050741Y-101254001D01*
X130139261Y-101254001D01*
X130205444Y-101260520D01*
X130205444Y-101260520D01*
G37*
G36*
X127665444Y-98720520D02*
X127731628Y-98727038D01*
X127844854Y-98761385D01*
X127901468Y-98778558D01*
X128040088Y-98852653D01*
X128057992Y-98862223D01*
X128093730Y-98891553D01*
X128195187Y-98974815D01*
X128278449Y-99076272D01*
X128307779Y-99112010D01*
X128307780Y-99112012D01*
X128391444Y-99268534D01*
X128391444Y-99268535D01*
X128442964Y-99438374D01*
X128460360Y-99615001D01*
X128442964Y-99791628D01*
X128408617Y-99904854D01*
X128391444Y-99961468D01*
X128317349Y-100100088D01*
X128307779Y-100117992D01*
X128278449Y-100153730D01*
X128195187Y-100255187D01*
X128093730Y-100338449D01*
X128057992Y-100367779D01*
X128057990Y-100367780D01*
X127901468Y-100451444D01*
X127844854Y-100468617D01*
X127731628Y-100502964D01*
X127665443Y-100509483D01*
X127599261Y-100516001D01*
X127510741Y-100516001D01*
X127444558Y-100509482D01*
X127378374Y-100502964D01*
X127265148Y-100468617D01*
X127208534Y-100451444D01*
X127052012Y-100367780D01*
X127052010Y-100367779D01*
X127016272Y-100338449D01*
X126914815Y-100255187D01*
X126831553Y-100153730D01*
X126802223Y-100117992D01*
X126792653Y-100100088D01*
X126718558Y-99961468D01*
X126701385Y-99904854D01*
X126667038Y-99791628D01*
X126649642Y-99615001D01*
X126667038Y-99438374D01*
X126718558Y-99268535D01*
X126718558Y-99268534D01*
X126802222Y-99112012D01*
X126802223Y-99112010D01*
X126831553Y-99076272D01*
X126914815Y-98974815D01*
X127016272Y-98891553D01*
X127052010Y-98862223D01*
X127069914Y-98852653D01*
X127208534Y-98778558D01*
X127265148Y-98761385D01*
X127378374Y-98727038D01*
X127444559Y-98720519D01*
X127510741Y-98714001D01*
X127599261Y-98714001D01*
X127665444Y-98720520D01*
X127665444Y-98720520D01*
G37*
G36*
X130205444Y-98720520D02*
X130271628Y-98727038D01*
X130384854Y-98761385D01*
X130441468Y-98778558D01*
X130580088Y-98852653D01*
X130597992Y-98862223D01*
X130633730Y-98891553D01*
X130735187Y-98974815D01*
X130818449Y-99076272D01*
X130847779Y-99112010D01*
X130847780Y-99112012D01*
X130931444Y-99268534D01*
X130931444Y-99268535D01*
X130982964Y-99438374D01*
X131000360Y-99615001D01*
X130982964Y-99791628D01*
X130948617Y-99904854D01*
X130931444Y-99961468D01*
X130857349Y-100100088D01*
X130847779Y-100117992D01*
X130818449Y-100153730D01*
X130735187Y-100255187D01*
X130633730Y-100338449D01*
X130597992Y-100367779D01*
X130597990Y-100367780D01*
X130441468Y-100451444D01*
X130384854Y-100468617D01*
X130271628Y-100502964D01*
X130205443Y-100509483D01*
X130139261Y-100516001D01*
X130050741Y-100516001D01*
X129984558Y-100509482D01*
X129918374Y-100502964D01*
X129805148Y-100468617D01*
X129748534Y-100451444D01*
X129592012Y-100367780D01*
X129592010Y-100367779D01*
X129556272Y-100338449D01*
X129454815Y-100255187D01*
X129371553Y-100153730D01*
X129342223Y-100117992D01*
X129332653Y-100100088D01*
X129258558Y-99961468D01*
X129241385Y-99904854D01*
X129207038Y-99791628D01*
X129189642Y-99615001D01*
X129207038Y-99438374D01*
X129258558Y-99268535D01*
X129258558Y-99268534D01*
X129342222Y-99112012D01*
X129342223Y-99112010D01*
X129371553Y-99076272D01*
X129454815Y-98974815D01*
X129556272Y-98891553D01*
X129592010Y-98862223D01*
X129609914Y-98852653D01*
X129748534Y-98778558D01*
X129805148Y-98761385D01*
X129918374Y-98727038D01*
X129984559Y-98720519D01*
X130050741Y-98714001D01*
X130139261Y-98714001D01*
X130205444Y-98720520D01*
X130205444Y-98720520D01*
G37*
G36*
X127665443Y-96180519D02*
X127731628Y-96187038D01*
X127844854Y-96221385D01*
X127901468Y-96238558D01*
X128040088Y-96312653D01*
X128057992Y-96322223D01*
X128093730Y-96351553D01*
X128195187Y-96434815D01*
X128278449Y-96536272D01*
X128307779Y-96572010D01*
X128307780Y-96572012D01*
X128391444Y-96728534D01*
X128391444Y-96728535D01*
X128442964Y-96898374D01*
X128460360Y-97075001D01*
X128442964Y-97251628D01*
X128408617Y-97364854D01*
X128391444Y-97421468D01*
X128317349Y-97560088D01*
X128307779Y-97577992D01*
X128278449Y-97613730D01*
X128195187Y-97715187D01*
X128093730Y-97798449D01*
X128057992Y-97827779D01*
X128057990Y-97827780D01*
X127901468Y-97911444D01*
X127844854Y-97928617D01*
X127731628Y-97962964D01*
X127665444Y-97969482D01*
X127599261Y-97976001D01*
X127510741Y-97976001D01*
X127444559Y-97969483D01*
X127378374Y-97962964D01*
X127265148Y-97928617D01*
X127208534Y-97911444D01*
X127052012Y-97827780D01*
X127052010Y-97827779D01*
X127016272Y-97798449D01*
X126914815Y-97715187D01*
X126831553Y-97613730D01*
X126802223Y-97577992D01*
X126792653Y-97560088D01*
X126718558Y-97421468D01*
X126701385Y-97364854D01*
X126667038Y-97251628D01*
X126649642Y-97075001D01*
X126667038Y-96898374D01*
X126718558Y-96728535D01*
X126718558Y-96728534D01*
X126802222Y-96572012D01*
X126802223Y-96572010D01*
X126831553Y-96536272D01*
X126914815Y-96434815D01*
X127016272Y-96351553D01*
X127052010Y-96322223D01*
X127069914Y-96312653D01*
X127208534Y-96238558D01*
X127265148Y-96221385D01*
X127378374Y-96187038D01*
X127444558Y-96180520D01*
X127510741Y-96174001D01*
X127599261Y-96174001D01*
X127665443Y-96180519D01*
X127665443Y-96180519D01*
G37*
G36*
X130205443Y-96180519D02*
X130271628Y-96187038D01*
X130384854Y-96221385D01*
X130441468Y-96238558D01*
X130580088Y-96312653D01*
X130597992Y-96322223D01*
X130633730Y-96351553D01*
X130735187Y-96434815D01*
X130818449Y-96536272D01*
X130847779Y-96572010D01*
X130847780Y-96572012D01*
X130931444Y-96728534D01*
X130931444Y-96728535D01*
X130982964Y-96898374D01*
X131000360Y-97075001D01*
X130982964Y-97251628D01*
X130948617Y-97364854D01*
X130931444Y-97421468D01*
X130857349Y-97560088D01*
X130847779Y-97577992D01*
X130818449Y-97613730D01*
X130735187Y-97715187D01*
X130633730Y-97798449D01*
X130597992Y-97827779D01*
X130597990Y-97827780D01*
X130441468Y-97911444D01*
X130384854Y-97928617D01*
X130271628Y-97962964D01*
X130205444Y-97969482D01*
X130139261Y-97976001D01*
X130050741Y-97976001D01*
X129984559Y-97969483D01*
X129918374Y-97962964D01*
X129805148Y-97928617D01*
X129748534Y-97911444D01*
X129592012Y-97827780D01*
X129592010Y-97827779D01*
X129556272Y-97798449D01*
X129454815Y-97715187D01*
X129371553Y-97613730D01*
X129342223Y-97577992D01*
X129332653Y-97560088D01*
X129258558Y-97421468D01*
X129241385Y-97364854D01*
X129207038Y-97251628D01*
X129189642Y-97075001D01*
X129207038Y-96898374D01*
X129258558Y-96728535D01*
X129258558Y-96728534D01*
X129342222Y-96572012D01*
X129342223Y-96572010D01*
X129371553Y-96536272D01*
X129454815Y-96434815D01*
X129556272Y-96351553D01*
X129592010Y-96322223D01*
X129609914Y-96312653D01*
X129748534Y-96238558D01*
X129805148Y-96221385D01*
X129918374Y-96187038D01*
X129984558Y-96180520D01*
X130050741Y-96174001D01*
X130139261Y-96174001D01*
X130205443Y-96180519D01*
X130205443Y-96180519D01*
G37*
G36*
X130205444Y-93640520D02*
X130271628Y-93647038D01*
X130384854Y-93681385D01*
X130441468Y-93698558D01*
X130580088Y-93772653D01*
X130597992Y-93782223D01*
X130633730Y-93811553D01*
X130735187Y-93894815D01*
X130818449Y-93996272D01*
X130847779Y-94032010D01*
X130847780Y-94032012D01*
X130931444Y-94188534D01*
X130931444Y-94188535D01*
X130982964Y-94358374D01*
X131000360Y-94535001D01*
X130982964Y-94711628D01*
X130948617Y-94824854D01*
X130931444Y-94881468D01*
X130857349Y-95020088D01*
X130847779Y-95037992D01*
X130818449Y-95073730D01*
X130735187Y-95175187D01*
X130633730Y-95258449D01*
X130597992Y-95287779D01*
X130597990Y-95287780D01*
X130441468Y-95371444D01*
X130384854Y-95388617D01*
X130271628Y-95422964D01*
X130205443Y-95429483D01*
X130139261Y-95436001D01*
X130050741Y-95436001D01*
X129984559Y-95429483D01*
X129918374Y-95422964D01*
X129805148Y-95388617D01*
X129748534Y-95371444D01*
X129592012Y-95287780D01*
X129592010Y-95287779D01*
X129556272Y-95258449D01*
X129454815Y-95175187D01*
X129371553Y-95073730D01*
X129342223Y-95037992D01*
X129332653Y-95020088D01*
X129258558Y-94881468D01*
X129241385Y-94824854D01*
X129207038Y-94711628D01*
X129189642Y-94535001D01*
X129207038Y-94358374D01*
X129258558Y-94188535D01*
X129258558Y-94188534D01*
X129342222Y-94032012D01*
X129342223Y-94032010D01*
X129371553Y-93996272D01*
X129454815Y-93894815D01*
X129556272Y-93811553D01*
X129592010Y-93782223D01*
X129609914Y-93772653D01*
X129748534Y-93698558D01*
X129805148Y-93681385D01*
X129918374Y-93647038D01*
X129984559Y-93640519D01*
X130050741Y-93634001D01*
X130139261Y-93634001D01*
X130205444Y-93640520D01*
X130205444Y-93640520D01*
G37*
G36*
X127665444Y-93640520D02*
X127731628Y-93647038D01*
X127844854Y-93681385D01*
X127901468Y-93698558D01*
X128040088Y-93772653D01*
X128057992Y-93782223D01*
X128093730Y-93811553D01*
X128195187Y-93894815D01*
X128278449Y-93996272D01*
X128307779Y-94032010D01*
X128307780Y-94032012D01*
X128391444Y-94188534D01*
X128391444Y-94188535D01*
X128442964Y-94358374D01*
X128460360Y-94535001D01*
X128442964Y-94711628D01*
X128408617Y-94824854D01*
X128391444Y-94881468D01*
X128317349Y-95020088D01*
X128307779Y-95037992D01*
X128278449Y-95073730D01*
X128195187Y-95175187D01*
X128093730Y-95258449D01*
X128057992Y-95287779D01*
X128057990Y-95287780D01*
X127901468Y-95371444D01*
X127844854Y-95388617D01*
X127731628Y-95422964D01*
X127665443Y-95429483D01*
X127599261Y-95436001D01*
X127510741Y-95436001D01*
X127444559Y-95429483D01*
X127378374Y-95422964D01*
X127265148Y-95388617D01*
X127208534Y-95371444D01*
X127052012Y-95287780D01*
X127052010Y-95287779D01*
X127016272Y-95258449D01*
X126914815Y-95175187D01*
X126831553Y-95073730D01*
X126802223Y-95037992D01*
X126792653Y-95020088D01*
X126718558Y-94881468D01*
X126701385Y-94824854D01*
X126667038Y-94711628D01*
X126649642Y-94535001D01*
X126667038Y-94358374D01*
X126718558Y-94188535D01*
X126718558Y-94188534D01*
X126802222Y-94032012D01*
X126802223Y-94032010D01*
X126831553Y-93996272D01*
X126914815Y-93894815D01*
X127016272Y-93811553D01*
X127052010Y-93782223D01*
X127069914Y-93772653D01*
X127208534Y-93698558D01*
X127265148Y-93681385D01*
X127378374Y-93647038D01*
X127444559Y-93640519D01*
X127510741Y-93634001D01*
X127599261Y-93634001D01*
X127665444Y-93640520D01*
X127665444Y-93640520D01*
G37*
G36*
X130205443Y-91100519D02*
X130271628Y-91107038D01*
X130384854Y-91141385D01*
X130441468Y-91158558D01*
X130580088Y-91232653D01*
X130597992Y-91242223D01*
X130633730Y-91271553D01*
X130735187Y-91354815D01*
X130818449Y-91456272D01*
X130847779Y-91492010D01*
X130847780Y-91492012D01*
X130931444Y-91648534D01*
X130931444Y-91648535D01*
X130982964Y-91818374D01*
X131000360Y-91995001D01*
X130982964Y-92171628D01*
X130948617Y-92284854D01*
X130931444Y-92341468D01*
X130857349Y-92480088D01*
X130847779Y-92497992D01*
X130818449Y-92533730D01*
X130735187Y-92635187D01*
X130633730Y-92718449D01*
X130597992Y-92747779D01*
X130597990Y-92747780D01*
X130441468Y-92831444D01*
X130384854Y-92848617D01*
X130271628Y-92882964D01*
X130205444Y-92889482D01*
X130139261Y-92896001D01*
X130050741Y-92896001D01*
X129984558Y-92889482D01*
X129918374Y-92882964D01*
X129805148Y-92848617D01*
X129748534Y-92831444D01*
X129592012Y-92747780D01*
X129592010Y-92747779D01*
X129556272Y-92718449D01*
X129454815Y-92635187D01*
X129371553Y-92533730D01*
X129342223Y-92497992D01*
X129332653Y-92480088D01*
X129258558Y-92341468D01*
X129241385Y-92284854D01*
X129207038Y-92171628D01*
X129189642Y-91995001D01*
X129207038Y-91818374D01*
X129258558Y-91648535D01*
X129258558Y-91648534D01*
X129342222Y-91492012D01*
X129342223Y-91492010D01*
X129371553Y-91456272D01*
X129454815Y-91354815D01*
X129556272Y-91271553D01*
X129592010Y-91242223D01*
X129609914Y-91232653D01*
X129748534Y-91158558D01*
X129805148Y-91141385D01*
X129918374Y-91107038D01*
X129984559Y-91100519D01*
X130050741Y-91094001D01*
X130139261Y-91094001D01*
X130205443Y-91100519D01*
X130205443Y-91100519D01*
G37*
G36*
X127665443Y-91100519D02*
X127731628Y-91107038D01*
X127844854Y-91141385D01*
X127901468Y-91158558D01*
X128040088Y-91232653D01*
X128057992Y-91242223D01*
X128093730Y-91271553D01*
X128195187Y-91354815D01*
X128278449Y-91456272D01*
X128307779Y-91492010D01*
X128307780Y-91492012D01*
X128391444Y-91648534D01*
X128391444Y-91648535D01*
X128442964Y-91818374D01*
X128460360Y-91995001D01*
X128442964Y-92171628D01*
X128408617Y-92284854D01*
X128391444Y-92341468D01*
X128317349Y-92480088D01*
X128307779Y-92497992D01*
X128278449Y-92533730D01*
X128195187Y-92635187D01*
X128093730Y-92718449D01*
X128057992Y-92747779D01*
X128057990Y-92747780D01*
X127901468Y-92831444D01*
X127844854Y-92848617D01*
X127731628Y-92882964D01*
X127665444Y-92889482D01*
X127599261Y-92896001D01*
X127510741Y-92896001D01*
X127444558Y-92889482D01*
X127378374Y-92882964D01*
X127265148Y-92848617D01*
X127208534Y-92831444D01*
X127052012Y-92747780D01*
X127052010Y-92747779D01*
X127016272Y-92718449D01*
X126914815Y-92635187D01*
X126831553Y-92533730D01*
X126802223Y-92497992D01*
X126792653Y-92480088D01*
X126718558Y-92341468D01*
X126701385Y-92284854D01*
X126667038Y-92171628D01*
X126649642Y-91995001D01*
X126667038Y-91818374D01*
X126718558Y-91648535D01*
X126718558Y-91648534D01*
X126802222Y-91492012D01*
X126802223Y-91492010D01*
X126831553Y-91456272D01*
X126914815Y-91354815D01*
X127016272Y-91271553D01*
X127052010Y-91242223D01*
X127069914Y-91232653D01*
X127208534Y-91158558D01*
X127265148Y-91141385D01*
X127378374Y-91107038D01*
X127444559Y-91100519D01*
X127510741Y-91094001D01*
X127599261Y-91094001D01*
X127665443Y-91100519D01*
X127665443Y-91100519D01*
G37*
G36*
X130205444Y-88560520D02*
X130271628Y-88567038D01*
X130384854Y-88601385D01*
X130441468Y-88618558D01*
X130580088Y-88692653D01*
X130597992Y-88702223D01*
X130633730Y-88731553D01*
X130735187Y-88814815D01*
X130818449Y-88916272D01*
X130847779Y-88952010D01*
X130847780Y-88952012D01*
X130931444Y-89108534D01*
X130931444Y-89108535D01*
X130982964Y-89278374D01*
X131000360Y-89455001D01*
X130982964Y-89631628D01*
X130948617Y-89744854D01*
X130931444Y-89801468D01*
X130857349Y-89940088D01*
X130847779Y-89957992D01*
X130818449Y-89993730D01*
X130735187Y-90095187D01*
X130633730Y-90178449D01*
X130597992Y-90207779D01*
X130597990Y-90207780D01*
X130441468Y-90291444D01*
X130384854Y-90308617D01*
X130271628Y-90342964D01*
X130205444Y-90349482D01*
X130139261Y-90356001D01*
X130050741Y-90356001D01*
X129984558Y-90349482D01*
X129918374Y-90342964D01*
X129805148Y-90308617D01*
X129748534Y-90291444D01*
X129592012Y-90207780D01*
X129592010Y-90207779D01*
X129556272Y-90178449D01*
X129454815Y-90095187D01*
X129371553Y-89993730D01*
X129342223Y-89957992D01*
X129332653Y-89940088D01*
X129258558Y-89801468D01*
X129241385Y-89744854D01*
X129207038Y-89631628D01*
X129189642Y-89455001D01*
X129207038Y-89278374D01*
X129258558Y-89108535D01*
X129258558Y-89108534D01*
X129342222Y-88952012D01*
X129342223Y-88952010D01*
X129371553Y-88916272D01*
X129454815Y-88814815D01*
X129556272Y-88731553D01*
X129592010Y-88702223D01*
X129609914Y-88692653D01*
X129748534Y-88618558D01*
X129805148Y-88601385D01*
X129918374Y-88567038D01*
X129984558Y-88560520D01*
X130050741Y-88554001D01*
X130139261Y-88554001D01*
X130205444Y-88560520D01*
X130205444Y-88560520D01*
G37*
G36*
X127665444Y-88560520D02*
X127731628Y-88567038D01*
X127844854Y-88601385D01*
X127901468Y-88618558D01*
X128040088Y-88692653D01*
X128057992Y-88702223D01*
X128093730Y-88731553D01*
X128195187Y-88814815D01*
X128278449Y-88916272D01*
X128307779Y-88952010D01*
X128307780Y-88952012D01*
X128391444Y-89108534D01*
X128391444Y-89108535D01*
X128442964Y-89278374D01*
X128460360Y-89455001D01*
X128442964Y-89631628D01*
X128408617Y-89744854D01*
X128391444Y-89801468D01*
X128317349Y-89940088D01*
X128307779Y-89957992D01*
X128278449Y-89993730D01*
X128195187Y-90095187D01*
X128093730Y-90178449D01*
X128057992Y-90207779D01*
X128057990Y-90207780D01*
X127901468Y-90291444D01*
X127844854Y-90308617D01*
X127731628Y-90342964D01*
X127665444Y-90349482D01*
X127599261Y-90356001D01*
X127510741Y-90356001D01*
X127444558Y-90349482D01*
X127378374Y-90342964D01*
X127265148Y-90308617D01*
X127208534Y-90291444D01*
X127052012Y-90207780D01*
X127052010Y-90207779D01*
X127016272Y-90178449D01*
X126914815Y-90095187D01*
X126831553Y-89993730D01*
X126802223Y-89957992D01*
X126792653Y-89940088D01*
X126718558Y-89801468D01*
X126701385Y-89744854D01*
X126667038Y-89631628D01*
X126649642Y-89455001D01*
X126667038Y-89278374D01*
X126718558Y-89108535D01*
X126718558Y-89108534D01*
X126802222Y-88952012D01*
X126802223Y-88952010D01*
X126831553Y-88916272D01*
X126914815Y-88814815D01*
X127016272Y-88731553D01*
X127052010Y-88702223D01*
X127069914Y-88692653D01*
X127208534Y-88618558D01*
X127265148Y-88601385D01*
X127378374Y-88567038D01*
X127444558Y-88560520D01*
X127510741Y-88554001D01*
X127599261Y-88554001D01*
X127665444Y-88560520D01*
X127665444Y-88560520D01*
G37*
G36*
X127665443Y-86020519D02*
X127731628Y-86027038D01*
X127844854Y-86061385D01*
X127901468Y-86078558D01*
X128040088Y-86152653D01*
X128057992Y-86162223D01*
X128093730Y-86191553D01*
X128195187Y-86274815D01*
X128278449Y-86376272D01*
X128307779Y-86412010D01*
X128307780Y-86412012D01*
X128391444Y-86568534D01*
X128391444Y-86568535D01*
X128442964Y-86738374D01*
X128460360Y-86915001D01*
X128442964Y-87091628D01*
X128408617Y-87204854D01*
X128391444Y-87261468D01*
X128317349Y-87400088D01*
X128307779Y-87417992D01*
X128278449Y-87453730D01*
X128195187Y-87555187D01*
X128093730Y-87638449D01*
X128057992Y-87667779D01*
X128057990Y-87667780D01*
X127901468Y-87751444D01*
X127844854Y-87768617D01*
X127731628Y-87802964D01*
X127665443Y-87809483D01*
X127599261Y-87816001D01*
X127510741Y-87816001D01*
X127444559Y-87809483D01*
X127378374Y-87802964D01*
X127265148Y-87768617D01*
X127208534Y-87751444D01*
X127052012Y-87667780D01*
X127052010Y-87667779D01*
X127016272Y-87638449D01*
X126914815Y-87555187D01*
X126831553Y-87453730D01*
X126802223Y-87417992D01*
X126792653Y-87400088D01*
X126718558Y-87261468D01*
X126701385Y-87204854D01*
X126667038Y-87091628D01*
X126649642Y-86915001D01*
X126667038Y-86738374D01*
X126718558Y-86568535D01*
X126718558Y-86568534D01*
X126802222Y-86412012D01*
X126802223Y-86412010D01*
X126831553Y-86376272D01*
X126914815Y-86274815D01*
X127016272Y-86191553D01*
X127052010Y-86162223D01*
X127069914Y-86152653D01*
X127208534Y-86078558D01*
X127265148Y-86061385D01*
X127378374Y-86027038D01*
X127444559Y-86020519D01*
X127510741Y-86014001D01*
X127599261Y-86014001D01*
X127665443Y-86020519D01*
X127665443Y-86020519D01*
G37*
G36*
X130205443Y-86020519D02*
X130271628Y-86027038D01*
X130384854Y-86061385D01*
X130441468Y-86078558D01*
X130580088Y-86152653D01*
X130597992Y-86162223D01*
X130633730Y-86191553D01*
X130735187Y-86274815D01*
X130818449Y-86376272D01*
X130847779Y-86412010D01*
X130847780Y-86412012D01*
X130931444Y-86568534D01*
X130931444Y-86568535D01*
X130982964Y-86738374D01*
X131000360Y-86915001D01*
X130982964Y-87091628D01*
X130948617Y-87204854D01*
X130931444Y-87261468D01*
X130857349Y-87400088D01*
X130847779Y-87417992D01*
X130818449Y-87453730D01*
X130735187Y-87555187D01*
X130633730Y-87638449D01*
X130597992Y-87667779D01*
X130597990Y-87667780D01*
X130441468Y-87751444D01*
X130384854Y-87768617D01*
X130271628Y-87802964D01*
X130205443Y-87809483D01*
X130139261Y-87816001D01*
X130050741Y-87816001D01*
X129984559Y-87809483D01*
X129918374Y-87802964D01*
X129805148Y-87768617D01*
X129748534Y-87751444D01*
X129592012Y-87667780D01*
X129592010Y-87667779D01*
X129556272Y-87638449D01*
X129454815Y-87555187D01*
X129371553Y-87453730D01*
X129342223Y-87417992D01*
X129332653Y-87400088D01*
X129258558Y-87261468D01*
X129241385Y-87204854D01*
X129207038Y-87091628D01*
X129189642Y-86915001D01*
X129207038Y-86738374D01*
X129258558Y-86568535D01*
X129258558Y-86568534D01*
X129342222Y-86412012D01*
X129342223Y-86412010D01*
X129371553Y-86376272D01*
X129454815Y-86274815D01*
X129556272Y-86191553D01*
X129592010Y-86162223D01*
X129609914Y-86152653D01*
X129748534Y-86078558D01*
X129805148Y-86061385D01*
X129918374Y-86027038D01*
X129984559Y-86020519D01*
X130050741Y-86014001D01*
X130139261Y-86014001D01*
X130205443Y-86020519D01*
X130205443Y-86020519D01*
G37*
G36*
X133865444Y-84230520D02*
X133931628Y-84237038D01*
X134044854Y-84271385D01*
X134101468Y-84288558D01*
X134240088Y-84362653D01*
X134257992Y-84372223D01*
X134293730Y-84401553D01*
X134395187Y-84484815D01*
X134450018Y-84551628D01*
X134507779Y-84622010D01*
X134507780Y-84622012D01*
X134591444Y-84778534D01*
X134591444Y-84778535D01*
X134642964Y-84948374D01*
X134660360Y-85125001D01*
X134642964Y-85301628D01*
X134608617Y-85414854D01*
X134591444Y-85471468D01*
X134517349Y-85610088D01*
X134507779Y-85627992D01*
X134478449Y-85663730D01*
X134395187Y-85765187D01*
X134293730Y-85848449D01*
X134257992Y-85877779D01*
X134257990Y-85877780D01*
X134101468Y-85961444D01*
X134044854Y-85978617D01*
X133931628Y-86012964D01*
X133865443Y-86019483D01*
X133799261Y-86026001D01*
X133710741Y-86026001D01*
X133644559Y-86019483D01*
X133578374Y-86012964D01*
X133465148Y-85978617D01*
X133408534Y-85961444D01*
X133252012Y-85877780D01*
X133252010Y-85877779D01*
X133216272Y-85848449D01*
X133114815Y-85765187D01*
X133031553Y-85663730D01*
X133002223Y-85627992D01*
X132992653Y-85610088D01*
X132918558Y-85471468D01*
X132901385Y-85414854D01*
X132867038Y-85301628D01*
X132849642Y-85125001D01*
X132867038Y-84948374D01*
X132918558Y-84778535D01*
X132918558Y-84778534D01*
X133002222Y-84622012D01*
X133002223Y-84622010D01*
X133059984Y-84551628D01*
X133114815Y-84484815D01*
X133216272Y-84401553D01*
X133252010Y-84372223D01*
X133269914Y-84362653D01*
X133408534Y-84288558D01*
X133465148Y-84271385D01*
X133578374Y-84237038D01*
X133644558Y-84230520D01*
X133710741Y-84224001D01*
X133799261Y-84224001D01*
X133865444Y-84230520D01*
X133865444Y-84230520D01*
G37*
G36*
X127665444Y-83480520D02*
X127731628Y-83487038D01*
X127844854Y-83521385D01*
X127901468Y-83538558D01*
X128040088Y-83612653D01*
X128057992Y-83622223D01*
X128093730Y-83651553D01*
X128195187Y-83734815D01*
X128278449Y-83836272D01*
X128307779Y-83872010D01*
X128307780Y-83872012D01*
X128391444Y-84028534D01*
X128391444Y-84028535D01*
X128442964Y-84198374D01*
X128460360Y-84375001D01*
X128442964Y-84551628D01*
X128421614Y-84622010D01*
X128391444Y-84721468D01*
X128317349Y-84860088D01*
X128307779Y-84877992D01*
X128278449Y-84913730D01*
X128195187Y-85015187D01*
X128093730Y-85098449D01*
X128057992Y-85127779D01*
X128057990Y-85127780D01*
X127901468Y-85211444D01*
X127844854Y-85228617D01*
X127731628Y-85262964D01*
X127665443Y-85269483D01*
X127599261Y-85276001D01*
X127510741Y-85276001D01*
X127444559Y-85269483D01*
X127378374Y-85262964D01*
X127265148Y-85228617D01*
X127208534Y-85211444D01*
X127052012Y-85127780D01*
X127052010Y-85127779D01*
X127016272Y-85098449D01*
X126914815Y-85015187D01*
X126831553Y-84913730D01*
X126802223Y-84877992D01*
X126792653Y-84860088D01*
X126718558Y-84721468D01*
X126688388Y-84622010D01*
X126667038Y-84551628D01*
X126649642Y-84375001D01*
X126667038Y-84198374D01*
X126718558Y-84028535D01*
X126718558Y-84028534D01*
X126802222Y-83872012D01*
X126802223Y-83872010D01*
X126831553Y-83836272D01*
X126914815Y-83734815D01*
X127016272Y-83651553D01*
X127052010Y-83622223D01*
X127069914Y-83612653D01*
X127208534Y-83538558D01*
X127265148Y-83521385D01*
X127378374Y-83487038D01*
X127444558Y-83480520D01*
X127510741Y-83474001D01*
X127599261Y-83474001D01*
X127665444Y-83480520D01*
X127665444Y-83480520D01*
G37*
G36*
X130205444Y-83480520D02*
X130271628Y-83487038D01*
X130384854Y-83521385D01*
X130441468Y-83538558D01*
X130580088Y-83612653D01*
X130597992Y-83622223D01*
X130633730Y-83651553D01*
X130735187Y-83734815D01*
X130818449Y-83836272D01*
X130847779Y-83872010D01*
X130847780Y-83872012D01*
X130931444Y-84028534D01*
X130931444Y-84028535D01*
X130982964Y-84198374D01*
X131000360Y-84375001D01*
X130982964Y-84551628D01*
X130961614Y-84622010D01*
X130931444Y-84721468D01*
X130857349Y-84860088D01*
X130847779Y-84877992D01*
X130818449Y-84913730D01*
X130735187Y-85015187D01*
X130633730Y-85098449D01*
X130597992Y-85127779D01*
X130597990Y-85127780D01*
X130441468Y-85211444D01*
X130384854Y-85228617D01*
X130271628Y-85262964D01*
X130205443Y-85269483D01*
X130139261Y-85276001D01*
X130050741Y-85276001D01*
X129984559Y-85269483D01*
X129918374Y-85262964D01*
X129805148Y-85228617D01*
X129748534Y-85211444D01*
X129592012Y-85127780D01*
X129592010Y-85127779D01*
X129556272Y-85098449D01*
X129454815Y-85015187D01*
X129371553Y-84913730D01*
X129342223Y-84877992D01*
X129332653Y-84860088D01*
X129258558Y-84721468D01*
X129228388Y-84622010D01*
X129207038Y-84551628D01*
X129189642Y-84375001D01*
X129207038Y-84198374D01*
X129258558Y-84028535D01*
X129258558Y-84028534D01*
X129342222Y-83872012D01*
X129342223Y-83872010D01*
X129371553Y-83836272D01*
X129454815Y-83734815D01*
X129556272Y-83651553D01*
X129592010Y-83622223D01*
X129609914Y-83612653D01*
X129748534Y-83538558D01*
X129805148Y-83521385D01*
X129918374Y-83487038D01*
X129984558Y-83480520D01*
X130050741Y-83474001D01*
X130139261Y-83474001D01*
X130205444Y-83480520D01*
X130205444Y-83480520D01*
G37*
G36*
X134656001Y-83486001D02*
X132854001Y-83486001D01*
X132854001Y-81684001D01*
X134656001Y-81684001D01*
X134656001Y-83486001D01*
X134656001Y-83486001D01*
G37*
G36*
X127665443Y-80940519D02*
X127731628Y-80947038D01*
X127844854Y-80981385D01*
X127901468Y-80998558D01*
X128040088Y-81072653D01*
X128057992Y-81082223D01*
X128093730Y-81111553D01*
X128195187Y-81194815D01*
X128278449Y-81296272D01*
X128307779Y-81332010D01*
X128307780Y-81332012D01*
X128391444Y-81488534D01*
X128391444Y-81488535D01*
X128442964Y-81658374D01*
X128460360Y-81835001D01*
X128442964Y-82011628D01*
X128408617Y-82124854D01*
X128391444Y-82181468D01*
X128317349Y-82320088D01*
X128307779Y-82337992D01*
X128278449Y-82373730D01*
X128195187Y-82475187D01*
X128093730Y-82558449D01*
X128057992Y-82587779D01*
X128057990Y-82587780D01*
X127901468Y-82671444D01*
X127844854Y-82688617D01*
X127731628Y-82722964D01*
X127665444Y-82729482D01*
X127599261Y-82736001D01*
X127510741Y-82736001D01*
X127444558Y-82729482D01*
X127378374Y-82722964D01*
X127265148Y-82688617D01*
X127208534Y-82671444D01*
X127052012Y-82587780D01*
X127052010Y-82587779D01*
X127016272Y-82558449D01*
X126914815Y-82475187D01*
X126831553Y-82373730D01*
X126802223Y-82337992D01*
X126792653Y-82320088D01*
X126718558Y-82181468D01*
X126701385Y-82124854D01*
X126667038Y-82011628D01*
X126649642Y-81835001D01*
X126667038Y-81658374D01*
X126718558Y-81488535D01*
X126718558Y-81488534D01*
X126802222Y-81332012D01*
X126802223Y-81332010D01*
X126831553Y-81296272D01*
X126914815Y-81194815D01*
X127016272Y-81111553D01*
X127052010Y-81082223D01*
X127069914Y-81072653D01*
X127208534Y-80998558D01*
X127265148Y-80981385D01*
X127378374Y-80947038D01*
X127444559Y-80940519D01*
X127510741Y-80934001D01*
X127599261Y-80934001D01*
X127665443Y-80940519D01*
X127665443Y-80940519D01*
G37*
G36*
X130205443Y-80940519D02*
X130271628Y-80947038D01*
X130384854Y-80981385D01*
X130441468Y-80998558D01*
X130580088Y-81072653D01*
X130597992Y-81082223D01*
X130633730Y-81111553D01*
X130735187Y-81194815D01*
X130818449Y-81296272D01*
X130847779Y-81332010D01*
X130847780Y-81332012D01*
X130931444Y-81488534D01*
X130931444Y-81488535D01*
X130982964Y-81658374D01*
X131000360Y-81835001D01*
X130982964Y-82011628D01*
X130948617Y-82124854D01*
X130931444Y-82181468D01*
X130857349Y-82320088D01*
X130847779Y-82337992D01*
X130818449Y-82373730D01*
X130735187Y-82475187D01*
X130633730Y-82558449D01*
X130597992Y-82587779D01*
X130597990Y-82587780D01*
X130441468Y-82671444D01*
X130384854Y-82688617D01*
X130271628Y-82722964D01*
X130205444Y-82729482D01*
X130139261Y-82736001D01*
X130050741Y-82736001D01*
X129984558Y-82729482D01*
X129918374Y-82722964D01*
X129805148Y-82688617D01*
X129748534Y-82671444D01*
X129592012Y-82587780D01*
X129592010Y-82587779D01*
X129556272Y-82558449D01*
X129454815Y-82475187D01*
X129371553Y-82373730D01*
X129342223Y-82337992D01*
X129332653Y-82320088D01*
X129258558Y-82181468D01*
X129241385Y-82124854D01*
X129207038Y-82011628D01*
X129189642Y-81835001D01*
X129207038Y-81658374D01*
X129258558Y-81488535D01*
X129258558Y-81488534D01*
X129342222Y-81332012D01*
X129342223Y-81332010D01*
X129371553Y-81296272D01*
X129454815Y-81194815D01*
X129556272Y-81111553D01*
X129592010Y-81082223D01*
X129609914Y-81072653D01*
X129748534Y-80998558D01*
X129805148Y-80981385D01*
X129918374Y-80947038D01*
X129984559Y-80940519D01*
X130050741Y-80934001D01*
X130139261Y-80934001D01*
X130205443Y-80940519D01*
X130205443Y-80940519D01*
G37*
G36*
X130205444Y-78400520D02*
X130271628Y-78407038D01*
X130384854Y-78441385D01*
X130441468Y-78458558D01*
X130580088Y-78532653D01*
X130597992Y-78542223D01*
X130633730Y-78571553D01*
X130735187Y-78654815D01*
X130818449Y-78756272D01*
X130847779Y-78792010D01*
X130847780Y-78792012D01*
X130931444Y-78948534D01*
X130931444Y-78948535D01*
X130982964Y-79118374D01*
X131000360Y-79295001D01*
X130982964Y-79471628D01*
X130948617Y-79584854D01*
X130931444Y-79641468D01*
X130857349Y-79780088D01*
X130847779Y-79797992D01*
X130818449Y-79833730D01*
X130735187Y-79935187D01*
X130633730Y-80018449D01*
X130597992Y-80047779D01*
X130597990Y-80047780D01*
X130441468Y-80131444D01*
X130384854Y-80148617D01*
X130271628Y-80182964D01*
X130205443Y-80189483D01*
X130139261Y-80196001D01*
X130050741Y-80196001D01*
X129984559Y-80189483D01*
X129918374Y-80182964D01*
X129805148Y-80148617D01*
X129748534Y-80131444D01*
X129592012Y-80047780D01*
X129592010Y-80047779D01*
X129556272Y-80018449D01*
X129454815Y-79935187D01*
X129371553Y-79833730D01*
X129342223Y-79797992D01*
X129332653Y-79780088D01*
X129258558Y-79641468D01*
X129241385Y-79584854D01*
X129207038Y-79471628D01*
X129189642Y-79295001D01*
X129207038Y-79118374D01*
X129258558Y-78948535D01*
X129258558Y-78948534D01*
X129342222Y-78792012D01*
X129342223Y-78792010D01*
X129371553Y-78756272D01*
X129454815Y-78654815D01*
X129556272Y-78571553D01*
X129592010Y-78542223D01*
X129609914Y-78532653D01*
X129748534Y-78458558D01*
X129805148Y-78441385D01*
X129918374Y-78407038D01*
X129984558Y-78400520D01*
X130050741Y-78394001D01*
X130139261Y-78394001D01*
X130205444Y-78400520D01*
X130205444Y-78400520D01*
G37*
G36*
X127665444Y-78400520D02*
X127731628Y-78407038D01*
X127844854Y-78441385D01*
X127901468Y-78458558D01*
X128040088Y-78532653D01*
X128057992Y-78542223D01*
X128093730Y-78571553D01*
X128195187Y-78654815D01*
X128278449Y-78756272D01*
X128307779Y-78792010D01*
X128307780Y-78792012D01*
X128391444Y-78948534D01*
X128391444Y-78948535D01*
X128442964Y-79118374D01*
X128460360Y-79295001D01*
X128442964Y-79471628D01*
X128408617Y-79584854D01*
X128391444Y-79641468D01*
X128317349Y-79780088D01*
X128307779Y-79797992D01*
X128278449Y-79833730D01*
X128195187Y-79935187D01*
X128093730Y-80018449D01*
X128057992Y-80047779D01*
X128057990Y-80047780D01*
X127901468Y-80131444D01*
X127844854Y-80148617D01*
X127731628Y-80182964D01*
X127665443Y-80189483D01*
X127599261Y-80196001D01*
X127510741Y-80196001D01*
X127444559Y-80189483D01*
X127378374Y-80182964D01*
X127265148Y-80148617D01*
X127208534Y-80131444D01*
X127052012Y-80047780D01*
X127052010Y-80047779D01*
X127016272Y-80018449D01*
X126914815Y-79935187D01*
X126831553Y-79833730D01*
X126802223Y-79797992D01*
X126792653Y-79780088D01*
X126718558Y-79641468D01*
X126701385Y-79584854D01*
X126667038Y-79471628D01*
X126649642Y-79295001D01*
X126667038Y-79118374D01*
X126718558Y-78948535D01*
X126718558Y-78948534D01*
X126802222Y-78792012D01*
X126802223Y-78792010D01*
X126831553Y-78756272D01*
X126914815Y-78654815D01*
X127016272Y-78571553D01*
X127052010Y-78542223D01*
X127069914Y-78532653D01*
X127208534Y-78458558D01*
X127265148Y-78441385D01*
X127378374Y-78407038D01*
X127444558Y-78400520D01*
X127510741Y-78394001D01*
X127599261Y-78394001D01*
X127665444Y-78400520D01*
X127665444Y-78400520D01*
G37*
G36*
X127665444Y-75860520D02*
X127731628Y-75867038D01*
X127844854Y-75901385D01*
X127901468Y-75918558D01*
X128040088Y-75992653D01*
X128057992Y-76002223D01*
X128093730Y-76031553D01*
X128195187Y-76114815D01*
X128278449Y-76216272D01*
X128307779Y-76252010D01*
X128307780Y-76252012D01*
X128391444Y-76408534D01*
X128391444Y-76408535D01*
X128442964Y-76578374D01*
X128460360Y-76755001D01*
X128442964Y-76931628D01*
X128408617Y-77044854D01*
X128391444Y-77101468D01*
X128317349Y-77240088D01*
X128307779Y-77257992D01*
X128278449Y-77293730D01*
X128195187Y-77395187D01*
X128093730Y-77478449D01*
X128057992Y-77507779D01*
X128057990Y-77507780D01*
X127901468Y-77591444D01*
X127844854Y-77608617D01*
X127731628Y-77642964D01*
X127665443Y-77649483D01*
X127599261Y-77656001D01*
X127510741Y-77656001D01*
X127444559Y-77649483D01*
X127378374Y-77642964D01*
X127265148Y-77608617D01*
X127208534Y-77591444D01*
X127052012Y-77507780D01*
X127052010Y-77507779D01*
X127016272Y-77478449D01*
X126914815Y-77395187D01*
X126831553Y-77293730D01*
X126802223Y-77257992D01*
X126792653Y-77240088D01*
X126718558Y-77101468D01*
X126701385Y-77044854D01*
X126667038Y-76931628D01*
X126649642Y-76755001D01*
X126667038Y-76578374D01*
X126718558Y-76408535D01*
X126718558Y-76408534D01*
X126802222Y-76252012D01*
X126802223Y-76252010D01*
X126831553Y-76216272D01*
X126914815Y-76114815D01*
X127016272Y-76031553D01*
X127052010Y-76002223D01*
X127069914Y-75992653D01*
X127208534Y-75918558D01*
X127265148Y-75901385D01*
X127378374Y-75867038D01*
X127444558Y-75860520D01*
X127510741Y-75854001D01*
X127599261Y-75854001D01*
X127665444Y-75860520D01*
X127665444Y-75860520D01*
G37*
G36*
X130205444Y-75860520D02*
X130271628Y-75867038D01*
X130384854Y-75901385D01*
X130441468Y-75918558D01*
X130580088Y-75992653D01*
X130597992Y-76002223D01*
X130633730Y-76031553D01*
X130735187Y-76114815D01*
X130818449Y-76216272D01*
X130847779Y-76252010D01*
X130847780Y-76252012D01*
X130931444Y-76408534D01*
X130931444Y-76408535D01*
X130982964Y-76578374D01*
X131000360Y-76755001D01*
X130982964Y-76931628D01*
X130948617Y-77044854D01*
X130931444Y-77101468D01*
X130857349Y-77240088D01*
X130847779Y-77257992D01*
X130818449Y-77293730D01*
X130735187Y-77395187D01*
X130633730Y-77478449D01*
X130597992Y-77507779D01*
X130597990Y-77507780D01*
X130441468Y-77591444D01*
X130384854Y-77608617D01*
X130271628Y-77642964D01*
X130205443Y-77649483D01*
X130139261Y-77656001D01*
X130050741Y-77656001D01*
X129984559Y-77649483D01*
X129918374Y-77642964D01*
X129805148Y-77608617D01*
X129748534Y-77591444D01*
X129592012Y-77507780D01*
X129592010Y-77507779D01*
X129556272Y-77478449D01*
X129454815Y-77395187D01*
X129371553Y-77293730D01*
X129342223Y-77257992D01*
X129332653Y-77240088D01*
X129258558Y-77101468D01*
X129241385Y-77044854D01*
X129207038Y-76931628D01*
X129189642Y-76755001D01*
X129207038Y-76578374D01*
X129258558Y-76408535D01*
X129258558Y-76408534D01*
X129342222Y-76252012D01*
X129342223Y-76252010D01*
X129371553Y-76216272D01*
X129454815Y-76114815D01*
X129556272Y-76031553D01*
X129592010Y-76002223D01*
X129609914Y-75992653D01*
X129748534Y-75918558D01*
X129805148Y-75901385D01*
X129918374Y-75867038D01*
X129984558Y-75860520D01*
X130050741Y-75854001D01*
X130139261Y-75854001D01*
X130205444Y-75860520D01*
X130205444Y-75860520D01*
G37*
G36*
X127665443Y-73320519D02*
X127731628Y-73327038D01*
X127844854Y-73361385D01*
X127901468Y-73378558D01*
X128040088Y-73452653D01*
X128057992Y-73462223D01*
X128093730Y-73491553D01*
X128195187Y-73574815D01*
X128278449Y-73676272D01*
X128307779Y-73712010D01*
X128307780Y-73712012D01*
X128391444Y-73868534D01*
X128391444Y-73868535D01*
X128442964Y-74038374D01*
X128460360Y-74215001D01*
X128442964Y-74391628D01*
X128408617Y-74504854D01*
X128391444Y-74561468D01*
X128317349Y-74700088D01*
X128307779Y-74717992D01*
X128278449Y-74753730D01*
X128195187Y-74855187D01*
X128093730Y-74938449D01*
X128057992Y-74967779D01*
X128057990Y-74967780D01*
X127901468Y-75051444D01*
X127844854Y-75068617D01*
X127731628Y-75102964D01*
X127665443Y-75109483D01*
X127599261Y-75116001D01*
X127510741Y-75116001D01*
X127444559Y-75109483D01*
X127378374Y-75102964D01*
X127265148Y-75068617D01*
X127208534Y-75051444D01*
X127052012Y-74967780D01*
X127052010Y-74967779D01*
X127016272Y-74938449D01*
X126914815Y-74855187D01*
X126831553Y-74753730D01*
X126802223Y-74717992D01*
X126792653Y-74700088D01*
X126718558Y-74561468D01*
X126701385Y-74504854D01*
X126667038Y-74391628D01*
X126649642Y-74215001D01*
X126667038Y-74038374D01*
X126718558Y-73868535D01*
X126718558Y-73868534D01*
X126802222Y-73712012D01*
X126802223Y-73712010D01*
X126831553Y-73676272D01*
X126914815Y-73574815D01*
X127016272Y-73491553D01*
X127052010Y-73462223D01*
X127069914Y-73452653D01*
X127208534Y-73378558D01*
X127265148Y-73361385D01*
X127378374Y-73327038D01*
X127444559Y-73320519D01*
X127510741Y-73314001D01*
X127599261Y-73314001D01*
X127665443Y-73320519D01*
X127665443Y-73320519D01*
G37*
G36*
X130205443Y-73320519D02*
X130271628Y-73327038D01*
X130384854Y-73361385D01*
X130441468Y-73378558D01*
X130580088Y-73452653D01*
X130597992Y-73462223D01*
X130633730Y-73491553D01*
X130735187Y-73574815D01*
X130818449Y-73676272D01*
X130847779Y-73712010D01*
X130847780Y-73712012D01*
X130931444Y-73868534D01*
X130931444Y-73868535D01*
X130982964Y-74038374D01*
X131000360Y-74215001D01*
X130982964Y-74391628D01*
X130948617Y-74504854D01*
X130931444Y-74561468D01*
X130857349Y-74700088D01*
X130847779Y-74717992D01*
X130818449Y-74753730D01*
X130735187Y-74855187D01*
X130633730Y-74938449D01*
X130597992Y-74967779D01*
X130597990Y-74967780D01*
X130441468Y-75051444D01*
X130384854Y-75068617D01*
X130271628Y-75102964D01*
X130205443Y-75109483D01*
X130139261Y-75116001D01*
X130050741Y-75116001D01*
X129984559Y-75109483D01*
X129918374Y-75102964D01*
X129805148Y-75068617D01*
X129748534Y-75051444D01*
X129592012Y-74967780D01*
X129592010Y-74967779D01*
X129556272Y-74938449D01*
X129454815Y-74855187D01*
X129371553Y-74753730D01*
X129342223Y-74717992D01*
X129332653Y-74700088D01*
X129258558Y-74561468D01*
X129241385Y-74504854D01*
X129207038Y-74391628D01*
X129189642Y-74215001D01*
X129207038Y-74038374D01*
X129258558Y-73868535D01*
X129258558Y-73868534D01*
X129342222Y-73712012D01*
X129342223Y-73712010D01*
X129371553Y-73676272D01*
X129454815Y-73574815D01*
X129556272Y-73491553D01*
X129592010Y-73462223D01*
X129609914Y-73452653D01*
X129748534Y-73378558D01*
X129805148Y-73361385D01*
X129918374Y-73327038D01*
X129984559Y-73320519D01*
X130050741Y-73314001D01*
X130139261Y-73314001D01*
X130205443Y-73320519D01*
X130205443Y-73320519D01*
G37*
G36*
X127665443Y-70780519D02*
X127731628Y-70787038D01*
X127844854Y-70821385D01*
X127901468Y-70838558D01*
X128040088Y-70912653D01*
X128057992Y-70922223D01*
X128093730Y-70951553D01*
X128195187Y-71034815D01*
X128278449Y-71136272D01*
X128307779Y-71172010D01*
X128307780Y-71172012D01*
X128391444Y-71328534D01*
X128391444Y-71328535D01*
X128442964Y-71498374D01*
X128460360Y-71675001D01*
X128442964Y-71851628D01*
X128408617Y-71964854D01*
X128391444Y-72021468D01*
X128317349Y-72160088D01*
X128307779Y-72177992D01*
X128278449Y-72213730D01*
X128195187Y-72315187D01*
X128093730Y-72398449D01*
X128057992Y-72427779D01*
X128057990Y-72427780D01*
X127901468Y-72511444D01*
X127844854Y-72528617D01*
X127731628Y-72562964D01*
X127665444Y-72569482D01*
X127599261Y-72576001D01*
X127510741Y-72576001D01*
X127444558Y-72569482D01*
X127378374Y-72562964D01*
X127265148Y-72528617D01*
X127208534Y-72511444D01*
X127052012Y-72427780D01*
X127052010Y-72427779D01*
X127016272Y-72398449D01*
X126914815Y-72315187D01*
X126831553Y-72213730D01*
X126802223Y-72177992D01*
X126792653Y-72160088D01*
X126718558Y-72021468D01*
X126701385Y-71964854D01*
X126667038Y-71851628D01*
X126649642Y-71675001D01*
X126667038Y-71498374D01*
X126718558Y-71328535D01*
X126718558Y-71328534D01*
X126802222Y-71172012D01*
X126802223Y-71172010D01*
X126831553Y-71136272D01*
X126914815Y-71034815D01*
X127016272Y-70951553D01*
X127052010Y-70922223D01*
X127069914Y-70912653D01*
X127208534Y-70838558D01*
X127265148Y-70821385D01*
X127378374Y-70787038D01*
X127444559Y-70780519D01*
X127510741Y-70774001D01*
X127599261Y-70774001D01*
X127665443Y-70780519D01*
X127665443Y-70780519D01*
G37*
G36*
X130205443Y-70780519D02*
X130271628Y-70787038D01*
X130384854Y-70821385D01*
X130441468Y-70838558D01*
X130580088Y-70912653D01*
X130597992Y-70922223D01*
X130633730Y-70951553D01*
X130735187Y-71034815D01*
X130818449Y-71136272D01*
X130847779Y-71172010D01*
X130847780Y-71172012D01*
X130931444Y-71328534D01*
X130931444Y-71328535D01*
X130982964Y-71498374D01*
X131000360Y-71675001D01*
X130982964Y-71851628D01*
X130948617Y-71964854D01*
X130931444Y-72021468D01*
X130857349Y-72160088D01*
X130847779Y-72177992D01*
X130818449Y-72213730D01*
X130735187Y-72315187D01*
X130633730Y-72398449D01*
X130597992Y-72427779D01*
X130597990Y-72427780D01*
X130441468Y-72511444D01*
X130384854Y-72528617D01*
X130271628Y-72562964D01*
X130205444Y-72569482D01*
X130139261Y-72576001D01*
X130050741Y-72576001D01*
X129984558Y-72569482D01*
X129918374Y-72562964D01*
X129805148Y-72528617D01*
X129748534Y-72511444D01*
X129592012Y-72427780D01*
X129592010Y-72427779D01*
X129556272Y-72398449D01*
X129454815Y-72315187D01*
X129371553Y-72213730D01*
X129342223Y-72177992D01*
X129332653Y-72160088D01*
X129258558Y-72021468D01*
X129241385Y-71964854D01*
X129207038Y-71851628D01*
X129189642Y-71675001D01*
X129207038Y-71498374D01*
X129258558Y-71328535D01*
X129258558Y-71328534D01*
X129342222Y-71172012D01*
X129342223Y-71172010D01*
X129371553Y-71136272D01*
X129454815Y-71034815D01*
X129556272Y-70951553D01*
X129592010Y-70922223D01*
X129609914Y-70912653D01*
X129748534Y-70838558D01*
X129805148Y-70821385D01*
X129918374Y-70787038D01*
X129984559Y-70780519D01*
X130050741Y-70774001D01*
X130139261Y-70774001D01*
X130205443Y-70780519D01*
X130205443Y-70780519D01*
G37*
G36*
X147315443Y-70780519D02*
X147381628Y-70787038D01*
X147494854Y-70821385D01*
X147551468Y-70838558D01*
X147690088Y-70912653D01*
X147707992Y-70922223D01*
X147743730Y-70951553D01*
X147845187Y-71034815D01*
X147928449Y-71136272D01*
X147957779Y-71172010D01*
X147957780Y-71172012D01*
X148041444Y-71328534D01*
X148041444Y-71328535D01*
X148092964Y-71498374D01*
X148110360Y-71675001D01*
X148092964Y-71851628D01*
X148058617Y-71964854D01*
X148041444Y-72021468D01*
X147967349Y-72160088D01*
X147957779Y-72177992D01*
X147928449Y-72213730D01*
X147845187Y-72315187D01*
X147743730Y-72398449D01*
X147707992Y-72427779D01*
X147707990Y-72427780D01*
X147551468Y-72511444D01*
X147494854Y-72528617D01*
X147381628Y-72562964D01*
X147315444Y-72569482D01*
X147249261Y-72576001D01*
X147160741Y-72576001D01*
X147094558Y-72569482D01*
X147028374Y-72562964D01*
X146915148Y-72528617D01*
X146858534Y-72511444D01*
X146702012Y-72427780D01*
X146702010Y-72427779D01*
X146666272Y-72398449D01*
X146564815Y-72315187D01*
X146481553Y-72213730D01*
X146452223Y-72177992D01*
X146442653Y-72160088D01*
X146368558Y-72021468D01*
X146351385Y-71964854D01*
X146317038Y-71851628D01*
X146299642Y-71675001D01*
X146317038Y-71498374D01*
X146368558Y-71328535D01*
X146368558Y-71328534D01*
X146452222Y-71172012D01*
X146452223Y-71172010D01*
X146481553Y-71136272D01*
X146564815Y-71034815D01*
X146666272Y-70951553D01*
X146702010Y-70922223D01*
X146719914Y-70912653D01*
X146858534Y-70838558D01*
X146915148Y-70821385D01*
X147028374Y-70787038D01*
X147094559Y-70780519D01*
X147160741Y-70774001D01*
X147249261Y-70774001D01*
X147315443Y-70780519D01*
X147315443Y-70780519D01*
G37*
G36*
X148106001Y-70036001D02*
X146304001Y-70036001D01*
X146304001Y-68234001D01*
X148106001Y-68234001D01*
X148106001Y-70036001D01*
X148106001Y-70036001D01*
G37*
G36*
X128456001Y-70036001D02*
X126654001Y-70036001D01*
X126654001Y-68234001D01*
X128456001Y-68234001D01*
X128456001Y-70036001D01*
X128456001Y-70036001D01*
G37*
G36*
X130205444Y-68240520D02*
X130271628Y-68247038D01*
X130384854Y-68281385D01*
X130441468Y-68298558D01*
X130580088Y-68372653D01*
X130597992Y-68382223D01*
X130633730Y-68411553D01*
X130735187Y-68494815D01*
X130818449Y-68596272D01*
X130847779Y-68632010D01*
X130847780Y-68632012D01*
X130931444Y-68788534D01*
X130931444Y-68788535D01*
X130982964Y-68958374D01*
X131000360Y-69135001D01*
X130982964Y-69311628D01*
X130948617Y-69424854D01*
X130931444Y-69481468D01*
X130857349Y-69620088D01*
X130847779Y-69637992D01*
X130818449Y-69673730D01*
X130735187Y-69775187D01*
X130633730Y-69858449D01*
X130597992Y-69887779D01*
X130597990Y-69887780D01*
X130441468Y-69971444D01*
X130384854Y-69988617D01*
X130271628Y-70022964D01*
X130205443Y-70029483D01*
X130139261Y-70036001D01*
X130050741Y-70036001D01*
X129984559Y-70029483D01*
X129918374Y-70022964D01*
X129805148Y-69988617D01*
X129748534Y-69971444D01*
X129592012Y-69887780D01*
X129592010Y-69887779D01*
X129556272Y-69858449D01*
X129454815Y-69775187D01*
X129371553Y-69673730D01*
X129342223Y-69637992D01*
X129332653Y-69620088D01*
X129258558Y-69481468D01*
X129241385Y-69424854D01*
X129207038Y-69311628D01*
X129189642Y-69135001D01*
X129207038Y-68958374D01*
X129258558Y-68788535D01*
X129258558Y-68788534D01*
X129342222Y-68632012D01*
X129342223Y-68632010D01*
X129371553Y-68596272D01*
X129454815Y-68494815D01*
X129556272Y-68411553D01*
X129592010Y-68382223D01*
X129609914Y-68372653D01*
X129748534Y-68298558D01*
X129805148Y-68281385D01*
X129918374Y-68247038D01*
X129984558Y-68240520D01*
X130050741Y-68234001D01*
X130139261Y-68234001D01*
X130205444Y-68240520D01*
X130205444Y-68240520D01*
G37*
M02*
