M48
; DRILL file {KiCad 5.1.6+dfsg1-1~bpo10+1} date Sat Oct 10 21:47:02 2020
; FORMAT={-:-/ absolute / inch / decimal}
; #@! TF.CreationDate,2020-10-10T21:47:02-04:00
; #@! TF.GenerationSoftware,Kicad,Pcbnew,5.1.6+dfsg1-1~bpo10+1
FMAT,2
INCH
T1C0.0157
T2C0.0394
T3C0.0394
T4C0.0472
%
G90
G05
T1
X2.6156Y-2.0856
X2.6156Y-2.1412
X2.6156Y-2.1951
X2.6156Y-2.2491
X2.6156Y-2.303
X2.6156Y-2.3569
X2.6156Y-2.4108
X2.6156Y-2.4647
X2.6156Y-2.5186
X2.6156Y-2.5725
X2.6156Y-2.6264
X2.6156Y-2.6803
X2.6156Y-2.7342
X2.6156Y-2.7881
X2.6156Y-2.842
X2.6156Y-2.8959
X2.6156Y-2.9498
X2.6156Y-3.0037
X2.6156Y-3.0576
X2.6156Y-3.1115
X2.6156Y-3.1654
X2.6156Y-3.2193
X2.6156Y-3.2733
X2.6156Y-3.3272
X2.6156Y-3.3811
X2.6156Y-3.435
X2.6156Y-3.4889
X2.6156Y-3.5428
X2.6156Y-3.5967
X2.6156Y-3.6506
X2.6156Y-3.7023
X2.668Y-3.7023
X2.6747Y-2.0856
X2.7204Y-3.7023
X2.7338Y-2.0856
X2.7728Y-3.7023
X2.7929Y-2.0856
X2.8252Y-3.7023
X2.8519Y-2.0856
X2.8776Y-3.7023
X2.911Y-2.0856
X2.93Y-3.7023
X2.9823Y-2.0866
X2.9823Y-2.1457
X2.9823Y-2.2047
X2.9824Y-3.7023
X3.0348Y-3.7023
X3.0871Y-3.7023
X3.1395Y-3.7023
X3.1919Y-3.7023
X3.2967Y-3.7023
X3.3169Y-2.0866
X3.3169Y-2.1457
X3.3169Y-2.2047
X3.3248Y-2.8248
X3.3248Y-2.8839
X3.3248Y-2.9429
X3.3465Y-3.8189
X3.3491Y-3.7023
X3.4015Y-3.7023
X3.4416Y-2.0866
X3.4416Y-2.1457
X3.4416Y-2.2047
X3.4539Y-3.7023
X3.5062Y-3.7023
X3.5586Y-3.7023
X3.5956Y-2.8248
X3.5956Y-2.8839
X3.5956Y-2.9429
X3.6634Y-3.7023
X3.7158Y-3.7023
X3.7682Y-3.7023
X3.7762Y-2.0866
X3.7762Y-2.1457
X3.7762Y-2.2047
X3.8206Y-3.7023
X3.873Y-3.7023
X3.9009Y-2.0866
X3.9009Y-2.1457
X3.9009Y-2.2047
X3.9253Y-3.7023
X3.9777Y-3.7023
X4.0301Y-3.7023
X4.0825Y-3.7023
X4.1349Y-3.7023
X4.1873Y-3.7023
X4.2356Y-2.0866
X4.2356Y-2.1457
X4.2356Y-2.2047
X4.243Y-2.8248
X4.243Y-2.8839
X4.243Y-2.9429
X4.2921Y-3.7023
X4.3444Y-3.7023
X4.3504Y-3.8583
X4.3504Y-4.1535
X4.3602Y-2.0866
X4.3602Y-2.1457
X4.3602Y-2.2047
X4.3898Y-3.8976
X4.3968Y-3.7023
X4.4492Y-3.7023
X4.5016Y-3.7023
X4.5143Y-2.8248
X4.5143Y-2.8839
X4.5143Y-2.9429
X4.6064Y-3.7023
X4.6588Y-3.7023
X4.6949Y-2.0866
X4.6949Y-2.1457
X4.6949Y-2.2047
X4.7112Y-3.7023
X4.7635Y-3.7023
X4.8159Y-3.7023
X4.8196Y-2.0866
X4.8196Y-2.1457
X4.8196Y-2.2047
X4.8683Y-3.7023
X4.9207Y-3.7023
X4.9731Y-3.7023
X5.0255Y-3.7023
X5.0737Y-4.0996
X5.0779Y-3.7023
X5.1303Y-3.7023
X5.1542Y-2.0866
X5.1542Y-2.1457
X5.1542Y-2.2047
X5.1614Y-4.3622
X5.1617Y-2.8248
X5.1617Y-2.8839
X5.1617Y-2.9429
X5.1673Y-4.1437
X5.1732Y-4.2402
X5.2087Y-4.4882
X5.2126Y-4.4055
X5.235Y-3.7023
X5.2402Y-4.1378
X5.2789Y-2.0866
X5.2789Y-2.1457
X5.2789Y-2.2047
X5.2874Y-3.7023
X5.2953Y-3.8583
X5.3346Y-3.8976
X5.3398Y-3.7023
X5.3922Y-3.7023
X5.4329Y-2.8248
X5.4329Y-2.8839
X5.4329Y-2.9429
X5.497Y-3.7023
X5.5217Y-4.8228
X5.5494Y-3.7023
X5.6018Y-3.7023
X5.6135Y-2.0866
X5.6135Y-2.1457
X5.6135Y-2.2047
X5.6541Y-3.7023
X5.6693Y-4.5236
X5.6791Y-4.1634
X5.6944Y-4.4582
X5.7065Y-3.7023
X5.7087Y-4.2913
X5.7247Y-4.2034
X5.7382Y-2.0866
X5.7382Y-2.1457
X5.7382Y-2.2047
X5.7441Y-4.8583
X5.7456Y-4.407
X5.7589Y-3.7023
X5.8113Y-3.7023
X5.8386Y-4.7547
X5.8543Y-4.6441
X5.8637Y-3.7023
X5.8799Y-4.5795
X5.9055Y-3.8189
X5.9161Y-3.7023
X5.9449Y-3.8583
X5.9685Y-3.7023
X6.0209Y-3.7023
X6.0728Y-2.0866
X6.0728Y-2.1457
X6.0728Y-2.2047
X6.0803Y-2.8248
X6.0803Y-2.8839
X6.0803Y-2.9429
X6.1256Y-3.7023
X6.1441Y-2.0856
X6.178Y-3.7023
X6.2032Y-2.0856
X6.2304Y-3.7023
X6.2623Y-2.0856
X6.2828Y-3.7023
X6.3142Y-4.5728
X6.3197Y-4.7634
X6.3213Y-2.0856
X6.3352Y-3.7023
X6.3386Y-4.6441
X6.3804Y-2.0856
X6.3876Y-3.7023
X6.4395Y-2.0856
X6.4395Y-2.1412
X6.4395Y-2.1951
X6.4395Y-2.2491
X6.4395Y-2.303
X6.4395Y-2.3569
X6.4395Y-2.4108
X6.4395Y-2.4647
X6.4395Y-2.5186
X6.4395Y-2.5725
X6.4395Y-2.6264
X6.4395Y-2.6803
X6.4395Y-2.7342
X6.4395Y-2.7881
X6.4395Y-2.842
X6.4395Y-2.8959
X6.4395Y-2.9498
X6.4395Y-3.0037
X6.4395Y-3.0576
X6.4395Y-3.1115
X6.4395Y-3.1654
X6.4395Y-3.2193
X6.4395Y-3.2733
X6.4395Y-3.3272
X6.4395Y-3.3811
X6.4395Y-3.435
X6.4395Y-3.4889
X6.4395Y-3.5428
X6.4395Y-3.5967
X6.4395Y-3.6506
X6.44Y-3.7023
T2
X6.0603Y-4.9892
X6.1603Y-4.9892
X6.2603Y-4.9892
T3
X2.8283Y-4.9508
X2.9783Y-4.9508
T4
X3.248Y-4.9508
X3.348Y-4.9508
X3.7883Y-4.9508
X3.8883Y-4.9508
X4.0584Y-4.9508
X4.1584Y-4.9508
X3.5182Y-4.9508
X3.6182Y-4.9508
X4.3285Y-4.9508
X4.4285Y-4.9508
T0
M30
