G04 #@! TF.GenerationSoftware,KiCad,Pcbnew,5.1.6+dfsg1-1~bpo10+1*
G04 #@! TF.CreationDate,2020-10-03T08:29:09-04:00*
G04 #@! TF.ProjectId,hardware,68617264-7761-4726-952e-6b696361645f,1.0.0*
G04 #@! TF.SameCoordinates,Original*
G04 #@! TF.FileFunction,Copper,L1,Top*
G04 #@! TF.FilePolarity,Positive*
%FSLAX46Y46*%
G04 Gerber Fmt 4.6, Leading zero omitted, Abs format (unit mm)*
G04 Created by KiCad (PCBNEW 5.1.6+dfsg1-1~bpo10+1) date 2020-10-03 08:29:09*
%MOMM*%
%LPD*%
G01*
G04 APERTURE LIST*
G04 #@! TA.AperFunction,ComponentPad*
%ADD10R,1.740000X2.200000*%
G04 #@! TD*
G04 #@! TA.AperFunction,ComponentPad*
%ADD11O,1.740000X2.200000*%
G04 #@! TD*
G04 #@! TA.AperFunction,SMDPad,CuDef*
%ADD12R,1.320000X1.320000*%
G04 #@! TD*
G04 #@! TA.AperFunction,SMDPad,CuDef*
%ADD13R,1.800000X3.500000*%
G04 #@! TD*
G04 #@! TA.AperFunction,SMDPad,CuDef*
%ADD14R,2.200000X1.200000*%
G04 #@! TD*
G04 #@! TA.AperFunction,SMDPad,CuDef*
%ADD15R,6.400000X5.800000*%
G04 #@! TD*
G04 #@! TA.AperFunction,SMDPad,CuDef*
%ADD16C,0.100000*%
G04 #@! TD*
G04 #@! TA.AperFunction,SMDPad,CuDef*
%ADD17R,3.800000X2.000000*%
G04 #@! TD*
G04 #@! TA.AperFunction,SMDPad,CuDef*
%ADD18R,1.500000X2.000000*%
G04 #@! TD*
G04 #@! TA.AperFunction,SMDPad,CuDef*
%ADD19R,1.560000X0.650000*%
G04 #@! TD*
G04 #@! TA.AperFunction,ComponentPad*
%ADD20O,1.700000X1.700000*%
G04 #@! TD*
G04 #@! TA.AperFunction,ComponentPad*
%ADD21R,2.499360X2.499360*%
G04 #@! TD*
G04 #@! TA.AperFunction,ComponentPad*
%ADD22C,2.499360*%
G04 #@! TD*
G04 #@! TA.AperFunction,SMDPad,CuDef*
%ADD23R,1.500000X0.600000*%
G04 #@! TD*
G04 #@! TA.AperFunction,SMDPad,CuDef*
%ADD24R,1.700000X1.300000*%
G04 #@! TD*
G04 #@! TA.AperFunction,SMDPad,CuDef*
%ADD25R,1.500000X5.080000*%
G04 #@! TD*
G04 #@! TA.AperFunction,SMDPad,CuDef*
%ADD26R,1.550000X0.600000*%
G04 #@! TD*
G04 #@! TA.AperFunction,SMDPad,CuDef*
%ADD27R,1.060000X0.650000*%
G04 #@! TD*
G04 APERTURE END LIST*
D10*
X82500000Y-120750000D03*
D11*
X85040000Y-120750000D03*
X112485001Y-120750000D03*
D10*
X109945001Y-120750000D03*
D11*
X105623750Y-120750000D03*
D10*
X103083750Y-120750000D03*
X96222500Y-120750000D03*
D11*
X98762500Y-120750000D03*
X91901250Y-120750000D03*
D10*
X89361250Y-120750000D03*
D12*
X157640000Y-78583000D03*
X157640000Y-76043000D03*
X157640000Y-73503000D03*
X157640000Y-70963000D03*
X144940000Y-78329000D03*
X144940000Y-75789000D03*
X144940000Y-73249000D03*
X144940000Y-70709000D03*
X155481000Y-81250000D03*
X152941000Y-81250000D03*
X150401000Y-81250000D03*
X147861000Y-81250000D03*
X146972000Y-68550000D03*
X149512000Y-68550000D03*
X152052000Y-68550000D03*
X154592000Y-68550000D03*
X134306664Y-78583000D03*
X134306664Y-76043000D03*
X134306664Y-73503000D03*
X134306664Y-70963000D03*
X121606664Y-78329000D03*
X121606664Y-75789000D03*
X121606664Y-73249000D03*
X121606664Y-70709000D03*
X132147664Y-81250000D03*
X129607664Y-81250000D03*
X127067664Y-81250000D03*
X124527664Y-81250000D03*
X123638664Y-68550000D03*
X126178664Y-68550000D03*
X128718664Y-68550000D03*
X131258664Y-68550000D03*
X110971332Y-78583000D03*
X110971332Y-76043000D03*
X110971332Y-73503000D03*
X110971332Y-70963000D03*
X98271332Y-78329000D03*
X98271332Y-75789000D03*
X98271332Y-73249000D03*
X98271332Y-70709000D03*
X108812332Y-81250000D03*
X106272332Y-81250000D03*
X103732332Y-81250000D03*
X101192332Y-81250000D03*
X100303332Y-68550000D03*
X102843332Y-68550000D03*
X105383332Y-68550000D03*
X107923332Y-68550000D03*
X84590000Y-68550000D03*
X82050000Y-68550000D03*
X79510000Y-68550000D03*
X76970000Y-68550000D03*
X77859000Y-81250000D03*
X80399000Y-81250000D03*
X82939000Y-81250000D03*
X85479000Y-81250000D03*
X74938000Y-70709000D03*
X74938000Y-73249000D03*
X74938000Y-75789000D03*
X74938000Y-78329000D03*
X87638000Y-70963000D03*
X87638000Y-73503000D03*
X87638000Y-76043000D03*
X87638000Y-78583000D03*
G04 #@! TA.AperFunction,SMDPad,CuDef*
G36*
G01*
X69938000Y-78779001D02*
X69938000Y-77878999D01*
G75*
G02*
X70187999Y-77629000I249999J0D01*
G01*
X70838001Y-77629000D01*
G75*
G02*
X71088000Y-77878999I0J-249999D01*
G01*
X71088000Y-78779001D01*
G75*
G02*
X70838001Y-79029000I-249999J0D01*
G01*
X70187999Y-79029000D01*
G75*
G02*
X69938000Y-78779001I0J249999D01*
G01*
G37*
G04 #@! TD.AperFunction*
G04 #@! TA.AperFunction,SMDPad,CuDef*
G36*
G01*
X71988000Y-78779001D02*
X71988000Y-77878999D01*
G75*
G02*
X72237999Y-77629000I249999J0D01*
G01*
X72888001Y-77629000D01*
G75*
G02*
X73138000Y-77878999I0J-249999D01*
G01*
X73138000Y-78779001D01*
G75*
G02*
X72888001Y-79029000I-249999J0D01*
G01*
X72237999Y-79029000D01*
G75*
G02*
X71988000Y-78779001I0J249999D01*
G01*
G37*
G04 #@! TD.AperFunction*
G04 #@! TA.AperFunction,SMDPad,CuDef*
G36*
G01*
X72038000Y-76239001D02*
X72038000Y-75338999D01*
G75*
G02*
X72287999Y-75089000I249999J0D01*
G01*
X72938001Y-75089000D01*
G75*
G02*
X73188000Y-75338999I0J-249999D01*
G01*
X73188000Y-76239001D01*
G75*
G02*
X72938001Y-76489000I-249999J0D01*
G01*
X72287999Y-76489000D01*
G75*
G02*
X72038000Y-76239001I0J249999D01*
G01*
G37*
G04 #@! TD.AperFunction*
G04 #@! TA.AperFunction,SMDPad,CuDef*
G36*
G01*
X69988000Y-76239001D02*
X69988000Y-75338999D01*
G75*
G02*
X70237999Y-75089000I249999J0D01*
G01*
X70888001Y-75089000D01*
G75*
G02*
X71138000Y-75338999I0J-249999D01*
G01*
X71138000Y-76239001D01*
G75*
G02*
X70888001Y-76489000I-249999J0D01*
G01*
X70237999Y-76489000D01*
G75*
G02*
X69988000Y-76239001I0J249999D01*
G01*
G37*
G04 #@! TD.AperFunction*
G04 #@! TA.AperFunction,SMDPad,CuDef*
G36*
G01*
X93321332Y-78779001D02*
X93321332Y-77878999D01*
G75*
G02*
X93571331Y-77629000I249999J0D01*
G01*
X94221333Y-77629000D01*
G75*
G02*
X94471332Y-77878999I0J-249999D01*
G01*
X94471332Y-78779001D01*
G75*
G02*
X94221333Y-79029000I-249999J0D01*
G01*
X93571331Y-79029000D01*
G75*
G02*
X93321332Y-78779001I0J249999D01*
G01*
G37*
G04 #@! TD.AperFunction*
G04 #@! TA.AperFunction,SMDPad,CuDef*
G36*
G01*
X95371332Y-78779001D02*
X95371332Y-77878999D01*
G75*
G02*
X95621331Y-77629000I249999J0D01*
G01*
X96271333Y-77629000D01*
G75*
G02*
X96521332Y-77878999I0J-249999D01*
G01*
X96521332Y-78779001D01*
G75*
G02*
X96271333Y-79029000I-249999J0D01*
G01*
X95621331Y-79029000D01*
G75*
G02*
X95371332Y-78779001I0J249999D01*
G01*
G37*
G04 #@! TD.AperFunction*
G04 #@! TA.AperFunction,SMDPad,CuDef*
G36*
G01*
X95371332Y-76239001D02*
X95371332Y-75338999D01*
G75*
G02*
X95621331Y-75089000I249999J0D01*
G01*
X96271333Y-75089000D01*
G75*
G02*
X96521332Y-75338999I0J-249999D01*
G01*
X96521332Y-76239001D01*
G75*
G02*
X96271333Y-76489000I-249999J0D01*
G01*
X95621331Y-76489000D01*
G75*
G02*
X95371332Y-76239001I0J249999D01*
G01*
G37*
G04 #@! TD.AperFunction*
G04 #@! TA.AperFunction,SMDPad,CuDef*
G36*
G01*
X93321332Y-76239001D02*
X93321332Y-75338999D01*
G75*
G02*
X93571331Y-75089000I249999J0D01*
G01*
X94221333Y-75089000D01*
G75*
G02*
X94471332Y-75338999I0J-249999D01*
G01*
X94471332Y-76239001D01*
G75*
G02*
X94221333Y-76489000I-249999J0D01*
G01*
X93571331Y-76489000D01*
G75*
G02*
X93321332Y-76239001I0J249999D01*
G01*
G37*
G04 #@! TD.AperFunction*
G04 #@! TA.AperFunction,SMDPad,CuDef*
G36*
G01*
X118706664Y-78779001D02*
X118706664Y-77878999D01*
G75*
G02*
X118956663Y-77629000I249999J0D01*
G01*
X119606665Y-77629000D01*
G75*
G02*
X119856664Y-77878999I0J-249999D01*
G01*
X119856664Y-78779001D01*
G75*
G02*
X119606665Y-79029000I-249999J0D01*
G01*
X118956663Y-79029000D01*
G75*
G02*
X118706664Y-78779001I0J249999D01*
G01*
G37*
G04 #@! TD.AperFunction*
G04 #@! TA.AperFunction,SMDPad,CuDef*
G36*
G01*
X116656664Y-78779001D02*
X116656664Y-77878999D01*
G75*
G02*
X116906663Y-77629000I249999J0D01*
G01*
X117556665Y-77629000D01*
G75*
G02*
X117806664Y-77878999I0J-249999D01*
G01*
X117806664Y-78779001D01*
G75*
G02*
X117556665Y-79029000I-249999J0D01*
G01*
X116906663Y-79029000D01*
G75*
G02*
X116656664Y-78779001I0J249999D01*
G01*
G37*
G04 #@! TD.AperFunction*
G04 #@! TA.AperFunction,SMDPad,CuDef*
G36*
G01*
X116656664Y-76239001D02*
X116656664Y-75338999D01*
G75*
G02*
X116906663Y-75089000I249999J0D01*
G01*
X117556665Y-75089000D01*
G75*
G02*
X117806664Y-75338999I0J-249999D01*
G01*
X117806664Y-76239001D01*
G75*
G02*
X117556665Y-76489000I-249999J0D01*
G01*
X116906663Y-76489000D01*
G75*
G02*
X116656664Y-76239001I0J249999D01*
G01*
G37*
G04 #@! TD.AperFunction*
G04 #@! TA.AperFunction,SMDPad,CuDef*
G36*
G01*
X118706664Y-76239001D02*
X118706664Y-75338999D01*
G75*
G02*
X118956663Y-75089000I249999J0D01*
G01*
X119606665Y-75089000D01*
G75*
G02*
X119856664Y-75338999I0J-249999D01*
G01*
X119856664Y-76239001D01*
G75*
G02*
X119606665Y-76489000I-249999J0D01*
G01*
X118956663Y-76489000D01*
G75*
G02*
X118706664Y-76239001I0J249999D01*
G01*
G37*
G04 #@! TD.AperFunction*
G04 #@! TA.AperFunction,SMDPad,CuDef*
G36*
G01*
X142040000Y-78779001D02*
X142040000Y-77878999D01*
G75*
G02*
X142289999Y-77629000I249999J0D01*
G01*
X142940001Y-77629000D01*
G75*
G02*
X143190000Y-77878999I0J-249999D01*
G01*
X143190000Y-78779001D01*
G75*
G02*
X142940001Y-79029000I-249999J0D01*
G01*
X142289999Y-79029000D01*
G75*
G02*
X142040000Y-78779001I0J249999D01*
G01*
G37*
G04 #@! TD.AperFunction*
G04 #@! TA.AperFunction,SMDPad,CuDef*
G36*
G01*
X139990000Y-78779001D02*
X139990000Y-77878999D01*
G75*
G02*
X140239999Y-77629000I249999J0D01*
G01*
X140890001Y-77629000D01*
G75*
G02*
X141140000Y-77878999I0J-249999D01*
G01*
X141140000Y-78779001D01*
G75*
G02*
X140890001Y-79029000I-249999J0D01*
G01*
X140239999Y-79029000D01*
G75*
G02*
X139990000Y-78779001I0J249999D01*
G01*
G37*
G04 #@! TD.AperFunction*
G04 #@! TA.AperFunction,SMDPad,CuDef*
G36*
G01*
X139990000Y-76239001D02*
X139990000Y-75338999D01*
G75*
G02*
X140239999Y-75089000I249999J0D01*
G01*
X140890001Y-75089000D01*
G75*
G02*
X141140000Y-75338999I0J-249999D01*
G01*
X141140000Y-76239001D01*
G75*
G02*
X140890001Y-76489000I-249999J0D01*
G01*
X140239999Y-76489000D01*
G75*
G02*
X139990000Y-76239001I0J249999D01*
G01*
G37*
G04 #@! TD.AperFunction*
G04 #@! TA.AperFunction,SMDPad,CuDef*
G36*
G01*
X142040000Y-76239001D02*
X142040000Y-75338999D01*
G75*
G02*
X142289999Y-75089000I249999J0D01*
G01*
X142940001Y-75089000D01*
G75*
G02*
X143190000Y-75338999I0J-249999D01*
G01*
X143190000Y-76239001D01*
G75*
G02*
X142940001Y-76489000I-249999J0D01*
G01*
X142289999Y-76489000D01*
G75*
G02*
X142040000Y-76239001I0J249999D01*
G01*
G37*
G04 #@! TD.AperFunction*
G04 #@! TA.AperFunction,SMDPad,CuDef*
G36*
G01*
X79425000Y-66500001D02*
X79425000Y-65599999D01*
G75*
G02*
X79674999Y-65350000I249999J0D01*
G01*
X80325001Y-65350000D01*
G75*
G02*
X80575000Y-65599999I0J-249999D01*
G01*
X80575000Y-66500001D01*
G75*
G02*
X80325001Y-66750000I-249999J0D01*
G01*
X79674999Y-66750000D01*
G75*
G02*
X79425000Y-66500001I0J249999D01*
G01*
G37*
G04 #@! TD.AperFunction*
G04 #@! TA.AperFunction,SMDPad,CuDef*
G36*
G01*
X81475000Y-66500001D02*
X81475000Y-65599999D01*
G75*
G02*
X81724999Y-65350000I249999J0D01*
G01*
X82375001Y-65350000D01*
G75*
G02*
X82625000Y-65599999I0J-249999D01*
G01*
X82625000Y-66500001D01*
G75*
G02*
X82375001Y-66750000I-249999J0D01*
G01*
X81724999Y-66750000D01*
G75*
G02*
X81475000Y-66500001I0J249999D01*
G01*
G37*
G04 #@! TD.AperFunction*
G04 #@! TA.AperFunction,SMDPad,CuDef*
G36*
G01*
X102758332Y-66500001D02*
X102758332Y-65599999D01*
G75*
G02*
X103008331Y-65350000I249999J0D01*
G01*
X103658333Y-65350000D01*
G75*
G02*
X103908332Y-65599999I0J-249999D01*
G01*
X103908332Y-66500001D01*
G75*
G02*
X103658333Y-66750000I-249999J0D01*
G01*
X103008331Y-66750000D01*
G75*
G02*
X102758332Y-66500001I0J249999D01*
G01*
G37*
G04 #@! TD.AperFunction*
G04 #@! TA.AperFunction,SMDPad,CuDef*
G36*
G01*
X104808332Y-66500001D02*
X104808332Y-65599999D01*
G75*
G02*
X105058331Y-65350000I249999J0D01*
G01*
X105708333Y-65350000D01*
G75*
G02*
X105958332Y-65599999I0J-249999D01*
G01*
X105958332Y-66500001D01*
G75*
G02*
X105708333Y-66750000I-249999J0D01*
G01*
X105058331Y-66750000D01*
G75*
G02*
X104808332Y-66500001I0J249999D01*
G01*
G37*
G04 #@! TD.AperFunction*
G04 #@! TA.AperFunction,SMDPad,CuDef*
G36*
G01*
X126093664Y-66500001D02*
X126093664Y-65599999D01*
G75*
G02*
X126343663Y-65350000I249999J0D01*
G01*
X126993665Y-65350000D01*
G75*
G02*
X127243664Y-65599999I0J-249999D01*
G01*
X127243664Y-66500001D01*
G75*
G02*
X126993665Y-66750000I-249999J0D01*
G01*
X126343663Y-66750000D01*
G75*
G02*
X126093664Y-66500001I0J249999D01*
G01*
G37*
G04 #@! TD.AperFunction*
G04 #@! TA.AperFunction,SMDPad,CuDef*
G36*
G01*
X128143664Y-66500001D02*
X128143664Y-65599999D01*
G75*
G02*
X128393663Y-65350000I249999J0D01*
G01*
X129043665Y-65350000D01*
G75*
G02*
X129293664Y-65599999I0J-249999D01*
G01*
X129293664Y-66500001D01*
G75*
G02*
X129043665Y-66750000I-249999J0D01*
G01*
X128393663Y-66750000D01*
G75*
G02*
X128143664Y-66500001I0J249999D01*
G01*
G37*
G04 #@! TD.AperFunction*
G04 #@! TA.AperFunction,SMDPad,CuDef*
G36*
G01*
X151477000Y-66500001D02*
X151477000Y-65599999D01*
G75*
G02*
X151726999Y-65350000I249999J0D01*
G01*
X152377001Y-65350000D01*
G75*
G02*
X152627000Y-65599999I0J-249999D01*
G01*
X152627000Y-66500001D01*
G75*
G02*
X152377001Y-66750000I-249999J0D01*
G01*
X151726999Y-66750000D01*
G75*
G02*
X151477000Y-66500001I0J249999D01*
G01*
G37*
G04 #@! TD.AperFunction*
G04 #@! TA.AperFunction,SMDPad,CuDef*
G36*
G01*
X149427000Y-66500001D02*
X149427000Y-65599999D01*
G75*
G02*
X149676999Y-65350000I249999J0D01*
G01*
X150327001Y-65350000D01*
G75*
G02*
X150577000Y-65599999I0J-249999D01*
G01*
X150577000Y-66500001D01*
G75*
G02*
X150327001Y-66750000I-249999J0D01*
G01*
X149676999Y-66750000D01*
G75*
G02*
X149427000Y-66500001I0J249999D01*
G01*
G37*
G04 #@! TD.AperFunction*
G04 #@! TA.AperFunction,SMDPad,CuDef*
G36*
G01*
X81874000Y-86700001D02*
X81874000Y-85799999D01*
G75*
G02*
X82123999Y-85550000I249999J0D01*
G01*
X82774001Y-85550000D01*
G75*
G02*
X83024000Y-85799999I0J-249999D01*
G01*
X83024000Y-86700001D01*
G75*
G02*
X82774001Y-86950000I-249999J0D01*
G01*
X82123999Y-86950000D01*
G75*
G02*
X81874000Y-86700001I0J249999D01*
G01*
G37*
G04 #@! TD.AperFunction*
G04 #@! TA.AperFunction,SMDPad,CuDef*
G36*
G01*
X79824000Y-86700001D02*
X79824000Y-85799999D01*
G75*
G02*
X80073999Y-85550000I249999J0D01*
G01*
X80724001Y-85550000D01*
G75*
G02*
X80974000Y-85799999I0J-249999D01*
G01*
X80974000Y-86700001D01*
G75*
G02*
X80724001Y-86950000I-249999J0D01*
G01*
X80073999Y-86950000D01*
G75*
G02*
X79824000Y-86700001I0J249999D01*
G01*
G37*
G04 #@! TD.AperFunction*
G04 #@! TA.AperFunction,SMDPad,CuDef*
G36*
G01*
X79824000Y-84200001D02*
X79824000Y-83299999D01*
G75*
G02*
X80073999Y-83050000I249999J0D01*
G01*
X80724001Y-83050000D01*
G75*
G02*
X80974000Y-83299999I0J-249999D01*
G01*
X80974000Y-84200001D01*
G75*
G02*
X80724001Y-84450000I-249999J0D01*
G01*
X80073999Y-84450000D01*
G75*
G02*
X79824000Y-84200001I0J249999D01*
G01*
G37*
G04 #@! TD.AperFunction*
G04 #@! TA.AperFunction,SMDPad,CuDef*
G36*
G01*
X81874000Y-84200001D02*
X81874000Y-83299999D01*
G75*
G02*
X82123999Y-83050000I249999J0D01*
G01*
X82774001Y-83050000D01*
G75*
G02*
X83024000Y-83299999I0J-249999D01*
G01*
X83024000Y-84200001D01*
G75*
G02*
X82774001Y-84450000I-249999J0D01*
G01*
X82123999Y-84450000D01*
G75*
G02*
X81874000Y-84200001I0J249999D01*
G01*
G37*
G04 #@! TD.AperFunction*
G04 #@! TA.AperFunction,SMDPad,CuDef*
G36*
G01*
X105207332Y-86700001D02*
X105207332Y-85799999D01*
G75*
G02*
X105457331Y-85550000I249999J0D01*
G01*
X106107333Y-85550000D01*
G75*
G02*
X106357332Y-85799999I0J-249999D01*
G01*
X106357332Y-86700001D01*
G75*
G02*
X106107333Y-86950000I-249999J0D01*
G01*
X105457331Y-86950000D01*
G75*
G02*
X105207332Y-86700001I0J249999D01*
G01*
G37*
G04 #@! TD.AperFunction*
G04 #@! TA.AperFunction,SMDPad,CuDef*
G36*
G01*
X103157332Y-86700001D02*
X103157332Y-85799999D01*
G75*
G02*
X103407331Y-85550000I249999J0D01*
G01*
X104057333Y-85550000D01*
G75*
G02*
X104307332Y-85799999I0J-249999D01*
G01*
X104307332Y-86700001D01*
G75*
G02*
X104057333Y-86950000I-249999J0D01*
G01*
X103407331Y-86950000D01*
G75*
G02*
X103157332Y-86700001I0J249999D01*
G01*
G37*
G04 #@! TD.AperFunction*
G04 #@! TA.AperFunction,SMDPad,CuDef*
G36*
G01*
X103157332Y-84200001D02*
X103157332Y-83299999D01*
G75*
G02*
X103407331Y-83050000I249999J0D01*
G01*
X104057333Y-83050000D01*
G75*
G02*
X104307332Y-83299999I0J-249999D01*
G01*
X104307332Y-84200001D01*
G75*
G02*
X104057333Y-84450000I-249999J0D01*
G01*
X103407331Y-84450000D01*
G75*
G02*
X103157332Y-84200001I0J249999D01*
G01*
G37*
G04 #@! TD.AperFunction*
G04 #@! TA.AperFunction,SMDPad,CuDef*
G36*
G01*
X105207332Y-84200001D02*
X105207332Y-83299999D01*
G75*
G02*
X105457331Y-83050000I249999J0D01*
G01*
X106107333Y-83050000D01*
G75*
G02*
X106357332Y-83299999I0J-249999D01*
G01*
X106357332Y-84200001D01*
G75*
G02*
X106107333Y-84450000I-249999J0D01*
G01*
X105457331Y-84450000D01*
G75*
G02*
X105207332Y-84200001I0J249999D01*
G01*
G37*
G04 #@! TD.AperFunction*
G04 #@! TA.AperFunction,SMDPad,CuDef*
G36*
G01*
X128542664Y-86700001D02*
X128542664Y-85799999D01*
G75*
G02*
X128792663Y-85550000I249999J0D01*
G01*
X129442665Y-85550000D01*
G75*
G02*
X129692664Y-85799999I0J-249999D01*
G01*
X129692664Y-86700001D01*
G75*
G02*
X129442665Y-86950000I-249999J0D01*
G01*
X128792663Y-86950000D01*
G75*
G02*
X128542664Y-86700001I0J249999D01*
G01*
G37*
G04 #@! TD.AperFunction*
G04 #@! TA.AperFunction,SMDPad,CuDef*
G36*
G01*
X126492664Y-86700001D02*
X126492664Y-85799999D01*
G75*
G02*
X126742663Y-85550000I249999J0D01*
G01*
X127392665Y-85550000D01*
G75*
G02*
X127642664Y-85799999I0J-249999D01*
G01*
X127642664Y-86700001D01*
G75*
G02*
X127392665Y-86950000I-249999J0D01*
G01*
X126742663Y-86950000D01*
G75*
G02*
X126492664Y-86700001I0J249999D01*
G01*
G37*
G04 #@! TD.AperFunction*
G04 #@! TA.AperFunction,SMDPad,CuDef*
G36*
G01*
X126492664Y-84200001D02*
X126492664Y-83299999D01*
G75*
G02*
X126742663Y-83050000I249999J0D01*
G01*
X127392665Y-83050000D01*
G75*
G02*
X127642664Y-83299999I0J-249999D01*
G01*
X127642664Y-84200001D01*
G75*
G02*
X127392665Y-84450000I-249999J0D01*
G01*
X126742663Y-84450000D01*
G75*
G02*
X126492664Y-84200001I0J249999D01*
G01*
G37*
G04 #@! TD.AperFunction*
G04 #@! TA.AperFunction,SMDPad,CuDef*
G36*
G01*
X128542664Y-84200001D02*
X128542664Y-83299999D01*
G75*
G02*
X128792663Y-83050000I249999J0D01*
G01*
X129442665Y-83050000D01*
G75*
G02*
X129692664Y-83299999I0J-249999D01*
G01*
X129692664Y-84200001D01*
G75*
G02*
X129442665Y-84450000I-249999J0D01*
G01*
X128792663Y-84450000D01*
G75*
G02*
X128542664Y-84200001I0J249999D01*
G01*
G37*
G04 #@! TD.AperFunction*
G04 #@! TA.AperFunction,SMDPad,CuDef*
G36*
G01*
X149826000Y-86700001D02*
X149826000Y-85799999D01*
G75*
G02*
X150075999Y-85550000I249999J0D01*
G01*
X150726001Y-85550000D01*
G75*
G02*
X150976000Y-85799999I0J-249999D01*
G01*
X150976000Y-86700001D01*
G75*
G02*
X150726001Y-86950000I-249999J0D01*
G01*
X150075999Y-86950000D01*
G75*
G02*
X149826000Y-86700001I0J249999D01*
G01*
G37*
G04 #@! TD.AperFunction*
G04 #@! TA.AperFunction,SMDPad,CuDef*
G36*
G01*
X151876000Y-86700001D02*
X151876000Y-85799999D01*
G75*
G02*
X152125999Y-85550000I249999J0D01*
G01*
X152776001Y-85550000D01*
G75*
G02*
X153026000Y-85799999I0J-249999D01*
G01*
X153026000Y-86700001D01*
G75*
G02*
X152776001Y-86950000I-249999J0D01*
G01*
X152125999Y-86950000D01*
G75*
G02*
X151876000Y-86700001I0J249999D01*
G01*
G37*
G04 #@! TD.AperFunction*
G04 #@! TA.AperFunction,SMDPad,CuDef*
G36*
G01*
X151876000Y-84200001D02*
X151876000Y-83299999D01*
G75*
G02*
X152125999Y-83050000I249999J0D01*
G01*
X152776001Y-83050000D01*
G75*
G02*
X153026000Y-83299999I0J-249999D01*
G01*
X153026000Y-84200001D01*
G75*
G02*
X152776001Y-84450000I-249999J0D01*
G01*
X152125999Y-84450000D01*
G75*
G02*
X151876000Y-84200001I0J249999D01*
G01*
G37*
G04 #@! TD.AperFunction*
G04 #@! TA.AperFunction,SMDPad,CuDef*
G36*
G01*
X149826000Y-84200001D02*
X149826000Y-83299999D01*
G75*
G02*
X150075999Y-83050000I249999J0D01*
G01*
X150726001Y-83050000D01*
G75*
G02*
X150976000Y-83299999I0J-249999D01*
G01*
X150976000Y-84200001D01*
G75*
G02*
X150726001Y-84450000I-249999J0D01*
G01*
X150075999Y-84450000D01*
G75*
G02*
X149826000Y-84200001I0J249999D01*
G01*
G37*
G04 #@! TD.AperFunction*
G04 #@! TA.AperFunction,SMDPad,CuDef*
G36*
G01*
X143980000Y-101379999D02*
X143980000Y-102280001D01*
G75*
G02*
X143730001Y-102530000I-249999J0D01*
G01*
X143079999Y-102530000D01*
G75*
G02*
X142830000Y-102280001I0J249999D01*
G01*
X142830000Y-101379999D01*
G75*
G02*
X143079999Y-101130000I249999J0D01*
G01*
X143730001Y-101130000D01*
G75*
G02*
X143980000Y-101379999I0J-249999D01*
G01*
G37*
G04 #@! TD.AperFunction*
G04 #@! TA.AperFunction,SMDPad,CuDef*
G36*
G01*
X146030000Y-101379999D02*
X146030000Y-102280001D01*
G75*
G02*
X145780001Y-102530000I-249999J0D01*
G01*
X145129999Y-102530000D01*
G75*
G02*
X144880000Y-102280001I0J249999D01*
G01*
X144880000Y-101379999D01*
G75*
G02*
X145129999Y-101130000I249999J0D01*
G01*
X145780001Y-101130000D01*
G75*
G02*
X146030000Y-101379999I0J-249999D01*
G01*
G37*
G04 #@! TD.AperFunction*
G04 #@! TA.AperFunction,SMDPad,CuDef*
G36*
G01*
X146030000Y-99064999D02*
X146030000Y-99965001D01*
G75*
G02*
X145780001Y-100215000I-249999J0D01*
G01*
X145129999Y-100215000D01*
G75*
G02*
X144880000Y-99965001I0J249999D01*
G01*
X144880000Y-99064999D01*
G75*
G02*
X145129999Y-98815000I249999J0D01*
G01*
X145780001Y-98815000D01*
G75*
G02*
X146030000Y-99064999I0J-249999D01*
G01*
G37*
G04 #@! TD.AperFunction*
G04 #@! TA.AperFunction,SMDPad,CuDef*
G36*
G01*
X143980000Y-99064999D02*
X143980000Y-99965001D01*
G75*
G02*
X143730001Y-100215000I-249999J0D01*
G01*
X143079999Y-100215000D01*
G75*
G02*
X142830000Y-99965001I0J249999D01*
G01*
X142830000Y-99064999D01*
G75*
G02*
X143079999Y-98815000I249999J0D01*
G01*
X143730001Y-98815000D01*
G75*
G02*
X143980000Y-99064999I0J-249999D01*
G01*
G37*
G04 #@! TD.AperFunction*
G04 #@! TA.AperFunction,SMDPad,CuDef*
G36*
G01*
X148020000Y-114290001D02*
X148020000Y-113389999D01*
G75*
G02*
X148269999Y-113140000I249999J0D01*
G01*
X148920001Y-113140000D01*
G75*
G02*
X149170000Y-113389999I0J-249999D01*
G01*
X149170000Y-114290001D01*
G75*
G02*
X148920001Y-114540000I-249999J0D01*
G01*
X148269999Y-114540000D01*
G75*
G02*
X148020000Y-114290001I0J249999D01*
G01*
G37*
G04 #@! TD.AperFunction*
G04 #@! TA.AperFunction,SMDPad,CuDef*
G36*
G01*
X150070000Y-114290001D02*
X150070000Y-113389999D01*
G75*
G02*
X150319999Y-113140000I249999J0D01*
G01*
X150970001Y-113140000D01*
G75*
G02*
X151220000Y-113389999I0J-249999D01*
G01*
X151220000Y-114290001D01*
G75*
G02*
X150970001Y-114540000I-249999J0D01*
G01*
X150319999Y-114540000D01*
G75*
G02*
X150070000Y-114290001I0J249999D01*
G01*
G37*
G04 #@! TD.AperFunction*
G04 #@! TA.AperFunction,SMDPad,CuDef*
G36*
G01*
X150070000Y-111940001D02*
X150070000Y-111039999D01*
G75*
G02*
X150319999Y-110790000I249999J0D01*
G01*
X150970001Y-110790000D01*
G75*
G02*
X151220000Y-111039999I0J-249999D01*
G01*
X151220000Y-111940001D01*
G75*
G02*
X150970001Y-112190000I-249999J0D01*
G01*
X150319999Y-112190000D01*
G75*
G02*
X150070000Y-111940001I0J249999D01*
G01*
G37*
G04 #@! TD.AperFunction*
G04 #@! TA.AperFunction,SMDPad,CuDef*
G36*
G01*
X148020000Y-111940001D02*
X148020000Y-111039999D01*
G75*
G02*
X148269999Y-110790000I249999J0D01*
G01*
X148920001Y-110790000D01*
G75*
G02*
X149170000Y-111039999I0J-249999D01*
G01*
X149170000Y-111940001D01*
G75*
G02*
X148920001Y-112190000I-249999J0D01*
G01*
X148269999Y-112190000D01*
G75*
G02*
X148020000Y-111940001I0J249999D01*
G01*
G37*
G04 #@! TD.AperFunction*
G04 #@! TA.AperFunction,SMDPad,CuDef*
G36*
G01*
X104200000Y-109449999D02*
X104200000Y-110350001D01*
G75*
G02*
X103950001Y-110600000I-249999J0D01*
G01*
X103299999Y-110600000D01*
G75*
G02*
X103050000Y-110350001I0J249999D01*
G01*
X103050000Y-109449999D01*
G75*
G02*
X103299999Y-109200000I249999J0D01*
G01*
X103950001Y-109200000D01*
G75*
G02*
X104200000Y-109449999I0J-249999D01*
G01*
G37*
G04 #@! TD.AperFunction*
G04 #@! TA.AperFunction,SMDPad,CuDef*
G36*
G01*
X102150000Y-109449999D02*
X102150000Y-110350001D01*
G75*
G02*
X101900001Y-110600000I-249999J0D01*
G01*
X101249999Y-110600000D01*
G75*
G02*
X101000000Y-110350001I0J249999D01*
G01*
X101000000Y-109449999D01*
G75*
G02*
X101249999Y-109200000I249999J0D01*
G01*
X101900001Y-109200000D01*
G75*
G02*
X102150000Y-109449999I0J-249999D01*
G01*
G37*
G04 #@! TD.AperFunction*
G04 #@! TA.AperFunction,SMDPad,CuDef*
G36*
G01*
X104200000Y-111999999D02*
X104200000Y-112900001D01*
G75*
G02*
X103950001Y-113150000I-249999J0D01*
G01*
X103299999Y-113150000D01*
G75*
G02*
X103050000Y-112900001I0J249999D01*
G01*
X103050000Y-111999999D01*
G75*
G02*
X103299999Y-111750000I249999J0D01*
G01*
X103950001Y-111750000D01*
G75*
G02*
X104200000Y-111999999I0J-249999D01*
G01*
G37*
G04 #@! TD.AperFunction*
G04 #@! TA.AperFunction,SMDPad,CuDef*
G36*
G01*
X102150000Y-111999999D02*
X102150000Y-112900001D01*
G75*
G02*
X101900001Y-113150000I-249999J0D01*
G01*
X101249999Y-113150000D01*
G75*
G02*
X101000000Y-112900001I0J249999D01*
G01*
X101000000Y-111999999D01*
G75*
G02*
X101249999Y-111750000I249999J0D01*
G01*
X101900001Y-111750000D01*
G75*
G02*
X102150000Y-111999999I0J-249999D01*
G01*
G37*
G04 #@! TD.AperFunction*
G04 #@! TA.AperFunction,SMDPad,CuDef*
G36*
G01*
X125480001Y-116245000D02*
X124579999Y-116245000D01*
G75*
G02*
X124330000Y-115995001I0J249999D01*
G01*
X124330000Y-115344999D01*
G75*
G02*
X124579999Y-115095000I249999J0D01*
G01*
X125480001Y-115095000D01*
G75*
G02*
X125730000Y-115344999I0J-249999D01*
G01*
X125730000Y-115995001D01*
G75*
G02*
X125480001Y-116245000I-249999J0D01*
G01*
G37*
G04 #@! TD.AperFunction*
G04 #@! TA.AperFunction,SMDPad,CuDef*
G36*
G01*
X125480001Y-118295000D02*
X124579999Y-118295000D01*
G75*
G02*
X124330000Y-118045001I0J249999D01*
G01*
X124330000Y-117394999D01*
G75*
G02*
X124579999Y-117145000I249999J0D01*
G01*
X125480001Y-117145000D01*
G75*
G02*
X125730000Y-117394999I0J-249999D01*
G01*
X125730000Y-118045001D01*
G75*
G02*
X125480001Y-118295000I-249999J0D01*
G01*
G37*
G04 #@! TD.AperFunction*
G04 #@! TA.AperFunction,SMDPad,CuDef*
G36*
G01*
X98775000Y-112900001D02*
X98775000Y-111999999D01*
G75*
G02*
X99024999Y-111750000I249999J0D01*
G01*
X99675001Y-111750000D01*
G75*
G02*
X99925000Y-111999999I0J-249999D01*
G01*
X99925000Y-112900001D01*
G75*
G02*
X99675001Y-113150000I-249999J0D01*
G01*
X99024999Y-113150000D01*
G75*
G02*
X98775000Y-112900001I0J249999D01*
G01*
G37*
G04 #@! TD.AperFunction*
G04 #@! TA.AperFunction,SMDPad,CuDef*
G36*
G01*
X96725000Y-112900001D02*
X96725000Y-111999999D01*
G75*
G02*
X96974999Y-111750000I249999J0D01*
G01*
X97625001Y-111750000D01*
G75*
G02*
X97875000Y-111999999I0J-249999D01*
G01*
X97875000Y-112900001D01*
G75*
G02*
X97625001Y-113150000I-249999J0D01*
G01*
X96974999Y-113150000D01*
G75*
G02*
X96725000Y-112900001I0J249999D01*
G01*
G37*
G04 #@! TD.AperFunction*
G04 #@! TA.AperFunction,SMDPad,CuDef*
G36*
G01*
X132029999Y-117145000D02*
X132930001Y-117145000D01*
G75*
G02*
X133180000Y-117394999I0J-249999D01*
G01*
X133180000Y-118045001D01*
G75*
G02*
X132930001Y-118295000I-249999J0D01*
G01*
X132029999Y-118295000D01*
G75*
G02*
X131780000Y-118045001I0J249999D01*
G01*
X131780000Y-117394999D01*
G75*
G02*
X132029999Y-117145000I249999J0D01*
G01*
G37*
G04 #@! TD.AperFunction*
G04 #@! TA.AperFunction,SMDPad,CuDef*
G36*
G01*
X132029999Y-115095000D02*
X132930001Y-115095000D01*
G75*
G02*
X133180000Y-115344999I0J-249999D01*
G01*
X133180000Y-115995001D01*
G75*
G02*
X132930001Y-116245000I-249999J0D01*
G01*
X132029999Y-116245000D01*
G75*
G02*
X131780000Y-115995001I0J249999D01*
G01*
X131780000Y-115344999D01*
G75*
G02*
X132029999Y-115095000I249999J0D01*
G01*
G37*
G04 #@! TD.AperFunction*
D13*
X93950000Y-101275000D03*
X93950000Y-106275000D03*
G04 #@! TA.AperFunction,SMDPad,CuDef*
G36*
G01*
X127150000Y-113980001D02*
X127150000Y-113079999D01*
G75*
G02*
X127399999Y-112830000I249999J0D01*
G01*
X128050001Y-112830000D01*
G75*
G02*
X128300000Y-113079999I0J-249999D01*
G01*
X128300000Y-113980001D01*
G75*
G02*
X128050001Y-114230000I-249999J0D01*
G01*
X127399999Y-114230000D01*
G75*
G02*
X127150000Y-113980001I0J249999D01*
G01*
G37*
G04 #@! TD.AperFunction*
G04 #@! TA.AperFunction,SMDPad,CuDef*
G36*
G01*
X129200000Y-113980001D02*
X129200000Y-113079999D01*
G75*
G02*
X129449999Y-112830000I249999J0D01*
G01*
X130100001Y-112830000D01*
G75*
G02*
X130350000Y-113079999I0J-249999D01*
G01*
X130350000Y-113980001D01*
G75*
G02*
X130100001Y-114230000I-249999J0D01*
G01*
X129449999Y-114230000D01*
G75*
G02*
X129200000Y-113980001I0J249999D01*
G01*
G37*
G04 #@! TD.AperFunction*
D14*
X79450000Y-106955000D03*
X79450000Y-102395000D03*
D15*
X73150000Y-104675000D03*
G04 #@! TA.AperFunction,SMDPad,CuDef*
G36*
G01*
X79948999Y-88050000D02*
X80849001Y-88050000D01*
G75*
G02*
X81099000Y-88299999I0J-249999D01*
G01*
X81099000Y-88950001D01*
G75*
G02*
X80849001Y-89200000I-249999J0D01*
G01*
X79948999Y-89200000D01*
G75*
G02*
X79699000Y-88950001I0J249999D01*
G01*
X79699000Y-88299999D01*
G75*
G02*
X79948999Y-88050000I249999J0D01*
G01*
G37*
G04 #@! TD.AperFunction*
G04 #@! TA.AperFunction,SMDPad,CuDef*
G36*
G01*
X79948999Y-90100000D02*
X80849001Y-90100000D01*
G75*
G02*
X81099000Y-90349999I0J-249999D01*
G01*
X81099000Y-91000001D01*
G75*
G02*
X80849001Y-91250000I-249999J0D01*
G01*
X79948999Y-91250000D01*
G75*
G02*
X79699000Y-91000001I0J249999D01*
G01*
X79699000Y-90349999D01*
G75*
G02*
X79948999Y-90100000I249999J0D01*
G01*
G37*
G04 #@! TD.AperFunction*
G04 #@! TA.AperFunction,SMDPad,CuDef*
G36*
G01*
X103282331Y-88050000D02*
X104182333Y-88050000D01*
G75*
G02*
X104432332Y-88299999I0J-249999D01*
G01*
X104432332Y-88950001D01*
G75*
G02*
X104182333Y-89200000I-249999J0D01*
G01*
X103282331Y-89200000D01*
G75*
G02*
X103032332Y-88950001I0J249999D01*
G01*
X103032332Y-88299999D01*
G75*
G02*
X103282331Y-88050000I249999J0D01*
G01*
G37*
G04 #@! TD.AperFunction*
G04 #@! TA.AperFunction,SMDPad,CuDef*
G36*
G01*
X103282331Y-90100000D02*
X104182333Y-90100000D01*
G75*
G02*
X104432332Y-90349999I0J-249999D01*
G01*
X104432332Y-91000001D01*
G75*
G02*
X104182333Y-91250000I-249999J0D01*
G01*
X103282331Y-91250000D01*
G75*
G02*
X103032332Y-91000001I0J249999D01*
G01*
X103032332Y-90349999D01*
G75*
G02*
X103282331Y-90100000I249999J0D01*
G01*
G37*
G04 #@! TD.AperFunction*
G04 #@! TA.AperFunction,SMDPad,CuDef*
G36*
G01*
X126617663Y-90100000D02*
X127517665Y-90100000D01*
G75*
G02*
X127767664Y-90349999I0J-249999D01*
G01*
X127767664Y-91000001D01*
G75*
G02*
X127517665Y-91250000I-249999J0D01*
G01*
X126617663Y-91250000D01*
G75*
G02*
X126367664Y-91000001I0J249999D01*
G01*
X126367664Y-90349999D01*
G75*
G02*
X126617663Y-90100000I249999J0D01*
G01*
G37*
G04 #@! TD.AperFunction*
G04 #@! TA.AperFunction,SMDPad,CuDef*
G36*
G01*
X126617663Y-88050000D02*
X127517665Y-88050000D01*
G75*
G02*
X127767664Y-88299999I0J-249999D01*
G01*
X127767664Y-88950001D01*
G75*
G02*
X127517665Y-89200000I-249999J0D01*
G01*
X126617663Y-89200000D01*
G75*
G02*
X126367664Y-88950001I0J249999D01*
G01*
X126367664Y-88299999D01*
G75*
G02*
X126617663Y-88050000I249999J0D01*
G01*
G37*
G04 #@! TD.AperFunction*
G04 #@! TA.AperFunction,SMDPad,CuDef*
G36*
G01*
X149950999Y-88050000D02*
X150851001Y-88050000D01*
G75*
G02*
X151101000Y-88299999I0J-249999D01*
G01*
X151101000Y-88950001D01*
G75*
G02*
X150851001Y-89200000I-249999J0D01*
G01*
X149950999Y-89200000D01*
G75*
G02*
X149701000Y-88950001I0J249999D01*
G01*
X149701000Y-88299999D01*
G75*
G02*
X149950999Y-88050000I249999J0D01*
G01*
G37*
G04 #@! TD.AperFunction*
G04 #@! TA.AperFunction,SMDPad,CuDef*
G36*
G01*
X149950999Y-90100000D02*
X150851001Y-90100000D01*
G75*
G02*
X151101000Y-90349999I0J-249999D01*
G01*
X151101000Y-91000001D01*
G75*
G02*
X150851001Y-91250000I-249999J0D01*
G01*
X149950999Y-91250000D01*
G75*
G02*
X149701000Y-91000001I0J249999D01*
G01*
X149701000Y-90349999D01*
G75*
G02*
X149950999Y-90100000I249999J0D01*
G01*
G37*
G04 #@! TD.AperFunction*
G04 #@! TA.AperFunction,SMDPad,CuDef*
G36*
G01*
X96824999Y-104825000D02*
X97725001Y-104825000D01*
G75*
G02*
X97975000Y-105074999I0J-249999D01*
G01*
X97975000Y-105725001D01*
G75*
G02*
X97725001Y-105975000I-249999J0D01*
G01*
X96824999Y-105975000D01*
G75*
G02*
X96575000Y-105725001I0J249999D01*
G01*
X96575000Y-105074999D01*
G75*
G02*
X96824999Y-104825000I249999J0D01*
G01*
G37*
G04 #@! TD.AperFunction*
G04 #@! TA.AperFunction,SMDPad,CuDef*
G36*
G01*
X96824999Y-106875000D02*
X97725001Y-106875000D01*
G75*
G02*
X97975000Y-107124999I0J-249999D01*
G01*
X97975000Y-107775001D01*
G75*
G02*
X97725001Y-108025000I-249999J0D01*
G01*
X96824999Y-108025000D01*
G75*
G02*
X96575000Y-107775001I0J249999D01*
G01*
X96575000Y-107124999D01*
G75*
G02*
X96824999Y-106875000I249999J0D01*
G01*
G37*
G04 #@! TD.AperFunction*
G04 #@! TA.AperFunction,SMDPad,CuDef*
G36*
G01*
X124870000Y-120300001D02*
X124870000Y-119399999D01*
G75*
G02*
X125119999Y-119150000I249999J0D01*
G01*
X125770001Y-119150000D01*
G75*
G02*
X126020000Y-119399999I0J-249999D01*
G01*
X126020000Y-120300001D01*
G75*
G02*
X125770001Y-120550000I-249999J0D01*
G01*
X125119999Y-120550000D01*
G75*
G02*
X124870000Y-120300001I0J249999D01*
G01*
G37*
G04 #@! TD.AperFunction*
G04 #@! TA.AperFunction,SMDPad,CuDef*
G36*
G01*
X126920000Y-120300001D02*
X126920000Y-119399999D01*
G75*
G02*
X127169999Y-119150000I249999J0D01*
G01*
X127820001Y-119150000D01*
G75*
G02*
X128070000Y-119399999I0J-249999D01*
G01*
X128070000Y-120300001D01*
G75*
G02*
X127820001Y-120550000I-249999J0D01*
G01*
X127169999Y-120550000D01*
G75*
G02*
X126920000Y-120300001I0J249999D01*
G01*
G37*
G04 #@! TD.AperFunction*
G04 #@! TA.AperFunction,SMDPad,CuDef*
G36*
G01*
X80550000Y-109449999D02*
X80550000Y-110350001D01*
G75*
G02*
X80300001Y-110600000I-249999J0D01*
G01*
X79649999Y-110600000D01*
G75*
G02*
X79400000Y-110350001I0J249999D01*
G01*
X79400000Y-109449999D01*
G75*
G02*
X79649999Y-109200000I249999J0D01*
G01*
X80300001Y-109200000D01*
G75*
G02*
X80550000Y-109449999I0J-249999D01*
G01*
G37*
G04 #@! TD.AperFunction*
G04 #@! TA.AperFunction,SMDPad,CuDef*
G36*
G01*
X78500000Y-109449999D02*
X78500000Y-110350001D01*
G75*
G02*
X78250001Y-110600000I-249999J0D01*
G01*
X77599999Y-110600000D01*
G75*
G02*
X77350000Y-110350001I0J249999D01*
G01*
X77350000Y-109449999D01*
G75*
G02*
X77599999Y-109200000I249999J0D01*
G01*
X78250001Y-109200000D01*
G75*
G02*
X78500000Y-109449999I0J-249999D01*
G01*
G37*
G04 #@! TD.AperFunction*
G04 #@! TA.AperFunction,SMDPad,CuDef*
G36*
G01*
X98775000Y-110350001D02*
X98775000Y-109449999D01*
G75*
G02*
X99024999Y-109200000I249999J0D01*
G01*
X99675001Y-109200000D01*
G75*
G02*
X99925000Y-109449999I0J-249999D01*
G01*
X99925000Y-110350001D01*
G75*
G02*
X99675001Y-110600000I-249999J0D01*
G01*
X99024999Y-110600000D01*
G75*
G02*
X98775000Y-110350001I0J249999D01*
G01*
G37*
G04 #@! TD.AperFunction*
G04 #@! TA.AperFunction,SMDPad,CuDef*
G36*
G01*
X96725000Y-110350001D02*
X96725000Y-109449999D01*
G75*
G02*
X96974999Y-109200000I249999J0D01*
G01*
X97625001Y-109200000D01*
G75*
G02*
X97875000Y-109449999I0J-249999D01*
G01*
X97875000Y-110350001D01*
G75*
G02*
X97625001Y-110600000I-249999J0D01*
G01*
X96974999Y-110600000D01*
G75*
G02*
X96725000Y-110350001I0J249999D01*
G01*
G37*
G04 #@! TD.AperFunction*
G04 #@! TA.AperFunction,SMDPad,CuDef*
G36*
G01*
X132630000Y-119419999D02*
X132630000Y-120320001D01*
G75*
G02*
X132380001Y-120570000I-249999J0D01*
G01*
X131729999Y-120570000D01*
G75*
G02*
X131480000Y-120320001I0J249999D01*
G01*
X131480000Y-119419999D01*
G75*
G02*
X131729999Y-119170000I249999J0D01*
G01*
X132380001Y-119170000D01*
G75*
G02*
X132630000Y-119419999I0J-249999D01*
G01*
G37*
G04 #@! TD.AperFunction*
G04 #@! TA.AperFunction,SMDPad,CuDef*
G36*
G01*
X130580000Y-119419999D02*
X130580000Y-120320001D01*
G75*
G02*
X130330001Y-120570000I-249999J0D01*
G01*
X129679999Y-120570000D01*
G75*
G02*
X129430000Y-120320001I0J249999D01*
G01*
X129430000Y-119419999D01*
G75*
G02*
X129679999Y-119170000I249999J0D01*
G01*
X130330001Y-119170000D01*
G75*
G02*
X130580000Y-119419999I0J-249999D01*
G01*
G37*
G04 #@! TD.AperFunction*
G04 #@! TA.AperFunction,SMDPad,CuDef*
D16*
G36*
X79650000Y-62695000D02*
G01*
X80350000Y-62695000D01*
X80350000Y-63995000D01*
X79650000Y-63995000D01*
X79650000Y-62695000D01*
G37*
G04 #@! TD.AperFunction*
G04 #@! TA.AperFunction,SMDPad,CuDef*
G36*
X79650000Y-58395000D02*
G01*
X80350000Y-58395000D01*
X80350000Y-59695000D01*
X79650000Y-59695000D01*
X79650000Y-58395000D01*
G37*
G04 #@! TD.AperFunction*
G04 #@! TA.AperFunction,SMDPad,CuDef*
G36*
X81500000Y-60595000D02*
G01*
X82900000Y-60595000D01*
X82900000Y-61795000D01*
X81500000Y-61795000D01*
X81500000Y-60595000D01*
G37*
G04 #@! TD.AperFunction*
G04 #@! TA.AperFunction,SMDPad,CuDef*
G36*
X77100000Y-60595000D02*
G01*
X78500000Y-60595000D01*
X78500000Y-61795000D01*
X77100000Y-61795000D01*
X77100000Y-60595000D01*
G37*
G04 #@! TD.AperFunction*
G04 #@! TA.AperFunction,SMDPad,CuDef*
G36*
X102983332Y-62695000D02*
G01*
X103683332Y-62695000D01*
X103683332Y-63995000D01*
X102983332Y-63995000D01*
X102983332Y-62695000D01*
G37*
G04 #@! TD.AperFunction*
G04 #@! TA.AperFunction,SMDPad,CuDef*
G36*
X102983332Y-58395000D02*
G01*
X103683332Y-58395000D01*
X103683332Y-59695000D01*
X102983332Y-59695000D01*
X102983332Y-58395000D01*
G37*
G04 #@! TD.AperFunction*
G04 #@! TA.AperFunction,SMDPad,CuDef*
G36*
X104833332Y-60595000D02*
G01*
X106233332Y-60595000D01*
X106233332Y-61795000D01*
X104833332Y-61795000D01*
X104833332Y-60595000D01*
G37*
G04 #@! TD.AperFunction*
G04 #@! TA.AperFunction,SMDPad,CuDef*
G36*
X100433332Y-60595000D02*
G01*
X101833332Y-60595000D01*
X101833332Y-61795000D01*
X100433332Y-61795000D01*
X100433332Y-60595000D01*
G37*
G04 #@! TD.AperFunction*
G04 #@! TA.AperFunction,SMDPad,CuDef*
G36*
X123766664Y-60595000D02*
G01*
X125166664Y-60595000D01*
X125166664Y-61795000D01*
X123766664Y-61795000D01*
X123766664Y-60595000D01*
G37*
G04 #@! TD.AperFunction*
G04 #@! TA.AperFunction,SMDPad,CuDef*
G36*
X128166664Y-60595000D02*
G01*
X129566664Y-60595000D01*
X129566664Y-61795000D01*
X128166664Y-61795000D01*
X128166664Y-60595000D01*
G37*
G04 #@! TD.AperFunction*
G04 #@! TA.AperFunction,SMDPad,CuDef*
G36*
X126316664Y-58395000D02*
G01*
X127016664Y-58395000D01*
X127016664Y-59695000D01*
X126316664Y-59695000D01*
X126316664Y-58395000D01*
G37*
G04 #@! TD.AperFunction*
G04 #@! TA.AperFunction,SMDPad,CuDef*
G36*
X126316664Y-62695000D02*
G01*
X127016664Y-62695000D01*
X127016664Y-63995000D01*
X126316664Y-63995000D01*
X126316664Y-62695000D01*
G37*
G04 #@! TD.AperFunction*
G04 #@! TA.AperFunction,SMDPad,CuDef*
G36*
X149650000Y-62695000D02*
G01*
X150350000Y-62695000D01*
X150350000Y-63995000D01*
X149650000Y-63995000D01*
X149650000Y-62695000D01*
G37*
G04 #@! TD.AperFunction*
G04 #@! TA.AperFunction,SMDPad,CuDef*
G36*
X149650000Y-58395000D02*
G01*
X150350000Y-58395000D01*
X150350000Y-59695000D01*
X149650000Y-59695000D01*
X149650000Y-58395000D01*
G37*
G04 #@! TD.AperFunction*
G04 #@! TA.AperFunction,SMDPad,CuDef*
G36*
X151500000Y-60595000D02*
G01*
X152900000Y-60595000D01*
X152900000Y-61795000D01*
X151500000Y-61795000D01*
X151500000Y-60595000D01*
G37*
G04 #@! TD.AperFunction*
G04 #@! TA.AperFunction,SMDPad,CuDef*
G36*
X147100000Y-60595000D02*
G01*
X148500000Y-60595000D01*
X148500000Y-61795000D01*
X147100000Y-61795000D01*
X147100000Y-60595000D01*
G37*
G04 #@! TD.AperFunction*
D17*
X102425000Y-100725000D03*
D18*
X102425000Y-107025000D03*
X104725000Y-107025000D03*
X100125000Y-107025000D03*
D19*
X127400000Y-115745000D03*
X127400000Y-116695000D03*
X127400000Y-117645000D03*
X130100000Y-117645000D03*
X130100000Y-115745000D03*
X130100000Y-116695000D03*
G04 #@! TA.AperFunction,SMDPad,CuDef*
G36*
G01*
X70062999Y-80229000D02*
X70963001Y-80229000D01*
G75*
G02*
X71213000Y-80478999I0J-249999D01*
G01*
X71213000Y-81129001D01*
G75*
G02*
X70963001Y-81379000I-249999J0D01*
G01*
X70062999Y-81379000D01*
G75*
G02*
X69813000Y-81129001I0J249999D01*
G01*
X69813000Y-80478999D01*
G75*
G02*
X70062999Y-80229000I249999J0D01*
G01*
G37*
G04 #@! TD.AperFunction*
G04 #@! TA.AperFunction,SMDPad,CuDef*
G36*
G01*
X70062999Y-82279000D02*
X70963001Y-82279000D01*
G75*
G02*
X71213000Y-82528999I0J-249999D01*
G01*
X71213000Y-83179001D01*
G75*
G02*
X70963001Y-83429000I-249999J0D01*
G01*
X70062999Y-83429000D01*
G75*
G02*
X69813000Y-83179001I0J249999D01*
G01*
X69813000Y-82528999D01*
G75*
G02*
X70062999Y-82279000I249999J0D01*
G01*
G37*
G04 #@! TD.AperFunction*
G04 #@! TA.AperFunction,SMDPad,CuDef*
G36*
G01*
X93446331Y-82279000D02*
X94346333Y-82279000D01*
G75*
G02*
X94596332Y-82528999I0J-249999D01*
G01*
X94596332Y-83179001D01*
G75*
G02*
X94346333Y-83429000I-249999J0D01*
G01*
X93446331Y-83429000D01*
G75*
G02*
X93196332Y-83179001I0J249999D01*
G01*
X93196332Y-82528999D01*
G75*
G02*
X93446331Y-82279000I249999J0D01*
G01*
G37*
G04 #@! TD.AperFunction*
G04 #@! TA.AperFunction,SMDPad,CuDef*
G36*
G01*
X93446331Y-80229000D02*
X94346333Y-80229000D01*
G75*
G02*
X94596332Y-80478999I0J-249999D01*
G01*
X94596332Y-81129001D01*
G75*
G02*
X94346333Y-81379000I-249999J0D01*
G01*
X93446331Y-81379000D01*
G75*
G02*
X93196332Y-81129001I0J249999D01*
G01*
X93196332Y-80478999D01*
G75*
G02*
X93446331Y-80229000I249999J0D01*
G01*
G37*
G04 #@! TD.AperFunction*
G04 #@! TA.AperFunction,SMDPad,CuDef*
G36*
G01*
X116781663Y-80229000D02*
X117681665Y-80229000D01*
G75*
G02*
X117931664Y-80478999I0J-249999D01*
G01*
X117931664Y-81129001D01*
G75*
G02*
X117681665Y-81379000I-249999J0D01*
G01*
X116781663Y-81379000D01*
G75*
G02*
X116531664Y-81129001I0J249999D01*
G01*
X116531664Y-80478999D01*
G75*
G02*
X116781663Y-80229000I249999J0D01*
G01*
G37*
G04 #@! TD.AperFunction*
G04 #@! TA.AperFunction,SMDPad,CuDef*
G36*
G01*
X116781663Y-82279000D02*
X117681665Y-82279000D01*
G75*
G02*
X117931664Y-82528999I0J-249999D01*
G01*
X117931664Y-83179001D01*
G75*
G02*
X117681665Y-83429000I-249999J0D01*
G01*
X116781663Y-83429000D01*
G75*
G02*
X116531664Y-83179001I0J249999D01*
G01*
X116531664Y-82528999D01*
G75*
G02*
X116781663Y-82279000I249999J0D01*
G01*
G37*
G04 #@! TD.AperFunction*
G04 #@! TA.AperFunction,SMDPad,CuDef*
G36*
G01*
X140114999Y-82279000D02*
X141015001Y-82279000D01*
G75*
G02*
X141265000Y-82528999I0J-249999D01*
G01*
X141265000Y-83179001D01*
G75*
G02*
X141015001Y-83429000I-249999J0D01*
G01*
X140114999Y-83429000D01*
G75*
G02*
X139865000Y-83179001I0J249999D01*
G01*
X139865000Y-82528999D01*
G75*
G02*
X140114999Y-82279000I249999J0D01*
G01*
G37*
G04 #@! TD.AperFunction*
G04 #@! TA.AperFunction,SMDPad,CuDef*
G36*
G01*
X140114999Y-80229000D02*
X141015001Y-80229000D01*
G75*
G02*
X141265000Y-80478999I0J-249999D01*
G01*
X141265000Y-81129001D01*
G75*
G02*
X141015001Y-81379000I-249999J0D01*
G01*
X140114999Y-81379000D01*
G75*
G02*
X139865000Y-81129001I0J249999D01*
G01*
X139865000Y-80478999D01*
G75*
G02*
X140114999Y-80229000I249999J0D01*
G01*
G37*
G04 #@! TD.AperFunction*
G04 #@! TA.AperFunction,SMDPad,CuDef*
G36*
G01*
X70074362Y-86859633D02*
X70974364Y-86859633D01*
G75*
G02*
X71224363Y-87109632I0J-249999D01*
G01*
X71224363Y-87759634D01*
G75*
G02*
X70974364Y-88009633I-249999J0D01*
G01*
X70074362Y-88009633D01*
G75*
G02*
X69824363Y-87759634I0J249999D01*
G01*
X69824363Y-87109632D01*
G75*
G02*
X70074362Y-86859633I249999J0D01*
G01*
G37*
G04 #@! TD.AperFunction*
G04 #@! TA.AperFunction,SMDPad,CuDef*
G36*
G01*
X70074362Y-84809633D02*
X70974364Y-84809633D01*
G75*
G02*
X71224363Y-85059632I0J-249999D01*
G01*
X71224363Y-85709634D01*
G75*
G02*
X70974364Y-85959633I-249999J0D01*
G01*
X70074362Y-85959633D01*
G75*
G02*
X69824363Y-85709634I0J249999D01*
G01*
X69824363Y-85059632D01*
G75*
G02*
X70074362Y-84809633I249999J0D01*
G01*
G37*
G04 #@! TD.AperFunction*
G04 #@! TA.AperFunction,SMDPad,CuDef*
G36*
G01*
X93446331Y-84809633D02*
X94346333Y-84809633D01*
G75*
G02*
X94596332Y-85059632I0J-249999D01*
G01*
X94596332Y-85709634D01*
G75*
G02*
X94346333Y-85959633I-249999J0D01*
G01*
X93446331Y-85959633D01*
G75*
G02*
X93196332Y-85709634I0J249999D01*
G01*
X93196332Y-85059632D01*
G75*
G02*
X93446331Y-84809633I249999J0D01*
G01*
G37*
G04 #@! TD.AperFunction*
G04 #@! TA.AperFunction,SMDPad,CuDef*
G36*
G01*
X93446331Y-86859633D02*
X94346333Y-86859633D01*
G75*
G02*
X94596332Y-87109632I0J-249999D01*
G01*
X94596332Y-87759634D01*
G75*
G02*
X94346333Y-88009633I-249999J0D01*
G01*
X93446331Y-88009633D01*
G75*
G02*
X93196332Y-87759634I0J249999D01*
G01*
X93196332Y-87109632D01*
G75*
G02*
X93446331Y-86859633I249999J0D01*
G01*
G37*
G04 #@! TD.AperFunction*
G04 #@! TA.AperFunction,SMDPad,CuDef*
G36*
G01*
X116781663Y-86859633D02*
X117681665Y-86859633D01*
G75*
G02*
X117931664Y-87109632I0J-249999D01*
G01*
X117931664Y-87759634D01*
G75*
G02*
X117681665Y-88009633I-249999J0D01*
G01*
X116781663Y-88009633D01*
G75*
G02*
X116531664Y-87759634I0J249999D01*
G01*
X116531664Y-87109632D01*
G75*
G02*
X116781663Y-86859633I249999J0D01*
G01*
G37*
G04 #@! TD.AperFunction*
G04 #@! TA.AperFunction,SMDPad,CuDef*
G36*
G01*
X116781663Y-84809633D02*
X117681665Y-84809633D01*
G75*
G02*
X117931664Y-85059632I0J-249999D01*
G01*
X117931664Y-85709634D01*
G75*
G02*
X117681665Y-85959633I-249999J0D01*
G01*
X116781663Y-85959633D01*
G75*
G02*
X116531664Y-85709634I0J249999D01*
G01*
X116531664Y-85059632D01*
G75*
G02*
X116781663Y-84809633I249999J0D01*
G01*
G37*
G04 #@! TD.AperFunction*
G04 #@! TA.AperFunction,SMDPad,CuDef*
G36*
G01*
X140114999Y-86859633D02*
X141015001Y-86859633D01*
G75*
G02*
X141265000Y-87109632I0J-249999D01*
G01*
X141265000Y-87759634D01*
G75*
G02*
X141015001Y-88009633I-249999J0D01*
G01*
X140114999Y-88009633D01*
G75*
G02*
X139865000Y-87759634I0J249999D01*
G01*
X139865000Y-87109632D01*
G75*
G02*
X140114999Y-86859633I249999J0D01*
G01*
G37*
G04 #@! TD.AperFunction*
G04 #@! TA.AperFunction,SMDPad,CuDef*
G36*
G01*
X140114999Y-84809633D02*
X141015001Y-84809633D01*
G75*
G02*
X141265000Y-85059632I0J-249999D01*
G01*
X141265000Y-85709634D01*
G75*
G02*
X141015001Y-85959633I-249999J0D01*
G01*
X140114999Y-85959633D01*
G75*
G02*
X139865000Y-85709634I0J249999D01*
G01*
X139865000Y-85059632D01*
G75*
G02*
X140114999Y-84809633I249999J0D01*
G01*
G37*
G04 #@! TD.AperFunction*
G04 #@! TA.AperFunction,SMDPad,CuDef*
G36*
G01*
X72436681Y-85834634D02*
X72436681Y-84934632D01*
G75*
G02*
X72686680Y-84684633I249999J0D01*
G01*
X73336682Y-84684633D01*
G75*
G02*
X73586681Y-84934632I0J-249999D01*
G01*
X73586681Y-85834634D01*
G75*
G02*
X73336682Y-86084633I-249999J0D01*
G01*
X72686680Y-86084633D01*
G75*
G02*
X72436681Y-85834634I0J249999D01*
G01*
G37*
G04 #@! TD.AperFunction*
G04 #@! TA.AperFunction,SMDPad,CuDef*
G36*
G01*
X74486681Y-85834634D02*
X74486681Y-84934632D01*
G75*
G02*
X74736680Y-84684633I249999J0D01*
G01*
X75386682Y-84684633D01*
G75*
G02*
X75636681Y-84934632I0J-249999D01*
G01*
X75636681Y-85834634D01*
G75*
G02*
X75386682Y-86084633I-249999J0D01*
G01*
X74736680Y-86084633D01*
G75*
G02*
X74486681Y-85834634I0J249999D01*
G01*
G37*
G04 #@! TD.AperFunction*
G04 #@! TA.AperFunction,SMDPad,CuDef*
G36*
G01*
X95789332Y-85834634D02*
X95789332Y-84934632D01*
G75*
G02*
X96039331Y-84684633I249999J0D01*
G01*
X96689333Y-84684633D01*
G75*
G02*
X96939332Y-84934632I0J-249999D01*
G01*
X96939332Y-85834634D01*
G75*
G02*
X96689333Y-86084633I-249999J0D01*
G01*
X96039331Y-86084633D01*
G75*
G02*
X95789332Y-85834634I0J249999D01*
G01*
G37*
G04 #@! TD.AperFunction*
G04 #@! TA.AperFunction,SMDPad,CuDef*
G36*
G01*
X97839332Y-85834634D02*
X97839332Y-84934632D01*
G75*
G02*
X98089331Y-84684633I249999J0D01*
G01*
X98739333Y-84684633D01*
G75*
G02*
X98989332Y-84934632I0J-249999D01*
G01*
X98989332Y-85834634D01*
G75*
G02*
X98739333Y-86084633I-249999J0D01*
G01*
X98089331Y-86084633D01*
G75*
G02*
X97839332Y-85834634I0J249999D01*
G01*
G37*
G04 #@! TD.AperFunction*
G04 #@! TA.AperFunction,SMDPad,CuDef*
G36*
G01*
X119124664Y-85834634D02*
X119124664Y-84934632D01*
G75*
G02*
X119374663Y-84684633I249999J0D01*
G01*
X120024665Y-84684633D01*
G75*
G02*
X120274664Y-84934632I0J-249999D01*
G01*
X120274664Y-85834634D01*
G75*
G02*
X120024665Y-86084633I-249999J0D01*
G01*
X119374663Y-86084633D01*
G75*
G02*
X119124664Y-85834634I0J249999D01*
G01*
G37*
G04 #@! TD.AperFunction*
G04 #@! TA.AperFunction,SMDPad,CuDef*
G36*
G01*
X121174664Y-85834634D02*
X121174664Y-84934632D01*
G75*
G02*
X121424663Y-84684633I249999J0D01*
G01*
X122074665Y-84684633D01*
G75*
G02*
X122324664Y-84934632I0J-249999D01*
G01*
X122324664Y-85834634D01*
G75*
G02*
X122074665Y-86084633I-249999J0D01*
G01*
X121424663Y-86084633D01*
G75*
G02*
X121174664Y-85834634I0J249999D01*
G01*
G37*
G04 #@! TD.AperFunction*
G04 #@! TA.AperFunction,SMDPad,CuDef*
G36*
G01*
X142458000Y-85834634D02*
X142458000Y-84934632D01*
G75*
G02*
X142707999Y-84684633I249999J0D01*
G01*
X143358001Y-84684633D01*
G75*
G02*
X143608000Y-84934632I0J-249999D01*
G01*
X143608000Y-85834634D01*
G75*
G02*
X143358001Y-86084633I-249999J0D01*
G01*
X142707999Y-86084633D01*
G75*
G02*
X142458000Y-85834634I0J249999D01*
G01*
G37*
G04 #@! TD.AperFunction*
G04 #@! TA.AperFunction,SMDPad,CuDef*
G36*
G01*
X144508000Y-85834634D02*
X144508000Y-84934632D01*
G75*
G02*
X144757999Y-84684633I249999J0D01*
G01*
X145408001Y-84684633D01*
G75*
G02*
X145658000Y-84934632I0J-249999D01*
G01*
X145658000Y-85834634D01*
G75*
G02*
X145408001Y-86084633I-249999J0D01*
G01*
X144757999Y-86084633D01*
G75*
G02*
X144508000Y-85834634I0J249999D01*
G01*
G37*
G04 #@! TD.AperFunction*
D20*
X147331666Y-120750000D03*
X149871666Y-120750000D03*
X152411666Y-120750000D03*
X154951666Y-120750000D03*
X157491666Y-120750000D03*
X160031666Y-120750000D03*
D21*
X71840000Y-120750000D03*
D22*
X75650000Y-120750000D03*
D23*
X135725000Y-99515000D03*
X135725000Y-100785000D03*
X135725000Y-102055000D03*
X135725000Y-103325000D03*
X135725000Y-104595000D03*
X135725000Y-105865000D03*
X135725000Y-107135000D03*
X141125000Y-107135000D03*
X141125000Y-105865000D03*
X141125000Y-104595000D03*
X141125000Y-103325000D03*
X141125000Y-102055000D03*
X141125000Y-100785000D03*
X141125000Y-99515000D03*
D24*
X124367664Y-88625000D03*
X124367664Y-85125000D03*
X101032332Y-85125000D03*
X101032332Y-88625000D03*
X147701000Y-88625000D03*
X147701000Y-85125000D03*
X77699000Y-88625000D03*
X77699000Y-85125000D03*
D25*
X80000000Y-54500000D03*
X75750000Y-54500000D03*
X84250000Y-54500000D03*
X107583332Y-54500000D03*
X99083332Y-54500000D03*
X103333332Y-54500000D03*
X126666664Y-54500000D03*
X122416664Y-54500000D03*
X130916664Y-54500000D03*
X150000000Y-54500000D03*
X145750000Y-54500000D03*
X154250000Y-54500000D03*
X95916666Y-54500000D03*
X87416666Y-54500000D03*
X110749998Y-54500000D03*
X119249998Y-54500000D03*
X134083330Y-54500000D03*
X142583330Y-54500000D03*
D24*
X82550000Y-102925000D03*
X82550000Y-106425000D03*
G04 #@! TA.AperFunction,SMDPad,CuDef*
G36*
G01*
X69950000Y-110525000D02*
X69950000Y-109275000D01*
G75*
G02*
X70200000Y-109025000I250000J0D01*
G01*
X71125000Y-109025000D01*
G75*
G02*
X71375000Y-109275000I0J-250000D01*
G01*
X71375000Y-110525000D01*
G75*
G02*
X71125000Y-110775000I-250000J0D01*
G01*
X70200000Y-110775000D01*
G75*
G02*
X69950000Y-110525000I0J250000D01*
G01*
G37*
G04 #@! TD.AperFunction*
G04 #@! TA.AperFunction,SMDPad,CuDef*
G36*
G01*
X72925000Y-110525000D02*
X72925000Y-109275000D01*
G75*
G02*
X73175000Y-109025000I250000J0D01*
G01*
X74100000Y-109025000D01*
G75*
G02*
X74350000Y-109275000I0J-250000D01*
G01*
X74350000Y-110525000D01*
G75*
G02*
X74100000Y-110775000I-250000J0D01*
G01*
X73175000Y-110775000D01*
G75*
G02*
X72925000Y-110525000I0J250000D01*
G01*
G37*
G04 #@! TD.AperFunction*
D26*
X152974999Y-111495000D03*
X152974999Y-112765000D03*
X152974999Y-114035000D03*
X152974999Y-115305000D03*
X158374999Y-115305000D03*
X158374999Y-114035000D03*
X158374999Y-112765000D03*
X158374999Y-111495000D03*
G04 #@! TA.AperFunction,SMDPad,CuDef*
G36*
G01*
X121600000Y-104825001D02*
X121600000Y-103924999D01*
G75*
G02*
X121849999Y-103675000I249999J0D01*
G01*
X122500001Y-103675000D01*
G75*
G02*
X122750000Y-103924999I0J-249999D01*
G01*
X122750000Y-104825001D01*
G75*
G02*
X122500001Y-105075000I-249999J0D01*
G01*
X121849999Y-105075000D01*
G75*
G02*
X121600000Y-104825001I0J249999D01*
G01*
G37*
G04 #@! TD.AperFunction*
G04 #@! TA.AperFunction,SMDPad,CuDef*
G36*
G01*
X119550000Y-104825001D02*
X119550000Y-103924999D01*
G75*
G02*
X119799999Y-103675000I249999J0D01*
G01*
X120450001Y-103675000D01*
G75*
G02*
X120700000Y-103924999I0J-249999D01*
G01*
X120700000Y-104825001D01*
G75*
G02*
X120450001Y-105075000I-249999J0D01*
G01*
X119799999Y-105075000D01*
G75*
G02*
X119550000Y-104825001I0J249999D01*
G01*
G37*
G04 #@! TD.AperFunction*
G04 #@! TA.AperFunction,SMDPad,CuDef*
G36*
G01*
X114000001Y-107500000D02*
X113099999Y-107500000D01*
G75*
G02*
X112850000Y-107250001I0J249999D01*
G01*
X112850000Y-106599999D01*
G75*
G02*
X113099999Y-106350000I249999J0D01*
G01*
X114000001Y-106350000D01*
G75*
G02*
X114250000Y-106599999I0J-249999D01*
G01*
X114250000Y-107250001D01*
G75*
G02*
X114000001Y-107500000I-249999J0D01*
G01*
G37*
G04 #@! TD.AperFunction*
G04 #@! TA.AperFunction,SMDPad,CuDef*
G36*
G01*
X114000001Y-105450000D02*
X113099999Y-105450000D01*
G75*
G02*
X112850000Y-105200001I0J249999D01*
G01*
X112850000Y-104549999D01*
G75*
G02*
X113099999Y-104300000I249999J0D01*
G01*
X114000001Y-104300000D01*
G75*
G02*
X114250000Y-104549999I0J-249999D01*
G01*
X114250000Y-105200001D01*
G75*
G02*
X114000001Y-105450000I-249999J0D01*
G01*
G37*
G04 #@! TD.AperFunction*
G04 #@! TA.AperFunction,SMDPad,CuDef*
G36*
G01*
X122750000Y-101499999D02*
X122750000Y-102400001D01*
G75*
G02*
X122500001Y-102650000I-249999J0D01*
G01*
X121849999Y-102650000D01*
G75*
G02*
X121600000Y-102400001I0J249999D01*
G01*
X121600000Y-101499999D01*
G75*
G02*
X121849999Y-101250000I249999J0D01*
G01*
X122500001Y-101250000D01*
G75*
G02*
X122750000Y-101499999I0J-249999D01*
G01*
G37*
G04 #@! TD.AperFunction*
G04 #@! TA.AperFunction,SMDPad,CuDef*
G36*
G01*
X120700000Y-101499999D02*
X120700000Y-102400001D01*
G75*
G02*
X120450001Y-102650000I-249999J0D01*
G01*
X119799999Y-102650000D01*
G75*
G02*
X119550000Y-102400001I0J249999D01*
G01*
X119550000Y-101499999D01*
G75*
G02*
X119799999Y-101250000I249999J0D01*
G01*
X120450001Y-101250000D01*
G75*
G02*
X120700000Y-101499999I0J-249999D01*
G01*
G37*
G04 #@! TD.AperFunction*
G04 #@! TA.AperFunction,SMDPad,CuDef*
G36*
G01*
X116050000Y-102174999D02*
X116050000Y-103075001D01*
G75*
G02*
X115800001Y-103325000I-249999J0D01*
G01*
X115149999Y-103325000D01*
G75*
G02*
X114900000Y-103075001I0J249999D01*
G01*
X114900000Y-102174999D01*
G75*
G02*
X115149999Y-101925000I249999J0D01*
G01*
X115800001Y-101925000D01*
G75*
G02*
X116050000Y-102174999I0J-249999D01*
G01*
G37*
G04 #@! TD.AperFunction*
G04 #@! TA.AperFunction,SMDPad,CuDef*
G36*
G01*
X114000000Y-102174999D02*
X114000000Y-103075001D01*
G75*
G02*
X113750001Y-103325000I-249999J0D01*
G01*
X113099999Y-103325000D01*
G75*
G02*
X112850000Y-103075001I0J249999D01*
G01*
X112850000Y-102174999D01*
G75*
G02*
X113099999Y-101925000I249999J0D01*
G01*
X113750001Y-101925000D01*
G75*
G02*
X114000000Y-102174999I0J-249999D01*
G01*
G37*
G04 #@! TD.AperFunction*
G04 #@! TA.AperFunction,SMDPad,CuDef*
G36*
G01*
X121600000Y-107250001D02*
X121600000Y-106349999D01*
G75*
G02*
X121849999Y-106100000I249999J0D01*
G01*
X122500001Y-106100000D01*
G75*
G02*
X122750000Y-106349999I0J-249999D01*
G01*
X122750000Y-107250001D01*
G75*
G02*
X122500001Y-107500000I-249999J0D01*
G01*
X121849999Y-107500000D01*
G75*
G02*
X121600000Y-107250001I0J249999D01*
G01*
G37*
G04 #@! TD.AperFunction*
G04 #@! TA.AperFunction,SMDPad,CuDef*
G36*
G01*
X119550000Y-107250001D02*
X119550000Y-106349999D01*
G75*
G02*
X119799999Y-106100000I249999J0D01*
G01*
X120450001Y-106100000D01*
G75*
G02*
X120700000Y-106349999I0J-249999D01*
G01*
X120700000Y-107250001D01*
G75*
G02*
X120450001Y-107500000I-249999J0D01*
G01*
X119799999Y-107500000D01*
G75*
G02*
X119550000Y-107250001I0J249999D01*
G01*
G37*
G04 #@! TD.AperFunction*
D27*
X118000000Y-106900000D03*
X118000000Y-105950000D03*
X118000000Y-105000000D03*
X115800000Y-105000000D03*
X115800000Y-106900000D03*
X115800000Y-105950000D03*
M02*
