G04 #@! TF.GenerationSoftware,KiCad,Pcbnew,5.1.6+dfsg1-1~bpo10+1*
G04 #@! TF.CreationDate,2020-10-10T21:46:56-04:00*
G04 #@! TF.ProjectId,hardware,68617264-7761-4726-952e-6b696361645f,1.0.0*
G04 #@! TF.SameCoordinates,Original*
G04 #@! TF.FileFunction,Soldermask,Top*
G04 #@! TF.FilePolarity,Negative*
%FSLAX46Y46*%
G04 Gerber Fmt 4.6, Leading zero omitted, Abs format (unit mm)*
G04 Created by KiCad (PCBNEW 5.1.6+dfsg1-1~bpo10+1) date 2020-10-10 21:46:56*
%MOMM*%
%LPD*%
G01*
G04 APERTURE LIST*
%ADD10C,0.100000*%
G04 APERTURE END LIST*
D10*
G36*
X155290000Y-78900000D02*
G01*
X147290000Y-78900000D01*
X147290000Y-70900000D01*
X155290000Y-70900000D01*
X155290000Y-78900000D01*
G37*
X155290000Y-78900000D02*
X147290000Y-78900000D01*
X147290000Y-70900000D01*
X155290000Y-70900000D01*
X155290000Y-78900000D01*
G36*
X131956664Y-78900000D02*
G01*
X123956664Y-78900000D01*
X123956664Y-70900000D01*
X131956664Y-70900000D01*
X131956664Y-78900000D01*
G37*
X131956664Y-78900000D02*
X123956664Y-78900000D01*
X123956664Y-70900000D01*
X131956664Y-70900000D01*
X131956664Y-78900000D01*
G36*
X108621332Y-78900000D02*
G01*
X100621332Y-78900000D01*
X100621332Y-70900000D01*
X108621332Y-70900000D01*
X108621332Y-78900000D01*
G37*
X108621332Y-78900000D02*
X100621332Y-78900000D01*
X100621332Y-70900000D01*
X108621332Y-70900000D01*
X108621332Y-78900000D01*
G36*
X85300000Y-78900000D02*
G01*
X77300000Y-78900000D01*
X77300000Y-70900000D01*
X85300000Y-70900000D01*
X85300000Y-78900000D01*
G37*
X85300000Y-78900000D02*
X77300000Y-78900000D01*
X77300000Y-70900000D01*
X85300000Y-70900000D01*
X85300000Y-78900000D01*
G36*
X130338674Y-126173465D02*
G01*
X130376367Y-126184899D01*
X130411103Y-126203466D01*
X130441548Y-126228452D01*
X130466534Y-126258897D01*
X130485101Y-126293633D01*
X130496535Y-126331326D01*
X130501000Y-126376661D01*
X130501000Y-127463339D01*
X130496535Y-127508674D01*
X130485101Y-127546367D01*
X130466534Y-127581103D01*
X130441548Y-127611548D01*
X130411103Y-127636534D01*
X130376367Y-127655101D01*
X130338674Y-127666535D01*
X130293339Y-127671000D01*
X129456661Y-127671000D01*
X129411326Y-127666535D01*
X129373633Y-127655101D01*
X129338897Y-127636534D01*
X129308452Y-127611548D01*
X129283466Y-127581103D01*
X129264899Y-127546367D01*
X129253465Y-127508674D01*
X129249000Y-127463339D01*
X129249000Y-126376661D01*
X129253465Y-126331326D01*
X129264899Y-126293633D01*
X129283466Y-126258897D01*
X129308452Y-126228452D01*
X129338897Y-126203466D01*
X129373633Y-126184899D01*
X129411326Y-126173465D01*
X129456661Y-126169000D01*
X130293339Y-126169000D01*
X130338674Y-126173465D01*
G37*
G36*
X128288674Y-126173465D02*
G01*
X128326367Y-126184899D01*
X128361103Y-126203466D01*
X128391548Y-126228452D01*
X128416534Y-126258897D01*
X128435101Y-126293633D01*
X128446535Y-126331326D01*
X128451000Y-126376661D01*
X128451000Y-127463339D01*
X128446535Y-127508674D01*
X128435101Y-127546367D01*
X128416534Y-127581103D01*
X128391548Y-127611548D01*
X128361103Y-127636534D01*
X128326367Y-127655101D01*
X128288674Y-127666535D01*
X128243339Y-127671000D01*
X127406661Y-127671000D01*
X127361326Y-127666535D01*
X127323633Y-127655101D01*
X127288897Y-127636534D01*
X127258452Y-127611548D01*
X127233466Y-127581103D01*
X127214899Y-127546367D01*
X127203465Y-127508674D01*
X127199000Y-127463339D01*
X127199000Y-126376661D01*
X127203465Y-126331326D01*
X127214899Y-126293633D01*
X127233466Y-126258897D01*
X127258452Y-126228452D01*
X127288897Y-126203466D01*
X127323633Y-126184899D01*
X127361326Y-126173465D01*
X127406661Y-126169000D01*
X128243339Y-126169000D01*
X128288674Y-126173465D01*
G37*
G36*
X156585178Y-125828927D02*
G01*
X156734478Y-125858624D01*
X156898450Y-125926544D01*
X157046020Y-126025147D01*
X157171519Y-126150646D01*
X157270122Y-126298216D01*
X157338042Y-126462188D01*
X157367739Y-126611488D01*
X157372296Y-126634396D01*
X157372666Y-126636259D01*
X157372666Y-126813741D01*
X157338042Y-126987812D01*
X157270122Y-127151784D01*
X157171519Y-127299354D01*
X157046020Y-127424853D01*
X156898450Y-127523456D01*
X156734478Y-127591376D01*
X156585178Y-127621073D01*
X156560408Y-127626000D01*
X156382924Y-127626000D01*
X156358154Y-127621073D01*
X156208854Y-127591376D01*
X156044882Y-127523456D01*
X155897312Y-127424853D01*
X155771813Y-127299354D01*
X155673210Y-127151784D01*
X155605290Y-126987812D01*
X155570666Y-126813741D01*
X155570666Y-126636259D01*
X155571037Y-126634396D01*
X155575593Y-126611488D01*
X155605290Y-126462188D01*
X155673210Y-126298216D01*
X155771813Y-126150646D01*
X155897312Y-126025147D01*
X156044882Y-125926544D01*
X156208854Y-125858624D01*
X156358154Y-125828927D01*
X156382924Y-125824000D01*
X156560408Y-125824000D01*
X156585178Y-125828927D01*
G37*
G36*
X154832666Y-127626000D02*
G01*
X153030666Y-127626000D01*
X153030666Y-125824000D01*
X154832666Y-125824000D01*
X154832666Y-127626000D01*
G37*
G36*
X159125178Y-125828927D02*
G01*
X159274478Y-125858624D01*
X159438450Y-125926544D01*
X159586020Y-126025147D01*
X159711519Y-126150646D01*
X159810122Y-126298216D01*
X159878042Y-126462188D01*
X159907739Y-126611488D01*
X159912296Y-126634396D01*
X159912666Y-126636259D01*
X159912666Y-126813741D01*
X159878042Y-126987812D01*
X159810122Y-127151784D01*
X159711519Y-127299354D01*
X159586020Y-127424853D01*
X159438450Y-127523456D01*
X159274478Y-127591376D01*
X159125178Y-127621073D01*
X159100408Y-127626000D01*
X158922924Y-127626000D01*
X158898154Y-127621073D01*
X158748854Y-127591376D01*
X158584882Y-127523456D01*
X158437312Y-127424853D01*
X158311813Y-127299354D01*
X158213210Y-127151784D01*
X158145290Y-126987812D01*
X158110666Y-126813741D01*
X158110666Y-126636259D01*
X158111037Y-126634396D01*
X158115593Y-126611488D01*
X158145290Y-126462188D01*
X158213210Y-126298216D01*
X158311813Y-126150646D01*
X158437312Y-126025147D01*
X158584882Y-125926544D01*
X158748854Y-125858624D01*
X158898154Y-125828927D01*
X158922924Y-125824000D01*
X159100408Y-125824000D01*
X159125178Y-125828927D01*
G37*
G36*
X73140680Y-127050680D02*
G01*
X70539320Y-127050680D01*
X70539320Y-124449320D01*
X73140680Y-124449320D01*
X73140680Y-127050680D01*
G37*
G36*
X76029393Y-124499304D02*
G01*
X76266101Y-124597352D01*
X76266103Y-124597353D01*
X76479135Y-124739696D01*
X76660304Y-124920865D01*
X76767302Y-125081000D01*
X76802648Y-125133899D01*
X76900696Y-125370607D01*
X76950680Y-125621893D01*
X76950680Y-125878107D01*
X76900696Y-126129393D01*
X76815879Y-126334158D01*
X76802647Y-126366103D01*
X76660304Y-126579135D01*
X76479135Y-126760304D01*
X76266103Y-126902647D01*
X76266102Y-126902648D01*
X76266101Y-126902648D01*
X76029393Y-127000696D01*
X75778107Y-127050680D01*
X75521893Y-127050680D01*
X75270607Y-127000696D01*
X75033899Y-126902648D01*
X75033898Y-126902648D01*
X75033897Y-126902647D01*
X74820865Y-126760304D01*
X74639696Y-126579135D01*
X74497353Y-126366103D01*
X74484121Y-126334158D01*
X74399304Y-126129393D01*
X74349320Y-125878107D01*
X74349320Y-125621893D01*
X74399304Y-125370607D01*
X74497352Y-125133899D01*
X74532698Y-125081000D01*
X74639696Y-124920865D01*
X74820865Y-124739696D01*
X75033897Y-124597353D01*
X75033899Y-124597352D01*
X75270607Y-124499304D01*
X75521893Y-124449320D01*
X75778107Y-124449320D01*
X76029393Y-124499304D01*
G37*
G36*
X112665548Y-124612326D02*
G01*
X112839157Y-124664990D01*
X112839159Y-124664991D01*
X112999156Y-124750511D01*
X113139398Y-124865603D01*
X113218730Y-124962271D01*
X113254490Y-125005844D01*
X113340011Y-125165843D01*
X113392675Y-125339452D01*
X113406001Y-125474756D01*
X113406001Y-126025243D01*
X113392675Y-126160548D01*
X113340011Y-126334157D01*
X113254490Y-126494156D01*
X113218730Y-126537729D01*
X113139398Y-126634397D01*
X113042730Y-126713729D01*
X112999157Y-126749489D01*
X112839158Y-126835010D01*
X112665549Y-126887674D01*
X112485001Y-126905456D01*
X112304454Y-126887674D01*
X112130845Y-126835010D01*
X111970846Y-126749489D01*
X111927273Y-126713729D01*
X111830605Y-126634397D01*
X111715514Y-126494157D01*
X111715513Y-126494155D01*
X111629991Y-126334157D01*
X111577327Y-126160548D01*
X111564001Y-126025244D01*
X111564001Y-125474757D01*
X111577327Y-125339453D01*
X111629991Y-125165844D01*
X111715512Y-125005845D01*
X111715513Y-125005844D01*
X111830604Y-124865603D01*
X111927272Y-124786271D01*
X111970845Y-124750511D01*
X112130844Y-124664990D01*
X112304453Y-124612326D01*
X112485001Y-124594544D01*
X112665548Y-124612326D01*
G37*
G36*
X105804297Y-124612326D02*
G01*
X105977906Y-124664990D01*
X105977908Y-124664991D01*
X106137905Y-124750511D01*
X106278147Y-124865603D01*
X106357479Y-124962271D01*
X106393239Y-125005844D01*
X106478760Y-125165843D01*
X106531424Y-125339452D01*
X106544750Y-125474756D01*
X106544750Y-126025243D01*
X106531424Y-126160548D01*
X106478760Y-126334157D01*
X106393239Y-126494156D01*
X106357479Y-126537729D01*
X106278147Y-126634397D01*
X106181479Y-126713729D01*
X106137906Y-126749489D01*
X105977907Y-126835010D01*
X105804298Y-126887674D01*
X105623750Y-126905456D01*
X105443203Y-126887674D01*
X105269594Y-126835010D01*
X105109595Y-126749489D01*
X105066022Y-126713729D01*
X104969354Y-126634397D01*
X104854263Y-126494157D01*
X104854262Y-126494155D01*
X104768740Y-126334157D01*
X104716076Y-126160548D01*
X104702750Y-126025244D01*
X104702750Y-125474757D01*
X104716076Y-125339453D01*
X104768740Y-125165844D01*
X104854261Y-125005845D01*
X104854262Y-125005844D01*
X104969353Y-124865603D01*
X105066021Y-124786271D01*
X105109594Y-124750511D01*
X105269593Y-124664990D01*
X105443202Y-124612326D01*
X105623750Y-124594544D01*
X105804297Y-124612326D01*
G37*
G36*
X98943047Y-124612326D02*
G01*
X99116656Y-124664990D01*
X99116658Y-124664991D01*
X99276655Y-124750511D01*
X99416897Y-124865603D01*
X99496229Y-124962271D01*
X99531989Y-125005844D01*
X99617510Y-125165843D01*
X99670174Y-125339452D01*
X99683500Y-125474756D01*
X99683500Y-126025243D01*
X99670174Y-126160548D01*
X99617510Y-126334157D01*
X99531989Y-126494156D01*
X99496229Y-126537729D01*
X99416897Y-126634397D01*
X99320229Y-126713729D01*
X99276656Y-126749489D01*
X99116657Y-126835010D01*
X98943048Y-126887674D01*
X98762500Y-126905456D01*
X98581953Y-126887674D01*
X98408344Y-126835010D01*
X98248345Y-126749489D01*
X98204772Y-126713729D01*
X98108104Y-126634397D01*
X97993013Y-126494157D01*
X97993012Y-126494155D01*
X97907490Y-126334157D01*
X97854826Y-126160548D01*
X97841500Y-126025244D01*
X97841500Y-125474757D01*
X97854826Y-125339453D01*
X97907490Y-125165844D01*
X97993011Y-125005845D01*
X97993012Y-125005844D01*
X98108103Y-124865603D01*
X98204771Y-124786271D01*
X98248344Y-124750511D01*
X98408343Y-124664990D01*
X98581952Y-124612326D01*
X98762500Y-124594544D01*
X98943047Y-124612326D01*
G37*
G36*
X85220547Y-124612326D02*
G01*
X85394156Y-124664990D01*
X85394158Y-124664991D01*
X85554155Y-124750511D01*
X85694397Y-124865603D01*
X85773729Y-124962271D01*
X85809489Y-125005844D01*
X85895010Y-125165843D01*
X85947674Y-125339452D01*
X85961000Y-125474756D01*
X85961000Y-126025243D01*
X85947674Y-126160548D01*
X85895010Y-126334157D01*
X85809489Y-126494156D01*
X85773729Y-126537729D01*
X85694397Y-126634397D01*
X85597729Y-126713729D01*
X85554156Y-126749489D01*
X85394157Y-126835010D01*
X85220548Y-126887674D01*
X85040000Y-126905456D01*
X84859453Y-126887674D01*
X84685844Y-126835010D01*
X84525845Y-126749489D01*
X84482272Y-126713729D01*
X84385604Y-126634397D01*
X84270513Y-126494157D01*
X84270512Y-126494155D01*
X84184990Y-126334157D01*
X84132326Y-126160548D01*
X84119000Y-126025244D01*
X84119000Y-125474757D01*
X84132326Y-125339453D01*
X84184990Y-125165844D01*
X84270511Y-125005845D01*
X84270512Y-125005844D01*
X84385603Y-124865603D01*
X84482271Y-124786271D01*
X84525844Y-124750511D01*
X84685843Y-124664990D01*
X84859452Y-124612326D01*
X85040000Y-124594544D01*
X85220547Y-124612326D01*
G37*
G36*
X92081797Y-124612326D02*
G01*
X92255406Y-124664990D01*
X92255408Y-124664991D01*
X92415405Y-124750511D01*
X92555647Y-124865603D01*
X92634979Y-124962271D01*
X92670739Y-125005844D01*
X92756260Y-125165843D01*
X92808924Y-125339452D01*
X92822250Y-125474756D01*
X92822250Y-126025243D01*
X92808924Y-126160548D01*
X92756260Y-126334157D01*
X92670739Y-126494156D01*
X92634979Y-126537729D01*
X92555647Y-126634397D01*
X92458979Y-126713729D01*
X92415406Y-126749489D01*
X92255407Y-126835010D01*
X92081798Y-126887674D01*
X91901250Y-126905456D01*
X91720703Y-126887674D01*
X91547094Y-126835010D01*
X91387095Y-126749489D01*
X91343522Y-126713729D01*
X91246854Y-126634397D01*
X91131763Y-126494157D01*
X91131762Y-126494155D01*
X91046240Y-126334157D01*
X90993576Y-126160548D01*
X90980250Y-126025244D01*
X90980250Y-125474757D01*
X90993576Y-125339453D01*
X91046240Y-125165844D01*
X91131761Y-125005845D01*
X91131762Y-125005844D01*
X91246853Y-124865603D01*
X91343521Y-124786271D01*
X91387094Y-124750511D01*
X91547093Y-124664990D01*
X91720702Y-124612326D01*
X91901250Y-124594544D01*
X92081797Y-124612326D01*
G37*
G36*
X90282250Y-126901000D02*
G01*
X88440250Y-126901000D01*
X88440250Y-124599000D01*
X90282250Y-124599000D01*
X90282250Y-126901000D01*
G37*
G36*
X104004750Y-126901000D02*
G01*
X102162750Y-126901000D01*
X102162750Y-124599000D01*
X104004750Y-124599000D01*
X104004750Y-126901000D01*
G37*
G36*
X83421000Y-126901000D02*
G01*
X81579000Y-126901000D01*
X81579000Y-124599000D01*
X83421000Y-124599000D01*
X83421000Y-126901000D01*
G37*
G36*
X110866001Y-126901000D02*
G01*
X109024001Y-126901000D01*
X109024001Y-124599000D01*
X110866001Y-124599000D01*
X110866001Y-126901000D01*
G37*
G36*
X97143500Y-126901000D02*
G01*
X95301500Y-126901000D01*
X95301500Y-124599000D01*
X97143500Y-124599000D01*
X97143500Y-126901000D01*
G37*
G36*
X125708674Y-124158465D02*
G01*
X125746367Y-124169899D01*
X125781103Y-124188466D01*
X125811548Y-124213452D01*
X125836534Y-124243897D01*
X125855101Y-124278633D01*
X125866535Y-124316326D01*
X125871000Y-124361661D01*
X125871000Y-125198339D01*
X125866535Y-125243674D01*
X125855101Y-125281367D01*
X125836534Y-125316103D01*
X125811548Y-125346548D01*
X125781103Y-125371534D01*
X125746367Y-125390101D01*
X125708674Y-125401535D01*
X125663339Y-125406000D01*
X124576661Y-125406000D01*
X124531326Y-125401535D01*
X124493633Y-125390101D01*
X124458897Y-125371534D01*
X124428452Y-125346548D01*
X124403466Y-125316103D01*
X124384899Y-125281367D01*
X124373465Y-125243674D01*
X124369000Y-125198339D01*
X124369000Y-124361661D01*
X124373465Y-124316326D01*
X124384899Y-124278633D01*
X124403466Y-124243897D01*
X124428452Y-124213452D01*
X124458897Y-124188466D01*
X124493633Y-124169899D01*
X124531326Y-124158465D01*
X124576661Y-124154000D01*
X125663339Y-124154000D01*
X125708674Y-124158465D01*
G37*
G36*
X133158674Y-124158465D02*
G01*
X133196367Y-124169899D01*
X133231103Y-124188466D01*
X133261548Y-124213452D01*
X133286534Y-124243897D01*
X133305101Y-124278633D01*
X133316535Y-124316326D01*
X133321000Y-124361661D01*
X133321000Y-125198339D01*
X133316535Y-125243674D01*
X133305101Y-125281367D01*
X133286534Y-125316103D01*
X133261548Y-125346548D01*
X133231103Y-125371534D01*
X133196367Y-125390101D01*
X133158674Y-125401535D01*
X133113339Y-125406000D01*
X132026661Y-125406000D01*
X131981326Y-125401535D01*
X131943633Y-125390101D01*
X131908897Y-125371534D01*
X131878452Y-125346548D01*
X131853466Y-125316103D01*
X131834899Y-125281367D01*
X131823465Y-125243674D01*
X131819000Y-125198339D01*
X131819000Y-124361661D01*
X131823465Y-124316326D01*
X131834899Y-124278633D01*
X131853466Y-124243897D01*
X131878452Y-124213452D01*
X131908897Y-124188466D01*
X131943633Y-124169899D01*
X131981326Y-124158465D01*
X132026661Y-124154000D01*
X133113339Y-124154000D01*
X133158674Y-124158465D01*
G37*
G36*
X128331000Y-125081000D02*
G01*
X126669000Y-125081000D01*
X126669000Y-122429000D01*
X128331000Y-122429000D01*
X128331000Y-125081000D01*
G37*
G36*
X131031000Y-125081000D02*
G01*
X129369000Y-125081000D01*
X129369000Y-122429000D01*
X131031000Y-122429000D01*
X131031000Y-125081000D01*
G37*
G36*
X125708674Y-122108465D02*
G01*
X125746367Y-122119899D01*
X125781103Y-122138466D01*
X125811548Y-122163452D01*
X125836534Y-122193897D01*
X125855101Y-122228633D01*
X125866535Y-122266326D01*
X125871000Y-122311661D01*
X125871000Y-123148339D01*
X125866535Y-123193674D01*
X125855101Y-123231367D01*
X125836534Y-123266103D01*
X125811548Y-123296548D01*
X125781103Y-123321534D01*
X125746367Y-123340101D01*
X125708674Y-123351535D01*
X125663339Y-123356000D01*
X124576661Y-123356000D01*
X124531326Y-123351535D01*
X124493633Y-123340101D01*
X124458897Y-123321534D01*
X124428452Y-123296548D01*
X124403466Y-123266103D01*
X124384899Y-123231367D01*
X124373465Y-123193674D01*
X124369000Y-123148339D01*
X124369000Y-122311661D01*
X124373465Y-122266326D01*
X124384899Y-122228633D01*
X124403466Y-122193897D01*
X124428452Y-122163452D01*
X124458897Y-122138466D01*
X124493633Y-122119899D01*
X124531326Y-122108465D01*
X124576661Y-122104000D01*
X125663339Y-122104000D01*
X125708674Y-122108465D01*
G37*
G36*
X133158674Y-122108465D02*
G01*
X133196367Y-122119899D01*
X133231103Y-122138466D01*
X133261548Y-122163452D01*
X133286534Y-122193897D01*
X133305101Y-122228633D01*
X133316535Y-122266326D01*
X133321000Y-122311661D01*
X133321000Y-123148339D01*
X133316535Y-123193674D01*
X133305101Y-123231367D01*
X133286534Y-123266103D01*
X133261548Y-123296548D01*
X133231103Y-123321534D01*
X133196367Y-123340101D01*
X133158674Y-123351535D01*
X133113339Y-123356000D01*
X132026661Y-123356000D01*
X131981326Y-123351535D01*
X131943633Y-123340101D01*
X131908897Y-123321534D01*
X131878452Y-123296548D01*
X131853466Y-123266103D01*
X131834899Y-123231367D01*
X131823465Y-123193674D01*
X131819000Y-123148339D01*
X131819000Y-122311661D01*
X131823465Y-122266326D01*
X131834899Y-122228633D01*
X131853466Y-122193897D01*
X131878452Y-122163452D01*
X131908897Y-122138466D01*
X131943633Y-122119899D01*
X131981326Y-122108465D01*
X132026661Y-122104000D01*
X133113339Y-122104000D01*
X133158674Y-122108465D01*
G37*
G36*
X71121564Y-119856436D02*
G01*
X71156483Y-119867029D01*
X71188665Y-119884231D01*
X71216875Y-119907382D01*
X71240026Y-119935592D01*
X71257228Y-119967774D01*
X71267821Y-120002693D01*
X71272002Y-120045150D01*
X71272002Y-121511360D01*
X71267821Y-121553817D01*
X71257228Y-121588736D01*
X71240026Y-121620918D01*
X71216875Y-121649128D01*
X71188665Y-121672279D01*
X71156483Y-121689481D01*
X71121564Y-121700074D01*
X71079107Y-121704255D01*
X69937897Y-121704255D01*
X69895440Y-121700074D01*
X69860521Y-121689481D01*
X69828339Y-121672279D01*
X69800129Y-121649128D01*
X69776978Y-121620918D01*
X69759776Y-121588736D01*
X69749183Y-121553817D01*
X69745002Y-121511360D01*
X69745002Y-120045150D01*
X69749183Y-120002693D01*
X69759776Y-119967774D01*
X69776978Y-119935592D01*
X69800129Y-119907382D01*
X69828339Y-119884231D01*
X69860521Y-119867029D01*
X69895440Y-119856436D01*
X69937897Y-119852255D01*
X71079107Y-119852255D01*
X71121564Y-119856436D01*
G37*
G36*
X74096564Y-119856436D02*
G01*
X74131483Y-119867029D01*
X74163665Y-119884231D01*
X74191875Y-119907382D01*
X74215026Y-119935592D01*
X74232228Y-119967774D01*
X74242821Y-120002693D01*
X74247002Y-120045150D01*
X74247002Y-121511360D01*
X74242821Y-121553817D01*
X74232228Y-121588736D01*
X74215026Y-121620918D01*
X74191875Y-121649128D01*
X74163665Y-121672279D01*
X74131483Y-121689481D01*
X74096564Y-121700074D01*
X74054107Y-121704255D01*
X72912897Y-121704255D01*
X72870440Y-121700074D01*
X72835521Y-121689481D01*
X72803339Y-121672279D01*
X72775129Y-121649128D01*
X72751978Y-121620918D01*
X72734776Y-121588736D01*
X72724183Y-121553817D01*
X72720002Y-121511360D01*
X72720002Y-120045150D01*
X72724183Y-120002693D01*
X72734776Y-119967774D01*
X72751978Y-119935592D01*
X72775129Y-119907382D01*
X72803339Y-119884231D01*
X72835521Y-119867029D01*
X72870440Y-119856436D01*
X72912897Y-119852255D01*
X74054107Y-119852255D01*
X74096564Y-119856436D01*
G37*
G36*
X80284676Y-120031720D02*
G01*
X80322369Y-120043154D01*
X80357105Y-120061721D01*
X80387550Y-120086707D01*
X80412536Y-120117152D01*
X80431103Y-120151888D01*
X80442537Y-120189581D01*
X80447002Y-120234916D01*
X80447002Y-121321594D01*
X80442537Y-121366929D01*
X80431103Y-121404622D01*
X80412536Y-121439358D01*
X80387550Y-121469803D01*
X80357105Y-121494789D01*
X80322369Y-121513356D01*
X80284676Y-121524790D01*
X80239341Y-121529255D01*
X79402663Y-121529255D01*
X79357328Y-121524790D01*
X79319635Y-121513356D01*
X79284899Y-121494789D01*
X79254454Y-121469803D01*
X79229468Y-121439358D01*
X79210901Y-121404622D01*
X79199467Y-121366929D01*
X79195002Y-121321594D01*
X79195002Y-120234916D01*
X79199467Y-120189581D01*
X79210901Y-120151888D01*
X79229468Y-120117152D01*
X79254454Y-120086707D01*
X79284899Y-120061721D01*
X79319635Y-120043154D01*
X79357328Y-120031720D01*
X79402663Y-120027255D01*
X80239341Y-120027255D01*
X80284676Y-120031720D01*
G37*
G36*
X78234676Y-120031720D02*
G01*
X78272369Y-120043154D01*
X78307105Y-120061721D01*
X78337550Y-120086707D01*
X78362536Y-120117152D01*
X78381103Y-120151888D01*
X78392537Y-120189581D01*
X78397002Y-120234916D01*
X78397002Y-121321594D01*
X78392537Y-121366929D01*
X78381103Y-121404622D01*
X78362536Y-121439358D01*
X78337550Y-121469803D01*
X78307105Y-121494789D01*
X78272369Y-121513356D01*
X78234676Y-121524790D01*
X78189341Y-121529255D01*
X77352663Y-121529255D01*
X77307328Y-121524790D01*
X77269635Y-121513356D01*
X77234899Y-121494789D01*
X77204454Y-121469803D01*
X77179468Y-121439358D01*
X77160901Y-121404622D01*
X77149467Y-121366929D01*
X77145002Y-121321594D01*
X77145002Y-120234916D01*
X77149467Y-120189581D01*
X77160901Y-120151888D01*
X77179468Y-120117152D01*
X77204454Y-120086707D01*
X77234899Y-120061721D01*
X77269635Y-120043154D01*
X77307328Y-120031720D01*
X77352663Y-120027255D01*
X78189341Y-120027255D01*
X78234676Y-120031720D01*
G37*
G36*
X129538674Y-119833465D02*
G01*
X129576367Y-119844899D01*
X129611103Y-119863466D01*
X129641548Y-119888452D01*
X129666534Y-119918897D01*
X129685101Y-119953633D01*
X129696535Y-119991326D01*
X129701000Y-120036661D01*
X129701000Y-121123339D01*
X129696535Y-121168674D01*
X129685101Y-121206367D01*
X129666534Y-121241103D01*
X129641548Y-121271548D01*
X129611103Y-121296534D01*
X129576367Y-121315101D01*
X129538674Y-121326535D01*
X129493339Y-121331000D01*
X128656661Y-121331000D01*
X128611326Y-121326535D01*
X128573633Y-121315101D01*
X128538897Y-121296534D01*
X128508452Y-121271548D01*
X128483466Y-121241103D01*
X128464899Y-121206367D01*
X128453465Y-121168674D01*
X128449000Y-121123339D01*
X128449000Y-120036661D01*
X128453465Y-119991326D01*
X128464899Y-119953633D01*
X128483466Y-119918897D01*
X128508452Y-119888452D01*
X128538897Y-119863466D01*
X128573633Y-119844899D01*
X128611326Y-119833465D01*
X128656661Y-119829000D01*
X129493339Y-119829000D01*
X129538674Y-119833465D01*
G37*
G36*
X125458674Y-119833465D02*
G01*
X125496367Y-119844899D01*
X125531103Y-119863466D01*
X125561548Y-119888452D01*
X125586534Y-119918897D01*
X125605101Y-119953633D01*
X125616535Y-119991326D01*
X125621000Y-120036661D01*
X125621000Y-121123339D01*
X125616535Y-121168674D01*
X125605101Y-121206367D01*
X125586534Y-121241103D01*
X125561548Y-121271548D01*
X125531103Y-121296534D01*
X125496367Y-121315101D01*
X125458674Y-121326535D01*
X125413339Y-121331000D01*
X124576661Y-121331000D01*
X124531326Y-121326535D01*
X124493633Y-121315101D01*
X124458897Y-121296534D01*
X124428452Y-121271548D01*
X124403466Y-121241103D01*
X124384899Y-121206367D01*
X124373465Y-121168674D01*
X124369000Y-121123339D01*
X124369000Y-120036661D01*
X124373465Y-119991326D01*
X124384899Y-119953633D01*
X124403466Y-119918897D01*
X124428452Y-119888452D01*
X124458897Y-119863466D01*
X124493633Y-119844899D01*
X124531326Y-119833465D01*
X124576661Y-119829000D01*
X125413339Y-119829000D01*
X125458674Y-119833465D01*
G37*
G36*
X127508674Y-119833465D02*
G01*
X127546367Y-119844899D01*
X127581103Y-119863466D01*
X127611548Y-119888452D01*
X127636534Y-119918897D01*
X127655101Y-119953633D01*
X127666535Y-119991326D01*
X127671000Y-120036661D01*
X127671000Y-121123339D01*
X127666535Y-121168674D01*
X127655101Y-121206367D01*
X127636534Y-121241103D01*
X127611548Y-121271548D01*
X127581103Y-121296534D01*
X127546367Y-121315101D01*
X127508674Y-121326535D01*
X127463339Y-121331000D01*
X126626661Y-121331000D01*
X126581326Y-121326535D01*
X126543633Y-121315101D01*
X126508897Y-121296534D01*
X126478452Y-121271548D01*
X126453466Y-121241103D01*
X126434899Y-121206367D01*
X126423465Y-121168674D01*
X126419000Y-121123339D01*
X126419000Y-120036661D01*
X126423465Y-119991326D01*
X126434899Y-119953633D01*
X126453466Y-119918897D01*
X126478452Y-119888452D01*
X126508897Y-119863466D01*
X126543633Y-119844899D01*
X126581326Y-119833465D01*
X126626661Y-119829000D01*
X127463339Y-119829000D01*
X127508674Y-119833465D01*
G37*
G36*
X131588674Y-119833465D02*
G01*
X131626367Y-119844899D01*
X131661103Y-119863466D01*
X131691548Y-119888452D01*
X131716534Y-119918897D01*
X131735101Y-119953633D01*
X131746535Y-119991326D01*
X131751000Y-120036661D01*
X131751000Y-121123339D01*
X131746535Y-121168674D01*
X131735101Y-121206367D01*
X131716534Y-121241103D01*
X131691548Y-121271548D01*
X131661103Y-121296534D01*
X131626367Y-121315101D01*
X131588674Y-121326535D01*
X131543339Y-121331000D01*
X130706661Y-121331000D01*
X130661326Y-121326535D01*
X130623633Y-121315101D01*
X130588897Y-121296534D01*
X130558452Y-121271548D01*
X130533466Y-121241103D01*
X130514899Y-121206367D01*
X130503465Y-121168674D01*
X130499000Y-121123339D01*
X130499000Y-120036661D01*
X130503465Y-119991326D01*
X130514899Y-119953633D01*
X130533466Y-119918897D01*
X130558452Y-119888452D01*
X130588897Y-119863466D01*
X130623633Y-119844899D01*
X130661326Y-119833465D01*
X130706661Y-119829000D01*
X131543339Y-119829000D01*
X131588674Y-119833465D01*
G37*
G36*
X146488674Y-119703465D02*
G01*
X146526367Y-119714899D01*
X146561103Y-119733466D01*
X146591548Y-119758452D01*
X146616534Y-119788897D01*
X146635101Y-119823633D01*
X146646535Y-119861326D01*
X146651000Y-119906661D01*
X146651000Y-120743339D01*
X146646535Y-120788674D01*
X146635101Y-120826367D01*
X146616534Y-120861103D01*
X146591548Y-120891548D01*
X146561103Y-120916534D01*
X146526367Y-120935101D01*
X146488674Y-120946535D01*
X146443339Y-120951000D01*
X145356661Y-120951000D01*
X145311326Y-120946535D01*
X145273633Y-120935101D01*
X145238897Y-120916534D01*
X145208452Y-120891548D01*
X145183466Y-120861103D01*
X145164899Y-120826367D01*
X145153465Y-120788674D01*
X145149000Y-120743339D01*
X145149000Y-119906661D01*
X145153465Y-119861326D01*
X145164899Y-119823633D01*
X145183466Y-119788897D01*
X145208452Y-119758452D01*
X145238897Y-119733466D01*
X145273633Y-119714899D01*
X145311326Y-119703465D01*
X145356661Y-119699000D01*
X146443339Y-119699000D01*
X146488674Y-119703465D01*
G37*
G36*
X158516000Y-120256000D02*
G01*
X156864000Y-120256000D01*
X156864000Y-119554000D01*
X158516000Y-119554000D01*
X158516000Y-120256000D01*
G37*
G36*
X153116000Y-120256000D02*
G01*
X151464000Y-120256000D01*
X151464000Y-119554000D01*
X153116000Y-119554000D01*
X153116000Y-120256000D01*
G37*
G36*
X111033119Y-118353465D02*
G01*
X111070812Y-118364899D01*
X111105548Y-118383466D01*
X111135993Y-118408452D01*
X111160979Y-118438897D01*
X111179546Y-118473633D01*
X111190980Y-118511326D01*
X111195445Y-118556661D01*
X111195445Y-119643339D01*
X111190980Y-119688674D01*
X111179546Y-119726367D01*
X111160979Y-119761103D01*
X111135993Y-119791548D01*
X111105548Y-119816534D01*
X111070812Y-119835101D01*
X111033119Y-119846535D01*
X110987784Y-119851000D01*
X110151106Y-119851000D01*
X110105771Y-119846535D01*
X110068078Y-119835101D01*
X110033342Y-119816534D01*
X110002897Y-119791548D01*
X109977911Y-119761103D01*
X109959344Y-119726367D01*
X109947910Y-119688674D01*
X109943445Y-119643339D01*
X109943445Y-118556661D01*
X109947910Y-118511326D01*
X109959344Y-118473633D01*
X109977911Y-118438897D01*
X110002897Y-118408452D01*
X110033342Y-118383466D01*
X110068078Y-118364899D01*
X110105771Y-118353465D01*
X110151106Y-118349000D01*
X110987784Y-118349000D01*
X111033119Y-118353465D01*
G37*
G36*
X108983119Y-118353465D02*
G01*
X109020812Y-118364899D01*
X109055548Y-118383466D01*
X109085993Y-118408452D01*
X109110979Y-118438897D01*
X109129546Y-118473633D01*
X109140980Y-118511326D01*
X109145445Y-118556661D01*
X109145445Y-119643339D01*
X109140980Y-119688674D01*
X109129546Y-119726367D01*
X109110979Y-119761103D01*
X109085993Y-119791548D01*
X109055548Y-119816534D01*
X109020812Y-119835101D01*
X108983119Y-119846535D01*
X108937784Y-119851000D01*
X108101106Y-119851000D01*
X108055771Y-119846535D01*
X108018078Y-119835101D01*
X107983342Y-119816534D01*
X107952897Y-119791548D01*
X107927911Y-119761103D01*
X107909344Y-119726367D01*
X107897910Y-119688674D01*
X107893445Y-119643339D01*
X107893445Y-118556661D01*
X107897910Y-118511326D01*
X107909344Y-118473633D01*
X107927911Y-118438897D01*
X107952897Y-118408452D01*
X107983342Y-118383466D01*
X108018078Y-118364899D01*
X108055771Y-118353465D01*
X108101106Y-118349000D01*
X108937784Y-118349000D01*
X108983119Y-118353465D01*
G37*
G36*
X106688674Y-118320131D02*
G01*
X106726367Y-118331565D01*
X106761103Y-118350132D01*
X106791548Y-118375118D01*
X106816534Y-118405563D01*
X106835101Y-118440299D01*
X106846535Y-118477992D01*
X106851000Y-118523327D01*
X106851000Y-119610005D01*
X106846535Y-119655340D01*
X106835101Y-119693033D01*
X106816534Y-119727769D01*
X106791548Y-119758214D01*
X106761103Y-119783200D01*
X106726367Y-119801767D01*
X106688674Y-119813201D01*
X106643339Y-119817666D01*
X105806661Y-119817666D01*
X105761326Y-119813201D01*
X105723633Y-119801767D01*
X105688897Y-119783200D01*
X105658452Y-119758214D01*
X105633466Y-119727769D01*
X105614899Y-119693033D01*
X105603465Y-119655340D01*
X105599000Y-119610005D01*
X105599000Y-118523327D01*
X105603465Y-118477992D01*
X105614899Y-118440299D01*
X105633466Y-118405563D01*
X105658452Y-118375118D01*
X105688897Y-118350132D01*
X105723633Y-118331565D01*
X105761326Y-118320131D01*
X105806661Y-118315666D01*
X106643339Y-118315666D01*
X106688674Y-118320131D01*
G37*
G36*
X104638674Y-118320131D02*
G01*
X104676367Y-118331565D01*
X104711103Y-118350132D01*
X104741548Y-118375118D01*
X104766534Y-118405563D01*
X104785101Y-118440299D01*
X104796535Y-118477992D01*
X104801000Y-118523327D01*
X104801000Y-119610005D01*
X104796535Y-119655340D01*
X104785101Y-119693033D01*
X104766534Y-119727769D01*
X104741548Y-119758214D01*
X104711103Y-119783200D01*
X104676367Y-119801767D01*
X104638674Y-119813201D01*
X104593339Y-119817666D01*
X103756661Y-119817666D01*
X103711326Y-119813201D01*
X103673633Y-119801767D01*
X103638897Y-119783200D01*
X103608452Y-119758214D01*
X103583466Y-119727769D01*
X103564899Y-119693033D01*
X103553465Y-119655340D01*
X103549000Y-119610005D01*
X103549000Y-118523327D01*
X103553465Y-118477992D01*
X103564899Y-118440299D01*
X103583466Y-118405563D01*
X103608452Y-118375118D01*
X103638897Y-118350132D01*
X103673633Y-118331565D01*
X103711326Y-118320131D01*
X103756661Y-118315666D01*
X104593339Y-118315666D01*
X104638674Y-118320131D01*
G37*
G36*
X138270185Y-117564440D02*
G01*
X138307878Y-117575874D01*
X138342614Y-117594441D01*
X138373059Y-117619427D01*
X138398045Y-117649872D01*
X138416612Y-117684608D01*
X138428046Y-117722301D01*
X138432511Y-117767636D01*
X138432511Y-118854314D01*
X138428046Y-118899649D01*
X138416612Y-118937342D01*
X138398045Y-118972078D01*
X138373059Y-119002523D01*
X138342614Y-119027509D01*
X138307878Y-119046076D01*
X138270185Y-119057510D01*
X138224850Y-119061975D01*
X137388172Y-119061975D01*
X137342837Y-119057510D01*
X137305144Y-119046076D01*
X137270408Y-119027509D01*
X137239963Y-119002523D01*
X137214977Y-118972078D01*
X137196410Y-118937342D01*
X137184976Y-118899649D01*
X137180511Y-118854314D01*
X137180511Y-117767636D01*
X137184976Y-117722301D01*
X137196410Y-117684608D01*
X137214977Y-117649872D01*
X137239963Y-117619427D01*
X137270408Y-117594441D01*
X137305144Y-117575874D01*
X137342837Y-117564440D01*
X137388172Y-117559975D01*
X138224850Y-117559975D01*
X138270185Y-117564440D01*
G37*
G36*
X140320185Y-117564440D02*
G01*
X140357878Y-117575874D01*
X140392614Y-117594441D01*
X140423059Y-117619427D01*
X140448045Y-117649872D01*
X140466612Y-117684608D01*
X140478046Y-117722301D01*
X140482511Y-117767636D01*
X140482511Y-118854314D01*
X140478046Y-118899649D01*
X140466612Y-118937342D01*
X140448045Y-118972078D01*
X140423059Y-119002523D01*
X140392614Y-119027509D01*
X140357878Y-119046076D01*
X140320185Y-119057510D01*
X140274850Y-119061975D01*
X139438172Y-119061975D01*
X139392837Y-119057510D01*
X139355144Y-119046076D01*
X139320408Y-119027509D01*
X139289963Y-119002523D01*
X139264977Y-118972078D01*
X139246410Y-118937342D01*
X139234976Y-118899649D01*
X139230511Y-118854314D01*
X139230511Y-117767636D01*
X139234976Y-117722301D01*
X139246410Y-117684608D01*
X139264977Y-117649872D01*
X139289963Y-117619427D01*
X139320408Y-117594441D01*
X139355144Y-117575874D01*
X139392837Y-117564440D01*
X139438172Y-117559975D01*
X140274850Y-117559975D01*
X140320185Y-117564440D01*
G37*
G36*
X158516000Y-118986000D02*
G01*
X156864000Y-118986000D01*
X156864000Y-118284000D01*
X158516000Y-118284000D01*
X158516000Y-118986000D01*
G37*
G36*
X153116000Y-118986000D02*
G01*
X151464000Y-118986000D01*
X151464000Y-118284000D01*
X153116000Y-118284000D01*
X153116000Y-118986000D01*
G37*
G36*
X146488674Y-117653465D02*
G01*
X146526367Y-117664899D01*
X146561103Y-117683466D01*
X146591548Y-117708452D01*
X146616534Y-117738897D01*
X146635101Y-117773633D01*
X146646535Y-117811326D01*
X146651000Y-117856661D01*
X146651000Y-118693339D01*
X146646535Y-118738674D01*
X146635101Y-118776367D01*
X146616534Y-118811103D01*
X146591548Y-118841548D01*
X146561103Y-118866534D01*
X146526367Y-118885101D01*
X146488674Y-118896535D01*
X146443339Y-118901000D01*
X145356661Y-118901000D01*
X145311326Y-118896535D01*
X145273633Y-118885101D01*
X145238897Y-118866534D01*
X145208452Y-118841548D01*
X145183466Y-118811103D01*
X145164899Y-118776367D01*
X145153465Y-118738674D01*
X145149000Y-118693339D01*
X145149000Y-117856661D01*
X145153465Y-117811326D01*
X145164899Y-117773633D01*
X145183466Y-117738897D01*
X145208452Y-117708452D01*
X145238897Y-117683466D01*
X145273633Y-117664899D01*
X145311326Y-117653465D01*
X145356661Y-117649000D01*
X146443339Y-117649000D01*
X146488674Y-117653465D01*
G37*
G36*
X76247002Y-118504255D02*
G01*
X69745002Y-118504255D01*
X69745002Y-112602255D01*
X76247002Y-112602255D01*
X76247002Y-118504255D01*
G37*
G36*
X80447002Y-118484255D02*
G01*
X78145002Y-118484255D01*
X78145002Y-117182255D01*
X80447002Y-117182255D01*
X80447002Y-118484255D01*
G37*
G36*
X83297002Y-118004255D02*
G01*
X81495002Y-118004255D01*
X81495002Y-116602255D01*
X83297002Y-116602255D01*
X83297002Y-118004255D01*
G37*
G36*
X158516000Y-117716000D02*
G01*
X156864000Y-117716000D01*
X156864000Y-117014000D01*
X158516000Y-117014000D01*
X158516000Y-117716000D01*
G37*
G36*
X153116000Y-117716000D02*
G01*
X151464000Y-117716000D01*
X151464000Y-117014000D01*
X153116000Y-117014000D01*
X153116000Y-117716000D01*
G37*
G36*
X106688674Y-115853465D02*
G01*
X106726367Y-115864899D01*
X106761103Y-115883466D01*
X106791548Y-115908452D01*
X106816534Y-115938897D01*
X106835101Y-115973633D01*
X106846535Y-116011326D01*
X106851000Y-116056661D01*
X106851000Y-117143339D01*
X106846535Y-117188674D01*
X106835101Y-117226367D01*
X106816534Y-117261103D01*
X106791548Y-117291548D01*
X106761103Y-117316534D01*
X106726367Y-117335101D01*
X106688674Y-117346535D01*
X106643339Y-117351000D01*
X105806661Y-117351000D01*
X105761326Y-117346535D01*
X105723633Y-117335101D01*
X105688897Y-117316534D01*
X105658452Y-117291548D01*
X105633466Y-117261103D01*
X105614899Y-117226367D01*
X105603465Y-117188674D01*
X105599000Y-117143339D01*
X105599000Y-116056661D01*
X105603465Y-116011326D01*
X105614899Y-115973633D01*
X105633466Y-115938897D01*
X105658452Y-115908452D01*
X105688897Y-115883466D01*
X105723633Y-115864899D01*
X105761326Y-115853465D01*
X105806661Y-115849000D01*
X106643339Y-115849000D01*
X106688674Y-115853465D01*
G37*
G36*
X104638674Y-115853465D02*
G01*
X104676367Y-115864899D01*
X104711103Y-115883466D01*
X104741548Y-115908452D01*
X104766534Y-115938897D01*
X104785101Y-115973633D01*
X104796535Y-116011326D01*
X104801000Y-116056661D01*
X104801000Y-117143339D01*
X104796535Y-117188674D01*
X104785101Y-117226367D01*
X104766534Y-117261103D01*
X104741548Y-117291548D01*
X104711103Y-117316534D01*
X104676367Y-117335101D01*
X104638674Y-117346535D01*
X104593339Y-117351000D01*
X103756661Y-117351000D01*
X103711326Y-117346535D01*
X103673633Y-117335101D01*
X103638897Y-117316534D01*
X103608452Y-117291548D01*
X103583466Y-117261103D01*
X103564899Y-117226367D01*
X103553465Y-117188674D01*
X103549000Y-117143339D01*
X103549000Y-116056661D01*
X103553465Y-116011326D01*
X103564899Y-115973633D01*
X103583466Y-115938897D01*
X103608452Y-115908452D01*
X103638897Y-115883466D01*
X103673633Y-115864899D01*
X103711326Y-115853465D01*
X103756661Y-115849000D01*
X104593339Y-115849000D01*
X104638674Y-115853465D01*
G37*
G36*
X113588674Y-116078465D02*
G01*
X113626367Y-116089899D01*
X113661103Y-116108466D01*
X113691548Y-116133452D01*
X113716534Y-116163897D01*
X113735101Y-116198633D01*
X113746535Y-116236326D01*
X113751000Y-116281661D01*
X113751000Y-117118339D01*
X113746535Y-117163674D01*
X113735101Y-117201367D01*
X113716534Y-117236103D01*
X113691548Y-117266548D01*
X113661103Y-117291534D01*
X113626367Y-117310101D01*
X113588674Y-117321535D01*
X113543339Y-117326000D01*
X112456661Y-117326000D01*
X112411326Y-117321535D01*
X112373633Y-117310101D01*
X112338897Y-117291534D01*
X112308452Y-117266548D01*
X112283466Y-117236103D01*
X112264899Y-117201367D01*
X112253465Y-117163674D01*
X112249000Y-117118339D01*
X112249000Y-116281661D01*
X112253465Y-116236326D01*
X112264899Y-116198633D01*
X112283466Y-116163897D01*
X112308452Y-116133452D01*
X112338897Y-116108466D01*
X112373633Y-116089899D01*
X112411326Y-116078465D01*
X112456661Y-116074000D01*
X113543339Y-116074000D01*
X113588674Y-116078465D01*
G37*
G36*
X100051000Y-117176000D02*
G01*
X98149000Y-117176000D01*
X98149000Y-113574000D01*
X100051000Y-113574000D01*
X100051000Y-117176000D01*
G37*
G36*
X111225445Y-117076000D02*
G01*
X110063445Y-117076000D01*
X110063445Y-114424000D01*
X111225445Y-114424000D01*
X111225445Y-117076000D01*
G37*
G36*
X109025445Y-117076000D02*
G01*
X107863445Y-117076000D01*
X107863445Y-114424000D01*
X109025445Y-114424000D01*
X109025445Y-117076000D01*
G37*
G36*
X92576000Y-116976000D02*
G01*
X88674000Y-116976000D01*
X88674000Y-114874000D01*
X92576000Y-114874000D01*
X92576000Y-116976000D01*
G37*
G36*
X138270185Y-115249440D02*
G01*
X138307878Y-115260874D01*
X138342614Y-115279441D01*
X138373059Y-115304427D01*
X138398045Y-115334872D01*
X138416612Y-115369608D01*
X138428046Y-115407301D01*
X138432511Y-115452636D01*
X138432511Y-116539314D01*
X138428046Y-116584649D01*
X138416612Y-116622342D01*
X138398045Y-116657078D01*
X138373059Y-116687523D01*
X138342614Y-116712509D01*
X138307878Y-116731076D01*
X138270185Y-116742510D01*
X138224850Y-116746975D01*
X137388172Y-116746975D01*
X137342837Y-116742510D01*
X137305144Y-116731076D01*
X137270408Y-116712509D01*
X137239963Y-116687523D01*
X137214977Y-116657078D01*
X137196410Y-116622342D01*
X137184976Y-116584649D01*
X137180511Y-116539314D01*
X137180511Y-115452636D01*
X137184976Y-115407301D01*
X137196410Y-115369608D01*
X137214977Y-115334872D01*
X137239963Y-115304427D01*
X137270408Y-115279441D01*
X137305144Y-115260874D01*
X137342837Y-115249440D01*
X137388172Y-115244975D01*
X138224850Y-115244975D01*
X138270185Y-115249440D01*
G37*
G36*
X140320185Y-115249440D02*
G01*
X140357878Y-115260874D01*
X140392614Y-115279441D01*
X140423059Y-115304427D01*
X140448045Y-115334872D01*
X140466612Y-115369608D01*
X140478046Y-115407301D01*
X140482511Y-115452636D01*
X140482511Y-116539314D01*
X140478046Y-116584649D01*
X140466612Y-116622342D01*
X140448045Y-116657078D01*
X140423059Y-116687523D01*
X140392614Y-116712509D01*
X140357878Y-116731076D01*
X140320185Y-116742510D01*
X140274850Y-116746975D01*
X139438172Y-116746975D01*
X139392837Y-116742510D01*
X139355144Y-116731076D01*
X139320408Y-116712509D01*
X139289963Y-116687523D01*
X139264977Y-116657078D01*
X139246410Y-116622342D01*
X139234976Y-116584649D01*
X139230511Y-116539314D01*
X139230511Y-115452636D01*
X139234976Y-115407301D01*
X139246410Y-115369608D01*
X139264977Y-115334872D01*
X139289963Y-115304427D01*
X139320408Y-115279441D01*
X139355144Y-115260874D01*
X139392837Y-115249440D01*
X139438172Y-115244975D01*
X140274850Y-115244975D01*
X140320185Y-115249440D01*
G37*
G36*
X158516000Y-116446000D02*
G01*
X156864000Y-116446000D01*
X156864000Y-115744000D01*
X158516000Y-115744000D01*
X158516000Y-116446000D01*
G37*
G36*
X153116000Y-116446000D02*
G01*
X151464000Y-116446000D01*
X151464000Y-115744000D01*
X153116000Y-115744000D01*
X153116000Y-116446000D01*
G37*
G36*
X96363674Y-114953465D02*
G01*
X96401367Y-114964899D01*
X96436103Y-114983466D01*
X96466548Y-115008452D01*
X96491534Y-115038897D01*
X96510101Y-115073633D01*
X96521535Y-115111326D01*
X96526000Y-115156661D01*
X96526000Y-115993339D01*
X96521535Y-116038674D01*
X96510101Y-116076367D01*
X96491534Y-116111103D01*
X96466548Y-116141548D01*
X96436103Y-116166534D01*
X96401367Y-116185101D01*
X96363674Y-116196535D01*
X96318339Y-116201000D01*
X95231661Y-116201000D01*
X95186326Y-116196535D01*
X95148633Y-116185101D01*
X95113897Y-116166534D01*
X95083452Y-116141548D01*
X95058466Y-116111103D01*
X95039899Y-116076367D01*
X95028465Y-116038674D01*
X95024000Y-115993339D01*
X95024000Y-115156661D01*
X95028465Y-115111326D01*
X95039899Y-115073633D01*
X95058466Y-115038897D01*
X95083452Y-115008452D01*
X95113897Y-114983466D01*
X95148633Y-114964899D01*
X95186326Y-114953465D01*
X95231661Y-114949000D01*
X96318339Y-114949000D01*
X96363674Y-114953465D01*
G37*
G36*
X113588674Y-114028465D02*
G01*
X113626367Y-114039899D01*
X113661103Y-114058466D01*
X113691548Y-114083452D01*
X113716534Y-114113897D01*
X113735101Y-114148633D01*
X113746535Y-114186326D01*
X113751000Y-114231661D01*
X113751000Y-115068339D01*
X113746535Y-115113674D01*
X113735101Y-115151367D01*
X113716534Y-115186103D01*
X113691548Y-115216548D01*
X113661103Y-115241534D01*
X113626367Y-115260101D01*
X113588674Y-115271535D01*
X113543339Y-115276000D01*
X112456661Y-115276000D01*
X112411326Y-115271535D01*
X112373633Y-115260101D01*
X112338897Y-115241534D01*
X112308452Y-115216548D01*
X112283466Y-115186103D01*
X112264899Y-115151367D01*
X112253465Y-115113674D01*
X112249000Y-115068339D01*
X112249000Y-114231661D01*
X112253465Y-114186326D01*
X112264899Y-114148633D01*
X112283466Y-114113897D01*
X112308452Y-114083452D01*
X112338897Y-114058466D01*
X112373633Y-114039899D01*
X112411326Y-114028465D01*
X112456661Y-114024000D01*
X113543339Y-114024000D01*
X113588674Y-114028465D01*
G37*
G36*
X153753674Y-113013465D02*
G01*
X153791367Y-113024899D01*
X153826103Y-113043466D01*
X153856548Y-113068452D01*
X153881534Y-113098897D01*
X153900101Y-113133633D01*
X153911535Y-113171326D01*
X153916000Y-113216661D01*
X153916000Y-114303339D01*
X153911535Y-114348674D01*
X153900101Y-114386367D01*
X153881534Y-114421103D01*
X153856548Y-114451548D01*
X153826103Y-114476534D01*
X153791367Y-114495101D01*
X153753674Y-114506535D01*
X153708339Y-114511000D01*
X152871661Y-114511000D01*
X152826326Y-114506535D01*
X152788633Y-114495101D01*
X152753897Y-114476534D01*
X152723452Y-114451548D01*
X152698466Y-114421103D01*
X152679899Y-114386367D01*
X152668465Y-114348674D01*
X152664000Y-114303339D01*
X152664000Y-113216661D01*
X152668465Y-113171326D01*
X152679899Y-113133633D01*
X152698466Y-113098897D01*
X152723452Y-113068452D01*
X152753897Y-113043466D01*
X152788633Y-113024899D01*
X152826326Y-113013465D01*
X152871661Y-113009000D01*
X153708339Y-113009000D01*
X153753674Y-113013465D01*
G37*
G36*
X155803674Y-113013465D02*
G01*
X155841367Y-113024899D01*
X155876103Y-113043466D01*
X155906548Y-113068452D01*
X155931534Y-113098897D01*
X155950101Y-113133633D01*
X155961535Y-113171326D01*
X155966000Y-113216661D01*
X155966000Y-114303339D01*
X155961535Y-114348674D01*
X155950101Y-114386367D01*
X155931534Y-114421103D01*
X155906548Y-114451548D01*
X155876103Y-114476534D01*
X155841367Y-114495101D01*
X155803674Y-114506535D01*
X155758339Y-114511000D01*
X154921661Y-114511000D01*
X154876326Y-114506535D01*
X154838633Y-114495101D01*
X154803897Y-114476534D01*
X154773452Y-114451548D01*
X154748466Y-114421103D01*
X154729899Y-114386367D01*
X154718465Y-114348674D01*
X154714000Y-114303339D01*
X154714000Y-113216661D01*
X154718465Y-113171326D01*
X154729899Y-113133633D01*
X154748466Y-113098897D01*
X154773452Y-113068452D01*
X154803897Y-113043466D01*
X154838633Y-113024899D01*
X154876326Y-113013465D01*
X154921661Y-113009000D01*
X155758339Y-113009000D01*
X155803674Y-113013465D01*
G37*
G36*
X83297002Y-114504255D02*
G01*
X81495002Y-114504255D01*
X81495002Y-113102255D01*
X83297002Y-113102255D01*
X83297002Y-114504255D01*
G37*
G36*
X142001000Y-114161000D02*
G01*
X140399000Y-114161000D01*
X140399000Y-113459000D01*
X142001000Y-113459000D01*
X142001000Y-114161000D01*
G37*
G36*
X136601000Y-114161000D02*
G01*
X134999000Y-114161000D01*
X134999000Y-113459000D01*
X136601000Y-113459000D01*
X136601000Y-114161000D01*
G37*
G36*
X96363674Y-112903465D02*
G01*
X96401367Y-112914899D01*
X96436103Y-112933466D01*
X96466548Y-112958452D01*
X96491534Y-112988897D01*
X96510101Y-113023633D01*
X96521535Y-113061326D01*
X96526000Y-113106661D01*
X96526000Y-113943339D01*
X96521535Y-113988674D01*
X96510101Y-114026367D01*
X96491534Y-114061103D01*
X96466548Y-114091548D01*
X96436103Y-114116534D01*
X96401367Y-114135101D01*
X96363674Y-114146535D01*
X96318339Y-114151000D01*
X95231661Y-114151000D01*
X95186326Y-114146535D01*
X95148633Y-114135101D01*
X95113897Y-114116534D01*
X95083452Y-114091548D01*
X95058466Y-114061103D01*
X95039899Y-114026367D01*
X95028465Y-113988674D01*
X95024000Y-113943339D01*
X95024000Y-113106661D01*
X95028465Y-113061326D01*
X95039899Y-113023633D01*
X95058466Y-112988897D01*
X95083452Y-112958452D01*
X95113897Y-112933466D01*
X95148633Y-112914899D01*
X95186326Y-112903465D01*
X95231661Y-112899000D01*
X96318339Y-112899000D01*
X96363674Y-112903465D01*
G37*
G36*
X80447002Y-113924255D02*
G01*
X78145002Y-113924255D01*
X78145002Y-112622255D01*
X80447002Y-112622255D01*
X80447002Y-113924255D01*
G37*
G36*
X108983119Y-111753465D02*
G01*
X109020812Y-111764899D01*
X109055548Y-111783466D01*
X109085993Y-111808452D01*
X109110979Y-111838897D01*
X109129546Y-111873633D01*
X109140980Y-111911326D01*
X109145445Y-111956661D01*
X109145445Y-113043339D01*
X109140980Y-113088674D01*
X109129546Y-113126367D01*
X109110979Y-113161103D01*
X109085993Y-113191548D01*
X109055548Y-113216534D01*
X109020812Y-113235101D01*
X108983119Y-113246535D01*
X108937784Y-113251000D01*
X108101106Y-113251000D01*
X108055771Y-113246535D01*
X108018078Y-113235101D01*
X107983342Y-113216534D01*
X107952897Y-113191548D01*
X107927911Y-113161103D01*
X107909344Y-113126367D01*
X107897910Y-113088674D01*
X107893445Y-113043339D01*
X107893445Y-111956661D01*
X107897910Y-111911326D01*
X107909344Y-111873633D01*
X107927911Y-111838897D01*
X107952897Y-111808452D01*
X107983342Y-111783466D01*
X108018078Y-111764899D01*
X108055771Y-111753465D01*
X108101106Y-111749000D01*
X108937784Y-111749000D01*
X108983119Y-111753465D01*
G37*
G36*
X111033119Y-111753465D02*
G01*
X111070812Y-111764899D01*
X111105548Y-111783466D01*
X111135993Y-111808452D01*
X111160979Y-111838897D01*
X111179546Y-111873633D01*
X111190980Y-111911326D01*
X111195445Y-111956661D01*
X111195445Y-113043339D01*
X111190980Y-113088674D01*
X111179546Y-113126367D01*
X111160979Y-113161103D01*
X111135993Y-113191548D01*
X111105548Y-113216534D01*
X111070812Y-113235101D01*
X111033119Y-113246535D01*
X110987784Y-113251000D01*
X110151106Y-113251000D01*
X110105771Y-113246535D01*
X110068078Y-113235101D01*
X110033342Y-113216534D01*
X110002897Y-113191548D01*
X109977911Y-113161103D01*
X109959344Y-113126367D01*
X109947910Y-113088674D01*
X109943445Y-113043339D01*
X109943445Y-111956661D01*
X109947910Y-111911326D01*
X109959344Y-111873633D01*
X109977911Y-111838897D01*
X110002897Y-111808452D01*
X110033342Y-111783466D01*
X110068078Y-111764899D01*
X110105771Y-111753465D01*
X110151106Y-111749000D01*
X110987784Y-111749000D01*
X111033119Y-111753465D01*
G37*
G36*
X142001000Y-112891000D02*
G01*
X140399000Y-112891000D01*
X140399000Y-112189000D01*
X142001000Y-112189000D01*
X142001000Y-112891000D01*
G37*
G36*
X136601000Y-112891000D02*
G01*
X134999000Y-112891000D01*
X134999000Y-112189000D01*
X136601000Y-112189000D01*
X136601000Y-112891000D01*
G37*
G36*
X100051000Y-112176000D02*
G01*
X98149000Y-112176000D01*
X98149000Y-108574000D01*
X100051000Y-108574000D01*
X100051000Y-112176000D01*
G37*
G36*
X152753674Y-110513465D02*
G01*
X152791367Y-110524899D01*
X152826103Y-110543466D01*
X152856548Y-110568452D01*
X152881534Y-110598897D01*
X152900101Y-110633633D01*
X152911535Y-110671326D01*
X152916000Y-110716661D01*
X152916000Y-111803339D01*
X152911535Y-111848674D01*
X152900101Y-111886367D01*
X152881534Y-111921103D01*
X152856548Y-111951548D01*
X152826103Y-111976534D01*
X152791367Y-111995101D01*
X152753674Y-112006535D01*
X152708339Y-112011000D01*
X151871661Y-112011000D01*
X151826326Y-112006535D01*
X151788633Y-111995101D01*
X151753897Y-111976534D01*
X151723452Y-111951548D01*
X151698466Y-111921103D01*
X151679899Y-111886367D01*
X151668465Y-111848674D01*
X151664000Y-111803339D01*
X151664000Y-110716661D01*
X151668465Y-110671326D01*
X151679899Y-110633633D01*
X151698466Y-110598897D01*
X151723452Y-110568452D01*
X151753897Y-110543466D01*
X151788633Y-110524899D01*
X151826326Y-110513465D01*
X151871661Y-110509000D01*
X152708339Y-110509000D01*
X152753674Y-110513465D01*
G37*
G36*
X154803674Y-110513465D02*
G01*
X154841367Y-110524899D01*
X154876103Y-110543466D01*
X154906548Y-110568452D01*
X154931534Y-110598897D01*
X154950101Y-110633633D01*
X154961535Y-110671326D01*
X154966000Y-110716661D01*
X154966000Y-111803339D01*
X154961535Y-111848674D01*
X154950101Y-111886367D01*
X154931534Y-111921103D01*
X154906548Y-111951548D01*
X154876103Y-111976534D01*
X154841367Y-111995101D01*
X154803674Y-112006535D01*
X154758339Y-112011000D01*
X153921661Y-112011000D01*
X153876326Y-112006535D01*
X153838633Y-111995101D01*
X153803897Y-111976534D01*
X153773452Y-111951548D01*
X153748466Y-111921103D01*
X153729899Y-111886367D01*
X153718465Y-111848674D01*
X153714000Y-111803339D01*
X153714000Y-110716661D01*
X153718465Y-110671326D01*
X153729899Y-110633633D01*
X153748466Y-110598897D01*
X153773452Y-110568452D01*
X153803897Y-110543466D01*
X153838633Y-110524899D01*
X153876326Y-110513465D01*
X153921661Y-110509000D01*
X154758339Y-110509000D01*
X154803674Y-110513465D01*
G37*
G36*
X96363674Y-110628465D02*
G01*
X96401367Y-110639899D01*
X96436103Y-110658466D01*
X96466548Y-110683452D01*
X96491534Y-110713897D01*
X96510101Y-110748633D01*
X96521535Y-110786326D01*
X96526000Y-110831661D01*
X96526000Y-111668339D01*
X96521535Y-111713674D01*
X96510101Y-111751367D01*
X96491534Y-111786103D01*
X96466548Y-111816548D01*
X96436103Y-111841534D01*
X96401367Y-111860101D01*
X96363674Y-111871535D01*
X96318339Y-111876000D01*
X95231661Y-111876000D01*
X95186326Y-111871535D01*
X95148633Y-111860101D01*
X95113897Y-111841534D01*
X95083452Y-111816548D01*
X95058466Y-111786103D01*
X95039899Y-111751367D01*
X95028465Y-111713674D01*
X95024000Y-111668339D01*
X95024000Y-110831661D01*
X95028465Y-110786326D01*
X95039899Y-110748633D01*
X95058466Y-110713897D01*
X95083452Y-110683452D01*
X95113897Y-110658466D01*
X95148633Y-110639899D01*
X95186326Y-110628465D01*
X95231661Y-110624000D01*
X96318339Y-110624000D01*
X96363674Y-110628465D01*
G37*
G36*
X136601000Y-111621000D02*
G01*
X134999000Y-111621000D01*
X134999000Y-110919000D01*
X136601000Y-110919000D01*
X136601000Y-111621000D01*
G37*
G36*
X142001000Y-111621000D02*
G01*
X140399000Y-111621000D01*
X140399000Y-110919000D01*
X142001000Y-110919000D01*
X142001000Y-111621000D01*
G37*
G36*
X89126000Y-110676000D02*
G01*
X87524000Y-110676000D01*
X87524000Y-108574000D01*
X89126000Y-108574000D01*
X89126000Y-110676000D01*
G37*
G36*
X93726000Y-110676000D02*
G01*
X92124000Y-110676000D01*
X92124000Y-108574000D01*
X93726000Y-108574000D01*
X93726000Y-110676000D01*
G37*
G36*
X91426000Y-110676000D02*
G01*
X89824000Y-110676000D01*
X89824000Y-108574000D01*
X91426000Y-108574000D01*
X91426000Y-110676000D01*
G37*
G36*
X136601000Y-110351000D02*
G01*
X134999000Y-110351000D01*
X134999000Y-109649000D01*
X136601000Y-109649000D01*
X136601000Y-110351000D01*
G37*
G36*
X142001000Y-110351000D02*
G01*
X140399000Y-110351000D01*
X140399000Y-109649000D01*
X142001000Y-109649000D01*
X142001000Y-110351000D01*
G37*
G36*
X96363674Y-108578465D02*
G01*
X96401367Y-108589899D01*
X96436103Y-108608466D01*
X96466548Y-108633452D01*
X96491534Y-108663897D01*
X96510101Y-108698633D01*
X96521535Y-108736326D01*
X96526000Y-108781661D01*
X96526000Y-109618339D01*
X96521535Y-109663674D01*
X96510101Y-109701367D01*
X96491534Y-109736103D01*
X96466548Y-109766548D01*
X96436103Y-109791534D01*
X96401367Y-109810101D01*
X96363674Y-109821535D01*
X96318339Y-109826000D01*
X95231661Y-109826000D01*
X95186326Y-109821535D01*
X95148633Y-109810101D01*
X95113897Y-109791534D01*
X95083452Y-109766548D01*
X95058466Y-109736103D01*
X95039899Y-109701367D01*
X95028465Y-109663674D01*
X95024000Y-109618339D01*
X95024000Y-108781661D01*
X95028465Y-108736326D01*
X95039899Y-108698633D01*
X95058466Y-108663897D01*
X95083452Y-108633452D01*
X95113897Y-108608466D01*
X95148633Y-108589899D01*
X95186326Y-108578465D01*
X95231661Y-108574000D01*
X96318339Y-108574000D01*
X96363674Y-108578465D01*
G37*
G36*
X136601000Y-109081000D02*
G01*
X134999000Y-109081000D01*
X134999000Y-108379000D01*
X136601000Y-108379000D01*
X136601000Y-109081000D01*
G37*
G36*
X142001000Y-109081000D02*
G01*
X140399000Y-109081000D01*
X140399000Y-108379000D01*
X142001000Y-108379000D01*
X142001000Y-109081000D01*
G37*
G36*
X142001000Y-107811000D02*
G01*
X140399000Y-107811000D01*
X140399000Y-107109000D01*
X142001000Y-107109000D01*
X142001000Y-107811000D01*
G37*
G36*
X136601000Y-107811000D02*
G01*
X134999000Y-107811000D01*
X134999000Y-107109000D01*
X136601000Y-107109000D01*
X136601000Y-107811000D01*
G37*
G36*
X91938674Y-106003465D02*
G01*
X91976367Y-106014899D01*
X92011103Y-106033466D01*
X92041548Y-106058452D01*
X92066534Y-106088897D01*
X92085101Y-106123633D01*
X92096535Y-106161326D01*
X92101000Y-106206661D01*
X92101000Y-107293339D01*
X92096535Y-107338674D01*
X92085101Y-107376367D01*
X92066534Y-107411103D01*
X92041548Y-107441548D01*
X92011103Y-107466534D01*
X91976367Y-107485101D01*
X91938674Y-107496535D01*
X91893339Y-107501000D01*
X91056661Y-107501000D01*
X91011326Y-107496535D01*
X90973633Y-107485101D01*
X90938897Y-107466534D01*
X90908452Y-107441548D01*
X90883466Y-107411103D01*
X90864899Y-107376367D01*
X90853465Y-107338674D01*
X90849000Y-107293339D01*
X90849000Y-106206661D01*
X90853465Y-106161326D01*
X90864899Y-106123633D01*
X90883466Y-106088897D01*
X90908452Y-106058452D01*
X90938897Y-106033466D01*
X90973633Y-106014899D01*
X91011326Y-106003465D01*
X91056661Y-105999000D01*
X91893339Y-105999000D01*
X91938674Y-106003465D01*
G37*
G36*
X89888674Y-106003465D02*
G01*
X89926367Y-106014899D01*
X89961103Y-106033466D01*
X89991548Y-106058452D01*
X90016534Y-106088897D01*
X90035101Y-106123633D01*
X90046535Y-106161326D01*
X90051000Y-106206661D01*
X90051000Y-107293339D01*
X90046535Y-107338674D01*
X90035101Y-107376367D01*
X90016534Y-107411103D01*
X89991548Y-107441548D01*
X89961103Y-107466534D01*
X89926367Y-107485101D01*
X89888674Y-107496535D01*
X89843339Y-107501000D01*
X89006661Y-107501000D01*
X88961326Y-107496535D01*
X88923633Y-107485101D01*
X88888897Y-107466534D01*
X88858452Y-107441548D01*
X88833466Y-107411103D01*
X88814899Y-107376367D01*
X88803465Y-107338674D01*
X88799000Y-107293339D01*
X88799000Y-106206661D01*
X88803465Y-106161326D01*
X88814899Y-106123633D01*
X88833466Y-106088897D01*
X88858452Y-106058452D01*
X88888897Y-106033466D01*
X88923633Y-106014899D01*
X88961326Y-106003465D01*
X89006661Y-105999000D01*
X89843339Y-105999000D01*
X89888674Y-106003465D01*
G37*
G36*
X94163674Y-106003465D02*
G01*
X94201367Y-106014899D01*
X94236103Y-106033466D01*
X94266548Y-106058452D01*
X94291534Y-106088897D01*
X94310101Y-106123633D01*
X94321535Y-106161326D01*
X94326000Y-106206661D01*
X94326000Y-107293339D01*
X94321535Y-107338674D01*
X94310101Y-107376367D01*
X94291534Y-107411103D01*
X94266548Y-107441548D01*
X94236103Y-107466534D01*
X94201367Y-107485101D01*
X94163674Y-107496535D01*
X94118339Y-107501000D01*
X93281661Y-107501000D01*
X93236326Y-107496535D01*
X93198633Y-107485101D01*
X93163897Y-107466534D01*
X93133452Y-107441548D01*
X93108466Y-107411103D01*
X93089899Y-107376367D01*
X93078465Y-107338674D01*
X93074000Y-107293339D01*
X93074000Y-106206661D01*
X93078465Y-106161326D01*
X93089899Y-106123633D01*
X93108466Y-106088897D01*
X93133452Y-106058452D01*
X93163897Y-106033466D01*
X93198633Y-106014899D01*
X93236326Y-106003465D01*
X93281661Y-105999000D01*
X94118339Y-105999000D01*
X94163674Y-106003465D01*
G37*
G36*
X96213674Y-106003465D02*
G01*
X96251367Y-106014899D01*
X96286103Y-106033466D01*
X96316548Y-106058452D01*
X96341534Y-106088897D01*
X96360101Y-106123633D01*
X96371535Y-106161326D01*
X96376000Y-106206661D01*
X96376000Y-107293339D01*
X96371535Y-107338674D01*
X96360101Y-107376367D01*
X96341534Y-107411103D01*
X96316548Y-107441548D01*
X96286103Y-107466534D01*
X96251367Y-107485101D01*
X96213674Y-107496535D01*
X96168339Y-107501000D01*
X95331661Y-107501000D01*
X95286326Y-107496535D01*
X95248633Y-107485101D01*
X95213897Y-107466534D01*
X95183452Y-107441548D01*
X95158466Y-107411103D01*
X95139899Y-107376367D01*
X95128465Y-107338674D01*
X95124000Y-107293339D01*
X95124000Y-106206661D01*
X95128465Y-106161326D01*
X95139899Y-106123633D01*
X95158466Y-106088897D01*
X95183452Y-106058452D01*
X95213897Y-106033466D01*
X95248633Y-106014899D01*
X95286326Y-106003465D01*
X95331661Y-105999000D01*
X96168339Y-105999000D01*
X96213674Y-106003465D01*
G37*
G36*
X142001000Y-106541000D02*
G01*
X140399000Y-106541000D01*
X140399000Y-105839000D01*
X142001000Y-105839000D01*
X142001000Y-106541000D01*
G37*
G36*
X136601000Y-106541000D02*
G01*
X134999000Y-106541000D01*
X134999000Y-105839000D01*
X136601000Y-105839000D01*
X136601000Y-106541000D01*
G37*
G36*
X96213674Y-103453465D02*
G01*
X96251367Y-103464899D01*
X96286103Y-103483466D01*
X96316548Y-103508452D01*
X96341534Y-103538897D01*
X96360101Y-103573633D01*
X96371535Y-103611326D01*
X96376000Y-103656661D01*
X96376000Y-104743339D01*
X96371535Y-104788674D01*
X96360101Y-104826367D01*
X96341534Y-104861103D01*
X96316548Y-104891548D01*
X96286103Y-104916534D01*
X96251367Y-104935101D01*
X96213674Y-104946535D01*
X96168339Y-104951000D01*
X95331661Y-104951000D01*
X95286326Y-104946535D01*
X95248633Y-104935101D01*
X95213897Y-104916534D01*
X95183452Y-104891548D01*
X95158466Y-104861103D01*
X95139899Y-104826367D01*
X95128465Y-104788674D01*
X95124000Y-104743339D01*
X95124000Y-103656661D01*
X95128465Y-103611326D01*
X95139899Y-103573633D01*
X95158466Y-103538897D01*
X95183452Y-103508452D01*
X95213897Y-103483466D01*
X95248633Y-103464899D01*
X95286326Y-103453465D01*
X95331661Y-103449000D01*
X96168339Y-103449000D01*
X96213674Y-103453465D01*
G37*
G36*
X94163674Y-103453465D02*
G01*
X94201367Y-103464899D01*
X94236103Y-103483466D01*
X94266548Y-103508452D01*
X94291534Y-103538897D01*
X94310101Y-103573633D01*
X94321535Y-103611326D01*
X94326000Y-103656661D01*
X94326000Y-104743339D01*
X94321535Y-104788674D01*
X94310101Y-104826367D01*
X94291534Y-104861103D01*
X94266548Y-104891548D01*
X94236103Y-104916534D01*
X94201367Y-104935101D01*
X94163674Y-104946535D01*
X94118339Y-104951000D01*
X93281661Y-104951000D01*
X93236326Y-104946535D01*
X93198633Y-104935101D01*
X93163897Y-104916534D01*
X93133452Y-104891548D01*
X93108466Y-104861103D01*
X93089899Y-104826367D01*
X93078465Y-104788674D01*
X93074000Y-104743339D01*
X93074000Y-103656661D01*
X93078465Y-103611326D01*
X93089899Y-103573633D01*
X93108466Y-103538897D01*
X93133452Y-103508452D01*
X93163897Y-103483466D01*
X93198633Y-103464899D01*
X93236326Y-103453465D01*
X93281661Y-103449000D01*
X94118339Y-103449000D01*
X94163674Y-103453465D01*
G37*
G36*
X140320185Y-103255767D02*
G01*
X140357878Y-103267201D01*
X140392614Y-103285768D01*
X140423059Y-103310754D01*
X140448045Y-103341199D01*
X140466612Y-103375935D01*
X140478046Y-103413628D01*
X140482511Y-103458963D01*
X140482511Y-104545641D01*
X140478046Y-104590976D01*
X140466612Y-104628669D01*
X140448045Y-104663405D01*
X140423059Y-104693850D01*
X140392614Y-104718836D01*
X140357878Y-104737403D01*
X140320185Y-104748837D01*
X140274850Y-104753302D01*
X139438172Y-104753302D01*
X139392837Y-104748837D01*
X139355144Y-104737403D01*
X139320408Y-104718836D01*
X139289963Y-104693850D01*
X139264977Y-104663405D01*
X139246410Y-104628669D01*
X139234976Y-104590976D01*
X139230511Y-104545641D01*
X139230511Y-103458963D01*
X139234976Y-103413628D01*
X139246410Y-103375935D01*
X139264977Y-103341199D01*
X139289963Y-103310754D01*
X139320408Y-103285768D01*
X139355144Y-103267201D01*
X139392837Y-103255767D01*
X139438172Y-103251302D01*
X140274850Y-103251302D01*
X140320185Y-103255767D01*
G37*
G36*
X138270185Y-103255767D02*
G01*
X138307878Y-103267201D01*
X138342614Y-103285768D01*
X138373059Y-103310754D01*
X138398045Y-103341199D01*
X138416612Y-103375935D01*
X138428046Y-103413628D01*
X138432511Y-103458963D01*
X138432511Y-104545641D01*
X138428046Y-104590976D01*
X138416612Y-104628669D01*
X138398045Y-104663405D01*
X138373059Y-104693850D01*
X138342614Y-104718836D01*
X138307878Y-104737403D01*
X138270185Y-104748837D01*
X138224850Y-104753302D01*
X137388172Y-104753302D01*
X137342837Y-104748837D01*
X137305144Y-104737403D01*
X137270408Y-104718836D01*
X137239963Y-104693850D01*
X137214977Y-104663405D01*
X137196410Y-104628669D01*
X137184976Y-104590976D01*
X137180511Y-104545641D01*
X137180511Y-103458963D01*
X137184976Y-103413628D01*
X137196410Y-103375935D01*
X137214977Y-103341199D01*
X137239963Y-103310754D01*
X137270408Y-103285768D01*
X137305144Y-103267201D01*
X137342837Y-103255767D01*
X137388172Y-103251302D01*
X138224850Y-103251302D01*
X138270185Y-103255767D01*
G37*
G36*
X153450000Y-94900000D02*
G01*
X139100000Y-94900000D01*
X139100000Y-93150000D01*
X153450000Y-93150000D01*
X153450000Y-94900000D01*
G37*
G36*
X137500000Y-94900000D02*
G01*
X132450000Y-94900000D01*
X132450000Y-93150000D01*
X137500000Y-93150000D01*
X137500000Y-94900000D01*
G37*
G36*
X130850000Y-94897112D02*
G01*
X123659401Y-94898557D01*
X116481136Y-94899999D01*
X116481134Y-94899999D01*
X116475000Y-94900000D01*
X116475000Y-93150000D01*
X123665599Y-93148555D01*
X130843864Y-93147113D01*
X130843866Y-93147113D01*
X130850000Y-93147112D01*
X130850000Y-94897112D01*
G37*
G36*
X164700000Y-94900000D02*
G01*
X155075000Y-94900000D01*
X155075000Y-93150000D01*
X162575001Y-93150000D01*
X162599387Y-93147598D01*
X162622836Y-93140485D01*
X162644447Y-93128934D01*
X162663389Y-93113389D01*
X162678934Y-93094447D01*
X162690485Y-93072836D01*
X162697598Y-93049387D01*
X162700000Y-93025001D01*
X162700000Y-53924999D01*
X162697598Y-53900613D01*
X162690485Y-53877164D01*
X162678934Y-53855553D01*
X162663389Y-53836611D01*
X162644447Y-53821066D01*
X162622836Y-53809515D01*
X162599387Y-53802402D01*
X162575001Y-53800000D01*
X155200000Y-53800000D01*
X155200000Y-53799395D01*
X155188252Y-53798238D01*
X155163748Y-53798238D01*
X155139714Y-53803018D01*
X155117075Y-53812395D01*
X155096701Y-53826009D01*
X155079374Y-53843336D01*
X155065760Y-53863710D01*
X155056383Y-53886349D01*
X155051602Y-53910382D01*
X155051000Y-53922635D01*
X155051000Y-57091000D01*
X153449000Y-57091000D01*
X153449000Y-51909000D01*
X155076577Y-51909000D01*
X155100963Y-51906598D01*
X155124412Y-51899485D01*
X155146023Y-51887934D01*
X155164965Y-51872389D01*
X155180510Y-51853447D01*
X155192061Y-51831836D01*
X155199174Y-51808387D01*
X155200000Y-51802818D01*
X155200000Y-51800000D01*
X164700000Y-51800000D01*
X164700000Y-94900000D01*
G37*
G36*
X114875000Y-94900000D02*
G01*
X108500000Y-94900000D01*
X108500000Y-93150000D01*
X114875000Y-93150000D01*
X114875000Y-94900000D01*
G37*
G36*
X90925000Y-94900000D02*
G01*
X83200000Y-94900000D01*
X83200000Y-93150000D01*
X90925000Y-93150000D01*
X90925000Y-94900000D01*
G37*
G36*
X106875000Y-94900000D02*
G01*
X92525000Y-94900000D01*
X92525000Y-93150000D01*
X106875000Y-93150000D01*
X106875000Y-94900000D01*
G37*
G36*
X74800000Y-51802074D02*
G01*
X74800534Y-51803835D01*
X74803806Y-51820286D01*
X74813183Y-51842925D01*
X74826797Y-51863299D01*
X74844124Y-51880626D01*
X74864498Y-51894240D01*
X74887137Y-51903617D01*
X74911170Y-51908398D01*
X74923423Y-51909000D01*
X76551000Y-51909000D01*
X76551000Y-57091000D01*
X74949000Y-57091000D01*
X74949000Y-53922635D01*
X74946598Y-53898249D01*
X74939485Y-53874800D01*
X74927934Y-53853189D01*
X74912389Y-53834247D01*
X74893447Y-53818702D01*
X74871836Y-53807151D01*
X74848387Y-53800038D01*
X74824001Y-53797636D01*
X74811748Y-53798238D01*
X74800000Y-53799395D01*
X74800000Y-53800000D01*
X67424999Y-53800000D01*
X67400613Y-53802402D01*
X67377164Y-53809515D01*
X67355553Y-53821066D01*
X67336611Y-53836611D01*
X67321066Y-53855553D01*
X67309515Y-53877164D01*
X67302402Y-53900613D01*
X67300000Y-53924999D01*
X67300000Y-93025001D01*
X67302402Y-93049387D01*
X67309515Y-93072836D01*
X67321066Y-93094447D01*
X67336611Y-93113389D01*
X67355553Y-93128934D01*
X67377164Y-93140485D01*
X67400613Y-93147598D01*
X67424999Y-93150000D01*
X81600000Y-93150000D01*
X81600000Y-94900000D01*
X65300000Y-94900000D01*
X65300000Y-51800000D01*
X74800000Y-51800000D01*
X74800000Y-51802074D01*
G37*
G36*
X80987674Y-90053465D02*
G01*
X81025367Y-90064899D01*
X81060103Y-90083466D01*
X81090548Y-90108452D01*
X81115534Y-90138897D01*
X81134101Y-90173633D01*
X81145535Y-90211326D01*
X81150000Y-90256661D01*
X81150000Y-91093339D01*
X81145535Y-91138674D01*
X81134101Y-91176367D01*
X81115534Y-91211103D01*
X81090548Y-91241548D01*
X81060103Y-91266534D01*
X81025367Y-91285101D01*
X80987674Y-91296535D01*
X80942339Y-91301000D01*
X79855661Y-91301000D01*
X79810326Y-91296535D01*
X79772633Y-91285101D01*
X79737897Y-91266534D01*
X79707452Y-91241548D01*
X79682466Y-91211103D01*
X79663899Y-91176367D01*
X79652465Y-91138674D01*
X79648000Y-91093339D01*
X79648000Y-90256661D01*
X79652465Y-90211326D01*
X79663899Y-90173633D01*
X79682466Y-90138897D01*
X79707452Y-90108452D01*
X79737897Y-90083466D01*
X79772633Y-90064899D01*
X79810326Y-90053465D01*
X79855661Y-90049000D01*
X80942339Y-90049000D01*
X80987674Y-90053465D01*
G37*
G36*
X150989674Y-90053465D02*
G01*
X151027367Y-90064899D01*
X151062103Y-90083466D01*
X151092548Y-90108452D01*
X151117534Y-90138897D01*
X151136101Y-90173633D01*
X151147535Y-90211326D01*
X151152000Y-90256661D01*
X151152000Y-91093339D01*
X151147535Y-91138674D01*
X151136101Y-91176367D01*
X151117534Y-91211103D01*
X151092548Y-91241548D01*
X151062103Y-91266534D01*
X151027367Y-91285101D01*
X150989674Y-91296535D01*
X150944339Y-91301000D01*
X149857661Y-91301000D01*
X149812326Y-91296535D01*
X149774633Y-91285101D01*
X149739897Y-91266534D01*
X149709452Y-91241548D01*
X149684466Y-91211103D01*
X149665899Y-91176367D01*
X149654465Y-91138674D01*
X149650000Y-91093339D01*
X149650000Y-90256661D01*
X149654465Y-90211326D01*
X149665899Y-90173633D01*
X149684466Y-90138897D01*
X149709452Y-90108452D01*
X149739897Y-90083466D01*
X149774633Y-90064899D01*
X149812326Y-90053465D01*
X149857661Y-90049000D01*
X150944339Y-90049000D01*
X150989674Y-90053465D01*
G37*
G36*
X125268664Y-91301000D02*
G01*
X123466664Y-91301000D01*
X123466664Y-89899000D01*
X125268664Y-89899000D01*
X125268664Y-91301000D01*
G37*
G36*
X127656338Y-90053465D02*
G01*
X127694031Y-90064899D01*
X127728767Y-90083466D01*
X127759212Y-90108452D01*
X127784198Y-90138897D01*
X127802765Y-90173633D01*
X127814199Y-90211326D01*
X127818664Y-90256661D01*
X127818664Y-91093339D01*
X127814199Y-91138674D01*
X127802765Y-91176367D01*
X127784198Y-91211103D01*
X127759212Y-91241548D01*
X127728767Y-91266534D01*
X127694031Y-91285101D01*
X127656338Y-91296535D01*
X127611003Y-91301000D01*
X126524325Y-91301000D01*
X126478990Y-91296535D01*
X126441297Y-91285101D01*
X126406561Y-91266534D01*
X126376116Y-91241548D01*
X126351130Y-91211103D01*
X126332563Y-91176367D01*
X126321129Y-91138674D01*
X126316664Y-91093339D01*
X126316664Y-90256661D01*
X126321129Y-90211326D01*
X126332563Y-90173633D01*
X126351130Y-90138897D01*
X126376116Y-90108452D01*
X126406561Y-90083466D01*
X126441297Y-90064899D01*
X126478990Y-90053465D01*
X126524325Y-90049000D01*
X127611003Y-90049000D01*
X127656338Y-90053465D01*
G37*
G36*
X148602000Y-91301000D02*
G01*
X146800000Y-91301000D01*
X146800000Y-89899000D01*
X148602000Y-89899000D01*
X148602000Y-91301000D01*
G37*
G36*
X101933332Y-91301000D02*
G01*
X100131332Y-91301000D01*
X100131332Y-89899000D01*
X101933332Y-89899000D01*
X101933332Y-91301000D01*
G37*
G36*
X104321006Y-90053465D02*
G01*
X104358699Y-90064899D01*
X104393435Y-90083466D01*
X104423880Y-90108452D01*
X104448866Y-90138897D01*
X104467433Y-90173633D01*
X104478867Y-90211326D01*
X104483332Y-90256661D01*
X104483332Y-91093339D01*
X104478867Y-91138674D01*
X104467433Y-91176367D01*
X104448866Y-91211103D01*
X104423880Y-91241548D01*
X104393435Y-91266534D01*
X104358699Y-91285101D01*
X104321006Y-91296535D01*
X104275671Y-91301000D01*
X103188993Y-91301000D01*
X103143658Y-91296535D01*
X103105965Y-91285101D01*
X103071229Y-91266534D01*
X103040784Y-91241548D01*
X103015798Y-91211103D01*
X102997231Y-91176367D01*
X102985797Y-91138674D01*
X102981332Y-91093339D01*
X102981332Y-90256661D01*
X102985797Y-90211326D01*
X102997231Y-90173633D01*
X103015798Y-90138897D01*
X103040784Y-90108452D01*
X103071229Y-90083466D01*
X103105965Y-90064899D01*
X103143658Y-90053465D01*
X103188993Y-90049000D01*
X104275671Y-90049000D01*
X104321006Y-90053465D01*
G37*
G36*
X78600000Y-91301000D02*
G01*
X76798000Y-91301000D01*
X76798000Y-89899000D01*
X78600000Y-89899000D01*
X78600000Y-91301000D01*
G37*
G36*
X80987674Y-88003465D02*
G01*
X81025367Y-88014899D01*
X81060103Y-88033466D01*
X81090548Y-88058452D01*
X81115534Y-88088897D01*
X81134101Y-88123633D01*
X81145535Y-88161326D01*
X81150000Y-88206661D01*
X81150000Y-89043339D01*
X81145535Y-89088674D01*
X81134101Y-89126367D01*
X81115534Y-89161103D01*
X81090548Y-89191548D01*
X81060103Y-89216534D01*
X81025367Y-89235101D01*
X80987674Y-89246535D01*
X80942339Y-89251000D01*
X79855661Y-89251000D01*
X79810326Y-89246535D01*
X79772633Y-89235101D01*
X79737897Y-89216534D01*
X79707452Y-89191548D01*
X79682466Y-89161103D01*
X79663899Y-89126367D01*
X79652465Y-89088674D01*
X79648000Y-89043339D01*
X79648000Y-88206661D01*
X79652465Y-88161326D01*
X79663899Y-88123633D01*
X79682466Y-88088897D01*
X79707452Y-88058452D01*
X79737897Y-88033466D01*
X79772633Y-88014899D01*
X79810326Y-88003465D01*
X79855661Y-87999000D01*
X80942339Y-87999000D01*
X80987674Y-88003465D01*
G37*
G36*
X104321006Y-88003465D02*
G01*
X104358699Y-88014899D01*
X104393435Y-88033466D01*
X104423880Y-88058452D01*
X104448866Y-88088897D01*
X104467433Y-88123633D01*
X104478867Y-88161326D01*
X104483332Y-88206661D01*
X104483332Y-89043339D01*
X104478867Y-89088674D01*
X104467433Y-89126367D01*
X104448866Y-89161103D01*
X104423880Y-89191548D01*
X104393435Y-89216534D01*
X104358699Y-89235101D01*
X104321006Y-89246535D01*
X104275671Y-89251000D01*
X103188993Y-89251000D01*
X103143658Y-89246535D01*
X103105965Y-89235101D01*
X103071229Y-89216534D01*
X103040784Y-89191548D01*
X103015798Y-89161103D01*
X102997231Y-89126367D01*
X102985797Y-89088674D01*
X102981332Y-89043339D01*
X102981332Y-88206661D01*
X102985797Y-88161326D01*
X102997231Y-88123633D01*
X103015798Y-88088897D01*
X103040784Y-88058452D01*
X103071229Y-88033466D01*
X103105965Y-88014899D01*
X103143658Y-88003465D01*
X103188993Y-87999000D01*
X104275671Y-87999000D01*
X104321006Y-88003465D01*
G37*
G36*
X127656338Y-88003465D02*
G01*
X127694031Y-88014899D01*
X127728767Y-88033466D01*
X127759212Y-88058452D01*
X127784198Y-88088897D01*
X127802765Y-88123633D01*
X127814199Y-88161326D01*
X127818664Y-88206661D01*
X127818664Y-89043339D01*
X127814199Y-89088674D01*
X127802765Y-89126367D01*
X127784198Y-89161103D01*
X127759212Y-89191548D01*
X127728767Y-89216534D01*
X127694031Y-89235101D01*
X127656338Y-89246535D01*
X127611003Y-89251000D01*
X126524325Y-89251000D01*
X126478990Y-89246535D01*
X126441297Y-89235101D01*
X126406561Y-89216534D01*
X126376116Y-89191548D01*
X126351130Y-89161103D01*
X126332563Y-89126367D01*
X126321129Y-89088674D01*
X126316664Y-89043339D01*
X126316664Y-88206661D01*
X126321129Y-88161326D01*
X126332563Y-88123633D01*
X126351130Y-88088897D01*
X126376116Y-88058452D01*
X126406561Y-88033466D01*
X126441297Y-88014899D01*
X126478990Y-88003465D01*
X126524325Y-87999000D01*
X127611003Y-87999000D01*
X127656338Y-88003465D01*
G37*
G36*
X150989674Y-88003465D02*
G01*
X151027367Y-88014899D01*
X151062103Y-88033466D01*
X151092548Y-88058452D01*
X151117534Y-88088897D01*
X151136101Y-88123633D01*
X151147535Y-88161326D01*
X151152000Y-88206661D01*
X151152000Y-89043339D01*
X151147535Y-89088674D01*
X151136101Y-89126367D01*
X151117534Y-89161103D01*
X151092548Y-89191548D01*
X151062103Y-89216534D01*
X151027367Y-89235101D01*
X150989674Y-89246535D01*
X150944339Y-89251000D01*
X149857661Y-89251000D01*
X149812326Y-89246535D01*
X149774633Y-89235101D01*
X149739897Y-89216534D01*
X149709452Y-89191548D01*
X149684466Y-89161103D01*
X149665899Y-89126367D01*
X149654465Y-89088674D01*
X149650000Y-89043339D01*
X149650000Y-88206661D01*
X149654465Y-88161326D01*
X149665899Y-88123633D01*
X149684466Y-88088897D01*
X149709452Y-88058452D01*
X149739897Y-88033466D01*
X149774633Y-88014899D01*
X149812326Y-88003465D01*
X149857661Y-87999000D01*
X150944339Y-87999000D01*
X150989674Y-88003465D01*
G37*
G36*
X71113037Y-86813098D02*
G01*
X71150730Y-86824532D01*
X71185466Y-86843099D01*
X71215911Y-86868085D01*
X71240897Y-86898530D01*
X71259464Y-86933266D01*
X71270898Y-86970959D01*
X71275363Y-87016294D01*
X71275363Y-87852972D01*
X71270898Y-87898307D01*
X71259464Y-87936000D01*
X71240897Y-87970736D01*
X71215911Y-88001181D01*
X71185466Y-88026167D01*
X71150730Y-88044734D01*
X71113037Y-88056168D01*
X71067702Y-88060633D01*
X69981024Y-88060633D01*
X69935689Y-88056168D01*
X69897996Y-88044734D01*
X69863260Y-88026167D01*
X69832815Y-88001181D01*
X69807829Y-87970736D01*
X69789262Y-87936000D01*
X69777828Y-87898307D01*
X69773363Y-87852972D01*
X69773363Y-87016294D01*
X69777828Y-86970959D01*
X69789262Y-86933266D01*
X69807829Y-86898530D01*
X69832815Y-86868085D01*
X69863260Y-86843099D01*
X69897996Y-86824532D01*
X69935689Y-86813098D01*
X69981024Y-86808633D01*
X71067702Y-86808633D01*
X71113037Y-86813098D01*
G37*
G36*
X94485006Y-86813098D02*
G01*
X94522699Y-86824532D01*
X94557435Y-86843099D01*
X94587880Y-86868085D01*
X94612866Y-86898530D01*
X94631433Y-86933266D01*
X94642867Y-86970959D01*
X94647332Y-87016294D01*
X94647332Y-87852972D01*
X94642867Y-87898307D01*
X94631433Y-87936000D01*
X94612866Y-87970736D01*
X94587880Y-88001181D01*
X94557435Y-88026167D01*
X94522699Y-88044734D01*
X94485006Y-88056168D01*
X94439671Y-88060633D01*
X93352993Y-88060633D01*
X93307658Y-88056168D01*
X93269965Y-88044734D01*
X93235229Y-88026167D01*
X93204784Y-88001181D01*
X93179798Y-87970736D01*
X93161231Y-87936000D01*
X93149797Y-87898307D01*
X93145332Y-87852972D01*
X93145332Y-87016294D01*
X93149797Y-86970959D01*
X93161231Y-86933266D01*
X93179798Y-86898530D01*
X93204784Y-86868085D01*
X93235229Y-86843099D01*
X93269965Y-86824532D01*
X93307658Y-86813098D01*
X93352993Y-86808633D01*
X94439671Y-86808633D01*
X94485006Y-86813098D01*
G37*
G36*
X117820338Y-86813098D02*
G01*
X117858031Y-86824532D01*
X117892767Y-86843099D01*
X117923212Y-86868085D01*
X117948198Y-86898530D01*
X117966765Y-86933266D01*
X117978199Y-86970959D01*
X117982664Y-87016294D01*
X117982664Y-87852972D01*
X117978199Y-87898307D01*
X117966765Y-87936000D01*
X117948198Y-87970736D01*
X117923212Y-88001181D01*
X117892767Y-88026167D01*
X117858031Y-88044734D01*
X117820338Y-88056168D01*
X117775003Y-88060633D01*
X116688325Y-88060633D01*
X116642990Y-88056168D01*
X116605297Y-88044734D01*
X116570561Y-88026167D01*
X116540116Y-88001181D01*
X116515130Y-87970736D01*
X116496563Y-87936000D01*
X116485129Y-87898307D01*
X116480664Y-87852972D01*
X116480664Y-87016294D01*
X116485129Y-86970959D01*
X116496563Y-86933266D01*
X116515130Y-86898530D01*
X116540116Y-86868085D01*
X116570561Y-86843099D01*
X116605297Y-86824532D01*
X116642990Y-86813098D01*
X116688325Y-86808633D01*
X117775003Y-86808633D01*
X117820338Y-86813098D01*
G37*
G36*
X141153674Y-86813098D02*
G01*
X141191367Y-86824532D01*
X141226103Y-86843099D01*
X141256548Y-86868085D01*
X141281534Y-86898530D01*
X141300101Y-86933266D01*
X141311535Y-86970959D01*
X141316000Y-87016294D01*
X141316000Y-87852972D01*
X141311535Y-87898307D01*
X141300101Y-87936000D01*
X141281534Y-87970736D01*
X141256548Y-88001181D01*
X141226103Y-88026167D01*
X141191367Y-88044734D01*
X141153674Y-88056168D01*
X141108339Y-88060633D01*
X140021661Y-88060633D01*
X139976326Y-88056168D01*
X139938633Y-88044734D01*
X139903897Y-88026167D01*
X139873452Y-88001181D01*
X139848466Y-87970736D01*
X139829899Y-87936000D01*
X139818465Y-87898307D01*
X139814000Y-87852972D01*
X139814000Y-87016294D01*
X139818465Y-86970959D01*
X139829899Y-86933266D01*
X139848466Y-86898530D01*
X139873452Y-86868085D01*
X139903897Y-86843099D01*
X139938633Y-86824532D01*
X139976326Y-86813098D01*
X140021661Y-86808633D01*
X141108339Y-86808633D01*
X141153674Y-86813098D01*
G37*
G36*
X78600000Y-87801000D02*
G01*
X76798000Y-87801000D01*
X76798000Y-86399000D01*
X78600000Y-86399000D01*
X78600000Y-87801000D01*
G37*
G36*
X148602000Y-87801000D02*
G01*
X146800000Y-87801000D01*
X146800000Y-86399000D01*
X148602000Y-86399000D01*
X148602000Y-87801000D01*
G37*
G36*
X101933332Y-87801000D02*
G01*
X100131332Y-87801000D01*
X100131332Y-86399000D01*
X101933332Y-86399000D01*
X101933332Y-87801000D01*
G37*
G36*
X125268664Y-87801000D02*
G01*
X123466664Y-87801000D01*
X123466664Y-86399000D01*
X125268664Y-86399000D01*
X125268664Y-87801000D01*
G37*
G36*
X80862674Y-85503465D02*
G01*
X80900367Y-85514899D01*
X80935103Y-85533466D01*
X80965548Y-85558452D01*
X80990534Y-85588897D01*
X81009101Y-85623633D01*
X81020535Y-85661326D01*
X81025000Y-85706661D01*
X81025000Y-86793339D01*
X81020535Y-86838674D01*
X81009101Y-86876367D01*
X80990534Y-86911103D01*
X80965548Y-86941548D01*
X80935103Y-86966534D01*
X80900367Y-86985101D01*
X80862674Y-86996535D01*
X80817339Y-87001000D01*
X79980661Y-87001000D01*
X79935326Y-86996535D01*
X79897633Y-86985101D01*
X79862897Y-86966534D01*
X79832452Y-86941548D01*
X79807466Y-86911103D01*
X79788899Y-86876367D01*
X79777465Y-86838674D01*
X79773000Y-86793339D01*
X79773000Y-85706661D01*
X79777465Y-85661326D01*
X79788899Y-85623633D01*
X79807466Y-85588897D01*
X79832452Y-85558452D01*
X79862897Y-85533466D01*
X79897633Y-85514899D01*
X79935326Y-85503465D01*
X79980661Y-85499000D01*
X80817339Y-85499000D01*
X80862674Y-85503465D01*
G37*
G36*
X82912674Y-85503465D02*
G01*
X82950367Y-85514899D01*
X82985103Y-85533466D01*
X83015548Y-85558452D01*
X83040534Y-85588897D01*
X83059101Y-85623633D01*
X83070535Y-85661326D01*
X83075000Y-85706661D01*
X83075000Y-86793339D01*
X83070535Y-86838674D01*
X83059101Y-86876367D01*
X83040534Y-86911103D01*
X83015548Y-86941548D01*
X82985103Y-86966534D01*
X82950367Y-86985101D01*
X82912674Y-86996535D01*
X82867339Y-87001000D01*
X82030661Y-87001000D01*
X81985326Y-86996535D01*
X81947633Y-86985101D01*
X81912897Y-86966534D01*
X81882452Y-86941548D01*
X81857466Y-86911103D01*
X81838899Y-86876367D01*
X81827465Y-86838674D01*
X81823000Y-86793339D01*
X81823000Y-85706661D01*
X81827465Y-85661326D01*
X81838899Y-85623633D01*
X81857466Y-85588897D01*
X81882452Y-85558452D01*
X81912897Y-85533466D01*
X81947633Y-85514899D01*
X81985326Y-85503465D01*
X82030661Y-85499000D01*
X82867339Y-85499000D01*
X82912674Y-85503465D01*
G37*
G36*
X106246006Y-85503465D02*
G01*
X106283699Y-85514899D01*
X106318435Y-85533466D01*
X106348880Y-85558452D01*
X106373866Y-85588897D01*
X106392433Y-85623633D01*
X106403867Y-85661326D01*
X106408332Y-85706661D01*
X106408332Y-86793339D01*
X106403867Y-86838674D01*
X106392433Y-86876367D01*
X106373866Y-86911103D01*
X106348880Y-86941548D01*
X106318435Y-86966534D01*
X106283699Y-86985101D01*
X106246006Y-86996535D01*
X106200671Y-87001000D01*
X105363993Y-87001000D01*
X105318658Y-86996535D01*
X105280965Y-86985101D01*
X105246229Y-86966534D01*
X105215784Y-86941548D01*
X105190798Y-86911103D01*
X105172231Y-86876367D01*
X105160797Y-86838674D01*
X105156332Y-86793339D01*
X105156332Y-85706661D01*
X105160797Y-85661326D01*
X105172231Y-85623633D01*
X105190798Y-85588897D01*
X105215784Y-85558452D01*
X105246229Y-85533466D01*
X105280965Y-85514899D01*
X105318658Y-85503465D01*
X105363993Y-85499000D01*
X106200671Y-85499000D01*
X106246006Y-85503465D01*
G37*
G36*
X104196006Y-85503465D02*
G01*
X104233699Y-85514899D01*
X104268435Y-85533466D01*
X104298880Y-85558452D01*
X104323866Y-85588897D01*
X104342433Y-85623633D01*
X104353867Y-85661326D01*
X104358332Y-85706661D01*
X104358332Y-86793339D01*
X104353867Y-86838674D01*
X104342433Y-86876367D01*
X104323866Y-86911103D01*
X104298880Y-86941548D01*
X104268435Y-86966534D01*
X104233699Y-86985101D01*
X104196006Y-86996535D01*
X104150671Y-87001000D01*
X103313993Y-87001000D01*
X103268658Y-86996535D01*
X103230965Y-86985101D01*
X103196229Y-86966534D01*
X103165784Y-86941548D01*
X103140798Y-86911103D01*
X103122231Y-86876367D01*
X103110797Y-86838674D01*
X103106332Y-86793339D01*
X103106332Y-85706661D01*
X103110797Y-85661326D01*
X103122231Y-85623633D01*
X103140798Y-85588897D01*
X103165784Y-85558452D01*
X103196229Y-85533466D01*
X103230965Y-85514899D01*
X103268658Y-85503465D01*
X103313993Y-85499000D01*
X104150671Y-85499000D01*
X104196006Y-85503465D01*
G37*
G36*
X129581338Y-85503465D02*
G01*
X129619031Y-85514899D01*
X129653767Y-85533466D01*
X129684212Y-85558452D01*
X129709198Y-85588897D01*
X129727765Y-85623633D01*
X129739199Y-85661326D01*
X129743664Y-85706661D01*
X129743664Y-86793339D01*
X129739199Y-86838674D01*
X129727765Y-86876367D01*
X129709198Y-86911103D01*
X129684212Y-86941548D01*
X129653767Y-86966534D01*
X129619031Y-86985101D01*
X129581338Y-86996535D01*
X129536003Y-87001000D01*
X128699325Y-87001000D01*
X128653990Y-86996535D01*
X128616297Y-86985101D01*
X128581561Y-86966534D01*
X128551116Y-86941548D01*
X128526130Y-86911103D01*
X128507563Y-86876367D01*
X128496129Y-86838674D01*
X128491664Y-86793339D01*
X128491664Y-85706661D01*
X128496129Y-85661326D01*
X128507563Y-85623633D01*
X128526130Y-85588897D01*
X128551116Y-85558452D01*
X128581561Y-85533466D01*
X128616297Y-85514899D01*
X128653990Y-85503465D01*
X128699325Y-85499000D01*
X129536003Y-85499000D01*
X129581338Y-85503465D01*
G37*
G36*
X127531338Y-85503465D02*
G01*
X127569031Y-85514899D01*
X127603767Y-85533466D01*
X127634212Y-85558452D01*
X127659198Y-85588897D01*
X127677765Y-85623633D01*
X127689199Y-85661326D01*
X127693664Y-85706661D01*
X127693664Y-86793339D01*
X127689199Y-86838674D01*
X127677765Y-86876367D01*
X127659198Y-86911103D01*
X127634212Y-86941548D01*
X127603767Y-86966534D01*
X127569031Y-86985101D01*
X127531338Y-86996535D01*
X127486003Y-87001000D01*
X126649325Y-87001000D01*
X126603990Y-86996535D01*
X126566297Y-86985101D01*
X126531561Y-86966534D01*
X126501116Y-86941548D01*
X126476130Y-86911103D01*
X126457563Y-86876367D01*
X126446129Y-86838674D01*
X126441664Y-86793339D01*
X126441664Y-85706661D01*
X126446129Y-85661326D01*
X126457563Y-85623633D01*
X126476130Y-85588897D01*
X126501116Y-85558452D01*
X126531561Y-85533466D01*
X126566297Y-85514899D01*
X126603990Y-85503465D01*
X126649325Y-85499000D01*
X127486003Y-85499000D01*
X127531338Y-85503465D01*
G37*
G36*
X150864674Y-85503465D02*
G01*
X150902367Y-85514899D01*
X150937103Y-85533466D01*
X150967548Y-85558452D01*
X150992534Y-85588897D01*
X151011101Y-85623633D01*
X151022535Y-85661326D01*
X151027000Y-85706661D01*
X151027000Y-86793339D01*
X151022535Y-86838674D01*
X151011101Y-86876367D01*
X150992534Y-86911103D01*
X150967548Y-86941548D01*
X150937103Y-86966534D01*
X150902367Y-86985101D01*
X150864674Y-86996535D01*
X150819339Y-87001000D01*
X149982661Y-87001000D01*
X149937326Y-86996535D01*
X149899633Y-86985101D01*
X149864897Y-86966534D01*
X149834452Y-86941548D01*
X149809466Y-86911103D01*
X149790899Y-86876367D01*
X149779465Y-86838674D01*
X149775000Y-86793339D01*
X149775000Y-85706661D01*
X149779465Y-85661326D01*
X149790899Y-85623633D01*
X149809466Y-85588897D01*
X149834452Y-85558452D01*
X149864897Y-85533466D01*
X149899633Y-85514899D01*
X149937326Y-85503465D01*
X149982661Y-85499000D01*
X150819339Y-85499000D01*
X150864674Y-85503465D01*
G37*
G36*
X152914674Y-85503465D02*
G01*
X152952367Y-85514899D01*
X152987103Y-85533466D01*
X153017548Y-85558452D01*
X153042534Y-85588897D01*
X153061101Y-85623633D01*
X153072535Y-85661326D01*
X153077000Y-85706661D01*
X153077000Y-86793339D01*
X153072535Y-86838674D01*
X153061101Y-86876367D01*
X153042534Y-86911103D01*
X153017548Y-86941548D01*
X152987103Y-86966534D01*
X152952367Y-86985101D01*
X152914674Y-86996535D01*
X152869339Y-87001000D01*
X152032661Y-87001000D01*
X151987326Y-86996535D01*
X151949633Y-86985101D01*
X151914897Y-86966534D01*
X151884452Y-86941548D01*
X151859466Y-86911103D01*
X151840899Y-86876367D01*
X151829465Y-86838674D01*
X151825000Y-86793339D01*
X151825000Y-85706661D01*
X151829465Y-85661326D01*
X151840899Y-85623633D01*
X151859466Y-85588897D01*
X151884452Y-85558452D01*
X151914897Y-85533466D01*
X151949633Y-85514899D01*
X151987326Y-85503465D01*
X152032661Y-85499000D01*
X152869339Y-85499000D01*
X152914674Y-85503465D01*
G37*
G36*
X96828006Y-84638098D02*
G01*
X96865699Y-84649532D01*
X96900435Y-84668099D01*
X96930880Y-84693085D01*
X96955866Y-84723530D01*
X96974433Y-84758266D01*
X96985867Y-84795959D01*
X96990332Y-84841294D01*
X96990332Y-85927972D01*
X96985867Y-85973307D01*
X96974433Y-86011000D01*
X96955866Y-86045736D01*
X96930880Y-86076181D01*
X96900435Y-86101167D01*
X96865699Y-86119734D01*
X96828006Y-86131168D01*
X96782671Y-86135633D01*
X95945993Y-86135633D01*
X95900658Y-86131168D01*
X95862965Y-86119734D01*
X95828229Y-86101167D01*
X95797784Y-86076181D01*
X95772798Y-86045736D01*
X95754231Y-86011000D01*
X95742797Y-85973307D01*
X95738332Y-85927972D01*
X95738332Y-84841294D01*
X95742797Y-84795959D01*
X95754231Y-84758266D01*
X95772798Y-84723530D01*
X95797784Y-84693085D01*
X95828229Y-84668099D01*
X95862965Y-84649532D01*
X95900658Y-84638098D01*
X95945993Y-84633633D01*
X96782671Y-84633633D01*
X96828006Y-84638098D01*
G37*
G36*
X75525355Y-84638098D02*
G01*
X75563048Y-84649532D01*
X75597784Y-84668099D01*
X75628229Y-84693085D01*
X75653215Y-84723530D01*
X75671782Y-84758266D01*
X75683216Y-84795959D01*
X75687681Y-84841294D01*
X75687681Y-85927972D01*
X75683216Y-85973307D01*
X75671782Y-86011000D01*
X75653215Y-86045736D01*
X75628229Y-86076181D01*
X75597784Y-86101167D01*
X75563048Y-86119734D01*
X75525355Y-86131168D01*
X75480020Y-86135633D01*
X74643342Y-86135633D01*
X74598007Y-86131168D01*
X74560314Y-86119734D01*
X74525578Y-86101167D01*
X74495133Y-86076181D01*
X74470147Y-86045736D01*
X74451580Y-86011000D01*
X74440146Y-85973307D01*
X74435681Y-85927972D01*
X74435681Y-84841294D01*
X74440146Y-84795959D01*
X74451580Y-84758266D01*
X74470147Y-84723530D01*
X74495133Y-84693085D01*
X74525578Y-84668099D01*
X74560314Y-84649532D01*
X74598007Y-84638098D01*
X74643342Y-84633633D01*
X75480020Y-84633633D01*
X75525355Y-84638098D01*
G37*
G36*
X73475355Y-84638098D02*
G01*
X73513048Y-84649532D01*
X73547784Y-84668099D01*
X73578229Y-84693085D01*
X73603215Y-84723530D01*
X73621782Y-84758266D01*
X73633216Y-84795959D01*
X73637681Y-84841294D01*
X73637681Y-85927972D01*
X73633216Y-85973307D01*
X73621782Y-86011000D01*
X73603215Y-86045736D01*
X73578229Y-86076181D01*
X73547784Y-86101167D01*
X73513048Y-86119734D01*
X73475355Y-86131168D01*
X73430020Y-86135633D01*
X72593342Y-86135633D01*
X72548007Y-86131168D01*
X72510314Y-86119734D01*
X72475578Y-86101167D01*
X72445133Y-86076181D01*
X72420147Y-86045736D01*
X72401580Y-86011000D01*
X72390146Y-85973307D01*
X72385681Y-85927972D01*
X72385681Y-84841294D01*
X72390146Y-84795959D01*
X72401580Y-84758266D01*
X72420147Y-84723530D01*
X72445133Y-84693085D01*
X72475578Y-84668099D01*
X72510314Y-84649532D01*
X72548007Y-84638098D01*
X72593342Y-84633633D01*
X73430020Y-84633633D01*
X73475355Y-84638098D01*
G37*
G36*
X122213338Y-84638098D02*
G01*
X122251031Y-84649532D01*
X122285767Y-84668099D01*
X122316212Y-84693085D01*
X122341198Y-84723530D01*
X122359765Y-84758266D01*
X122371199Y-84795959D01*
X122375664Y-84841294D01*
X122375664Y-85927972D01*
X122371199Y-85973307D01*
X122359765Y-86011000D01*
X122341198Y-86045736D01*
X122316212Y-86076181D01*
X122285767Y-86101167D01*
X122251031Y-86119734D01*
X122213338Y-86131168D01*
X122168003Y-86135633D01*
X121331325Y-86135633D01*
X121285990Y-86131168D01*
X121248297Y-86119734D01*
X121213561Y-86101167D01*
X121183116Y-86076181D01*
X121158130Y-86045736D01*
X121139563Y-86011000D01*
X121128129Y-85973307D01*
X121123664Y-85927972D01*
X121123664Y-84841294D01*
X121128129Y-84795959D01*
X121139563Y-84758266D01*
X121158130Y-84723530D01*
X121183116Y-84693085D01*
X121213561Y-84668099D01*
X121248297Y-84649532D01*
X121285990Y-84638098D01*
X121331325Y-84633633D01*
X122168003Y-84633633D01*
X122213338Y-84638098D01*
G37*
G36*
X143496674Y-84638098D02*
G01*
X143534367Y-84649532D01*
X143569103Y-84668099D01*
X143599548Y-84693085D01*
X143624534Y-84723530D01*
X143643101Y-84758266D01*
X143654535Y-84795959D01*
X143659000Y-84841294D01*
X143659000Y-85927972D01*
X143654535Y-85973307D01*
X143643101Y-86011000D01*
X143624534Y-86045736D01*
X143599548Y-86076181D01*
X143569103Y-86101167D01*
X143534367Y-86119734D01*
X143496674Y-86131168D01*
X143451339Y-86135633D01*
X142614661Y-86135633D01*
X142569326Y-86131168D01*
X142531633Y-86119734D01*
X142496897Y-86101167D01*
X142466452Y-86076181D01*
X142441466Y-86045736D01*
X142422899Y-86011000D01*
X142411465Y-85973307D01*
X142407000Y-85927972D01*
X142407000Y-84841294D01*
X142411465Y-84795959D01*
X142422899Y-84758266D01*
X142441466Y-84723530D01*
X142466452Y-84693085D01*
X142496897Y-84668099D01*
X142531633Y-84649532D01*
X142569326Y-84638098D01*
X142614661Y-84633633D01*
X143451339Y-84633633D01*
X143496674Y-84638098D01*
G37*
G36*
X120163338Y-84638098D02*
G01*
X120201031Y-84649532D01*
X120235767Y-84668099D01*
X120266212Y-84693085D01*
X120291198Y-84723530D01*
X120309765Y-84758266D01*
X120321199Y-84795959D01*
X120325664Y-84841294D01*
X120325664Y-85927972D01*
X120321199Y-85973307D01*
X120309765Y-86011000D01*
X120291198Y-86045736D01*
X120266212Y-86076181D01*
X120235767Y-86101167D01*
X120201031Y-86119734D01*
X120163338Y-86131168D01*
X120118003Y-86135633D01*
X119281325Y-86135633D01*
X119235990Y-86131168D01*
X119198297Y-86119734D01*
X119163561Y-86101167D01*
X119133116Y-86076181D01*
X119108130Y-86045736D01*
X119089563Y-86011000D01*
X119078129Y-85973307D01*
X119073664Y-85927972D01*
X119073664Y-84841294D01*
X119078129Y-84795959D01*
X119089563Y-84758266D01*
X119108130Y-84723530D01*
X119133116Y-84693085D01*
X119163561Y-84668099D01*
X119198297Y-84649532D01*
X119235990Y-84638098D01*
X119281325Y-84633633D01*
X120118003Y-84633633D01*
X120163338Y-84638098D01*
G37*
G36*
X145546674Y-84638098D02*
G01*
X145584367Y-84649532D01*
X145619103Y-84668099D01*
X145649548Y-84693085D01*
X145674534Y-84723530D01*
X145693101Y-84758266D01*
X145704535Y-84795959D01*
X145709000Y-84841294D01*
X145709000Y-85927972D01*
X145704535Y-85973307D01*
X145693101Y-86011000D01*
X145674534Y-86045736D01*
X145649548Y-86076181D01*
X145619103Y-86101167D01*
X145584367Y-86119734D01*
X145546674Y-86131168D01*
X145501339Y-86135633D01*
X144664661Y-86135633D01*
X144619326Y-86131168D01*
X144581633Y-86119734D01*
X144546897Y-86101167D01*
X144516452Y-86076181D01*
X144491466Y-86045736D01*
X144472899Y-86011000D01*
X144461465Y-85973307D01*
X144457000Y-85927972D01*
X144457000Y-84841294D01*
X144461465Y-84795959D01*
X144472899Y-84758266D01*
X144491466Y-84723530D01*
X144516452Y-84693085D01*
X144546897Y-84668099D01*
X144581633Y-84649532D01*
X144619326Y-84638098D01*
X144664661Y-84633633D01*
X145501339Y-84633633D01*
X145546674Y-84638098D01*
G37*
G36*
X98878006Y-84638098D02*
G01*
X98915699Y-84649532D01*
X98950435Y-84668099D01*
X98980880Y-84693085D01*
X99005866Y-84723530D01*
X99024433Y-84758266D01*
X99035867Y-84795959D01*
X99040332Y-84841294D01*
X99040332Y-85927972D01*
X99035867Y-85973307D01*
X99024433Y-86011000D01*
X99005866Y-86045736D01*
X98980880Y-86076181D01*
X98950435Y-86101167D01*
X98915699Y-86119734D01*
X98878006Y-86131168D01*
X98832671Y-86135633D01*
X97995993Y-86135633D01*
X97950658Y-86131168D01*
X97912965Y-86119734D01*
X97878229Y-86101167D01*
X97847784Y-86076181D01*
X97822798Y-86045736D01*
X97804231Y-86011000D01*
X97792797Y-85973307D01*
X97788332Y-85927972D01*
X97788332Y-84841294D01*
X97792797Y-84795959D01*
X97804231Y-84758266D01*
X97822798Y-84723530D01*
X97847784Y-84693085D01*
X97878229Y-84668099D01*
X97912965Y-84649532D01*
X97950658Y-84638098D01*
X97995993Y-84633633D01*
X98832671Y-84633633D01*
X98878006Y-84638098D01*
G37*
G36*
X141153674Y-84763098D02*
G01*
X141191367Y-84774532D01*
X141226103Y-84793099D01*
X141256548Y-84818085D01*
X141281534Y-84848530D01*
X141300101Y-84883266D01*
X141311535Y-84920959D01*
X141316000Y-84966294D01*
X141316000Y-85802972D01*
X141311535Y-85848307D01*
X141300101Y-85886000D01*
X141281534Y-85920736D01*
X141256548Y-85951181D01*
X141226103Y-85976167D01*
X141191367Y-85994734D01*
X141153674Y-86006168D01*
X141108339Y-86010633D01*
X140021661Y-86010633D01*
X139976326Y-86006168D01*
X139938633Y-85994734D01*
X139903897Y-85976167D01*
X139873452Y-85951181D01*
X139848466Y-85920736D01*
X139829899Y-85886000D01*
X139818465Y-85848307D01*
X139814000Y-85802972D01*
X139814000Y-84966294D01*
X139818465Y-84920959D01*
X139829899Y-84883266D01*
X139848466Y-84848530D01*
X139873452Y-84818085D01*
X139903897Y-84793099D01*
X139938633Y-84774532D01*
X139976326Y-84763098D01*
X140021661Y-84758633D01*
X141108339Y-84758633D01*
X141153674Y-84763098D01*
G37*
G36*
X94485006Y-84763098D02*
G01*
X94522699Y-84774532D01*
X94557435Y-84793099D01*
X94587880Y-84818085D01*
X94612866Y-84848530D01*
X94631433Y-84883266D01*
X94642867Y-84920959D01*
X94647332Y-84966294D01*
X94647332Y-85802972D01*
X94642867Y-85848307D01*
X94631433Y-85886000D01*
X94612866Y-85920736D01*
X94587880Y-85951181D01*
X94557435Y-85976167D01*
X94522699Y-85994734D01*
X94485006Y-86006168D01*
X94439671Y-86010633D01*
X93352993Y-86010633D01*
X93307658Y-86006168D01*
X93269965Y-85994734D01*
X93235229Y-85976167D01*
X93204784Y-85951181D01*
X93179798Y-85920736D01*
X93161231Y-85886000D01*
X93149797Y-85848307D01*
X93145332Y-85802972D01*
X93145332Y-84966294D01*
X93149797Y-84920959D01*
X93161231Y-84883266D01*
X93179798Y-84848530D01*
X93204784Y-84818085D01*
X93235229Y-84793099D01*
X93269965Y-84774532D01*
X93307658Y-84763098D01*
X93352993Y-84758633D01*
X94439671Y-84758633D01*
X94485006Y-84763098D01*
G37*
G36*
X71113037Y-84763098D02*
G01*
X71150730Y-84774532D01*
X71185466Y-84793099D01*
X71215911Y-84818085D01*
X71240897Y-84848530D01*
X71259464Y-84883266D01*
X71270898Y-84920959D01*
X71275363Y-84966294D01*
X71275363Y-85802972D01*
X71270898Y-85848307D01*
X71259464Y-85886000D01*
X71240897Y-85920736D01*
X71215911Y-85951181D01*
X71185466Y-85976167D01*
X71150730Y-85994734D01*
X71113037Y-86006168D01*
X71067702Y-86010633D01*
X69981024Y-86010633D01*
X69935689Y-86006168D01*
X69897996Y-85994734D01*
X69863260Y-85976167D01*
X69832815Y-85951181D01*
X69807829Y-85920736D01*
X69789262Y-85886000D01*
X69777828Y-85848307D01*
X69773363Y-85802972D01*
X69773363Y-84966294D01*
X69777828Y-84920959D01*
X69789262Y-84883266D01*
X69807829Y-84848530D01*
X69832815Y-84818085D01*
X69863260Y-84793099D01*
X69897996Y-84774532D01*
X69935689Y-84763098D01*
X69981024Y-84758633D01*
X71067702Y-84758633D01*
X71113037Y-84763098D01*
G37*
G36*
X117820338Y-84763098D02*
G01*
X117858031Y-84774532D01*
X117892767Y-84793099D01*
X117923212Y-84818085D01*
X117948198Y-84848530D01*
X117966765Y-84883266D01*
X117978199Y-84920959D01*
X117982664Y-84966294D01*
X117982664Y-85802972D01*
X117978199Y-85848307D01*
X117966765Y-85886000D01*
X117948198Y-85920736D01*
X117923212Y-85951181D01*
X117892767Y-85976167D01*
X117858031Y-85994734D01*
X117820338Y-86006168D01*
X117775003Y-86010633D01*
X116688325Y-86010633D01*
X116642990Y-86006168D01*
X116605297Y-85994734D01*
X116570561Y-85976167D01*
X116540116Y-85951181D01*
X116515130Y-85920736D01*
X116496563Y-85886000D01*
X116485129Y-85848307D01*
X116480664Y-85802972D01*
X116480664Y-84966294D01*
X116485129Y-84920959D01*
X116496563Y-84883266D01*
X116515130Y-84848530D01*
X116540116Y-84818085D01*
X116570561Y-84793099D01*
X116605297Y-84774532D01*
X116642990Y-84763098D01*
X116688325Y-84758633D01*
X117775003Y-84758633D01*
X117820338Y-84763098D01*
G37*
G36*
X150864674Y-83003465D02*
G01*
X150902367Y-83014899D01*
X150937103Y-83033466D01*
X150967548Y-83058452D01*
X150992534Y-83088897D01*
X151011101Y-83123633D01*
X151022535Y-83161326D01*
X151027000Y-83206661D01*
X151027000Y-84293339D01*
X151022535Y-84338674D01*
X151011101Y-84376367D01*
X150992534Y-84411103D01*
X150967548Y-84441548D01*
X150937103Y-84466534D01*
X150902367Y-84485101D01*
X150864674Y-84496535D01*
X150819339Y-84501000D01*
X149982661Y-84501000D01*
X149937326Y-84496535D01*
X149899633Y-84485101D01*
X149864897Y-84466534D01*
X149834452Y-84441548D01*
X149809466Y-84411103D01*
X149790899Y-84376367D01*
X149779465Y-84338674D01*
X149775000Y-84293339D01*
X149775000Y-83206661D01*
X149779465Y-83161326D01*
X149790899Y-83123633D01*
X149809466Y-83088897D01*
X149834452Y-83058452D01*
X149864897Y-83033466D01*
X149899633Y-83014899D01*
X149937326Y-83003465D01*
X149982661Y-82999000D01*
X150819339Y-82999000D01*
X150864674Y-83003465D01*
G37*
G36*
X80862674Y-83003465D02*
G01*
X80900367Y-83014899D01*
X80935103Y-83033466D01*
X80965548Y-83058452D01*
X80990534Y-83088897D01*
X81009101Y-83123633D01*
X81020535Y-83161326D01*
X81025000Y-83206661D01*
X81025000Y-84293339D01*
X81020535Y-84338674D01*
X81009101Y-84376367D01*
X80990534Y-84411103D01*
X80965548Y-84441548D01*
X80935103Y-84466534D01*
X80900367Y-84485101D01*
X80862674Y-84496535D01*
X80817339Y-84501000D01*
X79980661Y-84501000D01*
X79935326Y-84496535D01*
X79897633Y-84485101D01*
X79862897Y-84466534D01*
X79832452Y-84441548D01*
X79807466Y-84411103D01*
X79788899Y-84376367D01*
X79777465Y-84338674D01*
X79773000Y-84293339D01*
X79773000Y-83206661D01*
X79777465Y-83161326D01*
X79788899Y-83123633D01*
X79807466Y-83088897D01*
X79832452Y-83058452D01*
X79862897Y-83033466D01*
X79897633Y-83014899D01*
X79935326Y-83003465D01*
X79980661Y-82999000D01*
X80817339Y-82999000D01*
X80862674Y-83003465D01*
G37*
G36*
X82912674Y-83003465D02*
G01*
X82950367Y-83014899D01*
X82985103Y-83033466D01*
X83015548Y-83058452D01*
X83040534Y-83088897D01*
X83059101Y-83123633D01*
X83070535Y-83161326D01*
X83075000Y-83206661D01*
X83075000Y-84293339D01*
X83070535Y-84338674D01*
X83059101Y-84376367D01*
X83040534Y-84411103D01*
X83015548Y-84441548D01*
X82985103Y-84466534D01*
X82950367Y-84485101D01*
X82912674Y-84496535D01*
X82867339Y-84501000D01*
X82030661Y-84501000D01*
X81985326Y-84496535D01*
X81947633Y-84485101D01*
X81912897Y-84466534D01*
X81882452Y-84441548D01*
X81857466Y-84411103D01*
X81838899Y-84376367D01*
X81827465Y-84338674D01*
X81823000Y-84293339D01*
X81823000Y-83206661D01*
X81827465Y-83161326D01*
X81838899Y-83123633D01*
X81857466Y-83088897D01*
X81882452Y-83058452D01*
X81912897Y-83033466D01*
X81947633Y-83014899D01*
X81985326Y-83003465D01*
X82030661Y-82999000D01*
X82867339Y-82999000D01*
X82912674Y-83003465D01*
G37*
G36*
X152914674Y-83003465D02*
G01*
X152952367Y-83014899D01*
X152987103Y-83033466D01*
X153017548Y-83058452D01*
X153042534Y-83088897D01*
X153061101Y-83123633D01*
X153072535Y-83161326D01*
X153077000Y-83206661D01*
X153077000Y-84293339D01*
X153072535Y-84338674D01*
X153061101Y-84376367D01*
X153042534Y-84411103D01*
X153017548Y-84441548D01*
X152987103Y-84466534D01*
X152952367Y-84485101D01*
X152914674Y-84496535D01*
X152869339Y-84501000D01*
X152032661Y-84501000D01*
X151987326Y-84496535D01*
X151949633Y-84485101D01*
X151914897Y-84466534D01*
X151884452Y-84441548D01*
X151859466Y-84411103D01*
X151840899Y-84376367D01*
X151829465Y-84338674D01*
X151825000Y-84293339D01*
X151825000Y-83206661D01*
X151829465Y-83161326D01*
X151840899Y-83123633D01*
X151859466Y-83088897D01*
X151884452Y-83058452D01*
X151914897Y-83033466D01*
X151949633Y-83014899D01*
X151987326Y-83003465D01*
X152032661Y-82999000D01*
X152869339Y-82999000D01*
X152914674Y-83003465D01*
G37*
G36*
X104196006Y-83003465D02*
G01*
X104233699Y-83014899D01*
X104268435Y-83033466D01*
X104298880Y-83058452D01*
X104323866Y-83088897D01*
X104342433Y-83123633D01*
X104353867Y-83161326D01*
X104358332Y-83206661D01*
X104358332Y-84293339D01*
X104353867Y-84338674D01*
X104342433Y-84376367D01*
X104323866Y-84411103D01*
X104298880Y-84441548D01*
X104268435Y-84466534D01*
X104233699Y-84485101D01*
X104196006Y-84496535D01*
X104150671Y-84501000D01*
X103313993Y-84501000D01*
X103268658Y-84496535D01*
X103230965Y-84485101D01*
X103196229Y-84466534D01*
X103165784Y-84441548D01*
X103140798Y-84411103D01*
X103122231Y-84376367D01*
X103110797Y-84338674D01*
X103106332Y-84293339D01*
X103106332Y-83206661D01*
X103110797Y-83161326D01*
X103122231Y-83123633D01*
X103140798Y-83088897D01*
X103165784Y-83058452D01*
X103196229Y-83033466D01*
X103230965Y-83014899D01*
X103268658Y-83003465D01*
X103313993Y-82999000D01*
X104150671Y-82999000D01*
X104196006Y-83003465D01*
G37*
G36*
X106246006Y-83003465D02*
G01*
X106283699Y-83014899D01*
X106318435Y-83033466D01*
X106348880Y-83058452D01*
X106373866Y-83088897D01*
X106392433Y-83123633D01*
X106403867Y-83161326D01*
X106408332Y-83206661D01*
X106408332Y-84293339D01*
X106403867Y-84338674D01*
X106392433Y-84376367D01*
X106373866Y-84411103D01*
X106348880Y-84441548D01*
X106318435Y-84466534D01*
X106283699Y-84485101D01*
X106246006Y-84496535D01*
X106200671Y-84501000D01*
X105363993Y-84501000D01*
X105318658Y-84496535D01*
X105280965Y-84485101D01*
X105246229Y-84466534D01*
X105215784Y-84441548D01*
X105190798Y-84411103D01*
X105172231Y-84376367D01*
X105160797Y-84338674D01*
X105156332Y-84293339D01*
X105156332Y-83206661D01*
X105160797Y-83161326D01*
X105172231Y-83123633D01*
X105190798Y-83088897D01*
X105215784Y-83058452D01*
X105246229Y-83033466D01*
X105280965Y-83014899D01*
X105318658Y-83003465D01*
X105363993Y-82999000D01*
X106200671Y-82999000D01*
X106246006Y-83003465D01*
G37*
G36*
X129581338Y-83003465D02*
G01*
X129619031Y-83014899D01*
X129653767Y-83033466D01*
X129684212Y-83058452D01*
X129709198Y-83088897D01*
X129727765Y-83123633D01*
X129739199Y-83161326D01*
X129743664Y-83206661D01*
X129743664Y-84293339D01*
X129739199Y-84338674D01*
X129727765Y-84376367D01*
X129709198Y-84411103D01*
X129684212Y-84441548D01*
X129653767Y-84466534D01*
X129619031Y-84485101D01*
X129581338Y-84496535D01*
X129536003Y-84501000D01*
X128699325Y-84501000D01*
X128653990Y-84496535D01*
X128616297Y-84485101D01*
X128581561Y-84466534D01*
X128551116Y-84441548D01*
X128526130Y-84411103D01*
X128507563Y-84376367D01*
X128496129Y-84338674D01*
X128491664Y-84293339D01*
X128491664Y-83206661D01*
X128496129Y-83161326D01*
X128507563Y-83123633D01*
X128526130Y-83088897D01*
X128551116Y-83058452D01*
X128581561Y-83033466D01*
X128616297Y-83014899D01*
X128653990Y-83003465D01*
X128699325Y-82999000D01*
X129536003Y-82999000D01*
X129581338Y-83003465D01*
G37*
G36*
X127531338Y-83003465D02*
G01*
X127569031Y-83014899D01*
X127603767Y-83033466D01*
X127634212Y-83058452D01*
X127659198Y-83088897D01*
X127677765Y-83123633D01*
X127689199Y-83161326D01*
X127693664Y-83206661D01*
X127693664Y-84293339D01*
X127689199Y-84338674D01*
X127677765Y-84376367D01*
X127659198Y-84411103D01*
X127634212Y-84441548D01*
X127603767Y-84466534D01*
X127569031Y-84485101D01*
X127531338Y-84496535D01*
X127486003Y-84501000D01*
X126649325Y-84501000D01*
X126603990Y-84496535D01*
X126566297Y-84485101D01*
X126531561Y-84466534D01*
X126501116Y-84441548D01*
X126476130Y-84411103D01*
X126457563Y-84376367D01*
X126446129Y-84338674D01*
X126441664Y-84293339D01*
X126441664Y-83206661D01*
X126446129Y-83161326D01*
X126457563Y-83123633D01*
X126476130Y-83088897D01*
X126501116Y-83058452D01*
X126531561Y-83033466D01*
X126566297Y-83014899D01*
X126603990Y-83003465D01*
X126649325Y-82999000D01*
X127486003Y-82999000D01*
X127531338Y-83003465D01*
G37*
G36*
X141153674Y-82232465D02*
G01*
X141191367Y-82243899D01*
X141226103Y-82262466D01*
X141256548Y-82287452D01*
X141281534Y-82317897D01*
X141300101Y-82352633D01*
X141311535Y-82390326D01*
X141316000Y-82435661D01*
X141316000Y-83272339D01*
X141311535Y-83317674D01*
X141300101Y-83355367D01*
X141281534Y-83390103D01*
X141256548Y-83420548D01*
X141226103Y-83445534D01*
X141191367Y-83464101D01*
X141153674Y-83475535D01*
X141108339Y-83480000D01*
X140021661Y-83480000D01*
X139976326Y-83475535D01*
X139938633Y-83464101D01*
X139903897Y-83445534D01*
X139873452Y-83420548D01*
X139848466Y-83390103D01*
X139829899Y-83355367D01*
X139818465Y-83317674D01*
X139814000Y-83272339D01*
X139814000Y-82435661D01*
X139818465Y-82390326D01*
X139829899Y-82352633D01*
X139848466Y-82317897D01*
X139873452Y-82287452D01*
X139903897Y-82262466D01*
X139938633Y-82243899D01*
X139976326Y-82232465D01*
X140021661Y-82228000D01*
X141108339Y-82228000D01*
X141153674Y-82232465D01*
G37*
G36*
X117820338Y-82232465D02*
G01*
X117858031Y-82243899D01*
X117892767Y-82262466D01*
X117923212Y-82287452D01*
X117948198Y-82317897D01*
X117966765Y-82352633D01*
X117978199Y-82390326D01*
X117982664Y-82435661D01*
X117982664Y-83272339D01*
X117978199Y-83317674D01*
X117966765Y-83355367D01*
X117948198Y-83390103D01*
X117923212Y-83420548D01*
X117892767Y-83445534D01*
X117858031Y-83464101D01*
X117820338Y-83475535D01*
X117775003Y-83480000D01*
X116688325Y-83480000D01*
X116642990Y-83475535D01*
X116605297Y-83464101D01*
X116570561Y-83445534D01*
X116540116Y-83420548D01*
X116515130Y-83390103D01*
X116496563Y-83355367D01*
X116485129Y-83317674D01*
X116480664Y-83272339D01*
X116480664Y-82435661D01*
X116485129Y-82390326D01*
X116496563Y-82352633D01*
X116515130Y-82317897D01*
X116540116Y-82287452D01*
X116570561Y-82262466D01*
X116605297Y-82243899D01*
X116642990Y-82232465D01*
X116688325Y-82228000D01*
X117775003Y-82228000D01*
X117820338Y-82232465D01*
G37*
G36*
X94485006Y-82232465D02*
G01*
X94522699Y-82243899D01*
X94557435Y-82262466D01*
X94587880Y-82287452D01*
X94612866Y-82317897D01*
X94631433Y-82352633D01*
X94642867Y-82390326D01*
X94647332Y-82435661D01*
X94647332Y-83272339D01*
X94642867Y-83317674D01*
X94631433Y-83355367D01*
X94612866Y-83390103D01*
X94587880Y-83420548D01*
X94557435Y-83445534D01*
X94522699Y-83464101D01*
X94485006Y-83475535D01*
X94439671Y-83480000D01*
X93352993Y-83480000D01*
X93307658Y-83475535D01*
X93269965Y-83464101D01*
X93235229Y-83445534D01*
X93204784Y-83420548D01*
X93179798Y-83390103D01*
X93161231Y-83355367D01*
X93149797Y-83317674D01*
X93145332Y-83272339D01*
X93145332Y-82435661D01*
X93149797Y-82390326D01*
X93161231Y-82352633D01*
X93179798Y-82317897D01*
X93204784Y-82287452D01*
X93235229Y-82262466D01*
X93269965Y-82243899D01*
X93307658Y-82232465D01*
X93352993Y-82228000D01*
X94439671Y-82228000D01*
X94485006Y-82232465D01*
G37*
G36*
X71101674Y-82232465D02*
G01*
X71139367Y-82243899D01*
X71174103Y-82262466D01*
X71204548Y-82287452D01*
X71229534Y-82317897D01*
X71248101Y-82352633D01*
X71259535Y-82390326D01*
X71264000Y-82435661D01*
X71264000Y-83272339D01*
X71259535Y-83317674D01*
X71248101Y-83355367D01*
X71229534Y-83390103D01*
X71204548Y-83420548D01*
X71174103Y-83445534D01*
X71139367Y-83464101D01*
X71101674Y-83475535D01*
X71056339Y-83480000D01*
X69969661Y-83480000D01*
X69924326Y-83475535D01*
X69886633Y-83464101D01*
X69851897Y-83445534D01*
X69821452Y-83420548D01*
X69796466Y-83390103D01*
X69777899Y-83355367D01*
X69766465Y-83317674D01*
X69762000Y-83272339D01*
X69762000Y-82435661D01*
X69766465Y-82390326D01*
X69777899Y-82352633D01*
X69796466Y-82317897D01*
X69821452Y-82287452D01*
X69851897Y-82262466D01*
X69886633Y-82243899D01*
X69924326Y-82232465D01*
X69969661Y-82228000D01*
X71056339Y-82228000D01*
X71101674Y-82232465D01*
G37*
G36*
X151112000Y-81961000D02*
G01*
X149690000Y-81961000D01*
X149690000Y-80539000D01*
X151112000Y-80539000D01*
X151112000Y-81961000D01*
G37*
G36*
X148572000Y-81961000D02*
G01*
X147150000Y-81961000D01*
X147150000Y-80539000D01*
X148572000Y-80539000D01*
X148572000Y-81961000D01*
G37*
G36*
X153652000Y-81961000D02*
G01*
X152230000Y-81961000D01*
X152230000Y-80539000D01*
X153652000Y-80539000D01*
X153652000Y-81961000D01*
G37*
G36*
X156192000Y-81961000D02*
G01*
X154770000Y-81961000D01*
X154770000Y-80539000D01*
X156192000Y-80539000D01*
X156192000Y-81961000D01*
G37*
G36*
X86190000Y-81961000D02*
G01*
X84768000Y-81961000D01*
X84768000Y-80539000D01*
X86190000Y-80539000D01*
X86190000Y-81961000D01*
G37*
G36*
X83650000Y-81961000D02*
G01*
X82228000Y-81961000D01*
X82228000Y-80539000D01*
X83650000Y-80539000D01*
X83650000Y-81961000D01*
G37*
G36*
X81110000Y-81961000D02*
G01*
X79688000Y-81961000D01*
X79688000Y-80539000D01*
X81110000Y-80539000D01*
X81110000Y-81961000D01*
G37*
G36*
X78570000Y-81961000D02*
G01*
X77148000Y-81961000D01*
X77148000Y-80539000D01*
X78570000Y-80539000D01*
X78570000Y-81961000D01*
G37*
G36*
X101903332Y-81961000D02*
G01*
X100481332Y-81961000D01*
X100481332Y-80539000D01*
X101903332Y-80539000D01*
X101903332Y-81961000D01*
G37*
G36*
X106983332Y-81961000D02*
G01*
X105561332Y-81961000D01*
X105561332Y-80539000D01*
X106983332Y-80539000D01*
X106983332Y-81961000D01*
G37*
G36*
X127778664Y-81961000D02*
G01*
X126356664Y-81961000D01*
X126356664Y-80539000D01*
X127778664Y-80539000D01*
X127778664Y-81961000D01*
G37*
G36*
X130318664Y-81961000D02*
G01*
X128896664Y-81961000D01*
X128896664Y-80539000D01*
X130318664Y-80539000D01*
X130318664Y-81961000D01*
G37*
G36*
X109523332Y-81961000D02*
G01*
X108101332Y-81961000D01*
X108101332Y-80539000D01*
X109523332Y-80539000D01*
X109523332Y-81961000D01*
G37*
G36*
X132858664Y-81961000D02*
G01*
X131436664Y-81961000D01*
X131436664Y-80539000D01*
X132858664Y-80539000D01*
X132858664Y-81961000D01*
G37*
G36*
X125238664Y-81961000D02*
G01*
X123816664Y-81961000D01*
X123816664Y-80539000D01*
X125238664Y-80539000D01*
X125238664Y-81961000D01*
G37*
G36*
X104443332Y-81961000D02*
G01*
X103021332Y-81961000D01*
X103021332Y-80539000D01*
X104443332Y-80539000D01*
X104443332Y-81961000D01*
G37*
G36*
X94485006Y-80182465D02*
G01*
X94522699Y-80193899D01*
X94557435Y-80212466D01*
X94587880Y-80237452D01*
X94612866Y-80267897D01*
X94631433Y-80302633D01*
X94642867Y-80340326D01*
X94647332Y-80385661D01*
X94647332Y-81222339D01*
X94642867Y-81267674D01*
X94631433Y-81305367D01*
X94612866Y-81340103D01*
X94587880Y-81370548D01*
X94557435Y-81395534D01*
X94522699Y-81414101D01*
X94485006Y-81425535D01*
X94439671Y-81430000D01*
X93352993Y-81430000D01*
X93307658Y-81425535D01*
X93269965Y-81414101D01*
X93235229Y-81395534D01*
X93204784Y-81370548D01*
X93179798Y-81340103D01*
X93161231Y-81305367D01*
X93149797Y-81267674D01*
X93145332Y-81222339D01*
X93145332Y-80385661D01*
X93149797Y-80340326D01*
X93161231Y-80302633D01*
X93179798Y-80267897D01*
X93204784Y-80237452D01*
X93235229Y-80212466D01*
X93269965Y-80193899D01*
X93307658Y-80182465D01*
X93352993Y-80178000D01*
X94439671Y-80178000D01*
X94485006Y-80182465D01*
G37*
G36*
X141153674Y-80182465D02*
G01*
X141191367Y-80193899D01*
X141226103Y-80212466D01*
X141256548Y-80237452D01*
X141281534Y-80267897D01*
X141300101Y-80302633D01*
X141311535Y-80340326D01*
X141316000Y-80385661D01*
X141316000Y-81222339D01*
X141311535Y-81267674D01*
X141300101Y-81305367D01*
X141281534Y-81340103D01*
X141256548Y-81370548D01*
X141226103Y-81395534D01*
X141191367Y-81414101D01*
X141153674Y-81425535D01*
X141108339Y-81430000D01*
X140021661Y-81430000D01*
X139976326Y-81425535D01*
X139938633Y-81414101D01*
X139903897Y-81395534D01*
X139873452Y-81370548D01*
X139848466Y-81340103D01*
X139829899Y-81305367D01*
X139818465Y-81267674D01*
X139814000Y-81222339D01*
X139814000Y-80385661D01*
X139818465Y-80340326D01*
X139829899Y-80302633D01*
X139848466Y-80267897D01*
X139873452Y-80237452D01*
X139903897Y-80212466D01*
X139938633Y-80193899D01*
X139976326Y-80182465D01*
X140021661Y-80178000D01*
X141108339Y-80178000D01*
X141153674Y-80182465D01*
G37*
G36*
X117820338Y-80182465D02*
G01*
X117858031Y-80193899D01*
X117892767Y-80212466D01*
X117923212Y-80237452D01*
X117948198Y-80267897D01*
X117966765Y-80302633D01*
X117978199Y-80340326D01*
X117982664Y-80385661D01*
X117982664Y-81222339D01*
X117978199Y-81267674D01*
X117966765Y-81305367D01*
X117948198Y-81340103D01*
X117923212Y-81370548D01*
X117892767Y-81395534D01*
X117858031Y-81414101D01*
X117820338Y-81425535D01*
X117775003Y-81430000D01*
X116688325Y-81430000D01*
X116642990Y-81425535D01*
X116605297Y-81414101D01*
X116570561Y-81395534D01*
X116540116Y-81370548D01*
X116515130Y-81340103D01*
X116496563Y-81305367D01*
X116485129Y-81267674D01*
X116480664Y-81222339D01*
X116480664Y-80385661D01*
X116485129Y-80340326D01*
X116496563Y-80302633D01*
X116515130Y-80267897D01*
X116540116Y-80237452D01*
X116570561Y-80212466D01*
X116605297Y-80193899D01*
X116642990Y-80182465D01*
X116688325Y-80178000D01*
X117775003Y-80178000D01*
X117820338Y-80182465D01*
G37*
G36*
X71101674Y-80182465D02*
G01*
X71139367Y-80193899D01*
X71174103Y-80212466D01*
X71204548Y-80237452D01*
X71229534Y-80267897D01*
X71248101Y-80302633D01*
X71259535Y-80340326D01*
X71264000Y-80385661D01*
X71264000Y-81222339D01*
X71259535Y-81267674D01*
X71248101Y-81305367D01*
X71229534Y-81340103D01*
X71204548Y-81370548D01*
X71174103Y-81395534D01*
X71139367Y-81414101D01*
X71101674Y-81425535D01*
X71056339Y-81430000D01*
X69969661Y-81430000D01*
X69924326Y-81425535D01*
X69886633Y-81414101D01*
X69851897Y-81395534D01*
X69821452Y-81370548D01*
X69796466Y-81340103D01*
X69777899Y-81305367D01*
X69766465Y-81267674D01*
X69762000Y-81222339D01*
X69762000Y-80385661D01*
X69766465Y-80340326D01*
X69777899Y-80302633D01*
X69796466Y-80267897D01*
X69821452Y-80237452D01*
X69851897Y-80212466D01*
X69886633Y-80193899D01*
X69924326Y-80182465D01*
X69969661Y-80178000D01*
X71056339Y-80178000D01*
X71101674Y-80182465D01*
G37*
G36*
X158351000Y-79294000D02*
G01*
X156929000Y-79294000D01*
X156929000Y-77872000D01*
X158351000Y-77872000D01*
X158351000Y-79294000D01*
G37*
G36*
X111682332Y-79294000D02*
G01*
X110260332Y-79294000D01*
X110260332Y-77872000D01*
X111682332Y-77872000D01*
X111682332Y-79294000D01*
G37*
G36*
X135017664Y-79294000D02*
G01*
X133595664Y-79294000D01*
X133595664Y-77872000D01*
X135017664Y-77872000D01*
X135017664Y-79294000D01*
G37*
G36*
X88349000Y-79294000D02*
G01*
X86927000Y-79294000D01*
X86927000Y-77872000D01*
X88349000Y-77872000D01*
X88349000Y-79294000D01*
G37*
G36*
X117695338Y-77582465D02*
G01*
X117733031Y-77593899D01*
X117767767Y-77612466D01*
X117798212Y-77637452D01*
X117823198Y-77667897D01*
X117841765Y-77702633D01*
X117853199Y-77740326D01*
X117857664Y-77785661D01*
X117857664Y-78872339D01*
X117853199Y-78917674D01*
X117841765Y-78955367D01*
X117823198Y-78990103D01*
X117798212Y-79020548D01*
X117767767Y-79045534D01*
X117733031Y-79064101D01*
X117695338Y-79075535D01*
X117650003Y-79080000D01*
X116813325Y-79080000D01*
X116767990Y-79075535D01*
X116730297Y-79064101D01*
X116695561Y-79045534D01*
X116665116Y-79020548D01*
X116640130Y-78990103D01*
X116621563Y-78955367D01*
X116610129Y-78917674D01*
X116605664Y-78872339D01*
X116605664Y-77785661D01*
X116610129Y-77740326D01*
X116621563Y-77702633D01*
X116640130Y-77667897D01*
X116665116Y-77637452D01*
X116695561Y-77612466D01*
X116730297Y-77593899D01*
X116767990Y-77582465D01*
X116813325Y-77578000D01*
X117650003Y-77578000D01*
X117695338Y-77582465D01*
G37*
G36*
X96410006Y-77582465D02*
G01*
X96447699Y-77593899D01*
X96482435Y-77612466D01*
X96512880Y-77637452D01*
X96537866Y-77667897D01*
X96556433Y-77702633D01*
X96567867Y-77740326D01*
X96572332Y-77785661D01*
X96572332Y-78872339D01*
X96567867Y-78917674D01*
X96556433Y-78955367D01*
X96537866Y-78990103D01*
X96512880Y-79020548D01*
X96482435Y-79045534D01*
X96447699Y-79064101D01*
X96410006Y-79075535D01*
X96364671Y-79080000D01*
X95527993Y-79080000D01*
X95482658Y-79075535D01*
X95444965Y-79064101D01*
X95410229Y-79045534D01*
X95379784Y-79020548D01*
X95354798Y-78990103D01*
X95336231Y-78955367D01*
X95324797Y-78917674D01*
X95320332Y-78872339D01*
X95320332Y-77785661D01*
X95324797Y-77740326D01*
X95336231Y-77702633D01*
X95354798Y-77667897D01*
X95379784Y-77637452D01*
X95410229Y-77612466D01*
X95444965Y-77593899D01*
X95482658Y-77582465D01*
X95527993Y-77578000D01*
X96364671Y-77578000D01*
X96410006Y-77582465D01*
G37*
G36*
X119745338Y-77582465D02*
G01*
X119783031Y-77593899D01*
X119817767Y-77612466D01*
X119848212Y-77637452D01*
X119873198Y-77667897D01*
X119891765Y-77702633D01*
X119903199Y-77740326D01*
X119907664Y-77785661D01*
X119907664Y-78872339D01*
X119903199Y-78917674D01*
X119891765Y-78955367D01*
X119873198Y-78990103D01*
X119848212Y-79020548D01*
X119817767Y-79045534D01*
X119783031Y-79064101D01*
X119745338Y-79075535D01*
X119700003Y-79080000D01*
X118863325Y-79080000D01*
X118817990Y-79075535D01*
X118780297Y-79064101D01*
X118745561Y-79045534D01*
X118715116Y-79020548D01*
X118690130Y-78990103D01*
X118671563Y-78955367D01*
X118660129Y-78917674D01*
X118655664Y-78872339D01*
X118655664Y-77785661D01*
X118660129Y-77740326D01*
X118671563Y-77702633D01*
X118690130Y-77667897D01*
X118715116Y-77637452D01*
X118745561Y-77612466D01*
X118780297Y-77593899D01*
X118817990Y-77582465D01*
X118863325Y-77578000D01*
X119700003Y-77578000D01*
X119745338Y-77582465D01*
G37*
G36*
X70976674Y-77582465D02*
G01*
X71014367Y-77593899D01*
X71049103Y-77612466D01*
X71079548Y-77637452D01*
X71104534Y-77667897D01*
X71123101Y-77702633D01*
X71134535Y-77740326D01*
X71139000Y-77785661D01*
X71139000Y-78872339D01*
X71134535Y-78917674D01*
X71123101Y-78955367D01*
X71104534Y-78990103D01*
X71079548Y-79020548D01*
X71049103Y-79045534D01*
X71014367Y-79064101D01*
X70976674Y-79075535D01*
X70931339Y-79080000D01*
X70094661Y-79080000D01*
X70049326Y-79075535D01*
X70011633Y-79064101D01*
X69976897Y-79045534D01*
X69946452Y-79020548D01*
X69921466Y-78990103D01*
X69902899Y-78955367D01*
X69891465Y-78917674D01*
X69887000Y-78872339D01*
X69887000Y-77785661D01*
X69891465Y-77740326D01*
X69902899Y-77702633D01*
X69921466Y-77667897D01*
X69946452Y-77637452D01*
X69976897Y-77612466D01*
X70011633Y-77593899D01*
X70049326Y-77582465D01*
X70094661Y-77578000D01*
X70931339Y-77578000D01*
X70976674Y-77582465D01*
G37*
G36*
X143078674Y-77582465D02*
G01*
X143116367Y-77593899D01*
X143151103Y-77612466D01*
X143181548Y-77637452D01*
X143206534Y-77667897D01*
X143225101Y-77702633D01*
X143236535Y-77740326D01*
X143241000Y-77785661D01*
X143241000Y-78872339D01*
X143236535Y-78917674D01*
X143225101Y-78955367D01*
X143206534Y-78990103D01*
X143181548Y-79020548D01*
X143151103Y-79045534D01*
X143116367Y-79064101D01*
X143078674Y-79075535D01*
X143033339Y-79080000D01*
X142196661Y-79080000D01*
X142151326Y-79075535D01*
X142113633Y-79064101D01*
X142078897Y-79045534D01*
X142048452Y-79020548D01*
X142023466Y-78990103D01*
X142004899Y-78955367D01*
X141993465Y-78917674D01*
X141989000Y-78872339D01*
X141989000Y-77785661D01*
X141993465Y-77740326D01*
X142004899Y-77702633D01*
X142023466Y-77667897D01*
X142048452Y-77637452D01*
X142078897Y-77612466D01*
X142113633Y-77593899D01*
X142151326Y-77582465D01*
X142196661Y-77578000D01*
X143033339Y-77578000D01*
X143078674Y-77582465D01*
G37*
G36*
X73026674Y-77582465D02*
G01*
X73064367Y-77593899D01*
X73099103Y-77612466D01*
X73129548Y-77637452D01*
X73154534Y-77667897D01*
X73173101Y-77702633D01*
X73184535Y-77740326D01*
X73189000Y-77785661D01*
X73189000Y-78872339D01*
X73184535Y-78917674D01*
X73173101Y-78955367D01*
X73154534Y-78990103D01*
X73129548Y-79020548D01*
X73099103Y-79045534D01*
X73064367Y-79064101D01*
X73026674Y-79075535D01*
X72981339Y-79080000D01*
X72144661Y-79080000D01*
X72099326Y-79075535D01*
X72061633Y-79064101D01*
X72026897Y-79045534D01*
X71996452Y-79020548D01*
X71971466Y-78990103D01*
X71952899Y-78955367D01*
X71941465Y-78917674D01*
X71937000Y-78872339D01*
X71937000Y-77785661D01*
X71941465Y-77740326D01*
X71952899Y-77702633D01*
X71971466Y-77667897D01*
X71996452Y-77637452D01*
X72026897Y-77612466D01*
X72061633Y-77593899D01*
X72099326Y-77582465D01*
X72144661Y-77578000D01*
X72981339Y-77578000D01*
X73026674Y-77582465D01*
G37*
G36*
X94360006Y-77582465D02*
G01*
X94397699Y-77593899D01*
X94432435Y-77612466D01*
X94462880Y-77637452D01*
X94487866Y-77667897D01*
X94506433Y-77702633D01*
X94517867Y-77740326D01*
X94522332Y-77785661D01*
X94522332Y-78872339D01*
X94517867Y-78917674D01*
X94506433Y-78955367D01*
X94487866Y-78990103D01*
X94462880Y-79020548D01*
X94432435Y-79045534D01*
X94397699Y-79064101D01*
X94360006Y-79075535D01*
X94314671Y-79080000D01*
X93477993Y-79080000D01*
X93432658Y-79075535D01*
X93394965Y-79064101D01*
X93360229Y-79045534D01*
X93329784Y-79020548D01*
X93304798Y-78990103D01*
X93286231Y-78955367D01*
X93274797Y-78917674D01*
X93270332Y-78872339D01*
X93270332Y-77785661D01*
X93274797Y-77740326D01*
X93286231Y-77702633D01*
X93304798Y-77667897D01*
X93329784Y-77637452D01*
X93360229Y-77612466D01*
X93394965Y-77593899D01*
X93432658Y-77582465D01*
X93477993Y-77578000D01*
X94314671Y-77578000D01*
X94360006Y-77582465D01*
G37*
G36*
X141028674Y-77582465D02*
G01*
X141066367Y-77593899D01*
X141101103Y-77612466D01*
X141131548Y-77637452D01*
X141156534Y-77667897D01*
X141175101Y-77702633D01*
X141186535Y-77740326D01*
X141191000Y-77785661D01*
X141191000Y-78872339D01*
X141186535Y-78917674D01*
X141175101Y-78955367D01*
X141156534Y-78990103D01*
X141131548Y-79020548D01*
X141101103Y-79045534D01*
X141066367Y-79064101D01*
X141028674Y-79075535D01*
X140983339Y-79080000D01*
X140146661Y-79080000D01*
X140101326Y-79075535D01*
X140063633Y-79064101D01*
X140028897Y-79045534D01*
X139998452Y-79020548D01*
X139973466Y-78990103D01*
X139954899Y-78955367D01*
X139943465Y-78917674D01*
X139939000Y-78872339D01*
X139939000Y-77785661D01*
X139943465Y-77740326D01*
X139954899Y-77702633D01*
X139973466Y-77667897D01*
X139998452Y-77637452D01*
X140028897Y-77612466D01*
X140063633Y-77593899D01*
X140101326Y-77582465D01*
X140146661Y-77578000D01*
X140983339Y-77578000D01*
X141028674Y-77582465D01*
G37*
G36*
X98982332Y-79040000D02*
G01*
X97560332Y-79040000D01*
X97560332Y-77618000D01*
X98982332Y-77618000D01*
X98982332Y-79040000D01*
G37*
G36*
X122317664Y-79040000D02*
G01*
X120895664Y-79040000D01*
X120895664Y-77618000D01*
X122317664Y-77618000D01*
X122317664Y-79040000D01*
G37*
G36*
X75649000Y-79040000D02*
G01*
X74227000Y-79040000D01*
X74227000Y-77618000D01*
X75649000Y-77618000D01*
X75649000Y-79040000D01*
G37*
G36*
X145651000Y-79040000D02*
G01*
X144229000Y-79040000D01*
X144229000Y-77618000D01*
X145651000Y-77618000D01*
X145651000Y-79040000D01*
G37*
G36*
X135017664Y-76754000D02*
G01*
X133595664Y-76754000D01*
X133595664Y-75332000D01*
X135017664Y-75332000D01*
X135017664Y-76754000D01*
G37*
G36*
X88349000Y-76754000D02*
G01*
X86927000Y-76754000D01*
X86927000Y-75332000D01*
X88349000Y-75332000D01*
X88349000Y-76754000D01*
G37*
G36*
X111682332Y-76754000D02*
G01*
X110260332Y-76754000D01*
X110260332Y-75332000D01*
X111682332Y-75332000D01*
X111682332Y-76754000D01*
G37*
G36*
X158351000Y-76754000D02*
G01*
X156929000Y-76754000D01*
X156929000Y-75332000D01*
X158351000Y-75332000D01*
X158351000Y-76754000D01*
G37*
G36*
X73026674Y-75042465D02*
G01*
X73064367Y-75053899D01*
X73099103Y-75072466D01*
X73129548Y-75097452D01*
X73154534Y-75127897D01*
X73173101Y-75162633D01*
X73184535Y-75200326D01*
X73189000Y-75245661D01*
X73189000Y-76332339D01*
X73184535Y-76377674D01*
X73173101Y-76415367D01*
X73154534Y-76450103D01*
X73129548Y-76480548D01*
X73099103Y-76505534D01*
X73064367Y-76524101D01*
X73026674Y-76535535D01*
X72981339Y-76540000D01*
X72144661Y-76540000D01*
X72099326Y-76535535D01*
X72061633Y-76524101D01*
X72026897Y-76505534D01*
X71996452Y-76480548D01*
X71971466Y-76450103D01*
X71952899Y-76415367D01*
X71941465Y-76377674D01*
X71937000Y-76332339D01*
X71937000Y-75245661D01*
X71941465Y-75200326D01*
X71952899Y-75162633D01*
X71971466Y-75127897D01*
X71996452Y-75097452D01*
X72026897Y-75072466D01*
X72061633Y-75053899D01*
X72099326Y-75042465D01*
X72144661Y-75038000D01*
X72981339Y-75038000D01*
X73026674Y-75042465D01*
G37*
G36*
X70976674Y-75042465D02*
G01*
X71014367Y-75053899D01*
X71049103Y-75072466D01*
X71079548Y-75097452D01*
X71104534Y-75127897D01*
X71123101Y-75162633D01*
X71134535Y-75200326D01*
X71139000Y-75245661D01*
X71139000Y-76332339D01*
X71134535Y-76377674D01*
X71123101Y-76415367D01*
X71104534Y-76450103D01*
X71079548Y-76480548D01*
X71049103Y-76505534D01*
X71014367Y-76524101D01*
X70976674Y-76535535D01*
X70931339Y-76540000D01*
X70094661Y-76540000D01*
X70049326Y-76535535D01*
X70011633Y-76524101D01*
X69976897Y-76505534D01*
X69946452Y-76480548D01*
X69921466Y-76450103D01*
X69902899Y-76415367D01*
X69891465Y-76377674D01*
X69887000Y-76332339D01*
X69887000Y-75245661D01*
X69891465Y-75200326D01*
X69902899Y-75162633D01*
X69921466Y-75127897D01*
X69946452Y-75097452D01*
X69976897Y-75072466D01*
X70011633Y-75053899D01*
X70049326Y-75042465D01*
X70094661Y-75038000D01*
X70931339Y-75038000D01*
X70976674Y-75042465D01*
G37*
G36*
X94360006Y-75042465D02*
G01*
X94397699Y-75053899D01*
X94432435Y-75072466D01*
X94462880Y-75097452D01*
X94487866Y-75127897D01*
X94506433Y-75162633D01*
X94517867Y-75200326D01*
X94522332Y-75245661D01*
X94522332Y-76332339D01*
X94517867Y-76377674D01*
X94506433Y-76415367D01*
X94487866Y-76450103D01*
X94462880Y-76480548D01*
X94432435Y-76505534D01*
X94397699Y-76524101D01*
X94360006Y-76535535D01*
X94314671Y-76540000D01*
X93477993Y-76540000D01*
X93432658Y-76535535D01*
X93394965Y-76524101D01*
X93360229Y-76505534D01*
X93329784Y-76480548D01*
X93304798Y-76450103D01*
X93286231Y-76415367D01*
X93274797Y-76377674D01*
X93270332Y-76332339D01*
X93270332Y-75245661D01*
X93274797Y-75200326D01*
X93286231Y-75162633D01*
X93304798Y-75127897D01*
X93329784Y-75097452D01*
X93360229Y-75072466D01*
X93394965Y-75053899D01*
X93432658Y-75042465D01*
X93477993Y-75038000D01*
X94314671Y-75038000D01*
X94360006Y-75042465D01*
G37*
G36*
X96410006Y-75042465D02*
G01*
X96447699Y-75053899D01*
X96482435Y-75072466D01*
X96512880Y-75097452D01*
X96537866Y-75127897D01*
X96556433Y-75162633D01*
X96567867Y-75200326D01*
X96572332Y-75245661D01*
X96572332Y-76332339D01*
X96567867Y-76377674D01*
X96556433Y-76415367D01*
X96537866Y-76450103D01*
X96512880Y-76480548D01*
X96482435Y-76505534D01*
X96447699Y-76524101D01*
X96410006Y-76535535D01*
X96364671Y-76540000D01*
X95527993Y-76540000D01*
X95482658Y-76535535D01*
X95444965Y-76524101D01*
X95410229Y-76505534D01*
X95379784Y-76480548D01*
X95354798Y-76450103D01*
X95336231Y-76415367D01*
X95324797Y-76377674D01*
X95320332Y-76332339D01*
X95320332Y-75245661D01*
X95324797Y-75200326D01*
X95336231Y-75162633D01*
X95354798Y-75127897D01*
X95379784Y-75097452D01*
X95410229Y-75072466D01*
X95444965Y-75053899D01*
X95482658Y-75042465D01*
X95527993Y-75038000D01*
X96364671Y-75038000D01*
X96410006Y-75042465D01*
G37*
G36*
X117695338Y-75042465D02*
G01*
X117733031Y-75053899D01*
X117767767Y-75072466D01*
X117798212Y-75097452D01*
X117823198Y-75127897D01*
X117841765Y-75162633D01*
X117853199Y-75200326D01*
X117857664Y-75245661D01*
X117857664Y-76332339D01*
X117853199Y-76377674D01*
X117841765Y-76415367D01*
X117823198Y-76450103D01*
X117798212Y-76480548D01*
X117767767Y-76505534D01*
X117733031Y-76524101D01*
X117695338Y-76535535D01*
X117650003Y-76540000D01*
X116813325Y-76540000D01*
X116767990Y-76535535D01*
X116730297Y-76524101D01*
X116695561Y-76505534D01*
X116665116Y-76480548D01*
X116640130Y-76450103D01*
X116621563Y-76415367D01*
X116610129Y-76377674D01*
X116605664Y-76332339D01*
X116605664Y-75245661D01*
X116610129Y-75200326D01*
X116621563Y-75162633D01*
X116640130Y-75127897D01*
X116665116Y-75097452D01*
X116695561Y-75072466D01*
X116730297Y-75053899D01*
X116767990Y-75042465D01*
X116813325Y-75038000D01*
X117650003Y-75038000D01*
X117695338Y-75042465D01*
G37*
G36*
X143078674Y-75042465D02*
G01*
X143116367Y-75053899D01*
X143151103Y-75072466D01*
X143181548Y-75097452D01*
X143206534Y-75127897D01*
X143225101Y-75162633D01*
X143236535Y-75200326D01*
X143241000Y-75245661D01*
X143241000Y-76332339D01*
X143236535Y-76377674D01*
X143225101Y-76415367D01*
X143206534Y-76450103D01*
X143181548Y-76480548D01*
X143151103Y-76505534D01*
X143116367Y-76524101D01*
X143078674Y-76535535D01*
X143033339Y-76540000D01*
X142196661Y-76540000D01*
X142151326Y-76535535D01*
X142113633Y-76524101D01*
X142078897Y-76505534D01*
X142048452Y-76480548D01*
X142023466Y-76450103D01*
X142004899Y-76415367D01*
X141993465Y-76377674D01*
X141989000Y-76332339D01*
X141989000Y-75245661D01*
X141993465Y-75200326D01*
X142004899Y-75162633D01*
X142023466Y-75127897D01*
X142048452Y-75097452D01*
X142078897Y-75072466D01*
X142113633Y-75053899D01*
X142151326Y-75042465D01*
X142196661Y-75038000D01*
X143033339Y-75038000D01*
X143078674Y-75042465D01*
G37*
G36*
X141028674Y-75042465D02*
G01*
X141066367Y-75053899D01*
X141101103Y-75072466D01*
X141131548Y-75097452D01*
X141156534Y-75127897D01*
X141175101Y-75162633D01*
X141186535Y-75200326D01*
X141191000Y-75245661D01*
X141191000Y-76332339D01*
X141186535Y-76377674D01*
X141175101Y-76415367D01*
X141156534Y-76450103D01*
X141131548Y-76480548D01*
X141101103Y-76505534D01*
X141066367Y-76524101D01*
X141028674Y-76535535D01*
X140983339Y-76540000D01*
X140146661Y-76540000D01*
X140101326Y-76535535D01*
X140063633Y-76524101D01*
X140028897Y-76505534D01*
X139998452Y-76480548D01*
X139973466Y-76450103D01*
X139954899Y-76415367D01*
X139943465Y-76377674D01*
X139939000Y-76332339D01*
X139939000Y-75245661D01*
X139943465Y-75200326D01*
X139954899Y-75162633D01*
X139973466Y-75127897D01*
X139998452Y-75097452D01*
X140028897Y-75072466D01*
X140063633Y-75053899D01*
X140101326Y-75042465D01*
X140146661Y-75038000D01*
X140983339Y-75038000D01*
X141028674Y-75042465D01*
G37*
G36*
X119745338Y-75042465D02*
G01*
X119783031Y-75053899D01*
X119817767Y-75072466D01*
X119848212Y-75097452D01*
X119873198Y-75127897D01*
X119891765Y-75162633D01*
X119903199Y-75200326D01*
X119907664Y-75245661D01*
X119907664Y-76332339D01*
X119903199Y-76377674D01*
X119891765Y-76415367D01*
X119873198Y-76450103D01*
X119848212Y-76480548D01*
X119817767Y-76505534D01*
X119783031Y-76524101D01*
X119745338Y-76535535D01*
X119700003Y-76540000D01*
X118863325Y-76540000D01*
X118817990Y-76535535D01*
X118780297Y-76524101D01*
X118745561Y-76505534D01*
X118715116Y-76480548D01*
X118690130Y-76450103D01*
X118671563Y-76415367D01*
X118660129Y-76377674D01*
X118655664Y-76332339D01*
X118655664Y-75245661D01*
X118660129Y-75200326D01*
X118671563Y-75162633D01*
X118690130Y-75127897D01*
X118715116Y-75097452D01*
X118745561Y-75072466D01*
X118780297Y-75053899D01*
X118817990Y-75042465D01*
X118863325Y-75038000D01*
X119700003Y-75038000D01*
X119745338Y-75042465D01*
G37*
G36*
X145651000Y-76500000D02*
G01*
X144229000Y-76500000D01*
X144229000Y-75078000D01*
X145651000Y-75078000D01*
X145651000Y-76500000D01*
G37*
G36*
X98982332Y-76500000D02*
G01*
X97560332Y-76500000D01*
X97560332Y-75078000D01*
X98982332Y-75078000D01*
X98982332Y-76500000D01*
G37*
G36*
X75649000Y-76500000D02*
G01*
X74227000Y-76500000D01*
X74227000Y-75078000D01*
X75649000Y-75078000D01*
X75649000Y-76500000D01*
G37*
G36*
X122317664Y-76500000D02*
G01*
X120895664Y-76500000D01*
X120895664Y-75078000D01*
X122317664Y-75078000D01*
X122317664Y-76500000D01*
G37*
G36*
X158351000Y-74214000D02*
G01*
X156929000Y-74214000D01*
X156929000Y-72792000D01*
X158351000Y-72792000D01*
X158351000Y-74214000D01*
G37*
G36*
X135017664Y-74214000D02*
G01*
X133595664Y-74214000D01*
X133595664Y-72792000D01*
X135017664Y-72792000D01*
X135017664Y-74214000D01*
G37*
G36*
X111682332Y-74214000D02*
G01*
X110260332Y-74214000D01*
X110260332Y-72792000D01*
X111682332Y-72792000D01*
X111682332Y-74214000D01*
G37*
G36*
X88349000Y-74214000D02*
G01*
X86927000Y-74214000D01*
X86927000Y-72792000D01*
X88349000Y-72792000D01*
X88349000Y-74214000D01*
G37*
G36*
X122317664Y-73960000D02*
G01*
X120895664Y-73960000D01*
X120895664Y-72538000D01*
X122317664Y-72538000D01*
X122317664Y-73960000D01*
G37*
G36*
X98982332Y-73960000D02*
G01*
X97560332Y-73960000D01*
X97560332Y-72538000D01*
X98982332Y-72538000D01*
X98982332Y-73960000D01*
G37*
G36*
X75649000Y-73960000D02*
G01*
X74227000Y-73960000D01*
X74227000Y-72538000D01*
X75649000Y-72538000D01*
X75649000Y-73960000D01*
G37*
G36*
X145651000Y-73960000D02*
G01*
X144229000Y-73960000D01*
X144229000Y-72538000D01*
X145651000Y-72538000D01*
X145651000Y-73960000D01*
G37*
G36*
X111682332Y-71674000D02*
G01*
X110260332Y-71674000D01*
X110260332Y-70252000D01*
X111682332Y-70252000D01*
X111682332Y-71674000D01*
G37*
G36*
X158351000Y-71674000D02*
G01*
X156929000Y-71674000D01*
X156929000Y-70252000D01*
X158351000Y-70252000D01*
X158351000Y-71674000D01*
G37*
G36*
X88349000Y-71674000D02*
G01*
X86927000Y-71674000D01*
X86927000Y-70252000D01*
X88349000Y-70252000D01*
X88349000Y-71674000D01*
G37*
G36*
X135017664Y-71674000D02*
G01*
X133595664Y-71674000D01*
X133595664Y-70252000D01*
X135017664Y-70252000D01*
X135017664Y-71674000D01*
G37*
G36*
X145651000Y-71420000D02*
G01*
X144229000Y-71420000D01*
X144229000Y-69998000D01*
X145651000Y-69998000D01*
X145651000Y-71420000D01*
G37*
G36*
X75649000Y-71420000D02*
G01*
X74227000Y-71420000D01*
X74227000Y-69998000D01*
X75649000Y-69998000D01*
X75649000Y-71420000D01*
G37*
G36*
X122317664Y-71420000D02*
G01*
X120895664Y-71420000D01*
X120895664Y-69998000D01*
X122317664Y-69998000D01*
X122317664Y-71420000D01*
G37*
G36*
X98982332Y-71420000D02*
G01*
X97560332Y-71420000D01*
X97560332Y-69998000D01*
X98982332Y-69998000D01*
X98982332Y-71420000D01*
G37*
G36*
X152763000Y-69261000D02*
G01*
X151341000Y-69261000D01*
X151341000Y-67839000D01*
X152763000Y-67839000D01*
X152763000Y-69261000D01*
G37*
G36*
X155303000Y-69261000D02*
G01*
X153881000Y-69261000D01*
X153881000Y-67839000D01*
X155303000Y-67839000D01*
X155303000Y-69261000D01*
G37*
G36*
X80221000Y-69261000D02*
G01*
X78799000Y-69261000D01*
X78799000Y-67839000D01*
X80221000Y-67839000D01*
X80221000Y-69261000D01*
G37*
G36*
X82761000Y-69261000D02*
G01*
X81339000Y-69261000D01*
X81339000Y-67839000D01*
X82761000Y-67839000D01*
X82761000Y-69261000D01*
G37*
G36*
X85301000Y-69261000D02*
G01*
X83879000Y-69261000D01*
X83879000Y-67839000D01*
X85301000Y-67839000D01*
X85301000Y-69261000D01*
G37*
G36*
X101014332Y-69261000D02*
G01*
X99592332Y-69261000D01*
X99592332Y-67839000D01*
X101014332Y-67839000D01*
X101014332Y-69261000D01*
G37*
G36*
X103554332Y-69261000D02*
G01*
X102132332Y-69261000D01*
X102132332Y-67839000D01*
X103554332Y-67839000D01*
X103554332Y-69261000D01*
G37*
G36*
X106094332Y-69261000D02*
G01*
X104672332Y-69261000D01*
X104672332Y-67839000D01*
X106094332Y-67839000D01*
X106094332Y-69261000D01*
G37*
G36*
X124349664Y-69261000D02*
G01*
X122927664Y-69261000D01*
X122927664Y-67839000D01*
X124349664Y-67839000D01*
X124349664Y-69261000D01*
G37*
G36*
X129429664Y-69261000D02*
G01*
X128007664Y-69261000D01*
X128007664Y-67839000D01*
X129429664Y-67839000D01*
X129429664Y-69261000D01*
G37*
G36*
X131969664Y-69261000D02*
G01*
X130547664Y-69261000D01*
X130547664Y-67839000D01*
X131969664Y-67839000D01*
X131969664Y-69261000D01*
G37*
G36*
X150223000Y-69261000D02*
G01*
X148801000Y-69261000D01*
X148801000Y-67839000D01*
X150223000Y-67839000D01*
X150223000Y-69261000D01*
G37*
G36*
X77681000Y-69261000D02*
G01*
X76259000Y-69261000D01*
X76259000Y-67839000D01*
X77681000Y-67839000D01*
X77681000Y-69261000D01*
G37*
G36*
X147683000Y-69261000D02*
G01*
X146261000Y-69261000D01*
X146261000Y-67839000D01*
X147683000Y-67839000D01*
X147683000Y-69261000D01*
G37*
G36*
X108634332Y-69261000D02*
G01*
X107212332Y-69261000D01*
X107212332Y-67839000D01*
X108634332Y-67839000D01*
X108634332Y-69261000D01*
G37*
G36*
X126889664Y-69261000D02*
G01*
X125467664Y-69261000D01*
X125467664Y-67839000D01*
X126889664Y-67839000D01*
X126889664Y-69261000D01*
G37*
G36*
X82513674Y-65303465D02*
G01*
X82551367Y-65314899D01*
X82586103Y-65333466D01*
X82616548Y-65358452D01*
X82641534Y-65388897D01*
X82660101Y-65423633D01*
X82671535Y-65461326D01*
X82676000Y-65506661D01*
X82676000Y-66593339D01*
X82671535Y-66638674D01*
X82660101Y-66676367D01*
X82641534Y-66711103D01*
X82616548Y-66741548D01*
X82586103Y-66766534D01*
X82551367Y-66785101D01*
X82513674Y-66796535D01*
X82468339Y-66801000D01*
X81631661Y-66801000D01*
X81586326Y-66796535D01*
X81548633Y-66785101D01*
X81513897Y-66766534D01*
X81483452Y-66741548D01*
X81458466Y-66711103D01*
X81439899Y-66676367D01*
X81428465Y-66638674D01*
X81424000Y-66593339D01*
X81424000Y-65506661D01*
X81428465Y-65461326D01*
X81439899Y-65423633D01*
X81458466Y-65388897D01*
X81483452Y-65358452D01*
X81513897Y-65333466D01*
X81548633Y-65314899D01*
X81586326Y-65303465D01*
X81631661Y-65299000D01*
X82468339Y-65299000D01*
X82513674Y-65303465D01*
G37*
G36*
X103797006Y-65303465D02*
G01*
X103834699Y-65314899D01*
X103869435Y-65333466D01*
X103899880Y-65358452D01*
X103924866Y-65388897D01*
X103943433Y-65423633D01*
X103954867Y-65461326D01*
X103959332Y-65506661D01*
X103959332Y-66593339D01*
X103954867Y-66638674D01*
X103943433Y-66676367D01*
X103924866Y-66711103D01*
X103899880Y-66741548D01*
X103869435Y-66766534D01*
X103834699Y-66785101D01*
X103797006Y-66796535D01*
X103751671Y-66801000D01*
X102914993Y-66801000D01*
X102869658Y-66796535D01*
X102831965Y-66785101D01*
X102797229Y-66766534D01*
X102766784Y-66741548D01*
X102741798Y-66711103D01*
X102723231Y-66676367D01*
X102711797Y-66638674D01*
X102707332Y-66593339D01*
X102707332Y-65506661D01*
X102711797Y-65461326D01*
X102723231Y-65423633D01*
X102741798Y-65388897D01*
X102766784Y-65358452D01*
X102797229Y-65333466D01*
X102831965Y-65314899D01*
X102869658Y-65303465D01*
X102914993Y-65299000D01*
X103751671Y-65299000D01*
X103797006Y-65303465D01*
G37*
G36*
X80463674Y-65303465D02*
G01*
X80501367Y-65314899D01*
X80536103Y-65333466D01*
X80566548Y-65358452D01*
X80591534Y-65388897D01*
X80610101Y-65423633D01*
X80621535Y-65461326D01*
X80626000Y-65506661D01*
X80626000Y-66593339D01*
X80621535Y-66638674D01*
X80610101Y-66676367D01*
X80591534Y-66711103D01*
X80566548Y-66741548D01*
X80536103Y-66766534D01*
X80501367Y-66785101D01*
X80463674Y-66796535D01*
X80418339Y-66801000D01*
X79581661Y-66801000D01*
X79536326Y-66796535D01*
X79498633Y-66785101D01*
X79463897Y-66766534D01*
X79433452Y-66741548D01*
X79408466Y-66711103D01*
X79389899Y-66676367D01*
X79378465Y-66638674D01*
X79374000Y-66593339D01*
X79374000Y-65506661D01*
X79378465Y-65461326D01*
X79389899Y-65423633D01*
X79408466Y-65388897D01*
X79433452Y-65358452D01*
X79463897Y-65333466D01*
X79498633Y-65314899D01*
X79536326Y-65303465D01*
X79581661Y-65299000D01*
X80418339Y-65299000D01*
X80463674Y-65303465D01*
G37*
G36*
X152515674Y-65303465D02*
G01*
X152553367Y-65314899D01*
X152588103Y-65333466D01*
X152618548Y-65358452D01*
X152643534Y-65388897D01*
X152662101Y-65423633D01*
X152673535Y-65461326D01*
X152678000Y-65506661D01*
X152678000Y-66593339D01*
X152673535Y-66638674D01*
X152662101Y-66676367D01*
X152643534Y-66711103D01*
X152618548Y-66741548D01*
X152588103Y-66766534D01*
X152553367Y-66785101D01*
X152515674Y-66796535D01*
X152470339Y-66801000D01*
X151633661Y-66801000D01*
X151588326Y-66796535D01*
X151550633Y-66785101D01*
X151515897Y-66766534D01*
X151485452Y-66741548D01*
X151460466Y-66711103D01*
X151441899Y-66676367D01*
X151430465Y-66638674D01*
X151426000Y-66593339D01*
X151426000Y-65506661D01*
X151430465Y-65461326D01*
X151441899Y-65423633D01*
X151460466Y-65388897D01*
X151485452Y-65358452D01*
X151515897Y-65333466D01*
X151550633Y-65314899D01*
X151588326Y-65303465D01*
X151633661Y-65299000D01*
X152470339Y-65299000D01*
X152515674Y-65303465D01*
G37*
G36*
X150465674Y-65303465D02*
G01*
X150503367Y-65314899D01*
X150538103Y-65333466D01*
X150568548Y-65358452D01*
X150593534Y-65388897D01*
X150612101Y-65423633D01*
X150623535Y-65461326D01*
X150628000Y-65506661D01*
X150628000Y-66593339D01*
X150623535Y-66638674D01*
X150612101Y-66676367D01*
X150593534Y-66711103D01*
X150568548Y-66741548D01*
X150538103Y-66766534D01*
X150503367Y-66785101D01*
X150465674Y-66796535D01*
X150420339Y-66801000D01*
X149583661Y-66801000D01*
X149538326Y-66796535D01*
X149500633Y-66785101D01*
X149465897Y-66766534D01*
X149435452Y-66741548D01*
X149410466Y-66711103D01*
X149391899Y-66676367D01*
X149380465Y-66638674D01*
X149376000Y-66593339D01*
X149376000Y-65506661D01*
X149380465Y-65461326D01*
X149391899Y-65423633D01*
X149410466Y-65388897D01*
X149435452Y-65358452D01*
X149465897Y-65333466D01*
X149500633Y-65314899D01*
X149538326Y-65303465D01*
X149583661Y-65299000D01*
X150420339Y-65299000D01*
X150465674Y-65303465D01*
G37*
G36*
X129182338Y-65303465D02*
G01*
X129220031Y-65314899D01*
X129254767Y-65333466D01*
X129285212Y-65358452D01*
X129310198Y-65388897D01*
X129328765Y-65423633D01*
X129340199Y-65461326D01*
X129344664Y-65506661D01*
X129344664Y-66593339D01*
X129340199Y-66638674D01*
X129328765Y-66676367D01*
X129310198Y-66711103D01*
X129285212Y-66741548D01*
X129254767Y-66766534D01*
X129220031Y-66785101D01*
X129182338Y-66796535D01*
X129137003Y-66801000D01*
X128300325Y-66801000D01*
X128254990Y-66796535D01*
X128217297Y-66785101D01*
X128182561Y-66766534D01*
X128152116Y-66741548D01*
X128127130Y-66711103D01*
X128108563Y-66676367D01*
X128097129Y-66638674D01*
X128092664Y-66593339D01*
X128092664Y-65506661D01*
X128097129Y-65461326D01*
X128108563Y-65423633D01*
X128127130Y-65388897D01*
X128152116Y-65358452D01*
X128182561Y-65333466D01*
X128217297Y-65314899D01*
X128254990Y-65303465D01*
X128300325Y-65299000D01*
X129137003Y-65299000D01*
X129182338Y-65303465D01*
G37*
G36*
X127132338Y-65303465D02*
G01*
X127170031Y-65314899D01*
X127204767Y-65333466D01*
X127235212Y-65358452D01*
X127260198Y-65388897D01*
X127278765Y-65423633D01*
X127290199Y-65461326D01*
X127294664Y-65506661D01*
X127294664Y-66593339D01*
X127290199Y-66638674D01*
X127278765Y-66676367D01*
X127260198Y-66711103D01*
X127235212Y-66741548D01*
X127204767Y-66766534D01*
X127170031Y-66785101D01*
X127132338Y-66796535D01*
X127087003Y-66801000D01*
X126250325Y-66801000D01*
X126204990Y-66796535D01*
X126167297Y-66785101D01*
X126132561Y-66766534D01*
X126102116Y-66741548D01*
X126077130Y-66711103D01*
X126058563Y-66676367D01*
X126047129Y-66638674D01*
X126042664Y-66593339D01*
X126042664Y-65506661D01*
X126047129Y-65461326D01*
X126058563Y-65423633D01*
X126077130Y-65388897D01*
X126102116Y-65358452D01*
X126132561Y-65333466D01*
X126167297Y-65314899D01*
X126204990Y-65303465D01*
X126250325Y-65299000D01*
X127087003Y-65299000D01*
X127132338Y-65303465D01*
G37*
G36*
X105847006Y-65303465D02*
G01*
X105884699Y-65314899D01*
X105919435Y-65333466D01*
X105949880Y-65358452D01*
X105974866Y-65388897D01*
X105993433Y-65423633D01*
X106004867Y-65461326D01*
X106009332Y-65506661D01*
X106009332Y-66593339D01*
X106004867Y-66638674D01*
X105993433Y-66676367D01*
X105974866Y-66711103D01*
X105949880Y-66741548D01*
X105919435Y-66766534D01*
X105884699Y-66785101D01*
X105847006Y-66796535D01*
X105801671Y-66801000D01*
X104964993Y-66801000D01*
X104919658Y-66796535D01*
X104881965Y-66785101D01*
X104847229Y-66766534D01*
X104816784Y-66741548D01*
X104791798Y-66711103D01*
X104773231Y-66676367D01*
X104761797Y-66638674D01*
X104757332Y-66593339D01*
X104757332Y-65506661D01*
X104761797Y-65461326D01*
X104773231Y-65423633D01*
X104791798Y-65388897D01*
X104816784Y-65358452D01*
X104847229Y-65333466D01*
X104881965Y-65314899D01*
X104919658Y-65303465D01*
X104964993Y-65299000D01*
X105801671Y-65299000D01*
X105847006Y-65303465D01*
G37*
G36*
X127067664Y-64046000D02*
G01*
X126265664Y-64046000D01*
X126265664Y-62644000D01*
X127067664Y-62644000D01*
X127067664Y-64046000D01*
G37*
G36*
X150401000Y-64046000D02*
G01*
X149599000Y-64046000D01*
X149599000Y-62644000D01*
X150401000Y-62644000D01*
X150401000Y-64046000D01*
G37*
G36*
X103734332Y-64046000D02*
G01*
X102932332Y-64046000D01*
X102932332Y-62644000D01*
X103734332Y-62644000D01*
X103734332Y-64046000D01*
G37*
G36*
X80401000Y-64046000D02*
G01*
X79599000Y-64046000D01*
X79599000Y-62644000D01*
X80401000Y-62644000D01*
X80401000Y-64046000D01*
G37*
G36*
X82951000Y-61846000D02*
G01*
X81449000Y-61846000D01*
X81449000Y-60544000D01*
X82951000Y-60544000D01*
X82951000Y-61846000D01*
G37*
G36*
X78551000Y-61846000D02*
G01*
X77049000Y-61846000D01*
X77049000Y-60544000D01*
X78551000Y-60544000D01*
X78551000Y-61846000D01*
G37*
G36*
X148551000Y-61846000D02*
G01*
X147049000Y-61846000D01*
X147049000Y-60544000D01*
X148551000Y-60544000D01*
X148551000Y-61846000D01*
G37*
G36*
X101884332Y-61846000D02*
G01*
X100382332Y-61846000D01*
X100382332Y-60544000D01*
X101884332Y-60544000D01*
X101884332Y-61846000D01*
G37*
G36*
X106284332Y-61846000D02*
G01*
X104782332Y-61846000D01*
X104782332Y-60544000D01*
X106284332Y-60544000D01*
X106284332Y-61846000D01*
G37*
G36*
X152951000Y-61846000D02*
G01*
X151449000Y-61846000D01*
X151449000Y-60544000D01*
X152951000Y-60544000D01*
X152951000Y-61846000D01*
G37*
G36*
X125217664Y-61846000D02*
G01*
X123715664Y-61846000D01*
X123715664Y-60544000D01*
X125217664Y-60544000D01*
X125217664Y-61846000D01*
G37*
G36*
X129617664Y-61846000D02*
G01*
X128115664Y-61846000D01*
X128115664Y-60544000D01*
X129617664Y-60544000D01*
X129617664Y-61846000D01*
G37*
G36*
X103734332Y-59746000D02*
G01*
X102932332Y-59746000D01*
X102932332Y-58344000D01*
X103734332Y-58344000D01*
X103734332Y-59746000D01*
G37*
G36*
X80401000Y-59746000D02*
G01*
X79599000Y-59746000D01*
X79599000Y-58344000D01*
X80401000Y-58344000D01*
X80401000Y-59746000D01*
G37*
G36*
X127067664Y-59746000D02*
G01*
X126265664Y-59746000D01*
X126265664Y-58344000D01*
X127067664Y-58344000D01*
X127067664Y-59746000D01*
G37*
G36*
X150401000Y-59746000D02*
G01*
X149599000Y-59746000D01*
X149599000Y-58344000D01*
X150401000Y-58344000D01*
X150401000Y-59746000D01*
G37*
G36*
X127467664Y-57091000D02*
G01*
X125865664Y-57091000D01*
X125865664Y-51909000D01*
X127467664Y-51909000D01*
X127467664Y-57091000D01*
G37*
G36*
X123217664Y-57091000D02*
G01*
X121615664Y-57091000D01*
X121615664Y-51909000D01*
X123217664Y-51909000D01*
X123217664Y-57091000D01*
G37*
G36*
X96717666Y-57091000D02*
G01*
X95115666Y-57091000D01*
X95115666Y-51909000D01*
X96717666Y-51909000D01*
X96717666Y-57091000D01*
G37*
G36*
X85051000Y-57091000D02*
G01*
X83449000Y-57091000D01*
X83449000Y-51909000D01*
X85051000Y-51909000D01*
X85051000Y-57091000D01*
G37*
G36*
X108384332Y-57091000D02*
G01*
X106782332Y-57091000D01*
X106782332Y-51909000D01*
X108384332Y-51909000D01*
X108384332Y-57091000D01*
G37*
G36*
X99884332Y-57091000D02*
G01*
X98282332Y-57091000D01*
X98282332Y-51909000D01*
X99884332Y-51909000D01*
X99884332Y-57091000D01*
G37*
G36*
X104134332Y-57091000D02*
G01*
X102532332Y-57091000D01*
X102532332Y-51909000D01*
X104134332Y-51909000D01*
X104134332Y-57091000D01*
G37*
G36*
X111550998Y-57091000D02*
G01*
X109948998Y-57091000D01*
X109948998Y-51909000D01*
X111550998Y-51909000D01*
X111550998Y-57091000D01*
G37*
G36*
X88217666Y-57091000D02*
G01*
X86615666Y-57091000D01*
X86615666Y-51909000D01*
X88217666Y-51909000D01*
X88217666Y-57091000D01*
G37*
G36*
X131717664Y-57091000D02*
G01*
X130115664Y-57091000D01*
X130115664Y-51909000D01*
X131717664Y-51909000D01*
X131717664Y-57091000D01*
G37*
G36*
X134884330Y-57091000D02*
G01*
X133282330Y-57091000D01*
X133282330Y-51909000D01*
X134884330Y-51909000D01*
X134884330Y-57091000D01*
G37*
G36*
X143384330Y-57091000D02*
G01*
X141782330Y-57091000D01*
X141782330Y-51909000D01*
X143384330Y-51909000D01*
X143384330Y-57091000D01*
G37*
G36*
X146551000Y-57091000D02*
G01*
X144949000Y-57091000D01*
X144949000Y-51909000D01*
X146551000Y-51909000D01*
X146551000Y-57091000D01*
G37*
G36*
X150801000Y-57091000D02*
G01*
X149199000Y-57091000D01*
X149199000Y-51909000D01*
X150801000Y-51909000D01*
X150801000Y-57091000D01*
G37*
G36*
X80801000Y-57091000D02*
G01*
X79199000Y-57091000D01*
X79199000Y-51909000D01*
X80801000Y-51909000D01*
X80801000Y-57091000D01*
G37*
G36*
X120050998Y-57091000D02*
G01*
X118448998Y-57091000D01*
X118448998Y-51909000D01*
X120050998Y-51909000D01*
X120050998Y-57091000D01*
G37*
M02*
