G04 #@! TF.GenerationSoftware,KiCad,Pcbnew,5.1.6+dfsg1-1~bpo10+1*
G04 #@! TF.CreationDate,2020-10-10T21:46:56-04:00*
G04 #@! TF.ProjectId,hardware,68617264-7761-4726-952e-6b696361645f,1.0.0*
G04 #@! TF.SameCoordinates,Original*
G04 #@! TF.FileFunction,Soldermask,Bot*
G04 #@! TF.FilePolarity,Negative*
%FSLAX46Y46*%
G04 Gerber Fmt 4.6, Leading zero omitted, Abs format (unit mm)*
G04 Created by KiCad (PCBNEW 5.1.6+dfsg1-1~bpo10+1) date 2020-10-10 21:46:56*
%MOMM*%
%LPD*%
G01*
G04 APERTURE LIST*
%ADD10C,0.100000*%
G04 APERTURE END LIST*
D10*
G36*
X145145330Y-78900000D02*
G01*
X137145330Y-78900000D01*
X137145330Y-70900000D01*
X145145330Y-70900000D01*
X145145330Y-78900000D01*
G37*
X145145330Y-78900000D02*
X137145330Y-78900000D01*
X137145330Y-70900000D01*
X145145330Y-70900000D01*
X145145330Y-78900000D01*
G36*
X121811998Y-78900000D02*
G01*
X113811998Y-78900000D01*
X113811998Y-70900000D01*
X121811998Y-70900000D01*
X121811998Y-78900000D01*
G37*
X121811998Y-78900000D02*
X113811998Y-78900000D01*
X113811998Y-70900000D01*
X121811998Y-70900000D01*
X121811998Y-78900000D01*
G36*
X98478666Y-78900000D02*
G01*
X90478666Y-78900000D01*
X90478666Y-70900000D01*
X98478666Y-70900000D01*
X98478666Y-78900000D01*
G37*
X98478666Y-78900000D02*
X90478666Y-78900000D01*
X90478666Y-70900000D01*
X98478666Y-70900000D01*
X98478666Y-78900000D01*
G36*
X154832666Y-127626000D02*
G01*
X153030666Y-127626000D01*
X153030666Y-125824000D01*
X154832666Y-125824000D01*
X154832666Y-127626000D01*
G37*
G36*
X159125178Y-125828927D02*
G01*
X159274478Y-125858624D01*
X159438450Y-125926544D01*
X159586020Y-126025147D01*
X159711519Y-126150646D01*
X159810122Y-126298216D01*
X159878042Y-126462188D01*
X159907739Y-126611488D01*
X159912296Y-126634396D01*
X159912666Y-126636259D01*
X159912666Y-126813741D01*
X159878042Y-126987812D01*
X159810122Y-127151784D01*
X159711519Y-127299354D01*
X159586020Y-127424853D01*
X159438450Y-127523456D01*
X159274478Y-127591376D01*
X159125178Y-127621073D01*
X159100408Y-127626000D01*
X158922924Y-127626000D01*
X158898154Y-127621073D01*
X158748854Y-127591376D01*
X158584882Y-127523456D01*
X158437312Y-127424853D01*
X158311813Y-127299354D01*
X158213210Y-127151784D01*
X158145290Y-126987812D01*
X158110666Y-126813741D01*
X158110666Y-126636259D01*
X158111037Y-126634396D01*
X158115593Y-126611488D01*
X158145290Y-126462188D01*
X158213210Y-126298216D01*
X158311813Y-126150646D01*
X158437312Y-126025147D01*
X158584882Y-125926544D01*
X158748854Y-125858624D01*
X158898154Y-125828927D01*
X158922924Y-125824000D01*
X159100408Y-125824000D01*
X159125178Y-125828927D01*
G37*
G36*
X156585178Y-125828927D02*
G01*
X156734478Y-125858624D01*
X156898450Y-125926544D01*
X157046020Y-126025147D01*
X157171519Y-126150646D01*
X157270122Y-126298216D01*
X157338042Y-126462188D01*
X157367739Y-126611488D01*
X157372296Y-126634396D01*
X157372666Y-126636259D01*
X157372666Y-126813741D01*
X157338042Y-126987812D01*
X157270122Y-127151784D01*
X157171519Y-127299354D01*
X157046020Y-127424853D01*
X156898450Y-127523456D01*
X156734478Y-127591376D01*
X156585178Y-127621073D01*
X156560408Y-127626000D01*
X156382924Y-127626000D01*
X156358154Y-127621073D01*
X156208854Y-127591376D01*
X156044882Y-127523456D01*
X155897312Y-127424853D01*
X155771813Y-127299354D01*
X155673210Y-127151784D01*
X155605290Y-126987812D01*
X155570666Y-126813741D01*
X155570666Y-126636259D01*
X155571037Y-126634396D01*
X155575593Y-126611488D01*
X155605290Y-126462188D01*
X155673210Y-126298216D01*
X155771813Y-126150646D01*
X155897312Y-126025147D01*
X156044882Y-125926544D01*
X156208854Y-125858624D01*
X156358154Y-125828927D01*
X156382924Y-125824000D01*
X156560408Y-125824000D01*
X156585178Y-125828927D01*
G37*
G36*
X73140680Y-127050680D02*
G01*
X70539320Y-127050680D01*
X70539320Y-124449320D01*
X73140680Y-124449320D01*
X73140680Y-127050680D01*
G37*
G36*
X76029393Y-124499304D02*
G01*
X76266101Y-124597352D01*
X76266103Y-124597353D01*
X76479135Y-124739696D01*
X76660304Y-124920865D01*
X76802647Y-125133897D01*
X76802648Y-125133899D01*
X76900696Y-125370607D01*
X76950680Y-125621893D01*
X76950680Y-125878107D01*
X76900696Y-126129393D01*
X76815879Y-126334158D01*
X76802647Y-126366103D01*
X76660304Y-126579135D01*
X76479135Y-126760304D01*
X76266103Y-126902647D01*
X76266102Y-126902648D01*
X76266101Y-126902648D01*
X76029393Y-127000696D01*
X75778107Y-127050680D01*
X75521893Y-127050680D01*
X75270607Y-127000696D01*
X75033899Y-126902648D01*
X75033898Y-126902648D01*
X75033897Y-126902647D01*
X74820865Y-126760304D01*
X74639696Y-126579135D01*
X74497353Y-126366103D01*
X74484121Y-126334158D01*
X74399304Y-126129393D01*
X74349320Y-125878107D01*
X74349320Y-125621893D01*
X74399304Y-125370607D01*
X74497352Y-125133899D01*
X74497353Y-125133897D01*
X74639696Y-124920865D01*
X74820865Y-124739696D01*
X75033897Y-124597353D01*
X75033899Y-124597352D01*
X75270607Y-124499304D01*
X75521893Y-124449320D01*
X75778107Y-124449320D01*
X76029393Y-124499304D01*
G37*
G36*
X98943047Y-124612326D02*
G01*
X99116656Y-124664990D01*
X99116658Y-124664991D01*
X99276655Y-124750511D01*
X99416897Y-124865603D01*
X99496229Y-124962271D01*
X99531989Y-125005844D01*
X99617510Y-125165843D01*
X99670174Y-125339452D01*
X99683500Y-125474756D01*
X99683500Y-126025243D01*
X99670174Y-126160548D01*
X99617510Y-126334157D01*
X99531989Y-126494156D01*
X99496229Y-126537729D01*
X99416897Y-126634397D01*
X99320229Y-126713729D01*
X99276656Y-126749489D01*
X99116657Y-126835010D01*
X98943048Y-126887674D01*
X98762500Y-126905456D01*
X98581953Y-126887674D01*
X98408344Y-126835010D01*
X98248345Y-126749489D01*
X98204772Y-126713729D01*
X98108104Y-126634397D01*
X97993013Y-126494157D01*
X97993012Y-126494155D01*
X97907490Y-126334157D01*
X97854826Y-126160548D01*
X97841500Y-126025244D01*
X97841500Y-125474757D01*
X97854826Y-125339453D01*
X97907490Y-125165844D01*
X97993011Y-125005845D01*
X97993012Y-125005844D01*
X98108103Y-124865603D01*
X98204771Y-124786271D01*
X98248344Y-124750511D01*
X98408343Y-124664990D01*
X98581952Y-124612326D01*
X98762500Y-124594544D01*
X98943047Y-124612326D01*
G37*
G36*
X112665548Y-124612326D02*
G01*
X112839157Y-124664990D01*
X112839159Y-124664991D01*
X112999156Y-124750511D01*
X113139398Y-124865603D01*
X113218730Y-124962271D01*
X113254490Y-125005844D01*
X113340011Y-125165843D01*
X113392675Y-125339452D01*
X113406001Y-125474756D01*
X113406001Y-126025243D01*
X113392675Y-126160548D01*
X113340011Y-126334157D01*
X113254490Y-126494156D01*
X113218730Y-126537729D01*
X113139398Y-126634397D01*
X113042730Y-126713729D01*
X112999157Y-126749489D01*
X112839158Y-126835010D01*
X112665549Y-126887674D01*
X112485001Y-126905456D01*
X112304454Y-126887674D01*
X112130845Y-126835010D01*
X111970846Y-126749489D01*
X111927273Y-126713729D01*
X111830605Y-126634397D01*
X111715514Y-126494157D01*
X111715513Y-126494155D01*
X111629991Y-126334157D01*
X111577327Y-126160548D01*
X111564001Y-126025244D01*
X111564001Y-125474757D01*
X111577327Y-125339453D01*
X111629991Y-125165844D01*
X111715512Y-125005845D01*
X111715513Y-125005844D01*
X111830604Y-124865603D01*
X111927272Y-124786271D01*
X111970845Y-124750511D01*
X112130844Y-124664990D01*
X112304453Y-124612326D01*
X112485001Y-124594544D01*
X112665548Y-124612326D01*
G37*
G36*
X105804297Y-124612326D02*
G01*
X105977906Y-124664990D01*
X105977908Y-124664991D01*
X106137905Y-124750511D01*
X106278147Y-124865603D01*
X106357479Y-124962271D01*
X106393239Y-125005844D01*
X106478760Y-125165843D01*
X106531424Y-125339452D01*
X106544750Y-125474756D01*
X106544750Y-126025243D01*
X106531424Y-126160548D01*
X106478760Y-126334157D01*
X106393239Y-126494156D01*
X106357479Y-126537729D01*
X106278147Y-126634397D01*
X106181479Y-126713729D01*
X106137906Y-126749489D01*
X105977907Y-126835010D01*
X105804298Y-126887674D01*
X105623750Y-126905456D01*
X105443203Y-126887674D01*
X105269594Y-126835010D01*
X105109595Y-126749489D01*
X105066022Y-126713729D01*
X104969354Y-126634397D01*
X104854263Y-126494157D01*
X104854262Y-126494155D01*
X104768740Y-126334157D01*
X104716076Y-126160548D01*
X104702750Y-126025244D01*
X104702750Y-125474757D01*
X104716076Y-125339453D01*
X104768740Y-125165844D01*
X104854261Y-125005845D01*
X104854262Y-125005844D01*
X104969353Y-124865603D01*
X105066021Y-124786271D01*
X105109594Y-124750511D01*
X105269593Y-124664990D01*
X105443202Y-124612326D01*
X105623750Y-124594544D01*
X105804297Y-124612326D01*
G37*
G36*
X85220547Y-124612326D02*
G01*
X85394156Y-124664990D01*
X85394158Y-124664991D01*
X85554155Y-124750511D01*
X85694397Y-124865603D01*
X85773729Y-124962271D01*
X85809489Y-125005844D01*
X85895010Y-125165843D01*
X85947674Y-125339452D01*
X85961000Y-125474756D01*
X85961000Y-126025243D01*
X85947674Y-126160548D01*
X85895010Y-126334157D01*
X85809489Y-126494156D01*
X85773729Y-126537729D01*
X85694397Y-126634397D01*
X85597729Y-126713729D01*
X85554156Y-126749489D01*
X85394157Y-126835010D01*
X85220548Y-126887674D01*
X85040000Y-126905456D01*
X84859453Y-126887674D01*
X84685844Y-126835010D01*
X84525845Y-126749489D01*
X84482272Y-126713729D01*
X84385604Y-126634397D01*
X84270513Y-126494157D01*
X84270512Y-126494155D01*
X84184990Y-126334157D01*
X84132326Y-126160548D01*
X84119000Y-126025244D01*
X84119000Y-125474757D01*
X84132326Y-125339453D01*
X84184990Y-125165844D01*
X84270511Y-125005845D01*
X84270512Y-125005844D01*
X84385603Y-124865603D01*
X84482271Y-124786271D01*
X84525844Y-124750511D01*
X84685843Y-124664990D01*
X84859452Y-124612326D01*
X85040000Y-124594544D01*
X85220547Y-124612326D01*
G37*
G36*
X92081797Y-124612326D02*
G01*
X92255406Y-124664990D01*
X92255408Y-124664991D01*
X92415405Y-124750511D01*
X92555647Y-124865603D01*
X92634979Y-124962271D01*
X92670739Y-125005844D01*
X92756260Y-125165843D01*
X92808924Y-125339452D01*
X92822250Y-125474756D01*
X92822250Y-126025243D01*
X92808924Y-126160548D01*
X92756260Y-126334157D01*
X92670739Y-126494156D01*
X92634979Y-126537729D01*
X92555647Y-126634397D01*
X92458979Y-126713729D01*
X92415406Y-126749489D01*
X92255407Y-126835010D01*
X92081798Y-126887674D01*
X91901250Y-126905456D01*
X91720703Y-126887674D01*
X91547094Y-126835010D01*
X91387095Y-126749489D01*
X91343522Y-126713729D01*
X91246854Y-126634397D01*
X91131763Y-126494157D01*
X91131762Y-126494155D01*
X91046240Y-126334157D01*
X90993576Y-126160548D01*
X90980250Y-126025244D01*
X90980250Y-125474757D01*
X90993576Y-125339453D01*
X91046240Y-125165844D01*
X91131761Y-125005845D01*
X91131762Y-125005844D01*
X91246853Y-124865603D01*
X91343521Y-124786271D01*
X91387094Y-124750511D01*
X91547093Y-124664990D01*
X91720702Y-124612326D01*
X91901250Y-124594544D01*
X92081797Y-124612326D01*
G37*
G36*
X104004750Y-126901000D02*
G01*
X102162750Y-126901000D01*
X102162750Y-124599000D01*
X104004750Y-124599000D01*
X104004750Y-126901000D01*
G37*
G36*
X83421000Y-126901000D02*
G01*
X81579000Y-126901000D01*
X81579000Y-124599000D01*
X83421000Y-124599000D01*
X83421000Y-126901000D01*
G37*
G36*
X110866001Y-126901000D02*
G01*
X109024001Y-126901000D01*
X109024001Y-124599000D01*
X110866001Y-124599000D01*
X110866001Y-126901000D01*
G37*
G36*
X97143500Y-126901000D02*
G01*
X95301500Y-126901000D01*
X95301500Y-124599000D01*
X97143500Y-124599000D01*
X97143500Y-126901000D01*
G37*
G36*
X90282250Y-126901000D02*
G01*
X88440250Y-126901000D01*
X88440250Y-124599000D01*
X90282250Y-124599000D01*
X90282250Y-126901000D01*
G37*
G36*
X113838674Y-120303465D02*
G01*
X113876367Y-120314899D01*
X113911103Y-120333466D01*
X113941548Y-120358452D01*
X113966534Y-120388897D01*
X113985101Y-120423633D01*
X113996535Y-120461326D01*
X114001000Y-120506661D01*
X114001000Y-121593339D01*
X113996535Y-121638674D01*
X113985101Y-121676367D01*
X113966534Y-121711103D01*
X113941548Y-121741548D01*
X113911103Y-121766534D01*
X113876367Y-121785101D01*
X113838674Y-121796535D01*
X113793339Y-121801000D01*
X112956661Y-121801000D01*
X112911326Y-121796535D01*
X112873633Y-121785101D01*
X112838897Y-121766534D01*
X112808452Y-121741548D01*
X112783466Y-121711103D01*
X112764899Y-121676367D01*
X112753465Y-121638674D01*
X112749000Y-121593339D01*
X112749000Y-120506661D01*
X112753465Y-120461326D01*
X112764899Y-120423633D01*
X112783466Y-120388897D01*
X112808452Y-120358452D01*
X112838897Y-120333466D01*
X112873633Y-120314899D01*
X112911326Y-120303465D01*
X112956661Y-120299000D01*
X113793339Y-120299000D01*
X113838674Y-120303465D01*
G37*
G36*
X121488674Y-120303465D02*
G01*
X121526367Y-120314899D01*
X121561103Y-120333466D01*
X121591548Y-120358452D01*
X121616534Y-120388897D01*
X121635101Y-120423633D01*
X121646535Y-120461326D01*
X121651000Y-120506661D01*
X121651000Y-121593339D01*
X121646535Y-121638674D01*
X121635101Y-121676367D01*
X121616534Y-121711103D01*
X121591548Y-121741548D01*
X121561103Y-121766534D01*
X121526367Y-121785101D01*
X121488674Y-121796535D01*
X121443339Y-121801000D01*
X120606661Y-121801000D01*
X120561326Y-121796535D01*
X120523633Y-121785101D01*
X120488897Y-121766534D01*
X120458452Y-121741548D01*
X120433466Y-121711103D01*
X120414899Y-121676367D01*
X120403465Y-121638674D01*
X120399000Y-121593339D01*
X120399000Y-120506661D01*
X120403465Y-120461326D01*
X120414899Y-120423633D01*
X120433466Y-120388897D01*
X120458452Y-120358452D01*
X120488897Y-120333466D01*
X120523633Y-120314899D01*
X120561326Y-120303465D01*
X120606661Y-120299000D01*
X121443339Y-120299000D01*
X121488674Y-120303465D01*
G37*
G36*
X119438674Y-120303465D02*
G01*
X119476367Y-120314899D01*
X119511103Y-120333466D01*
X119541548Y-120358452D01*
X119566534Y-120388897D01*
X119585101Y-120423633D01*
X119596535Y-120461326D01*
X119601000Y-120506661D01*
X119601000Y-121593339D01*
X119596535Y-121638674D01*
X119585101Y-121676367D01*
X119566534Y-121711103D01*
X119541548Y-121741548D01*
X119511103Y-121766534D01*
X119476367Y-121785101D01*
X119438674Y-121796535D01*
X119393339Y-121801000D01*
X118556661Y-121801000D01*
X118511326Y-121796535D01*
X118473633Y-121785101D01*
X118438897Y-121766534D01*
X118408452Y-121741548D01*
X118383466Y-121711103D01*
X118364899Y-121676367D01*
X118353465Y-121638674D01*
X118349000Y-121593339D01*
X118349000Y-120506661D01*
X118353465Y-120461326D01*
X118364899Y-120423633D01*
X118383466Y-120388897D01*
X118408452Y-120358452D01*
X118438897Y-120333466D01*
X118473633Y-120314899D01*
X118511326Y-120303465D01*
X118556661Y-120299000D01*
X119393339Y-120299000D01*
X119438674Y-120303465D01*
G37*
G36*
X115888674Y-120303465D02*
G01*
X115926367Y-120314899D01*
X115961103Y-120333466D01*
X115991548Y-120358452D01*
X116016534Y-120388897D01*
X116035101Y-120423633D01*
X116046535Y-120461326D01*
X116051000Y-120506661D01*
X116051000Y-121593339D01*
X116046535Y-121638674D01*
X116035101Y-121676367D01*
X116016534Y-121711103D01*
X115991548Y-121741548D01*
X115961103Y-121766534D01*
X115926367Y-121785101D01*
X115888674Y-121796535D01*
X115843339Y-121801000D01*
X115006661Y-121801000D01*
X114961326Y-121796535D01*
X114923633Y-121785101D01*
X114888897Y-121766534D01*
X114858452Y-121741548D01*
X114833466Y-121711103D01*
X114814899Y-121676367D01*
X114803465Y-121638674D01*
X114799000Y-121593339D01*
X114799000Y-120506661D01*
X114803465Y-120461326D01*
X114814899Y-120423633D01*
X114833466Y-120388897D01*
X114858452Y-120358452D01*
X114888897Y-120333466D01*
X114923633Y-120314899D01*
X114961326Y-120303465D01*
X115006661Y-120299000D01*
X115843339Y-120299000D01*
X115888674Y-120303465D01*
G37*
G36*
X111688674Y-117953465D02*
G01*
X111726367Y-117964899D01*
X111761103Y-117983466D01*
X111791548Y-118008452D01*
X111816534Y-118038897D01*
X111835101Y-118073633D01*
X111846535Y-118111326D01*
X111851000Y-118156661D01*
X111851000Y-119243339D01*
X111846535Y-119288674D01*
X111835101Y-119326367D01*
X111816534Y-119361103D01*
X111791548Y-119391548D01*
X111761103Y-119416534D01*
X111726367Y-119435101D01*
X111688674Y-119446535D01*
X111643339Y-119451000D01*
X110806661Y-119451000D01*
X110761326Y-119446535D01*
X110723633Y-119435101D01*
X110688897Y-119416534D01*
X110658452Y-119391548D01*
X110633466Y-119361103D01*
X110614899Y-119326367D01*
X110603465Y-119288674D01*
X110599000Y-119243339D01*
X110599000Y-118156661D01*
X110603465Y-118111326D01*
X110614899Y-118073633D01*
X110633466Y-118038897D01*
X110658452Y-118008452D01*
X110688897Y-117983466D01*
X110723633Y-117964899D01*
X110761326Y-117953465D01*
X110806661Y-117949000D01*
X111643339Y-117949000D01*
X111688674Y-117953465D01*
G37*
G36*
X119438674Y-117953465D02*
G01*
X119476367Y-117964899D01*
X119511103Y-117983466D01*
X119541548Y-118008452D01*
X119566534Y-118038897D01*
X119585101Y-118073633D01*
X119596535Y-118111326D01*
X119601000Y-118156661D01*
X119601000Y-119243339D01*
X119596535Y-119288674D01*
X119585101Y-119326367D01*
X119566534Y-119361103D01*
X119541548Y-119391548D01*
X119511103Y-119416534D01*
X119476367Y-119435101D01*
X119438674Y-119446535D01*
X119393339Y-119451000D01*
X118556661Y-119451000D01*
X118511326Y-119446535D01*
X118473633Y-119435101D01*
X118438897Y-119416534D01*
X118408452Y-119391548D01*
X118383466Y-119361103D01*
X118364899Y-119326367D01*
X118353465Y-119288674D01*
X118349000Y-119243339D01*
X118349000Y-118156661D01*
X118353465Y-118111326D01*
X118364899Y-118073633D01*
X118383466Y-118038897D01*
X118408452Y-118008452D01*
X118438897Y-117983466D01*
X118473633Y-117964899D01*
X118511326Y-117953465D01*
X118556661Y-117949000D01*
X119393339Y-117949000D01*
X119438674Y-117953465D01*
G37*
G36*
X121488674Y-117953465D02*
G01*
X121526367Y-117964899D01*
X121561103Y-117983466D01*
X121591548Y-118008452D01*
X121616534Y-118038897D01*
X121635101Y-118073633D01*
X121646535Y-118111326D01*
X121651000Y-118156661D01*
X121651000Y-119243339D01*
X121646535Y-119288674D01*
X121635101Y-119326367D01*
X121616534Y-119361103D01*
X121591548Y-119391548D01*
X121561103Y-119416534D01*
X121526367Y-119435101D01*
X121488674Y-119446535D01*
X121443339Y-119451000D01*
X120606661Y-119451000D01*
X120561326Y-119446535D01*
X120523633Y-119435101D01*
X120488897Y-119416534D01*
X120458452Y-119391548D01*
X120433466Y-119361103D01*
X120414899Y-119326367D01*
X120403465Y-119288674D01*
X120399000Y-119243339D01*
X120399000Y-118156661D01*
X120403465Y-118111326D01*
X120414899Y-118073633D01*
X120433466Y-118038897D01*
X120458452Y-118008452D01*
X120488897Y-117983466D01*
X120523633Y-117964899D01*
X120561326Y-117953465D01*
X120606661Y-117949000D01*
X121443339Y-117949000D01*
X121488674Y-117953465D01*
G37*
G36*
X105413674Y-117953465D02*
G01*
X105451367Y-117964899D01*
X105486103Y-117983466D01*
X105516548Y-118008452D01*
X105541534Y-118038897D01*
X105560101Y-118073633D01*
X105571535Y-118111326D01*
X105576000Y-118156661D01*
X105576000Y-119243339D01*
X105571535Y-119288674D01*
X105560101Y-119326367D01*
X105541534Y-119361103D01*
X105516548Y-119391548D01*
X105486103Y-119416534D01*
X105451367Y-119435101D01*
X105413674Y-119446535D01*
X105368339Y-119451000D01*
X104531661Y-119451000D01*
X104486326Y-119446535D01*
X104448633Y-119435101D01*
X104413897Y-119416534D01*
X104383452Y-119391548D01*
X104358466Y-119361103D01*
X104339899Y-119326367D01*
X104328465Y-119288674D01*
X104324000Y-119243339D01*
X104324000Y-118156661D01*
X104328465Y-118111326D01*
X104339899Y-118073633D01*
X104358466Y-118038897D01*
X104383452Y-118008452D01*
X104413897Y-117983466D01*
X104448633Y-117964899D01*
X104486326Y-117953465D01*
X104531661Y-117949000D01*
X105368339Y-117949000D01*
X105413674Y-117953465D01*
G37*
G36*
X107463674Y-117953465D02*
G01*
X107501367Y-117964899D01*
X107536103Y-117983466D01*
X107566548Y-118008452D01*
X107591534Y-118038897D01*
X107610101Y-118073633D01*
X107621535Y-118111326D01*
X107626000Y-118156661D01*
X107626000Y-119243339D01*
X107621535Y-119288674D01*
X107610101Y-119326367D01*
X107591534Y-119361103D01*
X107566548Y-119391548D01*
X107536103Y-119416534D01*
X107501367Y-119435101D01*
X107463674Y-119446535D01*
X107418339Y-119451000D01*
X106581661Y-119451000D01*
X106536326Y-119446535D01*
X106498633Y-119435101D01*
X106463897Y-119416534D01*
X106433452Y-119391548D01*
X106408466Y-119361103D01*
X106389899Y-119326367D01*
X106378465Y-119288674D01*
X106374000Y-119243339D01*
X106374000Y-118156661D01*
X106378465Y-118111326D01*
X106389899Y-118073633D01*
X106408466Y-118038897D01*
X106433452Y-118008452D01*
X106463897Y-117983466D01*
X106498633Y-117964899D01*
X106536326Y-117953465D01*
X106581661Y-117949000D01*
X107418339Y-117949000D01*
X107463674Y-117953465D01*
G37*
G36*
X113838674Y-117953465D02*
G01*
X113876367Y-117964899D01*
X113911103Y-117983466D01*
X113941548Y-118008452D01*
X113966534Y-118038897D01*
X113985101Y-118073633D01*
X113996535Y-118111326D01*
X114001000Y-118156661D01*
X114001000Y-119243339D01*
X113996535Y-119288674D01*
X113985101Y-119326367D01*
X113966534Y-119361103D01*
X113941548Y-119391548D01*
X113911103Y-119416534D01*
X113876367Y-119435101D01*
X113838674Y-119446535D01*
X113793339Y-119451000D01*
X112956661Y-119451000D01*
X112911326Y-119446535D01*
X112873633Y-119435101D01*
X112838897Y-119416534D01*
X112808452Y-119391548D01*
X112783466Y-119361103D01*
X112764899Y-119326367D01*
X112753465Y-119288674D01*
X112749000Y-119243339D01*
X112749000Y-118156661D01*
X112753465Y-118111326D01*
X112764899Y-118073633D01*
X112783466Y-118038897D01*
X112808452Y-118008452D01*
X112838897Y-117983466D01*
X112873633Y-117964899D01*
X112911326Y-117953465D01*
X112956661Y-117949000D01*
X113793339Y-117949000D01*
X113838674Y-117953465D01*
G37*
G36*
X109638674Y-117953465D02*
G01*
X109676367Y-117964899D01*
X109711103Y-117983466D01*
X109741548Y-118008452D01*
X109766534Y-118038897D01*
X109785101Y-118073633D01*
X109796535Y-118111326D01*
X109801000Y-118156661D01*
X109801000Y-119243339D01*
X109796535Y-119288674D01*
X109785101Y-119326367D01*
X109766534Y-119361103D01*
X109741548Y-119391548D01*
X109711103Y-119416534D01*
X109676367Y-119435101D01*
X109638674Y-119446535D01*
X109593339Y-119451000D01*
X108756661Y-119451000D01*
X108711326Y-119446535D01*
X108673633Y-119435101D01*
X108638897Y-119416534D01*
X108608452Y-119391548D01*
X108583466Y-119361103D01*
X108564899Y-119326367D01*
X108553465Y-119288674D01*
X108549000Y-119243339D01*
X108549000Y-118156661D01*
X108553465Y-118111326D01*
X108564899Y-118073633D01*
X108583466Y-118038897D01*
X108608452Y-118008452D01*
X108638897Y-117983466D01*
X108673633Y-117964899D01*
X108711326Y-117953465D01*
X108756661Y-117949000D01*
X109593339Y-117949000D01*
X109638674Y-117953465D01*
G37*
G36*
X115888674Y-117953465D02*
G01*
X115926367Y-117964899D01*
X115961103Y-117983466D01*
X115991548Y-118008452D01*
X116016534Y-118038897D01*
X116035101Y-118073633D01*
X116046535Y-118111326D01*
X116051000Y-118156661D01*
X116051000Y-119243339D01*
X116046535Y-119288674D01*
X116035101Y-119326367D01*
X116016534Y-119361103D01*
X115991548Y-119391548D01*
X115961103Y-119416534D01*
X115926367Y-119435101D01*
X115888674Y-119446535D01*
X115843339Y-119451000D01*
X115006661Y-119451000D01*
X114961326Y-119446535D01*
X114923633Y-119435101D01*
X114888897Y-119416534D01*
X114858452Y-119391548D01*
X114833466Y-119361103D01*
X114814899Y-119326367D01*
X114803465Y-119288674D01*
X114799000Y-119243339D01*
X114799000Y-118156661D01*
X114803465Y-118111326D01*
X114814899Y-118073633D01*
X114833466Y-118038897D01*
X114858452Y-118008452D01*
X114888897Y-117983466D01*
X114923633Y-117964899D01*
X114961326Y-117953465D01*
X115006661Y-117949000D01*
X115843339Y-117949000D01*
X115888674Y-117953465D01*
G37*
G36*
X94188674Y-116483465D02*
G01*
X94226367Y-116494899D01*
X94261103Y-116513466D01*
X94291548Y-116538452D01*
X94316534Y-116568897D01*
X94335101Y-116603633D01*
X94346535Y-116641326D01*
X94351000Y-116686661D01*
X94351000Y-117773339D01*
X94346535Y-117818674D01*
X94335101Y-117856367D01*
X94316534Y-117891103D01*
X94291548Y-117921548D01*
X94261103Y-117946534D01*
X94226367Y-117965101D01*
X94188674Y-117976535D01*
X94143339Y-117981000D01*
X93306661Y-117981000D01*
X93261326Y-117976535D01*
X93223633Y-117965101D01*
X93188897Y-117946534D01*
X93158452Y-117921548D01*
X93133466Y-117891103D01*
X93114899Y-117856367D01*
X93103465Y-117818674D01*
X93099000Y-117773339D01*
X93099000Y-116686661D01*
X93103465Y-116641326D01*
X93114899Y-116603633D01*
X93133466Y-116568897D01*
X93158452Y-116538452D01*
X93188897Y-116513466D01*
X93223633Y-116494899D01*
X93261326Y-116483465D01*
X93306661Y-116479000D01*
X94143339Y-116479000D01*
X94188674Y-116483465D01*
G37*
G36*
X92138674Y-116483465D02*
G01*
X92176367Y-116494899D01*
X92211103Y-116513466D01*
X92241548Y-116538452D01*
X92266534Y-116568897D01*
X92285101Y-116603633D01*
X92296535Y-116641326D01*
X92301000Y-116686661D01*
X92301000Y-117773339D01*
X92296535Y-117818674D01*
X92285101Y-117856367D01*
X92266534Y-117891103D01*
X92241548Y-117921548D01*
X92211103Y-117946534D01*
X92176367Y-117965101D01*
X92138674Y-117976535D01*
X92093339Y-117981000D01*
X91256661Y-117981000D01*
X91211326Y-117976535D01*
X91173633Y-117965101D01*
X91138897Y-117946534D01*
X91108452Y-117921548D01*
X91083466Y-117891103D01*
X91064899Y-117856367D01*
X91053465Y-117818674D01*
X91049000Y-117773339D01*
X91049000Y-116686661D01*
X91053465Y-116641326D01*
X91064899Y-116603633D01*
X91083466Y-116568897D01*
X91108452Y-116538452D01*
X91138897Y-116513466D01*
X91173633Y-116494899D01*
X91211326Y-116483465D01*
X91256661Y-116479000D01*
X92093339Y-116479000D01*
X92138674Y-116483465D01*
G37*
G36*
X124488674Y-116353465D02*
G01*
X124526367Y-116364899D01*
X124561103Y-116383466D01*
X124591548Y-116408452D01*
X124616534Y-116438897D01*
X124635101Y-116473633D01*
X124646535Y-116511326D01*
X124651000Y-116556661D01*
X124651000Y-117393339D01*
X124646535Y-117438674D01*
X124635101Y-117476367D01*
X124616534Y-117511103D01*
X124591548Y-117541548D01*
X124561103Y-117566534D01*
X124526367Y-117585101D01*
X124488674Y-117596535D01*
X124443339Y-117601000D01*
X123356661Y-117601000D01*
X123311326Y-117596535D01*
X123273633Y-117585101D01*
X123238897Y-117566534D01*
X123208452Y-117541548D01*
X123183466Y-117511103D01*
X123164899Y-117476367D01*
X123153465Y-117438674D01*
X123149000Y-117393339D01*
X123149000Y-116556661D01*
X123153465Y-116511326D01*
X123164899Y-116473633D01*
X123183466Y-116438897D01*
X123208452Y-116408452D01*
X123238897Y-116383466D01*
X123273633Y-116364899D01*
X123311326Y-116353465D01*
X123356661Y-116349000D01*
X124443339Y-116349000D01*
X124488674Y-116353465D01*
G37*
G36*
X126888674Y-116353465D02*
G01*
X126926367Y-116364899D01*
X126961103Y-116383466D01*
X126991548Y-116408452D01*
X127016534Y-116438897D01*
X127035101Y-116473633D01*
X127046535Y-116511326D01*
X127051000Y-116556661D01*
X127051000Y-117393339D01*
X127046535Y-117438674D01*
X127035101Y-117476367D01*
X127016534Y-117511103D01*
X126991548Y-117541548D01*
X126961103Y-117566534D01*
X126926367Y-117585101D01*
X126888674Y-117596535D01*
X126843339Y-117601000D01*
X125756661Y-117601000D01*
X125711326Y-117596535D01*
X125673633Y-117585101D01*
X125638897Y-117566534D01*
X125608452Y-117541548D01*
X125583466Y-117511103D01*
X125564899Y-117476367D01*
X125553465Y-117438674D01*
X125549000Y-117393339D01*
X125549000Y-116556661D01*
X125553465Y-116511326D01*
X125564899Y-116473633D01*
X125583466Y-116438897D01*
X125608452Y-116408452D01*
X125638897Y-116383466D01*
X125673633Y-116364899D01*
X125711326Y-116353465D01*
X125756661Y-116349000D01*
X126843339Y-116349000D01*
X126888674Y-116353465D01*
G37*
G36*
X120091000Y-117051000D02*
G01*
X119389000Y-117051000D01*
X119389000Y-115449000D01*
X120091000Y-115449000D01*
X120091000Y-117051000D01*
G37*
G36*
X117551000Y-117051000D02*
G01*
X116849000Y-117051000D01*
X116849000Y-115449000D01*
X117551000Y-115449000D01*
X117551000Y-117051000D01*
G37*
G36*
X118821000Y-117051000D02*
G01*
X118119000Y-117051000D01*
X118119000Y-115449000D01*
X118821000Y-115449000D01*
X118821000Y-117051000D01*
G37*
G36*
X121361000Y-117051000D02*
G01*
X120659000Y-117051000D01*
X120659000Y-115449000D01*
X121361000Y-115449000D01*
X121361000Y-117051000D01*
G37*
G36*
X115011000Y-117051000D02*
G01*
X114309000Y-117051000D01*
X114309000Y-115449000D01*
X115011000Y-115449000D01*
X115011000Y-117051000D01*
G37*
G36*
X113741000Y-117051000D02*
G01*
X113039000Y-117051000D01*
X113039000Y-115449000D01*
X113741000Y-115449000D01*
X113741000Y-117051000D01*
G37*
G36*
X116281000Y-117051000D02*
G01*
X115579000Y-117051000D01*
X115579000Y-115449000D01*
X116281000Y-115449000D01*
X116281000Y-117051000D01*
G37*
G36*
X109638674Y-115503465D02*
G01*
X109676367Y-115514899D01*
X109711103Y-115533466D01*
X109741548Y-115558452D01*
X109766534Y-115588897D01*
X109785101Y-115623633D01*
X109796535Y-115661326D01*
X109801000Y-115706661D01*
X109801000Y-116793339D01*
X109796535Y-116838674D01*
X109785101Y-116876367D01*
X109766534Y-116911103D01*
X109741548Y-116941548D01*
X109711103Y-116966534D01*
X109676367Y-116985101D01*
X109638674Y-116996535D01*
X109593339Y-117001000D01*
X108756661Y-117001000D01*
X108711326Y-116996535D01*
X108673633Y-116985101D01*
X108638897Y-116966534D01*
X108608452Y-116941548D01*
X108583466Y-116911103D01*
X108564899Y-116876367D01*
X108553465Y-116838674D01*
X108549000Y-116793339D01*
X108549000Y-115706661D01*
X108553465Y-115661326D01*
X108564899Y-115623633D01*
X108583466Y-115588897D01*
X108608452Y-115558452D01*
X108638897Y-115533466D01*
X108673633Y-115514899D01*
X108711326Y-115503465D01*
X108756661Y-115499000D01*
X109593339Y-115499000D01*
X109638674Y-115503465D01*
G37*
G36*
X111688674Y-115503465D02*
G01*
X111726367Y-115514899D01*
X111761103Y-115533466D01*
X111791548Y-115558452D01*
X111816534Y-115588897D01*
X111835101Y-115623633D01*
X111846535Y-115661326D01*
X111851000Y-115706661D01*
X111851000Y-116793339D01*
X111846535Y-116838674D01*
X111835101Y-116876367D01*
X111816534Y-116911103D01*
X111791548Y-116941548D01*
X111761103Y-116966534D01*
X111726367Y-116985101D01*
X111688674Y-116996535D01*
X111643339Y-117001000D01*
X110806661Y-117001000D01*
X110761326Y-116996535D01*
X110723633Y-116985101D01*
X110688897Y-116966534D01*
X110658452Y-116941548D01*
X110633466Y-116911103D01*
X110614899Y-116876367D01*
X110603465Y-116838674D01*
X110599000Y-116793339D01*
X110599000Y-115706661D01*
X110603465Y-115661326D01*
X110614899Y-115623633D01*
X110633466Y-115588897D01*
X110658452Y-115558452D01*
X110688897Y-115533466D01*
X110723633Y-115514899D01*
X110761326Y-115503465D01*
X110806661Y-115499000D01*
X111643339Y-115499000D01*
X111688674Y-115503465D01*
G37*
G36*
X124488674Y-114303465D02*
G01*
X124526367Y-114314899D01*
X124561103Y-114333466D01*
X124591548Y-114358452D01*
X124616534Y-114388897D01*
X124635101Y-114423633D01*
X124646535Y-114461326D01*
X124651000Y-114506661D01*
X124651000Y-115343339D01*
X124646535Y-115388674D01*
X124635101Y-115426367D01*
X124616534Y-115461103D01*
X124591548Y-115491548D01*
X124561103Y-115516534D01*
X124526367Y-115535101D01*
X124488674Y-115546535D01*
X124443339Y-115551000D01*
X123356661Y-115551000D01*
X123311326Y-115546535D01*
X123273633Y-115535101D01*
X123238897Y-115516534D01*
X123208452Y-115491548D01*
X123183466Y-115461103D01*
X123164899Y-115426367D01*
X123153465Y-115388674D01*
X123149000Y-115343339D01*
X123149000Y-114506661D01*
X123153465Y-114461326D01*
X123164899Y-114423633D01*
X123183466Y-114388897D01*
X123208452Y-114358452D01*
X123238897Y-114333466D01*
X123273633Y-114314899D01*
X123311326Y-114303465D01*
X123356661Y-114299000D01*
X124443339Y-114299000D01*
X124488674Y-114303465D01*
G37*
G36*
X126888674Y-114303465D02*
G01*
X126926367Y-114314899D01*
X126961103Y-114333466D01*
X126991548Y-114358452D01*
X127016534Y-114388897D01*
X127035101Y-114423633D01*
X127046535Y-114461326D01*
X127051000Y-114506661D01*
X127051000Y-115343339D01*
X127046535Y-115388674D01*
X127035101Y-115426367D01*
X127016534Y-115461103D01*
X126991548Y-115491548D01*
X126961103Y-115516534D01*
X126926367Y-115535101D01*
X126888674Y-115546535D01*
X126843339Y-115551000D01*
X125756661Y-115551000D01*
X125711326Y-115546535D01*
X125673633Y-115535101D01*
X125638897Y-115516534D01*
X125608452Y-115491548D01*
X125583466Y-115461103D01*
X125564899Y-115426367D01*
X125553465Y-115388674D01*
X125549000Y-115343339D01*
X125549000Y-114506661D01*
X125553465Y-114461326D01*
X125564899Y-114423633D01*
X125583466Y-114388897D01*
X125608452Y-114358452D01*
X125638897Y-114333466D01*
X125673633Y-114314899D01*
X125711326Y-114303465D01*
X125756661Y-114299000D01*
X126843339Y-114299000D01*
X126888674Y-114303465D01*
G37*
G36*
X77425878Y-113711008D02*
G01*
X77463571Y-113722442D01*
X77498307Y-113741009D01*
X77528752Y-113765995D01*
X77553738Y-113796440D01*
X77572305Y-113831176D01*
X77583739Y-113868869D01*
X77588204Y-113914204D01*
X77588204Y-114750882D01*
X77583739Y-114796217D01*
X77572305Y-114833910D01*
X77553738Y-114868646D01*
X77528752Y-114899091D01*
X77498307Y-114924077D01*
X77463571Y-114942644D01*
X77425878Y-114954078D01*
X77380543Y-114958543D01*
X76293865Y-114958543D01*
X76248530Y-114954078D01*
X76210837Y-114942644D01*
X76176101Y-114924077D01*
X76145656Y-114899091D01*
X76120670Y-114868646D01*
X76102103Y-114833910D01*
X76090669Y-114796217D01*
X76086204Y-114750882D01*
X76086204Y-113914204D01*
X76090669Y-113868869D01*
X76102103Y-113831176D01*
X76120670Y-113796440D01*
X76145656Y-113765995D01*
X76176101Y-113741009D01*
X76210837Y-113722442D01*
X76248530Y-113711008D01*
X76293865Y-113706543D01*
X77380543Y-113706543D01*
X77425878Y-113711008D01*
G37*
G36*
X74925878Y-113711008D02*
G01*
X74963571Y-113722442D01*
X74998307Y-113741009D01*
X75028752Y-113765995D01*
X75053738Y-113796440D01*
X75072305Y-113831176D01*
X75083739Y-113868869D01*
X75088204Y-113914204D01*
X75088204Y-114750882D01*
X75083739Y-114796217D01*
X75072305Y-114833910D01*
X75053738Y-114868646D01*
X75028752Y-114899091D01*
X74998307Y-114924077D01*
X74963571Y-114942644D01*
X74925878Y-114954078D01*
X74880543Y-114958543D01*
X73793865Y-114958543D01*
X73748530Y-114954078D01*
X73710837Y-114942644D01*
X73676101Y-114924077D01*
X73645656Y-114899091D01*
X73620670Y-114868646D01*
X73602103Y-114833910D01*
X73590669Y-114796217D01*
X73586204Y-114750882D01*
X73586204Y-113914204D01*
X73590669Y-113868869D01*
X73602103Y-113831176D01*
X73620670Y-113796440D01*
X73645656Y-113765995D01*
X73676101Y-113741009D01*
X73710837Y-113722442D01*
X73748530Y-113711008D01*
X73793865Y-113706543D01*
X74880543Y-113706543D01*
X74925878Y-113711008D01*
G37*
G36*
X82688674Y-113453465D02*
G01*
X82726367Y-113464899D01*
X82761103Y-113483466D01*
X82791548Y-113508452D01*
X82816534Y-113538897D01*
X82835101Y-113573633D01*
X82846535Y-113611326D01*
X82851000Y-113656661D01*
X82851000Y-114743339D01*
X82846535Y-114788674D01*
X82835101Y-114826367D01*
X82816534Y-114861103D01*
X82791548Y-114891548D01*
X82761103Y-114916534D01*
X82726367Y-114935101D01*
X82688674Y-114946535D01*
X82643339Y-114951000D01*
X81806661Y-114951000D01*
X81761326Y-114946535D01*
X81723633Y-114935101D01*
X81688897Y-114916534D01*
X81658452Y-114891548D01*
X81633466Y-114861103D01*
X81614899Y-114826367D01*
X81603465Y-114788674D01*
X81599000Y-114743339D01*
X81599000Y-113656661D01*
X81603465Y-113611326D01*
X81614899Y-113573633D01*
X81633466Y-113538897D01*
X81658452Y-113508452D01*
X81688897Y-113483466D01*
X81723633Y-113464899D01*
X81761326Y-113453465D01*
X81806661Y-113449000D01*
X82643339Y-113449000D01*
X82688674Y-113453465D01*
G37*
G36*
X80638674Y-113453465D02*
G01*
X80676367Y-113464899D01*
X80711103Y-113483466D01*
X80741548Y-113508452D01*
X80766534Y-113538897D01*
X80785101Y-113573633D01*
X80796535Y-113611326D01*
X80801000Y-113656661D01*
X80801000Y-114743339D01*
X80796535Y-114788674D01*
X80785101Y-114826367D01*
X80766534Y-114861103D01*
X80741548Y-114891548D01*
X80711103Y-114916534D01*
X80676367Y-114935101D01*
X80638674Y-114946535D01*
X80593339Y-114951000D01*
X79756661Y-114951000D01*
X79711326Y-114946535D01*
X79673633Y-114935101D01*
X79638897Y-114916534D01*
X79608452Y-114891548D01*
X79583466Y-114861103D01*
X79564899Y-114826367D01*
X79553465Y-114788674D01*
X79549000Y-114743339D01*
X79549000Y-113656661D01*
X79553465Y-113611326D01*
X79564899Y-113573633D01*
X79583466Y-113538897D01*
X79608452Y-113508452D01*
X79638897Y-113483466D01*
X79673633Y-113464899D01*
X79711326Y-113453465D01*
X79756661Y-113449000D01*
X80593339Y-113449000D01*
X80638674Y-113453465D01*
G37*
G36*
X99338674Y-113383465D02*
G01*
X99376367Y-113394899D01*
X99411103Y-113413466D01*
X99441548Y-113438452D01*
X99466534Y-113468897D01*
X99485101Y-113503633D01*
X99496535Y-113541326D01*
X99501000Y-113586661D01*
X99501000Y-114673339D01*
X99496535Y-114718674D01*
X99485101Y-114756367D01*
X99466534Y-114791103D01*
X99441548Y-114821548D01*
X99411103Y-114846534D01*
X99376367Y-114865101D01*
X99338674Y-114876535D01*
X99293339Y-114881000D01*
X98456661Y-114881000D01*
X98411326Y-114876535D01*
X98373633Y-114865101D01*
X98338897Y-114846534D01*
X98308452Y-114821548D01*
X98283466Y-114791103D01*
X98264899Y-114756367D01*
X98253465Y-114718674D01*
X98249000Y-114673339D01*
X98249000Y-113586661D01*
X98253465Y-113541326D01*
X98264899Y-113503633D01*
X98283466Y-113468897D01*
X98308452Y-113438452D01*
X98338897Y-113413466D01*
X98373633Y-113394899D01*
X98411326Y-113383465D01*
X98456661Y-113379000D01*
X99293339Y-113379000D01*
X99338674Y-113383465D01*
G37*
G36*
X101388674Y-113383465D02*
G01*
X101426367Y-113394899D01*
X101461103Y-113413466D01*
X101491548Y-113438452D01*
X101516534Y-113468897D01*
X101535101Y-113503633D01*
X101546535Y-113541326D01*
X101551000Y-113586661D01*
X101551000Y-114673339D01*
X101546535Y-114718674D01*
X101535101Y-114756367D01*
X101516534Y-114791103D01*
X101491548Y-114821548D01*
X101461103Y-114846534D01*
X101426367Y-114865101D01*
X101388674Y-114876535D01*
X101343339Y-114881000D01*
X100506661Y-114881000D01*
X100461326Y-114876535D01*
X100423633Y-114865101D01*
X100388897Y-114846534D01*
X100358452Y-114821548D01*
X100333466Y-114791103D01*
X100314899Y-114756367D01*
X100303465Y-114718674D01*
X100299000Y-114673339D01*
X100299000Y-113586661D01*
X100303465Y-113541326D01*
X100314899Y-113503633D01*
X100333466Y-113468897D01*
X100358452Y-113438452D01*
X100388897Y-113413466D01*
X100423633Y-113394899D01*
X100461326Y-113383465D01*
X100506661Y-113379000D01*
X101343339Y-113379000D01*
X101388674Y-113383465D01*
G37*
G36*
X89926000Y-114561000D02*
G01*
X88074000Y-114561000D01*
X88074000Y-113909000D01*
X89926000Y-113909000D01*
X89926000Y-114561000D01*
G37*
G36*
X97326000Y-114561000D02*
G01*
X95474000Y-114561000D01*
X95474000Y-113909000D01*
X97326000Y-113909000D01*
X97326000Y-114561000D01*
G37*
G36*
X111661180Y-113287515D02*
G01*
X111698873Y-113298949D01*
X111733609Y-113317516D01*
X111764054Y-113342502D01*
X111789040Y-113372947D01*
X111807607Y-113407683D01*
X111819041Y-113445376D01*
X111823506Y-113490711D01*
X111823506Y-114327389D01*
X111819041Y-114372724D01*
X111807607Y-114410417D01*
X111789040Y-114445153D01*
X111764054Y-114475598D01*
X111733609Y-114500584D01*
X111698873Y-114519151D01*
X111661180Y-114530585D01*
X111615845Y-114535050D01*
X110529167Y-114535050D01*
X110483832Y-114530585D01*
X110446139Y-114519151D01*
X110411403Y-114500584D01*
X110380958Y-114475598D01*
X110355972Y-114445153D01*
X110337405Y-114410417D01*
X110325971Y-114372724D01*
X110321506Y-114327389D01*
X110321506Y-113490711D01*
X110325971Y-113445376D01*
X110337405Y-113407683D01*
X110355972Y-113372947D01*
X110380958Y-113342502D01*
X110411403Y-113317516D01*
X110446139Y-113298949D01*
X110483832Y-113287515D01*
X110529167Y-113283050D01*
X111615845Y-113283050D01*
X111661180Y-113287515D01*
G37*
G36*
X109230412Y-113287515D02*
G01*
X109268105Y-113298949D01*
X109302841Y-113317516D01*
X109333286Y-113342502D01*
X109358272Y-113372947D01*
X109376839Y-113407683D01*
X109388273Y-113445376D01*
X109392738Y-113490711D01*
X109392738Y-114327389D01*
X109388273Y-114372724D01*
X109376839Y-114410417D01*
X109358272Y-114445153D01*
X109333286Y-114475598D01*
X109302841Y-114500584D01*
X109268105Y-114519151D01*
X109230412Y-114530585D01*
X109185077Y-114535050D01*
X108098399Y-114535050D01*
X108053064Y-114530585D01*
X108015371Y-114519151D01*
X107980635Y-114500584D01*
X107950190Y-114475598D01*
X107925204Y-114445153D01*
X107906637Y-114410417D01*
X107895203Y-114372724D01*
X107890738Y-114327389D01*
X107890738Y-113490711D01*
X107895203Y-113445376D01*
X107906637Y-113407683D01*
X107925204Y-113372947D01*
X107950190Y-113342502D01*
X107980635Y-113317516D01*
X108015371Y-113298949D01*
X108053064Y-113287515D01*
X108098399Y-113283050D01*
X109185077Y-113283050D01*
X109230412Y-113287515D01*
G37*
G36*
X89926000Y-113291000D02*
G01*
X88074000Y-113291000D01*
X88074000Y-112639000D01*
X89926000Y-112639000D01*
X89926000Y-113291000D01*
G37*
G36*
X97326000Y-113291000D02*
G01*
X95474000Y-113291000D01*
X95474000Y-112639000D01*
X97326000Y-112639000D01*
X97326000Y-113291000D01*
G37*
G36*
X74925878Y-111661008D02*
G01*
X74963571Y-111672442D01*
X74998307Y-111691009D01*
X75028752Y-111715995D01*
X75053738Y-111746440D01*
X75072305Y-111781176D01*
X75083739Y-111818869D01*
X75088204Y-111864204D01*
X75088204Y-112700882D01*
X75083739Y-112746217D01*
X75072305Y-112783910D01*
X75053738Y-112818646D01*
X75028752Y-112849091D01*
X74998307Y-112874077D01*
X74963571Y-112892644D01*
X74925878Y-112904078D01*
X74880543Y-112908543D01*
X73793865Y-112908543D01*
X73748530Y-112904078D01*
X73710837Y-112892644D01*
X73676101Y-112874077D01*
X73645656Y-112849091D01*
X73620670Y-112818646D01*
X73602103Y-112783910D01*
X73590669Y-112746217D01*
X73586204Y-112700882D01*
X73586204Y-111864204D01*
X73590669Y-111818869D01*
X73602103Y-111781176D01*
X73620670Y-111746440D01*
X73645656Y-111715995D01*
X73676101Y-111691009D01*
X73710837Y-111672442D01*
X73748530Y-111661008D01*
X73793865Y-111656543D01*
X74880543Y-111656543D01*
X74925878Y-111661008D01*
G37*
G36*
X77425878Y-111661008D02*
G01*
X77463571Y-111672442D01*
X77498307Y-111691009D01*
X77528752Y-111715995D01*
X77553738Y-111746440D01*
X77572305Y-111781176D01*
X77583739Y-111818869D01*
X77588204Y-111864204D01*
X77588204Y-112700882D01*
X77583739Y-112746217D01*
X77572305Y-112783910D01*
X77553738Y-112818646D01*
X77528752Y-112849091D01*
X77498307Y-112874077D01*
X77463571Y-112892644D01*
X77425878Y-112904078D01*
X77380543Y-112908543D01*
X76293865Y-112908543D01*
X76248530Y-112904078D01*
X76210837Y-112892644D01*
X76176101Y-112874077D01*
X76145656Y-112849091D01*
X76120670Y-112818646D01*
X76102103Y-112783910D01*
X76090669Y-112746217D01*
X76086204Y-112700882D01*
X76086204Y-111864204D01*
X76090669Y-111818869D01*
X76102103Y-111781176D01*
X76120670Y-111746440D01*
X76145656Y-111715995D01*
X76176101Y-111691009D01*
X76210837Y-111672442D01*
X76248530Y-111661008D01*
X76293865Y-111656543D01*
X77380543Y-111656543D01*
X77425878Y-111661008D01*
G37*
G36*
X126888674Y-111553465D02*
G01*
X126926367Y-111564899D01*
X126961103Y-111583466D01*
X126991548Y-111608452D01*
X127016534Y-111638897D01*
X127035101Y-111673633D01*
X127046535Y-111711326D01*
X127051000Y-111756661D01*
X127051000Y-112593339D01*
X127046535Y-112638674D01*
X127035101Y-112676367D01*
X127016534Y-112711103D01*
X126991548Y-112741548D01*
X126961103Y-112766534D01*
X126926367Y-112785101D01*
X126888674Y-112796535D01*
X126843339Y-112801000D01*
X125756661Y-112801000D01*
X125711326Y-112796535D01*
X125673633Y-112785101D01*
X125638897Y-112766534D01*
X125608452Y-112741548D01*
X125583466Y-112711103D01*
X125564899Y-112676367D01*
X125553465Y-112638674D01*
X125549000Y-112593339D01*
X125549000Y-111756661D01*
X125553465Y-111711326D01*
X125564899Y-111673633D01*
X125583466Y-111638897D01*
X125608452Y-111608452D01*
X125638897Y-111583466D01*
X125673633Y-111564899D01*
X125711326Y-111553465D01*
X125756661Y-111549000D01*
X126843339Y-111549000D01*
X126888674Y-111553465D01*
G37*
G36*
X124488674Y-111553465D02*
G01*
X124526367Y-111564899D01*
X124561103Y-111583466D01*
X124591548Y-111608452D01*
X124616534Y-111638897D01*
X124635101Y-111673633D01*
X124646535Y-111711326D01*
X124651000Y-111756661D01*
X124651000Y-112593339D01*
X124646535Y-112638674D01*
X124635101Y-112676367D01*
X124616534Y-112711103D01*
X124591548Y-112741548D01*
X124561103Y-112766534D01*
X124526367Y-112785101D01*
X124488674Y-112796535D01*
X124443339Y-112801000D01*
X123356661Y-112801000D01*
X123311326Y-112796535D01*
X123273633Y-112785101D01*
X123238897Y-112766534D01*
X123208452Y-112741548D01*
X123183466Y-112711103D01*
X123164899Y-112676367D01*
X123153465Y-112638674D01*
X123149000Y-112593339D01*
X123149000Y-111756661D01*
X123153465Y-111711326D01*
X123164899Y-111673633D01*
X123183466Y-111638897D01*
X123208452Y-111608452D01*
X123238897Y-111583466D01*
X123273633Y-111564899D01*
X123311326Y-111553465D01*
X123356661Y-111549000D01*
X124443339Y-111549000D01*
X124488674Y-111553465D01*
G37*
G36*
X111661180Y-111237515D02*
G01*
X111698873Y-111248949D01*
X111733609Y-111267516D01*
X111764054Y-111292502D01*
X111789040Y-111322947D01*
X111807607Y-111357683D01*
X111819041Y-111395376D01*
X111823506Y-111440711D01*
X111823506Y-112277389D01*
X111819041Y-112322724D01*
X111807607Y-112360417D01*
X111789040Y-112395153D01*
X111764054Y-112425598D01*
X111733609Y-112450584D01*
X111698873Y-112469151D01*
X111661180Y-112480585D01*
X111615845Y-112485050D01*
X110529167Y-112485050D01*
X110483832Y-112480585D01*
X110446139Y-112469151D01*
X110411403Y-112450584D01*
X110380958Y-112425598D01*
X110355972Y-112395153D01*
X110337405Y-112360417D01*
X110325971Y-112322724D01*
X110321506Y-112277389D01*
X110321506Y-111440711D01*
X110325971Y-111395376D01*
X110337405Y-111357683D01*
X110355972Y-111322947D01*
X110380958Y-111292502D01*
X110411403Y-111267516D01*
X110446139Y-111248949D01*
X110483832Y-111237515D01*
X110529167Y-111233050D01*
X111615845Y-111233050D01*
X111661180Y-111237515D01*
G37*
G36*
X109230412Y-111237515D02*
G01*
X109268105Y-111248949D01*
X109302841Y-111267516D01*
X109333286Y-111292502D01*
X109358272Y-111322947D01*
X109376839Y-111357683D01*
X109388273Y-111395376D01*
X109392738Y-111440711D01*
X109392738Y-112277389D01*
X109388273Y-112322724D01*
X109376839Y-112360417D01*
X109358272Y-112395153D01*
X109333286Y-112425598D01*
X109302841Y-112450584D01*
X109268105Y-112469151D01*
X109230412Y-112480585D01*
X109185077Y-112485050D01*
X108098399Y-112485050D01*
X108053064Y-112480585D01*
X108015371Y-112469151D01*
X107980635Y-112450584D01*
X107950190Y-112425598D01*
X107925204Y-112395153D01*
X107906637Y-112360417D01*
X107895203Y-112322724D01*
X107890738Y-112277389D01*
X107890738Y-111440711D01*
X107895203Y-111395376D01*
X107906637Y-111357683D01*
X107925204Y-111322947D01*
X107950190Y-111292502D01*
X107980635Y-111267516D01*
X108015371Y-111248949D01*
X108053064Y-111237515D01*
X108098399Y-111233050D01*
X109185077Y-111233050D01*
X109230412Y-111237515D01*
G37*
G36*
X82688674Y-110953465D02*
G01*
X82726367Y-110964899D01*
X82761103Y-110983466D01*
X82791548Y-111008452D01*
X82816534Y-111038897D01*
X82835101Y-111073633D01*
X82846535Y-111111326D01*
X82851000Y-111156661D01*
X82851000Y-112243339D01*
X82846535Y-112288674D01*
X82835101Y-112326367D01*
X82816534Y-112361103D01*
X82791548Y-112391548D01*
X82761103Y-112416534D01*
X82726367Y-112435101D01*
X82688674Y-112446535D01*
X82643339Y-112451000D01*
X81806661Y-112451000D01*
X81761326Y-112446535D01*
X81723633Y-112435101D01*
X81688897Y-112416534D01*
X81658452Y-112391548D01*
X81633466Y-112361103D01*
X81614899Y-112326367D01*
X81603465Y-112288674D01*
X81599000Y-112243339D01*
X81599000Y-111156661D01*
X81603465Y-111111326D01*
X81614899Y-111073633D01*
X81633466Y-111038897D01*
X81658452Y-111008452D01*
X81688897Y-110983466D01*
X81723633Y-110964899D01*
X81761326Y-110953465D01*
X81806661Y-110949000D01*
X82643339Y-110949000D01*
X82688674Y-110953465D01*
G37*
G36*
X86988674Y-110953465D02*
G01*
X87026367Y-110964899D01*
X87061103Y-110983466D01*
X87091548Y-111008452D01*
X87116534Y-111038897D01*
X87135101Y-111073633D01*
X87146535Y-111111326D01*
X87151000Y-111156661D01*
X87151000Y-112243339D01*
X87146535Y-112288674D01*
X87135101Y-112326367D01*
X87116534Y-112361103D01*
X87091548Y-112391548D01*
X87061103Y-112416534D01*
X87026367Y-112435101D01*
X86988674Y-112446535D01*
X86943339Y-112451000D01*
X86106661Y-112451000D01*
X86061326Y-112446535D01*
X86023633Y-112435101D01*
X85988897Y-112416534D01*
X85958452Y-112391548D01*
X85933466Y-112361103D01*
X85914899Y-112326367D01*
X85903465Y-112288674D01*
X85899000Y-112243339D01*
X85899000Y-111156661D01*
X85903465Y-111111326D01*
X85914899Y-111073633D01*
X85933466Y-111038897D01*
X85958452Y-111008452D01*
X85988897Y-110983466D01*
X86023633Y-110964899D01*
X86061326Y-110953465D01*
X86106661Y-110949000D01*
X86943339Y-110949000D01*
X86988674Y-110953465D01*
G37*
G36*
X84938674Y-110953465D02*
G01*
X84976367Y-110964899D01*
X85011103Y-110983466D01*
X85041548Y-111008452D01*
X85066534Y-111038897D01*
X85085101Y-111073633D01*
X85096535Y-111111326D01*
X85101000Y-111156661D01*
X85101000Y-112243339D01*
X85096535Y-112288674D01*
X85085101Y-112326367D01*
X85066534Y-112361103D01*
X85041548Y-112391548D01*
X85011103Y-112416534D01*
X84976367Y-112435101D01*
X84938674Y-112446535D01*
X84893339Y-112451000D01*
X84056661Y-112451000D01*
X84011326Y-112446535D01*
X83973633Y-112435101D01*
X83938897Y-112416534D01*
X83908452Y-112391548D01*
X83883466Y-112361103D01*
X83864899Y-112326367D01*
X83853465Y-112288674D01*
X83849000Y-112243339D01*
X83849000Y-111156661D01*
X83853465Y-111111326D01*
X83864899Y-111073633D01*
X83883466Y-111038897D01*
X83908452Y-111008452D01*
X83938897Y-110983466D01*
X83973633Y-110964899D01*
X84011326Y-110953465D01*
X84056661Y-110949000D01*
X84893339Y-110949000D01*
X84938674Y-110953465D01*
G37*
G36*
X80638674Y-110953465D02*
G01*
X80676367Y-110964899D01*
X80711103Y-110983466D01*
X80741548Y-111008452D01*
X80766534Y-111038897D01*
X80785101Y-111073633D01*
X80796535Y-111111326D01*
X80801000Y-111156661D01*
X80801000Y-112243339D01*
X80796535Y-112288674D01*
X80785101Y-112326367D01*
X80766534Y-112361103D01*
X80741548Y-112391548D01*
X80711103Y-112416534D01*
X80676367Y-112435101D01*
X80638674Y-112446535D01*
X80593339Y-112451000D01*
X79756661Y-112451000D01*
X79711326Y-112446535D01*
X79673633Y-112435101D01*
X79638897Y-112416534D01*
X79608452Y-112391548D01*
X79583466Y-112361103D01*
X79564899Y-112326367D01*
X79553465Y-112288674D01*
X79549000Y-112243339D01*
X79549000Y-111156661D01*
X79553465Y-111111326D01*
X79564899Y-111073633D01*
X79583466Y-111038897D01*
X79608452Y-111008452D01*
X79638897Y-110983466D01*
X79673633Y-110964899D01*
X79711326Y-110953465D01*
X79756661Y-110949000D01*
X80593339Y-110949000D01*
X80638674Y-110953465D01*
G37*
G36*
X101388674Y-110948465D02*
G01*
X101426367Y-110959899D01*
X101461103Y-110978466D01*
X101491548Y-111003452D01*
X101516534Y-111033897D01*
X101535101Y-111068633D01*
X101546535Y-111106326D01*
X101551000Y-111151661D01*
X101551000Y-112238339D01*
X101546535Y-112283674D01*
X101535101Y-112321367D01*
X101516534Y-112356103D01*
X101491548Y-112386548D01*
X101461103Y-112411534D01*
X101426367Y-112430101D01*
X101388674Y-112441535D01*
X101343339Y-112446000D01*
X100506661Y-112446000D01*
X100461326Y-112441535D01*
X100423633Y-112430101D01*
X100388897Y-112411534D01*
X100358452Y-112386548D01*
X100333466Y-112356103D01*
X100314899Y-112321367D01*
X100303465Y-112283674D01*
X100299000Y-112238339D01*
X100299000Y-111151661D01*
X100303465Y-111106326D01*
X100314899Y-111068633D01*
X100333466Y-111033897D01*
X100358452Y-111003452D01*
X100388897Y-110978466D01*
X100423633Y-110959899D01*
X100461326Y-110948465D01*
X100506661Y-110944000D01*
X101343339Y-110944000D01*
X101388674Y-110948465D01*
G37*
G36*
X99338674Y-110948465D02*
G01*
X99376367Y-110959899D01*
X99411103Y-110978466D01*
X99441548Y-111003452D01*
X99466534Y-111033897D01*
X99485101Y-111068633D01*
X99496535Y-111106326D01*
X99501000Y-111151661D01*
X99501000Y-112238339D01*
X99496535Y-112283674D01*
X99485101Y-112321367D01*
X99466534Y-112356103D01*
X99441548Y-112386548D01*
X99411103Y-112411534D01*
X99376367Y-112430101D01*
X99338674Y-112441535D01*
X99293339Y-112446000D01*
X98456661Y-112446000D01*
X98411326Y-112441535D01*
X98373633Y-112430101D01*
X98338897Y-112411534D01*
X98308452Y-112386548D01*
X98283466Y-112356103D01*
X98264899Y-112321367D01*
X98253465Y-112283674D01*
X98249000Y-112238339D01*
X98249000Y-111151661D01*
X98253465Y-111106326D01*
X98264899Y-111068633D01*
X98283466Y-111033897D01*
X98308452Y-111003452D01*
X98338897Y-110978466D01*
X98373633Y-110959899D01*
X98411326Y-110948465D01*
X98456661Y-110944000D01*
X99293339Y-110944000D01*
X99338674Y-110948465D01*
G37*
G36*
X97326000Y-112021000D02*
G01*
X95474000Y-112021000D01*
X95474000Y-111369000D01*
X97326000Y-111369000D01*
X97326000Y-112021000D01*
G37*
G36*
X89926000Y-112021000D02*
G01*
X88074000Y-112021000D01*
X88074000Y-111369000D01*
X89926000Y-111369000D01*
X89926000Y-112021000D01*
G37*
G36*
X118821000Y-111651000D02*
G01*
X118119000Y-111651000D01*
X118119000Y-110049000D01*
X118821000Y-110049000D01*
X118821000Y-111651000D01*
G37*
G36*
X117551000Y-111651000D02*
G01*
X116849000Y-111651000D01*
X116849000Y-110049000D01*
X117551000Y-110049000D01*
X117551000Y-111651000D01*
G37*
G36*
X116281000Y-111651000D02*
G01*
X115579000Y-111651000D01*
X115579000Y-110049000D01*
X116281000Y-110049000D01*
X116281000Y-111651000D01*
G37*
G36*
X120091000Y-111651000D02*
G01*
X119389000Y-111651000D01*
X119389000Y-110049000D01*
X120091000Y-110049000D01*
X120091000Y-111651000D01*
G37*
G36*
X115011000Y-111651000D02*
G01*
X114309000Y-111651000D01*
X114309000Y-110049000D01*
X115011000Y-110049000D01*
X115011000Y-111651000D01*
G37*
G36*
X113741000Y-111651000D02*
G01*
X113039000Y-111651000D01*
X113039000Y-110049000D01*
X113741000Y-110049000D01*
X113741000Y-111651000D01*
G37*
G36*
X121361000Y-111651000D02*
G01*
X120659000Y-111651000D01*
X120659000Y-110049000D01*
X121361000Y-110049000D01*
X121361000Y-111651000D01*
G37*
G36*
X97326000Y-110751000D02*
G01*
X95474000Y-110751000D01*
X95474000Y-110099000D01*
X97326000Y-110099000D01*
X97326000Y-110751000D01*
G37*
G36*
X124488674Y-109503465D02*
G01*
X124526367Y-109514899D01*
X124561103Y-109533466D01*
X124591548Y-109558452D01*
X124616534Y-109588897D01*
X124635101Y-109623633D01*
X124646535Y-109661326D01*
X124651000Y-109706661D01*
X124651000Y-110543339D01*
X124646535Y-110588674D01*
X124635101Y-110626367D01*
X124616534Y-110661103D01*
X124591548Y-110691548D01*
X124561103Y-110716534D01*
X124526367Y-110735101D01*
X124488674Y-110746535D01*
X124443339Y-110751000D01*
X123356661Y-110751000D01*
X123311326Y-110746535D01*
X123273633Y-110735101D01*
X123238897Y-110716534D01*
X123208452Y-110691548D01*
X123183466Y-110661103D01*
X123164899Y-110626367D01*
X123153465Y-110588674D01*
X123149000Y-110543339D01*
X123149000Y-109706661D01*
X123153465Y-109661326D01*
X123164899Y-109623633D01*
X123183466Y-109588897D01*
X123208452Y-109558452D01*
X123238897Y-109533466D01*
X123273633Y-109514899D01*
X123311326Y-109503465D01*
X123356661Y-109499000D01*
X124443339Y-109499000D01*
X124488674Y-109503465D01*
G37*
G36*
X126888674Y-109503465D02*
G01*
X126926367Y-109514899D01*
X126961103Y-109533466D01*
X126991548Y-109558452D01*
X127016534Y-109588897D01*
X127035101Y-109623633D01*
X127046535Y-109661326D01*
X127051000Y-109706661D01*
X127051000Y-110543339D01*
X127046535Y-110588674D01*
X127035101Y-110626367D01*
X127016534Y-110661103D01*
X126991548Y-110691548D01*
X126961103Y-110716534D01*
X126926367Y-110735101D01*
X126888674Y-110746535D01*
X126843339Y-110751000D01*
X125756661Y-110751000D01*
X125711326Y-110746535D01*
X125673633Y-110735101D01*
X125638897Y-110716534D01*
X125608452Y-110691548D01*
X125583466Y-110661103D01*
X125564899Y-110626367D01*
X125553465Y-110588674D01*
X125549000Y-110543339D01*
X125549000Y-109706661D01*
X125553465Y-109661326D01*
X125564899Y-109623633D01*
X125583466Y-109588897D01*
X125608452Y-109558452D01*
X125638897Y-109533466D01*
X125673633Y-109514899D01*
X125711326Y-109503465D01*
X125756661Y-109499000D01*
X126843339Y-109499000D01*
X126888674Y-109503465D01*
G37*
G36*
X89926000Y-110751000D02*
G01*
X88074000Y-110751000D01*
X88074000Y-110099000D01*
X89926000Y-110099000D01*
X89926000Y-110751000D01*
G37*
G36*
X76225878Y-109486008D02*
G01*
X76263571Y-109497442D01*
X76298307Y-109516009D01*
X76328752Y-109540995D01*
X76353738Y-109571440D01*
X76372305Y-109606176D01*
X76383739Y-109643869D01*
X76388204Y-109689204D01*
X76388204Y-110525882D01*
X76383739Y-110571217D01*
X76372305Y-110608910D01*
X76353738Y-110643646D01*
X76328752Y-110674091D01*
X76298307Y-110699077D01*
X76263571Y-110717644D01*
X76225878Y-110729078D01*
X76180543Y-110733543D01*
X75093865Y-110733543D01*
X75048530Y-110729078D01*
X75010837Y-110717644D01*
X74976101Y-110699077D01*
X74945656Y-110674091D01*
X74920670Y-110643646D01*
X74902103Y-110608910D01*
X74890669Y-110571217D01*
X74886204Y-110525882D01*
X74886204Y-109689204D01*
X74890669Y-109643869D01*
X74902103Y-109606176D01*
X74920670Y-109571440D01*
X74945656Y-109540995D01*
X74976101Y-109516009D01*
X75010837Y-109497442D01*
X75048530Y-109486008D01*
X75093865Y-109481543D01*
X76180543Y-109481543D01*
X76225878Y-109486008D01*
G37*
G36*
X82688674Y-108453465D02*
G01*
X82726367Y-108464899D01*
X82761103Y-108483466D01*
X82791548Y-108508452D01*
X82816534Y-108538897D01*
X82835101Y-108573633D01*
X82846535Y-108611326D01*
X82851000Y-108656661D01*
X82851000Y-109743339D01*
X82846535Y-109788674D01*
X82835101Y-109826367D01*
X82816534Y-109861103D01*
X82791548Y-109891548D01*
X82761103Y-109916534D01*
X82726367Y-109935101D01*
X82688674Y-109946535D01*
X82643339Y-109951000D01*
X81806661Y-109951000D01*
X81761326Y-109946535D01*
X81723633Y-109935101D01*
X81688897Y-109916534D01*
X81658452Y-109891548D01*
X81633466Y-109861103D01*
X81614899Y-109826367D01*
X81603465Y-109788674D01*
X81599000Y-109743339D01*
X81599000Y-108656661D01*
X81603465Y-108611326D01*
X81614899Y-108573633D01*
X81633466Y-108538897D01*
X81658452Y-108508452D01*
X81688897Y-108483466D01*
X81723633Y-108464899D01*
X81761326Y-108453465D01*
X81806661Y-108449000D01*
X82643339Y-108449000D01*
X82688674Y-108453465D01*
G37*
G36*
X80638674Y-108453465D02*
G01*
X80676367Y-108464899D01*
X80711103Y-108483466D01*
X80741548Y-108508452D01*
X80766534Y-108538897D01*
X80785101Y-108573633D01*
X80796535Y-108611326D01*
X80801000Y-108656661D01*
X80801000Y-109743339D01*
X80796535Y-109788674D01*
X80785101Y-109826367D01*
X80766534Y-109861103D01*
X80741548Y-109891548D01*
X80711103Y-109916534D01*
X80676367Y-109935101D01*
X80638674Y-109946535D01*
X80593339Y-109951000D01*
X79756661Y-109951000D01*
X79711326Y-109946535D01*
X79673633Y-109935101D01*
X79638897Y-109916534D01*
X79608452Y-109891548D01*
X79583466Y-109861103D01*
X79564899Y-109826367D01*
X79553465Y-109788674D01*
X79549000Y-109743339D01*
X79549000Y-108656661D01*
X79553465Y-108611326D01*
X79564899Y-108573633D01*
X79583466Y-108538897D01*
X79608452Y-108508452D01*
X79638897Y-108483466D01*
X79673633Y-108464899D01*
X79711326Y-108453465D01*
X79756661Y-108449000D01*
X80593339Y-108449000D01*
X80638674Y-108453465D01*
G37*
G36*
X113988674Y-107853465D02*
G01*
X114026367Y-107864899D01*
X114061103Y-107883466D01*
X114091548Y-107908452D01*
X114116534Y-107938897D01*
X114135101Y-107973633D01*
X114146535Y-108011326D01*
X114151000Y-108056661D01*
X114151000Y-108893339D01*
X114146535Y-108938674D01*
X114135101Y-108976367D01*
X114116534Y-109011103D01*
X114091548Y-109041548D01*
X114061103Y-109066534D01*
X114026367Y-109085101D01*
X113988674Y-109096535D01*
X113943339Y-109101000D01*
X112856661Y-109101000D01*
X112811326Y-109096535D01*
X112773633Y-109085101D01*
X112738897Y-109066534D01*
X112708452Y-109041548D01*
X112683466Y-109011103D01*
X112664899Y-108976367D01*
X112653465Y-108938674D01*
X112649000Y-108893339D01*
X112649000Y-108056661D01*
X112653465Y-108011326D01*
X112664899Y-107973633D01*
X112683466Y-107938897D01*
X112708452Y-107908452D01*
X112738897Y-107883466D01*
X112773633Y-107864899D01*
X112811326Y-107853465D01*
X112856661Y-107849000D01*
X113943339Y-107849000D01*
X113988674Y-107853465D01*
G37*
G36*
X76225878Y-107436008D02*
G01*
X76263571Y-107447442D01*
X76298307Y-107466009D01*
X76328752Y-107490995D01*
X76353738Y-107521440D01*
X76372305Y-107556176D01*
X76383739Y-107593869D01*
X76388204Y-107639204D01*
X76388204Y-108475882D01*
X76383739Y-108521217D01*
X76372305Y-108558910D01*
X76353738Y-108593646D01*
X76328752Y-108624091D01*
X76298307Y-108649077D01*
X76263571Y-108667644D01*
X76225878Y-108679078D01*
X76180543Y-108683543D01*
X75093865Y-108683543D01*
X75048530Y-108679078D01*
X75010837Y-108667644D01*
X74976101Y-108649077D01*
X74945656Y-108624091D01*
X74920670Y-108593646D01*
X74902103Y-108558910D01*
X74890669Y-108521217D01*
X74886204Y-108475882D01*
X74886204Y-107639204D01*
X74890669Y-107593869D01*
X74902103Y-107556176D01*
X74920670Y-107521440D01*
X74945656Y-107490995D01*
X74976101Y-107466009D01*
X75010837Y-107447442D01*
X75048530Y-107436008D01*
X75093865Y-107431543D01*
X76180543Y-107431543D01*
X76225878Y-107436008D01*
G37*
G36*
X101388674Y-106683465D02*
G01*
X101426367Y-106694899D01*
X101461103Y-106713466D01*
X101491548Y-106738452D01*
X101516534Y-106768897D01*
X101535101Y-106803633D01*
X101546535Y-106841326D01*
X101551000Y-106886661D01*
X101551000Y-107973339D01*
X101546535Y-108018674D01*
X101535101Y-108056367D01*
X101516534Y-108091103D01*
X101491548Y-108121548D01*
X101461103Y-108146534D01*
X101426367Y-108165101D01*
X101388674Y-108176535D01*
X101343339Y-108181000D01*
X100506661Y-108181000D01*
X100461326Y-108176535D01*
X100423633Y-108165101D01*
X100388897Y-108146534D01*
X100358452Y-108121548D01*
X100333466Y-108091103D01*
X100314899Y-108056367D01*
X100303465Y-108018674D01*
X100299000Y-107973339D01*
X100299000Y-106886661D01*
X100303465Y-106841326D01*
X100314899Y-106803633D01*
X100333466Y-106768897D01*
X100358452Y-106738452D01*
X100388897Y-106713466D01*
X100423633Y-106694899D01*
X100461326Y-106683465D01*
X100506661Y-106679000D01*
X101343339Y-106679000D01*
X101388674Y-106683465D01*
G37*
G36*
X103538674Y-106683465D02*
G01*
X103576367Y-106694899D01*
X103611103Y-106713466D01*
X103641548Y-106738452D01*
X103666534Y-106768897D01*
X103685101Y-106803633D01*
X103696535Y-106841326D01*
X103701000Y-106886661D01*
X103701000Y-107973339D01*
X103696535Y-108018674D01*
X103685101Y-108056367D01*
X103666534Y-108091103D01*
X103641548Y-108121548D01*
X103611103Y-108146534D01*
X103576367Y-108165101D01*
X103538674Y-108176535D01*
X103493339Y-108181000D01*
X102656661Y-108181000D01*
X102611326Y-108176535D01*
X102573633Y-108165101D01*
X102538897Y-108146534D01*
X102508452Y-108121548D01*
X102483466Y-108091103D01*
X102464899Y-108056367D01*
X102453465Y-108018674D01*
X102449000Y-107973339D01*
X102449000Y-106886661D01*
X102453465Y-106841326D01*
X102464899Y-106803633D01*
X102483466Y-106768897D01*
X102508452Y-106738452D01*
X102538897Y-106713466D01*
X102573633Y-106694899D01*
X102611326Y-106683465D01*
X102656661Y-106679000D01*
X103493339Y-106679000D01*
X103538674Y-106683465D01*
G37*
G36*
X105588674Y-106683465D02*
G01*
X105626367Y-106694899D01*
X105661103Y-106713466D01*
X105691548Y-106738452D01*
X105716534Y-106768897D01*
X105735101Y-106803633D01*
X105746535Y-106841326D01*
X105751000Y-106886661D01*
X105751000Y-107973339D01*
X105746535Y-108018674D01*
X105735101Y-108056367D01*
X105716534Y-108091103D01*
X105691548Y-108121548D01*
X105661103Y-108146534D01*
X105626367Y-108165101D01*
X105588674Y-108176535D01*
X105543339Y-108181000D01*
X104706661Y-108181000D01*
X104661326Y-108176535D01*
X104623633Y-108165101D01*
X104588897Y-108146534D01*
X104558452Y-108121548D01*
X104533466Y-108091103D01*
X104514899Y-108056367D01*
X104503465Y-108018674D01*
X104499000Y-107973339D01*
X104499000Y-106886661D01*
X104503465Y-106841326D01*
X104514899Y-106803633D01*
X104533466Y-106768897D01*
X104558452Y-106738452D01*
X104588897Y-106713466D01*
X104623633Y-106694899D01*
X104661326Y-106683465D01*
X104706661Y-106679000D01*
X105543339Y-106679000D01*
X105588674Y-106683465D01*
G37*
G36*
X94638674Y-106683465D02*
G01*
X94676367Y-106694899D01*
X94711103Y-106713466D01*
X94741548Y-106738452D01*
X94766534Y-106768897D01*
X94785101Y-106803633D01*
X94796535Y-106841326D01*
X94801000Y-106886661D01*
X94801000Y-107973339D01*
X94796535Y-108018674D01*
X94785101Y-108056367D01*
X94766534Y-108091103D01*
X94741548Y-108121548D01*
X94711103Y-108146534D01*
X94676367Y-108165101D01*
X94638674Y-108176535D01*
X94593339Y-108181000D01*
X93756661Y-108181000D01*
X93711326Y-108176535D01*
X93673633Y-108165101D01*
X93638897Y-108146534D01*
X93608452Y-108121548D01*
X93583466Y-108091103D01*
X93564899Y-108056367D01*
X93553465Y-108018674D01*
X93549000Y-107973339D01*
X93549000Y-106886661D01*
X93553465Y-106841326D01*
X93564899Y-106803633D01*
X93583466Y-106768897D01*
X93608452Y-106738452D01*
X93638897Y-106713466D01*
X93673633Y-106694899D01*
X93711326Y-106683465D01*
X93756661Y-106679000D01*
X94593339Y-106679000D01*
X94638674Y-106683465D01*
G37*
G36*
X89638674Y-106683465D02*
G01*
X89676367Y-106694899D01*
X89711103Y-106713466D01*
X89741548Y-106738452D01*
X89766534Y-106768897D01*
X89785101Y-106803633D01*
X89796535Y-106841326D01*
X89801000Y-106886661D01*
X89801000Y-107973339D01*
X89796535Y-108018674D01*
X89785101Y-108056367D01*
X89766534Y-108091103D01*
X89741548Y-108121548D01*
X89711103Y-108146534D01*
X89676367Y-108165101D01*
X89638674Y-108176535D01*
X89593339Y-108181000D01*
X88756661Y-108181000D01*
X88711326Y-108176535D01*
X88673633Y-108165101D01*
X88638897Y-108146534D01*
X88608452Y-108121548D01*
X88583466Y-108091103D01*
X88564899Y-108056367D01*
X88553465Y-108018674D01*
X88549000Y-107973339D01*
X88549000Y-106886661D01*
X88553465Y-106841326D01*
X88564899Y-106803633D01*
X88583466Y-106768897D01*
X88608452Y-106738452D01*
X88638897Y-106713466D01*
X88673633Y-106694899D01*
X88711326Y-106683465D01*
X88756661Y-106679000D01*
X89593339Y-106679000D01*
X89638674Y-106683465D01*
G37*
G36*
X91688674Y-106683465D02*
G01*
X91726367Y-106694899D01*
X91761103Y-106713466D01*
X91791548Y-106738452D01*
X91816534Y-106768897D01*
X91835101Y-106803633D01*
X91846535Y-106841326D01*
X91851000Y-106886661D01*
X91851000Y-107973339D01*
X91846535Y-108018674D01*
X91835101Y-108056367D01*
X91816534Y-108091103D01*
X91791548Y-108121548D01*
X91761103Y-108146534D01*
X91726367Y-108165101D01*
X91688674Y-108176535D01*
X91643339Y-108181000D01*
X90806661Y-108181000D01*
X90761326Y-108176535D01*
X90723633Y-108165101D01*
X90688897Y-108146534D01*
X90658452Y-108121548D01*
X90633466Y-108091103D01*
X90614899Y-108056367D01*
X90603465Y-108018674D01*
X90599000Y-107973339D01*
X90599000Y-106886661D01*
X90603465Y-106841326D01*
X90614899Y-106803633D01*
X90633466Y-106768897D01*
X90658452Y-106738452D01*
X90688897Y-106713466D01*
X90723633Y-106694899D01*
X90761326Y-106683465D01*
X90806661Y-106679000D01*
X91643339Y-106679000D01*
X91688674Y-106683465D01*
G37*
G36*
X99338674Y-106683465D02*
G01*
X99376367Y-106694899D01*
X99411103Y-106713466D01*
X99441548Y-106738452D01*
X99466534Y-106768897D01*
X99485101Y-106803633D01*
X99496535Y-106841326D01*
X99501000Y-106886661D01*
X99501000Y-107973339D01*
X99496535Y-108018674D01*
X99485101Y-108056367D01*
X99466534Y-108091103D01*
X99441548Y-108121548D01*
X99411103Y-108146534D01*
X99376367Y-108165101D01*
X99338674Y-108176535D01*
X99293339Y-108181000D01*
X98456661Y-108181000D01*
X98411326Y-108176535D01*
X98373633Y-108165101D01*
X98338897Y-108146534D01*
X98308452Y-108121548D01*
X98283466Y-108091103D01*
X98264899Y-108056367D01*
X98253465Y-108018674D01*
X98249000Y-107973339D01*
X98249000Y-106886661D01*
X98253465Y-106841326D01*
X98264899Y-106803633D01*
X98283466Y-106768897D01*
X98308452Y-106738452D01*
X98338897Y-106713466D01*
X98373633Y-106694899D01*
X98411326Y-106683465D01*
X98456661Y-106679000D01*
X99293339Y-106679000D01*
X99338674Y-106683465D01*
G37*
G36*
X96688674Y-106683465D02*
G01*
X96726367Y-106694899D01*
X96761103Y-106713466D01*
X96791548Y-106738452D01*
X96816534Y-106768897D01*
X96835101Y-106803633D01*
X96846535Y-106841326D01*
X96851000Y-106886661D01*
X96851000Y-107973339D01*
X96846535Y-108018674D01*
X96835101Y-108056367D01*
X96816534Y-108091103D01*
X96791548Y-108121548D01*
X96761103Y-108146534D01*
X96726367Y-108165101D01*
X96688674Y-108176535D01*
X96643339Y-108181000D01*
X95806661Y-108181000D01*
X95761326Y-108176535D01*
X95723633Y-108165101D01*
X95688897Y-108146534D01*
X95658452Y-108121548D01*
X95633466Y-108091103D01*
X95614899Y-108056367D01*
X95603465Y-108018674D01*
X95599000Y-107973339D01*
X95599000Y-106886661D01*
X95603465Y-106841326D01*
X95614899Y-106803633D01*
X95633466Y-106768897D01*
X95658452Y-106738452D01*
X95688897Y-106713466D01*
X95723633Y-106694899D01*
X95761326Y-106683465D01*
X95806661Y-106679000D01*
X96643339Y-106679000D01*
X96688674Y-106683465D01*
G37*
G36*
X80151000Y-107501000D02*
G01*
X78749000Y-107501000D01*
X78749000Y-105699000D01*
X80151000Y-105699000D01*
X80151000Y-107501000D01*
G37*
G36*
X83651000Y-107501000D02*
G01*
X82249000Y-107501000D01*
X82249000Y-105699000D01*
X83651000Y-105699000D01*
X83651000Y-107501000D01*
G37*
G36*
X124538674Y-105703465D02*
G01*
X124576367Y-105714899D01*
X124611103Y-105733466D01*
X124641548Y-105758452D01*
X124666534Y-105788897D01*
X124685101Y-105823633D01*
X124696535Y-105861326D01*
X124701000Y-105906661D01*
X124701000Y-106993339D01*
X124696535Y-107038674D01*
X124685101Y-107076367D01*
X124666534Y-107111103D01*
X124641548Y-107141548D01*
X124611103Y-107166534D01*
X124576367Y-107185101D01*
X124538674Y-107196535D01*
X124493339Y-107201000D01*
X123656661Y-107201000D01*
X123611326Y-107196535D01*
X123573633Y-107185101D01*
X123538897Y-107166534D01*
X123508452Y-107141548D01*
X123483466Y-107111103D01*
X123464899Y-107076367D01*
X123453465Y-107038674D01*
X123449000Y-106993339D01*
X123449000Y-105906661D01*
X123453465Y-105861326D01*
X123464899Y-105823633D01*
X123483466Y-105788897D01*
X123508452Y-105758452D01*
X123538897Y-105733466D01*
X123573633Y-105714899D01*
X123611326Y-105703465D01*
X123656661Y-105699000D01*
X124493339Y-105699000D01*
X124538674Y-105703465D01*
G37*
G36*
X126588674Y-105703465D02*
G01*
X126626367Y-105714899D01*
X126661103Y-105733466D01*
X126691548Y-105758452D01*
X126716534Y-105788897D01*
X126735101Y-105823633D01*
X126746535Y-105861326D01*
X126751000Y-105906661D01*
X126751000Y-106993339D01*
X126746535Y-107038674D01*
X126735101Y-107076367D01*
X126716534Y-107111103D01*
X126691548Y-107141548D01*
X126661103Y-107166534D01*
X126626367Y-107185101D01*
X126588674Y-107196535D01*
X126543339Y-107201000D01*
X125706661Y-107201000D01*
X125661326Y-107196535D01*
X125623633Y-107185101D01*
X125588897Y-107166534D01*
X125558452Y-107141548D01*
X125533466Y-107111103D01*
X125514899Y-107076367D01*
X125503465Y-107038674D01*
X125499000Y-106993339D01*
X125499000Y-105906661D01*
X125503465Y-105861326D01*
X125514899Y-105823633D01*
X125533466Y-105788897D01*
X125558452Y-105758452D01*
X125588897Y-105733466D01*
X125623633Y-105714899D01*
X125661326Y-105703465D01*
X125706661Y-105699000D01*
X126543339Y-105699000D01*
X126588674Y-105703465D01*
G37*
G36*
X118288674Y-105703465D02*
G01*
X118326367Y-105714899D01*
X118361103Y-105733466D01*
X118391548Y-105758452D01*
X118416534Y-105788897D01*
X118435101Y-105823633D01*
X118446535Y-105861326D01*
X118451000Y-105906661D01*
X118451000Y-106993339D01*
X118446535Y-107038674D01*
X118435101Y-107076367D01*
X118416534Y-107111103D01*
X118391548Y-107141548D01*
X118361103Y-107166534D01*
X118326367Y-107185101D01*
X118288674Y-107196535D01*
X118243339Y-107201000D01*
X117406661Y-107201000D01*
X117361326Y-107196535D01*
X117323633Y-107185101D01*
X117288897Y-107166534D01*
X117258452Y-107141548D01*
X117233466Y-107111103D01*
X117214899Y-107076367D01*
X117203465Y-107038674D01*
X117199000Y-106993339D01*
X117199000Y-105906661D01*
X117203465Y-105861326D01*
X117214899Y-105823633D01*
X117233466Y-105788897D01*
X117258452Y-105758452D01*
X117288897Y-105733466D01*
X117323633Y-105714899D01*
X117361326Y-105703465D01*
X117406661Y-105699000D01*
X118243339Y-105699000D01*
X118288674Y-105703465D01*
G37*
G36*
X116238674Y-105703465D02*
G01*
X116276367Y-105714899D01*
X116311103Y-105733466D01*
X116341548Y-105758452D01*
X116366534Y-105788897D01*
X116385101Y-105823633D01*
X116396535Y-105861326D01*
X116401000Y-105906661D01*
X116401000Y-106993339D01*
X116396535Y-107038674D01*
X116385101Y-107076367D01*
X116366534Y-107111103D01*
X116341548Y-107141548D01*
X116311103Y-107166534D01*
X116276367Y-107185101D01*
X116238674Y-107196535D01*
X116193339Y-107201000D01*
X115356661Y-107201000D01*
X115311326Y-107196535D01*
X115273633Y-107185101D01*
X115238897Y-107166534D01*
X115208452Y-107141548D01*
X115183466Y-107111103D01*
X115164899Y-107076367D01*
X115153465Y-107038674D01*
X115149000Y-106993339D01*
X115149000Y-105906661D01*
X115153465Y-105861326D01*
X115164899Y-105823633D01*
X115183466Y-105788897D01*
X115208452Y-105758452D01*
X115238897Y-105733466D01*
X115273633Y-105714899D01*
X115311326Y-105703465D01*
X115356661Y-105699000D01*
X116193339Y-105699000D01*
X116238674Y-105703465D01*
G37*
G36*
X113988674Y-105803465D02*
G01*
X114026367Y-105814899D01*
X114061103Y-105833466D01*
X114091548Y-105858452D01*
X114116534Y-105888897D01*
X114135101Y-105923633D01*
X114146535Y-105961326D01*
X114151000Y-106006661D01*
X114151000Y-106843339D01*
X114146535Y-106888674D01*
X114135101Y-106926367D01*
X114116534Y-106961103D01*
X114091548Y-106991548D01*
X114061103Y-107016534D01*
X114026367Y-107035101D01*
X113988674Y-107046535D01*
X113943339Y-107051000D01*
X112856661Y-107051000D01*
X112811326Y-107046535D01*
X112773633Y-107035101D01*
X112738897Y-107016534D01*
X112708452Y-106991548D01*
X112683466Y-106961103D01*
X112664899Y-106926367D01*
X112653465Y-106888674D01*
X112649000Y-106843339D01*
X112649000Y-106006661D01*
X112653465Y-105961326D01*
X112664899Y-105923633D01*
X112683466Y-105888897D01*
X112708452Y-105858452D01*
X112738897Y-105833466D01*
X112773633Y-105814899D01*
X112811326Y-105803465D01*
X112856661Y-105799000D01*
X113943339Y-105799000D01*
X113988674Y-105803465D01*
G37*
G36*
X76088204Y-106458543D02*
G01*
X75186204Y-106458543D01*
X75186204Y-105456543D01*
X76088204Y-105456543D01*
X76088204Y-106458543D01*
G37*
G36*
X82688674Y-103253465D02*
G01*
X82726367Y-103264899D01*
X82761103Y-103283466D01*
X82791548Y-103308452D01*
X82816534Y-103338897D01*
X82835101Y-103373633D01*
X82846535Y-103411326D01*
X82851000Y-103456661D01*
X82851000Y-104543339D01*
X82846535Y-104588674D01*
X82835101Y-104626367D01*
X82816534Y-104661103D01*
X82791548Y-104691548D01*
X82761103Y-104716534D01*
X82726367Y-104735101D01*
X82688674Y-104746535D01*
X82643339Y-104751000D01*
X81806661Y-104751000D01*
X81761326Y-104746535D01*
X81723633Y-104735101D01*
X81688897Y-104716534D01*
X81658452Y-104691548D01*
X81633466Y-104661103D01*
X81614899Y-104626367D01*
X81603465Y-104588674D01*
X81599000Y-104543339D01*
X81599000Y-103456661D01*
X81603465Y-103411326D01*
X81614899Y-103373633D01*
X81633466Y-103338897D01*
X81658452Y-103308452D01*
X81688897Y-103283466D01*
X81723633Y-103264899D01*
X81761326Y-103253465D01*
X81806661Y-103249000D01*
X82643339Y-103249000D01*
X82688674Y-103253465D01*
G37*
G36*
X80638674Y-103253465D02*
G01*
X80676367Y-103264899D01*
X80711103Y-103283466D01*
X80741548Y-103308452D01*
X80766534Y-103338897D01*
X80785101Y-103373633D01*
X80796535Y-103411326D01*
X80801000Y-103456661D01*
X80801000Y-104543339D01*
X80796535Y-104588674D01*
X80785101Y-104626367D01*
X80766534Y-104661103D01*
X80741548Y-104691548D01*
X80711103Y-104716534D01*
X80676367Y-104735101D01*
X80638674Y-104746535D01*
X80593339Y-104751000D01*
X79756661Y-104751000D01*
X79711326Y-104746535D01*
X79673633Y-104735101D01*
X79638897Y-104716534D01*
X79608452Y-104691548D01*
X79583466Y-104661103D01*
X79564899Y-104626367D01*
X79553465Y-104588674D01*
X79549000Y-104543339D01*
X79549000Y-103456661D01*
X79553465Y-103411326D01*
X79564899Y-103373633D01*
X79583466Y-103338897D01*
X79608452Y-103308452D01*
X79638897Y-103283466D01*
X79673633Y-103264899D01*
X79711326Y-103253465D01*
X79756661Y-103249000D01*
X80593339Y-103249000D01*
X80638674Y-103253465D01*
G37*
G36*
X75138204Y-104458543D02*
G01*
X74236204Y-104458543D01*
X74236204Y-103456543D01*
X75138204Y-103456543D01*
X75138204Y-104458543D01*
G37*
G36*
X77038204Y-104458543D02*
G01*
X76136204Y-104458543D01*
X76136204Y-103456543D01*
X77038204Y-103456543D01*
X77038204Y-104458543D01*
G37*
G36*
X130853348Y-94897209D02*
G01*
X123662749Y-94898654D01*
X116484484Y-94900096D01*
X116484482Y-94900096D01*
X116478348Y-94900097D01*
X116478348Y-93150097D01*
X123668946Y-93148652D01*
X130847212Y-93147210D01*
X130847214Y-93147210D01*
X130853348Y-93147209D01*
X130853348Y-94897209D01*
G37*
G36*
X164691169Y-94900000D02*
G01*
X155066169Y-94900000D01*
X155066169Y-93150000D01*
X162566170Y-93150000D01*
X162590556Y-93147598D01*
X162614005Y-93140485D01*
X162635616Y-93128934D01*
X162654558Y-93113389D01*
X162670103Y-93094447D01*
X162681654Y-93072836D01*
X162688767Y-93049387D01*
X162691169Y-93025001D01*
X162691169Y-53924999D01*
X162688767Y-53900613D01*
X162681654Y-53877164D01*
X162670103Y-53855553D01*
X162654558Y-53836611D01*
X162635616Y-53821066D01*
X162614005Y-53809515D01*
X162590556Y-53802402D01*
X162566170Y-53800000D01*
X155191169Y-53800000D01*
X155191169Y-53799395D01*
X155188250Y-53799108D01*
X155163746Y-53799108D01*
X155139713Y-53803889D01*
X155117074Y-53813266D01*
X155096700Y-53826880D01*
X155079373Y-53844207D01*
X155065759Y-53864582D01*
X155056382Y-53887221D01*
X155051000Y-53923505D01*
X155051000Y-57091000D01*
X153449000Y-57091000D01*
X153449000Y-51909000D01*
X155067746Y-51909000D01*
X155092132Y-51906598D01*
X155115581Y-51899485D01*
X155137192Y-51887934D01*
X155156134Y-51872389D01*
X155171679Y-51853447D01*
X155183230Y-51831836D01*
X155190343Y-51808387D01*
X155191169Y-51802818D01*
X155191169Y-51800000D01*
X164691169Y-51800000D01*
X164691169Y-94900000D01*
G37*
G36*
X74800000Y-51802074D02*
G01*
X74800534Y-51803835D01*
X74803806Y-51820286D01*
X74813183Y-51842925D01*
X74826797Y-51863299D01*
X74844124Y-51880626D01*
X74864498Y-51894240D01*
X74887137Y-51903617D01*
X74911170Y-51908398D01*
X74923423Y-51909000D01*
X76551000Y-51909000D01*
X76551000Y-57091000D01*
X74949000Y-57091000D01*
X74949000Y-53922635D01*
X74946598Y-53898249D01*
X74939485Y-53874800D01*
X74927934Y-53853189D01*
X74912389Y-53834247D01*
X74893447Y-53818702D01*
X74871836Y-53807151D01*
X74848387Y-53800038D01*
X74824001Y-53797636D01*
X74811748Y-53798238D01*
X74800000Y-53799395D01*
X74800000Y-53800000D01*
X67424999Y-53800000D01*
X67400613Y-53802402D01*
X67377164Y-53809515D01*
X67355553Y-53821066D01*
X67336611Y-53836611D01*
X67321066Y-53855553D01*
X67309515Y-53877164D01*
X67302402Y-53900613D01*
X67300000Y-53924999D01*
X67300000Y-93025001D01*
X67302402Y-93049387D01*
X67309515Y-93072836D01*
X67321066Y-93094447D01*
X67336611Y-93113389D01*
X67355553Y-93128934D01*
X67377164Y-93140485D01*
X67400613Y-93147598D01*
X67424999Y-93150000D01*
X81600000Y-93150000D01*
X81600000Y-94900000D01*
X65300000Y-94900000D01*
X65300000Y-51800000D01*
X74800000Y-51800000D01*
X74800000Y-51802074D01*
G37*
G36*
X90925000Y-94900000D02*
G01*
X83200000Y-94900000D01*
X83200000Y-93150000D01*
X90925000Y-93150000D01*
X90925000Y-94900000D01*
G37*
G36*
X106875000Y-94900000D02*
G01*
X92525000Y-94900000D01*
X92525000Y-93150000D01*
X106875000Y-93150000D01*
X106875000Y-94900000D01*
G37*
G36*
X114875000Y-94900000D02*
G01*
X108500000Y-94900000D01*
X108500000Y-93150000D01*
X114875000Y-93150000D01*
X114875000Y-94900000D01*
G37*
G36*
X137500390Y-94900000D02*
G01*
X132450390Y-94900000D01*
X132450390Y-93150000D01*
X137500390Y-93150000D01*
X137500390Y-94900000D01*
G37*
G36*
X153456635Y-94900000D02*
G01*
X139106635Y-94900000D01*
X139106635Y-93150000D01*
X153456635Y-93150000D01*
X153456635Y-94900000D01*
G37*
G36*
X145635330Y-91301000D02*
G01*
X143833330Y-91301000D01*
X143833330Y-89899000D01*
X145635330Y-89899000D01*
X145635330Y-91301000D01*
G37*
G36*
X122301998Y-91301000D02*
G01*
X120499998Y-91301000D01*
X120499998Y-89899000D01*
X122301998Y-89899000D01*
X122301998Y-91301000D01*
G37*
G36*
X95956340Y-90053465D02*
G01*
X95994033Y-90064899D01*
X96028769Y-90083466D01*
X96059214Y-90108452D01*
X96084200Y-90138897D01*
X96102767Y-90173633D01*
X96114201Y-90211326D01*
X96118666Y-90256661D01*
X96118666Y-91093339D01*
X96114201Y-91138674D01*
X96102767Y-91176367D01*
X96084200Y-91211103D01*
X96059214Y-91241548D01*
X96028769Y-91266534D01*
X95994033Y-91285101D01*
X95956340Y-91296535D01*
X95911005Y-91301000D01*
X94824327Y-91301000D01*
X94778992Y-91296535D01*
X94741299Y-91285101D01*
X94706563Y-91266534D01*
X94676118Y-91241548D01*
X94651132Y-91211103D01*
X94632565Y-91176367D01*
X94621131Y-91138674D01*
X94616666Y-91093339D01*
X94616666Y-90256661D01*
X94621131Y-90211326D01*
X94632565Y-90173633D01*
X94651132Y-90138897D01*
X94676118Y-90108452D01*
X94706563Y-90083466D01*
X94741299Y-90064899D01*
X94778992Y-90053465D01*
X94824327Y-90049000D01*
X95911005Y-90049000D01*
X95956340Y-90053465D01*
G37*
G36*
X119289672Y-90053465D02*
G01*
X119327365Y-90064899D01*
X119362101Y-90083466D01*
X119392546Y-90108452D01*
X119417532Y-90138897D01*
X119436099Y-90173633D01*
X119447533Y-90211326D01*
X119451998Y-90256661D01*
X119451998Y-91093339D01*
X119447533Y-91138674D01*
X119436099Y-91176367D01*
X119417532Y-91211103D01*
X119392546Y-91241548D01*
X119362101Y-91266534D01*
X119327365Y-91285101D01*
X119289672Y-91296535D01*
X119244337Y-91301000D01*
X118157659Y-91301000D01*
X118112324Y-91296535D01*
X118074631Y-91285101D01*
X118039895Y-91266534D01*
X118009450Y-91241548D01*
X117984464Y-91211103D01*
X117965897Y-91176367D01*
X117954463Y-91138674D01*
X117949998Y-91093339D01*
X117949998Y-90256661D01*
X117954463Y-90211326D01*
X117965897Y-90173633D01*
X117984464Y-90138897D01*
X118009450Y-90108452D01*
X118039895Y-90083466D01*
X118074631Y-90064899D01*
X118112324Y-90053465D01*
X118157659Y-90049000D01*
X119244337Y-90049000D01*
X119289672Y-90053465D01*
G37*
G36*
X142623004Y-90053465D02*
G01*
X142660697Y-90064899D01*
X142695433Y-90083466D01*
X142725878Y-90108452D01*
X142750864Y-90138897D01*
X142769431Y-90173633D01*
X142780865Y-90211326D01*
X142785330Y-90256661D01*
X142785330Y-91093339D01*
X142780865Y-91138674D01*
X142769431Y-91176367D01*
X142750864Y-91211103D01*
X142725878Y-91241548D01*
X142695433Y-91266534D01*
X142660697Y-91285101D01*
X142623004Y-91296535D01*
X142577669Y-91301000D01*
X141490991Y-91301000D01*
X141445656Y-91296535D01*
X141407963Y-91285101D01*
X141373227Y-91266534D01*
X141342782Y-91241548D01*
X141317796Y-91211103D01*
X141299229Y-91176367D01*
X141287795Y-91138674D01*
X141283330Y-91093339D01*
X141283330Y-90256661D01*
X141287795Y-90211326D01*
X141299229Y-90173633D01*
X141317796Y-90138897D01*
X141342782Y-90108452D01*
X141373227Y-90083466D01*
X141407963Y-90064899D01*
X141445656Y-90053465D01*
X141490991Y-90049000D01*
X142577669Y-90049000D01*
X142623004Y-90053465D01*
G37*
G36*
X98968666Y-91301000D02*
G01*
X97166666Y-91301000D01*
X97166666Y-89899000D01*
X98968666Y-89899000D01*
X98968666Y-91301000D01*
G37*
G36*
X95956340Y-88003465D02*
G01*
X95994033Y-88014899D01*
X96028769Y-88033466D01*
X96059214Y-88058452D01*
X96084200Y-88088897D01*
X96102767Y-88123633D01*
X96114201Y-88161326D01*
X96118666Y-88206661D01*
X96118666Y-89043339D01*
X96114201Y-89088674D01*
X96102767Y-89126367D01*
X96084200Y-89161103D01*
X96059214Y-89191548D01*
X96028769Y-89216534D01*
X95994033Y-89235101D01*
X95956340Y-89246535D01*
X95911005Y-89251000D01*
X94824327Y-89251000D01*
X94778992Y-89246535D01*
X94741299Y-89235101D01*
X94706563Y-89216534D01*
X94676118Y-89191548D01*
X94651132Y-89161103D01*
X94632565Y-89126367D01*
X94621131Y-89088674D01*
X94616666Y-89043339D01*
X94616666Y-88206661D01*
X94621131Y-88161326D01*
X94632565Y-88123633D01*
X94651132Y-88088897D01*
X94676118Y-88058452D01*
X94706563Y-88033466D01*
X94741299Y-88014899D01*
X94778992Y-88003465D01*
X94824327Y-87999000D01*
X95911005Y-87999000D01*
X95956340Y-88003465D01*
G37*
G36*
X119289672Y-88003465D02*
G01*
X119327365Y-88014899D01*
X119362101Y-88033466D01*
X119392546Y-88058452D01*
X119417532Y-88088897D01*
X119436099Y-88123633D01*
X119447533Y-88161326D01*
X119451998Y-88206661D01*
X119451998Y-89043339D01*
X119447533Y-89088674D01*
X119436099Y-89126367D01*
X119417532Y-89161103D01*
X119392546Y-89191548D01*
X119362101Y-89216534D01*
X119327365Y-89235101D01*
X119289672Y-89246535D01*
X119244337Y-89251000D01*
X118157659Y-89251000D01*
X118112324Y-89246535D01*
X118074631Y-89235101D01*
X118039895Y-89216534D01*
X118009450Y-89191548D01*
X117984464Y-89161103D01*
X117965897Y-89126367D01*
X117954463Y-89088674D01*
X117949998Y-89043339D01*
X117949998Y-88206661D01*
X117954463Y-88161326D01*
X117965897Y-88123633D01*
X117984464Y-88088897D01*
X118009450Y-88058452D01*
X118039895Y-88033466D01*
X118074631Y-88014899D01*
X118112324Y-88003465D01*
X118157659Y-87999000D01*
X119244337Y-87999000D01*
X119289672Y-88003465D01*
G37*
G36*
X142623004Y-88003465D02*
G01*
X142660697Y-88014899D01*
X142695433Y-88033466D01*
X142725878Y-88058452D01*
X142750864Y-88088897D01*
X142769431Y-88123633D01*
X142780865Y-88161326D01*
X142785330Y-88206661D01*
X142785330Y-89043339D01*
X142780865Y-89088674D01*
X142769431Y-89126367D01*
X142750864Y-89161103D01*
X142725878Y-89191548D01*
X142695433Y-89216534D01*
X142660697Y-89235101D01*
X142623004Y-89246535D01*
X142577669Y-89251000D01*
X141490991Y-89251000D01*
X141445656Y-89246535D01*
X141407963Y-89235101D01*
X141373227Y-89216534D01*
X141342782Y-89191548D01*
X141317796Y-89161103D01*
X141299229Y-89126367D01*
X141287795Y-89088674D01*
X141283330Y-89043339D01*
X141283330Y-88206661D01*
X141287795Y-88161326D01*
X141299229Y-88123633D01*
X141317796Y-88088897D01*
X141342782Y-88058452D01*
X141373227Y-88033466D01*
X141407963Y-88014899D01*
X141445656Y-88003465D01*
X141490991Y-87999000D01*
X142577669Y-87999000D01*
X142623004Y-88003465D01*
G37*
G36*
X152509004Y-86813098D02*
G01*
X152546697Y-86824532D01*
X152581433Y-86843099D01*
X152611878Y-86868085D01*
X152636864Y-86898530D01*
X152655431Y-86933266D01*
X152666865Y-86970959D01*
X152671330Y-87016294D01*
X152671330Y-87852972D01*
X152666865Y-87898307D01*
X152655431Y-87936000D01*
X152636864Y-87970736D01*
X152611878Y-88001181D01*
X152581433Y-88026167D01*
X152546697Y-88044734D01*
X152509004Y-88056168D01*
X152463669Y-88060633D01*
X151376991Y-88060633D01*
X151331656Y-88056168D01*
X151293963Y-88044734D01*
X151259227Y-88026167D01*
X151228782Y-88001181D01*
X151203796Y-87970736D01*
X151185229Y-87936000D01*
X151173795Y-87898307D01*
X151169330Y-87852972D01*
X151169330Y-87016294D01*
X151173795Y-86970959D01*
X151185229Y-86933266D01*
X151203796Y-86898530D01*
X151228782Y-86868085D01*
X151259227Y-86843099D01*
X151293963Y-86824532D01*
X151331656Y-86813098D01*
X151376991Y-86808633D01*
X152463669Y-86808633D01*
X152509004Y-86813098D01*
G37*
G36*
X129175672Y-86813098D02*
G01*
X129213365Y-86824532D01*
X129248101Y-86843099D01*
X129278546Y-86868085D01*
X129303532Y-86898530D01*
X129322099Y-86933266D01*
X129333533Y-86970959D01*
X129337998Y-87016294D01*
X129337998Y-87852972D01*
X129333533Y-87898307D01*
X129322099Y-87936000D01*
X129303532Y-87970736D01*
X129278546Y-88001181D01*
X129248101Y-88026167D01*
X129213365Y-88044734D01*
X129175672Y-88056168D01*
X129130337Y-88060633D01*
X128043659Y-88060633D01*
X127998324Y-88056168D01*
X127960631Y-88044734D01*
X127925895Y-88026167D01*
X127895450Y-88001181D01*
X127870464Y-87970736D01*
X127851897Y-87936000D01*
X127840463Y-87898307D01*
X127835998Y-87852972D01*
X127835998Y-87016294D01*
X127840463Y-86970959D01*
X127851897Y-86933266D01*
X127870464Y-86898530D01*
X127895450Y-86868085D01*
X127925895Y-86843099D01*
X127960631Y-86824532D01*
X127998324Y-86813098D01*
X128043659Y-86808633D01*
X129130337Y-86808633D01*
X129175672Y-86813098D01*
G37*
G36*
X105842340Y-86813098D02*
G01*
X105880033Y-86824532D01*
X105914769Y-86843099D01*
X105945214Y-86868085D01*
X105970200Y-86898530D01*
X105988767Y-86933266D01*
X106000201Y-86970959D01*
X106004666Y-87016294D01*
X106004666Y-87852972D01*
X106000201Y-87898307D01*
X105988767Y-87936000D01*
X105970200Y-87970736D01*
X105945214Y-88001181D01*
X105914769Y-88026167D01*
X105880033Y-88044734D01*
X105842340Y-88056168D01*
X105797005Y-88060633D01*
X104710327Y-88060633D01*
X104664992Y-88056168D01*
X104627299Y-88044734D01*
X104592563Y-88026167D01*
X104562118Y-88001181D01*
X104537132Y-87970736D01*
X104518565Y-87936000D01*
X104507131Y-87898307D01*
X104502666Y-87852972D01*
X104502666Y-87016294D01*
X104507131Y-86970959D01*
X104518565Y-86933266D01*
X104537132Y-86898530D01*
X104562118Y-86868085D01*
X104592563Y-86843099D01*
X104627299Y-86824532D01*
X104664992Y-86813098D01*
X104710327Y-86808633D01*
X105797005Y-86808633D01*
X105842340Y-86813098D01*
G37*
G36*
X98968666Y-87801000D02*
G01*
X97166666Y-87801000D01*
X97166666Y-86399000D01*
X98968666Y-86399000D01*
X98968666Y-87801000D01*
G37*
G36*
X122301998Y-87801000D02*
G01*
X120499998Y-87801000D01*
X120499998Y-86399000D01*
X122301998Y-86399000D01*
X122301998Y-87801000D01*
G37*
G36*
X145635330Y-87801000D02*
G01*
X143833330Y-87801000D01*
X143833330Y-86399000D01*
X145635330Y-86399000D01*
X145635330Y-87801000D01*
G37*
G36*
X119164672Y-85503465D02*
G01*
X119202365Y-85514899D01*
X119237101Y-85533466D01*
X119267546Y-85558452D01*
X119292532Y-85588897D01*
X119311099Y-85623633D01*
X119322533Y-85661326D01*
X119326998Y-85706661D01*
X119326998Y-86793339D01*
X119322533Y-86838674D01*
X119311099Y-86876367D01*
X119292532Y-86911103D01*
X119267546Y-86941548D01*
X119237101Y-86966534D01*
X119202365Y-86985101D01*
X119164672Y-86996535D01*
X119119337Y-87001000D01*
X118282659Y-87001000D01*
X118237324Y-86996535D01*
X118199631Y-86985101D01*
X118164895Y-86966534D01*
X118134450Y-86941548D01*
X118109464Y-86911103D01*
X118090897Y-86876367D01*
X118079463Y-86838674D01*
X118074998Y-86793339D01*
X118074998Y-85706661D01*
X118079463Y-85661326D01*
X118090897Y-85623633D01*
X118109464Y-85588897D01*
X118134450Y-85558452D01*
X118164895Y-85533466D01*
X118199631Y-85514899D01*
X118237324Y-85503465D01*
X118282659Y-85499000D01*
X119119337Y-85499000D01*
X119164672Y-85503465D01*
G37*
G36*
X142498004Y-85503465D02*
G01*
X142535697Y-85514899D01*
X142570433Y-85533466D01*
X142600878Y-85558452D01*
X142625864Y-85588897D01*
X142644431Y-85623633D01*
X142655865Y-85661326D01*
X142660330Y-85706661D01*
X142660330Y-86793339D01*
X142655865Y-86838674D01*
X142644431Y-86876367D01*
X142625864Y-86911103D01*
X142600878Y-86941548D01*
X142570433Y-86966534D01*
X142535697Y-86985101D01*
X142498004Y-86996535D01*
X142452669Y-87001000D01*
X141615991Y-87001000D01*
X141570656Y-86996535D01*
X141532963Y-86985101D01*
X141498227Y-86966534D01*
X141467782Y-86941548D01*
X141442796Y-86911103D01*
X141424229Y-86876367D01*
X141412795Y-86838674D01*
X141408330Y-86793339D01*
X141408330Y-85706661D01*
X141412795Y-85661326D01*
X141424229Y-85623633D01*
X141442796Y-85588897D01*
X141467782Y-85558452D01*
X141498227Y-85533466D01*
X141532963Y-85514899D01*
X141570656Y-85503465D01*
X141615991Y-85499000D01*
X142452669Y-85499000D01*
X142498004Y-85503465D01*
G37*
G36*
X140448004Y-85503465D02*
G01*
X140485697Y-85514899D01*
X140520433Y-85533466D01*
X140550878Y-85558452D01*
X140575864Y-85588897D01*
X140594431Y-85623633D01*
X140605865Y-85661326D01*
X140610330Y-85706661D01*
X140610330Y-86793339D01*
X140605865Y-86838674D01*
X140594431Y-86876367D01*
X140575864Y-86911103D01*
X140550878Y-86941548D01*
X140520433Y-86966534D01*
X140485697Y-86985101D01*
X140448004Y-86996535D01*
X140402669Y-87001000D01*
X139565991Y-87001000D01*
X139520656Y-86996535D01*
X139482963Y-86985101D01*
X139448227Y-86966534D01*
X139417782Y-86941548D01*
X139392796Y-86911103D01*
X139374229Y-86876367D01*
X139362795Y-86838674D01*
X139358330Y-86793339D01*
X139358330Y-85706661D01*
X139362795Y-85661326D01*
X139374229Y-85623633D01*
X139392796Y-85588897D01*
X139417782Y-85558452D01*
X139448227Y-85533466D01*
X139482963Y-85514899D01*
X139520656Y-85503465D01*
X139565991Y-85499000D01*
X140402669Y-85499000D01*
X140448004Y-85503465D01*
G37*
G36*
X93781340Y-85503465D02*
G01*
X93819033Y-85514899D01*
X93853769Y-85533466D01*
X93884214Y-85558452D01*
X93909200Y-85588897D01*
X93927767Y-85623633D01*
X93939201Y-85661326D01*
X93943666Y-85706661D01*
X93943666Y-86793339D01*
X93939201Y-86838674D01*
X93927767Y-86876367D01*
X93909200Y-86911103D01*
X93884214Y-86941548D01*
X93853769Y-86966534D01*
X93819033Y-86985101D01*
X93781340Y-86996535D01*
X93736005Y-87001000D01*
X92899327Y-87001000D01*
X92853992Y-86996535D01*
X92816299Y-86985101D01*
X92781563Y-86966534D01*
X92751118Y-86941548D01*
X92726132Y-86911103D01*
X92707565Y-86876367D01*
X92696131Y-86838674D01*
X92691666Y-86793339D01*
X92691666Y-85706661D01*
X92696131Y-85661326D01*
X92707565Y-85623633D01*
X92726132Y-85588897D01*
X92751118Y-85558452D01*
X92781563Y-85533466D01*
X92816299Y-85514899D01*
X92853992Y-85503465D01*
X92899327Y-85499000D01*
X93736005Y-85499000D01*
X93781340Y-85503465D01*
G37*
G36*
X95831340Y-85503465D02*
G01*
X95869033Y-85514899D01*
X95903769Y-85533466D01*
X95934214Y-85558452D01*
X95959200Y-85588897D01*
X95977767Y-85623633D01*
X95989201Y-85661326D01*
X95993666Y-85706661D01*
X95993666Y-86793339D01*
X95989201Y-86838674D01*
X95977767Y-86876367D01*
X95959200Y-86911103D01*
X95934214Y-86941548D01*
X95903769Y-86966534D01*
X95869033Y-86985101D01*
X95831340Y-86996535D01*
X95786005Y-87001000D01*
X94949327Y-87001000D01*
X94903992Y-86996535D01*
X94866299Y-86985101D01*
X94831563Y-86966534D01*
X94801118Y-86941548D01*
X94776132Y-86911103D01*
X94757565Y-86876367D01*
X94746131Y-86838674D01*
X94741666Y-86793339D01*
X94741666Y-85706661D01*
X94746131Y-85661326D01*
X94757565Y-85623633D01*
X94776132Y-85588897D01*
X94801118Y-85558452D01*
X94831563Y-85533466D01*
X94866299Y-85514899D01*
X94903992Y-85503465D01*
X94949327Y-85499000D01*
X95786005Y-85499000D01*
X95831340Y-85503465D01*
G37*
G36*
X117114672Y-85503465D02*
G01*
X117152365Y-85514899D01*
X117187101Y-85533466D01*
X117217546Y-85558452D01*
X117242532Y-85588897D01*
X117261099Y-85623633D01*
X117272533Y-85661326D01*
X117276998Y-85706661D01*
X117276998Y-86793339D01*
X117272533Y-86838674D01*
X117261099Y-86876367D01*
X117242532Y-86911103D01*
X117217546Y-86941548D01*
X117187101Y-86966534D01*
X117152365Y-86985101D01*
X117114672Y-86996535D01*
X117069337Y-87001000D01*
X116232659Y-87001000D01*
X116187324Y-86996535D01*
X116149631Y-86985101D01*
X116114895Y-86966534D01*
X116084450Y-86941548D01*
X116059464Y-86911103D01*
X116040897Y-86876367D01*
X116029463Y-86838674D01*
X116024998Y-86793339D01*
X116024998Y-85706661D01*
X116029463Y-85661326D01*
X116040897Y-85623633D01*
X116059464Y-85588897D01*
X116084450Y-85558452D01*
X116114895Y-85533466D01*
X116149631Y-85514899D01*
X116187324Y-85503465D01*
X116232659Y-85499000D01*
X117069337Y-85499000D01*
X117114672Y-85503465D01*
G37*
G36*
X147841004Y-84638098D02*
G01*
X147878697Y-84649532D01*
X147913433Y-84668099D01*
X147943878Y-84693085D01*
X147968864Y-84723530D01*
X147987431Y-84758266D01*
X147998865Y-84795959D01*
X148003330Y-84841294D01*
X148003330Y-85927972D01*
X147998865Y-85973307D01*
X147987431Y-86011000D01*
X147968864Y-86045736D01*
X147943878Y-86076181D01*
X147913433Y-86101167D01*
X147878697Y-86119734D01*
X147841004Y-86131168D01*
X147795669Y-86135633D01*
X146958991Y-86135633D01*
X146913656Y-86131168D01*
X146875963Y-86119734D01*
X146841227Y-86101167D01*
X146810782Y-86076181D01*
X146785796Y-86045736D01*
X146767229Y-86011000D01*
X146755795Y-85973307D01*
X146751330Y-85927972D01*
X146751330Y-84841294D01*
X146755795Y-84795959D01*
X146767229Y-84758266D01*
X146785796Y-84723530D01*
X146810782Y-84693085D01*
X146841227Y-84668099D01*
X146875963Y-84649532D01*
X146913656Y-84638098D01*
X146958991Y-84633633D01*
X147795669Y-84633633D01*
X147841004Y-84638098D01*
G37*
G36*
X124507672Y-84638098D02*
G01*
X124545365Y-84649532D01*
X124580101Y-84668099D01*
X124610546Y-84693085D01*
X124635532Y-84723530D01*
X124654099Y-84758266D01*
X124665533Y-84795959D01*
X124669998Y-84841294D01*
X124669998Y-85927972D01*
X124665533Y-85973307D01*
X124654099Y-86011000D01*
X124635532Y-86045736D01*
X124610546Y-86076181D01*
X124580101Y-86101167D01*
X124545365Y-86119734D01*
X124507672Y-86131168D01*
X124462337Y-86135633D01*
X123625659Y-86135633D01*
X123580324Y-86131168D01*
X123542631Y-86119734D01*
X123507895Y-86101167D01*
X123477450Y-86076181D01*
X123452464Y-86045736D01*
X123433897Y-86011000D01*
X123422463Y-85973307D01*
X123417998Y-85927972D01*
X123417998Y-84841294D01*
X123422463Y-84795959D01*
X123433897Y-84758266D01*
X123452464Y-84723530D01*
X123477450Y-84693085D01*
X123507895Y-84668099D01*
X123542631Y-84649532D01*
X123580324Y-84638098D01*
X123625659Y-84633633D01*
X124462337Y-84633633D01*
X124507672Y-84638098D01*
G37*
G36*
X101174340Y-84638098D02*
G01*
X101212033Y-84649532D01*
X101246769Y-84668099D01*
X101277214Y-84693085D01*
X101302200Y-84723530D01*
X101320767Y-84758266D01*
X101332201Y-84795959D01*
X101336666Y-84841294D01*
X101336666Y-85927972D01*
X101332201Y-85973307D01*
X101320767Y-86011000D01*
X101302200Y-86045736D01*
X101277214Y-86076181D01*
X101246769Y-86101167D01*
X101212033Y-86119734D01*
X101174340Y-86131168D01*
X101129005Y-86135633D01*
X100292327Y-86135633D01*
X100246992Y-86131168D01*
X100209299Y-86119734D01*
X100174563Y-86101167D01*
X100144118Y-86076181D01*
X100119132Y-86045736D01*
X100100565Y-86011000D01*
X100089131Y-85973307D01*
X100084666Y-85927972D01*
X100084666Y-84841294D01*
X100089131Y-84795959D01*
X100100565Y-84758266D01*
X100119132Y-84723530D01*
X100144118Y-84693085D01*
X100174563Y-84668099D01*
X100209299Y-84649532D01*
X100246992Y-84638098D01*
X100292327Y-84633633D01*
X101129005Y-84633633D01*
X101174340Y-84638098D01*
G37*
G36*
X149891004Y-84638098D02*
G01*
X149928697Y-84649532D01*
X149963433Y-84668099D01*
X149993878Y-84693085D01*
X150018864Y-84723530D01*
X150037431Y-84758266D01*
X150048865Y-84795959D01*
X150053330Y-84841294D01*
X150053330Y-85927972D01*
X150048865Y-85973307D01*
X150037431Y-86011000D01*
X150018864Y-86045736D01*
X149993878Y-86076181D01*
X149963433Y-86101167D01*
X149928697Y-86119734D01*
X149891004Y-86131168D01*
X149845669Y-86135633D01*
X149008991Y-86135633D01*
X148963656Y-86131168D01*
X148925963Y-86119734D01*
X148891227Y-86101167D01*
X148860782Y-86076181D01*
X148835796Y-86045736D01*
X148817229Y-86011000D01*
X148805795Y-85973307D01*
X148801330Y-85927972D01*
X148801330Y-84841294D01*
X148805795Y-84795959D01*
X148817229Y-84758266D01*
X148835796Y-84723530D01*
X148860782Y-84693085D01*
X148891227Y-84668099D01*
X148925963Y-84649532D01*
X148963656Y-84638098D01*
X149008991Y-84633633D01*
X149845669Y-84633633D01*
X149891004Y-84638098D01*
G37*
G36*
X126557672Y-84638098D02*
G01*
X126595365Y-84649532D01*
X126630101Y-84668099D01*
X126660546Y-84693085D01*
X126685532Y-84723530D01*
X126704099Y-84758266D01*
X126715533Y-84795959D01*
X126719998Y-84841294D01*
X126719998Y-85927972D01*
X126715533Y-85973307D01*
X126704099Y-86011000D01*
X126685532Y-86045736D01*
X126660546Y-86076181D01*
X126630101Y-86101167D01*
X126595365Y-86119734D01*
X126557672Y-86131168D01*
X126512337Y-86135633D01*
X125675659Y-86135633D01*
X125630324Y-86131168D01*
X125592631Y-86119734D01*
X125557895Y-86101167D01*
X125527450Y-86076181D01*
X125502464Y-86045736D01*
X125483897Y-86011000D01*
X125472463Y-85973307D01*
X125467998Y-85927972D01*
X125467998Y-84841294D01*
X125472463Y-84795959D01*
X125483897Y-84758266D01*
X125502464Y-84723530D01*
X125527450Y-84693085D01*
X125557895Y-84668099D01*
X125592631Y-84649532D01*
X125630324Y-84638098D01*
X125675659Y-84633633D01*
X126512337Y-84633633D01*
X126557672Y-84638098D01*
G37*
G36*
X103224340Y-84638098D02*
G01*
X103262033Y-84649532D01*
X103296769Y-84668099D01*
X103327214Y-84693085D01*
X103352200Y-84723530D01*
X103370767Y-84758266D01*
X103382201Y-84795959D01*
X103386666Y-84841294D01*
X103386666Y-85927972D01*
X103382201Y-85973307D01*
X103370767Y-86011000D01*
X103352200Y-86045736D01*
X103327214Y-86076181D01*
X103296769Y-86101167D01*
X103262033Y-86119734D01*
X103224340Y-86131168D01*
X103179005Y-86135633D01*
X102342327Y-86135633D01*
X102296992Y-86131168D01*
X102259299Y-86119734D01*
X102224563Y-86101167D01*
X102194118Y-86076181D01*
X102169132Y-86045736D01*
X102150565Y-86011000D01*
X102139131Y-85973307D01*
X102134666Y-85927972D01*
X102134666Y-84841294D01*
X102139131Y-84795959D01*
X102150565Y-84758266D01*
X102169132Y-84723530D01*
X102194118Y-84693085D01*
X102224563Y-84668099D01*
X102259299Y-84649532D01*
X102296992Y-84638098D01*
X102342327Y-84633633D01*
X103179005Y-84633633D01*
X103224340Y-84638098D01*
G37*
G36*
X152509004Y-84763098D02*
G01*
X152546697Y-84774532D01*
X152581433Y-84793099D01*
X152611878Y-84818085D01*
X152636864Y-84848530D01*
X152655431Y-84883266D01*
X152666865Y-84920959D01*
X152671330Y-84966294D01*
X152671330Y-85802972D01*
X152666865Y-85848307D01*
X152655431Y-85886000D01*
X152636864Y-85920736D01*
X152611878Y-85951181D01*
X152581433Y-85976167D01*
X152546697Y-85994734D01*
X152509004Y-86006168D01*
X152463669Y-86010633D01*
X151376991Y-86010633D01*
X151331656Y-86006168D01*
X151293963Y-85994734D01*
X151259227Y-85976167D01*
X151228782Y-85951181D01*
X151203796Y-85920736D01*
X151185229Y-85886000D01*
X151173795Y-85848307D01*
X151169330Y-85802972D01*
X151169330Y-84966294D01*
X151173795Y-84920959D01*
X151185229Y-84883266D01*
X151203796Y-84848530D01*
X151228782Y-84818085D01*
X151259227Y-84793099D01*
X151293963Y-84774532D01*
X151331656Y-84763098D01*
X151376991Y-84758633D01*
X152463669Y-84758633D01*
X152509004Y-84763098D01*
G37*
G36*
X129175672Y-84763098D02*
G01*
X129213365Y-84774532D01*
X129248101Y-84793099D01*
X129278546Y-84818085D01*
X129303532Y-84848530D01*
X129322099Y-84883266D01*
X129333533Y-84920959D01*
X129337998Y-84966294D01*
X129337998Y-85802972D01*
X129333533Y-85848307D01*
X129322099Y-85886000D01*
X129303532Y-85920736D01*
X129278546Y-85951181D01*
X129248101Y-85976167D01*
X129213365Y-85994734D01*
X129175672Y-86006168D01*
X129130337Y-86010633D01*
X128043659Y-86010633D01*
X127998324Y-86006168D01*
X127960631Y-85994734D01*
X127925895Y-85976167D01*
X127895450Y-85951181D01*
X127870464Y-85920736D01*
X127851897Y-85886000D01*
X127840463Y-85848307D01*
X127835998Y-85802972D01*
X127835998Y-84966294D01*
X127840463Y-84920959D01*
X127851897Y-84883266D01*
X127870464Y-84848530D01*
X127895450Y-84818085D01*
X127925895Y-84793099D01*
X127960631Y-84774532D01*
X127998324Y-84763098D01*
X128043659Y-84758633D01*
X129130337Y-84758633D01*
X129175672Y-84763098D01*
G37*
G36*
X105842340Y-84763098D02*
G01*
X105880033Y-84774532D01*
X105914769Y-84793099D01*
X105945214Y-84818085D01*
X105970200Y-84848530D01*
X105988767Y-84883266D01*
X106000201Y-84920959D01*
X106004666Y-84966294D01*
X106004666Y-85802972D01*
X106000201Y-85848307D01*
X105988767Y-85886000D01*
X105970200Y-85920736D01*
X105945214Y-85951181D01*
X105914769Y-85976167D01*
X105880033Y-85994734D01*
X105842340Y-86006168D01*
X105797005Y-86010633D01*
X104710327Y-86010633D01*
X104664992Y-86006168D01*
X104627299Y-85994734D01*
X104592563Y-85976167D01*
X104562118Y-85951181D01*
X104537132Y-85920736D01*
X104518565Y-85886000D01*
X104507131Y-85848307D01*
X104502666Y-85802972D01*
X104502666Y-84966294D01*
X104507131Y-84920959D01*
X104518565Y-84883266D01*
X104537132Y-84848530D01*
X104562118Y-84818085D01*
X104592563Y-84793099D01*
X104627299Y-84774532D01*
X104664992Y-84763098D01*
X104710327Y-84758633D01*
X105797005Y-84758633D01*
X105842340Y-84763098D01*
G37*
G36*
X119164672Y-83003465D02*
G01*
X119202365Y-83014899D01*
X119237101Y-83033466D01*
X119267546Y-83058452D01*
X119292532Y-83088897D01*
X119311099Y-83123633D01*
X119322533Y-83161326D01*
X119326998Y-83206661D01*
X119326998Y-84293339D01*
X119322533Y-84338674D01*
X119311099Y-84376367D01*
X119292532Y-84411103D01*
X119267546Y-84441548D01*
X119237101Y-84466534D01*
X119202365Y-84485101D01*
X119164672Y-84496535D01*
X119119337Y-84501000D01*
X118282659Y-84501000D01*
X118237324Y-84496535D01*
X118199631Y-84485101D01*
X118164895Y-84466534D01*
X118134450Y-84441548D01*
X118109464Y-84411103D01*
X118090897Y-84376367D01*
X118079463Y-84338674D01*
X118074998Y-84293339D01*
X118074998Y-83206661D01*
X118079463Y-83161326D01*
X118090897Y-83123633D01*
X118109464Y-83088897D01*
X118134450Y-83058452D01*
X118164895Y-83033466D01*
X118199631Y-83014899D01*
X118237324Y-83003465D01*
X118282659Y-82999000D01*
X119119337Y-82999000D01*
X119164672Y-83003465D01*
G37*
G36*
X93781340Y-83003465D02*
G01*
X93819033Y-83014899D01*
X93853769Y-83033466D01*
X93884214Y-83058452D01*
X93909200Y-83088897D01*
X93927767Y-83123633D01*
X93939201Y-83161326D01*
X93943666Y-83206661D01*
X93943666Y-84293339D01*
X93939201Y-84338674D01*
X93927767Y-84376367D01*
X93909200Y-84411103D01*
X93884214Y-84441548D01*
X93853769Y-84466534D01*
X93819033Y-84485101D01*
X93781340Y-84496535D01*
X93736005Y-84501000D01*
X92899327Y-84501000D01*
X92853992Y-84496535D01*
X92816299Y-84485101D01*
X92781563Y-84466534D01*
X92751118Y-84441548D01*
X92726132Y-84411103D01*
X92707565Y-84376367D01*
X92696131Y-84338674D01*
X92691666Y-84293339D01*
X92691666Y-83206661D01*
X92696131Y-83161326D01*
X92707565Y-83123633D01*
X92726132Y-83088897D01*
X92751118Y-83058452D01*
X92781563Y-83033466D01*
X92816299Y-83014899D01*
X92853992Y-83003465D01*
X92899327Y-82999000D01*
X93736005Y-82999000D01*
X93781340Y-83003465D01*
G37*
G36*
X95831340Y-83003465D02*
G01*
X95869033Y-83014899D01*
X95903769Y-83033466D01*
X95934214Y-83058452D01*
X95959200Y-83088897D01*
X95977767Y-83123633D01*
X95989201Y-83161326D01*
X95993666Y-83206661D01*
X95993666Y-84293339D01*
X95989201Y-84338674D01*
X95977767Y-84376367D01*
X95959200Y-84411103D01*
X95934214Y-84441548D01*
X95903769Y-84466534D01*
X95869033Y-84485101D01*
X95831340Y-84496535D01*
X95786005Y-84501000D01*
X94949327Y-84501000D01*
X94903992Y-84496535D01*
X94866299Y-84485101D01*
X94831563Y-84466534D01*
X94801118Y-84441548D01*
X94776132Y-84411103D01*
X94757565Y-84376367D01*
X94746131Y-84338674D01*
X94741666Y-84293339D01*
X94741666Y-83206661D01*
X94746131Y-83161326D01*
X94757565Y-83123633D01*
X94776132Y-83088897D01*
X94801118Y-83058452D01*
X94831563Y-83033466D01*
X94866299Y-83014899D01*
X94903992Y-83003465D01*
X94949327Y-82999000D01*
X95786005Y-82999000D01*
X95831340Y-83003465D01*
G37*
G36*
X117114672Y-83003465D02*
G01*
X117152365Y-83014899D01*
X117187101Y-83033466D01*
X117217546Y-83058452D01*
X117242532Y-83088897D01*
X117261099Y-83123633D01*
X117272533Y-83161326D01*
X117276998Y-83206661D01*
X117276998Y-84293339D01*
X117272533Y-84338674D01*
X117261099Y-84376367D01*
X117242532Y-84411103D01*
X117217546Y-84441548D01*
X117187101Y-84466534D01*
X117152365Y-84485101D01*
X117114672Y-84496535D01*
X117069337Y-84501000D01*
X116232659Y-84501000D01*
X116187324Y-84496535D01*
X116149631Y-84485101D01*
X116114895Y-84466534D01*
X116084450Y-84441548D01*
X116059464Y-84411103D01*
X116040897Y-84376367D01*
X116029463Y-84338674D01*
X116024998Y-84293339D01*
X116024998Y-83206661D01*
X116029463Y-83161326D01*
X116040897Y-83123633D01*
X116059464Y-83088897D01*
X116084450Y-83058452D01*
X116114895Y-83033466D01*
X116149631Y-83014899D01*
X116187324Y-83003465D01*
X116232659Y-82999000D01*
X117069337Y-82999000D01*
X117114672Y-83003465D01*
G37*
G36*
X140448004Y-83003465D02*
G01*
X140485697Y-83014899D01*
X140520433Y-83033466D01*
X140550878Y-83058452D01*
X140575864Y-83088897D01*
X140594431Y-83123633D01*
X140605865Y-83161326D01*
X140610330Y-83206661D01*
X140610330Y-84293339D01*
X140605865Y-84338674D01*
X140594431Y-84376367D01*
X140575864Y-84411103D01*
X140550878Y-84441548D01*
X140520433Y-84466534D01*
X140485697Y-84485101D01*
X140448004Y-84496535D01*
X140402669Y-84501000D01*
X139565991Y-84501000D01*
X139520656Y-84496535D01*
X139482963Y-84485101D01*
X139448227Y-84466534D01*
X139417782Y-84441548D01*
X139392796Y-84411103D01*
X139374229Y-84376367D01*
X139362795Y-84338674D01*
X139358330Y-84293339D01*
X139358330Y-83206661D01*
X139362795Y-83161326D01*
X139374229Y-83123633D01*
X139392796Y-83088897D01*
X139417782Y-83058452D01*
X139448227Y-83033466D01*
X139482963Y-83014899D01*
X139520656Y-83003465D01*
X139565991Y-82999000D01*
X140402669Y-82999000D01*
X140448004Y-83003465D01*
G37*
G36*
X142498004Y-83003465D02*
G01*
X142535697Y-83014899D01*
X142570433Y-83033466D01*
X142600878Y-83058452D01*
X142625864Y-83088897D01*
X142644431Y-83123633D01*
X142655865Y-83161326D01*
X142660330Y-83206661D01*
X142660330Y-84293339D01*
X142655865Y-84338674D01*
X142644431Y-84376367D01*
X142625864Y-84411103D01*
X142600878Y-84441548D01*
X142570433Y-84466534D01*
X142535697Y-84485101D01*
X142498004Y-84496535D01*
X142452669Y-84501000D01*
X141615991Y-84501000D01*
X141570656Y-84496535D01*
X141532963Y-84485101D01*
X141498227Y-84466534D01*
X141467782Y-84441548D01*
X141442796Y-84411103D01*
X141424229Y-84376367D01*
X141412795Y-84338674D01*
X141408330Y-84293339D01*
X141408330Y-83206661D01*
X141412795Y-83161326D01*
X141424229Y-83123633D01*
X141442796Y-83088897D01*
X141467782Y-83058452D01*
X141498227Y-83033466D01*
X141532963Y-83014899D01*
X141570656Y-83003465D01*
X141615991Y-82999000D01*
X142452669Y-82999000D01*
X142498004Y-83003465D01*
G37*
G36*
X129175672Y-82232465D02*
G01*
X129213365Y-82243899D01*
X129248101Y-82262466D01*
X129278546Y-82287452D01*
X129303532Y-82317897D01*
X129322099Y-82352633D01*
X129333533Y-82390326D01*
X129337998Y-82435661D01*
X129337998Y-83272339D01*
X129333533Y-83317674D01*
X129322099Y-83355367D01*
X129303532Y-83390103D01*
X129278546Y-83420548D01*
X129248101Y-83445534D01*
X129213365Y-83464101D01*
X129175672Y-83475535D01*
X129130337Y-83480000D01*
X128043659Y-83480000D01*
X127998324Y-83475535D01*
X127960631Y-83464101D01*
X127925895Y-83445534D01*
X127895450Y-83420548D01*
X127870464Y-83390103D01*
X127851897Y-83355367D01*
X127840463Y-83317674D01*
X127835998Y-83272339D01*
X127835998Y-82435661D01*
X127840463Y-82390326D01*
X127851897Y-82352633D01*
X127870464Y-82317897D01*
X127895450Y-82287452D01*
X127925895Y-82262466D01*
X127960631Y-82243899D01*
X127998324Y-82232465D01*
X128043659Y-82228000D01*
X129130337Y-82228000D01*
X129175672Y-82232465D01*
G37*
G36*
X152509004Y-82232465D02*
G01*
X152546697Y-82243899D01*
X152581433Y-82262466D01*
X152611878Y-82287452D01*
X152636864Y-82317897D01*
X152655431Y-82352633D01*
X152666865Y-82390326D01*
X152671330Y-82435661D01*
X152671330Y-83272339D01*
X152666865Y-83317674D01*
X152655431Y-83355367D01*
X152636864Y-83390103D01*
X152611878Y-83420548D01*
X152581433Y-83445534D01*
X152546697Y-83464101D01*
X152509004Y-83475535D01*
X152463669Y-83480000D01*
X151376991Y-83480000D01*
X151331656Y-83475535D01*
X151293963Y-83464101D01*
X151259227Y-83445534D01*
X151228782Y-83420548D01*
X151203796Y-83390103D01*
X151185229Y-83355367D01*
X151173795Y-83317674D01*
X151169330Y-83272339D01*
X151169330Y-82435661D01*
X151173795Y-82390326D01*
X151185229Y-82352633D01*
X151203796Y-82317897D01*
X151228782Y-82287452D01*
X151259227Y-82262466D01*
X151293963Y-82243899D01*
X151331656Y-82232465D01*
X151376991Y-82228000D01*
X152463669Y-82228000D01*
X152509004Y-82232465D01*
G37*
G36*
X105842340Y-82232465D02*
G01*
X105880033Y-82243899D01*
X105914769Y-82262466D01*
X105945214Y-82287452D01*
X105970200Y-82317897D01*
X105988767Y-82352633D01*
X106000201Y-82390326D01*
X106004666Y-82435661D01*
X106004666Y-83272339D01*
X106000201Y-83317674D01*
X105988767Y-83355367D01*
X105970200Y-83390103D01*
X105945214Y-83420548D01*
X105914769Y-83445534D01*
X105880033Y-83464101D01*
X105842340Y-83475535D01*
X105797005Y-83480000D01*
X104710327Y-83480000D01*
X104664992Y-83475535D01*
X104627299Y-83464101D01*
X104592563Y-83445534D01*
X104562118Y-83420548D01*
X104537132Y-83390103D01*
X104518565Y-83355367D01*
X104507131Y-83317674D01*
X104502666Y-83272339D01*
X104502666Y-82435661D01*
X104507131Y-82390326D01*
X104518565Y-82352633D01*
X104537132Y-82317897D01*
X104562118Y-82287452D01*
X104592563Y-82262466D01*
X104627299Y-82243899D01*
X104664992Y-82232465D01*
X104710327Y-82228000D01*
X105797005Y-82228000D01*
X105842340Y-82232465D01*
G37*
G36*
X96078666Y-81961000D02*
G01*
X94656666Y-81961000D01*
X94656666Y-80539000D01*
X96078666Y-80539000D01*
X96078666Y-81961000D01*
G37*
G36*
X93538666Y-81961000D02*
G01*
X92116666Y-81961000D01*
X92116666Y-80539000D01*
X93538666Y-80539000D01*
X93538666Y-81961000D01*
G37*
G36*
X145285330Y-81961000D02*
G01*
X143863330Y-81961000D01*
X143863330Y-80539000D01*
X145285330Y-80539000D01*
X145285330Y-81961000D01*
G37*
G36*
X142745330Y-81961000D02*
G01*
X141323330Y-81961000D01*
X141323330Y-80539000D01*
X142745330Y-80539000D01*
X142745330Y-81961000D01*
G37*
G36*
X140205330Y-81961000D02*
G01*
X138783330Y-81961000D01*
X138783330Y-80539000D01*
X140205330Y-80539000D01*
X140205330Y-81961000D01*
G37*
G36*
X137665330Y-81961000D02*
G01*
X136243330Y-81961000D01*
X136243330Y-80539000D01*
X137665330Y-80539000D01*
X137665330Y-81961000D01*
G37*
G36*
X119411998Y-81961000D02*
G01*
X117989998Y-81961000D01*
X117989998Y-80539000D01*
X119411998Y-80539000D01*
X119411998Y-81961000D01*
G37*
G36*
X114331998Y-81961000D02*
G01*
X112909998Y-81961000D01*
X112909998Y-80539000D01*
X114331998Y-80539000D01*
X114331998Y-81961000D01*
G37*
G36*
X98618666Y-81961000D02*
G01*
X97196666Y-81961000D01*
X97196666Y-80539000D01*
X98618666Y-80539000D01*
X98618666Y-81961000D01*
G37*
G36*
X121951998Y-81961000D02*
G01*
X120529998Y-81961000D01*
X120529998Y-80539000D01*
X121951998Y-80539000D01*
X121951998Y-81961000D01*
G37*
G36*
X90998666Y-81961000D02*
G01*
X89576666Y-81961000D01*
X89576666Y-80539000D01*
X90998666Y-80539000D01*
X90998666Y-81961000D01*
G37*
G36*
X116871998Y-81961000D02*
G01*
X115449998Y-81961000D01*
X115449998Y-80539000D01*
X116871998Y-80539000D01*
X116871998Y-81961000D01*
G37*
G36*
X152509004Y-80182465D02*
G01*
X152546697Y-80193899D01*
X152581433Y-80212466D01*
X152611878Y-80237452D01*
X152636864Y-80267897D01*
X152655431Y-80302633D01*
X152666865Y-80340326D01*
X152671330Y-80385661D01*
X152671330Y-81222339D01*
X152666865Y-81267674D01*
X152655431Y-81305367D01*
X152636864Y-81340103D01*
X152611878Y-81370548D01*
X152581433Y-81395534D01*
X152546697Y-81414101D01*
X152509004Y-81425535D01*
X152463669Y-81430000D01*
X151376991Y-81430000D01*
X151331656Y-81425535D01*
X151293963Y-81414101D01*
X151259227Y-81395534D01*
X151228782Y-81370548D01*
X151203796Y-81340103D01*
X151185229Y-81305367D01*
X151173795Y-81267674D01*
X151169330Y-81222339D01*
X151169330Y-80385661D01*
X151173795Y-80340326D01*
X151185229Y-80302633D01*
X151203796Y-80267897D01*
X151228782Y-80237452D01*
X151259227Y-80212466D01*
X151293963Y-80193899D01*
X151331656Y-80182465D01*
X151376991Y-80178000D01*
X152463669Y-80178000D01*
X152509004Y-80182465D01*
G37*
G36*
X129175672Y-80182465D02*
G01*
X129213365Y-80193899D01*
X129248101Y-80212466D01*
X129278546Y-80237452D01*
X129303532Y-80267897D01*
X129322099Y-80302633D01*
X129333533Y-80340326D01*
X129337998Y-80385661D01*
X129337998Y-81222339D01*
X129333533Y-81267674D01*
X129322099Y-81305367D01*
X129303532Y-81340103D01*
X129278546Y-81370548D01*
X129248101Y-81395534D01*
X129213365Y-81414101D01*
X129175672Y-81425535D01*
X129130337Y-81430000D01*
X128043659Y-81430000D01*
X127998324Y-81425535D01*
X127960631Y-81414101D01*
X127925895Y-81395534D01*
X127895450Y-81370548D01*
X127870464Y-81340103D01*
X127851897Y-81305367D01*
X127840463Y-81267674D01*
X127835998Y-81222339D01*
X127835998Y-80385661D01*
X127840463Y-80340326D01*
X127851897Y-80302633D01*
X127870464Y-80267897D01*
X127895450Y-80237452D01*
X127925895Y-80212466D01*
X127960631Y-80193899D01*
X127998324Y-80182465D01*
X128043659Y-80178000D01*
X129130337Y-80178000D01*
X129175672Y-80182465D01*
G37*
G36*
X105842340Y-80182465D02*
G01*
X105880033Y-80193899D01*
X105914769Y-80212466D01*
X105945214Y-80237452D01*
X105970200Y-80267897D01*
X105988767Y-80302633D01*
X106000201Y-80340326D01*
X106004666Y-80385661D01*
X106004666Y-81222339D01*
X106000201Y-81267674D01*
X105988767Y-81305367D01*
X105970200Y-81340103D01*
X105945214Y-81370548D01*
X105914769Y-81395534D01*
X105880033Y-81414101D01*
X105842340Y-81425535D01*
X105797005Y-81430000D01*
X104710327Y-81430000D01*
X104664992Y-81425535D01*
X104627299Y-81414101D01*
X104592563Y-81395534D01*
X104562118Y-81370548D01*
X104537132Y-81340103D01*
X104518565Y-81305367D01*
X104507131Y-81267674D01*
X104502666Y-81222339D01*
X104502666Y-80385661D01*
X104507131Y-80340326D01*
X104518565Y-80302633D01*
X104537132Y-80267897D01*
X104562118Y-80237452D01*
X104592563Y-80212466D01*
X104627299Y-80193899D01*
X104664992Y-80182465D01*
X104710327Y-80178000D01*
X105797005Y-80178000D01*
X105842340Y-80182465D01*
G37*
G36*
X88839666Y-79294000D02*
G01*
X87417666Y-79294000D01*
X87417666Y-77872000D01*
X88839666Y-77872000D01*
X88839666Y-79294000D01*
G37*
G36*
X112172998Y-79294000D02*
G01*
X110750998Y-79294000D01*
X110750998Y-77872000D01*
X112172998Y-77872000D01*
X112172998Y-79294000D01*
G37*
G36*
X135506330Y-79294000D02*
G01*
X134084330Y-79294000D01*
X134084330Y-77872000D01*
X135506330Y-77872000D01*
X135506330Y-79294000D01*
G37*
G36*
X127000672Y-77582465D02*
G01*
X127038365Y-77593899D01*
X127073101Y-77612466D01*
X127103546Y-77637452D01*
X127128532Y-77667897D01*
X127147099Y-77702633D01*
X127158533Y-77740326D01*
X127162998Y-77785661D01*
X127162998Y-78872339D01*
X127158533Y-78917674D01*
X127147099Y-78955367D01*
X127128532Y-78990103D01*
X127103546Y-79020548D01*
X127073101Y-79045534D01*
X127038365Y-79064101D01*
X127000672Y-79075535D01*
X126955337Y-79080000D01*
X126118659Y-79080000D01*
X126073324Y-79075535D01*
X126035631Y-79064101D01*
X126000895Y-79045534D01*
X125970450Y-79020548D01*
X125945464Y-78990103D01*
X125926897Y-78955367D01*
X125915463Y-78917674D01*
X125910998Y-78872339D01*
X125910998Y-77785661D01*
X125915463Y-77740326D01*
X125926897Y-77702633D01*
X125945464Y-77667897D01*
X125970450Y-77637452D01*
X126000895Y-77612466D01*
X126035631Y-77593899D01*
X126073324Y-77582465D01*
X126118659Y-77578000D01*
X126955337Y-77578000D01*
X127000672Y-77582465D01*
G37*
G36*
X152384004Y-77582465D02*
G01*
X152421697Y-77593899D01*
X152456433Y-77612466D01*
X152486878Y-77637452D01*
X152511864Y-77667897D01*
X152530431Y-77702633D01*
X152541865Y-77740326D01*
X152546330Y-77785661D01*
X152546330Y-78872339D01*
X152541865Y-78917674D01*
X152530431Y-78955367D01*
X152511864Y-78990103D01*
X152486878Y-79020548D01*
X152456433Y-79045534D01*
X152421697Y-79064101D01*
X152384004Y-79075535D01*
X152338669Y-79080000D01*
X151501991Y-79080000D01*
X151456656Y-79075535D01*
X151418963Y-79064101D01*
X151384227Y-79045534D01*
X151353782Y-79020548D01*
X151328796Y-78990103D01*
X151310229Y-78955367D01*
X151298795Y-78917674D01*
X151294330Y-78872339D01*
X151294330Y-77785661D01*
X151298795Y-77740326D01*
X151310229Y-77702633D01*
X151328796Y-77667897D01*
X151353782Y-77637452D01*
X151384227Y-77612466D01*
X151418963Y-77593899D01*
X151456656Y-77582465D01*
X151501991Y-77578000D01*
X152338669Y-77578000D01*
X152384004Y-77582465D01*
G37*
G36*
X103667340Y-77582465D02*
G01*
X103705033Y-77593899D01*
X103739769Y-77612466D01*
X103770214Y-77637452D01*
X103795200Y-77667897D01*
X103813767Y-77702633D01*
X103825201Y-77740326D01*
X103829666Y-77785661D01*
X103829666Y-78872339D01*
X103825201Y-78917674D01*
X103813767Y-78955367D01*
X103795200Y-78990103D01*
X103770214Y-79020548D01*
X103739769Y-79045534D01*
X103705033Y-79064101D01*
X103667340Y-79075535D01*
X103622005Y-79080000D01*
X102785327Y-79080000D01*
X102739992Y-79075535D01*
X102702299Y-79064101D01*
X102667563Y-79045534D01*
X102637118Y-79020548D01*
X102612132Y-78990103D01*
X102593565Y-78955367D01*
X102582131Y-78917674D01*
X102577666Y-78872339D01*
X102577666Y-77785661D01*
X102582131Y-77740326D01*
X102593565Y-77702633D01*
X102612132Y-77667897D01*
X102637118Y-77637452D01*
X102667563Y-77612466D01*
X102702299Y-77593899D01*
X102739992Y-77582465D01*
X102785327Y-77578000D01*
X103622005Y-77578000D01*
X103667340Y-77582465D01*
G37*
G36*
X105717340Y-77582465D02*
G01*
X105755033Y-77593899D01*
X105789769Y-77612466D01*
X105820214Y-77637452D01*
X105845200Y-77667897D01*
X105863767Y-77702633D01*
X105875201Y-77740326D01*
X105879666Y-77785661D01*
X105879666Y-78872339D01*
X105875201Y-78917674D01*
X105863767Y-78955367D01*
X105845200Y-78990103D01*
X105820214Y-79020548D01*
X105789769Y-79045534D01*
X105755033Y-79064101D01*
X105717340Y-79075535D01*
X105672005Y-79080000D01*
X104835327Y-79080000D01*
X104789992Y-79075535D01*
X104752299Y-79064101D01*
X104717563Y-79045534D01*
X104687118Y-79020548D01*
X104662132Y-78990103D01*
X104643565Y-78955367D01*
X104632131Y-78917674D01*
X104627666Y-78872339D01*
X104627666Y-77785661D01*
X104632131Y-77740326D01*
X104643565Y-77702633D01*
X104662132Y-77667897D01*
X104687118Y-77637452D01*
X104717563Y-77612466D01*
X104752299Y-77593899D01*
X104789992Y-77582465D01*
X104835327Y-77578000D01*
X105672005Y-77578000D01*
X105717340Y-77582465D01*
G37*
G36*
X150334004Y-77582465D02*
G01*
X150371697Y-77593899D01*
X150406433Y-77612466D01*
X150436878Y-77637452D01*
X150461864Y-77667897D01*
X150480431Y-77702633D01*
X150491865Y-77740326D01*
X150496330Y-77785661D01*
X150496330Y-78872339D01*
X150491865Y-78917674D01*
X150480431Y-78955367D01*
X150461864Y-78990103D01*
X150436878Y-79020548D01*
X150406433Y-79045534D01*
X150371697Y-79064101D01*
X150334004Y-79075535D01*
X150288669Y-79080000D01*
X149451991Y-79080000D01*
X149406656Y-79075535D01*
X149368963Y-79064101D01*
X149334227Y-79045534D01*
X149303782Y-79020548D01*
X149278796Y-78990103D01*
X149260229Y-78955367D01*
X149248795Y-78917674D01*
X149244330Y-78872339D01*
X149244330Y-77785661D01*
X149248795Y-77740326D01*
X149260229Y-77702633D01*
X149278796Y-77667897D01*
X149303782Y-77637452D01*
X149334227Y-77612466D01*
X149368963Y-77593899D01*
X149406656Y-77582465D01*
X149451991Y-77578000D01*
X150288669Y-77578000D01*
X150334004Y-77582465D01*
G37*
G36*
X129050672Y-77582465D02*
G01*
X129088365Y-77593899D01*
X129123101Y-77612466D01*
X129153546Y-77637452D01*
X129178532Y-77667897D01*
X129197099Y-77702633D01*
X129208533Y-77740326D01*
X129212998Y-77785661D01*
X129212998Y-78872339D01*
X129208533Y-78917674D01*
X129197099Y-78955367D01*
X129178532Y-78990103D01*
X129153546Y-79020548D01*
X129123101Y-79045534D01*
X129088365Y-79064101D01*
X129050672Y-79075535D01*
X129005337Y-79080000D01*
X128168659Y-79080000D01*
X128123324Y-79075535D01*
X128085631Y-79064101D01*
X128050895Y-79045534D01*
X128020450Y-79020548D01*
X127995464Y-78990103D01*
X127976897Y-78955367D01*
X127965463Y-78917674D01*
X127960998Y-78872339D01*
X127960998Y-77785661D01*
X127965463Y-77740326D01*
X127976897Y-77702633D01*
X127995464Y-77667897D01*
X128020450Y-77637452D01*
X128050895Y-77612466D01*
X128085631Y-77593899D01*
X128123324Y-77582465D01*
X128168659Y-77578000D01*
X129005337Y-77578000D01*
X129050672Y-77582465D01*
G37*
G36*
X101539666Y-79040000D02*
G01*
X100117666Y-79040000D01*
X100117666Y-77618000D01*
X101539666Y-77618000D01*
X101539666Y-79040000D01*
G37*
G36*
X148206330Y-79040000D02*
G01*
X146784330Y-79040000D01*
X146784330Y-77618000D01*
X148206330Y-77618000D01*
X148206330Y-79040000D01*
G37*
G36*
X124872998Y-79040000D02*
G01*
X123450998Y-79040000D01*
X123450998Y-77618000D01*
X124872998Y-77618000D01*
X124872998Y-79040000D01*
G37*
G36*
X112172998Y-76754000D02*
G01*
X110750998Y-76754000D01*
X110750998Y-75332000D01*
X112172998Y-75332000D01*
X112172998Y-76754000D01*
G37*
G36*
X88839666Y-76754000D02*
G01*
X87417666Y-76754000D01*
X87417666Y-75332000D01*
X88839666Y-75332000D01*
X88839666Y-76754000D01*
G37*
G36*
X135506330Y-76754000D02*
G01*
X134084330Y-76754000D01*
X134084330Y-75332000D01*
X135506330Y-75332000D01*
X135506330Y-76754000D01*
G37*
G36*
X127000672Y-75042465D02*
G01*
X127038365Y-75053899D01*
X127073101Y-75072466D01*
X127103546Y-75097452D01*
X127128532Y-75127897D01*
X127147099Y-75162633D01*
X127158533Y-75200326D01*
X127162998Y-75245661D01*
X127162998Y-76332339D01*
X127158533Y-76377674D01*
X127147099Y-76415367D01*
X127128532Y-76450103D01*
X127103546Y-76480548D01*
X127073101Y-76505534D01*
X127038365Y-76524101D01*
X127000672Y-76535535D01*
X126955337Y-76540000D01*
X126118659Y-76540000D01*
X126073324Y-76535535D01*
X126035631Y-76524101D01*
X126000895Y-76505534D01*
X125970450Y-76480548D01*
X125945464Y-76450103D01*
X125926897Y-76415367D01*
X125915463Y-76377674D01*
X125910998Y-76332339D01*
X125910998Y-75245661D01*
X125915463Y-75200326D01*
X125926897Y-75162633D01*
X125945464Y-75127897D01*
X125970450Y-75097452D01*
X126000895Y-75072466D01*
X126035631Y-75053899D01*
X126073324Y-75042465D01*
X126118659Y-75038000D01*
X126955337Y-75038000D01*
X127000672Y-75042465D01*
G37*
G36*
X129050672Y-75042465D02*
G01*
X129088365Y-75053899D01*
X129123101Y-75072466D01*
X129153546Y-75097452D01*
X129178532Y-75127897D01*
X129197099Y-75162633D01*
X129208533Y-75200326D01*
X129212998Y-75245661D01*
X129212998Y-76332339D01*
X129208533Y-76377674D01*
X129197099Y-76415367D01*
X129178532Y-76450103D01*
X129153546Y-76480548D01*
X129123101Y-76505534D01*
X129088365Y-76524101D01*
X129050672Y-76535535D01*
X129005337Y-76540000D01*
X128168659Y-76540000D01*
X128123324Y-76535535D01*
X128085631Y-76524101D01*
X128050895Y-76505534D01*
X128020450Y-76480548D01*
X127995464Y-76450103D01*
X127976897Y-76415367D01*
X127965463Y-76377674D01*
X127960998Y-76332339D01*
X127960998Y-75245661D01*
X127965463Y-75200326D01*
X127976897Y-75162633D01*
X127995464Y-75127897D01*
X128020450Y-75097452D01*
X128050895Y-75072466D01*
X128085631Y-75053899D01*
X128123324Y-75042465D01*
X128168659Y-75038000D01*
X129005337Y-75038000D01*
X129050672Y-75042465D01*
G37*
G36*
X103667340Y-75042465D02*
G01*
X103705033Y-75053899D01*
X103739769Y-75072466D01*
X103770214Y-75097452D01*
X103795200Y-75127897D01*
X103813767Y-75162633D01*
X103825201Y-75200326D01*
X103829666Y-75245661D01*
X103829666Y-76332339D01*
X103825201Y-76377674D01*
X103813767Y-76415367D01*
X103795200Y-76450103D01*
X103770214Y-76480548D01*
X103739769Y-76505534D01*
X103705033Y-76524101D01*
X103667340Y-76535535D01*
X103622005Y-76540000D01*
X102785327Y-76540000D01*
X102739992Y-76535535D01*
X102702299Y-76524101D01*
X102667563Y-76505534D01*
X102637118Y-76480548D01*
X102612132Y-76450103D01*
X102593565Y-76415367D01*
X102582131Y-76377674D01*
X102577666Y-76332339D01*
X102577666Y-75245661D01*
X102582131Y-75200326D01*
X102593565Y-75162633D01*
X102612132Y-75127897D01*
X102637118Y-75097452D01*
X102667563Y-75072466D01*
X102702299Y-75053899D01*
X102739992Y-75042465D01*
X102785327Y-75038000D01*
X103622005Y-75038000D01*
X103667340Y-75042465D01*
G37*
G36*
X152384004Y-75042465D02*
G01*
X152421697Y-75053899D01*
X152456433Y-75072466D01*
X152486878Y-75097452D01*
X152511864Y-75127897D01*
X152530431Y-75162633D01*
X152541865Y-75200326D01*
X152546330Y-75245661D01*
X152546330Y-76332339D01*
X152541865Y-76377674D01*
X152530431Y-76415367D01*
X152511864Y-76450103D01*
X152486878Y-76480548D01*
X152456433Y-76505534D01*
X152421697Y-76524101D01*
X152384004Y-76535535D01*
X152338669Y-76540000D01*
X151501991Y-76540000D01*
X151456656Y-76535535D01*
X151418963Y-76524101D01*
X151384227Y-76505534D01*
X151353782Y-76480548D01*
X151328796Y-76450103D01*
X151310229Y-76415367D01*
X151298795Y-76377674D01*
X151294330Y-76332339D01*
X151294330Y-75245661D01*
X151298795Y-75200326D01*
X151310229Y-75162633D01*
X151328796Y-75127897D01*
X151353782Y-75097452D01*
X151384227Y-75072466D01*
X151418963Y-75053899D01*
X151456656Y-75042465D01*
X151501991Y-75038000D01*
X152338669Y-75038000D01*
X152384004Y-75042465D01*
G37*
G36*
X150334004Y-75042465D02*
G01*
X150371697Y-75053899D01*
X150406433Y-75072466D01*
X150436878Y-75097452D01*
X150461864Y-75127897D01*
X150480431Y-75162633D01*
X150491865Y-75200326D01*
X150496330Y-75245661D01*
X150496330Y-76332339D01*
X150491865Y-76377674D01*
X150480431Y-76415367D01*
X150461864Y-76450103D01*
X150436878Y-76480548D01*
X150406433Y-76505534D01*
X150371697Y-76524101D01*
X150334004Y-76535535D01*
X150288669Y-76540000D01*
X149451991Y-76540000D01*
X149406656Y-76535535D01*
X149368963Y-76524101D01*
X149334227Y-76505534D01*
X149303782Y-76480548D01*
X149278796Y-76450103D01*
X149260229Y-76415367D01*
X149248795Y-76377674D01*
X149244330Y-76332339D01*
X149244330Y-75245661D01*
X149248795Y-75200326D01*
X149260229Y-75162633D01*
X149278796Y-75127897D01*
X149303782Y-75097452D01*
X149334227Y-75072466D01*
X149368963Y-75053899D01*
X149406656Y-75042465D01*
X149451991Y-75038000D01*
X150288669Y-75038000D01*
X150334004Y-75042465D01*
G37*
G36*
X105717340Y-75042465D02*
G01*
X105755033Y-75053899D01*
X105789769Y-75072466D01*
X105820214Y-75097452D01*
X105845200Y-75127897D01*
X105863767Y-75162633D01*
X105875201Y-75200326D01*
X105879666Y-75245661D01*
X105879666Y-76332339D01*
X105875201Y-76377674D01*
X105863767Y-76415367D01*
X105845200Y-76450103D01*
X105820214Y-76480548D01*
X105789769Y-76505534D01*
X105755033Y-76524101D01*
X105717340Y-76535535D01*
X105672005Y-76540000D01*
X104835327Y-76540000D01*
X104789992Y-76535535D01*
X104752299Y-76524101D01*
X104717563Y-76505534D01*
X104687118Y-76480548D01*
X104662132Y-76450103D01*
X104643565Y-76415367D01*
X104632131Y-76377674D01*
X104627666Y-76332339D01*
X104627666Y-75245661D01*
X104632131Y-75200326D01*
X104643565Y-75162633D01*
X104662132Y-75127897D01*
X104687118Y-75097452D01*
X104717563Y-75072466D01*
X104752299Y-75053899D01*
X104789992Y-75042465D01*
X104835327Y-75038000D01*
X105672005Y-75038000D01*
X105717340Y-75042465D01*
G37*
G36*
X124872998Y-76500000D02*
G01*
X123450998Y-76500000D01*
X123450998Y-75078000D01*
X124872998Y-75078000D01*
X124872998Y-76500000D01*
G37*
G36*
X101539666Y-76500000D02*
G01*
X100117666Y-76500000D01*
X100117666Y-75078000D01*
X101539666Y-75078000D01*
X101539666Y-76500000D01*
G37*
G36*
X148206330Y-76500000D02*
G01*
X146784330Y-76500000D01*
X146784330Y-75078000D01*
X148206330Y-75078000D01*
X148206330Y-76500000D01*
G37*
G36*
X135506330Y-74214000D02*
G01*
X134084330Y-74214000D01*
X134084330Y-72792000D01*
X135506330Y-72792000D01*
X135506330Y-74214000D01*
G37*
G36*
X112172998Y-74214000D02*
G01*
X110750998Y-74214000D01*
X110750998Y-72792000D01*
X112172998Y-72792000D01*
X112172998Y-74214000D01*
G37*
G36*
X88839666Y-74214000D02*
G01*
X87417666Y-74214000D01*
X87417666Y-72792000D01*
X88839666Y-72792000D01*
X88839666Y-74214000D01*
G37*
G36*
X124872998Y-73960000D02*
G01*
X123450998Y-73960000D01*
X123450998Y-72538000D01*
X124872998Y-72538000D01*
X124872998Y-73960000D01*
G37*
G36*
X101539666Y-73960000D02*
G01*
X100117666Y-73960000D01*
X100117666Y-72538000D01*
X101539666Y-72538000D01*
X101539666Y-73960000D01*
G37*
G36*
X148206330Y-73960000D02*
G01*
X146784330Y-73960000D01*
X146784330Y-72538000D01*
X148206330Y-72538000D01*
X148206330Y-73960000D01*
G37*
G36*
X135506330Y-71674000D02*
G01*
X134084330Y-71674000D01*
X134084330Y-70252000D01*
X135506330Y-70252000D01*
X135506330Y-71674000D01*
G37*
G36*
X88839666Y-71674000D02*
G01*
X87417666Y-71674000D01*
X87417666Y-70252000D01*
X88839666Y-70252000D01*
X88839666Y-71674000D01*
G37*
G36*
X112172998Y-71674000D02*
G01*
X110750998Y-71674000D01*
X110750998Y-70252000D01*
X112172998Y-70252000D01*
X112172998Y-71674000D01*
G37*
G36*
X148206330Y-71420000D02*
G01*
X146784330Y-71420000D01*
X146784330Y-69998000D01*
X148206330Y-69998000D01*
X148206330Y-71420000D01*
G37*
G36*
X124872998Y-71420000D02*
G01*
X123450998Y-71420000D01*
X123450998Y-69998000D01*
X124872998Y-69998000D01*
X124872998Y-71420000D01*
G37*
G36*
X101539666Y-71420000D02*
G01*
X100117666Y-71420000D01*
X100117666Y-69998000D01*
X101539666Y-69998000D01*
X101539666Y-71420000D01*
G37*
G36*
X120300998Y-69261000D02*
G01*
X118878998Y-69261000D01*
X118878998Y-67839000D01*
X120300998Y-67839000D01*
X120300998Y-69261000D01*
G37*
G36*
X99507666Y-69261000D02*
G01*
X98085666Y-69261000D01*
X98085666Y-67839000D01*
X99507666Y-67839000D01*
X99507666Y-69261000D01*
G37*
G36*
X143634330Y-69261000D02*
G01*
X142212330Y-69261000D01*
X142212330Y-67839000D01*
X143634330Y-67839000D01*
X143634330Y-69261000D01*
G37*
G36*
X141094330Y-69261000D02*
G01*
X139672330Y-69261000D01*
X139672330Y-67839000D01*
X141094330Y-67839000D01*
X141094330Y-69261000D01*
G37*
G36*
X138554330Y-69261000D02*
G01*
X137132330Y-69261000D01*
X137132330Y-67839000D01*
X138554330Y-67839000D01*
X138554330Y-69261000D01*
G37*
G36*
X94427666Y-69261000D02*
G01*
X93005666Y-69261000D01*
X93005666Y-67839000D01*
X94427666Y-67839000D01*
X94427666Y-69261000D01*
G37*
G36*
X122840998Y-69261000D02*
G01*
X121418998Y-69261000D01*
X121418998Y-67839000D01*
X122840998Y-67839000D01*
X122840998Y-69261000D01*
G37*
G36*
X91887666Y-69261000D02*
G01*
X90465666Y-69261000D01*
X90465666Y-67839000D01*
X91887666Y-67839000D01*
X91887666Y-69261000D01*
G37*
G36*
X146174330Y-69261000D02*
G01*
X144752330Y-69261000D01*
X144752330Y-67839000D01*
X146174330Y-67839000D01*
X146174330Y-69261000D01*
G37*
G36*
X96967666Y-69261000D02*
G01*
X95545666Y-69261000D01*
X95545666Y-67839000D01*
X96967666Y-67839000D01*
X96967666Y-69261000D01*
G37*
G36*
X117760998Y-69261000D02*
G01*
X116338998Y-69261000D01*
X116338998Y-67839000D01*
X117760998Y-67839000D01*
X117760998Y-69261000D01*
G37*
G36*
X115220998Y-69261000D02*
G01*
X113798998Y-69261000D01*
X113798998Y-67839000D01*
X115220998Y-67839000D01*
X115220998Y-69261000D01*
G37*
G36*
X140847004Y-65303465D02*
G01*
X140884697Y-65314899D01*
X140919433Y-65333466D01*
X140949878Y-65358452D01*
X140974864Y-65388897D01*
X140993431Y-65423633D01*
X141004865Y-65461326D01*
X141009330Y-65506661D01*
X141009330Y-66593339D01*
X141004865Y-66638674D01*
X140993431Y-66676367D01*
X140974864Y-66711103D01*
X140949878Y-66741548D01*
X140919433Y-66766534D01*
X140884697Y-66785101D01*
X140847004Y-66796535D01*
X140801669Y-66801000D01*
X139964991Y-66801000D01*
X139919656Y-66796535D01*
X139881963Y-66785101D01*
X139847227Y-66766534D01*
X139816782Y-66741548D01*
X139791796Y-66711103D01*
X139773229Y-66676367D01*
X139761795Y-66638674D01*
X139757330Y-66593339D01*
X139757330Y-65506661D01*
X139761795Y-65461326D01*
X139773229Y-65423633D01*
X139791796Y-65388897D01*
X139816782Y-65358452D01*
X139847227Y-65333466D01*
X139881963Y-65314899D01*
X139919656Y-65303465D01*
X139964991Y-65299000D01*
X140801669Y-65299000D01*
X140847004Y-65303465D01*
G37*
G36*
X92130340Y-65303465D02*
G01*
X92168033Y-65314899D01*
X92202769Y-65333466D01*
X92233214Y-65358452D01*
X92258200Y-65388897D01*
X92276767Y-65423633D01*
X92288201Y-65461326D01*
X92292666Y-65506661D01*
X92292666Y-66593339D01*
X92288201Y-66638674D01*
X92276767Y-66676367D01*
X92258200Y-66711103D01*
X92233214Y-66741548D01*
X92202769Y-66766534D01*
X92168033Y-66785101D01*
X92130340Y-66796535D01*
X92085005Y-66801000D01*
X91248327Y-66801000D01*
X91202992Y-66796535D01*
X91165299Y-66785101D01*
X91130563Y-66766534D01*
X91100118Y-66741548D01*
X91075132Y-66711103D01*
X91056565Y-66676367D01*
X91045131Y-66638674D01*
X91040666Y-66593339D01*
X91040666Y-65506661D01*
X91045131Y-65461326D01*
X91056565Y-65423633D01*
X91075132Y-65388897D01*
X91100118Y-65358452D01*
X91130563Y-65333466D01*
X91165299Y-65314899D01*
X91202992Y-65303465D01*
X91248327Y-65299000D01*
X92085005Y-65299000D01*
X92130340Y-65303465D01*
G37*
G36*
X115463672Y-65303465D02*
G01*
X115501365Y-65314899D01*
X115536101Y-65333466D01*
X115566546Y-65358452D01*
X115591532Y-65388897D01*
X115610099Y-65423633D01*
X115621533Y-65461326D01*
X115625998Y-65506661D01*
X115625998Y-66593339D01*
X115621533Y-66638674D01*
X115610099Y-66676367D01*
X115591532Y-66711103D01*
X115566546Y-66741548D01*
X115536101Y-66766534D01*
X115501365Y-66785101D01*
X115463672Y-66796535D01*
X115418337Y-66801000D01*
X114581659Y-66801000D01*
X114536324Y-66796535D01*
X114498631Y-66785101D01*
X114463895Y-66766534D01*
X114433450Y-66741548D01*
X114408464Y-66711103D01*
X114389897Y-66676367D01*
X114378463Y-66638674D01*
X114373998Y-66593339D01*
X114373998Y-65506661D01*
X114378463Y-65461326D01*
X114389897Y-65423633D01*
X114408464Y-65388897D01*
X114433450Y-65358452D01*
X114463895Y-65333466D01*
X114498631Y-65314899D01*
X114536324Y-65303465D01*
X114581659Y-65299000D01*
X115418337Y-65299000D01*
X115463672Y-65303465D01*
G37*
G36*
X138797004Y-65303465D02*
G01*
X138834697Y-65314899D01*
X138869433Y-65333466D01*
X138899878Y-65358452D01*
X138924864Y-65388897D01*
X138943431Y-65423633D01*
X138954865Y-65461326D01*
X138959330Y-65506661D01*
X138959330Y-66593339D01*
X138954865Y-66638674D01*
X138943431Y-66676367D01*
X138924864Y-66711103D01*
X138899878Y-66741548D01*
X138869433Y-66766534D01*
X138834697Y-66785101D01*
X138797004Y-66796535D01*
X138751669Y-66801000D01*
X137914991Y-66801000D01*
X137869656Y-66796535D01*
X137831963Y-66785101D01*
X137797227Y-66766534D01*
X137766782Y-66741548D01*
X137741796Y-66711103D01*
X137723229Y-66676367D01*
X137711795Y-66638674D01*
X137707330Y-66593339D01*
X137707330Y-65506661D01*
X137711795Y-65461326D01*
X137723229Y-65423633D01*
X137741796Y-65388897D01*
X137766782Y-65358452D01*
X137797227Y-65333466D01*
X137831963Y-65314899D01*
X137869656Y-65303465D01*
X137914991Y-65299000D01*
X138751669Y-65299000D01*
X138797004Y-65303465D01*
G37*
G36*
X94180340Y-65303465D02*
G01*
X94218033Y-65314899D01*
X94252769Y-65333466D01*
X94283214Y-65358452D01*
X94308200Y-65388897D01*
X94326767Y-65423633D01*
X94338201Y-65461326D01*
X94342666Y-65506661D01*
X94342666Y-66593339D01*
X94338201Y-66638674D01*
X94326767Y-66676367D01*
X94308200Y-66711103D01*
X94283214Y-66741548D01*
X94252769Y-66766534D01*
X94218033Y-66785101D01*
X94180340Y-66796535D01*
X94135005Y-66801000D01*
X93298327Y-66801000D01*
X93252992Y-66796535D01*
X93215299Y-66785101D01*
X93180563Y-66766534D01*
X93150118Y-66741548D01*
X93125132Y-66711103D01*
X93106565Y-66676367D01*
X93095131Y-66638674D01*
X93090666Y-66593339D01*
X93090666Y-65506661D01*
X93095131Y-65461326D01*
X93106565Y-65423633D01*
X93125132Y-65388897D01*
X93150118Y-65358452D01*
X93180563Y-65333466D01*
X93215299Y-65314899D01*
X93252992Y-65303465D01*
X93298327Y-65299000D01*
X94135005Y-65299000D01*
X94180340Y-65303465D01*
G37*
G36*
X117513672Y-65303465D02*
G01*
X117551365Y-65314899D01*
X117586101Y-65333466D01*
X117616546Y-65358452D01*
X117641532Y-65388897D01*
X117660099Y-65423633D01*
X117671533Y-65461326D01*
X117675998Y-65506661D01*
X117675998Y-66593339D01*
X117671533Y-66638674D01*
X117660099Y-66676367D01*
X117641532Y-66711103D01*
X117616546Y-66741548D01*
X117586101Y-66766534D01*
X117551365Y-66785101D01*
X117513672Y-66796535D01*
X117468337Y-66801000D01*
X116631659Y-66801000D01*
X116586324Y-66796535D01*
X116548631Y-66785101D01*
X116513895Y-66766534D01*
X116483450Y-66741548D01*
X116458464Y-66711103D01*
X116439897Y-66676367D01*
X116428463Y-66638674D01*
X116423998Y-66593339D01*
X116423998Y-65506661D01*
X116428463Y-65461326D01*
X116439897Y-65423633D01*
X116458464Y-65388897D01*
X116483450Y-65358452D01*
X116513895Y-65333466D01*
X116548631Y-65314899D01*
X116586324Y-65303465D01*
X116631659Y-65299000D01*
X117468337Y-65299000D01*
X117513672Y-65303465D01*
G37*
G36*
X138734330Y-64046000D02*
G01*
X137932330Y-64046000D01*
X137932330Y-62644000D01*
X138734330Y-62644000D01*
X138734330Y-64046000D01*
G37*
G36*
X92067666Y-64046000D02*
G01*
X91265666Y-64046000D01*
X91265666Y-62644000D01*
X92067666Y-62644000D01*
X92067666Y-64046000D01*
G37*
G36*
X115400998Y-64046000D02*
G01*
X114598998Y-64046000D01*
X114598998Y-62644000D01*
X115400998Y-62644000D01*
X115400998Y-64046000D01*
G37*
G36*
X141284330Y-61846000D02*
G01*
X139782330Y-61846000D01*
X139782330Y-60544000D01*
X141284330Y-60544000D01*
X141284330Y-61846000D01*
G37*
G36*
X90217666Y-61846000D02*
G01*
X88715666Y-61846000D01*
X88715666Y-60544000D01*
X90217666Y-60544000D01*
X90217666Y-61846000D01*
G37*
G36*
X113550998Y-61846000D02*
G01*
X112048998Y-61846000D01*
X112048998Y-60544000D01*
X113550998Y-60544000D01*
X113550998Y-61846000D01*
G37*
G36*
X94617666Y-61846000D02*
G01*
X93115666Y-61846000D01*
X93115666Y-60544000D01*
X94617666Y-60544000D01*
X94617666Y-61846000D01*
G37*
G36*
X117950998Y-61846000D02*
G01*
X116448998Y-61846000D01*
X116448998Y-60544000D01*
X117950998Y-60544000D01*
X117950998Y-61846000D01*
G37*
G36*
X136884330Y-61846000D02*
G01*
X135382330Y-61846000D01*
X135382330Y-60544000D01*
X136884330Y-60544000D01*
X136884330Y-61846000D01*
G37*
G36*
X138734330Y-59746000D02*
G01*
X137932330Y-59746000D01*
X137932330Y-58344000D01*
X138734330Y-58344000D01*
X138734330Y-59746000D01*
G37*
G36*
X92067666Y-59746000D02*
G01*
X91265666Y-59746000D01*
X91265666Y-58344000D01*
X92067666Y-58344000D01*
X92067666Y-59746000D01*
G37*
G36*
X115400998Y-59746000D02*
G01*
X114598998Y-59746000D01*
X114598998Y-58344000D01*
X115400998Y-58344000D01*
X115400998Y-59746000D01*
G37*
G36*
X120050998Y-57091000D02*
G01*
X118448998Y-57091000D01*
X118448998Y-51909000D01*
X120050998Y-51909000D01*
X120050998Y-57091000D01*
G37*
G36*
X115800998Y-57091000D02*
G01*
X114198998Y-57091000D01*
X114198998Y-51909000D01*
X115800998Y-51909000D01*
X115800998Y-57091000D01*
G37*
G36*
X85051000Y-57091000D02*
G01*
X83449000Y-57091000D01*
X83449000Y-51909000D01*
X85051000Y-51909000D01*
X85051000Y-57091000D01*
G37*
G36*
X108384332Y-57091000D02*
G01*
X106782332Y-57091000D01*
X106782332Y-51909000D01*
X108384332Y-51909000D01*
X108384332Y-57091000D01*
G37*
G36*
X134884330Y-57091000D02*
G01*
X133282330Y-57091000D01*
X133282330Y-51909000D01*
X134884330Y-51909000D01*
X134884330Y-57091000D01*
G37*
G36*
X88217666Y-57091000D02*
G01*
X86615666Y-57091000D01*
X86615666Y-51909000D01*
X88217666Y-51909000D01*
X88217666Y-57091000D01*
G37*
G36*
X96717666Y-57091000D02*
G01*
X95115666Y-57091000D01*
X95115666Y-51909000D01*
X96717666Y-51909000D01*
X96717666Y-57091000D01*
G37*
G36*
X111550998Y-57091000D02*
G01*
X109948998Y-57091000D01*
X109948998Y-51909000D01*
X111550998Y-51909000D01*
X111550998Y-57091000D01*
G37*
G36*
X99884332Y-57091000D02*
G01*
X98282332Y-57091000D01*
X98282332Y-51909000D01*
X99884332Y-51909000D01*
X99884332Y-57091000D01*
G37*
G36*
X123217664Y-57091000D02*
G01*
X121615664Y-57091000D01*
X121615664Y-51909000D01*
X123217664Y-51909000D01*
X123217664Y-57091000D01*
G37*
G36*
X131717664Y-57091000D02*
G01*
X130115664Y-57091000D01*
X130115664Y-51909000D01*
X131717664Y-51909000D01*
X131717664Y-57091000D01*
G37*
G36*
X92467666Y-57091000D02*
G01*
X90865666Y-57091000D01*
X90865666Y-51909000D01*
X92467666Y-51909000D01*
X92467666Y-57091000D01*
G37*
G36*
X146551000Y-57091000D02*
G01*
X144949000Y-57091000D01*
X144949000Y-51909000D01*
X146551000Y-51909000D01*
X146551000Y-57091000D01*
G37*
G36*
X139134330Y-57091000D02*
G01*
X137532330Y-57091000D01*
X137532330Y-51909000D01*
X139134330Y-51909000D01*
X139134330Y-57091000D01*
G37*
G36*
X143384330Y-57091000D02*
G01*
X141782330Y-57091000D01*
X141782330Y-51909000D01*
X143384330Y-51909000D01*
X143384330Y-57091000D01*
G37*
M02*
