G04 #@! TF.GenerationSoftware,KiCad,Pcbnew,5.1.6+dfsg1-1~bpo10+1*
G04 #@! TF.CreationDate,2020-10-03T08:29:09-04:00*
G04 #@! TF.ProjectId,hardware,68617264-7761-4726-952e-6b696361645f,1.0.0*
G04 #@! TF.SameCoordinates,Original*
G04 #@! TF.FileFunction,Legend,Bot*
G04 #@! TF.FilePolarity,Positive*
%FSLAX46Y46*%
G04 Gerber Fmt 4.6, Leading zero omitted, Abs format (unit mm)*
G04 Created by KiCad (PCBNEW 5.1.6+dfsg1-1~bpo10+1) date 2020-10-03 08:29:09*
%MOMM*%
%LPD*%
G01*
G04 APERTURE LIST*
%ADD10C,0.150000*%
%ADD11C,0.400000*%
%ADD12C,0.127000*%
%ADD13C,0.120000*%
%ADD14C,0.100000*%
G04 APERTURE END LIST*
D10*
X70000000Y-94000000D02*
X160000000Y-94000000D01*
D11*
X145640330Y-83155000D02*
G75*
G03*
X145640330Y-83155000I-50000J0D01*
G01*
D12*
X134795330Y-81250000D02*
X136065330Y-81250000D01*
X134795330Y-79573600D02*
X134795330Y-81250000D01*
X134795330Y-68550000D02*
X136065330Y-68550000D01*
X134795330Y-69750000D02*
X134795330Y-68550000D01*
X147495330Y-68550000D02*
X146352330Y-68550000D01*
X147495330Y-69750000D02*
X147495330Y-68550000D01*
X147495330Y-81250000D02*
X146295330Y-81250000D01*
X147495330Y-79250000D02*
X147495330Y-81250000D01*
D11*
X122306998Y-83155000D02*
G75*
G03*
X122306998Y-83155000I-50000J0D01*
G01*
D12*
X111461998Y-81250000D02*
X112731998Y-81250000D01*
X111461998Y-79573600D02*
X111461998Y-81250000D01*
X111461998Y-68550000D02*
X112731998Y-68550000D01*
X111461998Y-69750000D02*
X111461998Y-68550000D01*
X124161998Y-68550000D02*
X123018998Y-68550000D01*
X124161998Y-69750000D02*
X124161998Y-68550000D01*
X124161998Y-81250000D02*
X122961998Y-81250000D01*
X124161998Y-79250000D02*
X124161998Y-81250000D01*
D11*
X98973666Y-83155000D02*
G75*
G03*
X98973666Y-83155000I-50000J0D01*
G01*
D12*
X88128666Y-81250000D02*
X89398666Y-81250000D01*
X88128666Y-79573600D02*
X88128666Y-81250000D01*
X88128666Y-68550000D02*
X89398666Y-68550000D01*
X88128666Y-69750000D02*
X88128666Y-68550000D01*
X100828666Y-68550000D02*
X99685666Y-68550000D01*
X100828666Y-69750000D02*
X100828666Y-68550000D01*
X100828666Y-81250000D02*
X99628666Y-81250000D01*
X100828666Y-79250000D02*
X100828666Y-81250000D01*
D13*
X104489918Y-79039000D02*
X103967414Y-79039000D01*
X104489918Y-77619000D02*
X103967414Y-77619000D01*
X104489918Y-75079000D02*
X103967414Y-75079000D01*
X104489918Y-76499000D02*
X103967414Y-76499000D01*
X127823250Y-75079000D02*
X127300746Y-75079000D01*
X127823250Y-76499000D02*
X127300746Y-76499000D01*
X127823250Y-77619000D02*
X127300746Y-77619000D01*
X127823250Y-79039000D02*
X127300746Y-79039000D01*
X151156582Y-79039000D02*
X150634078Y-79039000D01*
X151156582Y-77619000D02*
X150634078Y-77619000D01*
X151156582Y-76499000D02*
X150634078Y-76499000D01*
X151156582Y-75079000D02*
X150634078Y-75079000D01*
X92430414Y-65340000D02*
X92952918Y-65340000D01*
X92430414Y-66760000D02*
X92952918Y-66760000D01*
X115763746Y-66760000D02*
X116286250Y-66760000D01*
X115763746Y-65340000D02*
X116286250Y-65340000D01*
X139097078Y-66760000D02*
X139619582Y-66760000D01*
X139097078Y-65340000D02*
X139619582Y-65340000D01*
X94603918Y-85540000D02*
X94081414Y-85540000D01*
X94603918Y-86960000D02*
X94081414Y-86960000D01*
X94603918Y-84460000D02*
X94081414Y-84460000D01*
X94603918Y-83040000D02*
X94081414Y-83040000D01*
X117937250Y-85540000D02*
X117414746Y-85540000D01*
X117937250Y-86960000D02*
X117414746Y-86960000D01*
X117937250Y-84460000D02*
X117414746Y-84460000D01*
X117937250Y-83040000D02*
X117414746Y-83040000D01*
X141270582Y-85540000D02*
X140748078Y-85540000D01*
X141270582Y-86960000D02*
X140748078Y-86960000D01*
X141270582Y-84460000D02*
X140748078Y-84460000D01*
X141270582Y-83040000D02*
X140748078Y-83040000D01*
X94657666Y-89388748D02*
X94657666Y-89911252D01*
X96077666Y-89388748D02*
X96077666Y-89911252D01*
X117990998Y-89388748D02*
X117990998Y-89911252D01*
X119410998Y-89388748D02*
X119410998Y-89911252D01*
X142744330Y-89388748D02*
X142744330Y-89911252D01*
X141324330Y-89388748D02*
X141324330Y-89911252D01*
D14*
X92920660Y-61195000D02*
G75*
G03*
X92920660Y-61195000I-1253994J0D01*
G01*
X91066666Y-63745000D02*
G75*
G03*
X91066666Y-63745000I-50000J0D01*
G01*
X114399998Y-63745000D02*
G75*
G03*
X114399998Y-63745000I-50000J0D01*
G01*
X116253992Y-61195000D02*
G75*
G03*
X116253992Y-61195000I-1253994J0D01*
G01*
X137733330Y-63745000D02*
G75*
G03*
X137733330Y-63745000I-50000J0D01*
G01*
X139587324Y-61195000D02*
G75*
G03*
X139587324Y-61195000I-1253994J0D01*
G01*
D13*
X135088748Y-112260000D02*
X135611252Y-112260000D01*
X135088748Y-110840000D02*
X135611252Y-110840000D01*
X145060000Y-103738748D02*
X145060000Y-104261252D01*
X143640000Y-103738748D02*
X143640000Y-104261252D01*
X143640000Y-108538748D02*
X143640000Y-109061252D01*
X145060000Y-108538748D02*
X145060000Y-109061252D01*
X130888748Y-112260000D02*
X131411252Y-112260000D01*
X130888748Y-110840000D02*
X131411252Y-110840000D01*
X105888748Y-106955000D02*
X106411252Y-106955000D01*
X105888748Y-108375000D02*
X106411252Y-108375000D01*
X105888748Y-110810000D02*
X106411252Y-110810000D01*
X105888748Y-109390000D02*
X106411252Y-109390000D01*
X106411252Y-106010000D02*
X105888748Y-106010000D01*
X106411252Y-104590000D02*
X105888748Y-104590000D01*
X92011252Y-108410000D02*
X91488748Y-108410000D01*
X92011252Y-106990000D02*
X91488748Y-106990000D01*
X101711252Y-102690000D02*
X101188748Y-102690000D01*
X101711252Y-104110000D02*
X101188748Y-104110000D01*
X87188748Y-99290000D02*
X87711252Y-99290000D01*
X87188748Y-100710000D02*
X87711252Y-100710000D01*
X87188748Y-110910000D02*
X87711252Y-110910000D01*
X87188748Y-109490000D02*
X87711252Y-109490000D01*
X99211252Y-113910000D02*
X98688748Y-113910000D01*
X99211252Y-112490000D02*
X98688748Y-112490000D01*
X105963666Y-81567748D02*
X105963666Y-82090252D01*
X104543666Y-81567748D02*
X104543666Y-82090252D01*
X127876998Y-81567748D02*
X127876998Y-82090252D01*
X129296998Y-81567748D02*
X129296998Y-82090252D01*
X152630330Y-81567748D02*
X152630330Y-82090252D01*
X151210330Y-81567748D02*
X151210330Y-82090252D01*
X140688748Y-113190000D02*
X141211252Y-113190000D01*
X140688748Y-114610000D02*
X141211252Y-114610000D01*
X146040000Y-104261252D02*
X146040000Y-103738748D01*
X147460000Y-104261252D02*
X147460000Y-103738748D01*
X141211252Y-110840000D02*
X140688748Y-110840000D01*
X141211252Y-112260000D02*
X140688748Y-112260000D01*
X130888748Y-108390000D02*
X131411252Y-108390000D01*
X130888748Y-109810000D02*
X131411252Y-109810000D01*
X147460000Y-109061252D02*
X147460000Y-108538748D01*
X146040000Y-109061252D02*
X146040000Y-108538748D01*
X135088748Y-113190000D02*
X135611252Y-113190000D01*
X135088748Y-114610000D02*
X135611252Y-114610000D01*
X131190000Y-104888748D02*
X131190000Y-105411252D01*
X132610000Y-104888748D02*
X132610000Y-105411252D01*
X132610000Y-100038748D02*
X132610000Y-100561252D01*
X131190000Y-100038748D02*
X131190000Y-100561252D01*
X82377204Y-109568795D02*
X82377204Y-109046291D01*
X83797204Y-109568795D02*
X83797204Y-109046291D01*
X126663748Y-110840000D02*
X127186252Y-110840000D01*
X126663748Y-112260000D02*
X127186252Y-112260000D01*
X82597204Y-105343795D02*
X82597204Y-104821291D01*
X81177204Y-105343795D02*
X81177204Y-104821291D01*
X79877204Y-109568795D02*
X79877204Y-109046291D01*
X81297204Y-109568795D02*
X81297204Y-109046291D01*
X87188748Y-105910000D02*
X87711252Y-105910000D01*
X87188748Y-104490000D02*
X87711252Y-104490000D01*
X87711252Y-106990000D02*
X87188748Y-106990000D01*
X87711252Y-108410000D02*
X87188748Y-108410000D01*
X96711252Y-102690000D02*
X96188748Y-102690000D01*
X96711252Y-104110000D02*
X96188748Y-104110000D01*
X104543666Y-86148381D02*
X104543666Y-86670885D01*
X105963666Y-86148381D02*
X105963666Y-86670885D01*
X127876998Y-86148381D02*
X127876998Y-86670885D01*
X129296998Y-86148381D02*
X129296998Y-86670885D01*
X152630330Y-86148381D02*
X152630330Y-86670885D01*
X151210330Y-86148381D02*
X151210330Y-86670885D01*
X101996918Y-86094633D02*
X101474414Y-86094633D01*
X101996918Y-84674633D02*
X101474414Y-84674633D01*
X125330250Y-84674633D02*
X124807746Y-84674633D01*
X125330250Y-86094633D02*
X124807746Y-86094633D01*
X148663582Y-84674633D02*
X148141078Y-84674633D01*
X148663582Y-86094633D02*
X148141078Y-86094633D01*
D10*
X96200000Y-110850000D02*
X94450000Y-110850000D01*
X96200000Y-105095000D02*
X101700000Y-105095000D01*
X96200000Y-111505000D02*
X101700000Y-111505000D01*
X96200000Y-105095000D02*
X96200000Y-105845000D01*
X101700000Y-105095000D02*
X101700000Y-105845000D01*
X101700000Y-111505000D02*
X101700000Y-110755000D01*
X96200000Y-111505000D02*
X96200000Y-110850000D01*
D13*
X99067666Y-85125000D02*
X99067666Y-89425000D01*
X99067666Y-89425000D02*
X97067666Y-89425000D01*
X97067666Y-89425000D02*
X97067666Y-85125000D01*
X120400998Y-89425000D02*
X120400998Y-85125000D01*
X122400998Y-89425000D02*
X120400998Y-89425000D01*
X122400998Y-85125000D02*
X122400998Y-89425000D01*
X145734330Y-85125000D02*
X145734330Y-89425000D01*
X145734330Y-89425000D02*
X143734330Y-89425000D01*
X143734330Y-89425000D02*
X143734330Y-85125000D01*
X83467204Y-101717543D02*
X83467204Y-100257543D01*
X80307204Y-101717543D02*
X80307204Y-99557543D01*
X80307204Y-101717543D02*
X81237204Y-101717543D01*
X83467204Y-101717543D02*
X82537204Y-101717543D01*
X85700000Y-101600000D02*
X90000000Y-101600000D01*
X90000000Y-101600000D02*
X90000000Y-103600000D01*
X90000000Y-103600000D02*
X85700000Y-103600000D01*
X110611252Y-104590000D02*
X110088748Y-104590000D01*
X110611252Y-106010000D02*
X110088748Y-106010000D01*
X133640000Y-100561252D02*
X133640000Y-100038748D01*
X135060000Y-100561252D02*
X135060000Y-100038748D01*
X137440000Y-100038748D02*
X137440000Y-100561252D01*
X138860000Y-100038748D02*
X138860000Y-100561252D01*
D10*
X142575000Y-108475000D02*
X142575000Y-109850000D01*
X133700000Y-108475000D02*
X133700000Y-104325000D01*
X142600000Y-108475000D02*
X142600000Y-104325000D01*
X133700000Y-108475000D02*
X133815000Y-108475000D01*
X133700000Y-104325000D02*
X133815000Y-104325000D01*
X142600000Y-104325000D02*
X142485000Y-104325000D01*
X142600000Y-108475000D02*
X142575000Y-108475000D01*
M02*
