G04 #@! TF.GenerationSoftware,KiCad,Pcbnew,5.1.6+dfsg1-1~bpo10+1*
G04 #@! TF.CreationDate,2020-10-10T21:46:56-04:00*
G04 #@! TF.ProjectId,hardware,68617264-7761-4726-952e-6b696361645f,1.0.0*
G04 #@! TF.SameCoordinates,Original*
G04 #@! TF.FileFunction,Legend,Top*
G04 #@! TF.FilePolarity,Positive*
%FSLAX46Y46*%
G04 Gerber Fmt 4.6, Leading zero omitted, Abs format (unit mm)*
G04 Created by KiCad (PCBNEW 5.1.6+dfsg1-1~bpo10+1) date 2020-10-10 21:46:56*
%MOMM*%
%LPD*%
G01*
G04 APERTURE LIST*
%ADD10C,0.100000*%
%ADD11C,0.080000*%
%ADD12C,0.150000*%
%ADD13C,0.120000*%
%ADD14C,0.050000*%
%ADD15C,0.127000*%
%ADD16C,0.400000*%
G04 APERTURE END LIST*
D10*
X158475951Y-124976190D02*
X158475951Y-124476190D01*
X158594999Y-124476190D01*
X158666427Y-124500000D01*
X158714046Y-124547619D01*
X158737856Y-124595238D01*
X158761666Y-124690476D01*
X158761666Y-124761904D01*
X158737856Y-124857142D01*
X158714046Y-124904761D01*
X158666427Y-124952380D01*
X158594999Y-124976190D01*
X158475951Y-124976190D01*
X158952142Y-124833333D02*
X159190237Y-124833333D01*
X158904523Y-124976190D02*
X159071189Y-124476190D01*
X159237856Y-124976190D01*
X159333094Y-124476190D02*
X159618808Y-124476190D01*
X159475951Y-124976190D02*
X159475951Y-124476190D01*
X156174046Y-124928571D02*
X156150237Y-124952380D01*
X156078808Y-124976190D01*
X156031189Y-124976190D01*
X155959761Y-124952380D01*
X155912142Y-124904761D01*
X155888332Y-124857142D01*
X155864523Y-124761904D01*
X155864523Y-124690476D01*
X155888332Y-124595238D01*
X155912142Y-124547619D01*
X155959761Y-124500000D01*
X156031189Y-124476190D01*
X156078808Y-124476190D01*
X156150237Y-124500000D01*
X156174046Y-124523809D01*
X156626427Y-124976190D02*
X156388332Y-124976190D01*
X156388332Y-124476190D01*
X156793094Y-124976190D02*
X156793094Y-124476190D01*
X157078808Y-124976190D02*
X156864523Y-124690476D01*
X157078808Y-124476190D02*
X156793094Y-124761904D01*
X153264999Y-124476190D02*
X153431666Y-124976190D01*
X153598332Y-124476190D01*
X153764999Y-124976190D02*
X153764999Y-124476190D01*
X153955475Y-124476190D01*
X154003094Y-124500000D01*
X154026904Y-124523809D01*
X154050713Y-124571428D01*
X154050713Y-124642857D01*
X154026904Y-124690476D01*
X154003094Y-124714285D01*
X153955475Y-124738095D01*
X153764999Y-124738095D01*
X154264999Y-124976190D02*
X154264999Y-124476190D01*
X154455475Y-124476190D01*
X154503094Y-124500000D01*
X154526904Y-124523809D01*
X154550713Y-124571428D01*
X154550713Y-124642857D01*
X154526904Y-124690476D01*
X154503094Y-124714285D01*
X154455475Y-124738095D01*
X154264999Y-124738095D01*
D11*
X112046191Y-123416666D02*
X111546191Y-123416666D01*
X111546191Y-123226190D01*
X111570001Y-123178571D01*
X111593810Y-123154761D01*
X111641429Y-123130952D01*
X111712858Y-123130952D01*
X111760477Y-123154761D01*
X111784286Y-123178571D01*
X111808096Y-123226190D01*
X111808096Y-123416666D01*
X111546191Y-122964285D02*
X112046191Y-122845238D01*
X111689048Y-122750000D01*
X112046191Y-122654761D01*
X111546191Y-122535714D01*
X112046191Y-122059523D02*
X111808096Y-122226190D01*
X112046191Y-122345238D02*
X111546191Y-122345238D01*
X111546191Y-122154761D01*
X111570001Y-122107142D01*
X111593810Y-122083333D01*
X111641429Y-122059523D01*
X111712858Y-122059523D01*
X111760477Y-122083333D01*
X111784286Y-122107142D01*
X111808096Y-122154761D01*
X111808096Y-122345238D01*
X105137321Y-123107142D02*
X105161130Y-123130952D01*
X105184940Y-123202380D01*
X105184940Y-123250000D01*
X105161130Y-123321428D01*
X105113511Y-123369047D01*
X105065892Y-123392857D01*
X104970654Y-123416666D01*
X104899226Y-123416666D01*
X104803988Y-123392857D01*
X104756369Y-123369047D01*
X104708750Y-123321428D01*
X104684940Y-123250000D01*
X104684940Y-123202380D01*
X104708750Y-123130952D01*
X104732559Y-123107142D01*
X105184940Y-122892857D02*
X104684940Y-122892857D01*
X104923035Y-122892857D02*
X104923035Y-122607142D01*
X105184940Y-122607142D02*
X104684940Y-122607142D01*
X104708750Y-122107142D02*
X104684940Y-122154761D01*
X104684940Y-122226190D01*
X104708750Y-122297619D01*
X104756369Y-122345238D01*
X104803988Y-122369047D01*
X104899226Y-122392857D01*
X104970654Y-122392857D01*
X105065892Y-122369047D01*
X105113511Y-122345238D01*
X105161130Y-122297619D01*
X105184940Y-122226190D01*
X105184940Y-122178571D01*
X105161130Y-122107142D01*
X105137321Y-122083333D01*
X104970654Y-122083333D01*
X104970654Y-122178571D01*
D12*
X75269047Y-128971428D02*
X76030952Y-128971428D01*
X71459047Y-128971428D02*
X72220952Y-128971428D01*
X71840000Y-129352380D02*
X71840000Y-128590476D01*
X69500000Y-128000000D02*
X69500000Y-123500000D01*
X78000000Y-128000000D02*
X69500000Y-128000000D01*
X78000000Y-123500000D02*
X78000000Y-128000000D01*
X69500000Y-123500000D02*
X78000000Y-123500000D01*
X69627380Y-61160714D02*
X69151190Y-61494047D01*
X69627380Y-61732142D02*
X68627380Y-61732142D01*
X68627380Y-61351190D01*
X68675000Y-61255952D01*
X68722619Y-61208333D01*
X68817857Y-61160714D01*
X68960714Y-61160714D01*
X69055952Y-61208333D01*
X69103571Y-61255952D01*
X69151190Y-61351190D01*
X69151190Y-61732142D01*
X69579761Y-60351190D02*
X69627380Y-60446428D01*
X69627380Y-60636904D01*
X69579761Y-60732142D01*
X69484523Y-60779761D01*
X69103571Y-60779761D01*
X69008333Y-60732142D01*
X68960714Y-60636904D01*
X68960714Y-60446428D01*
X69008333Y-60351190D01*
X69103571Y-60303571D01*
X69198809Y-60303571D01*
X69294047Y-60779761D01*
X68960714Y-59970238D02*
X69627380Y-59732142D01*
X68960714Y-59494047D01*
X69627380Y-57827380D02*
X69627380Y-58398809D01*
X69627380Y-58113095D02*
X68627380Y-58113095D01*
X68770238Y-58208333D01*
X68865476Y-58303571D01*
X68913095Y-58398809D01*
X69532142Y-57398809D02*
X69579761Y-57351190D01*
X69627380Y-57398809D01*
X69579761Y-57446428D01*
X69532142Y-57398809D01*
X69627380Y-57398809D01*
X68627380Y-56732142D02*
X68627380Y-56636904D01*
X68675000Y-56541666D01*
X68722619Y-56494047D01*
X68817857Y-56446428D01*
X69008333Y-56398809D01*
X69246428Y-56398809D01*
X69436904Y-56446428D01*
X69532142Y-56494047D01*
X69579761Y-56541666D01*
X69627380Y-56636904D01*
X69627380Y-56732142D01*
X69579761Y-56827380D01*
X69532142Y-56875000D01*
X69436904Y-56922619D01*
X69246428Y-56970238D01*
X69008333Y-56970238D01*
X68817857Y-56922619D01*
X68722619Y-56875000D01*
X68675000Y-56827380D01*
X68627380Y-56732142D01*
X69532142Y-55970238D02*
X69579761Y-55922619D01*
X69627380Y-55970238D01*
X69579761Y-56017857D01*
X69532142Y-55970238D01*
X69627380Y-55970238D01*
X68627380Y-55303571D02*
X68627380Y-55208333D01*
X68675000Y-55113095D01*
X68722619Y-55065476D01*
X68817857Y-55017857D01*
X69008333Y-54970238D01*
X69246428Y-54970238D01*
X69436904Y-55017857D01*
X69532142Y-55065476D01*
X69579761Y-55113095D01*
X69627380Y-55208333D01*
X69627380Y-55303571D01*
X69579761Y-55398809D01*
X69532142Y-55446428D01*
X69436904Y-55494047D01*
X69246428Y-55541666D01*
X69008333Y-55541666D01*
X68817857Y-55494047D01*
X68722619Y-55446428D01*
X68675000Y-55398809D01*
X68627380Y-55303571D01*
D10*
X104587326Y-61195000D02*
G75*
G03*
X104587326Y-61195000I-1253994J0D01*
G01*
X104033332Y-63745000D02*
G75*
G03*
X104033332Y-63745000I-50000J0D01*
G01*
D12*
X152915000Y-115475000D02*
X151515000Y-115475000D01*
X152915000Y-120575000D02*
X157065000Y-120575000D01*
X152915000Y-115425000D02*
X157065000Y-115425000D01*
X152915000Y-120575000D02*
X152915000Y-120430000D01*
X157065000Y-120575000D02*
X157065000Y-120430000D01*
X157065000Y-115425000D02*
X157065000Y-115570000D01*
X152915000Y-115425000D02*
X152915000Y-115475000D01*
D13*
X153053748Y-111970000D02*
X153576252Y-111970000D01*
X153053748Y-110550000D02*
X153576252Y-110550000D01*
X154053748Y-113050000D02*
X154576252Y-113050000D01*
X154053748Y-114470000D02*
X154576252Y-114470000D01*
X152601666Y-126725000D02*
X152601666Y-125615000D01*
X152601666Y-125615000D02*
X153931666Y-125615000D01*
X152601666Y-131815000D02*
X160341666Y-131815000D01*
X160341666Y-131815000D02*
X160341666Y-128185000D01*
X152601666Y-128185000D02*
X160341666Y-128185000D01*
X152601666Y-131815000D02*
X152601666Y-128185000D01*
X157731666Y-131725000D02*
X157741666Y-128185000D01*
X155201666Y-131725000D02*
X155201666Y-128185000D01*
X159371666Y-128185000D02*
X159371666Y-127775000D01*
X158651666Y-128185000D02*
X158651666Y-127775000D01*
X156831666Y-128185000D02*
X156831666Y-127775000D01*
X156111666Y-128185000D02*
X156111666Y-127775000D01*
X154291666Y-128185000D02*
X154291666Y-127835000D01*
X153571666Y-128185000D02*
X153571666Y-127835000D01*
X138570259Y-115285975D02*
X139092763Y-115285975D01*
X138570259Y-116705975D02*
X139092763Y-116705975D01*
D12*
X140575000Y-114450000D02*
X140575000Y-114425000D01*
X136425000Y-114450000D02*
X136425000Y-114335000D01*
X136425000Y-105550000D02*
X136425000Y-105665000D01*
X140575000Y-105550000D02*
X140575000Y-105665000D01*
X140575000Y-114450000D02*
X136425000Y-114450000D01*
X140575000Y-105550000D02*
X136425000Y-105550000D01*
X140575000Y-114425000D02*
X141950000Y-114425000D01*
D13*
X138570259Y-119020975D02*
X139092763Y-119020975D01*
X138570259Y-117600975D02*
X139092763Y-117600975D01*
D12*
X110453001Y-128030000D02*
X110453001Y-127138000D01*
X112993001Y-128030000D02*
X112993001Y-127138000D01*
X111977001Y-128030000D02*
X111977001Y-127138000D01*
X109437001Y-127138000D02*
X109437001Y-128030000D01*
D13*
X113755001Y-131330000D02*
X108675001Y-131330000D01*
X113755001Y-128030000D02*
X113755001Y-131330000D01*
X108675001Y-128030000D02*
X113755001Y-128030000D01*
X108675001Y-128030000D02*
X108675001Y-131330000D01*
D12*
X110360001Y-123416228D02*
X110760001Y-123416228D01*
X110360001Y-123216228D02*
X110760001Y-123216228D01*
X110360001Y-123616228D02*
X110760001Y-123616228D01*
X110360001Y-123016228D02*
X110360001Y-122816228D01*
X110760001Y-123016228D02*
X110760001Y-122816228D01*
X110160001Y-122216228D02*
G75*
G02*
X110560001Y-121816228I400000J0D01*
G01*
X110360001Y-122816228D02*
G75*
G02*
X110760001Y-122816228I200000J600000D01*
G01*
X103498750Y-123416228D02*
X103898750Y-123416228D01*
X103498750Y-123216228D02*
X103898750Y-123216228D01*
X103498750Y-123616228D02*
X103898750Y-123616228D01*
X103498750Y-123016228D02*
X103498750Y-122816228D01*
X103898750Y-123016228D02*
X103898750Y-122816228D01*
X103298750Y-122216228D02*
G75*
G02*
X103698750Y-121816228I400000J0D01*
G01*
X103498750Y-122816228D02*
G75*
G02*
X103898750Y-122816228I200000J600000D01*
G01*
X90101250Y-121600000D02*
X90101250Y-123600000D01*
X90101250Y-123600000D02*
X90601250Y-123600000D01*
X90601250Y-123600000D02*
X90701250Y-123600000D01*
X90701250Y-123600000D02*
X90701250Y-121600000D01*
X90701250Y-121600000D02*
X90151250Y-121600000D01*
X90101250Y-123200000D02*
X90401250Y-123200000D01*
X90101250Y-122800000D02*
X90401250Y-122800000D01*
X90101250Y-122400000D02*
X90401250Y-122400000D01*
X90101250Y-122000000D02*
X90401250Y-122000000D01*
D14*
X91201250Y-122800000D02*
G75*
G03*
X91201250Y-122800000I-100000J0D01*
G01*
D10*
X97737500Y-122550000D02*
X98237500Y-122550000D01*
X96737500Y-122550000D02*
X97237500Y-122550000D01*
X96987500Y-122300000D02*
X96987500Y-122800000D01*
X97737500Y-121400000D02*
X97737500Y-121800000D01*
X98237500Y-121400000D02*
X97737500Y-121400000D01*
X98237500Y-121800000D02*
X98237500Y-121400000D01*
X97237500Y-121400000D02*
X97237500Y-121800000D01*
X96737500Y-121400000D02*
X97237500Y-121400000D01*
X96737500Y-121800000D02*
X96737500Y-121400000D01*
X96487500Y-122050000D02*
X96487500Y-123550000D01*
X98237500Y-121800000D02*
X96737500Y-121800000D01*
X98487500Y-123550000D02*
X98487500Y-122050000D01*
X96737500Y-123800000D02*
X98237500Y-123800000D01*
X98487500Y-123550000D02*
G75*
G02*
X98237500Y-123800000I-250000J0D01*
G01*
X96737500Y-123800000D02*
G75*
G02*
X96487500Y-123550000I0J250000D01*
G01*
X96487500Y-122050000D02*
G75*
G02*
X96737500Y-121800000I250000J0D01*
G01*
X98237500Y-121800000D02*
G75*
G02*
X98487500Y-122050000I0J-250000D01*
G01*
D12*
X83265000Y-122100000D02*
X84265000Y-122100000D01*
X84265000Y-123100000D02*
X83265000Y-123100000D01*
X84488607Y-122600000D02*
G75*
G03*
X84488607Y-122600000I-223607J0D01*
G01*
X84365000Y-122600000D02*
G75*
G03*
X84365000Y-122600000I-100000J0D01*
G01*
X84165000Y-122600000D02*
X84365000Y-122600000D01*
X84265000Y-122100000D02*
G75*
G02*
X84265000Y-123100000I0J-500000D01*
G01*
X83265000Y-123100000D02*
G75*
G02*
X83265000Y-122100000I0J500000D01*
G01*
D10*
G36*
X68050000Y-121950000D02*
G01*
X68250000Y-120750000D01*
X68650000Y-120950000D01*
X68050000Y-121950000D01*
G37*
X68050000Y-121950000D02*
X68250000Y-120750000D01*
X68650000Y-120950000D01*
X68050000Y-121950000D01*
G36*
X68250000Y-120950000D02*
G01*
X67850000Y-120750000D01*
X68450000Y-119550000D01*
X68250000Y-120950000D01*
G37*
X68250000Y-120950000D02*
X67850000Y-120750000D01*
X68450000Y-119550000D01*
X68250000Y-120950000D01*
D12*
X83008000Y-128030000D02*
X83008000Y-127138000D01*
X85548000Y-128030000D02*
X85548000Y-127138000D01*
X84532000Y-128030000D02*
X84532000Y-127138000D01*
X81992000Y-127138000D02*
X81992000Y-128030000D01*
D13*
X86310000Y-131330000D02*
X81230000Y-131330000D01*
X86310000Y-128030000D02*
X86310000Y-131330000D01*
X81230000Y-128030000D02*
X86310000Y-128030000D01*
X81230000Y-128030000D02*
X81230000Y-131330000D01*
X101813750Y-128030000D02*
X101813750Y-131330000D01*
X101813750Y-128030000D02*
X106893750Y-128030000D01*
X106893750Y-128030000D02*
X106893750Y-131330000D01*
X106893750Y-131330000D02*
X101813750Y-131330000D01*
D12*
X102575750Y-127138000D02*
X102575750Y-128030000D01*
X105115750Y-128030000D02*
X105115750Y-127138000D01*
X106131750Y-128030000D02*
X106131750Y-127138000D01*
X103591750Y-128030000D02*
X103591750Y-127138000D01*
X89869250Y-128030000D02*
X89869250Y-127138000D01*
X92409250Y-128030000D02*
X92409250Y-127138000D01*
X91393250Y-128030000D02*
X91393250Y-127138000D01*
X88853250Y-127138000D02*
X88853250Y-128030000D01*
D13*
X93171250Y-131330000D02*
X88091250Y-131330000D01*
X93171250Y-128030000D02*
X93171250Y-131330000D01*
X88091250Y-128030000D02*
X93171250Y-128030000D01*
X88091250Y-128030000D02*
X88091250Y-131330000D01*
X94952500Y-128030000D02*
X94952500Y-131330000D01*
X94952500Y-128030000D02*
X100032500Y-128030000D01*
X100032500Y-128030000D02*
X100032500Y-131330000D01*
X100032500Y-131330000D02*
X94952500Y-131330000D01*
D12*
X95714500Y-127138000D02*
X95714500Y-128030000D01*
X98254500Y-128030000D02*
X98254500Y-127138000D01*
X99270500Y-128030000D02*
X99270500Y-127138000D01*
X96730500Y-128030000D02*
X96730500Y-127138000D01*
D15*
X144940000Y-79250000D02*
X144940000Y-81250000D01*
X144940000Y-81250000D02*
X146140000Y-81250000D01*
X144940000Y-69750000D02*
X144940000Y-68550000D01*
X144940000Y-68550000D02*
X146083000Y-68550000D01*
X157640000Y-69750000D02*
X157640000Y-68550000D01*
X157640000Y-68550000D02*
X156370000Y-68550000D01*
X157640000Y-79573600D02*
X157640000Y-81250000D01*
X157640000Y-81250000D02*
X156370000Y-81250000D01*
D16*
X146895000Y-83155000D02*
G75*
G03*
X146895000Y-83155000I-50000J0D01*
G01*
D15*
X121606664Y-79250000D02*
X121606664Y-81250000D01*
X121606664Y-81250000D02*
X122806664Y-81250000D01*
X121606664Y-69750000D02*
X121606664Y-68550000D01*
X121606664Y-68550000D02*
X122749664Y-68550000D01*
X134306664Y-69750000D02*
X134306664Y-68550000D01*
X134306664Y-68550000D02*
X133036664Y-68550000D01*
X134306664Y-79573600D02*
X134306664Y-81250000D01*
X134306664Y-81250000D02*
X133036664Y-81250000D01*
D16*
X123561664Y-83155000D02*
G75*
G03*
X123561664Y-83155000I-50000J0D01*
G01*
D15*
X98271332Y-79250000D02*
X98271332Y-81250000D01*
X98271332Y-81250000D02*
X99471332Y-81250000D01*
X98271332Y-69750000D02*
X98271332Y-68550000D01*
X98271332Y-68550000D02*
X99414332Y-68550000D01*
X110971332Y-69750000D02*
X110971332Y-68550000D01*
X110971332Y-68550000D02*
X109701332Y-68550000D01*
X110971332Y-79573600D02*
X110971332Y-81250000D01*
X110971332Y-81250000D02*
X109701332Y-81250000D01*
D16*
X100226332Y-83155000D02*
G75*
G03*
X100226332Y-83155000I-50000J0D01*
G01*
X76893000Y-83155000D02*
G75*
G03*
X76893000Y-83155000I-50000J0D01*
G01*
D15*
X87638000Y-81250000D02*
X86368000Y-81250000D01*
X87638000Y-79573600D02*
X87638000Y-81250000D01*
X87638000Y-68550000D02*
X86368000Y-68550000D01*
X87638000Y-69750000D02*
X87638000Y-68550000D01*
X74938000Y-68550000D02*
X76081000Y-68550000D01*
X74938000Y-69750000D02*
X74938000Y-68550000D01*
X74938000Y-81250000D02*
X76138000Y-81250000D01*
X74938000Y-79250000D02*
X74938000Y-81250000D01*
D13*
X71276748Y-79039000D02*
X71799252Y-79039000D01*
X71276748Y-77619000D02*
X71799252Y-77619000D01*
X71276748Y-75079000D02*
X71799252Y-75079000D01*
X71276748Y-76499000D02*
X71799252Y-76499000D01*
X94660080Y-79039000D02*
X95182584Y-79039000D01*
X94660080Y-77619000D02*
X95182584Y-77619000D01*
X94660080Y-75079000D02*
X95182584Y-75079000D01*
X94660080Y-76499000D02*
X95182584Y-76499000D01*
X117995412Y-77619000D02*
X118517916Y-77619000D01*
X117995412Y-79039000D02*
X118517916Y-79039000D01*
X117995412Y-76499000D02*
X118517916Y-76499000D01*
X117995412Y-75079000D02*
X118517916Y-75079000D01*
X141328748Y-77619000D02*
X141851252Y-77619000D01*
X141328748Y-79039000D02*
X141851252Y-79039000D01*
X141328748Y-76499000D02*
X141851252Y-76499000D01*
X141328748Y-75079000D02*
X141851252Y-75079000D01*
X80763748Y-66760000D02*
X81286252Y-66760000D01*
X80763748Y-65340000D02*
X81286252Y-65340000D01*
X104097080Y-66760000D02*
X104619584Y-66760000D01*
X104097080Y-65340000D02*
X104619584Y-65340000D01*
X127432412Y-66760000D02*
X127954916Y-66760000D01*
X127432412Y-65340000D02*
X127954916Y-65340000D01*
X150765748Y-65340000D02*
X151288252Y-65340000D01*
X150765748Y-66760000D02*
X151288252Y-66760000D01*
X81162748Y-85540000D02*
X81685252Y-85540000D01*
X81162748Y-86960000D02*
X81685252Y-86960000D01*
X81162748Y-84460000D02*
X81685252Y-84460000D01*
X81162748Y-83040000D02*
X81685252Y-83040000D01*
X104496080Y-85540000D02*
X105018584Y-85540000D01*
X104496080Y-86960000D02*
X105018584Y-86960000D01*
X104496080Y-84460000D02*
X105018584Y-84460000D01*
X104496080Y-83040000D02*
X105018584Y-83040000D01*
X127831412Y-85540000D02*
X128353916Y-85540000D01*
X127831412Y-86960000D02*
X128353916Y-86960000D01*
X127831412Y-84460000D02*
X128353916Y-84460000D01*
X127831412Y-83040000D02*
X128353916Y-83040000D01*
X151164748Y-86960000D02*
X151687252Y-86960000D01*
X151164748Y-85540000D02*
X151687252Y-85540000D01*
X151164748Y-83040000D02*
X151687252Y-83040000D01*
X151164748Y-84460000D02*
X151687252Y-84460000D01*
X90188748Y-107460000D02*
X90711252Y-107460000D01*
X90188748Y-106040000D02*
X90711252Y-106040000D01*
X95065000Y-114288748D02*
X95065000Y-114811252D01*
X96485000Y-114288748D02*
X96485000Y-114811252D01*
X133280000Y-123493748D02*
X133280000Y-124016252D01*
X131860000Y-123493748D02*
X131860000Y-124016252D01*
X94986252Y-104910000D02*
X94463748Y-104910000D01*
X94986252Y-103490000D02*
X94463748Y-103490000D01*
X124410000Y-124016252D02*
X124410000Y-123493748D01*
X125830000Y-124016252D02*
X125830000Y-123493748D01*
X97450000Y-117275000D02*
X97450000Y-110375000D01*
X100750000Y-117275000D02*
X100750000Y-110375000D01*
X97450000Y-117275000D02*
X100750000Y-117275000D01*
X129111252Y-126210000D02*
X128588748Y-126210000D01*
X129111252Y-127630000D02*
X128588748Y-127630000D01*
X77566002Y-112373255D02*
X78666002Y-112373255D01*
X77566002Y-112103255D02*
X77566002Y-112373255D01*
X76066002Y-112103255D02*
X77566002Y-112103255D01*
X77566002Y-118733255D02*
X80396002Y-118733255D01*
X77566002Y-119003255D02*
X77566002Y-118733255D01*
X76066002Y-119003255D02*
X77566002Y-119003255D01*
X79689000Y-89388748D02*
X79689000Y-89911252D01*
X81109000Y-89388748D02*
X81109000Y-89911252D01*
X103022332Y-89388748D02*
X103022332Y-89911252D01*
X104442332Y-89388748D02*
X104442332Y-89911252D01*
X127777664Y-89388748D02*
X127777664Y-89911252D01*
X126357664Y-89388748D02*
X126357664Y-89911252D01*
X149691000Y-89388748D02*
X149691000Y-89911252D01*
X151111000Y-89388748D02*
X151111000Y-89911252D01*
X96485000Y-110486252D02*
X96485000Y-109963748D01*
X95065000Y-110486252D02*
X95065000Y-109963748D01*
X130361252Y-119870000D02*
X129838748Y-119870000D01*
X130361252Y-121290000D02*
X129838748Y-121290000D01*
X78534750Y-121488255D02*
X79057254Y-121488255D01*
X78534750Y-120068255D02*
X79057254Y-120068255D01*
X94986252Y-107460000D02*
X94463748Y-107460000D01*
X94986252Y-106040000D02*
X94463748Y-106040000D01*
X126281252Y-119870000D02*
X125758748Y-119870000D01*
X126281252Y-121290000D02*
X125758748Y-121290000D01*
D10*
X81253994Y-61195000D02*
G75*
G03*
X81253994Y-61195000I-1253994J0D01*
G01*
X80700000Y-63745000D02*
G75*
G03*
X80700000Y-63745000I-50000J0D01*
G01*
X127366664Y-63745000D02*
G75*
G03*
X127366664Y-63745000I-50000J0D01*
G01*
X127920658Y-61195000D02*
G75*
G03*
X127920658Y-61195000I-1253994J0D01*
G01*
X151253994Y-61195000D02*
G75*
G03*
X151253994Y-61195000I-1253994J0D01*
G01*
X150700000Y-63745000D02*
G75*
G03*
X150700000Y-63745000I-50000J0D01*
G01*
D13*
X94035000Y-108675000D02*
X94035000Y-114685000D01*
X87215000Y-110925000D02*
X87215000Y-114685000D01*
X94035000Y-114685000D02*
X92775000Y-114685000D01*
X87215000Y-114685000D02*
X88475000Y-114685000D01*
X127950000Y-125365000D02*
X130900000Y-125365000D01*
X129750000Y-122145000D02*
X127950000Y-122145000D01*
X71223000Y-81567748D02*
X71223000Y-82090252D01*
X69803000Y-81567748D02*
X69803000Y-82090252D01*
X93186332Y-81567748D02*
X93186332Y-82090252D01*
X94606332Y-81567748D02*
X94606332Y-82090252D01*
X117941664Y-81567748D02*
X117941664Y-82090252D01*
X116521664Y-81567748D02*
X116521664Y-82090252D01*
X139855000Y-81567748D02*
X139855000Y-82090252D01*
X141275000Y-81567748D02*
X141275000Y-82090252D01*
X69814363Y-86148381D02*
X69814363Y-86670885D01*
X71234363Y-86148381D02*
X71234363Y-86670885D01*
X94606332Y-86148381D02*
X94606332Y-86670885D01*
X93186332Y-86148381D02*
X93186332Y-86670885D01*
X116521664Y-86148381D02*
X116521664Y-86670885D01*
X117941664Y-86148381D02*
X117941664Y-86670885D01*
X139855000Y-86148381D02*
X139855000Y-86670885D01*
X141275000Y-86148381D02*
X141275000Y-86670885D01*
X73775429Y-84674633D02*
X74297933Y-84674633D01*
X73775429Y-86094633D02*
X74297933Y-86094633D01*
X97128080Y-84674633D02*
X97650584Y-84674633D01*
X97128080Y-86094633D02*
X97650584Y-86094633D01*
X120463412Y-84674633D02*
X120985916Y-84674633D01*
X120463412Y-86094633D02*
X120985916Y-86094633D01*
X143796748Y-84674633D02*
X144319252Y-84674633D01*
X143796748Y-86094633D02*
X144319252Y-86094633D01*
X125367664Y-90600000D02*
X125367664Y-86300000D01*
X125367664Y-86300000D02*
X123367664Y-86300000D01*
X123367664Y-86300000D02*
X123367664Y-90600000D01*
X100032332Y-86300000D02*
X100032332Y-90600000D01*
X102032332Y-86300000D02*
X100032332Y-86300000D01*
X102032332Y-90600000D02*
X102032332Y-86300000D01*
X148701000Y-90600000D02*
X148701000Y-86300000D01*
X148701000Y-86300000D02*
X146701000Y-86300000D01*
X146701000Y-86300000D02*
X146701000Y-90600000D01*
X78699000Y-90600000D02*
X78699000Y-86300000D01*
X78699000Y-86300000D02*
X76699000Y-86300000D01*
X76699000Y-86300000D02*
X76699000Y-90600000D01*
X81396002Y-113003255D02*
X81396002Y-117303255D01*
X83396002Y-113003255D02*
X81396002Y-113003255D01*
X83396002Y-117303255D02*
X83396002Y-113003255D01*
X71393938Y-121688255D02*
X72598066Y-121688255D01*
X71393938Y-119868255D02*
X72598066Y-119868255D01*
X105461252Y-117310000D02*
X104938748Y-117310000D01*
X105461252Y-115890000D02*
X104938748Y-115890000D01*
X109805697Y-111790000D02*
X109283193Y-111790000D01*
X109805697Y-113210000D02*
X109283193Y-113210000D01*
X105461252Y-119776666D02*
X104938748Y-119776666D01*
X105461252Y-118356666D02*
X104938748Y-118356666D01*
X113710000Y-115936252D02*
X113710000Y-115413748D01*
X112290000Y-115936252D02*
X112290000Y-115413748D01*
X109805697Y-118390000D02*
X109283193Y-118390000D01*
X109805697Y-119810000D02*
X109283193Y-119810000D01*
X108644445Y-117360000D02*
X110444445Y-117360000D01*
X110444445Y-114140000D02*
X107994445Y-114140000D01*
X145190000Y-119561252D02*
X145190000Y-119038748D01*
X146610000Y-119561252D02*
X146610000Y-119038748D01*
X139092763Y-103292302D02*
X138570259Y-103292302D01*
X139092763Y-104712302D02*
X138570259Y-104712302D01*
D10*
X91733392Y-123567857D02*
X91697678Y-123603571D01*
X91590535Y-123639285D01*
X91519107Y-123639285D01*
X91411964Y-123603571D01*
X91340535Y-123532142D01*
X91304821Y-123460714D01*
X91269107Y-123317857D01*
X91269107Y-123210714D01*
X91304821Y-123067857D01*
X91340535Y-122996428D01*
X91411964Y-122925000D01*
X91519107Y-122889285D01*
X91590535Y-122889285D01*
X91697678Y-122925000D01*
X91733392Y-122960714D01*
M02*
