G04 #@! TF.GenerationSoftware,KiCad,Pcbnew,5.1.6+dfsg1-1~bpo10+1*
G04 #@! TF.CreationDate,2020-10-03T08:29:09-04:00*
G04 #@! TF.ProjectId,hardware,68617264-7761-4726-952e-6b696361645f,1.0.0*
G04 #@! TF.SameCoordinates,Original*
G04 #@! TF.FileFunction,Soldermask,Bot*
G04 #@! TF.FilePolarity,Negative*
%FSLAX46Y46*%
G04 Gerber Fmt 4.6, Leading zero omitted, Abs format (unit mm)*
G04 Created by KiCad (PCBNEW 5.1.6+dfsg1-1~bpo10+1) date 2020-10-03 08:29:09*
%MOMM*%
%LPD*%
G01*
G04 APERTURE LIST*
%ADD10C,0.100000*%
G04 APERTURE END LIST*
D10*
G36*
X76029393Y-119499304D02*
G01*
X76266101Y-119597352D01*
X76266103Y-119597353D01*
X76479135Y-119739696D01*
X76660304Y-119920865D01*
X76802647Y-120133897D01*
X76802648Y-120133899D01*
X76900696Y-120370607D01*
X76950680Y-120621893D01*
X76950680Y-120878107D01*
X76900696Y-121129393D01*
X76815879Y-121334158D01*
X76802647Y-121366103D01*
X76660304Y-121579135D01*
X76479135Y-121760304D01*
X76266103Y-121902647D01*
X76266102Y-121902648D01*
X76266101Y-121902648D01*
X76029393Y-122000696D01*
X75778107Y-122050680D01*
X75521893Y-122050680D01*
X75270607Y-122000696D01*
X75033899Y-121902648D01*
X75033898Y-121902648D01*
X75033897Y-121902647D01*
X74820865Y-121760304D01*
X74639696Y-121579135D01*
X74497353Y-121366103D01*
X74484121Y-121334158D01*
X74399304Y-121129393D01*
X74349320Y-120878107D01*
X74349320Y-120621893D01*
X74399304Y-120370607D01*
X74497352Y-120133899D01*
X74497353Y-120133897D01*
X74639696Y-119920865D01*
X74820865Y-119739696D01*
X75033897Y-119597353D01*
X75033899Y-119597352D01*
X75270607Y-119499304D01*
X75521893Y-119449320D01*
X75778107Y-119449320D01*
X76029393Y-119499304D01*
G37*
G36*
X73140680Y-122050680D02*
G01*
X70539320Y-122050680D01*
X70539320Y-119449320D01*
X73140680Y-119449320D01*
X73140680Y-122050680D01*
G37*
G36*
X105804297Y-119612326D02*
G01*
X105977906Y-119664990D01*
X105977908Y-119664991D01*
X106137905Y-119750511D01*
X106278147Y-119865603D01*
X106348676Y-119951544D01*
X106393239Y-120005844D01*
X106478760Y-120165843D01*
X106531424Y-120339452D01*
X106544750Y-120474756D01*
X106544750Y-121025243D01*
X106531424Y-121160548D01*
X106478760Y-121334157D01*
X106393239Y-121494156D01*
X106357479Y-121537729D01*
X106278147Y-121634397D01*
X106181479Y-121713729D01*
X106137906Y-121749489D01*
X105977907Y-121835010D01*
X105804298Y-121887674D01*
X105623750Y-121905456D01*
X105443203Y-121887674D01*
X105269594Y-121835010D01*
X105109595Y-121749489D01*
X105066022Y-121713729D01*
X104969354Y-121634397D01*
X104854263Y-121494157D01*
X104854262Y-121494155D01*
X104768740Y-121334157D01*
X104716076Y-121160548D01*
X104702750Y-121025244D01*
X104702750Y-120474757D01*
X104716076Y-120339453D01*
X104768740Y-120165844D01*
X104854261Y-120005845D01*
X104854262Y-120005844D01*
X104969353Y-119865603D01*
X105066021Y-119786271D01*
X105109594Y-119750511D01*
X105269593Y-119664990D01*
X105443202Y-119612326D01*
X105623750Y-119594544D01*
X105804297Y-119612326D01*
G37*
G36*
X112665548Y-119612326D02*
G01*
X112839157Y-119664990D01*
X112839159Y-119664991D01*
X112999156Y-119750511D01*
X113139398Y-119865603D01*
X113209927Y-119951544D01*
X113254490Y-120005844D01*
X113340011Y-120165843D01*
X113392675Y-120339452D01*
X113406001Y-120474756D01*
X113406001Y-121025243D01*
X113392675Y-121160548D01*
X113340011Y-121334157D01*
X113254490Y-121494156D01*
X113218730Y-121537729D01*
X113139398Y-121634397D01*
X113042730Y-121713729D01*
X112999157Y-121749489D01*
X112839158Y-121835010D01*
X112665549Y-121887674D01*
X112485001Y-121905456D01*
X112304454Y-121887674D01*
X112130845Y-121835010D01*
X111970846Y-121749489D01*
X111927273Y-121713729D01*
X111830605Y-121634397D01*
X111715514Y-121494157D01*
X111715513Y-121494155D01*
X111629991Y-121334157D01*
X111577327Y-121160548D01*
X111564001Y-121025244D01*
X111564001Y-120474757D01*
X111577327Y-120339453D01*
X111629991Y-120165844D01*
X111715512Y-120005845D01*
X111715513Y-120005844D01*
X111830604Y-119865603D01*
X111927272Y-119786271D01*
X111970845Y-119750511D01*
X112130844Y-119664990D01*
X112304453Y-119612326D01*
X112485001Y-119594544D01*
X112665548Y-119612326D01*
G37*
G36*
X92081797Y-119612326D02*
G01*
X92255406Y-119664990D01*
X92255408Y-119664991D01*
X92415405Y-119750511D01*
X92555647Y-119865603D01*
X92626176Y-119951544D01*
X92670739Y-120005844D01*
X92756260Y-120165843D01*
X92808924Y-120339452D01*
X92822250Y-120474756D01*
X92822250Y-121025243D01*
X92808924Y-121160548D01*
X92756260Y-121334157D01*
X92670739Y-121494156D01*
X92634979Y-121537729D01*
X92555647Y-121634397D01*
X92458979Y-121713729D01*
X92415406Y-121749489D01*
X92255407Y-121835010D01*
X92081798Y-121887674D01*
X91901250Y-121905456D01*
X91720703Y-121887674D01*
X91547094Y-121835010D01*
X91387095Y-121749489D01*
X91343522Y-121713729D01*
X91246854Y-121634397D01*
X91131763Y-121494157D01*
X91131762Y-121494155D01*
X91046240Y-121334157D01*
X90993576Y-121160548D01*
X90980250Y-121025244D01*
X90980250Y-120474757D01*
X90993576Y-120339453D01*
X91046240Y-120165844D01*
X91131761Y-120005845D01*
X91131762Y-120005844D01*
X91246853Y-119865603D01*
X91343521Y-119786271D01*
X91387094Y-119750511D01*
X91547093Y-119664990D01*
X91720702Y-119612326D01*
X91901250Y-119594544D01*
X92081797Y-119612326D01*
G37*
G36*
X85220547Y-119612326D02*
G01*
X85394156Y-119664990D01*
X85394158Y-119664991D01*
X85554155Y-119750511D01*
X85694397Y-119865603D01*
X85764926Y-119951544D01*
X85809489Y-120005844D01*
X85895010Y-120165843D01*
X85947674Y-120339452D01*
X85961000Y-120474756D01*
X85961000Y-121025243D01*
X85947674Y-121160548D01*
X85895010Y-121334157D01*
X85809489Y-121494156D01*
X85773729Y-121537729D01*
X85694397Y-121634397D01*
X85597729Y-121713729D01*
X85554156Y-121749489D01*
X85394157Y-121835010D01*
X85220548Y-121887674D01*
X85040000Y-121905456D01*
X84859453Y-121887674D01*
X84685844Y-121835010D01*
X84525845Y-121749489D01*
X84482272Y-121713729D01*
X84385604Y-121634397D01*
X84270513Y-121494157D01*
X84270512Y-121494155D01*
X84184990Y-121334157D01*
X84132326Y-121160548D01*
X84119000Y-121025244D01*
X84119000Y-120474757D01*
X84132326Y-120339453D01*
X84184990Y-120165844D01*
X84270511Y-120005845D01*
X84270512Y-120005844D01*
X84385603Y-119865603D01*
X84482271Y-119786271D01*
X84525844Y-119750511D01*
X84685843Y-119664990D01*
X84859452Y-119612326D01*
X85040000Y-119594544D01*
X85220547Y-119612326D01*
G37*
G36*
X98943047Y-119612326D02*
G01*
X99116656Y-119664990D01*
X99116658Y-119664991D01*
X99276655Y-119750511D01*
X99416897Y-119865603D01*
X99487426Y-119951544D01*
X99531989Y-120005844D01*
X99617510Y-120165843D01*
X99670174Y-120339452D01*
X99683500Y-120474756D01*
X99683500Y-121025243D01*
X99670174Y-121160548D01*
X99617510Y-121334157D01*
X99531989Y-121494156D01*
X99496229Y-121537729D01*
X99416897Y-121634397D01*
X99320229Y-121713729D01*
X99276656Y-121749489D01*
X99116657Y-121835010D01*
X98943048Y-121887674D01*
X98762500Y-121905456D01*
X98581953Y-121887674D01*
X98408344Y-121835010D01*
X98248345Y-121749489D01*
X98204772Y-121713729D01*
X98108104Y-121634397D01*
X97993013Y-121494157D01*
X97993012Y-121494155D01*
X97907490Y-121334157D01*
X97854826Y-121160548D01*
X97841500Y-121025244D01*
X97841500Y-120474757D01*
X97854826Y-120339453D01*
X97907490Y-120165844D01*
X97993011Y-120005845D01*
X97993012Y-120005844D01*
X98108103Y-119865603D01*
X98204771Y-119786271D01*
X98248344Y-119750511D01*
X98408343Y-119664990D01*
X98581952Y-119612326D01*
X98762500Y-119594544D01*
X98943047Y-119612326D01*
G37*
G36*
X90282250Y-121901000D02*
G01*
X88440250Y-121901000D01*
X88440250Y-119599000D01*
X90282250Y-119599000D01*
X90282250Y-121901000D01*
G37*
G36*
X97143500Y-121901000D02*
G01*
X95301500Y-121901000D01*
X95301500Y-119599000D01*
X97143500Y-119599000D01*
X97143500Y-121901000D01*
G37*
G36*
X104004750Y-121901000D02*
G01*
X102162750Y-121901000D01*
X102162750Y-119599000D01*
X104004750Y-119599000D01*
X104004750Y-121901000D01*
G37*
G36*
X110866001Y-121901000D02*
G01*
X109024001Y-121901000D01*
X109024001Y-119599000D01*
X110866001Y-119599000D01*
X110866001Y-121901000D01*
G37*
G36*
X83421000Y-121901000D02*
G01*
X81579000Y-121901000D01*
X81579000Y-119599000D01*
X83421000Y-119599000D01*
X83421000Y-121901000D01*
G37*
G36*
X152525178Y-119853927D02*
G01*
X152674478Y-119883624D01*
X152838450Y-119951544D01*
X152986020Y-120050147D01*
X153111519Y-120175646D01*
X153210122Y-120323216D01*
X153278042Y-120487188D01*
X153312666Y-120661259D01*
X153312666Y-120838741D01*
X153278042Y-121012812D01*
X153210122Y-121176784D01*
X153111519Y-121324354D01*
X152986020Y-121449853D01*
X152838450Y-121548456D01*
X152674478Y-121616376D01*
X152525178Y-121646073D01*
X152500408Y-121651000D01*
X152322924Y-121651000D01*
X152298154Y-121646073D01*
X152148854Y-121616376D01*
X151984882Y-121548456D01*
X151837312Y-121449853D01*
X151711813Y-121324354D01*
X151613210Y-121176784D01*
X151545290Y-121012812D01*
X151510666Y-120838741D01*
X151510666Y-120661259D01*
X151545290Y-120487188D01*
X151613210Y-120323216D01*
X151711813Y-120175646D01*
X151837312Y-120050147D01*
X151984882Y-119951544D01*
X152148854Y-119883624D01*
X152298154Y-119853927D01*
X152322924Y-119849000D01*
X152500408Y-119849000D01*
X152525178Y-119853927D01*
G37*
G36*
X147445178Y-119853927D02*
G01*
X147594478Y-119883624D01*
X147758450Y-119951544D01*
X147906020Y-120050147D01*
X148031519Y-120175646D01*
X148130122Y-120323216D01*
X148198042Y-120487188D01*
X148232666Y-120661259D01*
X148232666Y-120838741D01*
X148198042Y-121012812D01*
X148130122Y-121176784D01*
X148031519Y-121324354D01*
X147906020Y-121449853D01*
X147758450Y-121548456D01*
X147594478Y-121616376D01*
X147445178Y-121646073D01*
X147420408Y-121651000D01*
X147242924Y-121651000D01*
X147218154Y-121646073D01*
X147068854Y-121616376D01*
X146904882Y-121548456D01*
X146757312Y-121449853D01*
X146631813Y-121324354D01*
X146533210Y-121176784D01*
X146465290Y-121012812D01*
X146430666Y-120838741D01*
X146430666Y-120661259D01*
X146465290Y-120487188D01*
X146533210Y-120323216D01*
X146631813Y-120175646D01*
X146757312Y-120050147D01*
X146904882Y-119951544D01*
X147068854Y-119883624D01*
X147218154Y-119853927D01*
X147242924Y-119849000D01*
X147420408Y-119849000D01*
X147445178Y-119853927D01*
G37*
G36*
X149985178Y-119853927D02*
G01*
X150134478Y-119883624D01*
X150298450Y-119951544D01*
X150446020Y-120050147D01*
X150571519Y-120175646D01*
X150670122Y-120323216D01*
X150738042Y-120487188D01*
X150772666Y-120661259D01*
X150772666Y-120838741D01*
X150738042Y-121012812D01*
X150670122Y-121176784D01*
X150571519Y-121324354D01*
X150446020Y-121449853D01*
X150298450Y-121548456D01*
X150134478Y-121616376D01*
X149985178Y-121646073D01*
X149960408Y-121651000D01*
X149782924Y-121651000D01*
X149758154Y-121646073D01*
X149608854Y-121616376D01*
X149444882Y-121548456D01*
X149297312Y-121449853D01*
X149171813Y-121324354D01*
X149073210Y-121176784D01*
X149005290Y-121012812D01*
X148970666Y-120838741D01*
X148970666Y-120661259D01*
X149005290Y-120487188D01*
X149073210Y-120323216D01*
X149171813Y-120175646D01*
X149297312Y-120050147D01*
X149444882Y-119951544D01*
X149608854Y-119883624D01*
X149758154Y-119853927D01*
X149782924Y-119849000D01*
X149960408Y-119849000D01*
X149985178Y-119853927D01*
G37*
G36*
X160145178Y-119853927D02*
G01*
X160294478Y-119883624D01*
X160458450Y-119951544D01*
X160606020Y-120050147D01*
X160731519Y-120175646D01*
X160830122Y-120323216D01*
X160898042Y-120487188D01*
X160932666Y-120661259D01*
X160932666Y-120838741D01*
X160898042Y-121012812D01*
X160830122Y-121176784D01*
X160731519Y-121324354D01*
X160606020Y-121449853D01*
X160458450Y-121548456D01*
X160294478Y-121616376D01*
X160145178Y-121646073D01*
X160120408Y-121651000D01*
X159942924Y-121651000D01*
X159918154Y-121646073D01*
X159768854Y-121616376D01*
X159604882Y-121548456D01*
X159457312Y-121449853D01*
X159331813Y-121324354D01*
X159233210Y-121176784D01*
X159165290Y-121012812D01*
X159130666Y-120838741D01*
X159130666Y-120661259D01*
X159165290Y-120487188D01*
X159233210Y-120323216D01*
X159331813Y-120175646D01*
X159457312Y-120050147D01*
X159604882Y-119951544D01*
X159768854Y-119883624D01*
X159918154Y-119853927D01*
X159942924Y-119849000D01*
X160120408Y-119849000D01*
X160145178Y-119853927D01*
G37*
G36*
X157605178Y-119853927D02*
G01*
X157754478Y-119883624D01*
X157918450Y-119951544D01*
X158066020Y-120050147D01*
X158191519Y-120175646D01*
X158290122Y-120323216D01*
X158358042Y-120487188D01*
X158392666Y-120661259D01*
X158392666Y-120838741D01*
X158358042Y-121012812D01*
X158290122Y-121176784D01*
X158191519Y-121324354D01*
X158066020Y-121449853D01*
X157918450Y-121548456D01*
X157754478Y-121616376D01*
X157605178Y-121646073D01*
X157580408Y-121651000D01*
X157402924Y-121651000D01*
X157378154Y-121646073D01*
X157228854Y-121616376D01*
X157064882Y-121548456D01*
X156917312Y-121449853D01*
X156791813Y-121324354D01*
X156693210Y-121176784D01*
X156625290Y-121012812D01*
X156590666Y-120838741D01*
X156590666Y-120661259D01*
X156625290Y-120487188D01*
X156693210Y-120323216D01*
X156791813Y-120175646D01*
X156917312Y-120050147D01*
X157064882Y-119951544D01*
X157228854Y-119883624D01*
X157378154Y-119853927D01*
X157402924Y-119849000D01*
X157580408Y-119849000D01*
X157605178Y-119853927D01*
G37*
G36*
X155065178Y-119853927D02*
G01*
X155214478Y-119883624D01*
X155378450Y-119951544D01*
X155526020Y-120050147D01*
X155651519Y-120175646D01*
X155750122Y-120323216D01*
X155818042Y-120487188D01*
X155852666Y-120661259D01*
X155852666Y-120838741D01*
X155818042Y-121012812D01*
X155750122Y-121176784D01*
X155651519Y-121324354D01*
X155526020Y-121449853D01*
X155378450Y-121548456D01*
X155214478Y-121616376D01*
X155065178Y-121646073D01*
X155040408Y-121651000D01*
X154862924Y-121651000D01*
X154838154Y-121646073D01*
X154688854Y-121616376D01*
X154524882Y-121548456D01*
X154377312Y-121449853D01*
X154251813Y-121324354D01*
X154153210Y-121176784D01*
X154085290Y-121012812D01*
X154050666Y-120838741D01*
X154050666Y-120661259D01*
X154085290Y-120487188D01*
X154153210Y-120323216D01*
X154251813Y-120175646D01*
X154377312Y-120050147D01*
X154524882Y-119951544D01*
X154688854Y-119883624D01*
X154838154Y-119853927D01*
X154862924Y-119849000D01*
X155040408Y-119849000D01*
X155065178Y-119853927D01*
G37*
G36*
X136838674Y-113153465D02*
G01*
X136876367Y-113164899D01*
X136911103Y-113183466D01*
X136941548Y-113208452D01*
X136966534Y-113238897D01*
X136985101Y-113273633D01*
X136996535Y-113311326D01*
X137001000Y-113356661D01*
X137001000Y-114443339D01*
X136996535Y-114488674D01*
X136985101Y-114526367D01*
X136966534Y-114561103D01*
X136941548Y-114591548D01*
X136911103Y-114616534D01*
X136876367Y-114635101D01*
X136838674Y-114646535D01*
X136793339Y-114651000D01*
X135956661Y-114651000D01*
X135911326Y-114646535D01*
X135873633Y-114635101D01*
X135838897Y-114616534D01*
X135808452Y-114591548D01*
X135783466Y-114561103D01*
X135764899Y-114526367D01*
X135753465Y-114488674D01*
X135749000Y-114443339D01*
X135749000Y-113356661D01*
X135753465Y-113311326D01*
X135764899Y-113273633D01*
X135783466Y-113238897D01*
X135808452Y-113208452D01*
X135838897Y-113183466D01*
X135873633Y-113164899D01*
X135911326Y-113153465D01*
X135956661Y-113149000D01*
X136793339Y-113149000D01*
X136838674Y-113153465D01*
G37*
G36*
X142438674Y-113153465D02*
G01*
X142476367Y-113164899D01*
X142511103Y-113183466D01*
X142541548Y-113208452D01*
X142566534Y-113238897D01*
X142585101Y-113273633D01*
X142596535Y-113311326D01*
X142601000Y-113356661D01*
X142601000Y-114443339D01*
X142596535Y-114488674D01*
X142585101Y-114526367D01*
X142566534Y-114561103D01*
X142541548Y-114591548D01*
X142511103Y-114616534D01*
X142476367Y-114635101D01*
X142438674Y-114646535D01*
X142393339Y-114651000D01*
X141556661Y-114651000D01*
X141511326Y-114646535D01*
X141473633Y-114635101D01*
X141438897Y-114616534D01*
X141408452Y-114591548D01*
X141383466Y-114561103D01*
X141364899Y-114526367D01*
X141353465Y-114488674D01*
X141349000Y-114443339D01*
X141349000Y-113356661D01*
X141353465Y-113311326D01*
X141364899Y-113273633D01*
X141383466Y-113238897D01*
X141408452Y-113208452D01*
X141438897Y-113183466D01*
X141473633Y-113164899D01*
X141511326Y-113153465D01*
X141556661Y-113149000D01*
X142393339Y-113149000D01*
X142438674Y-113153465D01*
G37*
G36*
X140388674Y-113153465D02*
G01*
X140426367Y-113164899D01*
X140461103Y-113183466D01*
X140491548Y-113208452D01*
X140516534Y-113238897D01*
X140535101Y-113273633D01*
X140546535Y-113311326D01*
X140551000Y-113356661D01*
X140551000Y-114443339D01*
X140546535Y-114488674D01*
X140535101Y-114526367D01*
X140516534Y-114561103D01*
X140491548Y-114591548D01*
X140461103Y-114616534D01*
X140426367Y-114635101D01*
X140388674Y-114646535D01*
X140343339Y-114651000D01*
X139506661Y-114651000D01*
X139461326Y-114646535D01*
X139423633Y-114635101D01*
X139388897Y-114616534D01*
X139358452Y-114591548D01*
X139333466Y-114561103D01*
X139314899Y-114526367D01*
X139303465Y-114488674D01*
X139299000Y-114443339D01*
X139299000Y-113356661D01*
X139303465Y-113311326D01*
X139314899Y-113273633D01*
X139333466Y-113238897D01*
X139358452Y-113208452D01*
X139388897Y-113183466D01*
X139423633Y-113164899D01*
X139461326Y-113153465D01*
X139506661Y-113149000D01*
X140343339Y-113149000D01*
X140388674Y-113153465D01*
G37*
G36*
X134788674Y-113153465D02*
G01*
X134826367Y-113164899D01*
X134861103Y-113183466D01*
X134891548Y-113208452D01*
X134916534Y-113238897D01*
X134935101Y-113273633D01*
X134946535Y-113311326D01*
X134951000Y-113356661D01*
X134951000Y-114443339D01*
X134946535Y-114488674D01*
X134935101Y-114526367D01*
X134916534Y-114561103D01*
X134891548Y-114591548D01*
X134861103Y-114616534D01*
X134826367Y-114635101D01*
X134788674Y-114646535D01*
X134743339Y-114651000D01*
X133906661Y-114651000D01*
X133861326Y-114646535D01*
X133823633Y-114635101D01*
X133788897Y-114616534D01*
X133758452Y-114591548D01*
X133733466Y-114561103D01*
X133714899Y-114526367D01*
X133703465Y-114488674D01*
X133699000Y-114443339D01*
X133699000Y-113356661D01*
X133703465Y-113311326D01*
X133714899Y-113273633D01*
X133733466Y-113238897D01*
X133758452Y-113208452D01*
X133788897Y-113183466D01*
X133823633Y-113164899D01*
X133861326Y-113153465D01*
X133906661Y-113149000D01*
X134743339Y-113149000D01*
X134788674Y-113153465D01*
G37*
G36*
X100438674Y-112453465D02*
G01*
X100476367Y-112464899D01*
X100511103Y-112483466D01*
X100541548Y-112508452D01*
X100566534Y-112538897D01*
X100585101Y-112573633D01*
X100596535Y-112611326D01*
X100601000Y-112656661D01*
X100601000Y-113743339D01*
X100596535Y-113788674D01*
X100585101Y-113826367D01*
X100566534Y-113861103D01*
X100541548Y-113891548D01*
X100511103Y-113916534D01*
X100476367Y-113935101D01*
X100438674Y-113946535D01*
X100393339Y-113951000D01*
X99556661Y-113951000D01*
X99511326Y-113946535D01*
X99473633Y-113935101D01*
X99438897Y-113916534D01*
X99408452Y-113891548D01*
X99383466Y-113861103D01*
X99364899Y-113826367D01*
X99353465Y-113788674D01*
X99349000Y-113743339D01*
X99349000Y-112656661D01*
X99353465Y-112611326D01*
X99364899Y-112573633D01*
X99383466Y-112538897D01*
X99408452Y-112508452D01*
X99438897Y-112483466D01*
X99473633Y-112464899D01*
X99511326Y-112453465D01*
X99556661Y-112449000D01*
X100393339Y-112449000D01*
X100438674Y-112453465D01*
G37*
G36*
X98388674Y-112453465D02*
G01*
X98426367Y-112464899D01*
X98461103Y-112483466D01*
X98491548Y-112508452D01*
X98516534Y-112538897D01*
X98535101Y-112573633D01*
X98546535Y-112611326D01*
X98551000Y-112656661D01*
X98551000Y-113743339D01*
X98546535Y-113788674D01*
X98535101Y-113826367D01*
X98516534Y-113861103D01*
X98491548Y-113891548D01*
X98461103Y-113916534D01*
X98426367Y-113935101D01*
X98388674Y-113946535D01*
X98343339Y-113951000D01*
X97506661Y-113951000D01*
X97461326Y-113946535D01*
X97423633Y-113935101D01*
X97388897Y-113916534D01*
X97358452Y-113891548D01*
X97333466Y-113861103D01*
X97314899Y-113826367D01*
X97303465Y-113788674D01*
X97299000Y-113743339D01*
X97299000Y-112656661D01*
X97303465Y-112611326D01*
X97314899Y-112573633D01*
X97333466Y-112538897D01*
X97358452Y-112508452D01*
X97388897Y-112483466D01*
X97423633Y-112464899D01*
X97461326Y-112453465D01*
X97506661Y-112449000D01*
X98343339Y-112449000D01*
X98388674Y-112453465D01*
G37*
G36*
X130588674Y-110803465D02*
G01*
X130626367Y-110814899D01*
X130661103Y-110833466D01*
X130691548Y-110858452D01*
X130716534Y-110888897D01*
X130735101Y-110923633D01*
X130746535Y-110961326D01*
X130751000Y-111006661D01*
X130751000Y-112093339D01*
X130746535Y-112138674D01*
X130735101Y-112176367D01*
X130716534Y-112211103D01*
X130691548Y-112241548D01*
X130661103Y-112266534D01*
X130626367Y-112285101D01*
X130588674Y-112296535D01*
X130543339Y-112301000D01*
X129706661Y-112301000D01*
X129661326Y-112296535D01*
X129623633Y-112285101D01*
X129588897Y-112266534D01*
X129558452Y-112241548D01*
X129533466Y-112211103D01*
X129514899Y-112176367D01*
X129503465Y-112138674D01*
X129499000Y-112093339D01*
X129499000Y-111006661D01*
X129503465Y-110961326D01*
X129514899Y-110923633D01*
X129533466Y-110888897D01*
X129558452Y-110858452D01*
X129588897Y-110833466D01*
X129623633Y-110814899D01*
X129661326Y-110803465D01*
X129706661Y-110799000D01*
X130543339Y-110799000D01*
X130588674Y-110803465D01*
G37*
G36*
X132638674Y-110803465D02*
G01*
X132676367Y-110814899D01*
X132711103Y-110833466D01*
X132741548Y-110858452D01*
X132766534Y-110888897D01*
X132785101Y-110923633D01*
X132796535Y-110961326D01*
X132801000Y-111006661D01*
X132801000Y-112093339D01*
X132796535Y-112138674D01*
X132785101Y-112176367D01*
X132766534Y-112211103D01*
X132741548Y-112241548D01*
X132711103Y-112266534D01*
X132676367Y-112285101D01*
X132638674Y-112296535D01*
X132593339Y-112301000D01*
X131756661Y-112301000D01*
X131711326Y-112296535D01*
X131673633Y-112285101D01*
X131638897Y-112266534D01*
X131608452Y-112241548D01*
X131583466Y-112211103D01*
X131564899Y-112176367D01*
X131553465Y-112138674D01*
X131549000Y-112093339D01*
X131549000Y-111006661D01*
X131553465Y-110961326D01*
X131564899Y-110923633D01*
X131583466Y-110888897D01*
X131608452Y-110858452D01*
X131638897Y-110833466D01*
X131673633Y-110814899D01*
X131711326Y-110803465D01*
X131756661Y-110799000D01*
X132593339Y-110799000D01*
X132638674Y-110803465D01*
G37*
G36*
X126363674Y-110803465D02*
G01*
X126401367Y-110814899D01*
X126436103Y-110833466D01*
X126466548Y-110858452D01*
X126491534Y-110888897D01*
X126510101Y-110923633D01*
X126521535Y-110961326D01*
X126526000Y-111006661D01*
X126526000Y-112093339D01*
X126521535Y-112138674D01*
X126510101Y-112176367D01*
X126491534Y-112211103D01*
X126466548Y-112241548D01*
X126436103Y-112266534D01*
X126401367Y-112285101D01*
X126363674Y-112296535D01*
X126318339Y-112301000D01*
X125481661Y-112301000D01*
X125436326Y-112296535D01*
X125398633Y-112285101D01*
X125363897Y-112266534D01*
X125333452Y-112241548D01*
X125308466Y-112211103D01*
X125289899Y-112176367D01*
X125278465Y-112138674D01*
X125274000Y-112093339D01*
X125274000Y-111006661D01*
X125278465Y-110961326D01*
X125289899Y-110923633D01*
X125308466Y-110888897D01*
X125333452Y-110858452D01*
X125363897Y-110833466D01*
X125398633Y-110814899D01*
X125436326Y-110803465D01*
X125481661Y-110799000D01*
X126318339Y-110799000D01*
X126363674Y-110803465D01*
G37*
G36*
X128413674Y-110803465D02*
G01*
X128451367Y-110814899D01*
X128486103Y-110833466D01*
X128516548Y-110858452D01*
X128541534Y-110888897D01*
X128560101Y-110923633D01*
X128571535Y-110961326D01*
X128576000Y-111006661D01*
X128576000Y-112093339D01*
X128571535Y-112138674D01*
X128560101Y-112176367D01*
X128541534Y-112211103D01*
X128516548Y-112241548D01*
X128486103Y-112266534D01*
X128451367Y-112285101D01*
X128413674Y-112296535D01*
X128368339Y-112301000D01*
X127531661Y-112301000D01*
X127486326Y-112296535D01*
X127448633Y-112285101D01*
X127413897Y-112266534D01*
X127383452Y-112241548D01*
X127358466Y-112211103D01*
X127339899Y-112176367D01*
X127328465Y-112138674D01*
X127324000Y-112093339D01*
X127324000Y-111006661D01*
X127328465Y-110961326D01*
X127339899Y-110923633D01*
X127358466Y-110888897D01*
X127383452Y-110858452D01*
X127413897Y-110833466D01*
X127448633Y-110814899D01*
X127486326Y-110803465D01*
X127531661Y-110799000D01*
X128368339Y-110799000D01*
X128413674Y-110803465D01*
G37*
G36*
X136838674Y-110803465D02*
G01*
X136876367Y-110814899D01*
X136911103Y-110833466D01*
X136941548Y-110858452D01*
X136966534Y-110888897D01*
X136985101Y-110923633D01*
X136996535Y-110961326D01*
X137001000Y-111006661D01*
X137001000Y-112093339D01*
X136996535Y-112138674D01*
X136985101Y-112176367D01*
X136966534Y-112211103D01*
X136941548Y-112241548D01*
X136911103Y-112266534D01*
X136876367Y-112285101D01*
X136838674Y-112296535D01*
X136793339Y-112301000D01*
X135956661Y-112301000D01*
X135911326Y-112296535D01*
X135873633Y-112285101D01*
X135838897Y-112266534D01*
X135808452Y-112241548D01*
X135783466Y-112211103D01*
X135764899Y-112176367D01*
X135753465Y-112138674D01*
X135749000Y-112093339D01*
X135749000Y-111006661D01*
X135753465Y-110961326D01*
X135764899Y-110923633D01*
X135783466Y-110888897D01*
X135808452Y-110858452D01*
X135838897Y-110833466D01*
X135873633Y-110814899D01*
X135911326Y-110803465D01*
X135956661Y-110799000D01*
X136793339Y-110799000D01*
X136838674Y-110803465D01*
G37*
G36*
X140388674Y-110803465D02*
G01*
X140426367Y-110814899D01*
X140461103Y-110833466D01*
X140491548Y-110858452D01*
X140516534Y-110888897D01*
X140535101Y-110923633D01*
X140546535Y-110961326D01*
X140551000Y-111006661D01*
X140551000Y-112093339D01*
X140546535Y-112138674D01*
X140535101Y-112176367D01*
X140516534Y-112211103D01*
X140491548Y-112241548D01*
X140461103Y-112266534D01*
X140426367Y-112285101D01*
X140388674Y-112296535D01*
X140343339Y-112301000D01*
X139506661Y-112301000D01*
X139461326Y-112296535D01*
X139423633Y-112285101D01*
X139388897Y-112266534D01*
X139358452Y-112241548D01*
X139333466Y-112211103D01*
X139314899Y-112176367D01*
X139303465Y-112138674D01*
X139299000Y-112093339D01*
X139299000Y-111006661D01*
X139303465Y-110961326D01*
X139314899Y-110923633D01*
X139333466Y-110888897D01*
X139358452Y-110858452D01*
X139388897Y-110833466D01*
X139423633Y-110814899D01*
X139461326Y-110803465D01*
X139506661Y-110799000D01*
X140343339Y-110799000D01*
X140388674Y-110803465D01*
G37*
G36*
X142438674Y-110803465D02*
G01*
X142476367Y-110814899D01*
X142511103Y-110833466D01*
X142541548Y-110858452D01*
X142566534Y-110888897D01*
X142585101Y-110923633D01*
X142596535Y-110961326D01*
X142601000Y-111006661D01*
X142601000Y-112093339D01*
X142596535Y-112138674D01*
X142585101Y-112176367D01*
X142566534Y-112211103D01*
X142541548Y-112241548D01*
X142511103Y-112266534D01*
X142476367Y-112285101D01*
X142438674Y-112296535D01*
X142393339Y-112301000D01*
X141556661Y-112301000D01*
X141511326Y-112296535D01*
X141473633Y-112285101D01*
X141438897Y-112266534D01*
X141408452Y-112241548D01*
X141383466Y-112211103D01*
X141364899Y-112176367D01*
X141353465Y-112138674D01*
X141349000Y-112093339D01*
X141349000Y-111006661D01*
X141353465Y-110961326D01*
X141364899Y-110923633D01*
X141383466Y-110888897D01*
X141408452Y-110858452D01*
X141438897Y-110833466D01*
X141473633Y-110814899D01*
X141511326Y-110803465D01*
X141556661Y-110799000D01*
X142393339Y-110799000D01*
X142438674Y-110803465D01*
G37*
G36*
X134788674Y-110803465D02*
G01*
X134826367Y-110814899D01*
X134861103Y-110833466D01*
X134891548Y-110858452D01*
X134916534Y-110888897D01*
X134935101Y-110923633D01*
X134946535Y-110961326D01*
X134951000Y-111006661D01*
X134951000Y-112093339D01*
X134946535Y-112138674D01*
X134935101Y-112176367D01*
X134916534Y-112211103D01*
X134891548Y-112241548D01*
X134861103Y-112266534D01*
X134826367Y-112285101D01*
X134788674Y-112296535D01*
X134743339Y-112301000D01*
X133906661Y-112301000D01*
X133861326Y-112296535D01*
X133823633Y-112285101D01*
X133788897Y-112266534D01*
X133758452Y-112241548D01*
X133733466Y-112211103D01*
X133714899Y-112176367D01*
X133703465Y-112138674D01*
X133699000Y-112093339D01*
X133699000Y-111006661D01*
X133703465Y-110961326D01*
X133714899Y-110923633D01*
X133733466Y-110888897D01*
X133758452Y-110858452D01*
X133788897Y-110833466D01*
X133823633Y-110814899D01*
X133861326Y-110803465D01*
X133906661Y-110799000D01*
X134743339Y-110799000D01*
X134788674Y-110803465D01*
G37*
G36*
X81175878Y-109711008D02*
G01*
X81213571Y-109722442D01*
X81248307Y-109741009D01*
X81278752Y-109765995D01*
X81303738Y-109796440D01*
X81322305Y-109831176D01*
X81333739Y-109868869D01*
X81338204Y-109914204D01*
X81338204Y-110750882D01*
X81333739Y-110796217D01*
X81322305Y-110833910D01*
X81303738Y-110868646D01*
X81278752Y-110899091D01*
X81248307Y-110924077D01*
X81213571Y-110942644D01*
X81175878Y-110954078D01*
X81130543Y-110958543D01*
X80043865Y-110958543D01*
X79998530Y-110954078D01*
X79960837Y-110942644D01*
X79926101Y-110924077D01*
X79895656Y-110899091D01*
X79870670Y-110868646D01*
X79852103Y-110833910D01*
X79840669Y-110796217D01*
X79836204Y-110750882D01*
X79836204Y-109914204D01*
X79840669Y-109868869D01*
X79852103Y-109831176D01*
X79870670Y-109796440D01*
X79895656Y-109765995D01*
X79926101Y-109741009D01*
X79960837Y-109722442D01*
X79998530Y-109711008D01*
X80043865Y-109706543D01*
X81130543Y-109706543D01*
X81175878Y-109711008D01*
G37*
G36*
X83675878Y-109711008D02*
G01*
X83713571Y-109722442D01*
X83748307Y-109741009D01*
X83778752Y-109765995D01*
X83803738Y-109796440D01*
X83822305Y-109831176D01*
X83833739Y-109868869D01*
X83838204Y-109914204D01*
X83838204Y-110750882D01*
X83833739Y-110796217D01*
X83822305Y-110833910D01*
X83803738Y-110868646D01*
X83778752Y-110899091D01*
X83748307Y-110924077D01*
X83713571Y-110942644D01*
X83675878Y-110954078D01*
X83630543Y-110958543D01*
X82543865Y-110958543D01*
X82498530Y-110954078D01*
X82460837Y-110942644D01*
X82426101Y-110924077D01*
X82395656Y-110899091D01*
X82370670Y-110868646D01*
X82352103Y-110833910D01*
X82340669Y-110796217D01*
X82336204Y-110750882D01*
X82336204Y-109914204D01*
X82340669Y-109868869D01*
X82352103Y-109831176D01*
X82370670Y-109796440D01*
X82395656Y-109765995D01*
X82426101Y-109741009D01*
X82460837Y-109722442D01*
X82498530Y-109711008D01*
X82543865Y-109706543D01*
X83630543Y-109706543D01*
X83675878Y-109711008D01*
G37*
G36*
X88938674Y-109453465D02*
G01*
X88976367Y-109464899D01*
X89011103Y-109483466D01*
X89041548Y-109508452D01*
X89066534Y-109538897D01*
X89085101Y-109573633D01*
X89096535Y-109611326D01*
X89101000Y-109656661D01*
X89101000Y-110743339D01*
X89096535Y-110788674D01*
X89085101Y-110826367D01*
X89066534Y-110861103D01*
X89041548Y-110891548D01*
X89011103Y-110916534D01*
X88976367Y-110935101D01*
X88938674Y-110946535D01*
X88893339Y-110951000D01*
X88056661Y-110951000D01*
X88011326Y-110946535D01*
X87973633Y-110935101D01*
X87938897Y-110916534D01*
X87908452Y-110891548D01*
X87883466Y-110861103D01*
X87864899Y-110826367D01*
X87853465Y-110788674D01*
X87849000Y-110743339D01*
X87849000Y-109656661D01*
X87853465Y-109611326D01*
X87864899Y-109573633D01*
X87883466Y-109538897D01*
X87908452Y-109508452D01*
X87938897Y-109483466D01*
X87973633Y-109464899D01*
X88011326Y-109453465D01*
X88056661Y-109449000D01*
X88893339Y-109449000D01*
X88938674Y-109453465D01*
G37*
G36*
X86888674Y-109453465D02*
G01*
X86926367Y-109464899D01*
X86961103Y-109483466D01*
X86991548Y-109508452D01*
X87016534Y-109538897D01*
X87035101Y-109573633D01*
X87046535Y-109611326D01*
X87051000Y-109656661D01*
X87051000Y-110743339D01*
X87046535Y-110788674D01*
X87035101Y-110826367D01*
X87016534Y-110861103D01*
X86991548Y-110891548D01*
X86961103Y-110916534D01*
X86926367Y-110935101D01*
X86888674Y-110946535D01*
X86843339Y-110951000D01*
X86006661Y-110951000D01*
X85961326Y-110946535D01*
X85923633Y-110935101D01*
X85888897Y-110916534D01*
X85858452Y-110891548D01*
X85833466Y-110861103D01*
X85814899Y-110826367D01*
X85803465Y-110788674D01*
X85799000Y-110743339D01*
X85799000Y-109656661D01*
X85803465Y-109611326D01*
X85814899Y-109573633D01*
X85833466Y-109538897D01*
X85858452Y-109508452D01*
X85888897Y-109483466D01*
X85923633Y-109464899D01*
X85961326Y-109453465D01*
X86006661Y-109449000D01*
X86843339Y-109449000D01*
X86888674Y-109453465D01*
G37*
G36*
X105588674Y-109353465D02*
G01*
X105626367Y-109364899D01*
X105661103Y-109383466D01*
X105691548Y-109408452D01*
X105716534Y-109438897D01*
X105735101Y-109473633D01*
X105746535Y-109511326D01*
X105751000Y-109556661D01*
X105751000Y-110643339D01*
X105746535Y-110688674D01*
X105735101Y-110726367D01*
X105716534Y-110761103D01*
X105691548Y-110791548D01*
X105661103Y-110816534D01*
X105626367Y-110835101D01*
X105588674Y-110846535D01*
X105543339Y-110851000D01*
X104706661Y-110851000D01*
X104661326Y-110846535D01*
X104623633Y-110835101D01*
X104588897Y-110816534D01*
X104558452Y-110791548D01*
X104533466Y-110761103D01*
X104514899Y-110726367D01*
X104503465Y-110688674D01*
X104499000Y-110643339D01*
X104499000Y-109556661D01*
X104503465Y-109511326D01*
X104514899Y-109473633D01*
X104533466Y-109438897D01*
X104558452Y-109408452D01*
X104588897Y-109383466D01*
X104623633Y-109364899D01*
X104661326Y-109353465D01*
X104706661Y-109349000D01*
X105543339Y-109349000D01*
X105588674Y-109353465D01*
G37*
G36*
X107638674Y-109353465D02*
G01*
X107676367Y-109364899D01*
X107711103Y-109383466D01*
X107741548Y-109408452D01*
X107766534Y-109438897D01*
X107785101Y-109473633D01*
X107796535Y-109511326D01*
X107801000Y-109556661D01*
X107801000Y-110643339D01*
X107796535Y-110688674D01*
X107785101Y-110726367D01*
X107766534Y-110761103D01*
X107741548Y-110791548D01*
X107711103Y-110816534D01*
X107676367Y-110835101D01*
X107638674Y-110846535D01*
X107593339Y-110851000D01*
X106756661Y-110851000D01*
X106711326Y-110846535D01*
X106673633Y-110835101D01*
X106638897Y-110816534D01*
X106608452Y-110791548D01*
X106583466Y-110761103D01*
X106564899Y-110726367D01*
X106553465Y-110688674D01*
X106549000Y-110643339D01*
X106549000Y-109556661D01*
X106553465Y-109511326D01*
X106564899Y-109473633D01*
X106583466Y-109438897D01*
X106608452Y-109408452D01*
X106638897Y-109383466D01*
X106673633Y-109364899D01*
X106711326Y-109353465D01*
X106756661Y-109349000D01*
X107593339Y-109349000D01*
X107638674Y-109353465D01*
G37*
G36*
X96176000Y-110531000D02*
G01*
X94324000Y-110531000D01*
X94324000Y-109879000D01*
X96176000Y-109879000D01*
X96176000Y-110531000D01*
G37*
G36*
X103576000Y-110531000D02*
G01*
X101724000Y-110531000D01*
X101724000Y-109879000D01*
X103576000Y-109879000D01*
X103576000Y-110531000D01*
G37*
G36*
X144938674Y-109203465D02*
G01*
X144976367Y-109214899D01*
X145011103Y-109233466D01*
X145041548Y-109258452D01*
X145066534Y-109288897D01*
X145085101Y-109323633D01*
X145096535Y-109361326D01*
X145101000Y-109406661D01*
X145101000Y-110243339D01*
X145096535Y-110288674D01*
X145085101Y-110326367D01*
X145066534Y-110361103D01*
X145041548Y-110391548D01*
X145011103Y-110416534D01*
X144976367Y-110435101D01*
X144938674Y-110446535D01*
X144893339Y-110451000D01*
X143806661Y-110451000D01*
X143761326Y-110446535D01*
X143723633Y-110435101D01*
X143688897Y-110416534D01*
X143658452Y-110391548D01*
X143633466Y-110361103D01*
X143614899Y-110326367D01*
X143603465Y-110288674D01*
X143599000Y-110243339D01*
X143599000Y-109406661D01*
X143603465Y-109361326D01*
X143614899Y-109323633D01*
X143633466Y-109288897D01*
X143658452Y-109258452D01*
X143688897Y-109233466D01*
X143723633Y-109214899D01*
X143761326Y-109203465D01*
X143806661Y-109199000D01*
X144893339Y-109199000D01*
X144938674Y-109203465D01*
G37*
G36*
X147338674Y-109203465D02*
G01*
X147376367Y-109214899D01*
X147411103Y-109233466D01*
X147441548Y-109258452D01*
X147466534Y-109288897D01*
X147485101Y-109323633D01*
X147496535Y-109361326D01*
X147501000Y-109406661D01*
X147501000Y-110243339D01*
X147496535Y-110288674D01*
X147485101Y-110326367D01*
X147466534Y-110361103D01*
X147441548Y-110391548D01*
X147411103Y-110416534D01*
X147376367Y-110435101D01*
X147338674Y-110446535D01*
X147293339Y-110451000D01*
X146206661Y-110451000D01*
X146161326Y-110446535D01*
X146123633Y-110435101D01*
X146088897Y-110416534D01*
X146058452Y-110391548D01*
X146033466Y-110361103D01*
X146014899Y-110326367D01*
X146003465Y-110288674D01*
X145999000Y-110243339D01*
X145999000Y-109406661D01*
X146003465Y-109361326D01*
X146014899Y-109323633D01*
X146033466Y-109288897D01*
X146058452Y-109258452D01*
X146088897Y-109233466D01*
X146123633Y-109214899D01*
X146161326Y-109203465D01*
X146206661Y-109199000D01*
X147293339Y-109199000D01*
X147338674Y-109203465D01*
G37*
G36*
X137231000Y-109901000D02*
G01*
X136529000Y-109901000D01*
X136529000Y-108299000D01*
X137231000Y-108299000D01*
X137231000Y-109901000D01*
G37*
G36*
X134691000Y-109901000D02*
G01*
X133989000Y-109901000D01*
X133989000Y-108299000D01*
X134691000Y-108299000D01*
X134691000Y-109901000D01*
G37*
G36*
X141041000Y-109901000D02*
G01*
X140339000Y-109901000D01*
X140339000Y-108299000D01*
X141041000Y-108299000D01*
X141041000Y-109901000D01*
G37*
G36*
X139771000Y-109901000D02*
G01*
X139069000Y-109901000D01*
X139069000Y-108299000D01*
X139771000Y-108299000D01*
X139771000Y-109901000D01*
G37*
G36*
X138501000Y-109901000D02*
G01*
X137799000Y-109901000D01*
X137799000Y-108299000D01*
X138501000Y-108299000D01*
X138501000Y-109901000D01*
G37*
G36*
X142311000Y-109901000D02*
G01*
X141609000Y-109901000D01*
X141609000Y-108299000D01*
X142311000Y-108299000D01*
X142311000Y-109901000D01*
G37*
G36*
X135961000Y-109901000D02*
G01*
X135259000Y-109901000D01*
X135259000Y-108299000D01*
X135961000Y-108299000D01*
X135961000Y-109901000D01*
G37*
G36*
X130588674Y-108353465D02*
G01*
X130626367Y-108364899D01*
X130661103Y-108383466D01*
X130691548Y-108408452D01*
X130716534Y-108438897D01*
X130735101Y-108473633D01*
X130746535Y-108511326D01*
X130751000Y-108556661D01*
X130751000Y-109643339D01*
X130746535Y-109688674D01*
X130735101Y-109726367D01*
X130716534Y-109761103D01*
X130691548Y-109791548D01*
X130661103Y-109816534D01*
X130626367Y-109835101D01*
X130588674Y-109846535D01*
X130543339Y-109851000D01*
X129706661Y-109851000D01*
X129661326Y-109846535D01*
X129623633Y-109835101D01*
X129588897Y-109816534D01*
X129558452Y-109791548D01*
X129533466Y-109761103D01*
X129514899Y-109726367D01*
X129503465Y-109688674D01*
X129499000Y-109643339D01*
X129499000Y-108556661D01*
X129503465Y-108511326D01*
X129514899Y-108473633D01*
X129533466Y-108438897D01*
X129558452Y-108408452D01*
X129588897Y-108383466D01*
X129623633Y-108364899D01*
X129661326Y-108353465D01*
X129706661Y-108349000D01*
X130543339Y-108349000D01*
X130588674Y-108353465D01*
G37*
G36*
X132638674Y-108353465D02*
G01*
X132676367Y-108364899D01*
X132711103Y-108383466D01*
X132741548Y-108408452D01*
X132766534Y-108438897D01*
X132785101Y-108473633D01*
X132796535Y-108511326D01*
X132801000Y-108556661D01*
X132801000Y-109643339D01*
X132796535Y-109688674D01*
X132785101Y-109726367D01*
X132766534Y-109761103D01*
X132741548Y-109791548D01*
X132711103Y-109816534D01*
X132676367Y-109835101D01*
X132638674Y-109846535D01*
X132593339Y-109851000D01*
X131756661Y-109851000D01*
X131711326Y-109846535D01*
X131673633Y-109835101D01*
X131638897Y-109816534D01*
X131608452Y-109791548D01*
X131583466Y-109761103D01*
X131564899Y-109726367D01*
X131553465Y-109688674D01*
X131549000Y-109643339D01*
X131549000Y-108556661D01*
X131553465Y-108511326D01*
X131564899Y-108473633D01*
X131583466Y-108438897D01*
X131608452Y-108408452D01*
X131638897Y-108383466D01*
X131673633Y-108364899D01*
X131711326Y-108353465D01*
X131756661Y-108349000D01*
X132593339Y-108349000D01*
X132638674Y-108353465D01*
G37*
G36*
X103576000Y-109261000D02*
G01*
X101724000Y-109261000D01*
X101724000Y-108609000D01*
X103576000Y-108609000D01*
X103576000Y-109261000D01*
G37*
G36*
X96176000Y-109261000D02*
G01*
X94324000Y-109261000D01*
X94324000Y-108609000D01*
X96176000Y-108609000D01*
X96176000Y-109261000D01*
G37*
G36*
X83675878Y-107661008D02*
G01*
X83713571Y-107672442D01*
X83748307Y-107691009D01*
X83778752Y-107715995D01*
X83803738Y-107746440D01*
X83822305Y-107781176D01*
X83833739Y-107818869D01*
X83838204Y-107864204D01*
X83838204Y-108700882D01*
X83833739Y-108746217D01*
X83822305Y-108783910D01*
X83803738Y-108818646D01*
X83778752Y-108849091D01*
X83748307Y-108874077D01*
X83713571Y-108892644D01*
X83675878Y-108904078D01*
X83630543Y-108908543D01*
X82543865Y-108908543D01*
X82498530Y-108904078D01*
X82460837Y-108892644D01*
X82426101Y-108874077D01*
X82395656Y-108849091D01*
X82370670Y-108818646D01*
X82352103Y-108783910D01*
X82340669Y-108746217D01*
X82336204Y-108700882D01*
X82336204Y-107864204D01*
X82340669Y-107818869D01*
X82352103Y-107781176D01*
X82370670Y-107746440D01*
X82395656Y-107715995D01*
X82426101Y-107691009D01*
X82460837Y-107672442D01*
X82498530Y-107661008D01*
X82543865Y-107656543D01*
X83630543Y-107656543D01*
X83675878Y-107661008D01*
G37*
G36*
X81175878Y-107661008D02*
G01*
X81213571Y-107672442D01*
X81248307Y-107691009D01*
X81278752Y-107715995D01*
X81303738Y-107746440D01*
X81322305Y-107781176D01*
X81333739Y-107818869D01*
X81338204Y-107864204D01*
X81338204Y-108700882D01*
X81333739Y-108746217D01*
X81322305Y-108783910D01*
X81303738Y-108818646D01*
X81278752Y-108849091D01*
X81248307Y-108874077D01*
X81213571Y-108892644D01*
X81175878Y-108904078D01*
X81130543Y-108908543D01*
X80043865Y-108908543D01*
X79998530Y-108904078D01*
X79960837Y-108892644D01*
X79926101Y-108874077D01*
X79895656Y-108849091D01*
X79870670Y-108818646D01*
X79852103Y-108783910D01*
X79840669Y-108746217D01*
X79836204Y-108700882D01*
X79836204Y-107864204D01*
X79840669Y-107818869D01*
X79852103Y-107781176D01*
X79870670Y-107746440D01*
X79895656Y-107715995D01*
X79926101Y-107691009D01*
X79960837Y-107672442D01*
X79998530Y-107661008D01*
X80043865Y-107656543D01*
X81130543Y-107656543D01*
X81175878Y-107661008D01*
G37*
G36*
X86888674Y-106953465D02*
G01*
X86926367Y-106964899D01*
X86961103Y-106983466D01*
X86991548Y-107008452D01*
X87016534Y-107038897D01*
X87035101Y-107073633D01*
X87046535Y-107111326D01*
X87051000Y-107156661D01*
X87051000Y-108243339D01*
X87046535Y-108288674D01*
X87035101Y-108326367D01*
X87016534Y-108361103D01*
X86991548Y-108391548D01*
X86961103Y-108416534D01*
X86926367Y-108435101D01*
X86888674Y-108446535D01*
X86843339Y-108451000D01*
X86006661Y-108451000D01*
X85961326Y-108446535D01*
X85923633Y-108435101D01*
X85888897Y-108416534D01*
X85858452Y-108391548D01*
X85833466Y-108361103D01*
X85814899Y-108326367D01*
X85803465Y-108288674D01*
X85799000Y-108243339D01*
X85799000Y-107156661D01*
X85803465Y-107111326D01*
X85814899Y-107073633D01*
X85833466Y-107038897D01*
X85858452Y-107008452D01*
X85888897Y-106983466D01*
X85923633Y-106964899D01*
X85961326Y-106953465D01*
X86006661Y-106949000D01*
X86843339Y-106949000D01*
X86888674Y-106953465D01*
G37*
G36*
X93238674Y-106953465D02*
G01*
X93276367Y-106964899D01*
X93311103Y-106983466D01*
X93341548Y-107008452D01*
X93366534Y-107038897D01*
X93385101Y-107073633D01*
X93396535Y-107111326D01*
X93401000Y-107156661D01*
X93401000Y-108243339D01*
X93396535Y-108288674D01*
X93385101Y-108326367D01*
X93366534Y-108361103D01*
X93341548Y-108391548D01*
X93311103Y-108416534D01*
X93276367Y-108435101D01*
X93238674Y-108446535D01*
X93193339Y-108451000D01*
X92356661Y-108451000D01*
X92311326Y-108446535D01*
X92273633Y-108435101D01*
X92238897Y-108416534D01*
X92208452Y-108391548D01*
X92183466Y-108361103D01*
X92164899Y-108326367D01*
X92153465Y-108288674D01*
X92149000Y-108243339D01*
X92149000Y-107156661D01*
X92153465Y-107111326D01*
X92164899Y-107073633D01*
X92183466Y-107038897D01*
X92208452Y-107008452D01*
X92238897Y-106983466D01*
X92273633Y-106964899D01*
X92311326Y-106953465D01*
X92356661Y-106949000D01*
X93193339Y-106949000D01*
X93238674Y-106953465D01*
G37*
G36*
X88938674Y-106953465D02*
G01*
X88976367Y-106964899D01*
X89011103Y-106983466D01*
X89041548Y-107008452D01*
X89066534Y-107038897D01*
X89085101Y-107073633D01*
X89096535Y-107111326D01*
X89101000Y-107156661D01*
X89101000Y-108243339D01*
X89096535Y-108288674D01*
X89085101Y-108326367D01*
X89066534Y-108361103D01*
X89041548Y-108391548D01*
X89011103Y-108416534D01*
X88976367Y-108435101D01*
X88938674Y-108446535D01*
X88893339Y-108451000D01*
X88056661Y-108451000D01*
X88011326Y-108446535D01*
X87973633Y-108435101D01*
X87938897Y-108416534D01*
X87908452Y-108391548D01*
X87883466Y-108361103D01*
X87864899Y-108326367D01*
X87853465Y-108288674D01*
X87849000Y-108243339D01*
X87849000Y-107156661D01*
X87853465Y-107111326D01*
X87864899Y-107073633D01*
X87883466Y-107038897D01*
X87908452Y-107008452D01*
X87938897Y-106983466D01*
X87973633Y-106964899D01*
X88011326Y-106953465D01*
X88056661Y-106949000D01*
X88893339Y-106949000D01*
X88938674Y-106953465D01*
G37*
G36*
X91188674Y-106953465D02*
G01*
X91226367Y-106964899D01*
X91261103Y-106983466D01*
X91291548Y-107008452D01*
X91316534Y-107038897D01*
X91335101Y-107073633D01*
X91346535Y-107111326D01*
X91351000Y-107156661D01*
X91351000Y-108243339D01*
X91346535Y-108288674D01*
X91335101Y-108326367D01*
X91316534Y-108361103D01*
X91291548Y-108391548D01*
X91261103Y-108416534D01*
X91226367Y-108435101D01*
X91188674Y-108446535D01*
X91143339Y-108451000D01*
X90306661Y-108451000D01*
X90261326Y-108446535D01*
X90223633Y-108435101D01*
X90188897Y-108416534D01*
X90158452Y-108391548D01*
X90133466Y-108361103D01*
X90114899Y-108326367D01*
X90103465Y-108288674D01*
X90099000Y-108243339D01*
X90099000Y-107156661D01*
X90103465Y-107111326D01*
X90114899Y-107073633D01*
X90133466Y-107038897D01*
X90158452Y-107008452D01*
X90188897Y-106983466D01*
X90223633Y-106964899D01*
X90261326Y-106953465D01*
X90306661Y-106949000D01*
X91143339Y-106949000D01*
X91188674Y-106953465D01*
G37*
G36*
X105588674Y-106918465D02*
G01*
X105626367Y-106929899D01*
X105661103Y-106948466D01*
X105691548Y-106973452D01*
X105716534Y-107003897D01*
X105735101Y-107038633D01*
X105746535Y-107076326D01*
X105751000Y-107121661D01*
X105751000Y-108208339D01*
X105746535Y-108253674D01*
X105735101Y-108291367D01*
X105716534Y-108326103D01*
X105691548Y-108356548D01*
X105661103Y-108381534D01*
X105626367Y-108400101D01*
X105588674Y-108411535D01*
X105543339Y-108416000D01*
X104706661Y-108416000D01*
X104661326Y-108411535D01*
X104623633Y-108400101D01*
X104588897Y-108381534D01*
X104558452Y-108356548D01*
X104533466Y-108326103D01*
X104514899Y-108291367D01*
X104503465Y-108253674D01*
X104499000Y-108208339D01*
X104499000Y-107121661D01*
X104503465Y-107076326D01*
X104514899Y-107038633D01*
X104533466Y-107003897D01*
X104558452Y-106973452D01*
X104588897Y-106948466D01*
X104623633Y-106929899D01*
X104661326Y-106918465D01*
X104706661Y-106914000D01*
X105543339Y-106914000D01*
X105588674Y-106918465D01*
G37*
G36*
X107638674Y-106918465D02*
G01*
X107676367Y-106929899D01*
X107711103Y-106948466D01*
X107741548Y-106973452D01*
X107766534Y-107003897D01*
X107785101Y-107038633D01*
X107796535Y-107076326D01*
X107801000Y-107121661D01*
X107801000Y-108208339D01*
X107796535Y-108253674D01*
X107785101Y-108291367D01*
X107766534Y-108326103D01*
X107741548Y-108356548D01*
X107711103Y-108381534D01*
X107676367Y-108400101D01*
X107638674Y-108411535D01*
X107593339Y-108416000D01*
X106756661Y-108416000D01*
X106711326Y-108411535D01*
X106673633Y-108400101D01*
X106638897Y-108381534D01*
X106608452Y-108356548D01*
X106583466Y-108326103D01*
X106564899Y-108291367D01*
X106553465Y-108253674D01*
X106549000Y-108208339D01*
X106549000Y-107121661D01*
X106553465Y-107076326D01*
X106564899Y-107038633D01*
X106583466Y-107003897D01*
X106608452Y-106973452D01*
X106638897Y-106948466D01*
X106673633Y-106929899D01*
X106711326Y-106918465D01*
X106756661Y-106914000D01*
X107593339Y-106914000D01*
X107638674Y-106918465D01*
G37*
G36*
X144938674Y-107153465D02*
G01*
X144976367Y-107164899D01*
X145011103Y-107183466D01*
X145041548Y-107208452D01*
X145066534Y-107238897D01*
X145085101Y-107273633D01*
X145096535Y-107311326D01*
X145101000Y-107356661D01*
X145101000Y-108193339D01*
X145096535Y-108238674D01*
X145085101Y-108276367D01*
X145066534Y-108311103D01*
X145041548Y-108341548D01*
X145011103Y-108366534D01*
X144976367Y-108385101D01*
X144938674Y-108396535D01*
X144893339Y-108401000D01*
X143806661Y-108401000D01*
X143761326Y-108396535D01*
X143723633Y-108385101D01*
X143688897Y-108366534D01*
X143658452Y-108341548D01*
X143633466Y-108311103D01*
X143614899Y-108276367D01*
X143603465Y-108238674D01*
X143599000Y-108193339D01*
X143599000Y-107356661D01*
X143603465Y-107311326D01*
X143614899Y-107273633D01*
X143633466Y-107238897D01*
X143658452Y-107208452D01*
X143688897Y-107183466D01*
X143723633Y-107164899D01*
X143761326Y-107153465D01*
X143806661Y-107149000D01*
X144893339Y-107149000D01*
X144938674Y-107153465D01*
G37*
G36*
X147338674Y-107153465D02*
G01*
X147376367Y-107164899D01*
X147411103Y-107183466D01*
X147441548Y-107208452D01*
X147466534Y-107238897D01*
X147485101Y-107273633D01*
X147496535Y-107311326D01*
X147501000Y-107356661D01*
X147501000Y-108193339D01*
X147496535Y-108238674D01*
X147485101Y-108276367D01*
X147466534Y-108311103D01*
X147441548Y-108341548D01*
X147411103Y-108366534D01*
X147376367Y-108385101D01*
X147338674Y-108396535D01*
X147293339Y-108401000D01*
X146206661Y-108401000D01*
X146161326Y-108396535D01*
X146123633Y-108385101D01*
X146088897Y-108366534D01*
X146058452Y-108341548D01*
X146033466Y-108311103D01*
X146014899Y-108276367D01*
X146003465Y-108238674D01*
X145999000Y-108193339D01*
X145999000Y-107356661D01*
X146003465Y-107311326D01*
X146014899Y-107273633D01*
X146033466Y-107238897D01*
X146058452Y-107208452D01*
X146088897Y-107183466D01*
X146123633Y-107164899D01*
X146161326Y-107153465D01*
X146206661Y-107149000D01*
X147293339Y-107149000D01*
X147338674Y-107153465D01*
G37*
G36*
X103576000Y-107991000D02*
G01*
X101724000Y-107991000D01*
X101724000Y-107339000D01*
X103576000Y-107339000D01*
X103576000Y-107991000D01*
G37*
G36*
X96176000Y-107991000D02*
G01*
X94324000Y-107991000D01*
X94324000Y-107339000D01*
X96176000Y-107339000D01*
X96176000Y-107991000D01*
G37*
G36*
X132488674Y-105553465D02*
G01*
X132526367Y-105564899D01*
X132561103Y-105583466D01*
X132591548Y-105608452D01*
X132616534Y-105638897D01*
X132635101Y-105673633D01*
X132646535Y-105711326D01*
X132651000Y-105756661D01*
X132651000Y-106593339D01*
X132646535Y-106638674D01*
X132635101Y-106676367D01*
X132616534Y-106711103D01*
X132591548Y-106741548D01*
X132561103Y-106766534D01*
X132526367Y-106785101D01*
X132488674Y-106796535D01*
X132443339Y-106801000D01*
X131356661Y-106801000D01*
X131311326Y-106796535D01*
X131273633Y-106785101D01*
X131238897Y-106766534D01*
X131208452Y-106741548D01*
X131183466Y-106711103D01*
X131164899Y-106676367D01*
X131153465Y-106638674D01*
X131149000Y-106593339D01*
X131149000Y-105756661D01*
X131153465Y-105711326D01*
X131164899Y-105673633D01*
X131183466Y-105638897D01*
X131208452Y-105608452D01*
X131238897Y-105583466D01*
X131273633Y-105564899D01*
X131311326Y-105553465D01*
X131356661Y-105549000D01*
X132443339Y-105549000D01*
X132488674Y-105553465D01*
G37*
G36*
X82475878Y-105486008D02*
G01*
X82513571Y-105497442D01*
X82548307Y-105516009D01*
X82578752Y-105540995D01*
X82603738Y-105571440D01*
X82622305Y-105606176D01*
X82633739Y-105643869D01*
X82638204Y-105689204D01*
X82638204Y-106525882D01*
X82633739Y-106571217D01*
X82622305Y-106608910D01*
X82603738Y-106643646D01*
X82578752Y-106674091D01*
X82548307Y-106699077D01*
X82513571Y-106717644D01*
X82475878Y-106729078D01*
X82430543Y-106733543D01*
X81343865Y-106733543D01*
X81298530Y-106729078D01*
X81260837Y-106717644D01*
X81226101Y-106699077D01*
X81195656Y-106674091D01*
X81170670Y-106643646D01*
X81152103Y-106608910D01*
X81140669Y-106571217D01*
X81136204Y-106525882D01*
X81136204Y-105689204D01*
X81140669Y-105643869D01*
X81152103Y-105606176D01*
X81170670Y-105571440D01*
X81195656Y-105540995D01*
X81226101Y-105516009D01*
X81260837Y-105497442D01*
X81298530Y-105486008D01*
X81343865Y-105481543D01*
X82430543Y-105481543D01*
X82475878Y-105486008D01*
G37*
G36*
X96176000Y-106721000D02*
G01*
X94324000Y-106721000D01*
X94324000Y-106069000D01*
X96176000Y-106069000D01*
X96176000Y-106721000D01*
G37*
G36*
X103576000Y-106721000D02*
G01*
X101724000Y-106721000D01*
X101724000Y-106069000D01*
X103576000Y-106069000D01*
X103576000Y-106721000D01*
G37*
G36*
X105588674Y-104553465D02*
G01*
X105626367Y-104564899D01*
X105661103Y-104583466D01*
X105691548Y-104608452D01*
X105716534Y-104638897D01*
X105735101Y-104673633D01*
X105746535Y-104711326D01*
X105751000Y-104756661D01*
X105751000Y-105843339D01*
X105746535Y-105888674D01*
X105735101Y-105926367D01*
X105716534Y-105961103D01*
X105691548Y-105991548D01*
X105661103Y-106016534D01*
X105626367Y-106035101D01*
X105588674Y-106046535D01*
X105543339Y-106051000D01*
X104706661Y-106051000D01*
X104661326Y-106046535D01*
X104623633Y-106035101D01*
X104588897Y-106016534D01*
X104558452Y-105991548D01*
X104533466Y-105961103D01*
X104514899Y-105926367D01*
X104503465Y-105888674D01*
X104499000Y-105843339D01*
X104499000Y-104756661D01*
X104503465Y-104711326D01*
X104514899Y-104673633D01*
X104533466Y-104638897D01*
X104558452Y-104608452D01*
X104588897Y-104583466D01*
X104623633Y-104564899D01*
X104661326Y-104553465D01*
X104706661Y-104549000D01*
X105543339Y-104549000D01*
X105588674Y-104553465D01*
G37*
G36*
X107638674Y-104553465D02*
G01*
X107676367Y-104564899D01*
X107711103Y-104583466D01*
X107741548Y-104608452D01*
X107766534Y-104638897D01*
X107785101Y-104673633D01*
X107796535Y-104711326D01*
X107801000Y-104756661D01*
X107801000Y-105843339D01*
X107796535Y-105888674D01*
X107785101Y-105926367D01*
X107766534Y-105961103D01*
X107741548Y-105991548D01*
X107711103Y-106016534D01*
X107676367Y-106035101D01*
X107638674Y-106046535D01*
X107593339Y-106051000D01*
X106756661Y-106051000D01*
X106711326Y-106046535D01*
X106673633Y-106035101D01*
X106638897Y-106016534D01*
X106608452Y-105991548D01*
X106583466Y-105961103D01*
X106564899Y-105926367D01*
X106553465Y-105888674D01*
X106549000Y-105843339D01*
X106549000Y-104756661D01*
X106553465Y-104711326D01*
X106564899Y-104673633D01*
X106583466Y-104638897D01*
X106608452Y-104608452D01*
X106638897Y-104583466D01*
X106673633Y-104564899D01*
X106711326Y-104553465D01*
X106756661Y-104549000D01*
X107593339Y-104549000D01*
X107638674Y-104553465D01*
G37*
G36*
X109788674Y-104553465D02*
G01*
X109826367Y-104564899D01*
X109861103Y-104583466D01*
X109891548Y-104608452D01*
X109916534Y-104638897D01*
X109935101Y-104673633D01*
X109946535Y-104711326D01*
X109951000Y-104756661D01*
X109951000Y-105843339D01*
X109946535Y-105888674D01*
X109935101Y-105926367D01*
X109916534Y-105961103D01*
X109891548Y-105991548D01*
X109861103Y-106016534D01*
X109826367Y-106035101D01*
X109788674Y-106046535D01*
X109743339Y-106051000D01*
X108906661Y-106051000D01*
X108861326Y-106046535D01*
X108823633Y-106035101D01*
X108788897Y-106016534D01*
X108758452Y-105991548D01*
X108733466Y-105961103D01*
X108714899Y-105926367D01*
X108703465Y-105888674D01*
X108699000Y-105843339D01*
X108699000Y-104756661D01*
X108703465Y-104711326D01*
X108714899Y-104673633D01*
X108733466Y-104638897D01*
X108758452Y-104608452D01*
X108788897Y-104583466D01*
X108823633Y-104564899D01*
X108861326Y-104553465D01*
X108906661Y-104549000D01*
X109743339Y-104549000D01*
X109788674Y-104553465D01*
G37*
G36*
X111838674Y-104553465D02*
G01*
X111876367Y-104564899D01*
X111911103Y-104583466D01*
X111941548Y-104608452D01*
X111966534Y-104638897D01*
X111985101Y-104673633D01*
X111996535Y-104711326D01*
X112001000Y-104756661D01*
X112001000Y-105843339D01*
X111996535Y-105888674D01*
X111985101Y-105926367D01*
X111966534Y-105961103D01*
X111941548Y-105991548D01*
X111911103Y-106016534D01*
X111876367Y-106035101D01*
X111838674Y-106046535D01*
X111793339Y-106051000D01*
X110956661Y-106051000D01*
X110911326Y-106046535D01*
X110873633Y-106035101D01*
X110838897Y-106016534D01*
X110808452Y-105991548D01*
X110783466Y-105961103D01*
X110764899Y-105926367D01*
X110753465Y-105888674D01*
X110749000Y-105843339D01*
X110749000Y-104756661D01*
X110753465Y-104711326D01*
X110764899Y-104673633D01*
X110783466Y-104638897D01*
X110808452Y-104608452D01*
X110838897Y-104583466D01*
X110873633Y-104564899D01*
X110911326Y-104553465D01*
X110956661Y-104549000D01*
X111793339Y-104549000D01*
X111838674Y-104553465D01*
G37*
G36*
X86888674Y-104453465D02*
G01*
X86926367Y-104464899D01*
X86961103Y-104483466D01*
X86991548Y-104508452D01*
X87016534Y-104538897D01*
X87035101Y-104573633D01*
X87046535Y-104611326D01*
X87051000Y-104656661D01*
X87051000Y-105743339D01*
X87046535Y-105788674D01*
X87035101Y-105826367D01*
X87016534Y-105861103D01*
X86991548Y-105891548D01*
X86961103Y-105916534D01*
X86926367Y-105935101D01*
X86888674Y-105946535D01*
X86843339Y-105951000D01*
X86006661Y-105951000D01*
X85961326Y-105946535D01*
X85923633Y-105935101D01*
X85888897Y-105916534D01*
X85858452Y-105891548D01*
X85833466Y-105861103D01*
X85814899Y-105826367D01*
X85803465Y-105788674D01*
X85799000Y-105743339D01*
X85799000Y-104656661D01*
X85803465Y-104611326D01*
X85814899Y-104573633D01*
X85833466Y-104538897D01*
X85858452Y-104508452D01*
X85888897Y-104483466D01*
X85923633Y-104464899D01*
X85961326Y-104453465D01*
X86006661Y-104449000D01*
X86843339Y-104449000D01*
X86888674Y-104453465D01*
G37*
G36*
X88938674Y-104453465D02*
G01*
X88976367Y-104464899D01*
X89011103Y-104483466D01*
X89041548Y-104508452D01*
X89066534Y-104538897D01*
X89085101Y-104573633D01*
X89096535Y-104611326D01*
X89101000Y-104656661D01*
X89101000Y-105743339D01*
X89096535Y-105788674D01*
X89085101Y-105826367D01*
X89066534Y-105861103D01*
X89041548Y-105891548D01*
X89011103Y-105916534D01*
X88976367Y-105935101D01*
X88938674Y-105946535D01*
X88893339Y-105951000D01*
X88056661Y-105951000D01*
X88011326Y-105946535D01*
X87973633Y-105935101D01*
X87938897Y-105916534D01*
X87908452Y-105891548D01*
X87883466Y-105861103D01*
X87864899Y-105826367D01*
X87853465Y-105788674D01*
X87849000Y-105743339D01*
X87849000Y-104656661D01*
X87853465Y-104611326D01*
X87864899Y-104573633D01*
X87883466Y-104538897D01*
X87908452Y-104508452D01*
X87938897Y-104483466D01*
X87973633Y-104464899D01*
X88011326Y-104453465D01*
X88056661Y-104449000D01*
X88893339Y-104449000D01*
X88938674Y-104453465D01*
G37*
G36*
X144938674Y-104403465D02*
G01*
X144976367Y-104414899D01*
X145011103Y-104433466D01*
X145041548Y-104458452D01*
X145066534Y-104488897D01*
X145085101Y-104523633D01*
X145096535Y-104561326D01*
X145101000Y-104606661D01*
X145101000Y-105443339D01*
X145096535Y-105488674D01*
X145085101Y-105526367D01*
X145066534Y-105561103D01*
X145041548Y-105591548D01*
X145011103Y-105616534D01*
X144976367Y-105635101D01*
X144938674Y-105646535D01*
X144893339Y-105651000D01*
X143806661Y-105651000D01*
X143761326Y-105646535D01*
X143723633Y-105635101D01*
X143688897Y-105616534D01*
X143658452Y-105591548D01*
X143633466Y-105561103D01*
X143614899Y-105526367D01*
X143603465Y-105488674D01*
X143599000Y-105443339D01*
X143599000Y-104606661D01*
X143603465Y-104561326D01*
X143614899Y-104523633D01*
X143633466Y-104488897D01*
X143658452Y-104458452D01*
X143688897Y-104433466D01*
X143723633Y-104414899D01*
X143761326Y-104403465D01*
X143806661Y-104399000D01*
X144893339Y-104399000D01*
X144938674Y-104403465D01*
G37*
G36*
X147338674Y-104403465D02*
G01*
X147376367Y-104414899D01*
X147411103Y-104433466D01*
X147441548Y-104458452D01*
X147466534Y-104488897D01*
X147485101Y-104523633D01*
X147496535Y-104561326D01*
X147501000Y-104606661D01*
X147501000Y-105443339D01*
X147496535Y-105488674D01*
X147485101Y-105526367D01*
X147466534Y-105561103D01*
X147441548Y-105591548D01*
X147411103Y-105616534D01*
X147376367Y-105635101D01*
X147338674Y-105646535D01*
X147293339Y-105651000D01*
X146206661Y-105651000D01*
X146161326Y-105646535D01*
X146123633Y-105635101D01*
X146088897Y-105616534D01*
X146058452Y-105591548D01*
X146033466Y-105561103D01*
X146014899Y-105526367D01*
X146003465Y-105488674D01*
X145999000Y-105443339D01*
X145999000Y-104606661D01*
X146003465Y-104561326D01*
X146014899Y-104523633D01*
X146033466Y-104488897D01*
X146058452Y-104458452D01*
X146088897Y-104433466D01*
X146123633Y-104414899D01*
X146161326Y-104403465D01*
X146206661Y-104399000D01*
X147293339Y-104399000D01*
X147338674Y-104403465D01*
G37*
G36*
X132488674Y-103503465D02*
G01*
X132526367Y-103514899D01*
X132561103Y-103533466D01*
X132591548Y-103558452D01*
X132616534Y-103588897D01*
X132635101Y-103623633D01*
X132646535Y-103661326D01*
X132651000Y-103706661D01*
X132651000Y-104543339D01*
X132646535Y-104588674D01*
X132635101Y-104626367D01*
X132616534Y-104661103D01*
X132591548Y-104691548D01*
X132561103Y-104716534D01*
X132526367Y-104735101D01*
X132488674Y-104746535D01*
X132443339Y-104751000D01*
X131356661Y-104751000D01*
X131311326Y-104746535D01*
X131273633Y-104735101D01*
X131238897Y-104716534D01*
X131208452Y-104691548D01*
X131183466Y-104661103D01*
X131164899Y-104626367D01*
X131153465Y-104588674D01*
X131149000Y-104543339D01*
X131149000Y-103706661D01*
X131153465Y-103661326D01*
X131164899Y-103623633D01*
X131183466Y-103588897D01*
X131208452Y-103558452D01*
X131238897Y-103533466D01*
X131273633Y-103514899D01*
X131311326Y-103503465D01*
X131356661Y-103499000D01*
X132443339Y-103499000D01*
X132488674Y-103503465D01*
G37*
G36*
X82475878Y-103436008D02*
G01*
X82513571Y-103447442D01*
X82548307Y-103466009D01*
X82578752Y-103490995D01*
X82603738Y-103521440D01*
X82622305Y-103556176D01*
X82633739Y-103593869D01*
X82638204Y-103639204D01*
X82638204Y-104475882D01*
X82633739Y-104521217D01*
X82622305Y-104558910D01*
X82603738Y-104593646D01*
X82578752Y-104624091D01*
X82548307Y-104649077D01*
X82513571Y-104667644D01*
X82475878Y-104679078D01*
X82430543Y-104683543D01*
X81343865Y-104683543D01*
X81298530Y-104679078D01*
X81260837Y-104667644D01*
X81226101Y-104649077D01*
X81195656Y-104624091D01*
X81170670Y-104593646D01*
X81152103Y-104558910D01*
X81140669Y-104521217D01*
X81136204Y-104475882D01*
X81136204Y-103639204D01*
X81140669Y-103593869D01*
X81152103Y-103556176D01*
X81170670Y-103521440D01*
X81195656Y-103490995D01*
X81226101Y-103466009D01*
X81260837Y-103447442D01*
X81298530Y-103436008D01*
X81343865Y-103431543D01*
X82430543Y-103431543D01*
X82475878Y-103436008D01*
G37*
G36*
X142311000Y-104501000D02*
G01*
X141609000Y-104501000D01*
X141609000Y-102899000D01*
X142311000Y-102899000D01*
X142311000Y-104501000D01*
G37*
G36*
X135961000Y-104501000D02*
G01*
X135259000Y-104501000D01*
X135259000Y-102899000D01*
X135961000Y-102899000D01*
X135961000Y-104501000D01*
G37*
G36*
X141041000Y-104501000D02*
G01*
X140339000Y-104501000D01*
X140339000Y-102899000D01*
X141041000Y-102899000D01*
X141041000Y-104501000D01*
G37*
G36*
X139771000Y-104501000D02*
G01*
X139069000Y-104501000D01*
X139069000Y-102899000D01*
X139771000Y-102899000D01*
X139771000Y-104501000D01*
G37*
G36*
X138501000Y-104501000D02*
G01*
X137799000Y-104501000D01*
X137799000Y-102899000D01*
X138501000Y-102899000D01*
X138501000Y-104501000D01*
G37*
G36*
X137231000Y-104501000D02*
G01*
X136529000Y-104501000D01*
X136529000Y-102899000D01*
X137231000Y-102899000D01*
X137231000Y-104501000D01*
G37*
G36*
X134691000Y-104501000D02*
G01*
X133989000Y-104501000D01*
X133989000Y-102899000D01*
X134691000Y-102899000D01*
X134691000Y-104501000D01*
G37*
G36*
X97938674Y-102653465D02*
G01*
X97976367Y-102664899D01*
X98011103Y-102683466D01*
X98041548Y-102708452D01*
X98066534Y-102738897D01*
X98085101Y-102773633D01*
X98096535Y-102811326D01*
X98101000Y-102856661D01*
X98101000Y-103943339D01*
X98096535Y-103988674D01*
X98085101Y-104026367D01*
X98066534Y-104061103D01*
X98041548Y-104091548D01*
X98011103Y-104116534D01*
X97976367Y-104135101D01*
X97938674Y-104146535D01*
X97893339Y-104151000D01*
X97056661Y-104151000D01*
X97011326Y-104146535D01*
X96973633Y-104135101D01*
X96938897Y-104116534D01*
X96908452Y-104091548D01*
X96883466Y-104061103D01*
X96864899Y-104026367D01*
X96853465Y-103988674D01*
X96849000Y-103943339D01*
X96849000Y-102856661D01*
X96853465Y-102811326D01*
X96864899Y-102773633D01*
X96883466Y-102738897D01*
X96908452Y-102708452D01*
X96938897Y-102683466D01*
X96973633Y-102664899D01*
X97011326Y-102653465D01*
X97056661Y-102649000D01*
X97893339Y-102649000D01*
X97938674Y-102653465D01*
G37*
G36*
X95888674Y-102653465D02*
G01*
X95926367Y-102664899D01*
X95961103Y-102683466D01*
X95991548Y-102708452D01*
X96016534Y-102738897D01*
X96035101Y-102773633D01*
X96046535Y-102811326D01*
X96051000Y-102856661D01*
X96051000Y-103943339D01*
X96046535Y-103988674D01*
X96035101Y-104026367D01*
X96016534Y-104061103D01*
X95991548Y-104091548D01*
X95961103Y-104116534D01*
X95926367Y-104135101D01*
X95888674Y-104146535D01*
X95843339Y-104151000D01*
X95006661Y-104151000D01*
X94961326Y-104146535D01*
X94923633Y-104135101D01*
X94888897Y-104116534D01*
X94858452Y-104091548D01*
X94833466Y-104061103D01*
X94814899Y-104026367D01*
X94803465Y-103988674D01*
X94799000Y-103943339D01*
X94799000Y-102856661D01*
X94803465Y-102811326D01*
X94814899Y-102773633D01*
X94833466Y-102738897D01*
X94858452Y-102708452D01*
X94888897Y-102683466D01*
X94923633Y-102664899D01*
X94961326Y-102653465D01*
X95006661Y-102649000D01*
X95843339Y-102649000D01*
X95888674Y-102653465D01*
G37*
G36*
X100888674Y-102653465D02*
G01*
X100926367Y-102664899D01*
X100961103Y-102683466D01*
X100991548Y-102708452D01*
X101016534Y-102738897D01*
X101035101Y-102773633D01*
X101046535Y-102811326D01*
X101051000Y-102856661D01*
X101051000Y-103943339D01*
X101046535Y-103988674D01*
X101035101Y-104026367D01*
X101016534Y-104061103D01*
X100991548Y-104091548D01*
X100961103Y-104116534D01*
X100926367Y-104135101D01*
X100888674Y-104146535D01*
X100843339Y-104151000D01*
X100006661Y-104151000D01*
X99961326Y-104146535D01*
X99923633Y-104135101D01*
X99888897Y-104116534D01*
X99858452Y-104091548D01*
X99833466Y-104061103D01*
X99814899Y-104026367D01*
X99803465Y-103988674D01*
X99799000Y-103943339D01*
X99799000Y-102856661D01*
X99803465Y-102811326D01*
X99814899Y-102773633D01*
X99833466Y-102738897D01*
X99858452Y-102708452D01*
X99888897Y-102683466D01*
X99923633Y-102664899D01*
X99961326Y-102653465D01*
X100006661Y-102649000D01*
X100843339Y-102649000D01*
X100888674Y-102653465D01*
G37*
G36*
X102938674Y-102653465D02*
G01*
X102976367Y-102664899D01*
X103011103Y-102683466D01*
X103041548Y-102708452D01*
X103066534Y-102738897D01*
X103085101Y-102773633D01*
X103096535Y-102811326D01*
X103101000Y-102856661D01*
X103101000Y-103943339D01*
X103096535Y-103988674D01*
X103085101Y-104026367D01*
X103066534Y-104061103D01*
X103041548Y-104091548D01*
X103011103Y-104116534D01*
X102976367Y-104135101D01*
X102938674Y-104146535D01*
X102893339Y-104151000D01*
X102056661Y-104151000D01*
X102011326Y-104146535D01*
X101973633Y-104135101D01*
X101938897Y-104116534D01*
X101908452Y-104091548D01*
X101883466Y-104061103D01*
X101864899Y-104026367D01*
X101853465Y-103988674D01*
X101849000Y-103943339D01*
X101849000Y-102856661D01*
X101853465Y-102811326D01*
X101864899Y-102773633D01*
X101883466Y-102738897D01*
X101908452Y-102708452D01*
X101938897Y-102683466D01*
X101973633Y-102664899D01*
X102011326Y-102653465D01*
X102056661Y-102649000D01*
X102893339Y-102649000D01*
X102938674Y-102653465D01*
G37*
G36*
X147338674Y-102353465D02*
G01*
X147376367Y-102364899D01*
X147411103Y-102383466D01*
X147441548Y-102408452D01*
X147466534Y-102438897D01*
X147485101Y-102473633D01*
X147496535Y-102511326D01*
X147501000Y-102556661D01*
X147501000Y-103393339D01*
X147496535Y-103438674D01*
X147485101Y-103476367D01*
X147466534Y-103511103D01*
X147441548Y-103541548D01*
X147411103Y-103566534D01*
X147376367Y-103585101D01*
X147338674Y-103596535D01*
X147293339Y-103601000D01*
X146206661Y-103601000D01*
X146161326Y-103596535D01*
X146123633Y-103585101D01*
X146088897Y-103566534D01*
X146058452Y-103541548D01*
X146033466Y-103511103D01*
X146014899Y-103476367D01*
X146003465Y-103438674D01*
X145999000Y-103393339D01*
X145999000Y-102556661D01*
X146003465Y-102511326D01*
X146014899Y-102473633D01*
X146033466Y-102438897D01*
X146058452Y-102408452D01*
X146088897Y-102383466D01*
X146123633Y-102364899D01*
X146161326Y-102353465D01*
X146206661Y-102349000D01*
X147293339Y-102349000D01*
X147338674Y-102353465D01*
G37*
G36*
X144938674Y-102353465D02*
G01*
X144976367Y-102364899D01*
X145011103Y-102383466D01*
X145041548Y-102408452D01*
X145066534Y-102438897D01*
X145085101Y-102473633D01*
X145096535Y-102511326D01*
X145101000Y-102556661D01*
X145101000Y-103393339D01*
X145096535Y-103438674D01*
X145085101Y-103476367D01*
X145066534Y-103511103D01*
X145041548Y-103541548D01*
X145011103Y-103566534D01*
X144976367Y-103585101D01*
X144938674Y-103596535D01*
X144893339Y-103601000D01*
X143806661Y-103601000D01*
X143761326Y-103596535D01*
X143723633Y-103585101D01*
X143688897Y-103566534D01*
X143658452Y-103541548D01*
X143633466Y-103511103D01*
X143614899Y-103476367D01*
X143603465Y-103438674D01*
X143599000Y-103393339D01*
X143599000Y-102556661D01*
X143603465Y-102511326D01*
X143614899Y-102473633D01*
X143633466Y-102438897D01*
X143658452Y-102408452D01*
X143688897Y-102383466D01*
X143723633Y-102364899D01*
X143761326Y-102353465D01*
X143806661Y-102349000D01*
X144893339Y-102349000D01*
X144938674Y-102353465D01*
G37*
G36*
X89901000Y-103501000D02*
G01*
X88499000Y-103501000D01*
X88499000Y-101699000D01*
X89901000Y-101699000D01*
X89901000Y-103501000D01*
G37*
G36*
X86401000Y-103501000D02*
G01*
X84999000Y-103501000D01*
X84999000Y-101699000D01*
X86401000Y-101699000D01*
X86401000Y-103501000D01*
G37*
G36*
X82338204Y-102458543D02*
G01*
X81436204Y-102458543D01*
X81436204Y-101456543D01*
X82338204Y-101456543D01*
X82338204Y-102458543D01*
G37*
G36*
X132488674Y-100703465D02*
G01*
X132526367Y-100714899D01*
X132561103Y-100733466D01*
X132591548Y-100758452D01*
X132616534Y-100788897D01*
X132635101Y-100823633D01*
X132646535Y-100861326D01*
X132651000Y-100906661D01*
X132651000Y-101743339D01*
X132646535Y-101788674D01*
X132635101Y-101826367D01*
X132616534Y-101861103D01*
X132591548Y-101891548D01*
X132561103Y-101916534D01*
X132526367Y-101935101D01*
X132488674Y-101946535D01*
X132443339Y-101951000D01*
X131356661Y-101951000D01*
X131311326Y-101946535D01*
X131273633Y-101935101D01*
X131238897Y-101916534D01*
X131208452Y-101891548D01*
X131183466Y-101861103D01*
X131164899Y-101826367D01*
X131153465Y-101788674D01*
X131149000Y-101743339D01*
X131149000Y-100906661D01*
X131153465Y-100861326D01*
X131164899Y-100823633D01*
X131183466Y-100788897D01*
X131208452Y-100758452D01*
X131238897Y-100733466D01*
X131273633Y-100714899D01*
X131311326Y-100703465D01*
X131356661Y-100699000D01*
X132443339Y-100699000D01*
X132488674Y-100703465D01*
G37*
G36*
X134938674Y-100703465D02*
G01*
X134976367Y-100714899D01*
X135011103Y-100733466D01*
X135041548Y-100758452D01*
X135066534Y-100788897D01*
X135085101Y-100823633D01*
X135096535Y-100861326D01*
X135101000Y-100906661D01*
X135101000Y-101743339D01*
X135096535Y-101788674D01*
X135085101Y-101826367D01*
X135066534Y-101861103D01*
X135041548Y-101891548D01*
X135011103Y-101916534D01*
X134976367Y-101935101D01*
X134938674Y-101946535D01*
X134893339Y-101951000D01*
X133806661Y-101951000D01*
X133761326Y-101946535D01*
X133723633Y-101935101D01*
X133688897Y-101916534D01*
X133658452Y-101891548D01*
X133633466Y-101861103D01*
X133614899Y-101826367D01*
X133603465Y-101788674D01*
X133599000Y-101743339D01*
X133599000Y-100906661D01*
X133603465Y-100861326D01*
X133614899Y-100823633D01*
X133633466Y-100788897D01*
X133658452Y-100758452D01*
X133688897Y-100733466D01*
X133723633Y-100714899D01*
X133761326Y-100703465D01*
X133806661Y-100699000D01*
X134893339Y-100699000D01*
X134938674Y-100703465D01*
G37*
G36*
X138738674Y-100703465D02*
G01*
X138776367Y-100714899D01*
X138811103Y-100733466D01*
X138841548Y-100758452D01*
X138866534Y-100788897D01*
X138885101Y-100823633D01*
X138896535Y-100861326D01*
X138901000Y-100906661D01*
X138901000Y-101743339D01*
X138896535Y-101788674D01*
X138885101Y-101826367D01*
X138866534Y-101861103D01*
X138841548Y-101891548D01*
X138811103Y-101916534D01*
X138776367Y-101935101D01*
X138738674Y-101946535D01*
X138693339Y-101951000D01*
X137606661Y-101951000D01*
X137561326Y-101946535D01*
X137523633Y-101935101D01*
X137488897Y-101916534D01*
X137458452Y-101891548D01*
X137433466Y-101861103D01*
X137414899Y-101826367D01*
X137403465Y-101788674D01*
X137399000Y-101743339D01*
X137399000Y-100906661D01*
X137403465Y-100861326D01*
X137414899Y-100823633D01*
X137433466Y-100788897D01*
X137458452Y-100758452D01*
X137488897Y-100733466D01*
X137523633Y-100714899D01*
X137561326Y-100703465D01*
X137606661Y-100699000D01*
X138693339Y-100699000D01*
X138738674Y-100703465D01*
G37*
G36*
X88938674Y-99253465D02*
G01*
X88976367Y-99264899D01*
X89011103Y-99283466D01*
X89041548Y-99308452D01*
X89066534Y-99338897D01*
X89085101Y-99373633D01*
X89096535Y-99411326D01*
X89101000Y-99456661D01*
X89101000Y-100543339D01*
X89096535Y-100588674D01*
X89085101Y-100626367D01*
X89066534Y-100661103D01*
X89041548Y-100691548D01*
X89011103Y-100716534D01*
X88976367Y-100735101D01*
X88938674Y-100746535D01*
X88893339Y-100751000D01*
X88056661Y-100751000D01*
X88011326Y-100746535D01*
X87973633Y-100735101D01*
X87938897Y-100716534D01*
X87908452Y-100691548D01*
X87883466Y-100661103D01*
X87864899Y-100626367D01*
X87853465Y-100588674D01*
X87849000Y-100543339D01*
X87849000Y-99456661D01*
X87853465Y-99411326D01*
X87864899Y-99373633D01*
X87883466Y-99338897D01*
X87908452Y-99308452D01*
X87938897Y-99283466D01*
X87973633Y-99264899D01*
X88011326Y-99253465D01*
X88056661Y-99249000D01*
X88893339Y-99249000D01*
X88938674Y-99253465D01*
G37*
G36*
X86888674Y-99253465D02*
G01*
X86926367Y-99264899D01*
X86961103Y-99283466D01*
X86991548Y-99308452D01*
X87016534Y-99338897D01*
X87035101Y-99373633D01*
X87046535Y-99411326D01*
X87051000Y-99456661D01*
X87051000Y-100543339D01*
X87046535Y-100588674D01*
X87035101Y-100626367D01*
X87016534Y-100661103D01*
X86991548Y-100691548D01*
X86961103Y-100716534D01*
X86926367Y-100735101D01*
X86888674Y-100746535D01*
X86843339Y-100751000D01*
X86006661Y-100751000D01*
X85961326Y-100746535D01*
X85923633Y-100735101D01*
X85888897Y-100716534D01*
X85858452Y-100691548D01*
X85833466Y-100661103D01*
X85814899Y-100626367D01*
X85803465Y-100588674D01*
X85799000Y-100543339D01*
X85799000Y-99456661D01*
X85803465Y-99411326D01*
X85814899Y-99373633D01*
X85833466Y-99338897D01*
X85858452Y-99308452D01*
X85888897Y-99283466D01*
X85923633Y-99264899D01*
X85961326Y-99253465D01*
X86006661Y-99249000D01*
X86843339Y-99249000D01*
X86888674Y-99253465D01*
G37*
G36*
X83288204Y-100458543D02*
G01*
X82386204Y-100458543D01*
X82386204Y-99456543D01*
X83288204Y-99456543D01*
X83288204Y-100458543D01*
G37*
G36*
X81388204Y-100458543D02*
G01*
X80486204Y-100458543D01*
X80486204Y-99456543D01*
X81388204Y-99456543D01*
X81388204Y-100458543D01*
G37*
G36*
X134938674Y-98653465D02*
G01*
X134976367Y-98664899D01*
X135011103Y-98683466D01*
X135041548Y-98708452D01*
X135066534Y-98738897D01*
X135085101Y-98773633D01*
X135096535Y-98811326D01*
X135101000Y-98856661D01*
X135101000Y-99693339D01*
X135096535Y-99738674D01*
X135085101Y-99776367D01*
X135066534Y-99811103D01*
X135041548Y-99841548D01*
X135011103Y-99866534D01*
X134976367Y-99885101D01*
X134938674Y-99896535D01*
X134893339Y-99901000D01*
X133806661Y-99901000D01*
X133761326Y-99896535D01*
X133723633Y-99885101D01*
X133688897Y-99866534D01*
X133658452Y-99841548D01*
X133633466Y-99811103D01*
X133614899Y-99776367D01*
X133603465Y-99738674D01*
X133599000Y-99693339D01*
X133599000Y-98856661D01*
X133603465Y-98811326D01*
X133614899Y-98773633D01*
X133633466Y-98738897D01*
X133658452Y-98708452D01*
X133688897Y-98683466D01*
X133723633Y-98664899D01*
X133761326Y-98653465D01*
X133806661Y-98649000D01*
X134893339Y-98649000D01*
X134938674Y-98653465D01*
G37*
G36*
X132488674Y-98653465D02*
G01*
X132526367Y-98664899D01*
X132561103Y-98683466D01*
X132591548Y-98708452D01*
X132616534Y-98738897D01*
X132635101Y-98773633D01*
X132646535Y-98811326D01*
X132651000Y-98856661D01*
X132651000Y-99693339D01*
X132646535Y-99738674D01*
X132635101Y-99776367D01*
X132616534Y-99811103D01*
X132591548Y-99841548D01*
X132561103Y-99866534D01*
X132526367Y-99885101D01*
X132488674Y-99896535D01*
X132443339Y-99901000D01*
X131356661Y-99901000D01*
X131311326Y-99896535D01*
X131273633Y-99885101D01*
X131238897Y-99866534D01*
X131208452Y-99841548D01*
X131183466Y-99811103D01*
X131164899Y-99776367D01*
X131153465Y-99738674D01*
X131149000Y-99693339D01*
X131149000Y-98856661D01*
X131153465Y-98811326D01*
X131164899Y-98773633D01*
X131183466Y-98738897D01*
X131208452Y-98708452D01*
X131238897Y-98683466D01*
X131273633Y-98664899D01*
X131311326Y-98653465D01*
X131356661Y-98649000D01*
X132443339Y-98649000D01*
X132488674Y-98653465D01*
G37*
G36*
X138738674Y-98653465D02*
G01*
X138776367Y-98664899D01*
X138811103Y-98683466D01*
X138841548Y-98708452D01*
X138866534Y-98738897D01*
X138885101Y-98773633D01*
X138896535Y-98811326D01*
X138901000Y-98856661D01*
X138901000Y-99693339D01*
X138896535Y-99738674D01*
X138885101Y-99776367D01*
X138866534Y-99811103D01*
X138841548Y-99841548D01*
X138811103Y-99866534D01*
X138776367Y-99885101D01*
X138738674Y-99896535D01*
X138693339Y-99901000D01*
X137606661Y-99901000D01*
X137561326Y-99896535D01*
X137523633Y-99885101D01*
X137488897Y-99866534D01*
X137458452Y-99841548D01*
X137433466Y-99811103D01*
X137414899Y-99776367D01*
X137403465Y-99738674D01*
X137399000Y-99693339D01*
X137399000Y-98856661D01*
X137403465Y-98811326D01*
X137414899Y-98773633D01*
X137433466Y-98738897D01*
X137458452Y-98708452D01*
X137488897Y-98683466D01*
X137523633Y-98664899D01*
X137561326Y-98653465D01*
X137606661Y-98649000D01*
X138693339Y-98649000D01*
X138738674Y-98653465D01*
G37*
G36*
X142623004Y-90053465D02*
G01*
X142660697Y-90064899D01*
X142695433Y-90083466D01*
X142725878Y-90108452D01*
X142750864Y-90138897D01*
X142769431Y-90173633D01*
X142780865Y-90211326D01*
X142785330Y-90256661D01*
X142785330Y-91093339D01*
X142780865Y-91138674D01*
X142769431Y-91176367D01*
X142750864Y-91211103D01*
X142725878Y-91241548D01*
X142695433Y-91266534D01*
X142660697Y-91285101D01*
X142623004Y-91296535D01*
X142577669Y-91301000D01*
X141490991Y-91301000D01*
X141445656Y-91296535D01*
X141407963Y-91285101D01*
X141373227Y-91266534D01*
X141342782Y-91241548D01*
X141317796Y-91211103D01*
X141299229Y-91176367D01*
X141287795Y-91138674D01*
X141283330Y-91093339D01*
X141283330Y-90256661D01*
X141287795Y-90211326D01*
X141299229Y-90173633D01*
X141317796Y-90138897D01*
X141342782Y-90108452D01*
X141373227Y-90083466D01*
X141407963Y-90064899D01*
X141445656Y-90053465D01*
X141490991Y-90049000D01*
X142577669Y-90049000D01*
X142623004Y-90053465D01*
G37*
G36*
X95956340Y-90053465D02*
G01*
X95994033Y-90064899D01*
X96028769Y-90083466D01*
X96059214Y-90108452D01*
X96084200Y-90138897D01*
X96102767Y-90173633D01*
X96114201Y-90211326D01*
X96118666Y-90256661D01*
X96118666Y-91093339D01*
X96114201Y-91138674D01*
X96102767Y-91176367D01*
X96084200Y-91211103D01*
X96059214Y-91241548D01*
X96028769Y-91266534D01*
X95994033Y-91285101D01*
X95956340Y-91296535D01*
X95911005Y-91301000D01*
X94824327Y-91301000D01*
X94778992Y-91296535D01*
X94741299Y-91285101D01*
X94706563Y-91266534D01*
X94676118Y-91241548D01*
X94651132Y-91211103D01*
X94632565Y-91176367D01*
X94621131Y-91138674D01*
X94616666Y-91093339D01*
X94616666Y-90256661D01*
X94621131Y-90211326D01*
X94632565Y-90173633D01*
X94651132Y-90138897D01*
X94676118Y-90108452D01*
X94706563Y-90083466D01*
X94741299Y-90064899D01*
X94778992Y-90053465D01*
X94824327Y-90049000D01*
X95911005Y-90049000D01*
X95956340Y-90053465D01*
G37*
G36*
X119289672Y-90053465D02*
G01*
X119327365Y-90064899D01*
X119362101Y-90083466D01*
X119392546Y-90108452D01*
X119417532Y-90138897D01*
X119436099Y-90173633D01*
X119447533Y-90211326D01*
X119451998Y-90256661D01*
X119451998Y-91093339D01*
X119447533Y-91138674D01*
X119436099Y-91176367D01*
X119417532Y-91211103D01*
X119392546Y-91241548D01*
X119362101Y-91266534D01*
X119327365Y-91285101D01*
X119289672Y-91296535D01*
X119244337Y-91301000D01*
X118157659Y-91301000D01*
X118112324Y-91296535D01*
X118074631Y-91285101D01*
X118039895Y-91266534D01*
X118009450Y-91241548D01*
X117984464Y-91211103D01*
X117965897Y-91176367D01*
X117954463Y-91138674D01*
X117949998Y-91093339D01*
X117949998Y-90256661D01*
X117954463Y-90211326D01*
X117965897Y-90173633D01*
X117984464Y-90138897D01*
X118009450Y-90108452D01*
X118039895Y-90083466D01*
X118074631Y-90064899D01*
X118112324Y-90053465D01*
X118157659Y-90049000D01*
X119244337Y-90049000D01*
X119289672Y-90053465D01*
G37*
G36*
X145635330Y-89326000D02*
G01*
X143833330Y-89326000D01*
X143833330Y-87924000D01*
X145635330Y-87924000D01*
X145635330Y-89326000D01*
G37*
G36*
X122301998Y-89326000D02*
G01*
X120499998Y-89326000D01*
X120499998Y-87924000D01*
X122301998Y-87924000D01*
X122301998Y-89326000D01*
G37*
G36*
X98968666Y-89326000D02*
G01*
X97166666Y-89326000D01*
X97166666Y-87924000D01*
X98968666Y-87924000D01*
X98968666Y-89326000D01*
G37*
G36*
X95956340Y-88003465D02*
G01*
X95994033Y-88014899D01*
X96028769Y-88033466D01*
X96059214Y-88058452D01*
X96084200Y-88088897D01*
X96102767Y-88123633D01*
X96114201Y-88161326D01*
X96118666Y-88206661D01*
X96118666Y-89043339D01*
X96114201Y-89088674D01*
X96102767Y-89126367D01*
X96084200Y-89161103D01*
X96059214Y-89191548D01*
X96028769Y-89216534D01*
X95994033Y-89235101D01*
X95956340Y-89246535D01*
X95911005Y-89251000D01*
X94824327Y-89251000D01*
X94778992Y-89246535D01*
X94741299Y-89235101D01*
X94706563Y-89216534D01*
X94676118Y-89191548D01*
X94651132Y-89161103D01*
X94632565Y-89126367D01*
X94621131Y-89088674D01*
X94616666Y-89043339D01*
X94616666Y-88206661D01*
X94621131Y-88161326D01*
X94632565Y-88123633D01*
X94651132Y-88088897D01*
X94676118Y-88058452D01*
X94706563Y-88033466D01*
X94741299Y-88014899D01*
X94778992Y-88003465D01*
X94824327Y-87999000D01*
X95911005Y-87999000D01*
X95956340Y-88003465D01*
G37*
G36*
X119289672Y-88003465D02*
G01*
X119327365Y-88014899D01*
X119362101Y-88033466D01*
X119392546Y-88058452D01*
X119417532Y-88088897D01*
X119436099Y-88123633D01*
X119447533Y-88161326D01*
X119451998Y-88206661D01*
X119451998Y-89043339D01*
X119447533Y-89088674D01*
X119436099Y-89126367D01*
X119417532Y-89161103D01*
X119392546Y-89191548D01*
X119362101Y-89216534D01*
X119327365Y-89235101D01*
X119289672Y-89246535D01*
X119244337Y-89251000D01*
X118157659Y-89251000D01*
X118112324Y-89246535D01*
X118074631Y-89235101D01*
X118039895Y-89216534D01*
X118009450Y-89191548D01*
X117984464Y-89161103D01*
X117965897Y-89126367D01*
X117954463Y-89088674D01*
X117949998Y-89043339D01*
X117949998Y-88206661D01*
X117954463Y-88161326D01*
X117965897Y-88123633D01*
X117984464Y-88088897D01*
X118009450Y-88058452D01*
X118039895Y-88033466D01*
X118074631Y-88014899D01*
X118112324Y-88003465D01*
X118157659Y-87999000D01*
X119244337Y-87999000D01*
X119289672Y-88003465D01*
G37*
G36*
X142623004Y-88003465D02*
G01*
X142660697Y-88014899D01*
X142695433Y-88033466D01*
X142725878Y-88058452D01*
X142750864Y-88088897D01*
X142769431Y-88123633D01*
X142780865Y-88161326D01*
X142785330Y-88206661D01*
X142785330Y-89043339D01*
X142780865Y-89088674D01*
X142769431Y-89126367D01*
X142750864Y-89161103D01*
X142725878Y-89191548D01*
X142695433Y-89216534D01*
X142660697Y-89235101D01*
X142623004Y-89246535D01*
X142577669Y-89251000D01*
X141490991Y-89251000D01*
X141445656Y-89246535D01*
X141407963Y-89235101D01*
X141373227Y-89216534D01*
X141342782Y-89191548D01*
X141317796Y-89161103D01*
X141299229Y-89126367D01*
X141287795Y-89088674D01*
X141283330Y-89043339D01*
X141283330Y-88206661D01*
X141287795Y-88161326D01*
X141299229Y-88123633D01*
X141317796Y-88088897D01*
X141342782Y-88058452D01*
X141373227Y-88033466D01*
X141407963Y-88014899D01*
X141445656Y-88003465D01*
X141490991Y-87999000D01*
X142577669Y-87999000D01*
X142623004Y-88003465D01*
G37*
G36*
X105842340Y-86813098D02*
G01*
X105880033Y-86824532D01*
X105914769Y-86843099D01*
X105945214Y-86868085D01*
X105970200Y-86898530D01*
X105988767Y-86933266D01*
X106000201Y-86970959D01*
X106004666Y-87016294D01*
X106004666Y-87852972D01*
X106000201Y-87898307D01*
X105988767Y-87936000D01*
X105970200Y-87970736D01*
X105945214Y-88001181D01*
X105914769Y-88026167D01*
X105880033Y-88044734D01*
X105842340Y-88056168D01*
X105797005Y-88060633D01*
X104710327Y-88060633D01*
X104664992Y-88056168D01*
X104627299Y-88044734D01*
X104592563Y-88026167D01*
X104562118Y-88001181D01*
X104537132Y-87970736D01*
X104518565Y-87936000D01*
X104507131Y-87898307D01*
X104502666Y-87852972D01*
X104502666Y-87016294D01*
X104507131Y-86970959D01*
X104518565Y-86933266D01*
X104537132Y-86898530D01*
X104562118Y-86868085D01*
X104592563Y-86843099D01*
X104627299Y-86824532D01*
X104664992Y-86813098D01*
X104710327Y-86808633D01*
X105797005Y-86808633D01*
X105842340Y-86813098D01*
G37*
G36*
X129175672Y-86813098D02*
G01*
X129213365Y-86824532D01*
X129248101Y-86843099D01*
X129278546Y-86868085D01*
X129303532Y-86898530D01*
X129322099Y-86933266D01*
X129333533Y-86970959D01*
X129337998Y-87016294D01*
X129337998Y-87852972D01*
X129333533Y-87898307D01*
X129322099Y-87936000D01*
X129303532Y-87970736D01*
X129278546Y-88001181D01*
X129248101Y-88026167D01*
X129213365Y-88044734D01*
X129175672Y-88056168D01*
X129130337Y-88060633D01*
X128043659Y-88060633D01*
X127998324Y-88056168D01*
X127960631Y-88044734D01*
X127925895Y-88026167D01*
X127895450Y-88001181D01*
X127870464Y-87970736D01*
X127851897Y-87936000D01*
X127840463Y-87898307D01*
X127835998Y-87852972D01*
X127835998Y-87016294D01*
X127840463Y-86970959D01*
X127851897Y-86933266D01*
X127870464Y-86898530D01*
X127895450Y-86868085D01*
X127925895Y-86843099D01*
X127960631Y-86824532D01*
X127998324Y-86813098D01*
X128043659Y-86808633D01*
X129130337Y-86808633D01*
X129175672Y-86813098D01*
G37*
G36*
X152509004Y-86813098D02*
G01*
X152546697Y-86824532D01*
X152581433Y-86843099D01*
X152611878Y-86868085D01*
X152636864Y-86898530D01*
X152655431Y-86933266D01*
X152666865Y-86970959D01*
X152671330Y-87016294D01*
X152671330Y-87852972D01*
X152666865Y-87898307D01*
X152655431Y-87936000D01*
X152636864Y-87970736D01*
X152611878Y-88001181D01*
X152581433Y-88026167D01*
X152546697Y-88044734D01*
X152509004Y-88056168D01*
X152463669Y-88060633D01*
X151376991Y-88060633D01*
X151331656Y-88056168D01*
X151293963Y-88044734D01*
X151259227Y-88026167D01*
X151228782Y-88001181D01*
X151203796Y-87970736D01*
X151185229Y-87936000D01*
X151173795Y-87898307D01*
X151169330Y-87852972D01*
X151169330Y-87016294D01*
X151173795Y-86970959D01*
X151185229Y-86933266D01*
X151203796Y-86898530D01*
X151228782Y-86868085D01*
X151259227Y-86843099D01*
X151293963Y-86824532D01*
X151331656Y-86813098D01*
X151376991Y-86808633D01*
X152463669Y-86808633D01*
X152509004Y-86813098D01*
G37*
G36*
X95831340Y-85503465D02*
G01*
X95869033Y-85514899D01*
X95903769Y-85533466D01*
X95934214Y-85558452D01*
X95959200Y-85588897D01*
X95977767Y-85623633D01*
X95989201Y-85661326D01*
X95993666Y-85706661D01*
X95993666Y-86793339D01*
X95989201Y-86838674D01*
X95977767Y-86876367D01*
X95959200Y-86911103D01*
X95934214Y-86941548D01*
X95903769Y-86966534D01*
X95869033Y-86985101D01*
X95831340Y-86996535D01*
X95786005Y-87001000D01*
X94949327Y-87001000D01*
X94903992Y-86996535D01*
X94866299Y-86985101D01*
X94831563Y-86966534D01*
X94801118Y-86941548D01*
X94776132Y-86911103D01*
X94757565Y-86876367D01*
X94746131Y-86838674D01*
X94741666Y-86793339D01*
X94741666Y-85706661D01*
X94746131Y-85661326D01*
X94757565Y-85623633D01*
X94776132Y-85588897D01*
X94801118Y-85558452D01*
X94831563Y-85533466D01*
X94866299Y-85514899D01*
X94903992Y-85503465D01*
X94949327Y-85499000D01*
X95786005Y-85499000D01*
X95831340Y-85503465D01*
G37*
G36*
X117114672Y-85503465D02*
G01*
X117152365Y-85514899D01*
X117187101Y-85533466D01*
X117217546Y-85558452D01*
X117242532Y-85588897D01*
X117261099Y-85623633D01*
X117272533Y-85661326D01*
X117276998Y-85706661D01*
X117276998Y-86793339D01*
X117272533Y-86838674D01*
X117261099Y-86876367D01*
X117242532Y-86911103D01*
X117217546Y-86941548D01*
X117187101Y-86966534D01*
X117152365Y-86985101D01*
X117114672Y-86996535D01*
X117069337Y-87001000D01*
X116232659Y-87001000D01*
X116187324Y-86996535D01*
X116149631Y-86985101D01*
X116114895Y-86966534D01*
X116084450Y-86941548D01*
X116059464Y-86911103D01*
X116040897Y-86876367D01*
X116029463Y-86838674D01*
X116024998Y-86793339D01*
X116024998Y-85706661D01*
X116029463Y-85661326D01*
X116040897Y-85623633D01*
X116059464Y-85588897D01*
X116084450Y-85558452D01*
X116114895Y-85533466D01*
X116149631Y-85514899D01*
X116187324Y-85503465D01*
X116232659Y-85499000D01*
X117069337Y-85499000D01*
X117114672Y-85503465D01*
G37*
G36*
X119164672Y-85503465D02*
G01*
X119202365Y-85514899D01*
X119237101Y-85533466D01*
X119267546Y-85558452D01*
X119292532Y-85588897D01*
X119311099Y-85623633D01*
X119322533Y-85661326D01*
X119326998Y-85706661D01*
X119326998Y-86793339D01*
X119322533Y-86838674D01*
X119311099Y-86876367D01*
X119292532Y-86911103D01*
X119267546Y-86941548D01*
X119237101Y-86966534D01*
X119202365Y-86985101D01*
X119164672Y-86996535D01*
X119119337Y-87001000D01*
X118282659Y-87001000D01*
X118237324Y-86996535D01*
X118199631Y-86985101D01*
X118164895Y-86966534D01*
X118134450Y-86941548D01*
X118109464Y-86911103D01*
X118090897Y-86876367D01*
X118079463Y-86838674D01*
X118074998Y-86793339D01*
X118074998Y-85706661D01*
X118079463Y-85661326D01*
X118090897Y-85623633D01*
X118109464Y-85588897D01*
X118134450Y-85558452D01*
X118164895Y-85533466D01*
X118199631Y-85514899D01*
X118237324Y-85503465D01*
X118282659Y-85499000D01*
X119119337Y-85499000D01*
X119164672Y-85503465D01*
G37*
G36*
X142498004Y-85503465D02*
G01*
X142535697Y-85514899D01*
X142570433Y-85533466D01*
X142600878Y-85558452D01*
X142625864Y-85588897D01*
X142644431Y-85623633D01*
X142655865Y-85661326D01*
X142660330Y-85706661D01*
X142660330Y-86793339D01*
X142655865Y-86838674D01*
X142644431Y-86876367D01*
X142625864Y-86911103D01*
X142600878Y-86941548D01*
X142570433Y-86966534D01*
X142535697Y-86985101D01*
X142498004Y-86996535D01*
X142452669Y-87001000D01*
X141615991Y-87001000D01*
X141570656Y-86996535D01*
X141532963Y-86985101D01*
X141498227Y-86966534D01*
X141467782Y-86941548D01*
X141442796Y-86911103D01*
X141424229Y-86876367D01*
X141412795Y-86838674D01*
X141408330Y-86793339D01*
X141408330Y-85706661D01*
X141412795Y-85661326D01*
X141424229Y-85623633D01*
X141442796Y-85588897D01*
X141467782Y-85558452D01*
X141498227Y-85533466D01*
X141532963Y-85514899D01*
X141570656Y-85503465D01*
X141615991Y-85499000D01*
X142452669Y-85499000D01*
X142498004Y-85503465D01*
G37*
G36*
X93781340Y-85503465D02*
G01*
X93819033Y-85514899D01*
X93853769Y-85533466D01*
X93884214Y-85558452D01*
X93909200Y-85588897D01*
X93927767Y-85623633D01*
X93939201Y-85661326D01*
X93943666Y-85706661D01*
X93943666Y-86793339D01*
X93939201Y-86838674D01*
X93927767Y-86876367D01*
X93909200Y-86911103D01*
X93884214Y-86941548D01*
X93853769Y-86966534D01*
X93819033Y-86985101D01*
X93781340Y-86996535D01*
X93736005Y-87001000D01*
X92899327Y-87001000D01*
X92853992Y-86996535D01*
X92816299Y-86985101D01*
X92781563Y-86966534D01*
X92751118Y-86941548D01*
X92726132Y-86911103D01*
X92707565Y-86876367D01*
X92696131Y-86838674D01*
X92691666Y-86793339D01*
X92691666Y-85706661D01*
X92696131Y-85661326D01*
X92707565Y-85623633D01*
X92726132Y-85588897D01*
X92751118Y-85558452D01*
X92781563Y-85533466D01*
X92816299Y-85514899D01*
X92853992Y-85503465D01*
X92899327Y-85499000D01*
X93736005Y-85499000D01*
X93781340Y-85503465D01*
G37*
G36*
X140448004Y-85503465D02*
G01*
X140485697Y-85514899D01*
X140520433Y-85533466D01*
X140550878Y-85558452D01*
X140575864Y-85588897D01*
X140594431Y-85623633D01*
X140605865Y-85661326D01*
X140610330Y-85706661D01*
X140610330Y-86793339D01*
X140605865Y-86838674D01*
X140594431Y-86876367D01*
X140575864Y-86911103D01*
X140550878Y-86941548D01*
X140520433Y-86966534D01*
X140485697Y-86985101D01*
X140448004Y-86996535D01*
X140402669Y-87001000D01*
X139565991Y-87001000D01*
X139520656Y-86996535D01*
X139482963Y-86985101D01*
X139448227Y-86966534D01*
X139417782Y-86941548D01*
X139392796Y-86911103D01*
X139374229Y-86876367D01*
X139362795Y-86838674D01*
X139358330Y-86793339D01*
X139358330Y-85706661D01*
X139362795Y-85661326D01*
X139374229Y-85623633D01*
X139392796Y-85588897D01*
X139417782Y-85558452D01*
X139448227Y-85533466D01*
X139482963Y-85514899D01*
X139520656Y-85503465D01*
X139565991Y-85499000D01*
X140402669Y-85499000D01*
X140448004Y-85503465D01*
G37*
G36*
X149891004Y-84638098D02*
G01*
X149928697Y-84649532D01*
X149963433Y-84668099D01*
X149993878Y-84693085D01*
X150018864Y-84723530D01*
X150037431Y-84758266D01*
X150048865Y-84795959D01*
X150053330Y-84841294D01*
X150053330Y-85927972D01*
X150048865Y-85973307D01*
X150037431Y-86011000D01*
X150018864Y-86045736D01*
X149993878Y-86076181D01*
X149963433Y-86101167D01*
X149928697Y-86119734D01*
X149891004Y-86131168D01*
X149845669Y-86135633D01*
X149008991Y-86135633D01*
X148963656Y-86131168D01*
X148925963Y-86119734D01*
X148891227Y-86101167D01*
X148860782Y-86076181D01*
X148835796Y-86045736D01*
X148817229Y-86011000D01*
X148805795Y-85973307D01*
X148801330Y-85927972D01*
X148801330Y-84841294D01*
X148805795Y-84795959D01*
X148817229Y-84758266D01*
X148835796Y-84723530D01*
X148860782Y-84693085D01*
X148891227Y-84668099D01*
X148925963Y-84649532D01*
X148963656Y-84638098D01*
X149008991Y-84633633D01*
X149845669Y-84633633D01*
X149891004Y-84638098D01*
G37*
G36*
X147841004Y-84638098D02*
G01*
X147878697Y-84649532D01*
X147913433Y-84668099D01*
X147943878Y-84693085D01*
X147968864Y-84723530D01*
X147987431Y-84758266D01*
X147998865Y-84795959D01*
X148003330Y-84841294D01*
X148003330Y-85927972D01*
X147998865Y-85973307D01*
X147987431Y-86011000D01*
X147968864Y-86045736D01*
X147943878Y-86076181D01*
X147913433Y-86101167D01*
X147878697Y-86119734D01*
X147841004Y-86131168D01*
X147795669Y-86135633D01*
X146958991Y-86135633D01*
X146913656Y-86131168D01*
X146875963Y-86119734D01*
X146841227Y-86101167D01*
X146810782Y-86076181D01*
X146785796Y-86045736D01*
X146767229Y-86011000D01*
X146755795Y-85973307D01*
X146751330Y-85927972D01*
X146751330Y-84841294D01*
X146755795Y-84795959D01*
X146767229Y-84758266D01*
X146785796Y-84723530D01*
X146810782Y-84693085D01*
X146841227Y-84668099D01*
X146875963Y-84649532D01*
X146913656Y-84638098D01*
X146958991Y-84633633D01*
X147795669Y-84633633D01*
X147841004Y-84638098D01*
G37*
G36*
X126557672Y-84638098D02*
G01*
X126595365Y-84649532D01*
X126630101Y-84668099D01*
X126660546Y-84693085D01*
X126685532Y-84723530D01*
X126704099Y-84758266D01*
X126715533Y-84795959D01*
X126719998Y-84841294D01*
X126719998Y-85927972D01*
X126715533Y-85973307D01*
X126704099Y-86011000D01*
X126685532Y-86045736D01*
X126660546Y-86076181D01*
X126630101Y-86101167D01*
X126595365Y-86119734D01*
X126557672Y-86131168D01*
X126512337Y-86135633D01*
X125675659Y-86135633D01*
X125630324Y-86131168D01*
X125592631Y-86119734D01*
X125557895Y-86101167D01*
X125527450Y-86076181D01*
X125502464Y-86045736D01*
X125483897Y-86011000D01*
X125472463Y-85973307D01*
X125467998Y-85927972D01*
X125467998Y-84841294D01*
X125472463Y-84795959D01*
X125483897Y-84758266D01*
X125502464Y-84723530D01*
X125527450Y-84693085D01*
X125557895Y-84668099D01*
X125592631Y-84649532D01*
X125630324Y-84638098D01*
X125675659Y-84633633D01*
X126512337Y-84633633D01*
X126557672Y-84638098D01*
G37*
G36*
X124507672Y-84638098D02*
G01*
X124545365Y-84649532D01*
X124580101Y-84668099D01*
X124610546Y-84693085D01*
X124635532Y-84723530D01*
X124654099Y-84758266D01*
X124665533Y-84795959D01*
X124669998Y-84841294D01*
X124669998Y-85927972D01*
X124665533Y-85973307D01*
X124654099Y-86011000D01*
X124635532Y-86045736D01*
X124610546Y-86076181D01*
X124580101Y-86101167D01*
X124545365Y-86119734D01*
X124507672Y-86131168D01*
X124462337Y-86135633D01*
X123625659Y-86135633D01*
X123580324Y-86131168D01*
X123542631Y-86119734D01*
X123507895Y-86101167D01*
X123477450Y-86076181D01*
X123452464Y-86045736D01*
X123433897Y-86011000D01*
X123422463Y-85973307D01*
X123417998Y-85927972D01*
X123417998Y-84841294D01*
X123422463Y-84795959D01*
X123433897Y-84758266D01*
X123452464Y-84723530D01*
X123477450Y-84693085D01*
X123507895Y-84668099D01*
X123542631Y-84649532D01*
X123580324Y-84638098D01*
X123625659Y-84633633D01*
X124462337Y-84633633D01*
X124507672Y-84638098D01*
G37*
G36*
X101174340Y-84638098D02*
G01*
X101212033Y-84649532D01*
X101246769Y-84668099D01*
X101277214Y-84693085D01*
X101302200Y-84723530D01*
X101320767Y-84758266D01*
X101332201Y-84795959D01*
X101336666Y-84841294D01*
X101336666Y-85927972D01*
X101332201Y-85973307D01*
X101320767Y-86011000D01*
X101302200Y-86045736D01*
X101277214Y-86076181D01*
X101246769Y-86101167D01*
X101212033Y-86119734D01*
X101174340Y-86131168D01*
X101129005Y-86135633D01*
X100292327Y-86135633D01*
X100246992Y-86131168D01*
X100209299Y-86119734D01*
X100174563Y-86101167D01*
X100144118Y-86076181D01*
X100119132Y-86045736D01*
X100100565Y-86011000D01*
X100089131Y-85973307D01*
X100084666Y-85927972D01*
X100084666Y-84841294D01*
X100089131Y-84795959D01*
X100100565Y-84758266D01*
X100119132Y-84723530D01*
X100144118Y-84693085D01*
X100174563Y-84668099D01*
X100209299Y-84649532D01*
X100246992Y-84638098D01*
X100292327Y-84633633D01*
X101129005Y-84633633D01*
X101174340Y-84638098D01*
G37*
G36*
X103224340Y-84638098D02*
G01*
X103262033Y-84649532D01*
X103296769Y-84668099D01*
X103327214Y-84693085D01*
X103352200Y-84723530D01*
X103370767Y-84758266D01*
X103382201Y-84795959D01*
X103386666Y-84841294D01*
X103386666Y-85927972D01*
X103382201Y-85973307D01*
X103370767Y-86011000D01*
X103352200Y-86045736D01*
X103327214Y-86076181D01*
X103296769Y-86101167D01*
X103262033Y-86119734D01*
X103224340Y-86131168D01*
X103179005Y-86135633D01*
X102342327Y-86135633D01*
X102296992Y-86131168D01*
X102259299Y-86119734D01*
X102224563Y-86101167D01*
X102194118Y-86076181D01*
X102169132Y-86045736D01*
X102150565Y-86011000D01*
X102139131Y-85973307D01*
X102134666Y-85927972D01*
X102134666Y-84841294D01*
X102139131Y-84795959D01*
X102150565Y-84758266D01*
X102169132Y-84723530D01*
X102194118Y-84693085D01*
X102224563Y-84668099D01*
X102259299Y-84649532D01*
X102296992Y-84638098D01*
X102342327Y-84633633D01*
X103179005Y-84633633D01*
X103224340Y-84638098D01*
G37*
G36*
X152509004Y-84763098D02*
G01*
X152546697Y-84774532D01*
X152581433Y-84793099D01*
X152611878Y-84818085D01*
X152636864Y-84848530D01*
X152655431Y-84883266D01*
X152666865Y-84920959D01*
X152671330Y-84966294D01*
X152671330Y-85802972D01*
X152666865Y-85848307D01*
X152655431Y-85886000D01*
X152636864Y-85920736D01*
X152611878Y-85951181D01*
X152581433Y-85976167D01*
X152546697Y-85994734D01*
X152509004Y-86006168D01*
X152463669Y-86010633D01*
X151376991Y-86010633D01*
X151331656Y-86006168D01*
X151293963Y-85994734D01*
X151259227Y-85976167D01*
X151228782Y-85951181D01*
X151203796Y-85920736D01*
X151185229Y-85886000D01*
X151173795Y-85848307D01*
X151169330Y-85802972D01*
X151169330Y-84966294D01*
X151173795Y-84920959D01*
X151185229Y-84883266D01*
X151203796Y-84848530D01*
X151228782Y-84818085D01*
X151259227Y-84793099D01*
X151293963Y-84774532D01*
X151331656Y-84763098D01*
X151376991Y-84758633D01*
X152463669Y-84758633D01*
X152509004Y-84763098D01*
G37*
G36*
X105842340Y-84763098D02*
G01*
X105880033Y-84774532D01*
X105914769Y-84793099D01*
X105945214Y-84818085D01*
X105970200Y-84848530D01*
X105988767Y-84883266D01*
X106000201Y-84920959D01*
X106004666Y-84966294D01*
X106004666Y-85802972D01*
X106000201Y-85848307D01*
X105988767Y-85886000D01*
X105970200Y-85920736D01*
X105945214Y-85951181D01*
X105914769Y-85976167D01*
X105880033Y-85994734D01*
X105842340Y-86006168D01*
X105797005Y-86010633D01*
X104710327Y-86010633D01*
X104664992Y-86006168D01*
X104627299Y-85994734D01*
X104592563Y-85976167D01*
X104562118Y-85951181D01*
X104537132Y-85920736D01*
X104518565Y-85886000D01*
X104507131Y-85848307D01*
X104502666Y-85802972D01*
X104502666Y-84966294D01*
X104507131Y-84920959D01*
X104518565Y-84883266D01*
X104537132Y-84848530D01*
X104562118Y-84818085D01*
X104592563Y-84793099D01*
X104627299Y-84774532D01*
X104664992Y-84763098D01*
X104710327Y-84758633D01*
X105797005Y-84758633D01*
X105842340Y-84763098D01*
G37*
G36*
X129175672Y-84763098D02*
G01*
X129213365Y-84774532D01*
X129248101Y-84793099D01*
X129278546Y-84818085D01*
X129303532Y-84848530D01*
X129322099Y-84883266D01*
X129333533Y-84920959D01*
X129337998Y-84966294D01*
X129337998Y-85802972D01*
X129333533Y-85848307D01*
X129322099Y-85886000D01*
X129303532Y-85920736D01*
X129278546Y-85951181D01*
X129248101Y-85976167D01*
X129213365Y-85994734D01*
X129175672Y-86006168D01*
X129130337Y-86010633D01*
X128043659Y-86010633D01*
X127998324Y-86006168D01*
X127960631Y-85994734D01*
X127925895Y-85976167D01*
X127895450Y-85951181D01*
X127870464Y-85920736D01*
X127851897Y-85886000D01*
X127840463Y-85848307D01*
X127835998Y-85802972D01*
X127835998Y-84966294D01*
X127840463Y-84920959D01*
X127851897Y-84883266D01*
X127870464Y-84848530D01*
X127895450Y-84818085D01*
X127925895Y-84793099D01*
X127960631Y-84774532D01*
X127998324Y-84763098D01*
X128043659Y-84758633D01*
X129130337Y-84758633D01*
X129175672Y-84763098D01*
G37*
G36*
X98968666Y-85826000D02*
G01*
X97166666Y-85826000D01*
X97166666Y-84424000D01*
X98968666Y-84424000D01*
X98968666Y-85826000D01*
G37*
G36*
X145635330Y-85826000D02*
G01*
X143833330Y-85826000D01*
X143833330Y-84424000D01*
X145635330Y-84424000D01*
X145635330Y-85826000D01*
G37*
G36*
X122301998Y-85826000D02*
G01*
X120499998Y-85826000D01*
X120499998Y-84424000D01*
X122301998Y-84424000D01*
X122301998Y-85826000D01*
G37*
G36*
X95831340Y-83003465D02*
G01*
X95869033Y-83014899D01*
X95903769Y-83033466D01*
X95934214Y-83058452D01*
X95959200Y-83088897D01*
X95977767Y-83123633D01*
X95989201Y-83161326D01*
X95993666Y-83206661D01*
X95993666Y-84293339D01*
X95989201Y-84338674D01*
X95977767Y-84376367D01*
X95959200Y-84411103D01*
X95934214Y-84441548D01*
X95903769Y-84466534D01*
X95869033Y-84485101D01*
X95831340Y-84496535D01*
X95786005Y-84501000D01*
X94949327Y-84501000D01*
X94903992Y-84496535D01*
X94866299Y-84485101D01*
X94831563Y-84466534D01*
X94801118Y-84441548D01*
X94776132Y-84411103D01*
X94757565Y-84376367D01*
X94746131Y-84338674D01*
X94741666Y-84293339D01*
X94741666Y-83206661D01*
X94746131Y-83161326D01*
X94757565Y-83123633D01*
X94776132Y-83088897D01*
X94801118Y-83058452D01*
X94831563Y-83033466D01*
X94866299Y-83014899D01*
X94903992Y-83003465D01*
X94949327Y-82999000D01*
X95786005Y-82999000D01*
X95831340Y-83003465D01*
G37*
G36*
X142498004Y-83003465D02*
G01*
X142535697Y-83014899D01*
X142570433Y-83033466D01*
X142600878Y-83058452D01*
X142625864Y-83088897D01*
X142644431Y-83123633D01*
X142655865Y-83161326D01*
X142660330Y-83206661D01*
X142660330Y-84293339D01*
X142655865Y-84338674D01*
X142644431Y-84376367D01*
X142625864Y-84411103D01*
X142600878Y-84441548D01*
X142570433Y-84466534D01*
X142535697Y-84485101D01*
X142498004Y-84496535D01*
X142452669Y-84501000D01*
X141615991Y-84501000D01*
X141570656Y-84496535D01*
X141532963Y-84485101D01*
X141498227Y-84466534D01*
X141467782Y-84441548D01*
X141442796Y-84411103D01*
X141424229Y-84376367D01*
X141412795Y-84338674D01*
X141408330Y-84293339D01*
X141408330Y-83206661D01*
X141412795Y-83161326D01*
X141424229Y-83123633D01*
X141442796Y-83088897D01*
X141467782Y-83058452D01*
X141498227Y-83033466D01*
X141532963Y-83014899D01*
X141570656Y-83003465D01*
X141615991Y-82999000D01*
X142452669Y-82999000D01*
X142498004Y-83003465D01*
G37*
G36*
X140448004Y-83003465D02*
G01*
X140485697Y-83014899D01*
X140520433Y-83033466D01*
X140550878Y-83058452D01*
X140575864Y-83088897D01*
X140594431Y-83123633D01*
X140605865Y-83161326D01*
X140610330Y-83206661D01*
X140610330Y-84293339D01*
X140605865Y-84338674D01*
X140594431Y-84376367D01*
X140575864Y-84411103D01*
X140550878Y-84441548D01*
X140520433Y-84466534D01*
X140485697Y-84485101D01*
X140448004Y-84496535D01*
X140402669Y-84501000D01*
X139565991Y-84501000D01*
X139520656Y-84496535D01*
X139482963Y-84485101D01*
X139448227Y-84466534D01*
X139417782Y-84441548D01*
X139392796Y-84411103D01*
X139374229Y-84376367D01*
X139362795Y-84338674D01*
X139358330Y-84293339D01*
X139358330Y-83206661D01*
X139362795Y-83161326D01*
X139374229Y-83123633D01*
X139392796Y-83088897D01*
X139417782Y-83058452D01*
X139448227Y-83033466D01*
X139482963Y-83014899D01*
X139520656Y-83003465D01*
X139565991Y-82999000D01*
X140402669Y-82999000D01*
X140448004Y-83003465D01*
G37*
G36*
X119164672Y-83003465D02*
G01*
X119202365Y-83014899D01*
X119237101Y-83033466D01*
X119267546Y-83058452D01*
X119292532Y-83088897D01*
X119311099Y-83123633D01*
X119322533Y-83161326D01*
X119326998Y-83206661D01*
X119326998Y-84293339D01*
X119322533Y-84338674D01*
X119311099Y-84376367D01*
X119292532Y-84411103D01*
X119267546Y-84441548D01*
X119237101Y-84466534D01*
X119202365Y-84485101D01*
X119164672Y-84496535D01*
X119119337Y-84501000D01*
X118282659Y-84501000D01*
X118237324Y-84496535D01*
X118199631Y-84485101D01*
X118164895Y-84466534D01*
X118134450Y-84441548D01*
X118109464Y-84411103D01*
X118090897Y-84376367D01*
X118079463Y-84338674D01*
X118074998Y-84293339D01*
X118074998Y-83206661D01*
X118079463Y-83161326D01*
X118090897Y-83123633D01*
X118109464Y-83088897D01*
X118134450Y-83058452D01*
X118164895Y-83033466D01*
X118199631Y-83014899D01*
X118237324Y-83003465D01*
X118282659Y-82999000D01*
X119119337Y-82999000D01*
X119164672Y-83003465D01*
G37*
G36*
X93781340Y-83003465D02*
G01*
X93819033Y-83014899D01*
X93853769Y-83033466D01*
X93884214Y-83058452D01*
X93909200Y-83088897D01*
X93927767Y-83123633D01*
X93939201Y-83161326D01*
X93943666Y-83206661D01*
X93943666Y-84293339D01*
X93939201Y-84338674D01*
X93927767Y-84376367D01*
X93909200Y-84411103D01*
X93884214Y-84441548D01*
X93853769Y-84466534D01*
X93819033Y-84485101D01*
X93781340Y-84496535D01*
X93736005Y-84501000D01*
X92899327Y-84501000D01*
X92853992Y-84496535D01*
X92816299Y-84485101D01*
X92781563Y-84466534D01*
X92751118Y-84441548D01*
X92726132Y-84411103D01*
X92707565Y-84376367D01*
X92696131Y-84338674D01*
X92691666Y-84293339D01*
X92691666Y-83206661D01*
X92696131Y-83161326D01*
X92707565Y-83123633D01*
X92726132Y-83088897D01*
X92751118Y-83058452D01*
X92781563Y-83033466D01*
X92816299Y-83014899D01*
X92853992Y-83003465D01*
X92899327Y-82999000D01*
X93736005Y-82999000D01*
X93781340Y-83003465D01*
G37*
G36*
X117114672Y-83003465D02*
G01*
X117152365Y-83014899D01*
X117187101Y-83033466D01*
X117217546Y-83058452D01*
X117242532Y-83088897D01*
X117261099Y-83123633D01*
X117272533Y-83161326D01*
X117276998Y-83206661D01*
X117276998Y-84293339D01*
X117272533Y-84338674D01*
X117261099Y-84376367D01*
X117242532Y-84411103D01*
X117217546Y-84441548D01*
X117187101Y-84466534D01*
X117152365Y-84485101D01*
X117114672Y-84496535D01*
X117069337Y-84501000D01*
X116232659Y-84501000D01*
X116187324Y-84496535D01*
X116149631Y-84485101D01*
X116114895Y-84466534D01*
X116084450Y-84441548D01*
X116059464Y-84411103D01*
X116040897Y-84376367D01*
X116029463Y-84338674D01*
X116024998Y-84293339D01*
X116024998Y-83206661D01*
X116029463Y-83161326D01*
X116040897Y-83123633D01*
X116059464Y-83088897D01*
X116084450Y-83058452D01*
X116114895Y-83033466D01*
X116149631Y-83014899D01*
X116187324Y-83003465D01*
X116232659Y-82999000D01*
X117069337Y-82999000D01*
X117114672Y-83003465D01*
G37*
G36*
X152509004Y-82232465D02*
G01*
X152546697Y-82243899D01*
X152581433Y-82262466D01*
X152611878Y-82287452D01*
X152636864Y-82317897D01*
X152655431Y-82352633D01*
X152666865Y-82390326D01*
X152671330Y-82435661D01*
X152671330Y-83272339D01*
X152666865Y-83317674D01*
X152655431Y-83355367D01*
X152636864Y-83390103D01*
X152611878Y-83420548D01*
X152581433Y-83445534D01*
X152546697Y-83464101D01*
X152509004Y-83475535D01*
X152463669Y-83480000D01*
X151376991Y-83480000D01*
X151331656Y-83475535D01*
X151293963Y-83464101D01*
X151259227Y-83445534D01*
X151228782Y-83420548D01*
X151203796Y-83390103D01*
X151185229Y-83355367D01*
X151173795Y-83317674D01*
X151169330Y-83272339D01*
X151169330Y-82435661D01*
X151173795Y-82390326D01*
X151185229Y-82352633D01*
X151203796Y-82317897D01*
X151228782Y-82287452D01*
X151259227Y-82262466D01*
X151293963Y-82243899D01*
X151331656Y-82232465D01*
X151376991Y-82228000D01*
X152463669Y-82228000D01*
X152509004Y-82232465D01*
G37*
G36*
X129175672Y-82232465D02*
G01*
X129213365Y-82243899D01*
X129248101Y-82262466D01*
X129278546Y-82287452D01*
X129303532Y-82317897D01*
X129322099Y-82352633D01*
X129333533Y-82390326D01*
X129337998Y-82435661D01*
X129337998Y-83272339D01*
X129333533Y-83317674D01*
X129322099Y-83355367D01*
X129303532Y-83390103D01*
X129278546Y-83420548D01*
X129248101Y-83445534D01*
X129213365Y-83464101D01*
X129175672Y-83475535D01*
X129130337Y-83480000D01*
X128043659Y-83480000D01*
X127998324Y-83475535D01*
X127960631Y-83464101D01*
X127925895Y-83445534D01*
X127895450Y-83420548D01*
X127870464Y-83390103D01*
X127851897Y-83355367D01*
X127840463Y-83317674D01*
X127835998Y-83272339D01*
X127835998Y-82435661D01*
X127840463Y-82390326D01*
X127851897Y-82352633D01*
X127870464Y-82317897D01*
X127895450Y-82287452D01*
X127925895Y-82262466D01*
X127960631Y-82243899D01*
X127998324Y-82232465D01*
X128043659Y-82228000D01*
X129130337Y-82228000D01*
X129175672Y-82232465D01*
G37*
G36*
X105842340Y-82232465D02*
G01*
X105880033Y-82243899D01*
X105914769Y-82262466D01*
X105945214Y-82287452D01*
X105970200Y-82317897D01*
X105988767Y-82352633D01*
X106000201Y-82390326D01*
X106004666Y-82435661D01*
X106004666Y-83272339D01*
X106000201Y-83317674D01*
X105988767Y-83355367D01*
X105970200Y-83390103D01*
X105945214Y-83420548D01*
X105914769Y-83445534D01*
X105880033Y-83464101D01*
X105842340Y-83475535D01*
X105797005Y-83480000D01*
X104710327Y-83480000D01*
X104664992Y-83475535D01*
X104627299Y-83464101D01*
X104592563Y-83445534D01*
X104562118Y-83420548D01*
X104537132Y-83390103D01*
X104518565Y-83355367D01*
X104507131Y-83317674D01*
X104502666Y-83272339D01*
X104502666Y-82435661D01*
X104507131Y-82390326D01*
X104518565Y-82352633D01*
X104537132Y-82317897D01*
X104562118Y-82287452D01*
X104592563Y-82262466D01*
X104627299Y-82243899D01*
X104664992Y-82232465D01*
X104710327Y-82228000D01*
X105797005Y-82228000D01*
X105842340Y-82232465D01*
G37*
G36*
X93538666Y-81961000D02*
G01*
X92116666Y-81961000D01*
X92116666Y-80539000D01*
X93538666Y-80539000D01*
X93538666Y-81961000D01*
G37*
G36*
X114331998Y-81961000D02*
G01*
X112909998Y-81961000D01*
X112909998Y-80539000D01*
X114331998Y-80539000D01*
X114331998Y-81961000D01*
G37*
G36*
X98618666Y-81961000D02*
G01*
X97196666Y-81961000D01*
X97196666Y-80539000D01*
X98618666Y-80539000D01*
X98618666Y-81961000D01*
G37*
G36*
X96078666Y-81961000D02*
G01*
X94656666Y-81961000D01*
X94656666Y-80539000D01*
X96078666Y-80539000D01*
X96078666Y-81961000D01*
G37*
G36*
X90998666Y-81961000D02*
G01*
X89576666Y-81961000D01*
X89576666Y-80539000D01*
X90998666Y-80539000D01*
X90998666Y-81961000D01*
G37*
G36*
X121951998Y-81961000D02*
G01*
X120529998Y-81961000D01*
X120529998Y-80539000D01*
X121951998Y-80539000D01*
X121951998Y-81961000D01*
G37*
G36*
X142745330Y-81961000D02*
G01*
X141323330Y-81961000D01*
X141323330Y-80539000D01*
X142745330Y-80539000D01*
X142745330Y-81961000D01*
G37*
G36*
X140205330Y-81961000D02*
G01*
X138783330Y-81961000D01*
X138783330Y-80539000D01*
X140205330Y-80539000D01*
X140205330Y-81961000D01*
G37*
G36*
X137665330Y-81961000D02*
G01*
X136243330Y-81961000D01*
X136243330Y-80539000D01*
X137665330Y-80539000D01*
X137665330Y-81961000D01*
G37*
G36*
X119411998Y-81961000D02*
G01*
X117989998Y-81961000D01*
X117989998Y-80539000D01*
X119411998Y-80539000D01*
X119411998Y-81961000D01*
G37*
G36*
X116871998Y-81961000D02*
G01*
X115449998Y-81961000D01*
X115449998Y-80539000D01*
X116871998Y-80539000D01*
X116871998Y-81961000D01*
G37*
G36*
X145285330Y-81961000D02*
G01*
X143863330Y-81961000D01*
X143863330Y-80539000D01*
X145285330Y-80539000D01*
X145285330Y-81961000D01*
G37*
G36*
X152509004Y-80182465D02*
G01*
X152546697Y-80193899D01*
X152581433Y-80212466D01*
X152611878Y-80237452D01*
X152636864Y-80267897D01*
X152655431Y-80302633D01*
X152666865Y-80340326D01*
X152671330Y-80385661D01*
X152671330Y-81222339D01*
X152666865Y-81267674D01*
X152655431Y-81305367D01*
X152636864Y-81340103D01*
X152611878Y-81370548D01*
X152581433Y-81395534D01*
X152546697Y-81414101D01*
X152509004Y-81425535D01*
X152463669Y-81430000D01*
X151376991Y-81430000D01*
X151331656Y-81425535D01*
X151293963Y-81414101D01*
X151259227Y-81395534D01*
X151228782Y-81370548D01*
X151203796Y-81340103D01*
X151185229Y-81305367D01*
X151173795Y-81267674D01*
X151169330Y-81222339D01*
X151169330Y-80385661D01*
X151173795Y-80340326D01*
X151185229Y-80302633D01*
X151203796Y-80267897D01*
X151228782Y-80237452D01*
X151259227Y-80212466D01*
X151293963Y-80193899D01*
X151331656Y-80182465D01*
X151376991Y-80178000D01*
X152463669Y-80178000D01*
X152509004Y-80182465D01*
G37*
G36*
X105842340Y-80182465D02*
G01*
X105880033Y-80193899D01*
X105914769Y-80212466D01*
X105945214Y-80237452D01*
X105970200Y-80267897D01*
X105988767Y-80302633D01*
X106000201Y-80340326D01*
X106004666Y-80385661D01*
X106004666Y-81222339D01*
X106000201Y-81267674D01*
X105988767Y-81305367D01*
X105970200Y-81340103D01*
X105945214Y-81370548D01*
X105914769Y-81395534D01*
X105880033Y-81414101D01*
X105842340Y-81425535D01*
X105797005Y-81430000D01*
X104710327Y-81430000D01*
X104664992Y-81425535D01*
X104627299Y-81414101D01*
X104592563Y-81395534D01*
X104562118Y-81370548D01*
X104537132Y-81340103D01*
X104518565Y-81305367D01*
X104507131Y-81267674D01*
X104502666Y-81222339D01*
X104502666Y-80385661D01*
X104507131Y-80340326D01*
X104518565Y-80302633D01*
X104537132Y-80267897D01*
X104562118Y-80237452D01*
X104592563Y-80212466D01*
X104627299Y-80193899D01*
X104664992Y-80182465D01*
X104710327Y-80178000D01*
X105797005Y-80178000D01*
X105842340Y-80182465D01*
G37*
G36*
X129175672Y-80182465D02*
G01*
X129213365Y-80193899D01*
X129248101Y-80212466D01*
X129278546Y-80237452D01*
X129303532Y-80267897D01*
X129322099Y-80302633D01*
X129333533Y-80340326D01*
X129337998Y-80385661D01*
X129337998Y-81222339D01*
X129333533Y-81267674D01*
X129322099Y-81305367D01*
X129303532Y-81340103D01*
X129278546Y-81370548D01*
X129248101Y-81395534D01*
X129213365Y-81414101D01*
X129175672Y-81425535D01*
X129130337Y-81430000D01*
X128043659Y-81430000D01*
X127998324Y-81425535D01*
X127960631Y-81414101D01*
X127925895Y-81395534D01*
X127895450Y-81370548D01*
X127870464Y-81340103D01*
X127851897Y-81305367D01*
X127840463Y-81267674D01*
X127835998Y-81222339D01*
X127835998Y-80385661D01*
X127840463Y-80340326D01*
X127851897Y-80302633D01*
X127870464Y-80267897D01*
X127895450Y-80237452D01*
X127925895Y-80212466D01*
X127960631Y-80193899D01*
X127998324Y-80182465D01*
X128043659Y-80178000D01*
X129130337Y-80178000D01*
X129175672Y-80182465D01*
G37*
G36*
X112172998Y-79294000D02*
G01*
X110750998Y-79294000D01*
X110750998Y-77872000D01*
X112172998Y-77872000D01*
X112172998Y-79294000D01*
G37*
G36*
X135506330Y-79294000D02*
G01*
X134084330Y-79294000D01*
X134084330Y-77872000D01*
X135506330Y-77872000D01*
X135506330Y-79294000D01*
G37*
G36*
X88839666Y-79294000D02*
G01*
X87417666Y-79294000D01*
X87417666Y-77872000D01*
X88839666Y-77872000D01*
X88839666Y-79294000D01*
G37*
G36*
X105717340Y-77582465D02*
G01*
X105755033Y-77593899D01*
X105789769Y-77612466D01*
X105820214Y-77637452D01*
X105845200Y-77667897D01*
X105863767Y-77702633D01*
X105875201Y-77740326D01*
X105879666Y-77785661D01*
X105879666Y-78872339D01*
X105875201Y-78917674D01*
X105863767Y-78955367D01*
X105845200Y-78990103D01*
X105820214Y-79020548D01*
X105789769Y-79045534D01*
X105755033Y-79064101D01*
X105717340Y-79075535D01*
X105672005Y-79080000D01*
X104835327Y-79080000D01*
X104789992Y-79075535D01*
X104752299Y-79064101D01*
X104717563Y-79045534D01*
X104687118Y-79020548D01*
X104662132Y-78990103D01*
X104643565Y-78955367D01*
X104632131Y-78917674D01*
X104627666Y-78872339D01*
X104627666Y-77785661D01*
X104632131Y-77740326D01*
X104643565Y-77702633D01*
X104662132Y-77667897D01*
X104687118Y-77637452D01*
X104717563Y-77612466D01*
X104752299Y-77593899D01*
X104789992Y-77582465D01*
X104835327Y-77578000D01*
X105672005Y-77578000D01*
X105717340Y-77582465D01*
G37*
G36*
X127000672Y-77582465D02*
G01*
X127038365Y-77593899D01*
X127073101Y-77612466D01*
X127103546Y-77637452D01*
X127128532Y-77667897D01*
X127147099Y-77702633D01*
X127158533Y-77740326D01*
X127162998Y-77785661D01*
X127162998Y-78872339D01*
X127158533Y-78917674D01*
X127147099Y-78955367D01*
X127128532Y-78990103D01*
X127103546Y-79020548D01*
X127073101Y-79045534D01*
X127038365Y-79064101D01*
X127000672Y-79075535D01*
X126955337Y-79080000D01*
X126118659Y-79080000D01*
X126073324Y-79075535D01*
X126035631Y-79064101D01*
X126000895Y-79045534D01*
X125970450Y-79020548D01*
X125945464Y-78990103D01*
X125926897Y-78955367D01*
X125915463Y-78917674D01*
X125910998Y-78872339D01*
X125910998Y-77785661D01*
X125915463Y-77740326D01*
X125926897Y-77702633D01*
X125945464Y-77667897D01*
X125970450Y-77637452D01*
X126000895Y-77612466D01*
X126035631Y-77593899D01*
X126073324Y-77582465D01*
X126118659Y-77578000D01*
X126955337Y-77578000D01*
X127000672Y-77582465D01*
G37*
G36*
X103667340Y-77582465D02*
G01*
X103705033Y-77593899D01*
X103739769Y-77612466D01*
X103770214Y-77637452D01*
X103795200Y-77667897D01*
X103813767Y-77702633D01*
X103825201Y-77740326D01*
X103829666Y-77785661D01*
X103829666Y-78872339D01*
X103825201Y-78917674D01*
X103813767Y-78955367D01*
X103795200Y-78990103D01*
X103770214Y-79020548D01*
X103739769Y-79045534D01*
X103705033Y-79064101D01*
X103667340Y-79075535D01*
X103622005Y-79080000D01*
X102785327Y-79080000D01*
X102739992Y-79075535D01*
X102702299Y-79064101D01*
X102667563Y-79045534D01*
X102637118Y-79020548D01*
X102612132Y-78990103D01*
X102593565Y-78955367D01*
X102582131Y-78917674D01*
X102577666Y-78872339D01*
X102577666Y-77785661D01*
X102582131Y-77740326D01*
X102593565Y-77702633D01*
X102612132Y-77667897D01*
X102637118Y-77637452D01*
X102667563Y-77612466D01*
X102702299Y-77593899D01*
X102739992Y-77582465D01*
X102785327Y-77578000D01*
X103622005Y-77578000D01*
X103667340Y-77582465D01*
G37*
G36*
X150334004Y-77582465D02*
G01*
X150371697Y-77593899D01*
X150406433Y-77612466D01*
X150436878Y-77637452D01*
X150461864Y-77667897D01*
X150480431Y-77702633D01*
X150491865Y-77740326D01*
X150496330Y-77785661D01*
X150496330Y-78872339D01*
X150491865Y-78917674D01*
X150480431Y-78955367D01*
X150461864Y-78990103D01*
X150436878Y-79020548D01*
X150406433Y-79045534D01*
X150371697Y-79064101D01*
X150334004Y-79075535D01*
X150288669Y-79080000D01*
X149451991Y-79080000D01*
X149406656Y-79075535D01*
X149368963Y-79064101D01*
X149334227Y-79045534D01*
X149303782Y-79020548D01*
X149278796Y-78990103D01*
X149260229Y-78955367D01*
X149248795Y-78917674D01*
X149244330Y-78872339D01*
X149244330Y-77785661D01*
X149248795Y-77740326D01*
X149260229Y-77702633D01*
X149278796Y-77667897D01*
X149303782Y-77637452D01*
X149334227Y-77612466D01*
X149368963Y-77593899D01*
X149406656Y-77582465D01*
X149451991Y-77578000D01*
X150288669Y-77578000D01*
X150334004Y-77582465D01*
G37*
G36*
X152384004Y-77582465D02*
G01*
X152421697Y-77593899D01*
X152456433Y-77612466D01*
X152486878Y-77637452D01*
X152511864Y-77667897D01*
X152530431Y-77702633D01*
X152541865Y-77740326D01*
X152546330Y-77785661D01*
X152546330Y-78872339D01*
X152541865Y-78917674D01*
X152530431Y-78955367D01*
X152511864Y-78990103D01*
X152486878Y-79020548D01*
X152456433Y-79045534D01*
X152421697Y-79064101D01*
X152384004Y-79075535D01*
X152338669Y-79080000D01*
X151501991Y-79080000D01*
X151456656Y-79075535D01*
X151418963Y-79064101D01*
X151384227Y-79045534D01*
X151353782Y-79020548D01*
X151328796Y-78990103D01*
X151310229Y-78955367D01*
X151298795Y-78917674D01*
X151294330Y-78872339D01*
X151294330Y-77785661D01*
X151298795Y-77740326D01*
X151310229Y-77702633D01*
X151328796Y-77667897D01*
X151353782Y-77637452D01*
X151384227Y-77612466D01*
X151418963Y-77593899D01*
X151456656Y-77582465D01*
X151501991Y-77578000D01*
X152338669Y-77578000D01*
X152384004Y-77582465D01*
G37*
G36*
X129050672Y-77582465D02*
G01*
X129088365Y-77593899D01*
X129123101Y-77612466D01*
X129153546Y-77637452D01*
X129178532Y-77667897D01*
X129197099Y-77702633D01*
X129208533Y-77740326D01*
X129212998Y-77785661D01*
X129212998Y-78872339D01*
X129208533Y-78917674D01*
X129197099Y-78955367D01*
X129178532Y-78990103D01*
X129153546Y-79020548D01*
X129123101Y-79045534D01*
X129088365Y-79064101D01*
X129050672Y-79075535D01*
X129005337Y-79080000D01*
X128168659Y-79080000D01*
X128123324Y-79075535D01*
X128085631Y-79064101D01*
X128050895Y-79045534D01*
X128020450Y-79020548D01*
X127995464Y-78990103D01*
X127976897Y-78955367D01*
X127965463Y-78917674D01*
X127960998Y-78872339D01*
X127960998Y-77785661D01*
X127965463Y-77740326D01*
X127976897Y-77702633D01*
X127995464Y-77667897D01*
X128020450Y-77637452D01*
X128050895Y-77612466D01*
X128085631Y-77593899D01*
X128123324Y-77582465D01*
X128168659Y-77578000D01*
X129005337Y-77578000D01*
X129050672Y-77582465D01*
G37*
G36*
X124872998Y-79040000D02*
G01*
X123450998Y-79040000D01*
X123450998Y-77618000D01*
X124872998Y-77618000D01*
X124872998Y-79040000D01*
G37*
G36*
X148206330Y-79040000D02*
G01*
X146784330Y-79040000D01*
X146784330Y-77618000D01*
X148206330Y-77618000D01*
X148206330Y-79040000D01*
G37*
G36*
X101539666Y-79040000D02*
G01*
X100117666Y-79040000D01*
X100117666Y-77618000D01*
X101539666Y-77618000D01*
X101539666Y-79040000D01*
G37*
G36*
X112172998Y-76754000D02*
G01*
X110750998Y-76754000D01*
X110750998Y-75332000D01*
X112172998Y-75332000D01*
X112172998Y-76754000D01*
G37*
G36*
X135506330Y-76754000D02*
G01*
X134084330Y-76754000D01*
X134084330Y-75332000D01*
X135506330Y-75332000D01*
X135506330Y-76754000D01*
G37*
G36*
X88839666Y-76754000D02*
G01*
X87417666Y-76754000D01*
X87417666Y-75332000D01*
X88839666Y-75332000D01*
X88839666Y-76754000D01*
G37*
G36*
X105717340Y-75042465D02*
G01*
X105755033Y-75053899D01*
X105789769Y-75072466D01*
X105820214Y-75097452D01*
X105845200Y-75127897D01*
X105863767Y-75162633D01*
X105875201Y-75200326D01*
X105879666Y-75245661D01*
X105879666Y-76332339D01*
X105875201Y-76377674D01*
X105863767Y-76415367D01*
X105845200Y-76450103D01*
X105820214Y-76480548D01*
X105789769Y-76505534D01*
X105755033Y-76524101D01*
X105717340Y-76535535D01*
X105672005Y-76540000D01*
X104835327Y-76540000D01*
X104789992Y-76535535D01*
X104752299Y-76524101D01*
X104717563Y-76505534D01*
X104687118Y-76480548D01*
X104662132Y-76450103D01*
X104643565Y-76415367D01*
X104632131Y-76377674D01*
X104627666Y-76332339D01*
X104627666Y-75245661D01*
X104632131Y-75200326D01*
X104643565Y-75162633D01*
X104662132Y-75127897D01*
X104687118Y-75097452D01*
X104717563Y-75072466D01*
X104752299Y-75053899D01*
X104789992Y-75042465D01*
X104835327Y-75038000D01*
X105672005Y-75038000D01*
X105717340Y-75042465D01*
G37*
G36*
X103667340Y-75042465D02*
G01*
X103705033Y-75053899D01*
X103739769Y-75072466D01*
X103770214Y-75097452D01*
X103795200Y-75127897D01*
X103813767Y-75162633D01*
X103825201Y-75200326D01*
X103829666Y-75245661D01*
X103829666Y-76332339D01*
X103825201Y-76377674D01*
X103813767Y-76415367D01*
X103795200Y-76450103D01*
X103770214Y-76480548D01*
X103739769Y-76505534D01*
X103705033Y-76524101D01*
X103667340Y-76535535D01*
X103622005Y-76540000D01*
X102785327Y-76540000D01*
X102739992Y-76535535D01*
X102702299Y-76524101D01*
X102667563Y-76505534D01*
X102637118Y-76480548D01*
X102612132Y-76450103D01*
X102593565Y-76415367D01*
X102582131Y-76377674D01*
X102577666Y-76332339D01*
X102577666Y-75245661D01*
X102582131Y-75200326D01*
X102593565Y-75162633D01*
X102612132Y-75127897D01*
X102637118Y-75097452D01*
X102667563Y-75072466D01*
X102702299Y-75053899D01*
X102739992Y-75042465D01*
X102785327Y-75038000D01*
X103622005Y-75038000D01*
X103667340Y-75042465D01*
G37*
G36*
X152384004Y-75042465D02*
G01*
X152421697Y-75053899D01*
X152456433Y-75072466D01*
X152486878Y-75097452D01*
X152511864Y-75127897D01*
X152530431Y-75162633D01*
X152541865Y-75200326D01*
X152546330Y-75245661D01*
X152546330Y-76332339D01*
X152541865Y-76377674D01*
X152530431Y-76415367D01*
X152511864Y-76450103D01*
X152486878Y-76480548D01*
X152456433Y-76505534D01*
X152421697Y-76524101D01*
X152384004Y-76535535D01*
X152338669Y-76540000D01*
X151501991Y-76540000D01*
X151456656Y-76535535D01*
X151418963Y-76524101D01*
X151384227Y-76505534D01*
X151353782Y-76480548D01*
X151328796Y-76450103D01*
X151310229Y-76415367D01*
X151298795Y-76377674D01*
X151294330Y-76332339D01*
X151294330Y-75245661D01*
X151298795Y-75200326D01*
X151310229Y-75162633D01*
X151328796Y-75127897D01*
X151353782Y-75097452D01*
X151384227Y-75072466D01*
X151418963Y-75053899D01*
X151456656Y-75042465D01*
X151501991Y-75038000D01*
X152338669Y-75038000D01*
X152384004Y-75042465D01*
G37*
G36*
X129050672Y-75042465D02*
G01*
X129088365Y-75053899D01*
X129123101Y-75072466D01*
X129153546Y-75097452D01*
X129178532Y-75127897D01*
X129197099Y-75162633D01*
X129208533Y-75200326D01*
X129212998Y-75245661D01*
X129212998Y-76332339D01*
X129208533Y-76377674D01*
X129197099Y-76415367D01*
X129178532Y-76450103D01*
X129153546Y-76480548D01*
X129123101Y-76505534D01*
X129088365Y-76524101D01*
X129050672Y-76535535D01*
X129005337Y-76540000D01*
X128168659Y-76540000D01*
X128123324Y-76535535D01*
X128085631Y-76524101D01*
X128050895Y-76505534D01*
X128020450Y-76480548D01*
X127995464Y-76450103D01*
X127976897Y-76415367D01*
X127965463Y-76377674D01*
X127960998Y-76332339D01*
X127960998Y-75245661D01*
X127965463Y-75200326D01*
X127976897Y-75162633D01*
X127995464Y-75127897D01*
X128020450Y-75097452D01*
X128050895Y-75072466D01*
X128085631Y-75053899D01*
X128123324Y-75042465D01*
X128168659Y-75038000D01*
X129005337Y-75038000D01*
X129050672Y-75042465D01*
G37*
G36*
X127000672Y-75042465D02*
G01*
X127038365Y-75053899D01*
X127073101Y-75072466D01*
X127103546Y-75097452D01*
X127128532Y-75127897D01*
X127147099Y-75162633D01*
X127158533Y-75200326D01*
X127162998Y-75245661D01*
X127162998Y-76332339D01*
X127158533Y-76377674D01*
X127147099Y-76415367D01*
X127128532Y-76450103D01*
X127103546Y-76480548D01*
X127073101Y-76505534D01*
X127038365Y-76524101D01*
X127000672Y-76535535D01*
X126955337Y-76540000D01*
X126118659Y-76540000D01*
X126073324Y-76535535D01*
X126035631Y-76524101D01*
X126000895Y-76505534D01*
X125970450Y-76480548D01*
X125945464Y-76450103D01*
X125926897Y-76415367D01*
X125915463Y-76377674D01*
X125910998Y-76332339D01*
X125910998Y-75245661D01*
X125915463Y-75200326D01*
X125926897Y-75162633D01*
X125945464Y-75127897D01*
X125970450Y-75097452D01*
X126000895Y-75072466D01*
X126035631Y-75053899D01*
X126073324Y-75042465D01*
X126118659Y-75038000D01*
X126955337Y-75038000D01*
X127000672Y-75042465D01*
G37*
G36*
X150334004Y-75042465D02*
G01*
X150371697Y-75053899D01*
X150406433Y-75072466D01*
X150436878Y-75097452D01*
X150461864Y-75127897D01*
X150480431Y-75162633D01*
X150491865Y-75200326D01*
X150496330Y-75245661D01*
X150496330Y-76332339D01*
X150491865Y-76377674D01*
X150480431Y-76415367D01*
X150461864Y-76450103D01*
X150436878Y-76480548D01*
X150406433Y-76505534D01*
X150371697Y-76524101D01*
X150334004Y-76535535D01*
X150288669Y-76540000D01*
X149451991Y-76540000D01*
X149406656Y-76535535D01*
X149368963Y-76524101D01*
X149334227Y-76505534D01*
X149303782Y-76480548D01*
X149278796Y-76450103D01*
X149260229Y-76415367D01*
X149248795Y-76377674D01*
X149244330Y-76332339D01*
X149244330Y-75245661D01*
X149248795Y-75200326D01*
X149260229Y-75162633D01*
X149278796Y-75127897D01*
X149303782Y-75097452D01*
X149334227Y-75072466D01*
X149368963Y-75053899D01*
X149406656Y-75042465D01*
X149451991Y-75038000D01*
X150288669Y-75038000D01*
X150334004Y-75042465D01*
G37*
G36*
X124872998Y-76500000D02*
G01*
X123450998Y-76500000D01*
X123450998Y-75078000D01*
X124872998Y-75078000D01*
X124872998Y-76500000D01*
G37*
G36*
X101539666Y-76500000D02*
G01*
X100117666Y-76500000D01*
X100117666Y-75078000D01*
X101539666Y-75078000D01*
X101539666Y-76500000D01*
G37*
G36*
X148206330Y-76500000D02*
G01*
X146784330Y-76500000D01*
X146784330Y-75078000D01*
X148206330Y-75078000D01*
X148206330Y-76500000D01*
G37*
G36*
X135506330Y-74214000D02*
G01*
X134084330Y-74214000D01*
X134084330Y-72792000D01*
X135506330Y-72792000D01*
X135506330Y-74214000D01*
G37*
G36*
X88839666Y-74214000D02*
G01*
X87417666Y-74214000D01*
X87417666Y-72792000D01*
X88839666Y-72792000D01*
X88839666Y-74214000D01*
G37*
G36*
X112172998Y-74214000D02*
G01*
X110750998Y-74214000D01*
X110750998Y-72792000D01*
X112172998Y-72792000D01*
X112172998Y-74214000D01*
G37*
G36*
X101539666Y-73960000D02*
G01*
X100117666Y-73960000D01*
X100117666Y-72538000D01*
X101539666Y-72538000D01*
X101539666Y-73960000D01*
G37*
G36*
X124872998Y-73960000D02*
G01*
X123450998Y-73960000D01*
X123450998Y-72538000D01*
X124872998Y-72538000D01*
X124872998Y-73960000D01*
G37*
G36*
X148206330Y-73960000D02*
G01*
X146784330Y-73960000D01*
X146784330Y-72538000D01*
X148206330Y-72538000D01*
X148206330Y-73960000D01*
G37*
G36*
X88839666Y-71674000D02*
G01*
X87417666Y-71674000D01*
X87417666Y-70252000D01*
X88839666Y-70252000D01*
X88839666Y-71674000D01*
G37*
G36*
X112172998Y-71674000D02*
G01*
X110750998Y-71674000D01*
X110750998Y-70252000D01*
X112172998Y-70252000D01*
X112172998Y-71674000D01*
G37*
G36*
X135506330Y-71674000D02*
G01*
X134084330Y-71674000D01*
X134084330Y-70252000D01*
X135506330Y-70252000D01*
X135506330Y-71674000D01*
G37*
G36*
X101539666Y-71420000D02*
G01*
X100117666Y-71420000D01*
X100117666Y-69998000D01*
X101539666Y-69998000D01*
X101539666Y-71420000D01*
G37*
G36*
X148206330Y-71420000D02*
G01*
X146784330Y-71420000D01*
X146784330Y-69998000D01*
X148206330Y-69998000D01*
X148206330Y-71420000D01*
G37*
G36*
X124872998Y-71420000D02*
G01*
X123450998Y-71420000D01*
X123450998Y-69998000D01*
X124872998Y-69998000D01*
X124872998Y-71420000D01*
G37*
G36*
X91887666Y-69261000D02*
G01*
X90465666Y-69261000D01*
X90465666Y-67839000D01*
X91887666Y-67839000D01*
X91887666Y-69261000D01*
G37*
G36*
X146174330Y-69261000D02*
G01*
X144752330Y-69261000D01*
X144752330Y-67839000D01*
X146174330Y-67839000D01*
X146174330Y-69261000D01*
G37*
G36*
X143634330Y-69261000D02*
G01*
X142212330Y-69261000D01*
X142212330Y-67839000D01*
X143634330Y-67839000D01*
X143634330Y-69261000D01*
G37*
G36*
X141094330Y-69261000D02*
G01*
X139672330Y-69261000D01*
X139672330Y-67839000D01*
X141094330Y-67839000D01*
X141094330Y-69261000D01*
G37*
G36*
X122840998Y-69261000D02*
G01*
X121418998Y-69261000D01*
X121418998Y-67839000D01*
X122840998Y-67839000D01*
X122840998Y-69261000D01*
G37*
G36*
X120300998Y-69261000D02*
G01*
X118878998Y-69261000D01*
X118878998Y-67839000D01*
X120300998Y-67839000D01*
X120300998Y-69261000D01*
G37*
G36*
X117760998Y-69261000D02*
G01*
X116338998Y-69261000D01*
X116338998Y-67839000D01*
X117760998Y-67839000D01*
X117760998Y-69261000D01*
G37*
G36*
X115220998Y-69261000D02*
G01*
X113798998Y-69261000D01*
X113798998Y-67839000D01*
X115220998Y-67839000D01*
X115220998Y-69261000D01*
G37*
G36*
X99507666Y-69261000D02*
G01*
X98085666Y-69261000D01*
X98085666Y-67839000D01*
X99507666Y-67839000D01*
X99507666Y-69261000D01*
G37*
G36*
X96967666Y-69261000D02*
G01*
X95545666Y-69261000D01*
X95545666Y-67839000D01*
X96967666Y-67839000D01*
X96967666Y-69261000D01*
G37*
G36*
X94427666Y-69261000D02*
G01*
X93005666Y-69261000D01*
X93005666Y-67839000D01*
X94427666Y-67839000D01*
X94427666Y-69261000D01*
G37*
G36*
X138554330Y-69261000D02*
G01*
X137132330Y-69261000D01*
X137132330Y-67839000D01*
X138554330Y-67839000D01*
X138554330Y-69261000D01*
G37*
G36*
X92130340Y-65303465D02*
G01*
X92168033Y-65314899D01*
X92202769Y-65333466D01*
X92233214Y-65358452D01*
X92258200Y-65388897D01*
X92276767Y-65423633D01*
X92288201Y-65461326D01*
X92292666Y-65506661D01*
X92292666Y-66593339D01*
X92288201Y-66638674D01*
X92276767Y-66676367D01*
X92258200Y-66711103D01*
X92233214Y-66741548D01*
X92202769Y-66766534D01*
X92168033Y-66785101D01*
X92130340Y-66796535D01*
X92085005Y-66801000D01*
X91248327Y-66801000D01*
X91202992Y-66796535D01*
X91165299Y-66785101D01*
X91130563Y-66766534D01*
X91100118Y-66741548D01*
X91075132Y-66711103D01*
X91056565Y-66676367D01*
X91045131Y-66638674D01*
X91040666Y-66593339D01*
X91040666Y-65506661D01*
X91045131Y-65461326D01*
X91056565Y-65423633D01*
X91075132Y-65388897D01*
X91100118Y-65358452D01*
X91130563Y-65333466D01*
X91165299Y-65314899D01*
X91202992Y-65303465D01*
X91248327Y-65299000D01*
X92085005Y-65299000D01*
X92130340Y-65303465D01*
G37*
G36*
X94180340Y-65303465D02*
G01*
X94218033Y-65314899D01*
X94252769Y-65333466D01*
X94283214Y-65358452D01*
X94308200Y-65388897D01*
X94326767Y-65423633D01*
X94338201Y-65461326D01*
X94342666Y-65506661D01*
X94342666Y-66593339D01*
X94338201Y-66638674D01*
X94326767Y-66676367D01*
X94308200Y-66711103D01*
X94283214Y-66741548D01*
X94252769Y-66766534D01*
X94218033Y-66785101D01*
X94180340Y-66796535D01*
X94135005Y-66801000D01*
X93298327Y-66801000D01*
X93252992Y-66796535D01*
X93215299Y-66785101D01*
X93180563Y-66766534D01*
X93150118Y-66741548D01*
X93125132Y-66711103D01*
X93106565Y-66676367D01*
X93095131Y-66638674D01*
X93090666Y-66593339D01*
X93090666Y-65506661D01*
X93095131Y-65461326D01*
X93106565Y-65423633D01*
X93125132Y-65388897D01*
X93150118Y-65358452D01*
X93180563Y-65333466D01*
X93215299Y-65314899D01*
X93252992Y-65303465D01*
X93298327Y-65299000D01*
X94135005Y-65299000D01*
X94180340Y-65303465D01*
G37*
G36*
X115463672Y-65303465D02*
G01*
X115501365Y-65314899D01*
X115536101Y-65333466D01*
X115566546Y-65358452D01*
X115591532Y-65388897D01*
X115610099Y-65423633D01*
X115621533Y-65461326D01*
X115625998Y-65506661D01*
X115625998Y-66593339D01*
X115621533Y-66638674D01*
X115610099Y-66676367D01*
X115591532Y-66711103D01*
X115566546Y-66741548D01*
X115536101Y-66766534D01*
X115501365Y-66785101D01*
X115463672Y-66796535D01*
X115418337Y-66801000D01*
X114581659Y-66801000D01*
X114536324Y-66796535D01*
X114498631Y-66785101D01*
X114463895Y-66766534D01*
X114433450Y-66741548D01*
X114408464Y-66711103D01*
X114389897Y-66676367D01*
X114378463Y-66638674D01*
X114373998Y-66593339D01*
X114373998Y-65506661D01*
X114378463Y-65461326D01*
X114389897Y-65423633D01*
X114408464Y-65388897D01*
X114433450Y-65358452D01*
X114463895Y-65333466D01*
X114498631Y-65314899D01*
X114536324Y-65303465D01*
X114581659Y-65299000D01*
X115418337Y-65299000D01*
X115463672Y-65303465D01*
G37*
G36*
X140847004Y-65303465D02*
G01*
X140884697Y-65314899D01*
X140919433Y-65333466D01*
X140949878Y-65358452D01*
X140974864Y-65388897D01*
X140993431Y-65423633D01*
X141004865Y-65461326D01*
X141009330Y-65506661D01*
X141009330Y-66593339D01*
X141004865Y-66638674D01*
X140993431Y-66676367D01*
X140974864Y-66711103D01*
X140949878Y-66741548D01*
X140919433Y-66766534D01*
X140884697Y-66785101D01*
X140847004Y-66796535D01*
X140801669Y-66801000D01*
X139964991Y-66801000D01*
X139919656Y-66796535D01*
X139881963Y-66785101D01*
X139847227Y-66766534D01*
X139816782Y-66741548D01*
X139791796Y-66711103D01*
X139773229Y-66676367D01*
X139761795Y-66638674D01*
X139757330Y-66593339D01*
X139757330Y-65506661D01*
X139761795Y-65461326D01*
X139773229Y-65423633D01*
X139791796Y-65388897D01*
X139816782Y-65358452D01*
X139847227Y-65333466D01*
X139881963Y-65314899D01*
X139919656Y-65303465D01*
X139964991Y-65299000D01*
X140801669Y-65299000D01*
X140847004Y-65303465D01*
G37*
G36*
X117513672Y-65303465D02*
G01*
X117551365Y-65314899D01*
X117586101Y-65333466D01*
X117616546Y-65358452D01*
X117641532Y-65388897D01*
X117660099Y-65423633D01*
X117671533Y-65461326D01*
X117675998Y-65506661D01*
X117675998Y-66593339D01*
X117671533Y-66638674D01*
X117660099Y-66676367D01*
X117641532Y-66711103D01*
X117616546Y-66741548D01*
X117586101Y-66766534D01*
X117551365Y-66785101D01*
X117513672Y-66796535D01*
X117468337Y-66801000D01*
X116631659Y-66801000D01*
X116586324Y-66796535D01*
X116548631Y-66785101D01*
X116513895Y-66766534D01*
X116483450Y-66741548D01*
X116458464Y-66711103D01*
X116439897Y-66676367D01*
X116428463Y-66638674D01*
X116423998Y-66593339D01*
X116423998Y-65506661D01*
X116428463Y-65461326D01*
X116439897Y-65423633D01*
X116458464Y-65388897D01*
X116483450Y-65358452D01*
X116513895Y-65333466D01*
X116548631Y-65314899D01*
X116586324Y-65303465D01*
X116631659Y-65299000D01*
X117468337Y-65299000D01*
X117513672Y-65303465D01*
G37*
G36*
X138797004Y-65303465D02*
G01*
X138834697Y-65314899D01*
X138869433Y-65333466D01*
X138899878Y-65358452D01*
X138924864Y-65388897D01*
X138943431Y-65423633D01*
X138954865Y-65461326D01*
X138959330Y-65506661D01*
X138959330Y-66593339D01*
X138954865Y-66638674D01*
X138943431Y-66676367D01*
X138924864Y-66711103D01*
X138899878Y-66741548D01*
X138869433Y-66766534D01*
X138834697Y-66785101D01*
X138797004Y-66796535D01*
X138751669Y-66801000D01*
X137914991Y-66801000D01*
X137869656Y-66796535D01*
X137831963Y-66785101D01*
X137797227Y-66766534D01*
X137766782Y-66741548D01*
X137741796Y-66711103D01*
X137723229Y-66676367D01*
X137711795Y-66638674D01*
X137707330Y-66593339D01*
X137707330Y-65506661D01*
X137711795Y-65461326D01*
X137723229Y-65423633D01*
X137741796Y-65388897D01*
X137766782Y-65358452D01*
X137797227Y-65333466D01*
X137831963Y-65314899D01*
X137869656Y-65303465D01*
X137914991Y-65299000D01*
X138751669Y-65299000D01*
X138797004Y-65303465D01*
G37*
G36*
X92067666Y-64046000D02*
G01*
X91265666Y-64046000D01*
X91265666Y-62644000D01*
X92067666Y-62644000D01*
X92067666Y-64046000D01*
G37*
G36*
X138734330Y-64046000D02*
G01*
X137932330Y-64046000D01*
X137932330Y-62644000D01*
X138734330Y-62644000D01*
X138734330Y-64046000D01*
G37*
G36*
X115400998Y-64046000D02*
G01*
X114598998Y-64046000D01*
X114598998Y-62644000D01*
X115400998Y-62644000D01*
X115400998Y-64046000D01*
G37*
G36*
X141284330Y-61846000D02*
G01*
X139782330Y-61846000D01*
X139782330Y-60544000D01*
X141284330Y-60544000D01*
X141284330Y-61846000D01*
G37*
G36*
X136884330Y-61846000D02*
G01*
X135382330Y-61846000D01*
X135382330Y-60544000D01*
X136884330Y-60544000D01*
X136884330Y-61846000D01*
G37*
G36*
X117950998Y-61846000D02*
G01*
X116448998Y-61846000D01*
X116448998Y-60544000D01*
X117950998Y-60544000D01*
X117950998Y-61846000D01*
G37*
G36*
X113550998Y-61846000D02*
G01*
X112048998Y-61846000D01*
X112048998Y-60544000D01*
X113550998Y-60544000D01*
X113550998Y-61846000D01*
G37*
G36*
X90217666Y-61846000D02*
G01*
X88715666Y-61846000D01*
X88715666Y-60544000D01*
X90217666Y-60544000D01*
X90217666Y-61846000D01*
G37*
G36*
X94617666Y-61846000D02*
G01*
X93115666Y-61846000D01*
X93115666Y-60544000D01*
X94617666Y-60544000D01*
X94617666Y-61846000D01*
G37*
G36*
X92067666Y-59746000D02*
G01*
X91265666Y-59746000D01*
X91265666Y-58344000D01*
X92067666Y-58344000D01*
X92067666Y-59746000D01*
G37*
G36*
X138734330Y-59746000D02*
G01*
X137932330Y-59746000D01*
X137932330Y-58344000D01*
X138734330Y-58344000D01*
X138734330Y-59746000D01*
G37*
G36*
X115400998Y-59746000D02*
G01*
X114598998Y-59746000D01*
X114598998Y-58344000D01*
X115400998Y-58344000D01*
X115400998Y-59746000D01*
G37*
G36*
X76551000Y-57091000D02*
G01*
X74949000Y-57091000D01*
X74949000Y-51909000D01*
X76551000Y-51909000D01*
X76551000Y-57091000D01*
G37*
G36*
X88217666Y-57091000D02*
G01*
X86615666Y-57091000D01*
X86615666Y-51909000D01*
X88217666Y-51909000D01*
X88217666Y-57091000D01*
G37*
G36*
X92467666Y-57091000D02*
G01*
X90865666Y-57091000D01*
X90865666Y-51909000D01*
X92467666Y-51909000D01*
X92467666Y-57091000D01*
G37*
G36*
X96717666Y-57091000D02*
G01*
X95115666Y-57091000D01*
X95115666Y-51909000D01*
X96717666Y-51909000D01*
X96717666Y-57091000D01*
G37*
G36*
X99884332Y-57091000D02*
G01*
X98282332Y-57091000D01*
X98282332Y-51909000D01*
X99884332Y-51909000D01*
X99884332Y-57091000D01*
G37*
G36*
X111550998Y-57091000D02*
G01*
X109948998Y-57091000D01*
X109948998Y-51909000D01*
X111550998Y-51909000D01*
X111550998Y-57091000D01*
G37*
G36*
X120050998Y-57091000D02*
G01*
X118448998Y-57091000D01*
X118448998Y-51909000D01*
X120050998Y-51909000D01*
X120050998Y-57091000D01*
G37*
G36*
X123217664Y-57091000D02*
G01*
X121615664Y-57091000D01*
X121615664Y-51909000D01*
X123217664Y-51909000D01*
X123217664Y-57091000D01*
G37*
G36*
X131717664Y-57091000D02*
G01*
X130115664Y-57091000D01*
X130115664Y-51909000D01*
X131717664Y-51909000D01*
X131717664Y-57091000D01*
G37*
G36*
X155051000Y-57091000D02*
G01*
X153449000Y-57091000D01*
X153449000Y-51909000D01*
X155051000Y-51909000D01*
X155051000Y-57091000D01*
G37*
G36*
X146551000Y-57091000D02*
G01*
X144949000Y-57091000D01*
X144949000Y-51909000D01*
X146551000Y-51909000D01*
X146551000Y-57091000D01*
G37*
G36*
X85051000Y-57091000D02*
G01*
X83449000Y-57091000D01*
X83449000Y-51909000D01*
X85051000Y-51909000D01*
X85051000Y-57091000D01*
G37*
G36*
X115800998Y-57091000D02*
G01*
X114198998Y-57091000D01*
X114198998Y-51909000D01*
X115800998Y-51909000D01*
X115800998Y-57091000D01*
G37*
G36*
X134884330Y-57091000D02*
G01*
X133282330Y-57091000D01*
X133282330Y-51909000D01*
X134884330Y-51909000D01*
X134884330Y-57091000D01*
G37*
G36*
X143384330Y-57091000D02*
G01*
X141782330Y-57091000D01*
X141782330Y-51909000D01*
X143384330Y-51909000D01*
X143384330Y-57091000D01*
G37*
G36*
X139134330Y-57091000D02*
G01*
X137532330Y-57091000D01*
X137532330Y-51909000D01*
X139134330Y-51909000D01*
X139134330Y-57091000D01*
G37*
G36*
X108384332Y-57091000D02*
G01*
X106782332Y-57091000D01*
X106782332Y-51909000D01*
X108384332Y-51909000D01*
X108384332Y-57091000D01*
G37*
M02*
