%TF.GenerationSoftware,KiCad,Pcbnew,(5.1.8)-1*%
%TF.CreationDate,2021-02-23T22:19:54+01:00*%
%TF.ProjectId,cvco-general,6376636f-2d67-4656-9e65-72616c2e6b69,rev?*%
%TF.SameCoordinates,Original*%
%TF.FileFunction,Paste,Top*%
%TF.FilePolarity,Positive*%
%FSLAX46Y46*%
G04 Gerber Fmt 4.6, Leading zero omitted, Abs format (unit mm)*
G04 Created by KiCad (PCBNEW (5.1.8)-1) date 2021-02-23 22:19:54*
%MOMM*%
%LPD*%
G01*
G04 APERTURE LIST*
%ADD10C,0.100000*%
%TA.AperFunction,Profile*%
%ADD11C,0.050000*%
%TD*%
%ADD12R,2.200000X1.200000*%
%ADD13R,3.050000X2.750000*%
%ADD14R,5.080000X1.500000*%
%ADD15R,1.800000X2.500000*%
%ADD16R,1.320000X1.320000*%
%ADD17R,1.700000X1.300000*%
G04 APERTURE END LIST*
D10*
G36*
X135650000Y-71262000D02*
G01*
X127650000Y-71262000D01*
X127650000Y-63262000D01*
X135650000Y-63262000D01*
X135650000Y-71262000D01*
G37*
X135650000Y-71262000D02*
X127650000Y-71262000D01*
X127650000Y-63262000D01*
X135650000Y-63262000D01*
X135650000Y-71262000D01*
D11*
X105000000Y-95000000D02*
G75*
G02*
X100000000Y-90000000I0J5000000D01*
G01*
X165000000Y-90000000D02*
G75*
G02*
X160000000Y-95000000I-5000000J0D01*
G01*
X160000000Y-50000000D02*
G75*
G02*
X165000000Y-55000000I0J-5000000D01*
G01*
X100000000Y-55000000D02*
G75*
G02*
X105000000Y-50000000I5000000J0D01*
G01*
X100000000Y-90000000D02*
X100000000Y-55000000D01*
X160000000Y-95000000D02*
X105000000Y-95000000D01*
X165000000Y-55000000D02*
X165000000Y-90000000D01*
X105000000Y-50000000D02*
X160000000Y-50000000D01*
%TO.C,R2*%
G36*
G01*
X126575000Y-92366762D02*
X126575000Y-91466760D01*
G75*
G02*
X126824999Y-91216761I249999J0D01*
G01*
X127350001Y-91216761D01*
G75*
G02*
X127600000Y-91466760I0J-249999D01*
G01*
X127600000Y-92366762D01*
G75*
G02*
X127350001Y-92616761I-249999J0D01*
G01*
X126824999Y-92616761D01*
G75*
G02*
X126575000Y-92366762I0J249999D01*
G01*
G37*
G36*
G01*
X128400000Y-92366762D02*
X128400000Y-91466760D01*
G75*
G02*
X128649999Y-91216761I249999J0D01*
G01*
X129175001Y-91216761D01*
G75*
G02*
X129425000Y-91466760I0J-249999D01*
G01*
X129425000Y-92366762D01*
G75*
G02*
X129175001Y-92616761I-249999J0D01*
G01*
X128649999Y-92616761D01*
G75*
G02*
X128400000Y-92366762I0J249999D01*
G01*
G37*
%TD*%
D12*
%TO.C,U1*%
X128622318Y-89196761D03*
X128622318Y-84636761D03*
D13*
X120647318Y-85391761D03*
X123997318Y-88441761D03*
X120647318Y-88441761D03*
X123997318Y-85391761D03*
%TD*%
%TO.C,R6*%
G36*
G01*
X154778011Y-68601001D02*
X154778011Y-67700999D01*
G75*
G02*
X155028010Y-67451000I249999J0D01*
G01*
X155553012Y-67451000D01*
G75*
G02*
X155803011Y-67700999I0J-249999D01*
G01*
X155803011Y-68601001D01*
G75*
G02*
X155553012Y-68851000I-249999J0D01*
G01*
X155028010Y-68851000D01*
G75*
G02*
X154778011Y-68601001I0J249999D01*
G01*
G37*
G36*
G01*
X156603011Y-68601001D02*
X156603011Y-67700999D01*
G75*
G02*
X156853010Y-67451000I249999J0D01*
G01*
X157378012Y-67451000D01*
G75*
G02*
X157628011Y-67700999I0J-249999D01*
G01*
X157628011Y-68601001D01*
G75*
G02*
X157378012Y-68851000I-249999J0D01*
G01*
X156853010Y-68851000D01*
G75*
G02*
X156603011Y-68601001I0J249999D01*
G01*
G37*
%TD*%
D14*
%TO.C,J1*%
X103000000Y-66500000D03*
X103000000Y-70750000D03*
X103000000Y-62250000D03*
%TD*%
%TO.C,C1*%
G36*
G01*
X131975000Y-85136761D02*
X131025000Y-85136761D01*
G75*
G02*
X130775000Y-84886761I0J250000D01*
G01*
X130775000Y-84386761D01*
G75*
G02*
X131025000Y-84136761I250000J0D01*
G01*
X131975000Y-84136761D01*
G75*
G02*
X132225000Y-84386761I0J-250000D01*
G01*
X132225000Y-84886761D01*
G75*
G02*
X131975000Y-85136761I-250000J0D01*
G01*
G37*
G36*
G01*
X131975000Y-83236761D02*
X131025000Y-83236761D01*
G75*
G02*
X130775000Y-82986761I0J250000D01*
G01*
X130775000Y-82486761D01*
G75*
G02*
X131025000Y-82236761I250000J0D01*
G01*
X131975000Y-82236761D01*
G75*
G02*
X132225000Y-82486761I0J-250000D01*
G01*
X132225000Y-82986761D01*
G75*
G02*
X131975000Y-83236761I-250000J0D01*
G01*
G37*
%TD*%
%TO.C,C2*%
G36*
G01*
X123722318Y-82391761D02*
X123722318Y-81441761D01*
G75*
G02*
X123972318Y-81191761I250000J0D01*
G01*
X124472318Y-81191761D01*
G75*
G02*
X124722318Y-81441761I0J-250000D01*
G01*
X124722318Y-82391761D01*
G75*
G02*
X124472318Y-82641761I-250000J0D01*
G01*
X123972318Y-82641761D01*
G75*
G02*
X123722318Y-82391761I0J250000D01*
G01*
G37*
G36*
G01*
X121822318Y-82391761D02*
X121822318Y-81441761D01*
G75*
G02*
X122072318Y-81191761I250000J0D01*
G01*
X122572318Y-81191761D01*
G75*
G02*
X122822318Y-81441761I0J-250000D01*
G01*
X122822318Y-82391761D01*
G75*
G02*
X122572318Y-82641761I-250000J0D01*
G01*
X122072318Y-82641761D01*
G75*
G02*
X121822318Y-82391761I0J250000D01*
G01*
G37*
%TD*%
%TO.C,C3*%
G36*
G01*
X113383334Y-84000000D02*
X113383334Y-83050000D01*
G75*
G02*
X113633334Y-82800000I250000J0D01*
G01*
X114133334Y-82800000D01*
G75*
G02*
X114383334Y-83050000I0J-250000D01*
G01*
X114383334Y-84000000D01*
G75*
G02*
X114133334Y-84250000I-250000J0D01*
G01*
X113633334Y-84250000D01*
G75*
G02*
X113383334Y-84000000I0J250000D01*
G01*
G37*
G36*
G01*
X111483334Y-84000000D02*
X111483334Y-83050000D01*
G75*
G02*
X111733334Y-82800000I250000J0D01*
G01*
X112233334Y-82800000D01*
G75*
G02*
X112483334Y-83050000I0J-250000D01*
G01*
X112483334Y-84000000D01*
G75*
G02*
X112233334Y-84250000I-250000J0D01*
G01*
X111733334Y-84250000D01*
G75*
G02*
X111483334Y-84000000I0J250000D01*
G01*
G37*
%TD*%
%TO.C,C4*%
G36*
G01*
X113383334Y-81495000D02*
X113383334Y-80545000D01*
G75*
G02*
X113633334Y-80295000I250000J0D01*
G01*
X114133334Y-80295000D01*
G75*
G02*
X114383334Y-80545000I0J-250000D01*
G01*
X114383334Y-81495000D01*
G75*
G02*
X114133334Y-81745000I-250000J0D01*
G01*
X113633334Y-81745000D01*
G75*
G02*
X113383334Y-81495000I0J250000D01*
G01*
G37*
G36*
G01*
X111483334Y-81495000D02*
X111483334Y-80545000D01*
G75*
G02*
X111733334Y-80295000I250000J0D01*
G01*
X112233334Y-80295000D01*
G75*
G02*
X112483334Y-80545000I0J-250000D01*
G01*
X112483334Y-81495000D01*
G75*
G02*
X112233334Y-81745000I-250000J0D01*
G01*
X111733334Y-81745000D01*
G75*
G02*
X111483334Y-81495000I0J250000D01*
G01*
G37*
%TD*%
%TO.C,C5*%
G36*
G01*
X113383334Y-78990000D02*
X113383334Y-78040000D01*
G75*
G02*
X113633334Y-77790000I250000J0D01*
G01*
X114133334Y-77790000D01*
G75*
G02*
X114383334Y-78040000I0J-250000D01*
G01*
X114383334Y-78990000D01*
G75*
G02*
X114133334Y-79240000I-250000J0D01*
G01*
X113633334Y-79240000D01*
G75*
G02*
X113383334Y-78990000I0J250000D01*
G01*
G37*
G36*
G01*
X111483334Y-78990000D02*
X111483334Y-78040000D01*
G75*
G02*
X111733334Y-77790000I250000J0D01*
G01*
X112233334Y-77790000D01*
G75*
G02*
X112483334Y-78040000I0J-250000D01*
G01*
X112483334Y-78990000D01*
G75*
G02*
X112233334Y-79240000I-250000J0D01*
G01*
X111733334Y-79240000D01*
G75*
G02*
X111483334Y-78990000I0J250000D01*
G01*
G37*
%TD*%
%TO.C,C6*%
G36*
G01*
X113383334Y-76485000D02*
X113383334Y-75535000D01*
G75*
G02*
X113633334Y-75285000I250000J0D01*
G01*
X114133334Y-75285000D01*
G75*
G02*
X114383334Y-75535000I0J-250000D01*
G01*
X114383334Y-76485000D01*
G75*
G02*
X114133334Y-76735000I-250000J0D01*
G01*
X113633334Y-76735000D01*
G75*
G02*
X113383334Y-76485000I0J250000D01*
G01*
G37*
G36*
G01*
X111483334Y-76485000D02*
X111483334Y-75535000D01*
G75*
G02*
X111733334Y-75285000I250000J0D01*
G01*
X112233334Y-75285000D01*
G75*
G02*
X112483334Y-75535000I0J-250000D01*
G01*
X112483334Y-76485000D01*
G75*
G02*
X112233334Y-76735000I-250000J0D01*
G01*
X111733334Y-76735000D01*
G75*
G02*
X111483334Y-76485000I0J250000D01*
G01*
G37*
%TD*%
%TO.C,C7*%
G36*
G01*
X111483334Y-73980000D02*
X111483334Y-73030000D01*
G75*
G02*
X111733334Y-72780000I250000J0D01*
G01*
X112233334Y-72780000D01*
G75*
G02*
X112483334Y-73030000I0J-250000D01*
G01*
X112483334Y-73980000D01*
G75*
G02*
X112233334Y-74230000I-250000J0D01*
G01*
X111733334Y-74230000D01*
G75*
G02*
X111483334Y-73980000I0J250000D01*
G01*
G37*
G36*
G01*
X113383334Y-73980000D02*
X113383334Y-73030000D01*
G75*
G02*
X113633334Y-72780000I250000J0D01*
G01*
X114133334Y-72780000D01*
G75*
G02*
X114383334Y-73030000I0J-250000D01*
G01*
X114383334Y-73980000D01*
G75*
G02*
X114133334Y-74230000I-250000J0D01*
G01*
X113633334Y-74230000D01*
G75*
G02*
X113383334Y-73980000I0J250000D01*
G01*
G37*
%TD*%
%TO.C,C8*%
G36*
G01*
X111483334Y-71475000D02*
X111483334Y-70525000D01*
G75*
G02*
X111733334Y-70275000I250000J0D01*
G01*
X112233334Y-70275000D01*
G75*
G02*
X112483334Y-70525000I0J-250000D01*
G01*
X112483334Y-71475000D01*
G75*
G02*
X112233334Y-71725000I-250000J0D01*
G01*
X111733334Y-71725000D01*
G75*
G02*
X111483334Y-71475000I0J250000D01*
G01*
G37*
G36*
G01*
X113383334Y-71475000D02*
X113383334Y-70525000D01*
G75*
G02*
X113633334Y-70275000I250000J0D01*
G01*
X114133334Y-70275000D01*
G75*
G02*
X114383334Y-70525000I0J-250000D01*
G01*
X114383334Y-71475000D01*
G75*
G02*
X114133334Y-71725000I-250000J0D01*
G01*
X113633334Y-71725000D01*
G75*
G02*
X113383334Y-71475000I0J250000D01*
G01*
G37*
%TD*%
%TO.C,C9*%
G36*
G01*
X144625000Y-78562500D02*
X143675000Y-78562500D01*
G75*
G02*
X143425000Y-78312500I0J250000D01*
G01*
X143425000Y-77812500D01*
G75*
G02*
X143675000Y-77562500I250000J0D01*
G01*
X144625000Y-77562500D01*
G75*
G02*
X144875000Y-77812500I0J-250000D01*
G01*
X144875000Y-78312500D01*
G75*
G02*
X144625000Y-78562500I-250000J0D01*
G01*
G37*
G36*
G01*
X144625000Y-76662500D02*
X143675000Y-76662500D01*
G75*
G02*
X143425000Y-76412500I0J250000D01*
G01*
X143425000Y-75912500D01*
G75*
G02*
X143675000Y-75662500I250000J0D01*
G01*
X144625000Y-75662500D01*
G75*
G02*
X144875000Y-75912500I0J-250000D01*
G01*
X144875000Y-76412500D01*
G75*
G02*
X144625000Y-76662500I-250000J0D01*
G01*
G37*
%TD*%
%TO.C,C10*%
G36*
G01*
X142245000Y-76662500D02*
X141295000Y-76662500D01*
G75*
G02*
X141045000Y-76412500I0J250000D01*
G01*
X141045000Y-75912500D01*
G75*
G02*
X141295000Y-75662500I250000J0D01*
G01*
X142245000Y-75662500D01*
G75*
G02*
X142495000Y-75912500I0J-250000D01*
G01*
X142495000Y-76412500D01*
G75*
G02*
X142245000Y-76662500I-250000J0D01*
G01*
G37*
G36*
G01*
X142245000Y-78562500D02*
X141295000Y-78562500D01*
G75*
G02*
X141045000Y-78312500I0J250000D01*
G01*
X141045000Y-77812500D01*
G75*
G02*
X141295000Y-77562500I250000J0D01*
G01*
X142245000Y-77562500D01*
G75*
G02*
X142495000Y-77812500I0J-250000D01*
G01*
X142495000Y-78312500D01*
G75*
G02*
X142245000Y-78562500I-250000J0D01*
G01*
G37*
%TD*%
%TO.C,C11*%
G36*
G01*
X139865000Y-78562500D02*
X138915000Y-78562500D01*
G75*
G02*
X138665000Y-78312500I0J250000D01*
G01*
X138665000Y-77812500D01*
G75*
G02*
X138915000Y-77562500I250000J0D01*
G01*
X139865000Y-77562500D01*
G75*
G02*
X140115000Y-77812500I0J-250000D01*
G01*
X140115000Y-78312500D01*
G75*
G02*
X139865000Y-78562500I-250000J0D01*
G01*
G37*
G36*
G01*
X139865000Y-76662500D02*
X138915000Y-76662500D01*
G75*
G02*
X138665000Y-76412500I0J250000D01*
G01*
X138665000Y-75912500D01*
G75*
G02*
X138915000Y-75662500I250000J0D01*
G01*
X139865000Y-75662500D01*
G75*
G02*
X140115000Y-75912500I0J-250000D01*
G01*
X140115000Y-76412500D01*
G75*
G02*
X139865000Y-76662500I-250000J0D01*
G01*
G37*
%TD*%
%TO.C,C12*%
G36*
G01*
X137485000Y-78562500D02*
X136535000Y-78562500D01*
G75*
G02*
X136285000Y-78312500I0J250000D01*
G01*
X136285000Y-77812500D01*
G75*
G02*
X136535000Y-77562500I250000J0D01*
G01*
X137485000Y-77562500D01*
G75*
G02*
X137735000Y-77812500I0J-250000D01*
G01*
X137735000Y-78312500D01*
G75*
G02*
X137485000Y-78562500I-250000J0D01*
G01*
G37*
G36*
G01*
X137485000Y-76662500D02*
X136535000Y-76662500D01*
G75*
G02*
X136285000Y-76412500I0J250000D01*
G01*
X136285000Y-75912500D01*
G75*
G02*
X136535000Y-75662500I250000J0D01*
G01*
X137485000Y-75662500D01*
G75*
G02*
X137735000Y-75912500I0J-250000D01*
G01*
X137735000Y-76412500D01*
G75*
G02*
X137485000Y-76662500I-250000J0D01*
G01*
G37*
%TD*%
%TO.C,C13*%
G36*
G01*
X135105000Y-76662500D02*
X134155000Y-76662500D01*
G75*
G02*
X133905000Y-76412500I0J250000D01*
G01*
X133905000Y-75912500D01*
G75*
G02*
X134155000Y-75662500I250000J0D01*
G01*
X135105000Y-75662500D01*
G75*
G02*
X135355000Y-75912500I0J-250000D01*
G01*
X135355000Y-76412500D01*
G75*
G02*
X135105000Y-76662500I-250000J0D01*
G01*
G37*
G36*
G01*
X135105000Y-78562500D02*
X134155000Y-78562500D01*
G75*
G02*
X133905000Y-78312500I0J250000D01*
G01*
X133905000Y-77812500D01*
G75*
G02*
X134155000Y-77562500I250000J0D01*
G01*
X135105000Y-77562500D01*
G75*
G02*
X135355000Y-77812500I0J-250000D01*
G01*
X135355000Y-78312500D01*
G75*
G02*
X135105000Y-78562500I-250000J0D01*
G01*
G37*
%TD*%
%TO.C,C14*%
G36*
G01*
X132725000Y-76662500D02*
X131775000Y-76662500D01*
G75*
G02*
X131525000Y-76412500I0J250000D01*
G01*
X131525000Y-75912500D01*
G75*
G02*
X131775000Y-75662500I250000J0D01*
G01*
X132725000Y-75662500D01*
G75*
G02*
X132975000Y-75912500I0J-250000D01*
G01*
X132975000Y-76412500D01*
G75*
G02*
X132725000Y-76662500I-250000J0D01*
G01*
G37*
G36*
G01*
X132725000Y-78562500D02*
X131775000Y-78562500D01*
G75*
G02*
X131525000Y-78312500I0J250000D01*
G01*
X131525000Y-77812500D01*
G75*
G02*
X131775000Y-77562500I250000J0D01*
G01*
X132725000Y-77562500D01*
G75*
G02*
X132975000Y-77812500I0J-250000D01*
G01*
X132975000Y-78312500D01*
G75*
G02*
X132725000Y-78562500I-250000J0D01*
G01*
G37*
%TD*%
%TO.C,C15*%
G36*
G01*
X120500000Y-66975000D02*
X120500000Y-66025000D01*
G75*
G02*
X120750000Y-65775000I250000J0D01*
G01*
X121250000Y-65775000D01*
G75*
G02*
X121500000Y-66025000I0J-250000D01*
G01*
X121500000Y-66975000D01*
G75*
G02*
X121250000Y-67225000I-250000J0D01*
G01*
X120750000Y-67225000D01*
G75*
G02*
X120500000Y-66975000I0J250000D01*
G01*
G37*
G36*
G01*
X122400000Y-66975000D02*
X122400000Y-66025000D01*
G75*
G02*
X122650000Y-65775000I250000J0D01*
G01*
X123150000Y-65775000D01*
G75*
G02*
X123400000Y-66025000I0J-250000D01*
G01*
X123400000Y-66975000D01*
G75*
G02*
X123150000Y-67225000I-250000J0D01*
G01*
X122650000Y-67225000D01*
G75*
G02*
X122400000Y-66975000I0J250000D01*
G01*
G37*
%TD*%
%TO.C,C16*%
G36*
G01*
X107050000Y-66975000D02*
X107050000Y-66025000D01*
G75*
G02*
X107300000Y-65775000I250000J0D01*
G01*
X107800000Y-65775000D01*
G75*
G02*
X108050000Y-66025000I0J-250000D01*
G01*
X108050000Y-66975000D01*
G75*
G02*
X107800000Y-67225000I-250000J0D01*
G01*
X107300000Y-67225000D01*
G75*
G02*
X107050000Y-66975000I0J250000D01*
G01*
G37*
G36*
G01*
X108950000Y-66975000D02*
X108950000Y-66025000D01*
G75*
G02*
X109200000Y-65775000I250000J0D01*
G01*
X109700000Y-65775000D01*
G75*
G02*
X109950000Y-66025000I0J-250000D01*
G01*
X109950000Y-66975000D01*
G75*
G02*
X109700000Y-67225000I-250000J0D01*
G01*
X109200000Y-67225000D01*
G75*
G02*
X108950000Y-66975000I0J250000D01*
G01*
G37*
%TD*%
%TO.C,C17*%
G36*
G01*
X146364205Y-68651000D02*
X145414205Y-68651000D01*
G75*
G02*
X145164205Y-68401000I0J250000D01*
G01*
X145164205Y-67901000D01*
G75*
G02*
X145414205Y-67651000I250000J0D01*
G01*
X146364205Y-67651000D01*
G75*
G02*
X146614205Y-67901000I0J-250000D01*
G01*
X146614205Y-68401000D01*
G75*
G02*
X146364205Y-68651000I-250000J0D01*
G01*
G37*
G36*
G01*
X146364205Y-66751000D02*
X145414205Y-66751000D01*
G75*
G02*
X145164205Y-66501000I0J250000D01*
G01*
X145164205Y-66001000D01*
G75*
G02*
X145414205Y-65751000I250000J0D01*
G01*
X146364205Y-65751000D01*
G75*
G02*
X146614205Y-66001000I0J-250000D01*
G01*
X146614205Y-66501000D01*
G75*
G02*
X146364205Y-66751000I-250000J0D01*
G01*
G37*
%TD*%
%TO.C,C18*%
G36*
G01*
X143786270Y-68651000D02*
X142836270Y-68651000D01*
G75*
G02*
X142586270Y-68401000I0J250000D01*
G01*
X142586270Y-67901000D01*
G75*
G02*
X142836270Y-67651000I250000J0D01*
G01*
X143786270Y-67651000D01*
G75*
G02*
X144036270Y-67901000I0J-250000D01*
G01*
X144036270Y-68401000D01*
G75*
G02*
X143786270Y-68651000I-250000J0D01*
G01*
G37*
G36*
G01*
X143786270Y-66751000D02*
X142836270Y-66751000D01*
G75*
G02*
X142586270Y-66501000I0J250000D01*
G01*
X142586270Y-66001000D01*
G75*
G02*
X142836270Y-65751000I250000J0D01*
G01*
X143786270Y-65751000D01*
G75*
G02*
X144036270Y-66001000I0J-250000D01*
G01*
X144036270Y-66501000D01*
G75*
G02*
X143786270Y-66751000I-250000J0D01*
G01*
G37*
%TD*%
%TO.C,C19*%
G36*
G01*
X141208335Y-66751000D02*
X140258335Y-66751000D01*
G75*
G02*
X140008335Y-66501000I0J250000D01*
G01*
X140008335Y-66001000D01*
G75*
G02*
X140258335Y-65751000I250000J0D01*
G01*
X141208335Y-65751000D01*
G75*
G02*
X141458335Y-66001000I0J-250000D01*
G01*
X141458335Y-66501000D01*
G75*
G02*
X141208335Y-66751000I-250000J0D01*
G01*
G37*
G36*
G01*
X141208335Y-68651000D02*
X140258335Y-68651000D01*
G75*
G02*
X140008335Y-68401000I0J250000D01*
G01*
X140008335Y-67901000D01*
G75*
G02*
X140258335Y-67651000I250000J0D01*
G01*
X141208335Y-67651000D01*
G75*
G02*
X141458335Y-67901000I0J-250000D01*
G01*
X141458335Y-68401000D01*
G75*
G02*
X141208335Y-68651000I-250000J0D01*
G01*
G37*
%TD*%
D15*
%TO.C,D1*%
X152155075Y-68151000D03*
X152155075Y-72151000D03*
%TD*%
%TO.C,D2*%
X156203011Y-76151000D03*
X156203011Y-72151000D03*
%TD*%
%TO.C,D3*%
X160300000Y-76151000D03*
X160300000Y-72151000D03*
%TD*%
%TO.C,L1*%
G36*
G01*
X112364584Y-69062500D02*
X111602084Y-69062500D01*
G75*
G02*
X111383334Y-68843750I0J218750D01*
G01*
X111383334Y-68406250D01*
G75*
G02*
X111602084Y-68187500I218750J0D01*
G01*
X112364584Y-68187500D01*
G75*
G02*
X112583334Y-68406250I0J-218750D01*
G01*
X112583334Y-68843750D01*
G75*
G02*
X112364584Y-69062500I-218750J0D01*
G01*
G37*
G36*
G01*
X112364584Y-66937500D02*
X111602084Y-66937500D01*
G75*
G02*
X111383334Y-66718750I0J218750D01*
G01*
X111383334Y-66281250D01*
G75*
G02*
X111602084Y-66062500I218750J0D01*
G01*
X112364584Y-66062500D01*
G75*
G02*
X112583334Y-66281250I0J-218750D01*
G01*
X112583334Y-66718750D01*
G75*
G02*
X112364584Y-66937500I-218750J0D01*
G01*
G37*
%TD*%
%TO.C,L2*%
G36*
G01*
X130381250Y-76375000D02*
X129618750Y-76375000D01*
G75*
G02*
X129400000Y-76156250I0J218750D01*
G01*
X129400000Y-75718750D01*
G75*
G02*
X129618750Y-75500000I218750J0D01*
G01*
X130381250Y-75500000D01*
G75*
G02*
X130600000Y-75718750I0J-218750D01*
G01*
X130600000Y-76156250D01*
G75*
G02*
X130381250Y-76375000I-218750J0D01*
G01*
G37*
G36*
G01*
X130381250Y-78500000D02*
X129618750Y-78500000D01*
G75*
G02*
X129400000Y-78281250I0J218750D01*
G01*
X129400000Y-77843750D01*
G75*
G02*
X129618750Y-77625000I218750J0D01*
G01*
X130381250Y-77625000D01*
G75*
G02*
X130600000Y-77843750I0J-218750D01*
G01*
X130600000Y-78281250D01*
G75*
G02*
X130381250Y-78500000I-218750J0D01*
G01*
G37*
%TD*%
%TO.C,R1*%
G36*
G01*
X123634818Y-92366762D02*
X123634818Y-91466760D01*
G75*
G02*
X123884817Y-91216761I249999J0D01*
G01*
X124409819Y-91216761D01*
G75*
G02*
X124659818Y-91466760I0J-249999D01*
G01*
X124659818Y-92366762D01*
G75*
G02*
X124409819Y-92616761I-249999J0D01*
G01*
X123884817Y-92616761D01*
G75*
G02*
X123634818Y-92366762I0J249999D01*
G01*
G37*
G36*
G01*
X121809818Y-92366762D02*
X121809818Y-91466760D01*
G75*
G02*
X122059817Y-91216761I249999J0D01*
G01*
X122584819Y-91216761D01*
G75*
G02*
X122834818Y-91466760I0J-249999D01*
G01*
X122834818Y-92366762D01*
G75*
G02*
X122584819Y-92616761I-249999J0D01*
G01*
X122059817Y-92616761D01*
G75*
G02*
X121809818Y-92366762I0J249999D01*
G01*
G37*
%TD*%
%TO.C,R3*%
G36*
G01*
X114320834Y-85549999D02*
X114320834Y-86450001D01*
G75*
G02*
X114070835Y-86700000I-249999J0D01*
G01*
X113545833Y-86700000D01*
G75*
G02*
X113295834Y-86450001I0J249999D01*
G01*
X113295834Y-85549999D01*
G75*
G02*
X113545833Y-85300000I249999J0D01*
G01*
X114070835Y-85300000D01*
G75*
G02*
X114320834Y-85549999I0J-249999D01*
G01*
G37*
G36*
G01*
X112495834Y-85549999D02*
X112495834Y-86450001D01*
G75*
G02*
X112245835Y-86700000I-249999J0D01*
G01*
X111720833Y-86700000D01*
G75*
G02*
X111470834Y-86450001I0J249999D01*
G01*
X111470834Y-85549999D01*
G75*
G02*
X111720833Y-85300000I249999J0D01*
G01*
X112245835Y-85300000D01*
G75*
G02*
X112495834Y-85549999I0J-249999D01*
G01*
G37*
%TD*%
%TO.C,R4*%
G36*
G01*
X146950001Y-80400000D02*
X146049999Y-80400000D01*
G75*
G02*
X145800000Y-80150001I0J249999D01*
G01*
X145800000Y-79624999D01*
G75*
G02*
X146049999Y-79375000I249999J0D01*
G01*
X146950001Y-79375000D01*
G75*
G02*
X147200000Y-79624999I0J-249999D01*
G01*
X147200000Y-80150001D01*
G75*
G02*
X146950001Y-80400000I-249999J0D01*
G01*
G37*
G36*
G01*
X146950001Y-78575000D02*
X146049999Y-78575000D01*
G75*
G02*
X145800000Y-78325001I0J249999D01*
G01*
X145800000Y-77799999D01*
G75*
G02*
X146049999Y-77550000I249999J0D01*
G01*
X146950001Y-77550000D01*
G75*
G02*
X147200000Y-77799999I0J-249999D01*
G01*
X147200000Y-78325001D01*
G75*
G02*
X146950001Y-78575000I-249999J0D01*
G01*
G37*
%TD*%
%TO.C,R5*%
G36*
G01*
X150839740Y-74773883D02*
X150839740Y-75673885D01*
G75*
G02*
X150589741Y-75923884I-249999J0D01*
G01*
X150064739Y-75923884D01*
G75*
G02*
X149814740Y-75673885I0J249999D01*
G01*
X149814740Y-74773883D01*
G75*
G02*
X150064739Y-74523884I249999J0D01*
G01*
X150589741Y-74523884D01*
G75*
G02*
X150839740Y-74773883I0J-249999D01*
G01*
G37*
G36*
G01*
X152664740Y-74773883D02*
X152664740Y-75673885D01*
G75*
G02*
X152414741Y-75923884I-249999J0D01*
G01*
X151889739Y-75923884D01*
G75*
G02*
X151639740Y-75673885I0J249999D01*
G01*
X151639740Y-74773883D01*
G75*
G02*
X151889739Y-74523884I249999J0D01*
G01*
X152414741Y-74523884D01*
G75*
G02*
X152664740Y-74773883I0J-249999D01*
G01*
G37*
%TD*%
D10*
%TO.C,U2*%
G36*
X118041667Y-66850000D02*
G01*
X118041667Y-66150000D01*
X119341667Y-66150000D01*
X119341667Y-66850000D01*
X118041667Y-66850000D01*
G37*
G36*
X113741667Y-66850000D02*
G01*
X113741667Y-66150000D01*
X115041667Y-66150000D01*
X115041667Y-66850000D01*
X113741667Y-66850000D01*
G37*
G36*
X115941667Y-65000000D02*
G01*
X115941667Y-63600000D01*
X117141667Y-63600000D01*
X117141667Y-65000000D01*
X115941667Y-65000000D01*
G37*
G36*
X115941667Y-69400000D02*
G01*
X115941667Y-68000000D01*
X117141667Y-68000000D01*
X117141667Y-69400000D01*
X115941667Y-69400000D01*
G37*
%TD*%
D16*
%TO.C,Y1*%
X135333000Y-60912000D03*
X132793000Y-60912000D03*
X130253000Y-60912000D03*
X127713000Y-60912000D03*
X135079000Y-73612000D03*
X132539000Y-73612000D03*
X129999000Y-73612000D03*
X127459000Y-73612000D03*
X138000000Y-63071000D03*
X138000000Y-65611000D03*
X138000000Y-68151000D03*
X138000000Y-70691000D03*
X125300000Y-71580000D03*
X125300000Y-69040000D03*
X125300000Y-66500000D03*
X125300000Y-63960000D03*
%TD*%
D17*
%TO.C,D4*%
X148637140Y-68151000D03*
X148637140Y-64651000D03*
%TD*%
M02*
