%TF.GenerationSoftware,KiCad,Pcbnew,(5.1.8)-1*%
%TF.CreationDate,2021-02-23T22:19:55+01:00*%
%TF.ProjectId,cvco-general,6376636f-2d67-4656-9e65-72616c2e6b69,rev?*%
%TF.SameCoordinates,Original*%
%TF.FileFunction,Soldermask,Bot*%
%TF.FilePolarity,Negative*%
%FSLAX46Y46*%
G04 Gerber Fmt 4.6, Leading zero omitted, Abs format (unit mm)*
G04 Created by KiCad (PCBNEW (5.1.8)-1) date 2021-02-23 22:19:55*
%MOMM*%
%LPD*%
G01*
G04 APERTURE LIST*
%TA.AperFunction,Profile*%
%ADD10C,0.050000*%
%TD*%
%ADD11R,5.080000X1.500000*%
%ADD12C,0.800000*%
%ADD13C,6.400000*%
%ADD14R,2.400000X2.400000*%
%ADD15C,2.400000*%
G04 APERTURE END LIST*
D10*
X105000000Y-95000000D02*
G75*
G02*
X100000000Y-90000000I0J5000000D01*
G01*
X165000000Y-90000000D02*
G75*
G02*
X160000000Y-95000000I-5000000J0D01*
G01*
X160000000Y-50000000D02*
G75*
G02*
X165000000Y-55000000I0J-5000000D01*
G01*
X100000000Y-55000000D02*
G75*
G02*
X105000000Y-50000000I5000000J0D01*
G01*
X100000000Y-90000000D02*
X100000000Y-55000000D01*
X160000000Y-95000000D02*
X105000000Y-95000000D01*
X165000000Y-55000000D02*
X165000000Y-90000000D01*
X105000000Y-50000000D02*
X160000000Y-50000000D01*
D11*
%TO.C,J1*%
X103000000Y-70750000D03*
X103000000Y-62250000D03*
%TD*%
D12*
%TO.C,H1*%
X107697056Y-54302944D03*
X106000000Y-53600000D03*
X104302944Y-54302944D03*
X103600000Y-56000000D03*
X104302944Y-57697056D03*
X106000000Y-58400000D03*
X107697056Y-57697056D03*
X108400000Y-56000000D03*
D13*
X106000000Y-56000000D03*
%TD*%
%TO.C,H2*%
X159000000Y-56000000D03*
D12*
X161400000Y-56000000D03*
X160697056Y-57697056D03*
X159000000Y-58400000D03*
X157302944Y-57697056D03*
X156600000Y-56000000D03*
X157302944Y-54302944D03*
X159000000Y-53600000D03*
X160697056Y-54302944D03*
%TD*%
%TO.C,H3*%
X107697056Y-87302944D03*
X106000000Y-86600000D03*
X104302944Y-87302944D03*
X103600000Y-89000000D03*
X104302944Y-90697056D03*
X106000000Y-91400000D03*
X107697056Y-90697056D03*
X108400000Y-89000000D03*
D13*
X106000000Y-89000000D03*
%TD*%
%TO.C,H4*%
X159000000Y-89000000D03*
D12*
X161400000Y-89000000D03*
X160697056Y-90697056D03*
X159000000Y-91400000D03*
X157302944Y-90697056D03*
X156600000Y-89000000D03*
X157302944Y-87302944D03*
X159000000Y-86600000D03*
X160697056Y-87302944D03*
%TD*%
D14*
%TO.C,J2*%
X141172374Y-89469494D03*
D15*
X144672374Y-89469494D03*
X148172374Y-89469494D03*
%TD*%
M02*
