%TF.GenerationSoftware,KiCad,Pcbnew,(5.1.8)-1*%
%TF.CreationDate,2021-02-23T22:19:54+01:00*%
%TF.ProjectId,cvco-general,6376636f-2d67-4656-9e65-72616c2e6b69,rev?*%
%TF.SameCoordinates,Original*%
%TF.FileFunction,Copper,L2,Bot*%
%TF.FilePolarity,Positive*%
%FSLAX46Y46*%
G04 Gerber Fmt 4.6, Leading zero omitted, Abs format (unit mm)*
G04 Created by KiCad (PCBNEW (5.1.8)-1) date 2021-02-23 22:19:54*
%MOMM*%
%LPD*%
G01*
G04 APERTURE LIST*
%TA.AperFunction,Profile*%
%ADD10C,0.050000*%
%TD*%
%TA.AperFunction,SMDPad,CuDef*%
%ADD11R,5.080000X1.500000*%
%TD*%
%TA.AperFunction,ComponentPad*%
%ADD12C,0.800000*%
%TD*%
%TA.AperFunction,ComponentPad*%
%ADD13C,6.400000*%
%TD*%
%TA.AperFunction,ComponentPad*%
%ADD14R,2.400000X2.400000*%
%TD*%
%TA.AperFunction,ComponentPad*%
%ADD15C,2.400000*%
%TD*%
%TA.AperFunction,Conductor*%
%ADD16C,0.075000*%
%TD*%
%TA.AperFunction,Conductor*%
%ADD17C,0.100000*%
%TD*%
G04 APERTURE END LIST*
D10*
X105000000Y-95000000D02*
G75*
G02*
X100000000Y-90000000I0J5000000D01*
G01*
X165000000Y-90000000D02*
G75*
G02*
X160000000Y-95000000I-5000000J0D01*
G01*
X160000000Y-50000000D02*
G75*
G02*
X165000000Y-55000000I0J-5000000D01*
G01*
X100000000Y-55000000D02*
G75*
G02*
X105000000Y-50000000I5000000J0D01*
G01*
X100000000Y-90000000D02*
X100000000Y-55000000D01*
X160000000Y-95000000D02*
X105000000Y-95000000D01*
X165000000Y-55000000D02*
X165000000Y-90000000D01*
X105000000Y-50000000D02*
X160000000Y-50000000D01*
D11*
%TO.P,J1,2*%
%TO.N,GND*%
X103000000Y-70750000D03*
X103000000Y-62250000D03*
%TD*%
D12*
%TO.P,H1,1*%
%TO.N,GND*%
X107697056Y-54302944D03*
X106000000Y-53600000D03*
X104302944Y-54302944D03*
X103600000Y-56000000D03*
X104302944Y-57697056D03*
X106000000Y-58400000D03*
X107697056Y-57697056D03*
X108400000Y-56000000D03*
D13*
X106000000Y-56000000D03*
%TD*%
%TO.P,H2,1*%
%TO.N,GND*%
X159000000Y-56000000D03*
D12*
X161400000Y-56000000D03*
X160697056Y-57697056D03*
X159000000Y-58400000D03*
X157302944Y-57697056D03*
X156600000Y-56000000D03*
X157302944Y-54302944D03*
X159000000Y-53600000D03*
X160697056Y-54302944D03*
%TD*%
%TO.P,H3,1*%
%TO.N,GND*%
X107697056Y-87302944D03*
X106000000Y-86600000D03*
X104302944Y-87302944D03*
X103600000Y-89000000D03*
X104302944Y-90697056D03*
X106000000Y-91400000D03*
X107697056Y-90697056D03*
X108400000Y-89000000D03*
D13*
X106000000Y-89000000D03*
%TD*%
%TO.P,H4,1*%
%TO.N,GND*%
X159000000Y-89000000D03*
D12*
X161400000Y-89000000D03*
X160697056Y-90697056D03*
X159000000Y-91400000D03*
X157302944Y-90697056D03*
X156600000Y-89000000D03*
X157302944Y-87302944D03*
X159000000Y-86600000D03*
X160697056Y-87302944D03*
%TD*%
D14*
%TO.P,J2,1*%
%TO.N,+24V*%
X141172374Y-89469494D03*
D15*
%TO.P,J2,2*%
%TO.N,GND*%
X144672374Y-89469494D03*
%TO.P,J2,3*%
%TO.N,TUNE*%
X148172374Y-89469494D03*
%TD*%
D16*
%TO.N,GND*%
X160847648Y-50288995D02*
X161668493Y-50513553D01*
X162436602Y-50879923D01*
X163127699Y-51376526D01*
X163719930Y-51987661D01*
X164194579Y-52694015D01*
X164536640Y-53473248D01*
X164735699Y-54302391D01*
X164787500Y-55007787D01*
X164787501Y-89990522D01*
X164711005Y-90847643D01*
X164486446Y-91668495D01*
X164120076Y-92436605D01*
X163623472Y-93127702D01*
X163012339Y-93719930D01*
X162305985Y-94194579D01*
X161526752Y-94536640D01*
X160697610Y-94735699D01*
X159992213Y-94787500D01*
X105009467Y-94787500D01*
X104152357Y-94711005D01*
X103331505Y-94486446D01*
X102563395Y-94120076D01*
X101872298Y-93623472D01*
X101280070Y-93012339D01*
X100805421Y-92305985D01*
X100463360Y-91526752D01*
X100264301Y-90697610D01*
X100212500Y-89992213D01*
X100212500Y-88269494D01*
X139733725Y-88269494D01*
X139733725Y-90669494D01*
X139738311Y-90716052D01*
X139751891Y-90760821D01*
X139773945Y-90802080D01*
X139803624Y-90838244D01*
X139839788Y-90867923D01*
X139881047Y-90889977D01*
X139925816Y-90903557D01*
X139972374Y-90908143D01*
X142372374Y-90908143D01*
X142418932Y-90903557D01*
X142463701Y-90889977D01*
X142504960Y-90867923D01*
X142541124Y-90838244D01*
X142570803Y-90802080D01*
X142592857Y-90760821D01*
X142606437Y-90716052D01*
X142611023Y-90669494D01*
X142611023Y-89327913D01*
X146734874Y-89327913D01*
X146734874Y-89611075D01*
X146790117Y-89888797D01*
X146898478Y-90150405D01*
X147055795Y-90385847D01*
X147256021Y-90586073D01*
X147491463Y-90743390D01*
X147753071Y-90851751D01*
X148030793Y-90906994D01*
X148313955Y-90906994D01*
X148591677Y-90851751D01*
X148853285Y-90743390D01*
X149088727Y-90586073D01*
X149288953Y-90385847D01*
X149446270Y-90150405D01*
X149554631Y-89888797D01*
X149609874Y-89611075D01*
X149609874Y-89327913D01*
X149554631Y-89050191D01*
X149446270Y-88788583D01*
X149288953Y-88553141D01*
X149088727Y-88352915D01*
X148853285Y-88195598D01*
X148591677Y-88087237D01*
X148313955Y-88031994D01*
X148030793Y-88031994D01*
X147753071Y-88087237D01*
X147491463Y-88195598D01*
X147256021Y-88352915D01*
X147055795Y-88553141D01*
X146898478Y-88788583D01*
X146790117Y-89050191D01*
X146734874Y-89327913D01*
X142611023Y-89327913D01*
X142611023Y-88269494D01*
X142606437Y-88222936D01*
X142592857Y-88178167D01*
X142570803Y-88136908D01*
X142541124Y-88100744D01*
X142504960Y-88071065D01*
X142463701Y-88049011D01*
X142418932Y-88035431D01*
X142372374Y-88030845D01*
X139972374Y-88030845D01*
X139925816Y-88035431D01*
X139881047Y-88049011D01*
X139839788Y-88071065D01*
X139803624Y-88100744D01*
X139773945Y-88136908D01*
X139751891Y-88178167D01*
X139738311Y-88222936D01*
X139733725Y-88269494D01*
X100212500Y-88269494D01*
X100212500Y-55009467D01*
X100288995Y-54152352D01*
X100513553Y-53331507D01*
X100879923Y-52563398D01*
X101376526Y-51872301D01*
X101987661Y-51280070D01*
X102694015Y-50805421D01*
X103473248Y-50463360D01*
X104302391Y-50264301D01*
X105007787Y-50212500D01*
X159990533Y-50212500D01*
X160847648Y-50288995D01*
%TA.AperFunction,Conductor*%
D17*
G36*
X160847648Y-50288995D02*
G01*
X161668493Y-50513553D01*
X162436602Y-50879923D01*
X163127699Y-51376526D01*
X163719930Y-51987661D01*
X164194579Y-52694015D01*
X164536640Y-53473248D01*
X164735699Y-54302391D01*
X164787500Y-55007787D01*
X164787501Y-89990522D01*
X164711005Y-90847643D01*
X164486446Y-91668495D01*
X164120076Y-92436605D01*
X163623472Y-93127702D01*
X163012339Y-93719930D01*
X162305985Y-94194579D01*
X161526752Y-94536640D01*
X160697610Y-94735699D01*
X159992213Y-94787500D01*
X105009467Y-94787500D01*
X104152357Y-94711005D01*
X103331505Y-94486446D01*
X102563395Y-94120076D01*
X101872298Y-93623472D01*
X101280070Y-93012339D01*
X100805421Y-92305985D01*
X100463360Y-91526752D01*
X100264301Y-90697610D01*
X100212500Y-89992213D01*
X100212500Y-88269494D01*
X139733725Y-88269494D01*
X139733725Y-90669494D01*
X139738311Y-90716052D01*
X139751891Y-90760821D01*
X139773945Y-90802080D01*
X139803624Y-90838244D01*
X139839788Y-90867923D01*
X139881047Y-90889977D01*
X139925816Y-90903557D01*
X139972374Y-90908143D01*
X142372374Y-90908143D01*
X142418932Y-90903557D01*
X142463701Y-90889977D01*
X142504960Y-90867923D01*
X142541124Y-90838244D01*
X142570803Y-90802080D01*
X142592857Y-90760821D01*
X142606437Y-90716052D01*
X142611023Y-90669494D01*
X142611023Y-89327913D01*
X146734874Y-89327913D01*
X146734874Y-89611075D01*
X146790117Y-89888797D01*
X146898478Y-90150405D01*
X147055795Y-90385847D01*
X147256021Y-90586073D01*
X147491463Y-90743390D01*
X147753071Y-90851751D01*
X148030793Y-90906994D01*
X148313955Y-90906994D01*
X148591677Y-90851751D01*
X148853285Y-90743390D01*
X149088727Y-90586073D01*
X149288953Y-90385847D01*
X149446270Y-90150405D01*
X149554631Y-89888797D01*
X149609874Y-89611075D01*
X149609874Y-89327913D01*
X149554631Y-89050191D01*
X149446270Y-88788583D01*
X149288953Y-88553141D01*
X149088727Y-88352915D01*
X148853285Y-88195598D01*
X148591677Y-88087237D01*
X148313955Y-88031994D01*
X148030793Y-88031994D01*
X147753071Y-88087237D01*
X147491463Y-88195598D01*
X147256021Y-88352915D01*
X147055795Y-88553141D01*
X146898478Y-88788583D01*
X146790117Y-89050191D01*
X146734874Y-89327913D01*
X142611023Y-89327913D01*
X142611023Y-88269494D01*
X142606437Y-88222936D01*
X142592857Y-88178167D01*
X142570803Y-88136908D01*
X142541124Y-88100744D01*
X142504960Y-88071065D01*
X142463701Y-88049011D01*
X142418932Y-88035431D01*
X142372374Y-88030845D01*
X139972374Y-88030845D01*
X139925816Y-88035431D01*
X139881047Y-88049011D01*
X139839788Y-88071065D01*
X139803624Y-88100744D01*
X139773945Y-88136908D01*
X139751891Y-88178167D01*
X139738311Y-88222936D01*
X139733725Y-88269494D01*
X100212500Y-88269494D01*
X100212500Y-55009467D01*
X100288995Y-54152352D01*
X100513553Y-53331507D01*
X100879923Y-52563398D01*
X101376526Y-51872301D01*
X101987661Y-51280070D01*
X102694015Y-50805421D01*
X103473248Y-50463360D01*
X104302391Y-50264301D01*
X105007787Y-50212500D01*
X159990533Y-50212500D01*
X160847648Y-50288995D01*
G37*
%TD.AperFunction*%
%TD*%
M02*
