M48
; DRILL file {KiCad (5.1.8)-1} date 02/23/21 22:19:57
; FORMAT={-:-/ absolute / inch / decimal}
; #@! TF.CreationDate,2021-02-23T22:19:57+01:00
; #@! TF.GenerationSoftware,Kicad,Pcbnew,(5.1.8)-1
FMAT,2
INCH
T1C0.0197
T2C0.0472
T3C0.1260
%
G90
G05
T1
X6.1654Y-3.5039
X6.193Y-3.4371
X6.193Y-3.5708
X6.2598Y-3.4094
X6.2598Y-3.5984
X6.3267Y-3.4371
X6.3267Y-3.5708
X6.3543Y-3.5039
X4.0787Y-3.5039
X4.1064Y-3.4371
X4.1064Y-3.5708
X4.1732Y-3.4094
X4.1732Y-3.5984
X4.24Y-3.4371
X4.24Y-3.5708
X4.2677Y-3.5039
X6.1654Y-2.2047
X6.193Y-2.1379
X6.193Y-2.2715
X6.2598Y-2.1102
X6.2598Y-2.2992
X6.3267Y-2.1379
X6.3267Y-2.2715
X6.3543Y-2.2047
X4.0787Y-2.2047
X4.1064Y-2.1379
X4.1064Y-2.2715
X4.1732Y-2.1102
X4.1732Y-2.2992
X4.24Y-2.1379
X4.24Y-2.2715
X4.2677Y-2.2047
T2
X5.558Y-3.5224
X5.6958Y-3.5224
X5.8336Y-3.5224
T3
X6.2598Y-3.5039
X4.1732Y-3.5039
X6.2598Y-2.2047
X4.1732Y-2.2047
T0
M30
